<svg width="160" height="162" viewBox="0 0 160 162" fill="none" xmlns="http://www.w3.org/2000/svg">
<path d="M157.972 157.076C159.076 157.076 159.972 157.972 159.972 159.076C159.972 160.181 159.076 161.076 157.972 161.076H2.02832C0.923828 161.076 0.0283203 160.181 0.0283203 159.076C0.0283203 157.972 0.923828 157.076 2.02832 157.076H28.9447L34.3014 126.745L32.1641 126.369C31.0762 126.178 30.3496 125.141 30.541 124.053C30.7324 122.966 31.7676 122.233 32.8574 122.43L34.9971 122.806L40.5901 91.1369L38.4531 90.7606C37.3652 90.5692 36.6387 89.5321 36.8301 88.4442C37.0215 87.3573 38.0527 86.6268 39.1465 86.8212L41.2858 87.1979L46.879 55.5275L44.7422 55.1513C43.6543 54.9599 42.9277 53.9227 43.1191 52.8349C43.3115 51.7479 44.3389 51.0194 45.4355 51.2118L47.5747 51.5885L53.168 19.9181L51.0312 19.5419C49.9434 19.3505 49.2168 18.3134 49.4082 17.2255C49.5996 16.1376 50.6338 15.413 51.7246 15.6024L63.313 17.643L65.9746 2.57802C66.168 1.48915 67.21 0.764544 68.291 0.95595L127.51 11.3866C128.032 11.4784 128.497 11.7743 128.802 12.2089C129.105 12.6444 129.225 13.1815 129.133 13.704L126.471 28.7643L138.058 30.8046C139.146 30.996 139.872 32.0331 139.681 33.121C139.51 34.0917 138.666 34.7743 137.713 34.7743C137.599 34.7743 137.481 34.7645 137.364 34.744L134.953 34.3195L129.36 65.9899L131.769 66.414C132.856 66.6054 133.583 67.6425 133.392 68.7304C133.221 69.7011 132.377 70.3837 131.424 70.3837C131.31 70.3837 131.192 70.3739 131.075 70.3534L128.664 69.9288L123.071 101.598L125.479 102.022C126.567 102.214 127.294 103.251 127.103 104.339C126.932 105.309 126.088 105.992 125.135 105.992C125.021 105.992 124.903 105.982 124.786 105.962L122.376 105.537L116.782 137.208L119.19 137.632C120.278 137.823 121.005 138.86 120.813 139.948C120.643 140.919 119.799 141.601 118.846 141.601C118.731 141.601 118.614 141.592 118.497 141.571L116.087 141.147L113.274 157.076H157.972V157.076ZM99.292 153.302C99.4824 152.226 99.2412 151.142 98.6143 150.248C97.9873 149.353 97.0479 148.756 95.9697 148.566C93.7344 148.179 91.6143 149.663 91.2227 151.883L90.3055 157.076H98.626L99.292 153.302ZM76.71 149.203C76.9004 148.128 76.6592 147.044 76.0322 146.149C75.4053 145.254 74.4658 144.656 73.3877 144.467C71.1631 144.08 69.0322 145.564 68.6387 147.791L66.9634 157.076H75.3197L76.71 149.203ZM54.3213 145.227C54.5107 144.153 54.2705 143.068 53.6426 142.175C53.0156 141.279 52.0762 140.682 50.998 140.492C48.752 140.106 46.6426 141.59 46.2432 143.851L43.6124 157.076H52.2972L54.3213 145.227ZM124.846 14.9784L69.5664 5.24208L67.2528 18.3368L122.531 28.0706L124.846 14.9784ZM131.014 33.6258L57.1077 20.6118L51.5144 52.2822L58.1449 53.4497L61.2598 35.8114C62.0361 31.4198 66.2402 28.4833 70.6396 29.2509C72.7695 29.6259 74.626 30.8065 75.8662 32.5761C77.1074 34.3456 77.584 36.4921 77.209 38.621L74.0944 56.2582L80.54 57.3933L83.6494 39.787C84.4248 35.3954 88.6309 32.4569 93.0293 33.2265C95.1592 33.6015 97.0156 34.7821 98.2559 36.5517C99.4971 38.3212 99.9736 40.4686 99.5977 42.5966L96.4886 60.2017L103.201 61.3834L106.231 44.2216C107.008 39.83 111.211 36.8935 115.611 37.661C117.741 38.036 119.598 39.2167 120.838 40.9862C122.079 42.7558 122.556 44.9022 122.181 47.0311L119.15 64.192L125.42 65.2962L131.014 33.6258ZM70.1545 55.5645L73.2695 37.9257C73.459 36.8515 73.2188 35.7665 72.5908 34.8729C71.9639 33.9774 71.0244 33.3798 69.9463 33.1903C67.707 32.8075 65.5908 34.287 65.1992 36.5067L62.0846 54.1435L70.1545 55.5645ZM92.549 59.5078L95.6582 41.9013C95.8486 40.8261 95.6074 39.7421 94.9805 38.8476C94.3535 37.953 93.4141 37.3554 92.3359 37.1659C90.0977 36.7792 87.9805 38.2626 87.5889 40.4823L84.4797 58.0871L92.549 59.5078ZM115.21 63.4983L118.241 46.3358C118.431 45.2616 118.19 44.1767 117.562 43.2831C116.936 42.3876 115.996 41.7899 114.918 41.6005C112.679 41.2138 110.563 42.6972 110.171 44.9169L107.14 62.0773L115.21 63.4983ZM124.725 69.2351L50.8187 56.2213L45.2256 87.8916L51.8572 89.0592L54.96 71.4901C55.7344 67.0985 59.9355 64.1552 64.3389 64.9296C66.4688 65.3046 68.3252 66.4852 69.5654 68.2548C70.8076 70.0253 71.2842 72.1718 70.9082 74.2997L67.8058 91.8674L74.2516 93.0023L77.3486 75.4657C78.125 71.0741 82.3252 68.1386 86.7285 68.9052C88.8584 69.2802 90.7148 70.4608 91.9551 72.2304C93.1963 73.9999 93.6729 76.1474 93.2969 78.2753L90.2009 95.8107L96.913 96.9924L99.9307 79.9003C100.706 75.5077 104.906 72.5653 109.311 73.3397C111.44 73.7147 113.297 74.8954 114.537 76.6649C115.779 78.4345 116.256 80.5819 115.88 82.7099L112.862 99.8007L119.132 100.905L124.725 69.2351ZM63.8661 91.1737L66.9688 73.6044C67.1592 72.5302 66.918 71.4462 66.291 70.5517C65.6631 69.6561 64.7236 69.0585 63.6455 68.869C61.417 68.4833 59.291 69.9638 58.8994 72.1854L55.7969 89.7529L63.8661 91.1737ZM86.2612 95.117L89.3574 77.58C89.5479 76.5048 89.3066 75.4208 88.6797 74.5263C88.0527 73.6317 87.1133 73.0341 86.0352 72.8446C83.8047 72.4559 81.6787 73.9403 81.2881 76.161L78.1913 93.6961L86.2612 95.117ZM108.922 99.1069L111.94 82.0145C112.131 80.9393 111.89 79.8554 111.263 78.9618C110.635 78.0663 109.695 77.4686 108.617 77.2792C106.393 76.8915 104.262 78.3749 103.87 80.5956L100.853 97.6862L108.922 99.1069ZM118.436 104.844L44.5299 91.8306L38.9368 123.5L45.569 124.668L48.6592 107.169C49.4355 102.777 53.6396 99.8368 58.0391 100.608C60.1689 100.983 62.0254 102.164 63.2656 103.933C64.5068 105.703 64.9834 107.85 64.6074 109.978L61.5173 127.476L67.9641 128.611L71.0488 111.144C71.8232 106.752 76.0293 103.809 80.4277 104.584C82.5576 104.959 84.4141 106.14 85.6543 107.909C86.8965 109.679 87.373 111.826 86.9971 113.954L83.9125 131.42L90.6246 132.602L93.6309 115.579C94.4072 111.187 98.6104 108.246 103.011 109.018C105.141 109.393 106.997 110.574 108.237 112.344C109.479 114.113 109.955 116.261 109.579 118.389L106.573 135.41L112.843 136.514L118.436 104.844ZM57.5776 126.782L60.668 109.283C60.8584 108.208 60.6172 107.124 59.9902 106.229C59.3633 105.335 58.4238 104.737 57.3457 104.548C55.1113 104.16 52.9902 105.643 52.5986 107.864L49.5087 125.362L57.5776 126.782ZM79.9728 130.726L83.0576 113.259C83.248 112.183 83.0068 111.1 82.3799 110.206C81.752 109.31 80.8125 108.713 79.7344 108.523C77.5107 108.14 75.3799 109.618 74.9883 111.84L71.9038 129.305L79.9728 130.726ZM102.633 134.716L105.64 117.693C105.83 116.618 105.589 115.534 104.962 114.64C104.335 113.745 103.396 113.147 102.317 112.958C100.083 112.575 97.9619 114.055 97.5703 116.274L94.5643 133.295L102.633 134.716ZM112.147 140.453L38.2411 127.439L33.007 157.076H39.5332L42.3115 143.113C43.0879 138.722 47.2891 135.78 51.6914 136.553C53.8213 136.928 55.6777 138.108 56.918 139.878C58.1592 141.647 58.6357 143.794 58.2627 145.912L56.3557 157.076H62.8995L64.7012 147.088C65.4775 142.697 69.6797 139.752 74.0811 140.527C76.2109 140.902 78.0674 142.083 79.3076 143.852C80.5488 145.623 81.0254 147.77 80.6494 149.898L79.382 157.076H86.2434L87.2832 151.187C88.0586 146.796 92.2598 143.854 96.6631 144.627C98.793 145.002 100.649 146.183 101.89 147.952C103.131 149.722 103.607 151.869 103.231 153.997L102.688 157.076H109.211L112.147 140.453Z" fill="black"/>
</svg>
