<svg xmlns="http://www.w3.org/2000/svg" version="1.1" xmlns:xlink="http://www.w3.org/1999/xlink" xmlns:svgjs="http://svgjs.com/svgjs" width="512" height="512" x="0" y="0" viewBox="0 0 64 64" style="enable-background:new 0 0 512 512" xml:space="preserve" class=""><g><g xmlns="http://www.w3.org/2000/svg"><g id="LINE_261_"><g><path d="m32 59c-.552 0-1-.448-1-1v-9c0-.553.448-1 1-1s1 .447 1 1v9c0 .552-.448 1-1 1z" fill="#000000" data-original="#000000"></path></g></g><g id="LINE_262_"><g><path d="m19.729 55c-.059 0-.12-.006-.18-.017-.543-.099-.903-.619-.805-1.163l2.642-14.524c.099-.543.615-.903 1.163-.806.543.099.903.62.805 1.163l-2.642 14.525c-.088.483-.509.822-.983.822z" fill="#000000" data-original="#000000"></path></g></g><g id="LINE_263_"><g><path d="m50.128 37.364c-.126 0-.254-.024-.378-.074l-4.359-1.781c-.511-.209-.756-.793-.547-1.305.209-.511.792-.755 1.304-.547l4.359 1.781c.511.209.756.793.547 1.304-.158.388-.532.622-.926.622z" fill="#000000" data-original="#000000"></path></g></g><g id="LINE_264_"><g><path d="m13.872 37.364c-.395 0-.768-.234-.926-.622-.209-.511.036-1.095.547-1.304l4.359-1.781c.512-.207 1.095.036 1.304.547.209.512-.036 1.096-.547 1.305l-4.359 1.781c-.124.05-.252.074-.378.074z" fill="#000000" data-original="#000000"></path></g></g><g id="LINE_265_"><g><path d="m44.271 55c-.474 0-.895-.339-.983-.821l-2.642-14.524c-.099-.544.262-1.064.805-1.163.547-.099 1.064.262 1.163.805l2.642 14.524c.099.544-.262 1.064-.805 1.163-.06.01-.12.016-.18.016z" fill="#000000" data-original="#000000"></path></g></g><g id="CIRCLE_39_"><g><path d="m31.94 30.992c-.001 0 0 0 0 0-.896 0-1.786-.122-2.646-.363-4.929-1.382-8.06-6.415-7.127-11.458.916-4.948 5.647-8.604 10.759-8.129 5.088.468 9.074 4.842 9.074 9.958 0 1.223-.218 2.417-.649 3.551-1.464 3.852-5.246 6.441-9.411 6.441zm.091-17.991c-3.813 0-7.208 2.809-7.897 6.533-.747 4.036 1.757 8.063 5.701 9.169.684.192 1.392.289 2.105.289 3.34 0 6.371-2.07 7.541-5.151.345-.906.519-1.862.519-2.841 0-4.093-3.188-7.593-7.257-7.967-.238-.021-.476-.032-.712-.032z" fill="#000000" data-original="#000000"></path></g></g><g id="LWPOLYLINE_38_"><g><path d="m32 46c-.338 0-.653-.171-.837-.454-1.673-2.565-3.753-4.896-5.764-7.149-.807-.904-1.615-1.811-2.405-2.736-2.623-3.077-5.275-6.419-6.375-10.46-.375-1.377-.583-2.781-.619-4.175 0-8.699 7.327-16.026 16-16.026s16 7.327 16 16c-.184 7.159-4.8 12.275-9.264 17.223-1.154 1.279-2.244 2.487-3.264 3.732-.97 1.185-1.832 2.359-2.635 3.591-.184.283-.499.454-.837.454zm0-39c-7.589 0-14 6.411-14 14 .032 1.207.216 2.452.549 3.676.992 3.645 3.389 6.662 5.968 9.687.779.915 1.578 1.81 2.375 2.703 1.741 1.951 3.532 3.958 5.105 6.158.602-.855 1.239-1.693 1.928-2.535 1.05-1.283 2.208-2.565 3.327-3.806 4.221-4.678 8.584-9.515 8.75-15.909-.002-7.563-6.413-13.974-14.002-13.974z" fill="#000000" data-original="#000000"></path></g></g><g id="LINE_266_"><g><path d="m58 59c-.409 0-.792-.252-.94-.658l-7.872-21.636c-.188-.52.079-1.093.598-1.282.517-.188 1.092.079 1.282.599l7.872 21.636c.188.519-.079 1.093-.598 1.281-.113.04-.228.06-.342.06z" fill="#000000" data-original="#000000"></path></g></g><g id="LINE_267_"><g><path d="m6 59c-.114 0-.229-.02-.342-.061-.519-.188-.787-.763-.598-1.281l7.872-21.636c.189-.52.765-.787 1.282-.599.519.189.787.763.598 1.282l-7.872 21.637c-.148.406-.532.658-.94.658z" fill="#000000" data-original="#000000"></path></g></g><g id="LWPOLYLINE_39_"><g><path d="m58 59c-.093 0-.187-.013-.28-.04l-13.431-3.914-11.979 3.904c-.202.065-.418.065-.62 0l-11.979-3.904-13.431 3.914c-.529.154-1.085-.149-1.24-.681-.155-.53.15-1.085.68-1.239l13.728-4c.192-.057.399-.053.59.009l11.962 3.899 11.962-3.899c.191-.062.398-.065.59-.009l13.728 4c.53.154.835.709.68 1.239-.127.437-.526.721-.96.721z" fill="#000000" data-original="#000000"></path></g></g></g></g></svg>