<svg width="200" height="200" viewBox="0 0 200 200" fill="none" xmlns="http://www.w3.org/2000/svg">
<path d="M146.411 137.544C147.949 137.047 149.601 137.891 150.099 139.43C151.589 144.04 149.052 149.004 144.442 150.495C143.546 150.785 142.638 150.922 141.744 150.922C138.035 150.922 134.578 148.553 133.377 144.839C132.879 143.299 133.723 141.648 135.262 141.15C136.801 140.652 138.453 141.496 138.95 143.035C139.447 144.572 141.1 145.418 142.639 144.921C144.176 144.425 145.022 142.77 144.525 141.233C144.027 139.693 144.871 138.042 146.411 137.544V137.544Z" fill="black"/>
<path d="M165.382 118.67C166.526 117.526 168.38 117.526 169.524 118.67C172.95 122.096 172.95 127.67 169.524 131.097C167.811 132.81 165.561 133.666 163.311 133.666C161.06 133.666 158.81 132.81 157.097 131.097C155.953 129.953 155.953 128.098 157.097 126.955C158.241 125.811 160.096 125.811 161.239 126.955C162.381 128.096 164.24 128.097 165.381 126.955C166.524 125.813 166.524 123.954 165.381 122.812C164.238 121.669 164.238 119.814 165.382 118.67V118.67Z" fill="black"/>
<path d="M22.4323 36.8715C21.3568 35.8405 20.2035 34.836 19.0096 33.7956C11.9798 27.6699 3.23122 20.0465 11.8017 3.27811C12.7402 1.44177 14.5207 0.227181 16.5636 0.0287846C18.6304 -0.172346 20.6296 0.689585 21.9195 2.33143C23.827 4.75866 26.8681 5.60536 30.3897 6.58563C36.2849 8.2267 43.5061 10.2372 46.4496 20.7182C57.1466 19.0627 61.957 24.8283 65.885 29.5352C68.2447 32.3627 70.2826 34.8044 73.2964 35.5558C75.3233 36.0612 76.9304 37.5359 77.5947 39.5007C78.2524 41.4456 77.8759 43.5686 76.5879 45.1796C64.8966 59.8012 54.9287 55.2084 46.1337 51.1557C45.3627 50.8007 44.5793 50.4394 43.7927 50.0907C38.4833 61.9394 37.9483 72.4165 42.2095 81.2624C46.1563 89.456 55.258 93.9742 64.3557 92.2593L112.363 81.8036C113.233 77.8689 116.75 74.9172 120.943 74.9172C123.736 74.9172 126.315 76.2536 127.948 78.4094L147.26 74.2033C148.133 70.2728 151.648 67.3254 155.838 67.3254C158.627 67.3254 161.204 68.6587 162.837 70.8106L174.933 68.176C181.025 66.8548 187.299 68.3396 192.151 72.2513C197.002 76.163 199.785 81.9813 199.785 88.2136V90.8651C199.785 99.1383 198.431 107.309 195.759 115.171C196.179 116.211 196.398 117.323 196.398 118.451C196.398 122.111 194.115 125.348 190.795 126.641C187.289 133.259 182.817 139.464 177.475 145.125C177.792 146.04 177.956 147.005 177.956 147.992C177.956 151.947 175.329 155.3 171.728 156.398C169.473 164.895 164.775 176.484 155.048 185.568C144.775 195.161 131.148 200 114.456 200C111.826 200 109.118 199.88 106.337 199.639C102.288 199.289 98.8341 196.723 97.3211 192.944C95.8031 189.152 96.5369 184.894 99.2367 181.834L103.753 176.714C102.569 176.75 101.383 176.77 100.196 176.77C98.6755 176.77 97.1462 176.732 95.6289 176.674C93.2817 180.101 90.4487 183.434 87.024 186.467C76.8656 195.463 63.5672 199.999 47.4107 199.999C44.7828 199.999 42.0787 199.879 39.3007 199.639C35.2523 199.288 31.798 196.723 30.285 192.944C28.7669 189.151 29.5008 184.894 32.2006 181.834L47.8634 164.081C33.1258 156.293 20.9756 145.363 12.6019 132.324C11.7279 130.963 12.1224 129.15 13.4838 128.276C14.8452 127.403 16.657 127.797 17.531 129.158C25.5946 141.715 37.4421 152.2 51.8563 159.555L70.14 138.831C72.702 135.928 76.388 134.131 80.2532 133.901L85.9383 133.563C87.5669 133.47 88.9404 134.698 89.0361 136.313C89.1322 137.928 87.9012 139.315 86.2863 139.411L80.6011 139.749C78.2821 139.887 76.07 140.965 74.5333 142.707L43.4596 177.927C69.4288 180.864 88.043 173.102 98.8259 154.813C98.9188 154.655 99.0258 154.511 99.1418 154.377C100.811 147.904 101.031 143.21 101.037 143.055C101.094 141.438 102.458 140.179 104.066 140.231C105.683 140.287 106.948 141.644 106.891 143.26C106.864 144.032 106.292 157.323 99.1125 170.898C99.4738 170.902 99.8358 170.911 100.196 170.911C108.629 170.911 116.985 169.959 125.032 168.082C126.607 167.715 128.183 168.693 128.55 170.269C128.918 171.844 127.939 173.419 126.363 173.787C121.676 174.88 116.89 175.674 112.048 176.167L103.63 185.708C102.383 187.122 102.058 189.012 102.759 190.766C103.456 192.506 104.982 193.64 106.841 193.801C147.215 197.297 161.028 172.646 165.741 156.078C165.608 156.021 165.476 155.963 165.346 155.9C160.508 159.508 155.28 162.707 149.758 165.438C148.955 169.461 145.396 172.501 141.141 172.501C138.708 172.501 136.36 171.474 134.7 169.682C133.6 168.495 133.67 166.642 134.856 165.543C136.042 164.443 137.896 164.513 138.996 165.7C139.56 166.308 140.322 166.643 141.141 166.643C142.737 166.643 144.039 165.359 144.069 163.77C144.066 163.718 144.063 163.666 144.061 163.613C144.026 162.45 144.682 161.377 145.733 160.879C152.077 157.868 158.028 154.209 163.42 150.001C164.547 149.122 166.143 149.184 167.198 150.148C167.742 150.645 168.442 150.919 169.169 150.919C170.784 150.919 172.098 149.605 172.098 147.99C172.098 147.38 171.908 146.791 171.547 146.29C170.714 145.129 170.839 143.537 171.843 142.522C177.721 136.577 182.537 129.962 186.157 122.861C186.564 122.063 187.313 121.495 188.191 121.32C189.552 121.047 190.54 119.84 190.54 118.449C190.54 117.902 190.391 117.385 190.098 116.913C189.627 116.154 189.528 115.221 189.829 114.381C192.428 107.123 193.8 99.5707 193.915 91.9152L156.937 98.9478C155.448 99.2317 153.908 99.525 152.737 100.148C150.998 101.073 149.646 102.909 148.215 104.853C147.785 105.436 147.341 106.04 146.876 106.631C140.664 114.54 130.955 119.522 120.907 119.956C120.864 119.957 120.821 119.958 120.778 119.958C119.219 119.958 117.922 118.729 117.854 117.156C117.784 115.539 119.038 114.173 120.655 114.103C129.018 113.742 137.098 109.596 142.27 103.012C142.678 102.493 143.076 101.952 143.498 101.379C145.173 99.1048 147.071 96.5275 149.985 94.9767C151.94 93.9363 154.012 93.5415 155.841 93.1927L193.753 85.9825C193.206 82.393 191.352 79.1315 188.473 76.8102C185.008 74.0162 180.525 72.9547 176.177 73.8986L161.969 76.9929C160.531 77.3065 159.086 76.5047 158.589 75.1218C158.172 73.9611 157.066 73.1816 155.838 73.1816C154.222 73.1816 152.908 74.4954 152.908 76.1107C152.908 76.1931 152.917 76.2735 152.923 76.3544C153.047 77.8201 152.065 79.1503 150.628 79.4631L127.076 84.5921C125.64 84.9046 124.191 84.1032 123.695 82.7175C123.279 81.5545 122.173 80.773 120.942 80.773C119.327 80.773 118.013 82.0868 118.013 83.7021C118.013 83.7884 118.022 83.8731 118.028 83.9575C118.15 85.422 117.169 86.7499 115.733 87.0627L65.5629 97.9894C65.5382 97.9948 65.5129 97.9999 65.4875 98.005C53.7794 100.234 42.0337 94.3948 36.9313 83.8028C31.5504 72.6321 32.4865 59.5793 39.7151 45.0058C40.3872 43.6498 41.9826 43.03 43.3944 43.5748C45.1815 44.2649 46.9116 45.0624 48.5847 45.8334C57.0599 49.7388 63.1837 52.5605 72.0119 41.5198C72.051 41.471 72.0658 41.4374 72.0447 41.3753C72.0096 41.271 71.9182 41.248 71.8791 41.2382C67.0098 40.0248 64.0225 36.4451 61.3871 33.2871C57.3548 28.4549 54.1683 24.6405 44.9609 27.0009C44.1727 27.2032 43.3354 27.0685 42.65 26.628C41.965 26.1882 41.494 25.4825 41.3503 24.6815C39.6553 15.244 34.8731 13.913 28.8185 12.2274C24.8752 11.1296 20.4062 9.88573 17.3127 5.94904C17.2885 5.91858 17.2334 5.84828 17.1287 5.85766C17.0674 5.8639 17.0448 5.8889 17.0174 5.9424C10.5301 18.6351 15.7009 23.1408 22.8576 29.377C24.8404 31.1048 26.8908 32.8915 28.7009 34.9262C29.7332 36.0866 29.68 37.851 28.5795 38.9477C14.0669 53.4115 6.074 71.8487 6.074 90.8627C6.074 100.745 8.16732 110.392 12.2961 119.534C12.962 121.009 12.3067 122.744 10.8324 123.409C9.35769 124.075 7.62289 123.42 6.9574 121.945C2.48411 112.04 0.215835 101.582 0.215835 90.8627C0.216616 71.1844 8.08373 52.1172 22.4323 36.8715V36.8715ZM53.522 184.371C48.9745 184.371 44.0689 184.004 38.7895 183.221L36.5939 185.709C35.3472 187.123 35.0223 189.013 35.7237 190.767C36.4201 192.507 37.9459 193.641 39.8057 193.802C57.9734 195.375 72.5423 191.443 83.1002 182.116C86.5038 179.109 89.2634 175.732 91.5008 172.256C82.928 179.189 70.761 184.371 53.522 184.371Z" fill="black"/>
<path d="M120.781 96.3154C122.399 96.3154 123.71 97.6269 123.71 99.2445V104.551C123.71 106.169 122.399 107.48 120.781 107.48C119.163 107.48 117.852 106.169 117.852 104.551V99.2445C117.852 97.6269 119.163 96.3154 120.781 96.3154Z" fill="black"/>
</svg>
