<svg xmlns="http://www.w3.org/2000/svg" version="1.1" xmlns:xlink="http://www.w3.org/1999/xlink" xmlns:svgjs="http://svgjs.com/svgjs" width="512" height="512" x="0" y="0" viewBox="0 0 64 64" style="enable-background:new 0 0 512 512" xml:space="preserve" class=""><g><g xmlns="http://www.w3.org/2000/svg"><g id="LWPOLYLINE_31_"><g><path d="m32 46c-.338 0-.653-.17-.837-.454-1.674-2.566-3.753-4.896-5.764-7.15-.807-.904-1.615-1.811-2.405-2.736-2.623-3.077-5.275-6.419-6.375-10.46-.375-1.377-.583-2.782-.619-4.175 0-8.698 7.327-16.025 16-16.025s16 7.327 16 16c-.185 7.161-4.803 12.279-9.269 17.228-1.153 1.277-2.242 2.483-3.261 3.728-.965 1.179-1.826 2.354-2.633 3.591-.184.282-.499.453-.837.453zm0-39c-7.589 0-14 6.411-14 14 .032 1.208.216 2.453.549 3.676.992 3.645 3.389 6.662 5.968 9.687.779.915 1.578 1.809 2.375 2.703 1.741 1.951 3.532 3.958 5.105 6.158.604-.858 1.24-1.695 1.928-2.535 1.049-1.281 2.205-2.562 3.322-3.801 4.223-4.679 8.59-9.517 8.754-15.914-.001-7.563-6.412-13.974-14.001-13.974z" fill="#000000" data-original="#000000"></path></g></g><g id="LINE_291_"><g><path d="m48.077 39.774h-5.817c-.553 0-1-.448-1-1s.447-1 1-1h5.817c.553 0 1 .448 1 1s-.447 1-1 1z" fill="#000000" data-original="#000000"></path></g></g><g id="LINE_292_"><g><path d="m21.74 39.774h-5.817c-.552 0-1-.448-1-1s.448-1 1-1h5.817c.552 0 1 .448 1 1s-.448 1-1 1z" fill="#000000" data-original="#000000"></path></g></g><g id="LINE_294_"><g><path d="m5.999 59c-.154 0-.311-.036-.458-.111-.491-.253-.684-.856-.43-1.347l9.923-19.226c.253-.491.855-.685 1.347-.43.491.253.684.856.43 1.347l-9.922 19.225c-.178.345-.528.542-.89.542z" fill="#000000" data-original="#000000"></path></g></g><g id="LINE_295_"><g><path d="m58.001 59c-.362 0-.712-.197-.89-.542l-9.923-19.226c-.253-.491-.061-1.094.43-1.347.493-.254 1.094-.061 1.348.43l9.923 19.226c.253.491.061 1.094-.43 1.347-.147.076-.304.112-.458.112z" fill="#000000" data-original="#000000"></path></g></g><g id="LINE_296_"><g><path d="m58 59h-52c-.552 0-1-.448-1-1s.448-1 1-1h52c.553 0 1 .448 1 1s-.447 1-1 1z" fill="#000000" data-original="#000000"></path></g></g><g id="CIRCLE_42_"><g><path d="m31.94 30.993c-.001 0 0 0 0 0-.896 0-1.786-.123-2.646-.363-4.929-1.382-8.06-6.416-7.127-11.458.916-4.948 5.642-8.604 10.759-8.128 5.088.466 9.074 4.84 9.074 9.956 0 1.221-.219 2.416-.649 3.551-1.464 3.853-5.246 6.442-9.411 6.442zm.09-17.992c-3.813 0-7.208 2.809-7.896 6.533-.747 4.036 1.757 8.063 5.701 9.169.684.192 1.392.289 2.105.289 3.34 0 6.371-2.07 7.542-5.152.343-.906.518-1.862.518-2.84 0-4.093-3.188-7.592-7.258-7.966-.238-.022-.476-.033-.712-.033z" fill="#000000" data-original="#000000"></path></g></g></g></g></svg>