<svg width="473" height="473" viewBox="0 0 473 473" fill="none" xmlns="http://www.w3.org/2000/svg">
<mask id="path-1-inside-1_1165_3" fill="white">
<path d="M17.1605 315.987C26.9482 315.987 37.8283 306.293 47.7269 297.461C53.1575 291.943 59.3745 287.259 66.176 283.56C67.0391 283.336 67.9176 283.177 68.8043 283.082C67.1571 305.189 70.2617 327.393 77.9093 348.2C66.6283 362.852 52.0533 387.138 57.8133 409.111C58.5968 412.082 60.9175 414.403 63.8891 415.187C67.2939 416.072 70.7988 416.514 74.3168 416.501C93.2693 416.501 112.478 404.554 124.826 395.065C142.235 401.64 160.738 404.84 179.345 404.494C182.81 404.494 186.342 404.349 189.884 404.179C189.791 405.08 189.628 405.973 189.397 406.85C185.698 413.646 181.014 419.857 175.497 425.282C163.379 438.884 149.623 454.295 161.587 466.242C168.034 471.294 176.16 473.71 184.32 473C191.808 472.884 199.265 472.006 206.575 470.38C224.619 467.102 241.447 459.026 255.292 446.999C265.899 436.392 270.652 416.484 269.696 387.982C310.769 374.478 348.37 352.108 379.836 322.455C384.759 317.531 389.129 312.548 393.225 307.547C394.733 308.652 395.829 310.229 396.339 312.027C397.863 322.694 393.93 333.413 385.869 340.563C362.718 363.714 349.568 397.011 355.934 416.415C357.314 421.628 361.404 425.688 366.626 427.031C367.727 427.295 368.856 427.427 369.988 427.423C383.471 427.423 401.468 409.435 443.972 366.931C495.812 315.091 465.954 251.731 443.366 229.117C437.835 223.128 430.636 218.931 422.699 217.068C419.149 193.616 410.034 171.354 396.117 152.147C410.317 144.97 425.984 136.71 430.976 121.333C435.166 108.277 447.369 64.1595 428.1 44.9253C408.832 25.6912 364.749 37.8 351.693 42.024C336.333 46.9819 328.055 62.6747 320.879 76.8827C301.642 62.9421 279.34 53.8233 255.846 50.2928C254.016 42.3682 249.855 35.173 243.9 29.6336C221.295 7.07999 157.867 -22.7867 106.069 29.0277C59.9467 75.1504 42.6667 92.4133 45.9776 106.382C47.3305 111.624 51.4155 115.722 56.6528 117.092C60.1925 118.197 63.8846 118.735 67.5925 118.687C87.0144 118.687 113.229 106.348 132.446 87.1141C139.599 79.0581 150.315 75.1259 160.981 76.6437C162.781 77.1565 164.358 78.2557 165.461 79.7669C160.268 83.9742 155.293 88.4429 150.554 93.1557C120.898 124.599 98.5214 162.18 85.0091 203.236C56.4651 202.271 36.608 207.05 26.0096 217.649C3.30239 240.407 -8.20908 296.454 6.74985 311.413C9.43878 314.311 13.2073 315.966 17.1605 315.987ZM103.083 203.005L118.767 208.228C113.065 223.468 108.683 239.171 105.668 255.161L88.1749 258.66C91.3596 239.676 96.3515 221.039 103.083 203.005ZM242.722 66.6597C251.764 66.7191 260.753 68.0374 269.431 70.5765L266.095 87.2933C247.481 81.2165 227.232 82.6243 209.638 91.2187L203.443 75.6795C215.716 69.8287 229.126 66.7493 242.722 66.6597ZM396.493 187.355L379.281 190.769C369.925 172.634 357.837 156.045 343.441 141.582L355.516 129.499C372.345 146.331 386.2 165.894 396.493 187.355ZM397.303 269.54L381.798 263.353C386.446 253.784 389.025 243.342 389.367 232.71C389.503 223.97 388.244 215.265 385.638 206.922L402.321 203.594C408.857 225.441 407.069 248.934 397.303 269.54ZM264.721 354.097L269.995 369.917C251.971 376.646 233.347 381.638 214.374 384.825L217.856 367.383C222.191 366.53 226.594 365.608 231.1 364.516C242.503 361.71 253.73 358.231 264.721 354.097ZM280.559 347.645C295.024 341.311 308.931 333.772 322.133 325.109L334.396 337.363C319.046 347.541 302.802 356.304 285.867 363.543L280.559 347.645ZM227.063 347.927C225.186 348.388 223.343 348.78 221.491 349.19L230.281 305.166L286.788 289.806L309.828 312.846C284.317 328.935 256.366 340.782 227.063 347.927ZM102.733 358.167C87.8677 338.54 83.1061 309.117 85.9306 276.452L102.997 273.038C99.8315 302.811 103.33 329.162 114.944 345.956L102.733 358.167ZM120.593 269.531L171.87 259.291L213.683 301.105L203.443 352.441C170.88 356.93 144.683 352.774 132.446 340.494C119.91 328.044 116.343 301.181 120.593 269.557V269.531ZM199.723 190.606L256.614 175.093L297.89 216.36L282.368 273.32L225.485 288.834L184.209 247.566L199.723 190.606ZM361.856 194.242L310.187 204.567L268.373 162.754L278.733 110.939C296.029 120.748 311.783 133.055 325.487 147.462C339.849 161.198 352.117 176.968 361.899 194.267L361.856 194.242ZM298.812 277.672L314.231 221.156L368.708 210.276C371.129 217.334 372.329 224.753 372.258 232.215C371.755 250.237 362.914 266.903 343.586 286.231C337.483 292.242 330.971 297.822 324.096 302.931L298.812 277.672ZM331.426 129.439C316.94 115.046 300.331 102.958 282.18 93.5994L285.594 76.584C307.045 86.834 326.6 100.652 343.424 117.45L331.426 129.439ZM262.682 104.121L251.776 158.734L195.26 174.146L169.933 148.733C175.086 141.891 180.703 135.41 186.743 129.337C206.993 109.13 230.238 93.8725 262.724 104.147L262.682 104.121ZM183.194 186.186L167.782 242.694L123.733 251.492C130.544 220.091 142.81 190.129 159.974 162.967L183.194 186.186ZM125.167 192.347L109.466 187.133C116.717 170.197 125.491 153.954 135.68 138.604L147.78 150.713C139.078 163.934 131.516 177.87 125.175 192.373L125.167 192.347ZM73.6 399.4C74.544 386.945 79.1121 375.038 86.7413 365.147C92.2589 373.581 99.5005 380.75 107.989 386.182C98.0751 393.873 86.1134 398.471 73.6 399.4ZM114.799 370.259L127.002 358.065C142.65 367.691 160.853 372.336 179.2 371.385C186.137 371.335 193.065 370.896 199.953 370.071L196.54 387.069C163.84 389.911 134.443 385.107 114.799 370.259ZM243.2 434.933C225.075 453.058 182.938 459.048 174.404 454.688C178.211 448.101 182.855 442.034 188.22 436.639C195.547 429.613 201.464 421.251 205.653 412.004C206.617 408.989 207.165 405.857 207.283 402.694C222.666 400.756 237.873 397.618 252.766 393.307C252.954 413.625 249.6 428.55 243.2 434.933ZM367.787 310.389C361.705 316.421 355.249 322.064 348.459 327.285L336.256 315.082C343.095 309.92 349.594 304.322 355.712 298.323C362.041 292.121 367.841 285.402 373.052 278.235L388.907 284.558C382.778 293.875 375.7 302.531 367.787 310.389ZM431.881 354.907C404.676 382.111 380.911 405.877 371.806 409.794C369.007 397.617 378.633 371.906 397.952 352.62C410.639 341.11 416.24 323.718 412.655 306.967C411.031 301.711 407.735 297.13 403.268 293.919C415.266 276.611 422.298 256.349 423.603 235.33C426.472 236.863 429.083 238.835 431.343 241.175C446.123 256.006 478.046 308.716 431.863 354.907H431.881ZM335.522 85.7317C341.615 73.6571 347.921 61.1728 356.915 58.2715C378.948 51.1803 406.835 47.7584 416.034 56.9659C425.233 66.1733 421.811 94.0603 414.729 116.076C411.827 125.07 399.369 131.368 387.294 137.469L385.843 138.212C370.76 119.362 353.638 102.24 334.788 87.1568C335.036 86.6704 335.283 86.2181 335.522 85.7317ZM166.025 60.3621C149.271 56.7771 131.876 62.3782 120.363 75.065C101.35 94.0858 76.1088 103.754 63.2405 101.126C67.2853 91.9525 90.9995 68.2299 118.135 41.0939C164.275 -5.04588 216.986 26.8688 231.817 41.6997C234.156 43.9577 236.126 46.5695 237.653 49.4395C216.637 50.7502 196.38 57.782 179.072 69.7744C175.864 65.3001 171.282 61.9953 166.025 60.3621ZM162.611 105.239C170.461 97.308 179.115 90.2156 188.433 84.0763L194.782 99.9995C187.609 105.197 180.885 110.986 174.677 117.305C168.636 123.375 162.992 129.828 157.781 136.625L145.715 124.558C150.933 117.76 156.576 111.298 162.611 105.213V105.239ZM38.0672 229.8C44.5355 223.315 59.1787 220.021 79.6331 220.217C75.3399 235.11 72.2241 250.318 70.3147 265.7C67.1582 265.826 64.0328 266.374 61.0219 267.33C51.7705 271.517 43.4032 277.431 36.3691 284.755C30.9778 290.121 24.9108 294.762 18.3211 298.562C13.9776 289.917 19.968 247.874 38.0672 229.8Z"/>
</mask>
<path d="M17.1605 315.987C26.9482 315.987 37.8283 306.293 47.7269 297.461C53.1575 291.943 59.3745 287.259 66.176 283.56C67.0391 283.336 67.9176 283.177 68.8043 283.082C67.1571 305.189 70.2617 327.393 77.9093 348.2C66.6283 362.852 52.0533 387.138 57.8133 409.111C58.5968 412.082 60.9175 414.403 63.8891 415.187C67.2939 416.072 70.7988 416.514 74.3168 416.501C93.2693 416.501 112.478 404.554 124.826 395.065C142.235 401.64 160.738 404.84 179.345 404.494C182.81 404.494 186.342 404.349 189.884 404.179C189.791 405.08 189.628 405.973 189.397 406.85C185.698 413.646 181.014 419.857 175.497 425.282C163.379 438.884 149.623 454.295 161.587 466.242C168.034 471.294 176.16 473.71 184.32 473C191.808 472.884 199.265 472.006 206.575 470.38C224.619 467.102 241.447 459.026 255.292 446.999C265.899 436.392 270.652 416.484 269.696 387.982C310.769 374.478 348.37 352.108 379.836 322.455C384.759 317.531 389.129 312.548 393.225 307.547C394.733 308.652 395.829 310.229 396.339 312.027C397.863 322.694 393.93 333.413 385.869 340.563C362.718 363.714 349.568 397.011 355.934 416.415C357.314 421.628 361.404 425.688 366.626 427.031C367.727 427.295 368.856 427.427 369.988 427.423C383.471 427.423 401.468 409.435 443.972 366.931C495.812 315.091 465.954 251.731 443.366 229.117C437.835 223.128 430.636 218.931 422.699 217.068C419.149 193.616 410.034 171.354 396.117 152.147C410.317 144.97 425.984 136.71 430.976 121.333C435.166 108.277 447.369 64.1595 428.1 44.9253C408.832 25.6912 364.749 37.8 351.693 42.024C336.333 46.9819 328.055 62.6747 320.879 76.8827C301.642 62.9421 279.34 53.8233 255.846 50.2928C254.016 42.3682 249.855 35.173 243.9 29.6336C221.295 7.07999 157.867 -22.7867 106.069 29.0277C59.9467 75.1504 42.6667 92.4133 45.9776 106.382C47.3305 111.624 51.4155 115.722 56.6528 117.092C60.1925 118.197 63.8846 118.735 67.5925 118.687C87.0144 118.687 113.229 106.348 132.446 87.1141C139.599 79.0581 150.315 75.1259 160.981 76.6437C162.781 77.1565 164.358 78.2557 165.461 79.7669C160.268 83.9742 155.293 88.4429 150.554 93.1557C120.898 124.599 98.5214 162.18 85.0091 203.236C56.4651 202.271 36.608 207.05 26.0096 217.649C3.30239 240.407 -8.20908 296.454 6.74985 311.413C9.43878 314.311 13.2073 315.966 17.1605 315.987ZM103.083 203.005L118.767 208.228C113.065 223.468 108.683 239.171 105.668 255.161L88.1749 258.66C91.3596 239.676 96.3515 221.039 103.083 203.005ZM242.722 66.6597C251.764 66.7191 260.753 68.0374 269.431 70.5765L266.095 87.2933C247.481 81.2165 227.232 82.6243 209.638 91.2187L203.443 75.6795C215.716 69.8287 229.126 66.7493 242.722 66.6597ZM396.493 187.355L379.281 190.769C369.925 172.634 357.837 156.045 343.441 141.582L355.516 129.499C372.345 146.331 386.2 165.894 396.493 187.355ZM397.303 269.54L381.798 263.353C386.446 253.784 389.025 243.342 389.367 232.71C389.503 223.97 388.244 215.265 385.638 206.922L402.321 203.594C408.857 225.441 407.069 248.934 397.303 269.54ZM264.721 354.097L269.995 369.917C251.971 376.646 233.347 381.638 214.374 384.825L217.856 367.383C222.191 366.53 226.594 365.608 231.1 364.516C242.503 361.71 253.73 358.231 264.721 354.097ZM280.559 347.645C295.024 341.311 308.931 333.772 322.133 325.109L334.396 337.363C319.046 347.541 302.802 356.304 285.867 363.543L280.559 347.645ZM227.063 347.927C225.186 348.388 223.343 348.78 221.491 349.19L230.281 305.166L286.788 289.806L309.828 312.846C284.317 328.935 256.366 340.782 227.063 347.927ZM102.733 358.167C87.8677 338.54 83.1061 309.117 85.9306 276.452L102.997 273.038C99.8315 302.811 103.33 329.162 114.944 345.956L102.733 358.167ZM120.593 269.531L171.87 259.291L213.683 301.105L203.443 352.441C170.88 356.93 144.683 352.774 132.446 340.494C119.91 328.044 116.343 301.181 120.593 269.557V269.531ZM199.723 190.606L256.614 175.093L297.89 216.36L282.368 273.32L225.485 288.834L184.209 247.566L199.723 190.606ZM361.856 194.242L310.187 204.567L268.373 162.754L278.733 110.939C296.029 120.748 311.783 133.055 325.487 147.462C339.849 161.198 352.117 176.968 361.899 194.267L361.856 194.242ZM298.812 277.672L314.231 221.156L368.708 210.276C371.129 217.334 372.329 224.753 372.258 232.215C371.755 250.237 362.914 266.903 343.586 286.231C337.483 292.242 330.971 297.822 324.096 302.931L298.812 277.672ZM331.426 129.439C316.94 115.046 300.331 102.958 282.18 93.5994L285.594 76.584C307.045 86.834 326.6 100.652 343.424 117.45L331.426 129.439ZM262.682 104.121L251.776 158.734L195.26 174.146L169.933 148.733C175.086 141.891 180.703 135.41 186.743 129.337C206.993 109.13 230.238 93.8725 262.724 104.147L262.682 104.121ZM183.194 186.186L167.782 242.694L123.733 251.492C130.544 220.091 142.81 190.129 159.974 162.967L183.194 186.186ZM125.167 192.347L109.466 187.133C116.717 170.197 125.491 153.954 135.68 138.604L147.78 150.713C139.078 163.934 131.516 177.87 125.175 192.373L125.167 192.347ZM73.6 399.4C74.544 386.945 79.1121 375.038 86.7413 365.147C92.2589 373.581 99.5005 380.75 107.989 386.182C98.0751 393.873 86.1134 398.471 73.6 399.4ZM114.799 370.259L127.002 358.065C142.65 367.691 160.853 372.336 179.2 371.385C186.137 371.335 193.065 370.896 199.953 370.071L196.54 387.069C163.84 389.911 134.443 385.107 114.799 370.259ZM243.2 434.933C225.075 453.058 182.938 459.048 174.404 454.688C178.211 448.101 182.855 442.034 188.22 436.639C195.547 429.613 201.464 421.251 205.653 412.004C206.617 408.989 207.165 405.857 207.283 402.694C222.666 400.756 237.873 397.618 252.766 393.307C252.954 413.625 249.6 428.55 243.2 434.933ZM367.787 310.389C361.705 316.421 355.249 322.064 348.459 327.285L336.256 315.082C343.095 309.92 349.594 304.322 355.712 298.323C362.041 292.121 367.841 285.402 373.052 278.235L388.907 284.558C382.778 293.875 375.7 302.531 367.787 310.389ZM431.881 354.907C404.676 382.111 380.911 405.877 371.806 409.794C369.007 397.617 378.633 371.906 397.952 352.62C410.639 341.11 416.24 323.718 412.655 306.967C411.031 301.711 407.735 297.13 403.268 293.919C415.266 276.611 422.298 256.349 423.603 235.33C426.472 236.863 429.083 238.835 431.343 241.175C446.123 256.006 478.046 308.716 431.863 354.907H431.881ZM335.522 85.7317C341.615 73.6571 347.921 61.1728 356.915 58.2715C378.948 51.1803 406.835 47.7584 416.034 56.9659C425.233 66.1733 421.811 94.0603 414.729 116.076C411.827 125.07 399.369 131.368 387.294 137.469L385.843 138.212C370.76 119.362 353.638 102.24 334.788 87.1568C335.036 86.6704 335.283 86.2181 335.522 85.7317ZM166.025 60.3621C149.271 56.7771 131.876 62.3782 120.363 75.065C101.35 94.0858 76.1088 103.754 63.2405 101.126C67.2853 91.9525 90.9995 68.2299 118.135 41.0939C164.275 -5.04588 216.986 26.8688 231.817 41.6997C234.156 43.9577 236.126 46.5695 237.653 49.4395C216.637 50.7502 196.38 57.782 179.072 69.7744C175.864 65.3001 171.282 61.9953 166.025 60.3621ZM162.611 105.239C170.461 97.308 179.115 90.2156 188.433 84.0763L194.782 99.9995C187.609 105.197 180.885 110.986 174.677 117.305C168.636 123.375 162.992 129.828 157.781 136.625L145.715 124.558C150.933 117.76 156.576 111.298 162.611 105.213V105.239ZM38.0672 229.8C44.5355 223.315 59.1787 220.021 79.6331 220.217C75.3399 235.11 72.2241 250.318 70.3147 265.7C67.1582 265.826 64.0328 266.374 61.0219 267.33C51.7705 271.517 43.4032 277.431 36.3691 284.755C30.9778 290.121 24.9108 294.762 18.3211 298.562C13.9776 289.917 19.968 247.874 38.0672 229.8Z" fill="black" stroke="white" stroke-width="2" mask="url(#path-1-inside-1_1165_3)"/>
</svg>
