<svg width="83" height="95" viewBox="0 0 83 95" fill="none" xmlns="http://www.w3.org/2000/svg">
<path d="M22.999 95.0099H18.669V88.8099V79.0099H-0.000976562V17.0099L15.999 0.0098877C15.999 0.0098877 60.669 0.0098877 82.999 0.0098877C82.999 16.0099 82.999 48.0099 82.999 48.0099L54.9196 79.0099H36.1319L22.999 95.0099Z" fill="#9049FA"/>
<path d="M34.2892 70.4799C34.2892 66.5899 34.2892 62.6899 34.2892 58.1699C29.5992 58.1699 25.5292 58.1699 21.1792 58.1699C21.1792 40.9499 21.1792 24.3799 21.1792 7.47986C39.0392 7.47986 56.6192 7.47986 75.0592 7.47986C75.0592 19.1599 75.0592 30.8499 75.0592 44.7699C71.7892 48.0899 66.9492 53.0099 61.9992 58.0499C57.4192 58.0499 52.9392 58.0499 47.4192 58.0499C43.7592 62.0999 39.7492 66.5299 35.7492 70.9599C35.2692 70.7999 34.7792 70.6399 34.2892 70.4799Z" fill="#FBFAFC"/>
<path d="M41.459 21.1899C43.639 21.1899 45.519 21.1899 47.749 21.1899C47.749 27.8499 47.749 34.2199 47.749 40.9299C45.539 40.9299 43.659 40.9299 41.459 40.9299C41.459 34.2599 41.459 27.8799 41.459 21.1899Z" fill="#9553F8"/>
<path d="M58.519 21.1199C60.759 21.1199 62.539 21.1199 64.739 21.1199C64.739 27.7199 64.739 34.0899 64.739 40.8699C62.669 40.8699 60.779 40.8699 58.519 40.8699C58.519 34.3899 58.519 28.0099 58.519 21.1199Z" fill="#9653F8"/>
</svg>
