<svg width="93" height="105" viewBox="0 0 93 105" fill="none" xmlns="http://www.w3.org/2000/svg">
<path d="M22.999 105.01H18.669V98.8099V89.0099H-0.000976562V27.0099L25.999 0.0098877C25.999 0.0098877 70.669 0.0098877 92.999 0.0098877C92.999 16.0099 92.999 48.0099 92.999 48.0099L54.9196 89.0099H36.1319L22.999 105.01Z" fill="#9049FA"/>
<path d="M44.2892 70.4799C44.2892 66.5899 44.2892 62.6899 44.2892 58.1699C39.5992 58.1699 35.5292 58.1699 31.1792 58.1699C31.1792 40.9499 31.1792 24.3799 31.1792 7.47986C49.0392 7.47986 66.6192 7.47986 85.0592 7.47986C85.0592 19.1599 85.0592 30.8499 85.0592 44.7699C81.7892 48.0899 76.9492 53.0099 71.9992 58.0499C67.4192 58.0499 62.9392 58.0499 57.4192 58.0499C53.7592 62.0999 49.7492 66.5299 45.7492 70.9599C45.2692 70.7999 44.7792 70.6399 44.2892 70.4799Z" fill="#FBFAFC"/>
<path d="M51.459 19.1899C53.639 19.1899 55.519 19.1899 57.749 19.1899C57.749 25.8499 57.749 32.2199 57.749 38.9299C55.539 38.9299 53.659 38.9299 51.459 38.9299C51.459 32.2599 51.459 25.8799 51.459 19.1899Z" fill="#9553F8"/>
<path d="M68.519 19.1199C70.759 19.1199 72.539 19.1199 74.739 19.1199C74.739 25.7199 74.739 32.0899 74.739 38.8699C72.669 38.8699 70.779 38.8699 68.519 38.8699C68.519 32.3899 68.519 26.0099 68.519 19.1199Z" fill="#9653F8"/>
</svg>
