<svg width="202" height="121" viewBox="0 0 202 121" fill="none" xmlns="http://www.w3.org/2000/svg">
<path d="M0.199707 87.3376C0.199707 69.3576 0.199707 51.3876 0.199707 33.4076C0.199707 26.2122 0.519716 22.2976 1.84972 16.8176C3.71972 9.0776 10.0497 2.8976 17.8897 1.3176C22.4697 0.397603 27.0697 0.427608 31.6897 0.447608C35.8297 0.465583 39.2227 1.33567 39.9597 2.97761C39.6497 5.45761 37.7397 6.57761 35.8297 7.57761C29.2497 11.0276 25.7997 16.5976 24.7697 23.7776C21.5097 46.5776 21.5597 69.3976 24.2397 92.2676C24.8897 97.8076 25.3997 103.128 29.1297 107.618C30.9697 109.828 32.9397 111.748 35.5397 113.028C35.8299 113.17 48.647 119.693 34.6634 120.12C29.3934 119.94 24.1097 120.428 18.8197 119.488C9.6997 117.858 3.50971 112.108 1.69971 102.988C0.669707 97.8176 1.20971 92.5076 0.199707 87.3376Z" fill="#0077FE"/>
<path d="M51.1798 1.29768C59.2796 -0.0403299 65.3799 0.427696 72.4899 0.637696C82.1699 0.927696 172.87 0.677688 182.39 3.34769C191.69 5.95769 197.61 13.7177 199.11 22.5477C202.51 42.6377 201.24 62.8777 200.77 83.0277C200.55 92.5477 200.28 102.668 193.19 110.838C188.25 116.528 181.73 118.258 175.04 119.148C163.18 120.728 70.1899 120.138 58.2399 120.108C53.7799 119.438 49.2899 119.968 44.8299 119.798C43.3199 120.048 42.1999 118.968 40.8499 118.648C40.2599 118.338 39.6358 118.325 38.8745 118.066C29.2096 114.778 23.3799 107.508 22.2799 97.8677C19.4399 72.8577 19.3598 47.8277 22.2598 22.8177C23.3598 13.3277 30.7899 4.93769 39.2499 3.30769C42.8299 0.277695 46.9898 0.707685 51.1798 1.29768Z" fill="#FE2B42"/>
<path d="M64.5199 0.417719C60.3699 0.0677186 43.2097 2.53741 39.2497 3.30741C37.3097 -0.192585 33.5649 1.58462 31.0449 0.44462C37.7128 0.44464 55.8462 0.200923 64.5199 0.417719Z" fill="#435FA1"/>
<path d="M58.2295 120.108C50.2395 120.018 42.6161 120.108 33.8442 120.108C35.5542 119.568 37.91 120.576 38.82 118.066C39.5928 118.255 41.0734 118.66 42.5036 118.994C48.4988 120.395 53.7527 118.993 58.2295 120.108Z" fill="#3764A7"/>
<path d="M143.879 30.64C153.729 30.64 163.149 30.64 172.859 30.64C172.859 33.55 172.859 36.14 172.859 39.29C166.289 39.29 159.879 39.29 153.139 39.29C153.139 45.08 153.139 50.32 153.139 56.26C158.859 56.26 164.569 56.26 170.569 56.26C170.569 59.53 170.569 62.11 170.569 65.19C164.859 65.19 159.269 65.19 153.099 65.19C152.999 68.41 152.869 71.15 152.829 73.9C152.789 76.71 152.819 79.52 152.819 83.01C159.849 83.12 166.559 83.23 173.569 83.34C173.569 86.28 173.569 88.85 173.569 91.72C163.719 91.72 153.969 91.72 143.879 91.72C143.879 71.54 143.879 51.33 143.879 30.64Z" fill="white"/>
<path d="M119.069 80.4401C122.619 63.9301 126.169 47.4301 129.779 30.6701C132.799 30.6701 135.529 30.6701 138.269 30.6701C138.519 34.6201 129.369 77.3901 125.209 91.6901C120.749 91.6901 116.189 91.6901 111.219 91.6901C106.919 71.6101 102.609 51.5101 98.3091 31.4501C101.939 30.0301 103.169 29.9901 107.589 31.0901C111.319 47.4301 114.069 64.0701 117.929 80.4501C118.309 80.4501 118.689 80.4501 119.069 80.4401Z" fill="white"/>
<path d="M58.689 83.26C65.649 83.26 71.899 83.26 78.449 83.26C78.449 86.32 78.449 88.88 78.449 91.66C77.739 91.79 77.119 91.99 76.499 91.99C67.689 92.01 58.879 92 50.139 92C49.179 88.16 48.899 37.63 49.799 30.72C52.459 30.72 55.169 30.72 58.489 30.72C59.029 36.49 58.599 42.27 58.679 48.02C58.759 53.68 58.699 59.34 58.699 64.99C58.689 70.81 58.689 76.61 58.689 83.26Z" fill="white"/>
<path d="M84.5388 30.61C87.2088 30.61 89.9288 30.61 92.8988 30.61C92.8988 51.09 92.8988 71.27 92.8988 91.72C90.0288 91.72 87.4088 91.72 84.7588 91.72C83.7888 88.48 83.5288 36.96 84.5388 30.61Z" fill="white"/>
</svg>
