<svg width="121" height="121" viewBox="0 0 121 121" fill="none" xmlns="http://www.w3.org/2000/svg">
<path d="M0.199707 87.3376C0.199707 69.3576 0.199707 51.3876 0.199707 33.4076C0.199707 26.2122 0.519716 22.2976 1.84972 16.8176C3.71972 9.0776 10.0497 2.8976 17.8897 1.3176C22.4697 0.397603 27.0697 0.427608 31.6897 0.447608C35.8297 0.465583 39.2227 1.33567 39.9597 2.97761C39.6497 5.45761 37.7397 6.57761 35.8297 7.57761C29.2497 11.0276 25.7997 16.5976 24.7697 23.7776C21.5097 46.5776 21.5597 69.3976 24.2397 92.2676C24.8897 97.8076 25.3997 103.128 29.1297 107.618C30.9697 109.828 32.9397 111.748 35.5397 113.028C35.8299 113.17 48.647 119.693 34.6634 120.12C29.3934 119.94 24.1097 120.428 18.8197 119.488C9.6997 117.858 3.50971 112.108 1.69971 102.988C0.669707 97.8176 1.20971 92.5076 0.199707 87.3376Z" fill="#0077FE"/>
<path d="M51.1798 1.29768C59.2796 -0.0403299 65.3799 0.427696 72.4899 0.637696C82.1699 0.927696 91.8699 0.677688 101.39 3.34769C110.69 5.95769 116.61 13.7177 118.11 22.5477C121.51 42.6377 120.24 62.8777 119.77 83.0277C119.55 92.5477 119.28 102.668 112.19 110.838C107.25 116.528 100.73 118.258 94.0398 119.148C82.1798 120.728 70.1899 120.138 58.2399 120.108C53.7799 119.438 49.2899 119.968 44.8299 119.798C43.3199 120.048 42.1999 118.968 40.8499 118.648C40.2599 118.338 39.6358 118.325 38.8745 118.066C29.2096 114.778 23.3799 107.508 22.2799 97.8677C19.4399 72.8577 19.3598 47.8277 22.2598 22.8177C23.3598 13.3277 30.7899 4.93769 39.2499 3.30769C42.8299 0.277695 46.9898 0.707685 51.1798 1.29768Z" fill="#FE2B42"/>
<path d="M64.5199 0.417719C60.3699 0.0677186 43.2097 2.53741 39.2497 3.30741C37.3097 -0.192585 33.5649 1.58462 31.0449 0.44462C37.7128 0.44464 55.8462 0.200923 64.5199 0.417719Z" fill="#435FA1"/>
<path d="M58.2295 120.108C50.2395 120.018 42.6161 120.108 33.8442 120.108C35.5542 119.568 37.91 120.576 38.82 118.066C39.5928 118.255 41.0734 118.66 42.5036 118.994C48.4988 120.395 53.7527 118.993 58.2295 120.108Z" fill="#3764A7"/>
<path d="M50.0297 60.8176C50.0297 54.8376 49.7497 48.8376 50.1097 42.8776C50.4997 36.4276 55.3297 33.5676 60.8797 36.5576C70.9397 41.9776 80.9497 47.5476 90.6897 53.5376C97.6197 57.7976 97.4197 63.7376 90.4097 67.9576C81.2197 73.4876 71.8997 78.8176 62.4697 83.9376C54.8997 88.0376 50.1397 85.2276 49.9197 76.7776C49.7797 71.4576 49.8897 66.1376 49.8897 60.8176C49.9397 60.8176 49.9797 60.8176 50.0297 60.8176Z" fill="#FEFEFE"/>
</svg>
