<svg xmlns="http://www.w3.org/2000/svg" width="512" height="512" viewBox="0 0 511 511.999"><path xmlns="http://www.w3.org/2000/svg" d="M.5 257.727c0 49.875 12.574 78.75 22.676 101.953 11.633 26.71 20.035 46.011 6.277 85.91-4.305 12.476 9.586 24.097 21.09 17.469 13.914-8.02 33.965-22.57 50.473-46.372 14.539-20.957 23.726-45.19 27.449-72.312 12.933 21.34 30.953 39.586 52.95 52.953-3.618 41.48-24.528 75.461-36.966 92.348-7.25 9.836 1.324 24.043 13.422 22.152 37.484-5.848 61.992-24.226 75.95-38.617 9.956-10.262 13.882-25.2 10.242-38.973-1.93-7.308-2.16-15.09-.633-22.492 3.312-16.25 14.52-29.633 29.984-35.8 31.399-12.52 67.188 11.632 67.328 45.449.07 14.015 7.309 26.93 19.367 34.543 20.512 12.949 53.02 30.195 91.391 38.796 4.375.98 8.746-2.242 9.113-6.703 4.012-48.582 1.192-87.953-8.375-117.02-7.425-22.558-16.43-30.581-17.433-31.421a7.497 7.497 0 00-3.86-1.695c-27.75-3.579-75.136-16.415-80.699-62.13-.152-1.265 1.027-2.327 2.274-1.945 20.855 6.47 38.32 10.098 50.507 10.489 5.383.175 10.399 1.976 14.504 5.207 0 0 30.403 23.953 30.41 23.96 10.516 8.282 26.551 2.383 29.254-10.683 8.063-38.941 6.196-77.582-5.554-114.852-9.641-30.586-23.852-53.546-34.075-67.421-7.402-10.043-23.39-8.192-28.37 3.207-6.555 14.992-14.676 28.222-23.676 39.859a157.865 157.865 0 00-38.09-33.844s32.328-69.277 32.355-69.344c7.125-15.27-.168-33.824-15.676-40.261C332.664 7.082 298.08.117 264.08 0a264.14 264.14 0 00-59.016 6.477 7.5 7.5 0 103.312 14.628c18.27-4.12 36.938-6.105 55.66-6.105 32.05.113 64.668 6.68 94.32 18.992 7.758 3.219 11.395 12.438 7.836 20.067l-31.816 68.183c-17.582-8.918-36.766-14.445-56.437-16.297a162.12 162.12 0 00-14.766-.699c-38.047 0-75.567 14.078-104.121 39.219-28.442 25.047-47.168 60.164-52.028 97.754a7.5 7.5 0 006.473 8.398c4.035.524 7.879-2.445 8.402-6.476 4.399-34.012 21.332-65.758 47.067-88.414 25.605-22.551 59.137-35.297 93.258-35.465 7.457-.04 14.902.496 22.273 1.605 35.863 5.465 68.684 24.531 91.188 53.453-10.48 11.582-22.293 21.903-34.989 30.989-44.78 31.77-91.457 41.28-95.84 42.117-3.02.578-5.52 2.512-6.312 5.574-10.145 39.238-2.422 69.75 5.84 88.434 3.781 8.554 8.531 16.726 14.246 24.136a63.842 63.842 0 00-29.895 42.168c-1.972 9.676-1.699 19.785.825 29.332 2.304 8.723-.188 18.188-6.508 24.703-12.067 12.438-33.067 28.247-65.102 33.84 14.016-19.48 36.215-57.148 38.766-102.972a7.506 7.506 0 00-3.79-6.938c-29.66-16.84-51.8-43.265-63.308-74.285-4.742-12.73-7.625-26.2-8.558-39.754-.266-3.875-3.442-6.855-7.239-6.977-4.379-.148-8.039 3.637-7.738 8.012a157.195 157.195 0 009.035 42.754c.082.23.156.457.238.688-.492 78.75-44.433 116.586-71.402 132.398 15.2-44.805 4.895-68.473-7.023-95.844-10.04-23.058-21.418-49.191-21.43-95.89 1.273-65.07 27.688-126.106 74.39-171.868 25.11-24.609 54.333-43.246 86.848-55.386a7.5 7.5 0 10-5.25-14.051c-34.492 12.879-65.476 32.637-92.097 58.723C29.848 123.77 1.832 188.535.5 257.586zm422.438-127.993c.421-.968 1.84-1.273 2.55-.312 16.969 23.027 54.54 85.715 37.02 170.332-.48 2.32-3.36 3.457-5.285 1.941l-30.41-23.96c-6.637-5.227-14.7-8.137-23.305-8.415-7.574-.246-21.801-2.148-46.547-9.824-11.43-3.547-23.047 6.238-21.606 18.082 1.383 11.383 6.02 28.102 20.25 43.102 15.766 16.629 39.555 27.297 70.73 31.73 5.4 6.582 25.802 37.66 19.977 125.621-32.601-8.617-60.222-23.426-78.199-34.777-7.703-4.863-12.328-13.063-12.37-21.926-.169-34.383-29.817-63.848-64.161-63.848a63.98 63.98 0 00-18.762 2.79l-.113-.137c-10-11.942-16.91-26.371-20.7-41.438-4.648-18.484-4.218-37.886-.038-56.418 19.164-4.226 89.343-23.144 139.113-81.648 12.988-15.27 23.824-32.527 31.855-50.895zm0 0" fill="#2f5373" data-original="#000000"/></svg>