<svg xmlns="http://www.w3.org/2000/svg" width="512" height="512" viewBox="0 0 511 511.998"><circle r="255.5" cx="255.5" cy="255.999" fill="#365877"/><path xmlns="http://www.w3.org/2000/svg" d="M238.184 363.832a7 7 0 019.81 1.315l.192.25a7 7 0 01-1.282 9.816 6.964 6.964 0 01-4.263 1.452 6.992 6.992 0 01-5.554-2.735l-.219-.287a6.998 6.998 0 011.316-9.81zm0 0" fill="#fff" data-original="#000000"/><path xmlns="http://www.w3.org/2000/svg" d="M134.59 134.268c16.947-17.957 36.949-32.085 59.45-42 23.297-10.265 48.122-15.469 73.782-15.469 23.094 0 45.7 4.296 67.186 12.767a7 7 0 01-5.135 13.024c-19.846-7.823-40.723-11.79-62.051-11.79-47.045 0-90.746 18.85-123.053 53.076-48.88 51.787-43.681 105.452-29.378 142.943.003-2.243.014-4.512.041-6.776.17-14.296 1.334-26.428 3.667-38.186 12.362-62.349 67.525-107.603 131.168-107.603 38.995 0 71.79 12.037 97.587 35.79l34.502-34.502a250.354 250.354 0 00-11.134-9.428 6.998 6.998 0 01-1.127-9.833 6.997 6.997 0 019.836-1.127c4.987 3.963 12.182 10.063 17.415 15.297a7 7 0 010 9.9l-44.464 44.464a7 7 0 01-4.949 2.051h-.033a7.004 7.004 0 01-4.962-2.094 120.696 120.696 0 00-15.789-13.552l-5.39 9.333a112.33 112.33 0 0113.886 11.979c17.987 18.255 31.243 43.608 39.397 75.356 7.97 31.047 9.294 61.412 9.001 81.422a7 7 0 01-2.832 5.518 6.993 6.993 0 01-6.104 1.105l-25.052-7.214a6.998 6.998 0 01-4.95-5.455l-8.81-47.791h-66.313l2.874 4.98 45.83 15.848a7.004 7.004 0 014.422 4.623l31.248 105.282a7.008 7.008 0 01-1.113 6.193 6.996 6.996 0 01-5.6 2.798h-.035c-2.01-.009-49.738-.725-92.802-41.546a7 7 0 01-.263-9.896 6.997 6.997 0 019.896-.265c27.874 26.425 58.354 34.338 73.527 36.703l-27.256-91.837-44.898-15.525a7.005 7.005 0 01-3.774-3.118l-10.243-17.74a6.99 6.99 0 010-7 6.998 6.998 0 016.062-3.5h84.266a6.997 6.997 0 016.882 5.731l9.086 49.26 11.952 3.442c-.322-22.539-3.152-58.6-15.859-91.5-18.616-5.635-29.717-14.662-43.107-28.916-15.313-16.297-35.203-24.218-60.81-24.218-34.61 0-64.6 24.582-71.315 58.45a7.75 7.75 0 01-.104.45l-.596 2.23c-3.782 14.166-6.281 23.523-13.968 31.261-2.748 2.765-6.032 5.185-10.256 7.452-.017 17.855-.613 38.41-8.206 69.72l36.38-.57 35.616-32.74a7.008 7.008 0 016.062-1.72 7.007 7.007 0 014.99 3.85 191.176 191.176 0 008.731 16.202 6.997 6.997 0 01-2.368 9.611 6.997 6.997 0 01-9.611-2.368 202.384 202.384 0 01-5.13-9.015l-30.775 28.287a6.996 6.996 0 01-4.627 1.846l-48.207.76a6.955 6.955 0 01-5.63-2.696 7 7 0 01-1.241-6.114c8.337-31.106 9.759-51.79 9.98-69.174-3.204 1.09-6.754 2.184-10.702 3.305-.085 4.157-.243 8.346-.544 12.546a7 7 0 01-13.043 3c-10.932-18.936-24.008-48.774-24.219-83.4-.227-37.255 14.277-71.637 43.105-102.177zm180.706 29.48c-18.76-10.293-40.515-15.494-65.03-15.494-56.98 0-106.37 40.513-117.435 96.327-2.16 10.893-3.24 22.214-3.402 35.629a852.301 852.301 0 00-.04 9.512c4.082-1.197 7.593-2.337 10.63-3.483.003-12.488.271-24.678 3.227-39.594 10.085-50.86 55.092-87.773 107.02-87.773 22.445 0 42.4 4.757 59.66 14.177zm-150.571 89.047l.541-2.024c8.1-40.285 43.81-69.5 85-69.5 29.683 0 52.911 9.369 71.013 28.635 8.424 8.969 15.514 15.384 24.461 20.065-5.425-10.06-12.028-19.455-20.067-27.612-19.28-19.567-44.65-29.487-75.406-29.487-45.265 0-84.498 32.172-93.289 76.497-2.092 10.56-2.718 19.553-2.893 28.705 5.327-5.381 7.293-12.748 10.64-25.28zm0 0" fill="#fff" data-original="#000000"/><path xmlns="http://www.w3.org/2000/svg" d="M359.327 116.431a6.97 6.97 0 01-3.743-1.088 7.003 7.003 0 01-2.286-9.535 7.004 7.004 0 019.918-2.204 7.002 7.002 0 011.941 9.708 6.986 6.986 0 01-5.83 3.12zm0 0" fill="#fff" data-original="#000000"/></svg>