<svg xmlns="http://www.w3.org/2000/svg" width="512" height="512" viewBox="0 0 300 300"><circle r="150" cx="150" cy="150" fill="#2f5373"/><g xmlns="http://www.w3.org/2000/svg" fill="#fdfdfd" transform="matrix(.77 0 0 .77 29.5 24.5)"><path d="M60.484 223.248a4 4 0 002.828-6.828l-2.828-2.828 2.828-2.828a4 4 0 10-5.656-5.656l-2.828 2.828L52 205.107a4 4 0 10-5.656 5.656l2.828 2.828-2.828 2.828A4 4 0 1052 222.075l2.828-2.828 2.828 2.828a3.987 3.987 0 002.828 1.173z" data-original="#000000"/><circle cx="138.828" cy="245.592" r="4" data-original="#000000"/><circle cx="62.828" cy="261.592" r="4" data-original="#000000"/><circle cx="250.828" cy="93.592" r="4" data-original="#000000"/><path d="M235.438 197.639c-.469-.07-44.555-7.191-51.836-36.051l53.879-.062c2.207-.004 3.996-1.922 3.996-4.129 0-39.594-32.211-71.805-71.805-71.805-3.038 0-6.012.251-8.952.619l-3.172-10.18a73.548 73.548 0 016.901-.35c14.715 0 28.91 4.344 41.043 12.559a4.033 4.033 0 003.184.574 4.004 4.004 0 002.57-1.969l15.094-27.633a4.003 4.003 0 00-1.273-5.234c-8.289-5.598-17.441-10.117-27.203-13.438-2.051-.711-4.273.359-5.035 2.383l-.328.879-.266-2.387a4.009 4.009 0 00-2.992-3.438c-9.344-2.367-18.848-3.57-28.25-3.57-30.762 0-59.643 12.027-81.322 33.871a3.994 3.994 0 00-1.084 3.602l2.869 14.352-10.781-3.234a4.014 4.014 0 00-4.457 1.582c-12.967 19.039-19.822 41.316-19.822 64.426 0 9.41 1.146 18.773 3.41 27.832a4 4 0 004.705 2.945l35.965-7.57a4.001 4.001 0 003.049-4.914c-1.592-6.16-2.398-12.312-2.398-18.293 0-5.747.732-11.315 1.989-16.684l8.443 2.512c-2.36 7.105-3.686 14.676-3.686 22.563v25.699c0 17.184-5.992 33.969-16.873 47.27l-3.266 3.992a3.998 3.998 0 00-.473 4.34 3.953 3.953 0 003.781 2.188c1.694-.092 40.927-2.405 63.766-22.087 2.958 1.73 6.354 2.794 10.021 2.794 1.191 0 2.343-.151 3.478-.352 9.938 19.09 31.856 41.497 80.288 44.344a4.018 4.018 0 003.089-1.187 4.002 4.002 0 001.133-3.113c-.039-.516-3.988-51.934-3.988-59.691a4.003 4.003 0 00-3.391-3.955zM56.701 171.146a107.23 107.23 0 01-2.307-22.141c0-3.893.276-7.749.69-11.578l10.855.023h.008a4 4 0 00.008-8l-9.7-.021c2.498-13.448 7.505-26.298 14.965-37.917l14.312 4.297a4.002 4.002 0 005.072-4.617l-3.752-18.77a106.71 106.71 0 0126.243-18.679l8.036 15.847a4 4 0 007.137-3.618l-7.896-15.571a105.792 105.792 0 014.934-1.894l2.562 6.852a4 4 0 007.492-2.804l-2.398-6.414a107.102 107.102 0 0128.029-3.734c7.844 0 15.77.902 23.602 2.68l1.801 16.227a4 4 0 003.48 3.527c1.812.199 3.59-.828 4.242-2.566l4.816-12.852a106.553 106.553 0 0118.609 9.207l-11.266 20.621c-12.609-7.582-26.98-11.57-41.828-11.57-44.842 0-81.324 36.48-81.324 81.324 0 5.328.572 10.766 1.703 16.219zm38.671-46.496c8.459-23.912 28.918-42.198 54.162-47.436l3.26 10.464c-21.469 5.201-39.163 20.04-48.26 39.698zm47.456 76.942c0-6.617 5.383-12 12-12s12 5.383 12 12-5.383 12-12 12-12-5.383-12-12zm22.957 16.697c5.436-3.579 9.043-9.717 9.043-16.698 0-11.027-8.973-20-20-20s-20 8.973-20 20c0 4.433 1.498 8.494 3.948 11.814-14.422 11.905-36.426 16.66-48.829 18.459 10.297-14.105 15.924-31.25 15.924-48.77v-25.699c0-35.184 28.621-63.805 63.801-63.805 33.844 0 61.617 26.488 63.684 59.938l-54.531.062a3.995 3.995 0 00-2.977 1.336 3.995 3.995 0 00-.996 3.105c3.727 33.52 44.047 44.391 56.074 46.898.438 10.075 2.248 34.834 3.249 48.17l-24.948-18.709a3.997 3.997 0 00-5.598.801 3.993 3.993 0 00.801 5.598l20.275 15.205c-34.161-5.563-50.828-22.641-58.92-37.705z" data-original="#000000"/><circle cx="154.828" cy="201.592" r="4" data-original="#000000"/><path d="M189.562 113.385c21.73 7.246 29.398 29.258 29.473 29.48a4.003 4.003 0 005.059 2.52 3.996 3.996 0 002.527-5.059c-.352-1.059-8.926-25.996-34.527-34.527a3.988 3.988 0 00-5.059 2.527 3.998 3.998 0 002.527 5.059z" data-original="#000000"/></g></svg>