<?xml version="1.0"?>
<svg xmlns="http://www.w3.org/2000/svg" xmlns:xlink="http://www.w3.org/1999/xlink" xmlns:svgjs="http://svgjs.com/svgjs" version="1.1" width="512" height="512" x="0" y="0" viewBox="0 0 511 511.998" style="enable-background:new 0 0 512 512" xml:space="preserve" class=""><circle r="255.5" cx="255.5" cy="255.999" fill="#365877" shape="circle"/><g transform="matrix(-0.7,0,0,0.6999999999999998,399.74694061279297,76.7994140625)"><path xmlns="http://www.w3.org/2000/svg" d="m230.804688 410.046875c-4.394532-3.351563-10.667969-2.507813-14.015626 1.878906l-.273437.355469c-3.367187 4.378906-2.546875 10.65625 1.832031 14.023438 1.816406 1.398437 3.960938 2.074218 6.089844 2.074218 2.996094 0 5.960938-1.34375 7.933594-3.90625l.3125-.410156c3.351562-4.390625 2.511718-10.667969-1.878906-14.015625zm0 0" fill="#ffffff" data-original="#000000" style="" class=""/><path xmlns="http://www.w3.org/2000/svg" d="m378.796875 82.097656c-24.210937-25.652344-52.785156-45.835937-84.929687-60-33.28125-14.664062-68.746094-22.097656-105.402344-22.097656-32.992188 0-65.285156 6.136719-95.980469 18.238281-5.136719 2.023438-7.660156 7.832031-5.636719 12.96875 2.027344 5.140625 7.835938 7.664063 12.972656 5.636719 28.351563-11.175781 58.175782-16.84375 88.644532-16.84375 67.207031 0 129.636718 26.929688 175.789062 75.824219 69.828125 73.980469 62.402344 150.644531 41.96875 204.203125-.003906-3.203125-.019531-6.445313-.058594-9.679688-.242187-20.421875-1.90625-37.753906-5.238281-54.550781-17.660156-89.070313-96.464843-153.71875-187.382812-153.71875-55.707031 0-102.558594 17.195313-139.410157 51.128906l-49.289062-49.289062c5.558594-5.011719 11.550781-10.003907 15.90625-13.46875 4.324219-3.433594 5.042969-9.722657 1.609375-14.046875-3.4375-4.328125-9.730469-5.046875-14.050781-1.609375-7.125 5.660156-17.402344 14.375-24.878906 21.851562-3.90625 3.90625-3.90625 10.238281 0 14.144531l63.519531 63.519532c1.875 1.875 4.417969 2.929687 7.070312 2.929687h.046875c2.667969-.011719 5.21875-1.089843 7.089844-2.992187 7.0625-7.195313 14.589844-13.644532 22.554688-19.359375l7.699218 13.332031c-6.980468 5.085938-13.601562 10.785156-19.835937 17.113281-25.695313 26.078125-44.632813 62.296875-56.28125 107.652344-11.386719 44.351563-13.277344 87.730469-12.859375 116.316406.046875 3.113281 1.542968 6.027344 4.046875 7.882813 2.5 1.855468 5.726562 2.441406 8.71875 1.578125l35.789062-10.304688c3.644531-1.046875 6.382813-4.066406 7.070313-7.792969l12.585937-68.273437h94.734375l-4.105468 7.113281-65.472657 22.640625c-3.046875 1.054688-5.398437 3.515625-6.316406 6.605469l-44.640625 150.402344c-.898438 3.035156-.308594 6.316406 1.589844 8.847656 1.890625 2.519531 4.851562 3.996094 8 3.996094h.050781c2.871094-.011719 71.054687-1.035156 132.574219-59.351563 4.007812-3.800781 4.175781-10.128906.375-14.136719-3.796875-4.011718-10.128906-4.179687-14.136719-.378906-39.820313 37.75-83.363281 49.054688-105.039063 52.433594l38.9375-131.195312 64.140626-22.179688c2.273437-.789062 4.1875-2.367188 5.390624-4.453125l14.632813-25.34375c1.789063-3.09375 1.789063-6.90625 0-10-1.785156-3.09375-5.085937-5-8.660156-5h-120.378907c-4.824218 0-8.957031 3.441406-9.832031 8.1875l-12.980469 70.371094-17.074218 4.917969c.460937-32.199219 4.503906-83.714844 22.65625-130.714844 26.59375-8.050782 42.453125-20.945313 61.582031-41.308594 21.875-23.28125 50.289063-34.597656 86.871094-34.597656 49.441406 0 92.285156 35.117187 101.878906 83.5.042969.21875.09375.433594.148437.644531l.851563 3.183594c5.402344 20.238281 8.972656 33.605469 19.953125 44.660156 3.925781 3.949219 8.617188 7.40625 14.652344 10.644531.023437 25.507813.875 54.871094 11.722656 99.601563l-51.972656-.816407-50.878906-46.769531c-2.335938-2.144531-5.546876-3.054687-8.660157-2.457031-3.113281.601562-5.757812 2.640625-7.128906 5.5-3.847656 8.027344-8.042969 15.816406-12.472656 23.144531-2.859375 4.726563-1.34375 10.875 3.382812 13.730469 4.726563 2.859375 10.875 1.34375 13.730469-3.382812 2.519531-4.171876 4.96875-8.476563 7.328125-12.878907l43.964844 40.410157c1.804687 1.660156 4.15625 2.597656 6.609375 2.636718l68.867187 1.085938c3.160157.058594 6.113281-1.375 8.042969-3.851563 1.929688-2.472656 2.582031-5.707031 1.773438-8.734375-11.910157-44.4375-13.941407-73.984375-14.257813-98.820312 4.578125 1.558594 9.648437 3.121094 15.289063 4.722656.121093 5.9375.347656 11.921875.777343 17.921875.3125 4.382813 3.453125 8.046875 7.734375 9.03125.746094.171875 1.496094.253906 2.242188.253906 3.515625 0 6.84375-1.859375 8.65625-5 15.617187-27.050781 34.296875-69.675781 34.597656-119.140625.324219-53.222656-20.394531-102.339844-61.578125-145.96875zm-258.152344 42.113282c26.800781-14.703126 57.878907-22.132813 92.898438-22.132813 81.402343 0 151.957031 57.875 167.765625 137.609375 3.085937 15.5625 4.628906 31.734375 4.859375 50.898438.050781 4.523437.058593 9.117187.058593 13.589843-5.832031-1.710937-10.847656-3.339843-15.1875-4.976562-.003906-17.839844-.386718-35.253907-4.609374-56.5625-14.40625-72.65625-78.703126-125.390625-152.886719-125.390625-32.0625 0-60.570313 6.796875-85.226563 20.253906zm215.101563 127.210937-.773438-2.890625c-11.570312-57.550781-62.585937-99.285156-121.429687-99.285156-42.402344 0-75.585938 13.382812-101.445313 40.90625-12.035156 12.8125-22.164062 21.976562-34.945312 28.664062 7.75-14.371094 17.183594-27.792968 28.667968-39.445312 27.542969-27.953125 63.785157-42.125 107.722657-42.125 64.664062 0 120.710937 45.960937 133.269531 109.28125 2.988281 15.085937 3.882812 27.933594 4.132812 41.007812-7.609374-7.6875-10.417968-18.210937-15.199218-36.113281zm0 0" fill="#ffffff" data-original="#000000" style="" class=""/><path xmlns="http://www.w3.org/2000/svg" d="m57.742188 56.617188c1.835937 0 3.691406-.503907 5.347656-1.554688 4.605468-2.886719 6.074218-8.941406 3.265625-13.621094-2.84375-4.734375-8.984375-6.269531-13.722657-3.429687-.132812.082031-.3125.195312-.445312.28125-4.59375 3.066406-5.835938 9.273437-2.773438 13.867187 1.925782 2.894532 5.097657 4.457032 8.328126 4.457032zm0 0" fill="#ffffff" data-original="#000000" style="" class=""/></g></svg>
