<svg width="200" height="200" viewBox="0 0 200 200" fill="none" xmlns="http://www.w3.org/2000/svg">
<g clip-path="url(#clip0_1177_11)">
<path d="M92.417 194.5L92.4166 194.499L41.761 117.746C39.0307 113.6 35.2276 106.494 33.3087 101.94C33.3083 101.939 33.3079 101.938 33.3075 101.937L33.3057 101.932C32.9977 101.189 27.1191 87.0072 27.1191 73.8809C27.1191 33.6944 59.8135 1 100 1C140.187 1 172.881 33.6944 172.881 73.8809C172.881 87.0654 166.958 101.311 166.696 101.938C164.777 106.493 160.978 113.599 158.244 117.746L107.584 194.503L107.583 194.504C105.663 197.414 102.886 199 100 199C97.1142 199 94.3373 197.414 92.417 194.5ZM152.656 114.062L152.656 114.062C155.171 110.248 158.768 103.531 160.527 99.3395C160.625 99.1061 162.006 95.7476 163.379 91.0071C164.778 86.1731 166.189 79.8333 166.189 73.8809C166.189 37.3834 136.498 7.69187 100 7.69187C63.5025 7.69187 33.811 37.3834 33.811 73.8809C33.811 85.6782 39.3703 99.0763 39.4753 99.3293L39.4761 99.3313L39.4778 99.3352C41.2362 103.526 44.8337 110.248 47.3486 114.062L47.3489 114.062L98.009 190.82C98.2616 191.203 98.5139 191.558 98.7731 191.823C99.0198 192.074 99.4297 192.407 100.002 192.407C100.575 192.407 100.985 192.074 101.231 191.823C101.491 191.558 101.743 191.203 101.995 190.82L152.656 114.062Z" fill="black" stroke="white" stroke-width="2"/>
<path d="M61.8867 73.8852C61.8867 52.8728 78.9836 35.7717 100 35.7717C121.017 35.7717 138.114 52.8728 138.114 73.8852C138.114 94.8975 121.017 111.999 100 111.999C78.9836 111.999 61.8867 94.8975 61.8867 73.8852ZM68.5786 73.8852C68.5786 91.2128 82.677 105.307 100 105.307C117.323 105.307 131.422 91.2128 131.422 73.8852C131.422 56.5575 117.323 42.4636 100 42.4636C82.677 42.4636 68.5786 56.5575 68.5786 73.8852Z" fill="black" stroke="white" stroke-width="2"/>
</g>
<defs>
<clipPath id="clip0_1177_11">
<rect width="200" height="200" fill="white"/>
</clipPath>
</defs>
</svg>
