<svg width="200" height="200" viewBox="0 0 200 200" fill="none" xmlns="http://www.w3.org/2000/svg">
<g clip-path="url(#clip0_1177_54)">
<path d="M151.454 48.089L151.454 48.0889L151.453 48.0868C151.149 46.6358 152.063 45.1026 153.672 44.76C156.394 44.2278 158.207 47.5564 156.226 49.5366L156.225 49.5376C155.166 50.6277 153.303 50.6441 152.228 49.5377L152.227 49.5366C151.821 49.1318 151.553 48.618 151.454 48.089Z" fill="black" stroke="white" stroke-width="0.2"/>
<path d="M120.158 66.6293L120.158 66.6293C119.151 67.4633 117.946 68.0054 116.678 68.1961L116.677 68.1961L116.603 68.207C112.699 68.7953 109.043 66.0936 108.456 62.1863C107.869 58.2797 110.57 54.6249 114.479 54.0378L120.158 66.6293ZM120.158 66.6293C121.361 65.6329 123.145 65.8 124.142 67.0039C125.139 68.2075 124.971 69.9913 123.768 70.9881C116.056 77.3748 104.337 72.8644 102.86 63.0269C101.81 56.0364 106.641 49.4958 113.63 48.4427C113.695 48.4411 113.802 48.4286 113.947 48.4118C114.892 48.3019 117.447 48.0048 120.508 49.2759C121.951 49.8754 122.635 51.5309 122.036 52.9744C121.436 54.4176 119.779 55.1012 118.337 54.5021L118.301 54.5885L118.337 54.5021C117.131 54.0011 115.82 53.8362 114.546 54.0276L114.546 54.0276L114.479 54.0377L120.158 66.6293Z" fill="black" stroke="white" stroke-width="0.2"/>
<path d="M42.9433 155.853C42.9433 154.064 44.5863 152.736 46.3234 153.08C47.678 153.361 48.6026 154.519 48.6026 155.853C48.6026 157.422 47.3244 158.683 45.7729 158.683C44.212 158.683 42.9433 157.423 42.9433 155.853Z" fill="black" stroke="white" stroke-width="0.2"/>
<path d="M75.9784 164.4L75.9784 164.4C76.6152 165.826 78.2885 166.467 79.7159 165.83C84.7801 163.569 90.4831 167.68 89.7965 173.251C89.107 178.843 82.5584 181.408 78.2156 178.001L78.2662 177.937L78.2156 178.001C76.9863 177.037 75.2074 177.251 74.2427 178.481L74.2427 178.481C73.278 179.711 73.4927 181.489 74.7219 182.454L74.6628 182.529L74.7219 182.454C82.5106 188.566 94.1827 183.928 95.4128 173.944L95.507 173.956L95.4128 173.944C96.6453 163.949 86.4116 156.643 77.4087 160.662L75.9784 164.4ZM75.9784 164.4C75.3412 162.973 75.9818 161.3 77.4087 160.662L75.9784 164.4Z" fill="black" stroke="white" stroke-width="0.2"/>
<path d="M174.461 62.0011L174.396 62.0717L174.464 62.1394C174.721 62.3971 175.083 62.658 175.476 62.9413C175.51 62.966 175.545 62.9909 175.58 63.0159C176.016 63.3307 176.488 63.6786 176.919 64.0927C177.779 64.9182 178.471 66.0018 178.37 67.5961C178.265 69.2793 177.182 70.9039 175.457 71.9409L175.455 71.9419C170.293 75.178 162.514 78.3554 154.526 81.0719C146.539 83.7877 138.35 86.0404 132.372 87.4288C130.85 87.7823 129.33 86.8346 128.976 85.3126C128.622 83.7902 129.57 82.2697 131.092 81.9162C133.931 81.2565 136.8 80.5241 139.643 79.7406L139.771 79.7051L139.701 79.5916C132.194 67.4544 129.857 53.2969 132.269 40.0824L132.286 39.9921L132.197 39.968C126.131 38.3165 108.993 34.8539 86.8023 40.593C85.2874 40.9839 83.7455 40.0746 83.3542 38.5621C82.963 37.0492 83.8719 35.5057 85.3852 35.114C108.745 29.0719 126.603 32.5501 133.501 34.4394L133.596 34.4654L133.624 34.3712C134.566 31.1646 135.889 27.82 137.467 24.7279L137.521 24.6219L137.407 24.5869C118.919 18.8921 99.3879 20.0067 82.3491 26.8537C72.0151 30.992 59.0625 39.7808 48.3257 51.687L48.455 51.8374C56.0973 46.7988 63.9483 42.6759 71.9368 39.5106L71.9 39.4176L71.9368 39.5106C73.389 38.9348 75.034 39.646 75.6097 41.099C76.1851 42.5519 75.4743 44.1962 74.0214 44.7719C60.824 50.0012 47.991 57.9939 35.8711 68.5234L35.8592 68.5337L35.851 68.5473C35.1344 69.7373 34.4283 70.9552 33.7366 72.2091C32.964 73.6095 31.8604 74.8003 30.546 75.652L7.36592 90.6724L7.04513 90.8802L7.42661 90.8561L26.734 89.6342C30.8903 89.3681 34.9363 90.9374 37.8328 93.9313L51.2477 107.797L51.4894 108.047L51.4174 107.707L46.2884 83.4926C45.7511 80.9569 46.6405 78.3613 48.6078 76.7186C50.1889 75.3983 53.1364 73.3892 57.1622 72.5721C61.1852 71.7555 66.2926 72.1277 72.2007 75.5809C85.5578 83.3882 103.318 86.2908 117.929 84.3883L117.929 84.3882C119.474 84.1849 120.899 85.2786 121.101 86.8286C121.303 88.3785 120.21 89.7982 118.66 90.0001C109.524 91.191 99.0433 90.5724 89.8508 88.4697L89.8021 88.4586L89.7639 88.4909C85.2086 92.3452 79.5012 94.5724 73.5065 94.7899C69.8478 94.9223 66.3867 94.3167 63.1898 93.1185C59.8993 91.8855 59.1953 87.529 61.9161 85.3242C63.9474 83.6783 65.659 81.646 66.9568 79.3711L67.0121 79.2741L66.9096 79.2297C60.1997 76.3257 55.2817 78.5185 52.2347 81.0627L52.2988 81.1395L52.2347 81.0627C52.1096 81.1673 51.9974 81.2681 51.9236 81.4187C51.8498 81.5696 51.8195 81.759 51.8291 82.034C51.8482 82.5795 52.0273 83.5102 52.4084 85.2587C52.5586 85.948 52.7406 86.766 52.9572 87.7396C53.8421 91.7173 55.3054 98.2941 57.5446 109.321L57.5447 109.322C58.2188 112.504 55.7493 115.294 52.6992 115.294C51.4004 115.295 50.1252 114.775 49.1625 113.78L33.766 97.8664C32.0249 96.0664 29.5893 95.1265 27.0922 95.2823L5.63156 96.6401L5.63144 96.6401C3.23641 96.7946 1.12407 95.3635 0.371501 93.0855L0.276548 93.1168L0.371496 93.0854C-0.381413 90.8075 0.465186 88.4018 2.47858 87.0968L27.4696 70.9039L27.4152 70.82L27.4696 70.9039C28.0053 70.5565 28.4585 70.0627 28.7821 69.4765L28.6969 69.4295L28.7821 69.4765C29.5821 68.0263 30.4013 66.6216 31.2331 65.252L31.2341 65.2502C31.2392 65.2415 31.2436 65.2327 31.2463 65.2275C31.2495 65.2214 31.2512 65.2182 31.2528 65.2156L31.2532 65.2149C31.2845 65.1629 31.3154 65.1132 31.3467 65.0628C31.3688 65.0272 31.391 64.9914 31.4138 64.9542L31.4139 64.9541C31.6181 64.6195 31.8229 64.2862 32.0289 63.957L32.029 63.9569C32.201 63.6811 32.3738 63.4088 32.5472 63.1362C32.5868 63.0741 32.6262 63.0121 32.6656 62.9501C32.753 62.8126 32.8401 62.6754 32.9278 62.5393L32.9278 62.5393C45.3441 43.2495 64.3656 26.4503 86.2008 19.4593L86.3154 19.4226L86.2584 19.3167C84.7819 16.5735 83.045 13.9806 81.0682 11.581L80.991 11.6446L81.0682 11.581C79.5282 9.71185 79.1218 7.24221 79.9806 4.97254C80.834 2.71768 82.7598 1.14703 85.1333 0.768708C102.708 -2.02995 120.672 4.10775 132.873 17.4729L132.894 17.496L132.924 17.5029C146.406 20.6073 157.437 26.6722 165.351 32.4041C169.308 35.27 172.485 38.0521 174.798 40.3383C177.113 42.627 178.558 44.4131 179.056 45.2867C181.394 49.3869 180.869 54.3591 178.064 57.8254C176.886 59.28 175.673 60.6823 174.461 62.0011ZM71.8675 82.1958L71.8215 82.2755C70.5454 84.4899 68.9556 86.5188 67.1117 88.2832L66.983 88.4064L67.1552 88.4522C72.2876 89.8145 77.8267 89.1759 82.5626 86.6043L82.7646 86.4946L82.5466 86.4216C78.2113 84.9708 74.9219 83.6327 71.9508 82.2349L71.8675 82.1958ZM91.8436 17.7804L91.8796 17.8513L91.9567 17.8323C101.978 15.3644 112.375 14.6983 122.398 15.746L122.751 15.7828L122.469 15.5671C112.367 7.82738 99.1951 4.26015 86.0233 6.35752L86.039 6.45628L86.0233 6.35753C85.5696 6.42994 85.3634 6.73801 85.2733 6.97593C85.1962 7.17935 85.1116 7.58883 85.4365 7.98313C87.9209 10.9997 90.07 14.2862 91.8436 17.7804ZM171.897 67.487L172.022 67.4119L171.907 67.3223L170.534 66.2539C168.115 64.3714 167.836 60.8137 169.929 58.5654C171.227 57.1712 172.483 55.7245 173.664 54.2657C175.376 52.1507 175.263 49.0591 173.403 47.0738C165.005 38.1118 154.638 31.0545 143.015 26.5365L142.932 26.5043L142.891 26.5828C134.256 42.8424 135.168 62.5969 145.4 77.9987L145.441 78.0607L145.512 78.0391C153.168 75.7106 165.058 71.5881 171.897 67.487Z" fill="black" stroke="white" stroke-width="0.2"/>
<path d="M142.455 105.847L142.454 105.846C141.426 100.995 147.398 97.8329 150.837 101.387L166.234 117.301C167.975 119.102 170.413 120.044 172.907 119.885L194.368 118.527C199.715 118.201 201.994 125.172 197.521 128.072L197.521 128.072C187.211 134.824 181.073 138.754 177.375 141.123C176.339 141.786 175.494 142.327 174.802 142.774C173.225 143.791 172.44 144.318 172.001 144.681C171.779 144.864 171.643 145.008 171.536 145.154C171.445 145.278 171.376 145.403 171.297 145.548C171.285 145.571 171.272 145.594 171.258 145.619C168.682 150.296 165.774 154.821 162.614 159.069C161.681 160.323 159.909 160.583 158.655 159.65C157.401 158.717 157.141 156.944 158.074 155.691L157.993 155.631L158.074 155.691C161.972 150.451 163.883 147.094 165.216 144.751C165.293 144.616 165.368 144.484 165.441 144.356C166.785 142 167.567 140.738 169.453 139.516L192.632 124.496L192.953 124.288L192.572 124.312L173.265 125.534C169.108 125.796 165.063 124.231 162.166 121.237L148.751 107.372L148.51 107.122L148.582 107.462L153.72 131.721C154.253 134.234 153.351 136.82 151.366 138.471L151.415 138.529L151.366 138.471C148.686 140.701 142.081 144.898 132.957 141.932L132.957 141.931L132.945 141.929C130.092 141.376 96.4063 135.259 66.0534 147.856L65.9686 147.891L65.9964 147.979C70.3688 161.712 69.3978 177.001 62.5148 190.461L62.4606 190.567L62.5743 190.602C71.3652 193.319 80.514 194.526 89.8739 194.186C113.928 193.313 133.224 182.876 149.461 165.896C150.541 164.767 152.332 164.727 153.462 165.806C154.591 166.887 154.631 168.678 153.551 169.807C150.917 172.561 148.292 175.028 145.733 177.237L145.657 177.303L145.723 177.379C147.467 179.36 149.478 181.037 151.64 182.299C154.657 184.059 154.899 188.526 152.101 190.533L152.16 190.615L152.101 190.533C143.971 196.374 133.421 196.791 124.482 191.535L124.436 191.508L124.387 191.532C104.002 201.481 77.6104 203.025 54.1246 193.609L54.1245 193.609C43.4783 189.365 31.5246 184.295 21.8447 177.874C20.1871 176.775 19.3603 175.114 19.3914 173.456C19.4225 171.798 20.3112 170.133 22.1071 169.026L22.2572 168.933L22.1007 168.852L21.6851 168.636L21.684 168.635C12.2508 163.883 11.4786 150.286 20.9359 144.929L20.936 144.929C33.8798 137.59 47.8043 132.788 62.398 129.024L62.4316 129.015L62.4526 128.987C73.2363 114.777 90.2255 107.051 107.747 107.987C112.869 108.261 115.759 114.023 112.917 118.317L113 118.372L112.917 118.317C111.263 120.815 109.849 123.477 108.687 126.257L108.64 126.369L108.759 126.394C116.527 128.027 121.644 130.106 125.48 131.999C126.896 132.698 128.138 133.371 129.276 133.988C129.68 134.207 130.072 134.419 130.454 134.623C131.904 135.398 133.211 136.05 134.544 136.498C134.548 136.501 134.554 136.503 134.56 136.506C134.573 136.512 134.592 136.521 134.618 136.531C134.668 136.552 134.743 136.582 134.841 136.617C135.037 136.689 135.325 136.784 135.692 136.882C136.425 137.077 137.472 137.281 138.722 137.318C141.222 137.393 144.531 136.797 147.746 134.12C147.875 134.013 147.992 133.912 148.071 133.765C148.15 133.617 148.185 133.432 148.179 133.163C148.167 132.63 147.993 131.718 147.614 129.983C147.465 129.301 147.284 128.491 147.068 127.525C146.184 123.561 144.712 116.968 142.455 105.847ZM134.669 136.444C134.637 136.431 134.614 136.421 134.601 136.415L134.585 136.507C134.596 136.506 134.632 136.495 134.653 136.481C134.66 136.47 134.665 136.458 134.669 136.444ZM141.336 180.957L141.274 180.886L141.199 180.944C137.38 183.901 133.812 186.258 130.72 188.097L130.541 188.203L130.736 188.276C136.516 190.437 142.637 189.82 147.689 186.679L147.823 186.596L147.691 186.51C145.371 185.007 143.219 183.125 141.336 180.957ZM108.198 115.192L108.12 115.141L108.198 115.192C108.616 114.559 108.215 113.679 107.444 113.637L107.439 113.737L107.444 113.637C100.317 113.255 92.3789 115.663 85.7945 118.571C79.2111 121.478 73.9625 124.894 72.2141 126.545L71.9588 126.786L72.3028 126.716C82.099 124.711 90.7122 123.727 102.857 125.372L102.935 125.383L102.964 125.309C104.348 121.75 106.103 118.357 108.198 115.192ZM56.9814 188.653L57.0641 188.685L57.1058 188.606C65.6909 172.463 64.8869 152.691 54.5977 137.176L54.5566 137.114L54.4853 137.135C53.0285 137.578 51.5798 138.032 50.1482 138.499L50.1481 138.499C49.9177 138.574 49.6879 138.65 49.4585 138.725C49.2574 138.792 49.0572 138.858 48.857 138.925L48.7898 138.947L48.7897 138.947C41.7431 141.301 35.5803 143.882 30.965 146.063C28.6574 147.153 26.736 148.144 25.2842 148.956C23.8352 149.767 22.8466 150.403 22.4105 150.786C18.9246 153.842 19.1461 159.114 22.2722 162.174C23.1925 163.075 23.9352 163.453 25.8182 164.413C26.2684 164.642 26.7838 164.905 27.3823 165.216L27.3824 165.216C28.7705 165.936 29.7069 167.431 29.6515 169.126C29.5962 170.803 28.7616 171.803 27.8757 172.432C27.4314 172.748 26.9741 172.97 26.5943 173.136C26.4797 173.187 26.375 173.231 26.2789 173.271C26.2135 173.299 26.1522 173.324 26.0944 173.349C25.9579 173.408 25.841 173.462 25.7681 173.515L25.65 173.601L25.7727 173.68C34.8476 179.537 46.9278 184.761 56.9814 188.653ZM63.931 142.5L63.9703 142.59L64.0606 142.553C80.2172 135.904 98.7578 133.734 116.09 134.47L116.126 134.275C96.199 127.444 79.5135 130.165 60.3621 135.435L60.2333 135.47L60.3035 135.584C61.6795 137.809 62.8867 140.121 63.931 142.5Z" fill="black" stroke="white" stroke-width="0.2"/>
</g>
<defs>
<clipPath id="clip0_1177_54">
<rect width="200" height="200" fill="white"/>
</clipPath>
</defs>
</svg>
