<svg width="200" height="200" viewBox="0 0 200 200" fill="none" xmlns="http://www.w3.org/2000/svg">
<mask id="path-1-inside-1_1177_51" fill="white">
<path d="M197.5 64.3359C197.226 53.0469 195.547 45.039 192.656 40.4687C192.187 39.7265 191.484 39.1797 190.742 38.9062C190.039 38.6328 189.219 38.5547 188.437 38.75C186.836 39.1406 185.586 40.5469 185.469 42.1875C183.789 59.5312 176.523 78.9062 170.508 81.9922C169.453 82.539 168.476 82.6172 167.539 82.2656C167.187 82.1484 166.875 81.9922 166.601 81.7578C165.781 81.1719 165.234 80.2344 165.039 78.9844C164.648 76.5625 165.117 68.8672 177.93 48.8672C179.023 47.1875 178.672 44.9609 177.148 43.7109C176.797 43.4375 176.406 43.2031 176.015 43.0469C174.648 42.539 173.086 42.8125 171.953 43.8672C165.508 49.8437 159.336 58.2422 155.625 64.1797C147.812 68.0078 143.476 76.0547 143.125 87.4219C142.93 94.0625 144.101 100 144.609 102.148L114.375 104.609C114.18 104.648 114.023 104.648 113.828 104.687C117.07 98.3203 120.234 91.0547 123.125 82.8516C123.594 81.4453 123.281 79.8828 122.265 78.8281C121.875 78.3984 121.328 78.0469 120.781 77.8516C120 77.5391 119.101 77.5 118.242 77.7734C112.851 79.4141 104.453 82.2266 95.3905 86.4062C95.4686 86.2109 95.5077 85.9375 95.5077 85.7031L98.3983 55.3516C100.547 55.8594 106.445 57.1094 113.125 56.9922C124.531 56.7969 132.578 52.539 136.523 44.8047C142.461 41.2109 150.859 35.1953 156.914 28.8672C157.305 28.4765 157.617 28.0078 157.851 27.4219C158.594 25.4687 157.656 23.3203 155.82 22.5C155.742 22.4609 155.625 22.4219 155.547 22.3828C155.469 22.3437 155.39 22.3047 155.312 22.3047C154.726 22.1484 154.062 22.0703 153.515 22.1875C153.086 22.2656 152.695 22.3828 152.305 22.6562C152.265 22.6953 152.187 22.7344 152.109 22.7734C132.031 35.3125 124.297 35.664 121.875 35.2344C121.523 35.1562 121.211 35.0781 120.937 34.9609C120.156 34.6484 119.57 34.2187 119.14 33.5937C118.281 32.3437 118.203 31.0156 118.945 29.6484C122.109 23.6719 141.562 16.6406 158.984 15.1953C160.664 15.0391 162.07 13.8672 162.461 12.2265C162.89 10.5859 162.187 8.86717 160.781 7.96874C159.648 7.22655 158.281 6.56249 156.68 5.97655C152.031 4.2578 145.39 3.20311 136.953 2.85155C121.367 2.22655 106.523 8.08592 97.1874 18.5156C89.8046 26.7969 86.6014 36.9922 88.1639 47.2656L86.3671 85.8203C86.328 87.2266 86.953 88.5547 88.1249 89.3359C88.3592 89.4531 88.5936 89.6094 88.828 89.6875C76.2108 96.3281 63.4374 105.586 56.1717 117.93C55.3514 119.336 55.4686 121.055 56.4452 122.305C55.6249 122.461 54.8436 122.891 54.2577 123.594L48.7499 129.961C47.8905 130.977 47.578 132.305 47.9296 133.555C47.7342 133.516 47.578 133.516 47.3827 133.516C46.2889 133.516 45.2342 134.062 44.5702 134.883L40.2342 139.609C39.3749 140.625 39.0624 141.953 39.4139 143.203C39.2186 143.164 39.0624 143.164 38.8671 143.164C37.7733 143.164 36.7186 143.711 36.0546 144.531L32.7342 148.398C31.8749 149.414 31.5624 150.742 31.9139 151.992C31.7186 151.953 31.5624 151.953 31.3671 151.953C30.2733 151.953 29.2186 152.5 28.5546 153.32L24.8827 157.617C24.2967 158.242 24.0233 159.062 23.9452 159.844C23.5155 159.453 23.0858 159.141 22.578 158.945C22.1874 158.789 21.8358 158.711 21.4842 158.711C20.1561 158.633 8.35924 157.93 4.45299 160.547C3.43737 161.211 2.77331 162.344 2.73424 163.555C2.14831 170.352 8.59362 178.477 14.0624 184.141H14.1014L15.3905 185.469C20.8202 190.859 25.9764 194.57 30.3124 196.172C32.2655 196.914 34.1405 197.227 35.8202 197.148C37.0311 197.07 38.1639 196.445 38.828 195.43C41.5233 191.523 40.9374 179.727 40.8592 178.359C40.8202 177.539 40.5077 176.797 40.0389 176.172C40.8592 176.133 41.6405 175.82 42.3046 175.273L46.6405 171.641C47.4999 170.898 48.0077 169.922 48.0467 168.789C48.0858 168.594 48.0467 168.398 48.0077 168.242C49.2186 168.555 50.5467 168.32 51.5624 167.5L55.4686 164.219C56.328 163.477 56.8358 162.5 56.8749 161.367C56.9139 161.172 56.8749 160.977 56.8358 160.82C58.0467 161.133 59.3749 160.898 60.3905 160.078L65.2733 155.977C66.1327 155.234 66.6405 154.258 66.6796 153.125C66.7186 152.93 66.6796 152.734 66.6405 152.578C67.8514 152.891 69.1796 152.656 70.1952 151.836L76.7577 146.328C77.4608 145.742 77.8905 145 78.0467 144.141C78.3202 144.375 78.7108 144.57 79.0624 144.727C79.2577 144.805 79.5311 144.883 79.7264 144.922C80.7811 145.117 81.953 144.844 82.7733 144.219C88.1639 140.195 99.2577 130.312 110.078 111.328C110.195 111.562 110.273 111.797 110.39 112.031C110.859 112.773 111.562 113.359 112.344 113.672C112.812 113.828 113.32 113.945 113.867 113.906L152.422 112.578C162.695 114.258 172.93 111.211 181.289 103.906C191.875 94.7266 197.89 79.9609 197.5 64.3359V64.3359Z"/>
</mask>
<path d="M197.5 64.3359C197.226 53.0469 195.547 45.039 192.656 40.4687C192.187 39.7265 191.484 39.1797 190.742 38.9062C190.039 38.6328 189.219 38.5547 188.437 38.75C186.836 39.1406 185.586 40.5469 185.469 42.1875C183.789 59.5312 176.523 78.9062 170.508 81.9922C169.453 82.539 168.476 82.6172 167.539 82.2656C167.187 82.1484 166.875 81.9922 166.601 81.7578C165.781 81.1719 165.234 80.2344 165.039 78.9844C164.648 76.5625 165.117 68.8672 177.93 48.8672C179.023 47.1875 178.672 44.9609 177.148 43.7109C176.797 43.4375 176.406 43.2031 176.015 43.0469C174.648 42.539 173.086 42.8125 171.953 43.8672C165.508 49.8437 159.336 58.2422 155.625 64.1797C147.812 68.0078 143.476 76.0547 143.125 87.4219C142.93 94.0625 144.101 100 144.609 102.148L114.375 104.609C114.18 104.648 114.023 104.648 113.828 104.687C117.07 98.3203 120.234 91.0547 123.125 82.8516C123.594 81.4453 123.281 79.8828 122.265 78.8281C121.875 78.3984 121.328 78.0469 120.781 77.8516C120 77.5391 119.101 77.5 118.242 77.7734C112.851 79.4141 104.453 82.2266 95.3905 86.4062C95.4686 86.2109 95.5077 85.9375 95.5077 85.7031L98.3983 55.3516C100.547 55.8594 106.445 57.1094 113.125 56.9922C124.531 56.7969 132.578 52.539 136.523 44.8047C142.461 41.2109 150.859 35.1953 156.914 28.8672C157.305 28.4765 157.617 28.0078 157.851 27.4219C158.594 25.4687 157.656 23.3203 155.82 22.5C155.742 22.4609 155.625 22.4219 155.547 22.3828C155.469 22.3437 155.39 22.3047 155.312 22.3047C154.726 22.1484 154.062 22.0703 153.515 22.1875C153.086 22.2656 152.695 22.3828 152.305 22.6562C152.265 22.6953 152.187 22.7344 152.109 22.7734C132.031 35.3125 124.297 35.664 121.875 35.2344C121.523 35.1562 121.211 35.0781 120.937 34.9609C120.156 34.6484 119.57 34.2187 119.14 33.5937C118.281 32.3437 118.203 31.0156 118.945 29.6484C122.109 23.6719 141.562 16.6406 158.984 15.1953C160.664 15.0391 162.07 13.8672 162.461 12.2265C162.89 10.5859 162.187 8.86717 160.781 7.96874C159.648 7.22655 158.281 6.56249 156.68 5.97655C152.031 4.2578 145.39 3.20311 136.953 2.85155C121.367 2.22655 106.523 8.08592 97.1874 18.5156C89.8046 26.7969 86.6014 36.9922 88.1639 47.2656L86.3671 85.8203C86.328 87.2266 86.953 88.5547 88.1249 89.3359C88.3592 89.4531 88.5936 89.6094 88.828 89.6875C76.2108 96.3281 63.4374 105.586 56.1717 117.93C55.3514 119.336 55.4686 121.055 56.4452 122.305C55.6249 122.461 54.8436 122.891 54.2577 123.594L48.7499 129.961C47.8905 130.977 47.578 132.305 47.9296 133.555C47.7342 133.516 47.578 133.516 47.3827 133.516C46.2889 133.516 45.2342 134.062 44.5702 134.883L40.2342 139.609C39.3749 140.625 39.0624 141.953 39.4139 143.203C39.2186 143.164 39.0624 143.164 38.8671 143.164C37.7733 143.164 36.7186 143.711 36.0546 144.531L32.7342 148.398C31.8749 149.414 31.5624 150.742 31.9139 151.992C31.7186 151.953 31.5624 151.953 31.3671 151.953C30.2733 151.953 29.2186 152.5 28.5546 153.32L24.8827 157.617C24.2967 158.242 24.0233 159.062 23.9452 159.844C23.5155 159.453 23.0858 159.141 22.578 158.945C22.1874 158.789 21.8358 158.711 21.4842 158.711C20.1561 158.633 8.35924 157.93 4.45299 160.547C3.43737 161.211 2.77331 162.344 2.73424 163.555C2.14831 170.352 8.59362 178.477 14.0624 184.141H14.1014L15.3905 185.469C20.8202 190.859 25.9764 194.57 30.3124 196.172C32.2655 196.914 34.1405 197.227 35.8202 197.148C37.0311 197.07 38.1639 196.445 38.828 195.43C41.5233 191.523 40.9374 179.727 40.8592 178.359C40.8202 177.539 40.5077 176.797 40.0389 176.172C40.8592 176.133 41.6405 175.82 42.3046 175.273L46.6405 171.641C47.4999 170.898 48.0077 169.922 48.0467 168.789C48.0858 168.594 48.0467 168.398 48.0077 168.242C49.2186 168.555 50.5467 168.32 51.5624 167.5L55.4686 164.219C56.328 163.477 56.8358 162.5 56.8749 161.367C56.9139 161.172 56.8749 160.977 56.8358 160.82C58.0467 161.133 59.3749 160.898 60.3905 160.078L65.2733 155.977C66.1327 155.234 66.6405 154.258 66.6796 153.125C66.7186 152.93 66.6796 152.734 66.6405 152.578C67.8514 152.891 69.1796 152.656 70.1952 151.836L76.7577 146.328C77.4608 145.742 77.8905 145 78.0467 144.141C78.3202 144.375 78.7108 144.57 79.0624 144.727C79.2577 144.805 79.5311 144.883 79.7264 144.922C80.7811 145.117 81.953 144.844 82.7733 144.219C88.1639 140.195 99.2577 130.312 110.078 111.328C110.195 111.562 110.273 111.797 110.39 112.031C110.859 112.773 111.562 113.359 112.344 113.672C112.812 113.828 113.32 113.945 113.867 113.906L152.422 112.578C162.695 114.258 172.93 111.211 181.289 103.906C191.875 94.7266 197.89 79.9609 197.5 64.3359V64.3359Z" fill="white" stroke="white" stroke-width="0.6" mask="url(#path-1-inside-1_1177_51)"/>
<mask id="path-2-inside-2_1177_51" fill="white">
<path d="M191.836 35.703C188.906 33.3983 186.289 33.828 185.781 33.9062C185.586 33.9843 185.351 34.0233 185.156 34.1015C185 34.1015 184.883 34.1015 184.726 34.1015C171.953 34.8827 157.031 57.1483 153.75 62.2655C137.969 70.5468 139.883 91.328 141.445 99.8827L117.891 101.797C121.211 94.8046 124.414 86.8358 127.305 77.8124C127.656 76.7187 127.383 75.5077 126.601 74.6483C125.82 73.789 124.648 73.4374 123.516 73.6718C122.539 73.9062 111.562 76.5233 98.2812 82.2265L100.547 58.3983C109.101 60.078 129.883 62.2265 138.359 46.5624C143.516 43.3593 165.976 28.7108 166.914 15.9765C166.914 15.8202 166.914 15.703 166.914 15.5468C166.992 15.3515 167.07 15.1171 167.148 14.9218C167.226 14.414 167.695 11.7577 165.43 8.82803C161.484 3.82803 151.953 0.937402 136.953 0.390527C120.391 -0.273535 105.195 5.74209 95.2343 16.8749C87.4218 25.664 83.9843 36.4843 85.5468 47.4218L83.5546 89.6093C82.6562 90.078 81.7968 90.6249 80.9374 91.1327L66.8749 62.7733L70.7812 49.7265C71.289 48.0077 70.3124 46.2499 68.6327 45.703C66.914 45.1952 65.1562 46.1718 64.6093 47.8515L60.3124 62.1093C60.078 62.8905 60.1171 63.7499 60.5077 64.453L75.4296 94.6093C74.9999 94.9218 74.5312 95.2343 74.1405 95.5468L54.6874 68.5937L55.5077 59.2968C55.664 57.4999 54.3358 55.9765 52.578 55.7812C50.7812 55.6249 49.2577 56.953 49.0624 58.7108L48.1249 69.2187C48.0858 69.9999 48.2812 70.7421 48.7499 71.4062L68.9843 99.453C68.4374 99.9218 67.8905 100.312 67.3827 100.82L50.2343 79.0624C49.7655 78.5155 49.2187 78.1249 48.5155 77.9296L34.453 74.2577C32.7343 73.789 30.9765 74.8437 30.5077 76.5624C30.039 78.2812 31.0937 80.039 32.8124 80.5077L45.8202 83.8671L62.6562 105.195C62.2655 105.625 61.8749 106.055 61.4843 106.445L41.6015 91.0155C40.6249 90.2733 39.3749 90.1562 38.2421 90.664L28.5546 95.3124C26.953 96.0937 26.2108 98.0077 26.9921 99.6093C27.7733 101.211 29.6874 101.953 31.289 101.172L39.2187 97.4608L57.3827 111.523C55.4296 114.062 53.7499 116.797 52.3046 119.687C51.914 120.508 51.8749 121.367 52.1483 122.148L22.6562 156.289C12.8515 155.469 1.0546 155.898 0.117099 162.578C-0.781339 168.867 3.32022 176.758 12.1874 185.898L13.5155 187.266C19.2968 193.008 24.5702 196.797 29.2968 198.555C31.914 199.531 34.3749 199.883 36.6796 199.609C43.2421 198.789 43.9062 187.422 43.2421 177.773L78.0077 148.516C78.0858 148.555 78.164 148.633 78.2812 148.672C78.3593 148.711 78.4374 148.75 78.5155 148.75C79.3358 148.945 80.2343 148.867 80.9765 148.437C81.328 148.242 84.1405 146.562 88.3202 142.969L101.719 160.703L97.8905 168.555C97.1093 170.156 97.7733 172.07 99.3749 172.851C99.453 172.891 99.5702 172.93 99.6483 172.969C101.172 173.555 102.969 172.891 103.672 171.328L108.359 161.719C108.906 160.625 108.75 159.375 108.047 158.359L93.0858 138.516C93.4765 138.086 93.9062 137.695 94.3358 137.226L115.312 154.18L118.555 167.226C118.828 168.32 119.609 169.141 120.547 169.492C121.133 169.726 121.758 169.766 122.461 169.57C124.18 169.141 125.273 167.383 124.805 165.664L121.289 151.562C121.133 150.898 120.742 150.273 120.195 149.805L98.6718 132.344C99.1015 131.797 99.5312 131.289 100.039 130.742L127.93 151.406C128.203 151.601 128.437 151.719 128.711 151.836C129.141 151.992 129.609 152.07 130.078 151.992L140.586 151.211C142.344 151.055 143.672 149.531 143.555 147.773C143.398 146.016 141.875 144.687 140.117 144.805L130.82 145.508L103.984 125.586C104.297 125.156 104.609 124.726 104.883 124.297L134.961 139.687C135.078 139.726 135.195 139.766 135.312 139.805C135.937 140.039 136.68 140.078 137.305 139.883L151.641 135.781C153.359 135.273 154.336 133.516 153.828 131.797C153.32 130.078 151.562 129.101 149.844 129.609L136.758 133.359L108.516 118.906C109.062 118.086 109.57 117.226 110.078 116.367L152.344 114.922C163.242 116.68 174.141 113.398 183.008 105.625C194.297 95.8593 200.43 80.703 200.039 64.1796C199.57 49.2577 196.836 39.6483 191.836 35.703V35.703ZM91.9921 47.3827C92.0312 47.1483 91.9921 46.953 91.953 46.7577C90.5468 37.6562 93.4374 28.5546 100.039 21.1327C108.555 11.6015 122.266 6.2499 136.68 6.83584C145.976 7.22647 151.68 8.39834 155.195 9.6874C156.641 10.2343 157.695 10.7421 158.476 11.289C142.578 12.6171 119.883 19.2187 115.312 27.8124C113.867 30.5077 114.023 33.3593 115.703 35.8202C116.523 37.0312 118.125 38.6327 121.016 39.1405C128.906 40.5858 143.633 32.6171 154.062 26.0937C148.398 31.9921 140.195 37.9687 134.219 41.6405C133.672 41.953 133.281 42.4218 133.008 43.0077C125.234 58.828 98.828 51.5624 98.5937 51.4452C97.6952 51.2108 96.6796 51.3671 95.8983 51.8749C95.1171 52.4218 94.6093 53.2812 94.4921 54.2577L91.5624 85.4296C91.1327 85.664 90.703 85.8593 90.2733 86.0937L91.9921 47.3827ZM154.492 18.203C142.969 25.703 128.008 33.8671 122.109 32.8124C121.289 32.6562 121.094 32.3827 121.016 32.2655C120.664 31.7577 120.664 31.4843 120.976 30.8593C123.633 25.9765 139.844 20.1562 154.492 18.203V18.203ZM31.4843 155.898L44.0624 168.633L39.7265 172.266L34.414 166.797H34.3749L27.7733 160.234L31.4843 155.898ZM35.4687 193.203C31.3671 193.437 25.078 189.609 18.0858 182.695L16.7968 181.367C9.92179 174.297 6.17179 167.93 6.48429 163.828C8.12491 162.734 14.6483 162.226 21.0937 162.656L28.3202 169.805L36.8749 178.633C37.1874 185.039 36.6015 191.562 35.4687 193.203V193.203ZM49.0233 164.492L35.703 151.016L39.0233 147.148L52.8905 161.172L49.0233 164.492ZM57.8515 157.07L43.2812 142.305L47.4218 137.5L62.7343 153.008L57.8515 157.07ZM67.6562 148.828L51.6405 132.578L57.1483 126.211C58.9062 127.5 61.1718 129.18 63.5546 131.367L70.7812 138.789C71.953 140.234 73.1249 141.68 74.2187 143.281L67.6562 148.828ZM80.4687 141.016C73.5155 130.234 64.0624 123.008 59.5312 119.922C72.6952 97.4999 105.898 85.6249 119.258 81.6015C106.016 119.141 87.2265 135.937 80.4687 141.016ZM182.383 46.4843C180.273 61.0937 174.258 77.2265 169.297 79.8046C168.711 80.1171 168.437 80.078 167.891 79.7265C167.773 79.6483 167.461 79.414 167.344 78.6327C166.406 72.7343 174.726 57.8905 182.383 46.4843V46.4843ZM178.75 100.898C171.25 107.383 162.148 110.156 153.047 108.594C152.812 108.555 152.656 108.555 152.422 108.555L113.828 109.883C114.062 109.453 114.297 109.023 114.531 108.594L145.664 106.016C146.641 105.937 147.5 105.43 148.008 104.648C148.555 103.867 148.711 102.891 148.476 101.953C148.398 101.68 141.406 75.2343 157.383 67.6562C157.969 67.3827 158.398 66.9921 158.75 66.4452C162.461 60.4687 168.555 52.3437 174.531 46.7577C167.891 57.0702 159.766 71.7187 161.094 79.6483C161.562 82.578 163.125 84.1405 164.336 84.9608C166.836 86.6796 169.648 86.8358 172.344 85.4296C180.976 80.9765 187.891 58.3983 189.375 42.4999C191.133 45.2343 193.203 51.289 193.594 64.3358C193.945 78.8671 188.359 92.4999 178.75 100.898V100.898Z"/>
</mask>
<path d="M191.836 35.703C188.906 33.3983 186.289 33.828 185.781 33.9062C185.586 33.9843 185.351 34.0233 185.156 34.1015C185 34.1015 184.883 34.1015 184.726 34.1015C171.953 34.8827 157.031 57.1483 153.75 62.2655C137.969 70.5468 139.883 91.328 141.445 99.8827L117.891 101.797C121.211 94.8046 124.414 86.8358 127.305 77.8124C127.656 76.7187 127.383 75.5077 126.601 74.6483C125.82 73.789 124.648 73.4374 123.516 73.6718C122.539 73.9062 111.562 76.5233 98.2812 82.2265L100.547 58.3983C109.101 60.078 129.883 62.2265 138.359 46.5624C143.516 43.3593 165.976 28.7108 166.914 15.9765C166.914 15.8202 166.914 15.703 166.914 15.5468C166.992 15.3515 167.07 15.1171 167.148 14.9218C167.226 14.414 167.695 11.7577 165.43 8.82803C161.484 3.82803 151.953 0.937402 136.953 0.390527C120.391 -0.273535 105.195 5.74209 95.2343 16.8749C87.4218 25.664 83.9843 36.4843 85.5468 47.4218L83.5546 89.6093C82.6562 90.078 81.7968 90.6249 80.9374 91.1327L66.8749 62.7733L70.7812 49.7265C71.289 48.0077 70.3124 46.2499 68.6327 45.703C66.914 45.1952 65.1562 46.1718 64.6093 47.8515L60.3124 62.1093C60.078 62.8905 60.1171 63.7499 60.5077 64.453L75.4296 94.6093C74.9999 94.9218 74.5312 95.2343 74.1405 95.5468L54.6874 68.5937L55.5077 59.2968C55.664 57.4999 54.3358 55.9765 52.578 55.7812C50.7812 55.6249 49.2577 56.953 49.0624 58.7108L48.1249 69.2187C48.0858 69.9999 48.2812 70.7421 48.7499 71.4062L68.9843 99.453C68.4374 99.9218 67.8905 100.312 67.3827 100.82L50.2343 79.0624C49.7655 78.5155 49.2187 78.1249 48.5155 77.9296L34.453 74.2577C32.7343 73.789 30.9765 74.8437 30.5077 76.5624C30.039 78.2812 31.0937 80.039 32.8124 80.5077L45.8202 83.8671L62.6562 105.195C62.2655 105.625 61.8749 106.055 61.4843 106.445L41.6015 91.0155C40.6249 90.2733 39.3749 90.1562 38.2421 90.664L28.5546 95.3124C26.953 96.0937 26.2108 98.0077 26.9921 99.6093C27.7733 101.211 29.6874 101.953 31.289 101.172L39.2187 97.4608L57.3827 111.523C55.4296 114.062 53.7499 116.797 52.3046 119.687C51.914 120.508 51.8749 121.367 52.1483 122.148L22.6562 156.289C12.8515 155.469 1.0546 155.898 0.117099 162.578C-0.781339 168.867 3.32022 176.758 12.1874 185.898L13.5155 187.266C19.2968 193.008 24.5702 196.797 29.2968 198.555C31.914 199.531 34.3749 199.883 36.6796 199.609C43.2421 198.789 43.9062 187.422 43.2421 177.773L78.0077 148.516C78.0858 148.555 78.164 148.633 78.2812 148.672C78.3593 148.711 78.4374 148.75 78.5155 148.75C79.3358 148.945 80.2343 148.867 80.9765 148.437C81.328 148.242 84.1405 146.562 88.3202 142.969L101.719 160.703L97.8905 168.555C97.1093 170.156 97.7733 172.07 99.3749 172.851C99.453 172.891 99.5702 172.93 99.6483 172.969C101.172 173.555 102.969 172.891 103.672 171.328L108.359 161.719C108.906 160.625 108.75 159.375 108.047 158.359L93.0858 138.516C93.4765 138.086 93.9062 137.695 94.3358 137.226L115.312 154.18L118.555 167.226C118.828 168.32 119.609 169.141 120.547 169.492C121.133 169.726 121.758 169.766 122.461 169.57C124.18 169.141 125.273 167.383 124.805 165.664L121.289 151.562C121.133 150.898 120.742 150.273 120.195 149.805L98.6718 132.344C99.1015 131.797 99.5312 131.289 100.039 130.742L127.93 151.406C128.203 151.601 128.437 151.719 128.711 151.836C129.141 151.992 129.609 152.07 130.078 151.992L140.586 151.211C142.344 151.055 143.672 149.531 143.555 147.773C143.398 146.016 141.875 144.687 140.117 144.805L130.82 145.508L103.984 125.586C104.297 125.156 104.609 124.726 104.883 124.297L134.961 139.687C135.078 139.726 135.195 139.766 135.312 139.805C135.937 140.039 136.68 140.078 137.305 139.883L151.641 135.781C153.359 135.273 154.336 133.516 153.828 131.797C153.32 130.078 151.562 129.101 149.844 129.609L136.758 133.359L108.516 118.906C109.062 118.086 109.57 117.226 110.078 116.367L152.344 114.922C163.242 116.68 174.141 113.398 183.008 105.625C194.297 95.8593 200.43 80.703 200.039 64.1796C199.57 49.2577 196.836 39.6483 191.836 35.703V35.703ZM91.9921 47.3827C92.0312 47.1483 91.9921 46.953 91.953 46.7577C90.5468 37.6562 93.4374 28.5546 100.039 21.1327C108.555 11.6015 122.266 6.2499 136.68 6.83584C145.976 7.22647 151.68 8.39834 155.195 9.6874C156.641 10.2343 157.695 10.7421 158.476 11.289C142.578 12.6171 119.883 19.2187 115.312 27.8124C113.867 30.5077 114.023 33.3593 115.703 35.8202C116.523 37.0312 118.125 38.6327 121.016 39.1405C128.906 40.5858 143.633 32.6171 154.062 26.0937C148.398 31.9921 140.195 37.9687 134.219 41.6405C133.672 41.953 133.281 42.4218 133.008 43.0077C125.234 58.828 98.828 51.5624 98.5937 51.4452C97.6952 51.2108 96.6796 51.3671 95.8983 51.8749C95.1171 52.4218 94.6093 53.2812 94.4921 54.2577L91.5624 85.4296C91.1327 85.664 90.703 85.8593 90.2733 86.0937L91.9921 47.3827ZM154.492 18.203C142.969 25.703 128.008 33.8671 122.109 32.8124C121.289 32.6562 121.094 32.3827 121.016 32.2655C120.664 31.7577 120.664 31.4843 120.976 30.8593C123.633 25.9765 139.844 20.1562 154.492 18.203V18.203ZM31.4843 155.898L44.0624 168.633L39.7265 172.266L34.414 166.797H34.3749L27.7733 160.234L31.4843 155.898ZM35.4687 193.203C31.3671 193.437 25.078 189.609 18.0858 182.695L16.7968 181.367C9.92179 174.297 6.17179 167.93 6.48429 163.828C8.12491 162.734 14.6483 162.226 21.0937 162.656L28.3202 169.805L36.8749 178.633C37.1874 185.039 36.6015 191.562 35.4687 193.203V193.203ZM49.0233 164.492L35.703 151.016L39.0233 147.148L52.8905 161.172L49.0233 164.492ZM57.8515 157.07L43.2812 142.305L47.4218 137.5L62.7343 153.008L57.8515 157.07ZM67.6562 148.828L51.6405 132.578L57.1483 126.211C58.9062 127.5 61.1718 129.18 63.5546 131.367L70.7812 138.789C71.953 140.234 73.1249 141.68 74.2187 143.281L67.6562 148.828ZM80.4687 141.016C73.5155 130.234 64.0624 123.008 59.5312 119.922C72.6952 97.4999 105.898 85.6249 119.258 81.6015C106.016 119.141 87.2265 135.937 80.4687 141.016ZM182.383 46.4843C180.273 61.0937 174.258 77.2265 169.297 79.8046C168.711 80.1171 168.437 80.078 167.891 79.7265C167.773 79.6483 167.461 79.414 167.344 78.6327C166.406 72.7343 174.726 57.8905 182.383 46.4843V46.4843ZM178.75 100.898C171.25 107.383 162.148 110.156 153.047 108.594C152.812 108.555 152.656 108.555 152.422 108.555L113.828 109.883C114.062 109.453 114.297 109.023 114.531 108.594L145.664 106.016C146.641 105.937 147.5 105.43 148.008 104.648C148.555 103.867 148.711 102.891 148.476 101.953C148.398 101.68 141.406 75.2343 157.383 67.6562C157.969 67.3827 158.398 66.9921 158.75 66.4452C162.461 60.4687 168.555 52.3437 174.531 46.7577C167.891 57.0702 159.766 71.7187 161.094 79.6483C161.562 82.578 163.125 84.1405 164.336 84.9608C166.836 86.6796 169.648 86.8358 172.344 85.4296C180.976 80.9765 187.891 58.3983 189.375 42.4999C191.133 45.2343 193.203 51.289 193.594 64.3358C193.945 78.8671 188.359 92.4999 178.75 100.898V100.898Z" fill="#1D2228" stroke="white" stroke-width="0.6" mask="url(#path-2-inside-2_1177_51)"/>
</svg>
