<svg width="512" height="512" viewBox="0 0 512 512" fill="none" xmlns="http://www.w3.org/2000/svg">
<path d="M138.521 218.365C134.993 218.365 131.751 216.005 130.801 212.427C115.351 154.591 132.024 92.4035 174.308 50.1273C216.588 7.85506 278.772 -8.81008 336.596 6.63232C340.87 7.77302 343.405 12.1522 342.26 16.422C341.127 20.6957 336.709 23.2545 332.471 22.0864C280.139 8.10898 223.862 23.1998 185.621 61.4405C147.369 99.693 132.29 155.966 146.256 208.298C147.4 212.564 144.865 216.947 140.595 218.091C139.904 218.275 139.208 218.365 138.521 218.365V218.365Z" fill="#2F5373"/>
<path d="M158.752 198.172C154.881 198.172 151.482 195.355 150.857 191.41C143.728 146.001 158.842 99.5328 191.286 67.0893C223.725 34.6576 270.193 19.5824 315.556 26.6649C319.915 27.3524 322.9 31.4464 322.22 35.8178C321.525 40.1853 317.388 43.1112 313.067 42.4823C272.76 36.1186 231.441 49.5765 202.587 78.4104C173.753 107.244 160.323 148.567 166.667 188.929C167.347 193.297 164.37 197.395 160.002 198.082C159.577 198.137 159.17 198.172 158.752 198.172Z" fill="#2F5373"/>
<path d="M332.709 137.328C330.662 137.328 328.615 136.543 327.052 134.984C292.738 100.67 292.738 44.8418 327.052 10.5271C330.182 7.39802 335.237 7.39802 338.366 10.5271C341.495 13.6562 341.495 18.7113 338.366 21.8404C310.294 49.9125 310.294 95.5951 338.366 123.671C341.495 126.796 341.495 131.855 338.366 134.984C336.807 136.543 334.756 137.328 332.709 137.328Z" fill="#2F5373"/>
<path d="M332.709 24.1843C330.662 24.1843 328.615 23.3991 327.052 21.8404C323.923 18.7112 323.923 13.6562 327.052 10.5271L328.885 8.69498C332.014 5.56587 337.069 5.56587 340.198 8.69498C343.327 11.8241 343.327 16.8791 340.198 20.0082L338.366 21.8404C336.807 23.4069 334.756 24.1843 332.709 24.1843Z" fill="#2F5373"/>
<path d="M140.361 216.525C138.314 216.525 136.267 215.74 134.704 214.181C131.575 211.052 131.575 205.997 134.704 202.868C169.027 168.545 224.862 168.561 259.169 202.868C262.298 205.997 262.298 211.052 259.169 214.181C256.04 217.306 250.985 217.306 247.856 214.181C219.792 186.113 174.101 186.097 146.017 214.181C144.459 215.747 142.408 216.525 140.361 216.525V216.525Z" fill="#2F5373"/>
<path d="M138.528 218.357C136.481 218.357 134.434 217.572 132.872 216.013C129.743 212.884 129.743 207.829 132.872 204.7L134.704 202.868C137.833 199.739 142.888 199.739 146.017 202.868C149.146 205.997 149.146 211.052 146.017 214.181L144.185 216.013C142.626 217.572 140.575 218.357 138.528 218.357Z" fill="#2F5373"/>
<path d="M222.878 269.782C220.831 269.782 218.784 269.001 217.221 267.438C214.092 264.309 214.092 259.254 217.221 256.125L361 112.35C364.129 109.221 369.184 109.221 372.313 112.35C375.438 115.479 375.438 120.534 372.313 123.663L228.534 267.438C226.976 269.009 224.925 269.782 222.878 269.782Z" fill="#2F5373"/>
<path d="M321.404 171.272C321.029 171.272 320.646 171.248 320.259 171.194L280.659 165.529C276.283 164.904 273.24 160.849 273.865 156.47C274.498 152.095 278.569 149.056 282.921 149.681L322.525 155.345C326.9 155.966 329.943 160.025 329.318 164.4C328.748 168.401 325.326 171.272 321.404 171.272Z" fill="#2F5373"/>
<path d="M287.444 205.212C283.522 205.212 280.096 202.34 279.53 198.348L273.873 158.744C273.248 154.368 276.291 150.313 280.667 149.688C285.042 149.032 289.097 152.103 289.722 156.482L295.378 196.082C296.003 200.457 292.964 204.516 288.585 205.137C288.194 205.188 287.819 205.212 287.444 205.212Z" fill="#2F5373"/>
<path d="M343.741 387.805C329.31 387.805 314.79 385.958 300.531 382.141C296.265 381.008 293.722 376.621 294.867 372.351C296.011 368.078 300.445 365.542 304.66 366.687C357 380.664 413.273 365.566 451.517 327.325C489.758 289.08 504.849 232.803 490.879 180.472C489.735 176.21 492.27 171.827 496.544 170.682C500.767 169.545 505.193 172.073 506.337 176.346C521.776 234.182 505.111 296.37 462.831 338.634C430.981 370.484 387.826 387.805 343.741 387.805Z" fill="#2F5373"/>
<path d="M343.792 363.831C336.389 363.831 328.959 363.261 321.54 362.093C317.173 361.405 314.196 357.307 314.876 352.94C315.563 348.572 319.661 345.627 324.029 346.275C364.359 352.655 405.714 339.189 434.548 310.355C463.374 281.521 476.808 240.214 470.472 199.875C469.792 195.508 472.773 191.41 477.136 190.722C481.64 190.097 485.598 193.027 486.289 197.387C493.407 242.765 478.296 289.225 445.861 321.661C418.714 348.811 381.736 363.831 343.792 363.831V363.831Z" fill="#2F5373"/>
<path d="M440.196 211.634C417.66 211.634 395.123 203.059 377.97 185.898C374.841 182.769 374.841 177.714 377.97 174.585C381.095 171.455 386.154 171.455 389.283 174.585C417.379 202.676 463.046 202.661 491.11 174.585C494.239 171.455 499.298 171.455 502.423 174.585C505.552 177.714 505.552 182.769 502.423 185.898C485.262 203.059 462.733 211.634 440.196 211.634V211.634Z" fill="#2F5373"/>
<path d="M496.766 188.242C494.712 188.242 492.657 187.449 491.094 185.89C487.977 182.753 487.992 177.69 491.122 174.569L492.954 172.737C496.087 169.608 501.153 169.643 504.271 172.76C507.392 175.897 507.376 180.96 504.247 184.081L502.415 185.913C500.857 187.464 498.81 188.242 496.766 188.242Z" fill="#2F5373"/>
<path d="M304.426 380.59C302.379 380.59 300.332 379.805 298.773 378.246C295.644 375.117 295.644 370.062 298.773 366.933C326.845 338.853 326.845 293.178 298.773 265.094C295.644 261.965 295.644 256.91 298.773 253.781C301.898 250.656 306.957 250.656 310.083 253.781C344.397 288.096 344.397 343.932 310.083 378.246C308.524 379.805 306.477 380.59 304.426 380.59V380.59Z" fill="#2F5373"/>
<path d="M302.594 382.422C300.547 382.422 298.5 381.637 296.941 380.078C293.812 376.949 293.812 371.894 296.941 368.765L298.773 366.933C301.898 363.804 306.957 363.804 310.083 366.933C313.212 370.062 313.212 375.117 310.083 378.246L308.25 380.078C306.692 381.637 304.645 382.422 302.594 382.422Z" fill="#2F5373"/>
<path d="M251.169 298.073C249.122 298.073 247.071 297.288 245.512 295.729C242.383 292.6 242.383 287.545 245.512 284.416L389.291 140.641C392.416 137.512 397.475 137.512 400.6 140.641C403.729 143.766 403.729 148.825 400.6 151.95L256.825 295.729C255.255 297.288 253.208 298.073 251.169 298.073V298.073Z" fill="#2F5373"/>
<path d="M355.351 239.159C354.976 239.159 354.589 239.132 354.207 239.077L314.606 233.42C310.227 232.795 307.188 228.74 307.813 224.365C308.434 219.99 312.501 216.955 316.868 217.572L356.472 223.228C360.848 223.853 363.887 227.908 363.262 232.284C362.695 236.284 359.269 239.159 355.351 239.159V239.159Z" fill="#2F5373"/>
<path d="M355.335 239.159C351.413 239.159 347.991 236.284 347.421 232.291L341.756 192.691C341.135 188.316 344.175 184.257 348.55 183.632C352.894 183.003 356.976 186.05 357.609 190.425L363.27 230.03C363.895 234.405 360.855 238.46 356.48 239.085C356.093 239.132 355.71 239.159 355.335 239.159V239.159Z" fill="#2F5373"/>
<path d="M383.626 188.242C381.575 188.242 379.528 187.456 377.97 185.898L327.052 134.984C323.923 131.855 323.923 126.796 327.052 123.671C330.182 120.542 335.237 120.542 338.366 123.671L389.283 174.585C392.408 177.714 392.408 182.769 389.283 185.898C387.72 187.456 385.673 188.242 383.626 188.242Z" fill="#2F5373"/>
<path d="M304.426 267.438C302.379 267.438 300.332 266.657 298.773 265.094L247.856 214.181C244.727 211.052 244.727 205.997 247.856 202.868C250.985 199.739 256.04 199.739 259.169 202.868L310.083 253.781C313.212 256.91 313.212 261.965 310.083 265.094C308.524 266.665 306.477 267.438 304.426 267.438Z" fill="#2F5373"/>
<path d="M394.928 154.294C393.779 154.294 392.619 154.056 391.514 153.521C387.521 151.63 385.81 146.864 387.705 142.872L413.163 89.1298C415.05 85.1413 419.836 83.4107 423.813 85.3249C427.805 87.2117 429.516 91.9816 427.621 95.974L402.163 149.712C400.803 152.607 397.928 154.294 394.928 154.294V154.294Z" fill="#2F5373"/>
<path d="M366.664 126.015C363.664 126.015 360.801 124.327 359.429 121.437C357.535 117.444 359.246 112.678 363.238 110.787L416.98 85.3327C420.957 83.4419 425.738 85.1491 427.629 89.1415C429.524 93.1301 427.813 97.8999 423.82 99.7867L370.079 125.245C368.977 125.757 367.817 126.015 366.664 126.015V126.015Z" fill="#2F5373"/>
<path d="M394.936 154.294C392.889 154.294 390.842 153.513 389.283 151.95L361 123.671C357.871 120.542 357.871 115.487 361 112.358C364.129 109.229 369.184 109.229 372.313 112.358L400.592 140.641C403.721 143.766 403.721 148.825 400.592 151.95C399.034 153.513 396.987 154.294 394.936 154.294V154.294Z" fill="#2F5373"/>
<path d="M222.878 269.782C220.831 269.782 218.784 269.001 217.221 267.438C214.092 264.309 214.092 259.254 217.221 256.125L361 112.35C364.129 109.221 369.184 109.221 372.313 112.35C375.438 115.479 375.438 120.534 372.313 123.663L228.534 267.438C226.976 269.009 224.925 269.782 222.878 269.782Z" fill="#2F5373"/>
<path d="M251.169 298.073C249.122 298.073 247.071 297.288 245.512 295.729C242.383 292.6 242.383 287.545 245.512 284.416L389.291 140.641C392.416 137.512 397.475 137.512 400.6 140.641C403.729 143.766 403.729 148.825 400.6 151.95L256.825 295.729C255.255 297.288 253.208 298.073 251.169 298.073V298.073Z" fill="#2F5373"/>
<path d="M200.251 292.416C198.204 292.416 196.157 291.631 194.598 290.072C185.235 280.712 185.235 265.497 194.598 256.133C203.646 247.077 219.463 247.062 228.534 256.133C231.663 259.262 231.663 264.321 228.534 267.446C225.405 270.575 220.35 270.575 217.221 267.446C214.182 264.43 208.924 264.415 205.916 267.446C202.79 270.567 202.79 275.638 205.908 278.759C209.037 281.888 209.037 286.943 205.908 290.072C204.349 291.631 202.302 292.416 200.251 292.416Z" fill="#2F5373"/>
<path d="M239.848 325.372C233.703 325.372 227.558 323.036 222.878 318.356C219.749 315.227 219.749 310.171 222.878 307.042C226.007 303.913 231.062 303.913 234.191 307.042C237.32 310.171 242.375 310.171 245.504 307.042C247.016 305.531 247.848 303.53 247.848 301.386C247.848 299.249 247.016 297.241 245.504 295.729C242.375 292.6 242.375 287.545 245.504 284.416C248.633 281.287 253.688 281.287 256.817 284.416C261.345 288.944 263.849 294.975 263.849 301.386C263.849 307.8 261.345 313.836 256.817 318.363C252.145 323.036 246 325.372 239.848 325.372V325.372Z" fill="#2F5373"/>
<path d="M251.169 298.073C249.122 298.073 247.071 297.288 245.512 295.729L217.229 267.446C214.104 264.321 214.104 259.262 217.229 256.133C220.358 253.008 225.413 253.008 228.542 256.133L256.825 284.416C259.954 287.545 259.954 292.6 256.825 295.729C255.255 297.288 253.208 298.073 251.169 298.073V298.073Z" fill="#2F5373"/>
<path d="M228.534 320.7C226.487 320.7 224.44 319.914 222.878 318.356L194.599 290.073C191.469 286.943 191.469 281.888 194.599 278.759C197.724 275.63 202.783 275.63 205.908 278.759L234.191 307.042C237.32 310.171 237.32 315.227 234.191 318.356C232.632 319.914 230.581 320.7 228.534 320.7Z" fill="#2F5373"/>
<path d="M13.8564 478.803C11.8093 478.803 9.76234 478.022 8.19974 476.46C5.07063 473.334 5.07063 468.275 8.19974 465.146L194.598 278.751C197.724 275.622 202.783 275.622 205.908 278.751C209.037 281.881 209.037 286.936 205.908 290.065L19.513 476.46C17.9543 478.03 15.9034 478.803 13.8564 478.803Z" fill="#2F5373"/>
<path d="M42.1472 507.094C40.1002 507.094 38.0493 506.309 36.4906 504.75C33.3615 501.621 33.3615 496.566 36.4906 493.437L222.885 307.042C226.015 303.913 231.07 303.913 234.199 307.042C237.328 310.171 237.328 315.227 234.199 318.356L47.8039 504.75C46.2334 506.309 44.1864 507.094 42.1472 507.094Z" fill="#2F5373"/>
<path d="M28.0018 512.935C20.8334 512.935 13.6649 510.208 8.19975 504.751C2.91034 499.461 0 492.437 0 484.948C0 477.467 2.91034 470.444 8.19975 465.146C11.3289 462.021 16.3839 462.021 19.513 465.146C22.6421 468.276 22.6421 473.334 19.513 476.46C17.2472 478.733 16.001 481.749 16.001 484.948C16.001 488.148 17.2472 491.168 19.513 493.437C24.1852 498.109 31.8106 498.109 36.4828 493.437C39.6119 490.308 44.6669 490.308 47.7961 493.437C50.9252 496.566 50.9252 501.621 47.7961 504.751C42.3387 510.208 35.1702 512.935 28.0018 512.935Z" fill="#2F5373"/>
<path d="M197.907 362.644C195.86 362.644 193.813 361.862 192.251 360.3L152.651 320.699C149.521 317.57 149.521 312.515 152.651 309.386C155.78 306.257 160.835 306.257 163.964 309.386L203.564 348.99C206.693 352.116 206.693 357.175 203.564 360.3C202.005 361.862 199.958 362.644 197.907 362.644V362.644Z" fill="#2F5373"/>
<path d="M61.9416 498.606C59.8906 498.606 57.8436 497.82 56.2849 496.262L16.6886 456.669C13.5595 453.54 13.5595 448.481 16.6886 445.356C19.8177 442.227 24.8728 442.227 28.0019 445.356L67.5982 484.948C70.7234 488.077 70.7234 493.133 67.5982 496.262C66.0356 497.82 63.9886 498.606 61.9416 498.606V498.606Z" fill="#2F5373"/>
<path d="M188.293 360.94H131.727C127.305 360.94 123.727 357.366 123.727 352.94C123.727 348.518 127.305 344.939 131.727 344.939H188.293C192.716 344.939 196.294 348.518 196.294 352.94C196.294 357.366 192.716 360.94 188.293 360.94Z" fill="#2F5373"/>
<path d="M156.291 392.942H99.7252C95.3031 392.942 91.7247 389.368 91.7247 384.942C91.7247 380.52 95.3031 376.941 99.7252 376.941H156.291C160.714 376.941 164.292 380.52 164.292 384.942C164.292 389.368 160.714 392.942 156.291 392.942Z" fill="#2F5373"/>
<path d="M124.289 424.945H67.7232C63.301 424.945 59.7227 421.37 59.7227 416.944C59.7227 412.522 63.301 408.943 67.7232 408.943H124.289C128.711 408.943 132.29 412.522 132.29 416.944C132.29 421.37 128.711 424.945 124.289 424.945Z" fill="#2F5373"/>
<path d="M92.2873 456.947H35.7211C31.2989 456.947 27.7206 453.372 27.7206 448.946C27.7206 444.524 31.2989 440.946 35.7211 440.946H92.2873C96.7094 440.946 100.288 444.524 100.288 448.946C100.288 453.372 96.7094 456.947 92.2873 456.947Z" fill="#2F5373"/>
</svg>
