<svg width="512" height="512" viewBox="0 0 512 512" fill="none" xmlns="http://www.w3.org/2000/svg">
<circle cx="256" cy="256" r="256" fill="#F2F1EC"/>
<path d="M295.232 155.744C314.223 157.756 326.691 162.116 326.843 162.169C327.575 162.43 328.374 162.432 329.108 162.175C329.842 161.918 330.465 161.418 330.875 160.757C347.594 136.629 354.665 104.395 416.886 96.6066C417.556 96.5465 418.193 96.2904 418.717 95.8704C419.242 95.4505 419.631 94.8852 419.837 94.2453C420.042 93.6053 420.054 92.9191 419.872 92.2723C419.689 91.6255 419.32 91.0468 418.811 90.6085C418.055 89.974 399.942 75.0194 369.402 62.347C366.475 61.1114 363.227 60.858 360.143 61.6247C357.06 62.3914 354.308 64.1369 352.301 66.5995L347.76 72.1391L349.549 58.0999C349.651 57.3012 349.466 56.4921 349.027 55.817C348.589 55.1419 347.924 54.6446 347.153 54.4138C288.069 36.7275 229.083 45.0223 174.948 76.6699C172.322 78.1833 170.254 80.502 169.048 83.2827C167.843 86.0634 167.565 89.1583 168.255 92.1094L169.433 97.1676L160.991 88.7323C160.428 88.1689 159.685 87.8211 158.892 87.7497C158.099 87.6783 157.306 87.8879 156.652 88.3417C134.537 103.445 115.572 122.286 101.813 143.341C100.015 146.124 99.1557 149.41 99.3619 152.717C99.5681 156.024 100.829 159.177 102.959 161.715L111.95 172.397L101.73 169.693C100.92 169.462 100.054 169.529 99.2887 169.881C98.5877 170.218 98.023 170.785 97.6884 171.487C97.3539 172.189 97.2697 172.984 97.4498 173.741L98.6507 178.767L87.9486 176.054C87.1435 175.851 86.2922 175.95 85.5546 176.331C84.8171 176.712 84.2441 177.349 83.9435 178.123C73.71 204.588 69.0922 234.241 70.1472 266.38C70.1924 275.343 70.9327 284.289 72.3614 293.137C77.4704 337.185 117.741 390.397 94.4471 438.579C92.8528 441.535 96.6368 444.904 99.3857 442.911C133.634 420.865 133.743 362.631 125.82 336.619C121.574 324.486 130.003 317.813 130.345 317.55C130.792 317.216 131.149 316.778 131.386 316.274C131.623 315.769 131.733 315.215 131.705 314.658C130.617 293.037 132.038 245.663 160 208.273C161.157 206.7 162.775 205.525 164.63 204.911C166.484 204.296 168.483 204.274 170.351 204.845C177.896 207.202 182.844 217.015 177.862 223.953C167.775 238.987 161.464 258.09 164.755 281.719C163.327 281.97 161.964 282.504 160.746 283.289C159.528 284.074 158.479 285.094 157.661 286.29C156.842 287.486 156.271 288.834 155.981 290.254C155.691 291.674 155.688 293.137 155.971 294.558L156.611 297.761C156.902 299.181 157.473 300.529 158.292 301.725C159.111 302.921 160.16 303.942 161.379 304.727C162.597 305.513 163.961 306.046 165.388 306.297C166.816 306.549 168.28 306.512 169.693 306.19C173.997 326.945 184.329 366.697 181.359 374.165L174.828 376.576C172.297 377.477 170.189 379.284 168.913 381.649C167.637 384.013 167.283 386.767 167.919 389.377C168.299 390.813 168.973 392.154 169.901 393.314C170.828 394.474 171.987 395.427 173.304 396.113C174.621 396.799 176.067 397.203 177.549 397.298C179.031 397.393 180.517 397.177 181.911 396.665L211.91 385.588C216.233 383.977 220.069 381.284 223.052 377.766C226.035 374.248 228.066 370.023 228.95 365.496C230.543 357.204 235.537 337.92 247.452 337.92C248.24 337.9 249.023 338.059 249.741 338.385C250.459 338.711 251.094 339.196 251.597 339.803C256.906 345.422 259.912 361.423 258.909 378.703C258.418 386.743 260.806 394.694 265.645 401.133C276.511 415.48 302.293 441.726 352.892 456.313C355.001 456.915 357.244 456.852 359.316 456.132C361.388 455.412 363.188 454.071 364.469 452.291C365.75 450.51 366.451 448.378 366.476 446.185C366.501 443.991 365.849 441.844 364.608 440.035C364.443 439.79 348.098 414.895 340.655 353.117C340.048 348.124 338.418 343.311 335.867 338.976C333.316 334.642 329.899 330.88 325.829 327.925C317.814 322.213 310.299 315.83 303.365 308.844L340.265 311.376C342.787 315.318 350.577 329.201 354.885 356.009C354.979 356.598 355.226 357.151 355.603 357.613C355.954 358.047 364.475 368.255 387.085 372.024C387.743 372.122 388.416 372.026 389.02 371.747C389.624 371.469 390.135 371.021 390.488 370.457C390.842 369.894 391.024 369.239 391.012 368.574C391 367.909 390.794 367.262 390.42 366.711C390.179 366.369 366.243 331.598 360.135 257.95C359.893 255.028 359.51 252.1 359.003 249.216C361.629 248.109 363.836 246.198 365.309 243.758C366.782 241.318 367.444 238.475 367.2 235.636C366.344 226.713 358.701 222.745 350.357 223.175C344.676 211.939 336.631 202.065 326.775 194.23C316.919 186.395 305.485 180.784 293.257 177.784C291.612 177.378 290.074 176.619 288.75 175.561C287.427 174.502 286.348 173.169 285.59 171.653C284.832 170.137 284.412 168.475 284.358 166.781C284.305 165.087 284.62 163.402 285.281 161.841C286.045 159.877 287.432 158.217 289.229 157.116C291.026 156.015 293.135 155.533 295.232 155.744V155.744ZM343.359 290.252L282.168 286.052C274.374 285.265 268.26 294.119 271.762 301.138C279.761 318.472 298.788 334.662 313.34 345.192C315.033 346.422 316.455 347.988 317.516 349.792C318.577 351.596 319.255 353.599 319.508 355.677C323.514 388.931 329.966 412.333 335.49 427.524C307.621 415.374 279.429 392.323 280.169 379.946C281.8 362.345 278.327 310.364 241.238 317.192L241.276 317.178C229.207 318.084 220.547 321.825 214.939 325.292C213.978 325.893 212.889 326.258 211.76 326.359C210.631 326.46 209.494 326.294 208.442 325.874C207.389 325.454 206.45 324.792 205.7 323.942C204.951 323.092 204.412 322.077 204.128 320.98L200.427 306.657C209.691 303.009 226.971 295.574 235.358 287.887C247.094 277.13 272.945 262.464 273.135 262.357C294.472 254.148 318.751 248.757 352.271 250.241C352.765 257.764 353.54 265.233 354.537 272.548C354.494 291.275 343.362 290.252 343.362 290.252L343.359 290.252ZM354.235 230.209C362.797 230.92 362.228 243.542 353.626 243.474C329.582 242.727 283.597 244.743 245.737 266.735C238.514 270.929 231.618 274.62 225.088 277.883C214.393 282.548 212.182 273.128 217.737 266.801L217.72 266.807C224.328 263.295 231.528 259.256 239.362 254.589C282.874 228.67 334.192 228.904 354.236 230.209H354.235ZM334.584 211.437C337.563 215.045 340.22 218.905 342.528 222.975C269.687 221.2 241.27 249.367 192.547 271.304C176.634 172.468 295.244 159.987 334.584 211.437ZM124.836 313.335C120.485 317.504 115.147 326.706 119.404 338.868C124.064 353.52 125.477 382.019 118.173 405.187C111.207 402.559 111.261 393.287 111.433 388.127V388.14C111.865 372.504 110.54 356.868 107.482 341.528C78.6042 203.482 196.514 86.2499 340.419 132.433L326.498 154.911C210.087 123.276 116.99 201.123 124.836 313.335V313.335Z" fill="#2F5373"/>
</svg>
