<svg xmlns="http://www.w3.org/2000/svg" version="1.1" xmlns:xlink="http://www.w3.org/1999/xlink" xmlns:svgjs="http://svgjs.com/svgjs" width="512" height="512" x="0" y="0" viewBox="0 0 500 500" style="enable-background:new 0 0 512 512" xml:space="preserve" class=""><g><linearGradient xmlns="http://www.w3.org/2000/svg" id="linear-gradient" gradientUnits="userSpaceOnUse" x1="265.575" x2="139.781" y1="114.465" y2="368.383"><stop offset="0" stop-color="#ef7554"></stop><stop offset="1" stop-color="#dd6049"></stop></linearGradient><linearGradient xmlns="http://www.w3.org/2000/svg" id="linear-gradient-2" gradientUnits="userSpaceOnUse" x1="315.428" x2="284.389" y1="181.669" y2="426.536"><stop offset="0" stop-color="#ffe0a6"></stop><stop offset="1" stop-color="#ffae85"></stop></linearGradient><linearGradient xmlns="http://www.w3.org/2000/svg" id="linear-gradient-3" x1="402.078" x2="276.283" xmlns:xlink="http://www.w3.org/1999/xlink" xlink:href="#linear-gradient" y1="182.09" y2="436.008"></linearGradient><linearGradient xmlns="http://www.w3.org/2000/svg" id="linear-gradient-4" gradientUnits="userSpaceOnUse" x1="320.445" x2="162.009" y1="17.926" y2="273.235"><stop offset="0" stop-color="#ea5a86"></stop><stop offset="1" stop-color="#e2436e"></stop></linearGradient><linearGradient xmlns="http://www.w3.org/2000/svg" id="linear-gradient-5" gradientUnits="userSpaceOnUse" x1="89.488" x2="92.386" y1="258.449" y2="404.796"><stop offset="0" stop-color="#b23d51"></stop><stop offset="1" stop-color="#7f2a39"></stop></linearGradient><linearGradient xmlns="http://www.w3.org/2000/svg" id="linear-gradient-6" x1="287.986" x2="196.78" xmlns:xlink="http://www.w3.org/1999/xlink" xlink:href="#linear-gradient-2" y1="82.624" y2="235.51"></linearGradient><linearGradient xmlns="http://www.w3.org/2000/svg" id="linear-gradient-7" x1="307.599" x2="181.804" xmlns:xlink="http://www.w3.org/1999/xlink" xlink:href="#linear-gradient" y1="135.284" y2="389.202"></linearGradient><linearGradient xmlns="http://www.w3.org/2000/svg" id="linear-gradient-8" x1="330.755" x2="204.96" xmlns:xlink="http://www.w3.org/1999/xlink" xlink:href="#linear-gradient" y1="146.755" y2="400.674"></linearGradient><linearGradient xmlns="http://www.w3.org/2000/svg" id="linear-gradient-9" x1="122.3" x2="96.262" xmlns:xlink="http://www.w3.org/1999/xlink" xlink:href="#linear-gradient" y1="234.672" y2="433.014"></linearGradient><path xmlns="http://www.w3.org/2000/svg" d="m148.091 202.491c28.014-21.92 47.142 7.333 35.049 30.726l123.889-53.311c-24.221-13.289-14.367-42.22 8.981-46.131 0 0-100.266-36.184-167.919 68.716z" fill="url(#linear-gradient)" data-original="url(#linear-gradient)"></path><path xmlns="http://www.w3.org/2000/svg" d="m283.887 169.965c-50.288-4.73-173.6 57.8-25.663 159.552 0 0 15.89.662 17.214 19.862l6.62 52.3s20.524 48.992 83.42 56.937a924.677 924.677 0 0 1 -19.862-108.578s-39.061-23.834-48.33-45.02l63.672 7.982s11.8 15.191 17.761 52.266c0 0 8.607 10.593 32.441 14.566 0 0-27.164-38.386-34.087-121.849-5.197-47.605-36.465-85.3-93.186-88.018z" fill="url(#linear-gradient-2)" data-original="url(#linear-gradient-2)"></path><path xmlns="http://www.w3.org/2000/svg" d="m376.055 473.237c-54.855-13.912-106.115-54.317-103.189-82.12.983-16.922-1.445-37.619-9.082-45.712a9.5 9.5 0 0 0 -7.3-3.253c-15.368 0-21.7 20.968-24.1 33.467a25.971 25.971 0 0 1 -16.414 19.36l-33.1 12.221a8 8 0 0 1 -5.543-15.009l33.1-12.222a9.881 9.881 0 0 0 6.243-7.37c5.759-29.952 19.9-46.447 39.81-46.447a25.51 25.51 0 0 1 18.939 8.272c14.654 15.528 13.975 48.028 13.418 57.619-1.127 16.917 35.016 45.574 71.424 59.482-6.7-16.2-15.431-43.963-20.554-86.49a20.552 20.552 0 0 0 -8.329-14.157c-15.693-11.355-36.182-28.753-44.668-47.14-2.627-5.265 1.947-11.927 7.812-11.333l67.53 4.634a8 8 0 1 1 -1.1 15.963l-51.692-3.548c9.429 11.62 22.917 22.256 31.494 28.462a36.606 36.606 0 0 1 14.834 25.2c8.4 69.744 26.862 97.285 27.048 97.555 3.733 5.029-.376 12.788-6.581 12.566z" fill="url(#linear-gradient-3)" data-original="url(#linear-gradient-3)"></path><path xmlns="http://www.w3.org/2000/svg" d="m375.075 48.91-8.428 10.282a2.2 2.2 0 0 1 -3.885-1.673l2.038-16.019a5.663 5.663 0 0 0 -4.095-6.177c-47.639-13.24-111.982-15.5-182.33 25.562a11.89 11.89 0 0 0 -5.623 12.95l2.52 10.856a2.2 2.2 0 0 1 -3.7 2.054l-8.52-8.52a7.74 7.74 0 0 0 -10.075-.74c-20.921 15.433-41.862 37.268-53.961 55.643a13.339 13.339 0 0 0 .909 15.938l13.083 15.534a2.2 2.2 0 0 1 -2.247 3.545l-12.572-3.327a2.2 2.2 0 0 0 -2.7 2.639l1.064 4.458a2.2 2.2 0 0 1 -2.68 2.644l-12.382-3.135a2.209 2.209 0 0 0 -2.608 1.356c-10.106 26.891-14.106 54.537-14.431 80.86 12.9 16.077 42.246 18.25 49.962-3.271 30.257-133.011 182.348-144.147 250.386-133.334 0 0 20.4-31.833 66.866-39.735a4.666 4.666 0 0 0 1.857-8.463 248.6 248.6 0 0 0 -43.915-23.531 12.55 12.55 0 0 0 -14.533 3.604z" fill="url(#linear-gradient-4)" data-original="url(#linear-gradient-4)"></path><path xmlns="http://www.w3.org/2000/svg" d="m64.452 253.638a305.2 305.2 0 0 0 1.277 31.5c3.045 52.782 38.846 91.086 32.873 149.459 0 0 21.776-45.694 11.995-115.792a180.878 180.878 0 0 1 3.822-68.433 63.837 63.837 0 0 1 -49.967 3.266z" fill="url(#linear-gradient-5)" data-original="url(#linear-gradient-5)"></path><path xmlns="http://www.w3.org/2000/svg" d="m345.344 148.447s-84.77-30.25-159.759 24c-22.678 16.406-37.081 37.542-46.14 59.046-11.378 22.95-29.128 33.636-40.445 24.307 37.984-150.291 180.013-169.268 265.8-138.765z" fill="url(#linear-gradient-6)" data-original="url(#linear-gradient-6)"></path><path xmlns="http://www.w3.org/2000/svg" d="m223.077 274.788c-42.084-22.166-18.627-76.236-2.254-88.018-104.938 64.685-15.59 159.087-36.75 209.615l38.4-15.889s-1.986-39.882 35.751-50.979c0 0 15.89.662 17.214 19.862l.994 7.855 7.688-7.628s-12.13-49.056-61.043-74.818z" fill="url(#linear-gradient-7)" data-original="url(#linear-gradient-7)"></path><path xmlns="http://www.w3.org/2000/svg" d="m159.228 297.318a8.2 8.2 0 0 1 6.1-9.589c11.738-2.844 37.348-11.4 80.315-37 48.974-29.177 106.582-28.876 128.907-27.423a11.077 11.077 0 0 1 -1.033 22.126c-23.384-.731-75.2.863-117.037 25.159-40.523 23.535-72.206 33.132-86.548 36.627a8.21 8.21 0 0 1 -10-6.371z" fill="url(#linear-gradient-8)" data-original="url(#linear-gradient-8)"></path><path xmlns="http://www.w3.org/2000/svg" d="m99.006 255.8c-11.984 52.241-.636 94.79-.636 94.79 13.042 66.838-7.335 108.029-7.335 108.029 40.754-27.277 33.418-96.619 27.713-112.919s6.284-25.282 6.284-25.282c-.917-18.211-.272-54.051 14.418-88.923-14.058 14.661-28.029 21.605-40.444 24.305z" fill="url(#linear-gradient-9)" data-original="url(#linear-gradient-9)"></path></g></svg>