<svg cache-id="a4a7985a874b4c9499286325d575ac0a" id="etXEYb8GA9H1" xmlns="http://www.w3.org/2000/svg" xmlns:xlink="http://www.w3.org/1999/xlink" viewBox="0 0 385 384" shape-rendering="geometricPrecision" text-rendering="geometricPrecision"><g id="etXEYb8GA9H2" transform="matrix(1 0 0 1 0.000001 0)"><path id="etXEYb8GA9H3" d="M177.99,228.614C177.99,224.314,177.94,220.224,178,216.134C178.06,212.084,180.27,209.574,183.63,209.584C187,209.584,189.18,212.084,189.22,216.154C189.27,222.024,189.29,227.894,189.21,233.764C189.15,237.914,187.1,239.884,182.94,240.004C181.19,240.054,179.41,240.214,177.7,239.974C174.04,239.454,173.16,241.134,173.41,244.434C173.56,246.434,174.04,247.384,176.21,247.374C187.32,247.314,198.44,247.274,209.55,247.394C212.7,247.424,212.43,245.554,212.48,243.474C212.54,241.324,212.27,239.784,209.52,239.984C207.16,240.154,204.77,240.094,202.41,239.984C198.92,239.824,196.82,237.814,196.75,234.304C196.63,227.934,196.63,221.564,196.75,215.194C196.81,211.894,199.12,209.694,202.13,209.594C205.27,209.494,207.77,211.764,207.89,215.214C208.04,219.564,207.93,223.914,207.93,228.104C208.39,228.404,208.59,228.654,208.78,228.644C222.38,228.414,225.35,238.344,223.21,249.124C222.08,254.804,217.24,258.474,211.22,258.544C199.11,258.674,186.99,258.694,174.88,258.544C167.4,258.454,162.37,253.134,162.24,245.604C162.21,244.234,162.21,242.854,162.24,241.484C162.42,234.164,167.36,229.144,174.74,228.764C175.71,228.714,176.68,228.674,177.99,228.614Z" fill="rgb(47,83,115)" stroke="none" stroke-width="1"/><path id="etXEYb8GA9H4" d="M155.44,218.274C141.66,218.174,130.62,206.894,130.69,192.994C130.76,179.254,142.16,167.994,155.89,168.084C169.62,168.174,180.92,179.554,180.9,193.264C180.88,207.194,169.49,218.384,155.44,218.274ZM155.52,207.024C163.19,207.114,169.43,201.164,169.64,193.554C169.85,185.934,163.47,179.374,155.8,179.334C148.25,179.294,141.99,185.504,141.94,193.084C141.88,200.764,147.89,206.924,155.52,207.024Z" fill="rgb(47,83,115)" stroke="none" stroke-width="1"/><path id="etXEYb8GA9H5" d="M230.03,218.274C216.26,218.214,205.01,206.904,205.05,193.154C205.09,179.454,216.47,168.104,230.17,168.084C244.08,168.064,255.35,179.474,255.26,193.474C255.16,207.274,243.91,218.334,230.03,218.274ZM230.01,207.024C237.7,207.094,243.89,201.114,244,193.494C244.12,185.704,237.89,179.324,230.18,179.334C222.67,179.344,216.35,185.624,216.3,193.134C216.24,200.684,222.43,206.954,230.01,207.024Z" fill="rgb(47,83,115)" stroke="none" stroke-width="1"/><path id="etXEYb8GA9H6" d="M193.13,290.944C190.59,293.704,188.92,295.724,187.03,297.534C184.34,300.104,180.94,300.144,178.7,297.834C176.47,295.524,176.6,292.224,179.24,289.514C181.06,287.644,183.1,285.974,185.97,283.374C183.37,281.244,181.1,279.664,179.17,277.744C176.5,275.084,176.49,271.754,178.82,269.474C181.21,267.134,184.31,267.204,187.11,269.944C188.97,271.754,190.56,273.854,192.98,276.644C194.98,274.274,196.31,272.484,197.85,270.904C201.42,267.264,204.57,266.864,207.21,269.574C209.74,272.164,209.22,275.384,205.67,278.964C204.26,280.384,202.81,281.744,200.97,283.534C202.82,285.454,204.57,287.264,206.31,289.084C209.27,292.184,209.59,295.574,207.14,297.964C204.72,300.334,201.33,299.994,198.28,296.914C196.62,295.224,195.18,293.334,193.13,290.944Z" fill="rgb(47,83,115)" stroke="none" stroke-width="1"/><path id="etXEYb8GA9H7" d="M103.89,152.634C103.97,155.894,101.6,158.324,98.35,158.314C93.8,158.304,89.5,154.954,89.51,151.424C89.52,148.464,91.96,145.994,94.94,145.894C99.34,145.744,103.81,149.114,103.89,152.634Z" fill="rgb(47,83,115)" stroke="none" stroke-width="1"/><path id="etXEYb8GA9H8" d="M287.55,158.314C284.31,158.304,281.95,155.844,282.05,152.594C282.15,149.164,286.23,145.984,290.66,145.884C293.8,145.814,296.43,148.364,296.42,151.454C296.41,154.994,292.08,158.334,287.55,158.314Z" fill="rgb(47,83,115)" stroke="none" stroke-width="1"/><path id="etXEYb8GA9H9" d="M296.42,232.504C296.42,235.614,293.8,238.154,290.66,238.074C286.23,237.964,282.15,234.774,282.05,231.354C281.95,228.114,284.33,225.654,287.56,225.644C292.1,225.624,296.42,228.964,296.42,232.504Z" fill="rgb(47,83,115)" stroke="none" stroke-width="1"/><path id="etXEYb8GA9H10" d="M98.42,225.634C101.65,225.664,104,228.144,103.88,231.394C103.75,234.804,99.63,237.994,95.23,238.074C92.09,238.134,89.48,235.564,89.51,232.454C89.55,228.924,93.91,225.594,98.42,225.634Z" fill="rgb(47,83,115)" stroke="none" stroke-width="1"/><path id="etXEYb8GA9H11" d="M152.55,88.5238C156.07,88.5938,159.4,93.0039,159.31,97.4839C159.25,100.704,156.75,103.034,153.5,102.894C150.1,102.744,146.92,98.5739,146.89,94.2039C146.86,91.0539,149.44,88.4638,152.55,88.5238Z" fill="rgb(47,83,115)" stroke="none" stroke-width="1"/><path id="etXEYb8GA9H12" d="M239.05,93.9939C239.17,98.4339,235.82,102.844,232.28,102.904C229.18,102.954,226.79,100.744,226.63,97.6939C226.41,93.3839,229.74,88.7339,233.18,88.5339C236.27,88.3439,238.97,90.8539,239.05,93.9939Z" fill="rgb(47,83,115)" stroke="none" stroke-width="1"/><path id="etXEYb8GA9H13" d="M161.43,193.194C161.44,196.164,159.01,198.664,156.01,198.764C152.83,198.864,150.22,196.364,150.22,193.214C150.22,190.214,152.62,187.694,155.6,187.594C158.69,187.484,161.41,190.104,161.43,193.194Z" fill="rgb(47,83,115)" stroke="none" stroke-width="1"/><path id="etXEYb8GA9H14" d="M230.23,187.584C233.36,187.634,235.87,190.314,235.74,193.464C235.62,196.484,233.14,198.814,230.1,198.764C226.95,198.714,224.38,196.034,224.54,192.944C224.7,189.984,227.29,187.544,230.23,187.584Z" fill="rgb(47,83,115)" stroke="none" stroke-width="1"/></g><g id="etXEYb8GA9H15" transform="matrix(1 0 0 1 0.000001 0.000001)"><path id="etXEYb8GA9H16" d="M34.1899,216.674C34.9399,217.144,35.3199,218.464,35.5599,219.474C37.0316,235.111,44.0899,269.31,60.5499,281.014C61.8773,282.921,62.7879,284.698,62.9815,286.554L67.9999,272.494L47.84,223.544L34.1899,216.674Z" fill="rgb(242,241,236)" stroke="none" stroke-width="1"/><path id="etXEYb8GA9H17" d="M211.32,13.5439C223.32,15.7539,235.29,18.2239,247.2,20.8939C256.625,20.25,273.23,26.875,275.84,32.7539C285.07,38.4539,294.44,44.0139,303.12,50.4739C306.139,52.7198,308.697,54.0794,311.761,54.1485L296.46,59.5439C293.43,60.5339,290.91,61.5539,288.29,62.1339L273.23,67.0939C257.99,57.4039,242.32,50.8639,224.62,46.9339L217.42,32.7939C217.91,33.5939,219.06,34.3039,220.01,34.4739C243.6,38.7039,265.24,47.5639,284.9,61.2939C285.81,61.9239,287.26,62.3639,288.29,62.1339C290.91,61.5539,293.43,60.5339,296.46,59.5439C295.25,58.5239,294.49,57.7239,293.59,57.1439C285.9,52.2639,278.22,47.3739,270.46,42.6039C257.875,40.875,246,35.875,243.75,31.5139L231.11,28.1039C225.5,26.8839,219.83,25.9839,213.25,24.7739L206.76,11.7347C207.343,12.4475,210.043,13.2378,211.32,13.5439Z" fill="rgb(242,241,236)" stroke="none" stroke-width="1"/><path id="etXEYb8GA9H18" d="M53.83,305.304C31.08,277.374,17.81,245.484,14.41,209.574C14.2838,208.268,14.2203,207.897,14.1119,206.704L25.95,212.394C29.19,214.034,32.8569,215.721,35.2569,217.211L47.84,223.544C48.77,227.174,49.43,229.804,50.11,232.434C51.19,236.654,49.85,239.784,46.58,240.664C43.2,241.584,40.37,239.704,39.3,235.504C37.95,230.184,36.85,224.804,35.56,219.474C35.32,218.464,35.503,219.107,35.2569,217.211C32.8569,215.721,29.19,214.034,25.95,212.394C29.89,243.654,41.25,270.904,60.42,295.644C61.07,293.714,61.33,292.374,61.94,291.224C62.8378,289.548,63.2501,286.465,63.6434,284.7C62.5071,283.382,61.8773,282.921,60.55,281.014C56.85,275.714,53.76,269.964,50.6,264.304C48.48,260.504,49.32,257.224,52.45,255.614C55.59,254.004,58.41,255.274,60.59,259.224C62.87,263.354,65.19,267.464,68,272.494L63.6434,284.7C63.2501,286.465,62.8378,289.548,61.94,291.224C61.33,292.374,61.07,293.714,60.42,295.644L56.1851,308.354C55.0297,306.88,55.0648,306.819,53.83,305.304Z" fill="rgb(47,83,115)" stroke="none" stroke-width="1"/><path id="etXEYb8GA9H19" d="M82.5999,333.424C109.85,354.854,140.82,367.274,175.38,370.544C176.658,370.668,176.767,370.737,178.276,370.934L172.53,359.034C141.35,355.024,114.08,343.714,89.2999,324.534L75.6464,328.836C78.7683,331.18,79.146,330.707,82.5999,333.424ZM99.6156,321.202L112.74,316.854C128.04,326.554,143.63,333.044,161.37,337.004L167.34,349.4C165.764,349.174,165.23,349.124,163.21,348.764C140.8,344.754,120.35,335.914,101.58,323.064C100.28,322.174,100.673,322.206,99.6156,321.202Z" clip-rule="evenodd" fill="rgb(47,83,115)" fill-rule="evenodd" stroke="none" stroke-width="1"/><path id="etXEYb8GA9H20" d="M210.61,370.554C246.43,367.154,278.29,353.984,306.1,331.214C307.537,330.039,307.369,330.288,309.014,329.038L296.69,324.534C271.88,343.674,244.65,355.084,213.4,358.994L207.424,371.172C208.517,370.983,209.187,370.687,210.61,370.554ZM218.155,349.776L224.51,337.084C242.33,332.974,258.09,326.594,273.14,316.844L286.931,321.364C285.437,322.336,285.9,321.974,284.93,322.654C265.26,336.324,243.65,345.264,220.07,349.454C219.19,349.614,218.965,349.646,218.155,349.776Z" clip-rule="evenodd" fill="rgb(47,83,115)" fill-rule="evenodd" stroke="none" stroke-width="1"/><path id="etXEYb8GA9H21" d="M371.46,211.094C371.54,211.954,371.37,212.834,371.26,213.704C366.85,248.264,353.78,279.114,331.56,305.994C329.96,307.924,331.334,306.343,329.664,308.742L325.52,295.684C344.68,270.874,356.07,243.644,359.99,212.434C357.54,213.634,355.83,214.644,354.01,215.324C352.631,215.844,351.077,216.881,350.456,217.885C350.289,219.252,350.284,219.38,350.07,220.554C345.92,243.474,337.12,264.494,323.82,283.634C323.12,284.634,323.119,284.817,322.401,285.98L317.87,272.214C327.53,256.974,334.05,241.354,338,223.614L350.456,217.885C351.077,216.881,352.631,215.844,354.01,215.324C355.83,214.644,357.54,213.634,359.99,212.434L372.326,206.596L372.522,206.503C371.87,209.333,371.815,209.599,371.46,211.094Z" fill="rgb(47,83,115)" stroke="none" stroke-width="1"/><path id="etXEYb8GA9H22" d="M332.02,78.5439C354.85,106.484,368.09,138.424,371.54,174.364C371.665,175.649,371.697,175.581,371.893,177.26L360.05,171.604C356,140.314,344.71,113.034,325.53,88.2939C324.48,91.4039,322.868,95.6509,322.328,98.1409C323.223,99.3961,322.99,99.0639,323.67,100.034C337.35,119.674,346.21,141.284,350.46,164.814C350.63,165.774,350.632,165.105,350.632,166.74L338.05,160.404C333.99,142.644,327.59,126.924,317.87,111.824L322.328,98.1409C322.868,95.6509,324.48,91.4039,325.53,88.2939L330.139,74.9441L330.144,74.929C331.046,76.551,331.391,77.219,332.02,78.5439Z" fill="rgb(47,83,115)" stroke="none" stroke-width="1"/><path id="etXEYb8GA9H23" d="M211.32,13.5439C223.32,15.7539,235.29,18.2239,247.2,20.8939C251.45,21.8439,253.15,24.9639,252.1,28.3039C251.08,31.5339,248.01,32.7039,243.75,31.5139C239.54,30.3439,235.37,29.0239,231.11,28.1039C225.5,26.8839,219.83,25.9839,213.25,24.7739C215,28.2039,216.819,32.0839,218.179,34.2839C220.01,34.4739,219.06,34.3039,220.01,34.4739C243.6,38.7039,265.24,47.5639,284.9,61.2939C285.81,61.9239,286.399,62.3029,286.84,62.6114C289.46,62.0314,294.031,60.2962,297.061,59.3062C295.851,58.2862,294.49,57.7239,293.59,57.1439C285.9,52.2639,278.22,47.3739,270.46,42.6039C266.66,40.2739,265.39,37.4339,267.11,34.3239C268.84,31.2039,272,30.3839,275.84,32.7539C285.07,38.4539,294.44,44.0139,303.12,50.4739C306.646,52.5645,307.507,53.1165,309.975,54.7783L297.061,59.3062C294.031,60.2962,289.46,62.0314,286.84,62.6114L273.23,67.0939C257.99,57.4039,242.32,50.8639,224.62,46.9339L218.179,34.2839C216.819,32.0839,215,28.2039,213.25,24.7739L207.488,13.1964C209.914,13.4067,209.423,13.19,211.32,13.5439Z" fill="rgb(47,83,115)" stroke="none" stroke-width="1"/><path id="etXEYb8GA9H24" d="M72.6599,54.1939C73.2233,54.4333,75.5786,55.1706,76.0802,55.2656L89.3199,59.4139C114.04,40.2239,141.32,28.9339,172.59,24.8939L178.198,13.0067C177.872,13.0469,176.588,13.3162,175.38,13.4339C139.47,16.8539,107.58,30.1039,79.65,52.8639C77.8287,54.3496,78.3185,53.7008,76.0802,55.2656L72.6599,54.1939ZM167.876,34.1218C166.298,34.3889,166.84,34.2939,165.79,34.4839C142.25,38.7439,120.65,47.6039,101.02,61.3039C100.05,61.9739,101.184,61.3207,99.2271,62.6479L112.83,67.0539C127.94,57.3639,143.67,50.9139,161.39,46.9239L167.876,34.1218Z" clip-rule="evenodd" fill="rgb(47,83,115)" fill-rule="evenodd" stroke="none" stroke-width="1"/><path id="etXEYb8GA9H25" d="M14.4,174.414C17.63,139.834,30.09,108.874,51.52,81.6339C52.7301,80.4377,53.0156,79.2344,56.2677,75.3399L60.07,88.7339C61.9806,91.586,63.7099,96.9669,63.5781,99.4379L63.6107,99.4379L68.07,111.754C58.41,127.024,51.8,142.664,47.99,160.344L47.84,160.42L35.9867,166.425C36.2746,162.47,36.2413,162.757,36.38,161.124C40.07,141.024,47.48,122.234,59,105.354C61.0709,102.315,62.1016,101.477,63.5781,99.4379C63.7099,96.9669,61.9806,91.586,60.07,88.7339C41.24,113.114,29.86,140.324,25.97,171.424L14.2073,177.505C14.4,174.414,14.2512,176.017,14.4,174.414Z" fill="rgb(47,83,115)" stroke="none" stroke-width="1"/><path id="etXEYb8GA9H26" d="M89.3199,59.4139L76.0802,55.2656C68.84,60.6247,61.4268,68.8803,56.2677,75.3399L60.07,88.7339C64.4266,83.3068,76.3759,69.845,89.3199,59.4139Z" fill="rgb(47,83,115)" stroke="none" stroke-width="1"/><path id="etXEYb8GA9H27" d="M112.83,67.0539L99.2271,62.6479C86.5097,72.437,72.2235,88.7106,63.6107,99.4379L68.07,111.754C81.31,89.557,103.427,72.7052,112.83,67.0539Z" fill="rgb(47,83,115)" stroke="none" stroke-width="1"/><path id="etXEYb8GA9H28" d="M213.25,24.7739L207.488,13.1964C199.457,12.548,186.814,11.9708,178.198,13.0067L172.59,24.8939C177.685,23.7439,192.95,22.1099,213.25,24.7739Z" fill="rgb(47,83,115)" stroke="none" stroke-width="1"/><path id="etXEYb8GA9H29" d="M224.62,46.9339L218.179,34.2839C206.393,33.1147,182.98,31.7505,167.876,34.1218L161.39,46.9239C186.502,40.963,214.007,44.4469,224.62,46.9339Z" fill="rgb(47,83,115)" stroke="none" stroke-width="1"/><path id="etXEYb8GA9H30" d="M317.87,111.824L322.328,98.1409C309.9,80.9174,294.654,68.1114,286.84,62.6114L273.23,67.0939C283.393,73.9452,306.55,92.4831,317.87,111.824Z" fill="rgb(47,83,115)" stroke="none" stroke-width="1"/><path id="etXEYb8GA9H31" d="M325.53,88.2939L330.139,74.9441C325.233,66.735,316.77,59.5142,309.975,54.7783L297.061,59.3062C307.038,65.7068,320.285,80.509,325.53,88.2939Z" fill="rgb(47,83,115)" stroke="none" stroke-width="1"/><path id="etXEYb8GA9H32" d="M338,223.614L350.456,217.885C351.52,208.032,351.866,181.866,350.632,166.74L338.05,160.404C339.783,174.512,342.2,206.905,338,223.614Z" fill="rgb(47,83,115)" stroke="none" stroke-width="1"/><path id="etXEYb8GA9H33" d="M359.99,212.434L372.326,206.596C373.557,197.491,372.745,184.917,371.893,177.26L360.05,171.604C360.943,181.487,362.182,203.49,359.99,212.434Z" fill="rgb(47,83,115)" stroke="none" stroke-width="1"/><path id="etXEYb8GA9H34" d="M273.14,316.844L286.931,321.364C295.757,315.481,312.202,302.199,322.401,285.98L317.87,272.214C302.966,297.285,281.84,312.413,273.14,316.844Z" fill="rgb(47,83,115)" stroke="none" stroke-width="1"/><path id="etXEYb8GA9H35" d="M296.69,324.534L309.014,329.038C314.816,324.54,323.776,316.719,329.664,308.742L325.52,295.684C320.402,302.14,307.471,316.95,296.69,324.534Z" fill="rgb(47,83,115)" stroke="none" stroke-width="1"/><path id="etXEYb8GA9H36" d="M161.37,337.004L167.34,349.4C182.474,351.487,203.878,351.996,218.155,349.776L224.51,337.084C209.777,341.356,176.278,338.811,161.37,337.004Z" fill="rgb(47,83,115)" stroke="none" stroke-width="1"/><path id="etXEYb8GA9H37" d="M172.53,359.034L178.276,370.934C189.553,372.357,199.438,372.474,207.424,371.172L213.4,358.994C202.375,361.25,183.874,360.941,172.53,359.034Z" fill="rgb(47,83,115)" stroke="none" stroke-width="1"/><path id="etXEYb8GA9H38" d="M68,272.494L63.6434,284.7C72.949,295.364,90.0062,312.058,99.6156,321.202L112.74,316.854C101.118,307.024,75.9,284.389,68,272.494Z" fill="rgb(47,83,115)" stroke="none" stroke-width="1"/><path id="etXEYb8GA9H39" d="M60.42,295.644L56.1851,308.354C61.0031,314.429,68.6164,323.145,75.6464,328.836L89.2999,324.534C81.5613,318.933,66.8222,302.94,60.42,295.644Z" fill="rgb(47,83,115)" stroke="none" stroke-width="1"/><path id="etXEYb8GA9H40" d="M14.1119,206.704L25.95,212.394C23.71,202.009,25.03,180.754,25.97,171.424L14.2073,177.505C13.7755,185.195,13.3775,197.863,14.1119,206.704Z" fill="rgb(47,83,115)" stroke="none" stroke-width="1"/><path id="etXEYb8GA9H41" d="M35.2569,217.211L47.84,223.544C44.412,210.479,46.4117,176.017,47.84,160.42L35.9867,166.425C34.9768,181.034,33.8803,204.908,35.2569,217.211Z" fill="rgb(47,83,115)" stroke="none" stroke-width="1"/></g><g id="etXEYb8GA9H42" transform="matrix(1 0 0 1 0.000001 0)"><path id="etXEYb8GA9H43" d="M11.95,191.454C29.6,182.424,47.25,173.404,65.45,164.094C61.55,182.814,61.49,201.014,65.49,219.864C47.34,210.604,29.75,201.624,12.17,192.654C12.1,192.254,12.02,191.854,11.95,191.454Z" fill="rgb(242,241,236)" stroke="none" stroke-width="1"/><path id="etXEYb8GA9H44" d="M69.4,330.644C61.96,333.334,54.36,328.034,53.72,320.274C53.5,317.654,54.22,314.794,55.18,312.294C55.5425,311.353,55.7192,310.516,55.7255,309.734L60.42,295.644C61.07,293.714,61.33,292.374,61.94,291.224C62.8379,289.548,63.1352,288.026,62.9816,286.554L68,272.494C69.66,267.364,70.64,263.054,72.44,259.114C74.193,255.268,74.8438,251.643,74.4033,247.967L83.08,262.494C93.61,278.354,106.32,291.314,122.56,301.854L135.25,309.734C127.94,311.814,120.74,314.274,112.74,316.854L96.5301,322.224C94.2901,322.544,92.14,323.584,89.3,324.534L72.44,329.846C71.4922,329.986,70.4866,330.249,69.4,330.644Z" fill="rgb(242,241,236)" stroke="none" stroke-width="1"/><path id="etXEYb8GA9H45" d="M195.97,383.974L189.97,383.974C185.17,382.074,181.99,378.584,180.22,373.814C179.826,372.746,179.272,372.018,178.56,371.521L172.53,359.034C171.5,356.914,170.73,355.634,170.24,354.254C169.709,352.754,168.978,351.628,168.007,350.784L161.37,337.004C159.38,333.074,157.5,330.094,156.32,326.854C154.851,322.823,152.904,319.355,150.228,316.664L165.16,319.664C169.43,320.354,173.11,320.964,176.79,321.524C178.393,321.767,179.81,321.668,180.984,321.264L204.088,321.264C205.285,321.71,206.75,321.843,208.42,321.614C212.36,321.074,216.27,320.394,220.77,319.684L235.23,316.114C231.75,322.804,228.35,329.544,224.51,337.084L217.65,350.784C216.2,353.204,215.02,355.784,213.4,358.994L207.15,371.73C206.569,372.215,206.105,372.885,205.76,373.814C203.95,378.564,200.859,381.922,195.97,383.974Z" fill="rgb(242,241,236)" stroke="none" stroke-width="1"/><path id="etXEYb8GA9H46" d="M330.61,311.724C331.46,314.554,332.46,317.604,332.19,320.444C331.4,328.764,323.52,333.114,314.87,330.324C313.155,329.77,311.641,329.31,310.1,329.435L296.69,324.534C293.56,323.484,291.16,322.474,288.67,321.934L273.14,316.844C269.12,315.534,265.55,314.754,262.33,313.244C257.267,310.87,252.303,309.762,247.382,310.663L263.48,301.854C279.49,291.334,292.32,278.464,302.86,262.464L310.77,250.144C312.96,257.314,315.34,264.424,317.87,272.214L322.85,287.344C323.39,289.954,324.45,292.464,325.52,295.684L330.61,311.724Z" fill="rgb(242,241,236)" stroke="none" stroke-width="1"/><path id="etXEYb8GA9H47" d="M374.8,179.214C379.57,180.994,383.07,184.164,384.97,188.974L384.97,194.974C383.17,199.114,380.51,202.484,376.14,204.064C374.529,204.644,373.315,205.438,372.521,206.503L359.99,212.434C357.54,213.634,355.83,214.644,354.01,215.324C352.631,215.844,351.719,216.586,351.097,217.59L338,223.614C334.41,225.414,331.75,227.144,328.84,228.114C322.775,230.151,318.154,233.454,315.046,238.158L320.5,219.854C324.37,201.134,324.49,182.934,320.44,164.084L317.13,149.734C323.82,153.204,330.55,156.594,338.05,160.404L352.05,167.454C354.34,168.874,356.84,169.974,360.05,171.604L372.521,177.56C373.016,178.266,373.739,178.818,374.8,179.214Z" fill="rgb(242,241,236)" stroke="none" stroke-width="1"/><path id="etXEYb8GA9H48" d="M288.29,62.1339C290.91,61.5539,293.43,60.5339,296.46,59.5439L311.761,54.1485C313.253,54.1822,314.866,53.9095,316.71,53.2839C325.99,50.1439,334.28,58.7839,331.85,68.3139C331.54,69.5239,331.33,70.7939,330.77,71.8839C330.193,73.0083,330.016,73.9953,330.144,74.929L325.53,88.2939C324.48,91.4039,323.47,93.8039,322.93,96.2939L317.87,111.824C316.59,115.684,315.84,118.984,314.42,121.974C312.039,127.001,310.891,131.942,311.565,136.832L302.83,121.564C292.27,105.514,279.38,92.6839,263.43,82.1139L251.15,74.2139C258.3,71.9539,265.43,69.6239,273.23,67.0939L288.29,62.1339Z" fill="rgb(242,241,236)" stroke="none" stroke-width="1"/><path id="etXEYb8GA9H49" d="M54.3099,68.4439C51.4799,60.6139,57.6399,52.6139,65.7899,52.6539C68.0899,52.6639,70.5299,53.2839,72.6599,54.1939L74.2522,54.6929L89.3199,59.4139C92.3999,60.4539,94.7799,61.4739,97.2699,62.0139L112.83,67.0539C116.46,68.2839,119.65,68.9739,122.47,70.3739C129.581,73.9175,136.497,74.4509,143.317,71.8426L148.19,69.4339C146.57,70.4173,144.947,71.2195,143.317,71.8426L122.56,82.1039C106.64,92.6339,93.7299,105.434,83.1299,121.554L74.9199,132.754C72.8499,125.964,70.5399,119.244,68.0699,111.754L62.5865,96.6096C62.7183,94.1386,61.9805,91.586,60.0699,88.7339L54.9878,70.8321L54.3099,68.4439Z" fill="rgb(242,241,236)" stroke="none" stroke-width="1"/><path id="etXEYb8GA9H50" d="M192.33,11.1239C192.77,11.1339,193.2,11.1539,193.64,11.1639C202.62,28.7439,211.59,46.3339,220.84,64.4839C202.03,60.5239,183.83,60.5339,165.09,64.4739C174.36,46.3239,183.34,28.7239,192.33,11.1239Z" fill="rgb(242,241,236)" stroke="none" stroke-width="1"/><path id="etXEYb8GA9H51" d="M293.822,60.4415C291.889,61.1132,290.114,61.7301,288.29,62.1339L273.23,67.0939C271.771,67.5672,270.335,68.0335,268.918,68.4936C262.762,70.4932,256.963,72.3766,251.15,74.2139L263.43,82.1139C273.004,79.0082,282.414,75.9584,291.741,72.9358C301.334,69.8268,310.838,66.7466,320.34,63.6639L321.28,64.6339C317.302,76.9215,313.32,89.2048,309.274,101.684C307.147,108.247,305.001,114.864,302.83,121.564L311.565,136.832C310.891,131.942,312.039,127.001,314.42,121.974C315.384,119.944,316.039,117.771,316.761,115.377C317.103,114.245,317.459,113.063,317.87,111.824L322.93,96.2939C323.309,94.5488,323.918,92.8479,324.61,90.9159C324.905,90.0911,325.216,89.2243,325.53,88.2939L330.144,74.929C330.016,73.9953,330.193,73.0083,330.77,71.8839C331.204,71.0395,331.428,70.0872,331.651,69.1383C331.715,68.8623,331.78,68.5866,331.85,68.3139C334.28,58.7839,325.99,50.1439,316.71,53.2839C314.866,53.9095,313.253,54.1822,311.761,54.1485L296.46,59.5439C295.539,59.8447,294.666,60.1483,293.822,60.4415Z" clip-rule="evenodd" fill="rgb(47,83,115)" fill-rule="evenodd" stroke="none" stroke-width="1"/><path id="etXEYb8GA9H52" d="M384.97,188.974C383.07,184.164,379.57,180.994,374.8,179.214C373.739,178.818,373.016,178.266,372.521,177.56L360.05,171.604C359.086,171.114,358.186,170.673,357.337,170.256C355.357,169.284,353.652,168.448,352.05,167.454L338.05,160.404C336.344,159.537,334.677,158.692,333.042,157.863C327.49,155.047,322.298,152.415,317.13,149.734L320.44,164.084C338.608,173.358,356.177,182.322,373.746,191.286L373.771,191.3L373.78,191.304C373.8,191.73,373.82,192.167,373.839,192.603L373.84,192.614C366.603,196.311,359.365,200.006,352.09,203.72C341.674,209.038,331.18,214.396,320.5,219.854L315.046,238.158C318.154,233.454,322.775,230.151,328.84,228.114C330.801,227.46,332.649,226.461,334.745,225.328C335.759,224.78,336.83,224.201,338,223.614L351.097,217.59C351.719,216.586,352.631,215.844,354.01,215.324C355.227,214.869,356.395,214.267,357.767,213.559C358.447,213.208,359.178,212.832,359.99,212.434L372.521,206.503C373.315,205.438,374.529,204.644,376.14,204.064C380.51,202.484,383.17,199.114,384.97,194.974L384.97,188.974Z" clip-rule="evenodd" fill="rgb(47,83,115)" fill-rule="evenodd" stroke="none" stroke-width="1"/><path id="etXEYb8GA9H53" d="M330.777,312.276C330.721,312.091,330.665,311.907,330.61,311.724L325.52,295.684C325.195,294.706,324.871,293.794,324.563,292.925C323.854,290.931,323.226,289.162,322.85,287.344L317.87,272.214C317.22,270.213,316.58,268.257,315.951,266.333C314.13,260.767,312.398,255.472,310.77,250.144L302.86,262.464C309.14,281.864,315.21,300.594,321.29,319.324C321.02,319.654,320.761,319.983,320.501,320.313L320.5,320.314C314.144,318.256,307.787,316.198,301.403,314.132C288.926,310.093,276.347,306.022,263.48,301.854L247.382,310.663C252.303,309.762,257.267,310.87,262.33,313.244C264.509,314.266,266.849,314.953,269.38,315.697C270.588,316.052,271.841,316.42,273.14,316.844L288.67,321.934C290.4,322.309,292.087,322.911,294.005,323.596C294.847,323.897,295.735,324.213,296.69,324.534L310.1,329.435C311.641,329.31,313.155,329.77,314.87,330.324C323.52,333.114,331.4,328.764,332.19,320.444C332.443,317.788,331.584,314.948,330.777,312.276Z" clip-rule="evenodd" fill="rgb(47,83,115)" fill-rule="evenodd" stroke="none" stroke-width="1"/><path id="etXEYb8GA9H54" d="M189.97,383.974L195.97,383.974C200.859,381.922,203.95,378.564,205.76,373.814C206.105,372.885,206.569,372.215,207.15,371.73L213.4,358.994C213.837,358.128,214.242,357.308,214.629,356.525C215.676,354.404,216.591,352.551,217.65,350.784L224.51,337.084C225.435,335.269,226.334,333.5,227.214,331.766C229.992,326.301,232.588,321.193,235.23,316.114L220.77,319.684C214.453,332.05,208.24,344.222,202.056,356.337C199.244,361.847,196.438,367.345,193.63,372.844C193.22,372.884,192.41,372.984,192.41,372.984C192.41,372.984,174.39,337.724,165.16,319.664L150.228,316.664C152.904,319.355,154.851,322.823,156.32,326.854C157.118,329.045,158.236,331.116,159.491,333.443C160.093,334.558,160.726,335.731,161.37,337.004L168.007,350.784C168.978,351.628,169.709,352.754,170.24,354.254C170.563,355.164,171.008,356.03,171.569,357.122C171.858,357.687,172.179,358.312,172.53,359.034L178.56,371.521C179.272,372.018,179.826,372.746,180.22,373.814C181.99,378.584,185.17,382.074,189.97,383.974Z" clip-rule="evenodd" fill="rgb(47,83,115)" fill-rule="evenodd" stroke="none" stroke-width="1"/><path id="etXEYb8GA9H55" d="M53.72,320.274C54.36,328.034,61.96,333.334,69.4,330.644C70.4866,330.249,71.4922,329.986,72.44,329.846L89.3,324.534C90.1963,324.234,91.0238,323.925,91.8071,323.633C93.506,322.999,94.9969,322.443,96.5301,322.224L112.74,316.854C114.772,316.199,116.752,315.551,118.696,314.916C124.404,313.049,129.797,311.286,135.25,309.734L122.56,301.854C112.986,304.952,103.59,307.995,94.2856,311.008C84.6387,314.132,75.0893,317.224,65.54,320.314C65.39,320.164,65.2401,320.016,65.0901,319.869C64.9401,319.721,64.7901,319.574,64.64,319.424L83.08,262.494L74.4033,247.967C74.8438,251.643,74.193,255.268,72.44,259.114C71.2156,261.794,70.3706,264.645,69.4329,267.81C68.9921,269.297,68.5308,270.854,68,272.494L62.9816,286.554C63.1352,288.026,62.8379,289.548,61.94,291.224C61.5402,291.978,61.2907,292.813,60.9832,293.843C60.8216,294.384,60.644,294.979,60.42,295.644L55.7255,309.734C55.7192,310.516,55.5425,311.353,55.18,312.294C54.22,314.794,53.5,317.654,53.72,320.274Z" clip-rule="evenodd" fill="rgb(47,83,115)" fill-rule="evenodd" stroke="none" stroke-width="1"/><path id="etXEYb8GA9H56" d="M65.7899,52.6539C57.6399,52.6139,51.4799,60.6139,54.3099,68.4439L54.9878,70.8321L60.0699,88.7339C61.9805,91.586,62.7183,94.1386,62.5865,96.6096L68.0699,111.754C68.7327,113.764,69.3839,115.718,70.0221,117.633C71.7623,122.855,73.4053,127.786,74.9199,132.754L83.1299,121.554L64.6799,64.6939C64.8299,64.5189,64.9774,64.3439,65.125,64.1688C65.2724,63.9938,65.4199,63.8189,65.5699,63.6439L65.7082,63.6887L65.7116,63.6898C84.4244,69.7545,103.139,75.8198,122.56,82.1039L143.317,71.8426C144.947,71.2195,146.57,70.4173,148.19,69.4339L143.317,71.8426C136.497,74.4509,129.581,73.9175,122.47,70.3739C120.584,69.4379,118.534,68.8193,116.297,68.1444C115.188,67.8099,114.033,67.4616,112.83,67.0539L97.2699,62.0139C95.5501,61.641,93.8827,61.039,92.001,60.3596C91.1583,60.0554,90.2726,59.7356,89.3199,59.4139L74.2522,54.6929L72.6599,54.1939C70.5299,53.2839,68.0899,52.6639,65.7899,52.6539Z" clip-rule="evenodd" fill="rgb(47,83,115)" fill-rule="evenodd" stroke="none" stroke-width="1"/><path id="etXEYb8GA9H57" d="M0.969971,194.994C2.85997,199.804,6.37,202.954,11.13,204.744C12.1726,205.132,12.8954,205.669,13.3958,206.36L25.95,212.394C29.19,214.034,31.79,215.184,34.19,216.674L47.84,223.544L63.47,231.354C64.9878,232,66.2415,232.789,67.3191,233.724L65.49,219.864C47.34,210.604,29.75,201.624,12.17,192.654C12.1,192.254,12.02,191.854,11.95,191.454C29.6,182.424,47.25,173.404,65.45,164.094L69.9593,147.584L60.43,154.144C56.4,155.744,52.64,157.994,47.99,160.344L33.107,167.884C32.2026,168.669,31.0777,169.286,29.67,169.744C28.64,170.074,27.68,170.634,25.97,171.424L12.9192,178.171C12.4649,178.606,11.8807,178.962,11.13,179.244C6.37,181.024,2.85997,184.184,0.969971,188.994L0.969971,194.994Z" fill="rgb(47,83,115)" stroke="none" stroke-width="1"/><path id="etXEYb8GA9H58" d="M189.98,0.003906C185.17,1.89391,182,5.40388,180.22,10.1639L178.415,12.5472L172.59,24.8939L168.64,32.6139L161.39,46.9239C157.63,54.3339,154.31,61.0039,150.83,67.5839L165.09,64.4739C174.36,46.3239,183.34,28.7239,192.33,11.1239C192.77,11.1339,193.2,11.1539,193.64,11.1639C202.62,28.7439,211.59,46.3339,220.84,64.4839L235.792,67.2001C232.773,64.2386,230.551,60.4233,229,55.8539L224.62,46.9339L217.42,32.7939L213.25,24.7739L206.76,11.7347C206.201,11.1957,205.746,10.4806,205.4,9.50391C203.78,4.91391,200.46,1.84391,195.98,0.003906L189.98,0.003906Z" fill="rgb(47,83,115)" stroke="none" stroke-width="1"/></g><g id="etXEYb8GA9H59"><path id="etXEYb8GA9H60" d="M216.709,320.337C218.017,320.124,219.365,319.906,220.77,319.684L235.23,316.114C235.504,315.594,236.219,315.257,236.836,314.966L236.923,314.925L237.01,314.884C237.386,314.702,237.793,314.57,238.198,314.439C238.753,314.259,239.306,314.08,239.78,313.774C242.308,312.132,244.839,311.129,247.382,310.663L240.52,301.434C240.002,298.666,239.503,295.957,239.012,293.29L239.006,293.258L238.996,293.203L238.992,293.185L238.991,293.176C237.876,287.126,236.801,281.29,235.64,275.464C235,272.204,235.91,270.054,238.77,268.254C241.965,266.235,245.045,264.035,248.084,261.864C249.334,260.971,250.578,260.083,251.82,259.214L260.69,250.994C261.979,248.858,263.313,246.724,264.655,244.578C267.748,239.633,270.878,234.628,273.57,229.404C278.18,220.464,280.63,210.744,281.49,200.694C281.549,200.028,281.617,199.435,281.795,198.951L281.68,184.144C279.96,164.854,272.54,148.004,260.24,133.564L251.65,124.944C241.56,116.334,230.18,109.724,217.15,106.364C214.231,105.607,211.248,105.103,208.265,104.598C205.964,104.208,203.663,103.819,201.39,103.314L185.2,103.214C165.92,105.014,149.1,112.464,134.7,124.734L125.85,133.564C117.33,143.504,110.75,154.884,107.36,167.884C106.574,170.892,106.053,173.964,105.532,177.036C105.157,179.244,104.782,181.451,104.31,183.634C104.218,184.059,103.965,184.585,103.646,185.055L104.44,200.294C106.12,218.754,113.11,235.024,124.88,249.284C125.164,249.626,125.415,249.999,125.639,250.331C125.723,250.456,125.804,250.575,125.88,250.684L134.3,259.384C135.551,260.248,136.838,261.113,138.142,261.989L138.144,261.99L138.146,261.991C141.532,264.266,145.033,266.617,148.31,269.244C149.62,270.294,150.51,272.964,150.25,274.694C149.266,281.199,148.044,287.666,146.777,294.367L146.777,294.369L146.776,294.375L146.774,294.381L146.774,294.384C146.342,296.67,145.904,298.983,145.47,301.334L139.74,311.124C144.134,312.05,147.546,313.967,150.227,316.664L165.16,319.664C169.054,320.556,177.671,322.124,180.984,321.264C181.918,320.922,183.94,319.589,184.55,316.994C185.14,313.654,182.81,311.174,178.56,310.374C173.092,309.336,167.636,308.25,162.075,307.143C160.078,306.746,158.068,306.345,156.04,305.944C156.617,302.871,157.166,299.875,157.705,296.933L157.705,296.931C158.848,290.693,159.947,284.7,161.17,278.734C162.83,270.584,161.11,263.934,153.85,259.124C152.89,258.484,152.25,256.704,152.21,255.424C152.111,252.17,152.124,248.913,152.136,245.656C152.145,243.288,152.154,240.92,152.12,238.554C151.97,228.014,145.79,221.894,135.23,221.764C133.274,221.738,131.318,221.744,129.362,221.751L129.36,221.751C127.567,221.757,125.773,221.763,123.98,221.744C120.814,221.714,120.81,221.684,120.302,217.678L120.3,217.664C120.85,217.664,121.395,217.673,121.936,217.681C123.127,217.701,124.301,217.719,125.47,217.644C128.84,217.434,130.97,215.334,131.06,212.284C131.15,209.284,129.07,206.834,125.79,206.564C123.763,206.399,121.714,206.437,119.559,206.477L119.558,206.477C118.576,206.495,117.573,206.514,116.54,206.514C116.292,204.507,116.058,202.662,115.826,200.828C115.711,199.92,115.596,199.014,115.48,198.094C116.798,197.754,118.312,197.721,119.81,197.688C123.779,197.6,127.64,197.515,127.48,191.744C127.328,186.388,123.64,186.386,119.801,186.384C118.337,186.383,116.85,186.382,115.53,186.084C115.83,183.354,116.12,180.694,116.46,177.554C117.369,177.554,118.26,177.563,119.139,177.572C121.055,177.591,122.912,177.609,124.77,177.534C128.77,177.374,131.21,175.014,131.06,171.624C130.91,168.364,128.61,166.444,124.63,166.324C123.688,166.289,122.741,166.298,121.796,166.306C121.377,166.31,120.958,166.314,120.54,166.314C120.56,160.474,122.12,158.864,127.51,158.864C130.426,158.864,133.343,158.871,136.261,158.878C143.717,158.896,151.176,158.915,158.63,158.814C162.29,158.764,165.11,159.964,167.6,162.584C171.3,166.484,175.13,170.254,178.99,173.994C187.19,181.934,198.66,181.964,206.88,174.064C208.381,172.622,209.832,171.124,211.282,169.626C213.752,167.075,216.22,164.526,218.93,162.264C221.04,160.494,224.14,159.104,226.84,159.004C234.387,158.734,241.949,158.778,249.509,158.821C252.327,158.838,255.144,158.854,257.96,158.854C264.19,158.854,264.81,159.414,265.8,166.324C265.257,166.324,264.72,166.317,264.187,166.311C262.981,166.296,261.796,166.281,260.61,166.344C257.17,166.534,255.04,168.514,254.88,171.564C254.71,174.724,256.87,177.214,260.36,177.464C262.304,177.607,264.258,177.574,266.341,177.538C267.312,177.521,268.311,177.504,269.35,177.504C269.75,180.374,270.12,183.024,270.6,186.434C269.797,186.434,269.039,186.423,268.311,186.413C266.799,186.392,265.417,186.373,264.04,186.454C260.44,186.654,258.22,188.854,258.24,192.024C258.25,195.014,260.34,197.234,263.72,197.544C265.114,197.665,266.526,197.637,268.091,197.605C268.849,197.59,269.644,197.574,270.49,197.574C270.333,198.862,270.186,200.061,270.043,201.227C269.83,202.968,269.625,204.638,269.41,206.434C268.448,206.434,267.513,206.423,266.598,206.412C264.66,206.388,262.808,206.366,260.96,206.454C257.16,206.634,254.83,208.914,254.88,212.184C254.93,215.474,257.23,217.504,261.14,217.644C262.151,217.678,263.163,217.67,264.207,217.662C264.68,217.658,265.16,217.654,265.65,217.654C265.83,220.674,264.8,221.864,262.01,221.764C257.89,221.614,253.76,221.644,249.64,221.764C240.38,222.034,234.2,228.064,233.87,237.344C233.763,240.255,233.779,243.171,233.795,246.087C233.812,249.171,233.828,252.255,233.7,255.334C233.64,256.774,232.67,258.634,231.51,259.484C225.82,263.664,223.21,269.074,224.41,276.044C225.476,282.223,226.639,288.389,227.802,294.553L227.802,294.555C228.351,297.468,228.901,300.38,229.44,303.294C229.509,303.668,229.546,304.046,229.606,304.65C229.642,305.013,229.686,305.458,229.75,306.034C227.09,306.547,224.471,307.066,221.877,307.579C216.894,308.565,212.003,309.533,207.09,310.414C202.76,311.174,200.31,313.334,200.63,316.664C200.848,318.912,202.097,320.521,204.088,321.264C205.285,321.71,206.749,321.843,208.42,321.614C211.13,321.242,213.825,320.805,216.709,320.337ZM235.65,127.394C211.12,109.424,172.36,110.534,151.06,127.394L235.65,127.394ZM256.37,147.584C253.09,141.274,249.24,138.424,242.03,138.534C217.764,138.893,193.492,138.838,169.219,138.784C160.393,138.764,151.566,138.744,142.74,138.744C135.9,138.744,133.08,140.664,130.15,147.584L133.91,147.584C136.421,147.584,138.933,147.595,141.444,147.605C147.302,147.631,153.158,147.656,159.01,147.544C165.41,147.424,170.68,149.594,175.09,154.184C178.094,157.306,181.177,160.35,184.26,163.394C184.82,163.947,185.38,164.5,185.94,165.054C190.77,169.834,195.09,169.874,199.88,165.174C200.657,164.408,201.438,163.645,202.219,162.882L202.22,162.88C204.925,160.237,207.63,157.594,210.19,154.824C215,149.624,220.78,147.334,227.89,147.524C234.362,147.704,240.834,147.663,247.47,147.621C250.4,147.603,253.362,147.584,256.37,147.584ZM126.84,233.724C129.051,236.353,131.185,238.883,133.346,241.446C135.631,244.157,137.948,246.904,140.42,249.844C141.602,232.78,141.343,232.785,131.195,232.997C130.353,233.014,129.443,233.033,128.46,233.044C128.324,233.05,128.191,233.112,127.863,233.265C127.637,233.371,127.318,233.52,126.84,233.724ZM255.659,233.071C256.837,233.097,258.102,233.124,259.49,233.124C257.057,236.055,254.794,238.782,252.617,241.408C250.418,244.059,248.305,246.607,246.19,249.154C246.045,249.079,245.897,249.006,245.75,248.934C245.602,248.861,245.455,248.789,245.31,248.714C245.31,247.574,245.293,246.434,245.275,245.294C245.23,242.273,245.184,239.255,245.46,236.264C245.57,235.124,247.41,233.434,248.63,233.264C250.792,232.966,253.002,233.014,255.659,233.071Z" clip-rule="evenodd" fill="rgb(47,83,115)" fill-rule="evenodd" stroke="none" stroke-width="1"/><path id="etXEYb8GA9H61" d="M103.646,185.055L104.44,200.294C104.24,198.124,103.31,197.594,101.36,197.624C97.8605,197.68,94.3609,197.667,90.8613,197.655C89.3609,197.649,87.8605,197.644,86.3601,197.644L73.8201,197.644C75.6301,226.444,85.7801,251.044,104.48,271.984C108.394,268.086,112.206,264.293,115.98,260.537L116.014,260.503C119.317,257.217,122.591,253.959,125.88,250.684L134.3,259.384C130.82,262.863,127.334,266.348,123.827,269.852C120.279,273.397,116.711,276.963,113.11,280.564C122.49,289.084,133.13,296.054,145.47,301.334L139.74,311.124C139.129,310.994,138.498,310.694,137.88,310.401C136.931,309.951,136.013,309.516,135.25,309.734L122.56,301.854C106.32,291.314,93.6101,278.354,83.0801,262.494L74.4034,247.967C74.105,245.477,73.3062,242.964,72.0101,240.344C70.6772,237.639,69.2942,235.437,67.3191,233.724L65.4901,219.864C61.4901,201.014,61.5501,182.814,65.4501,164.094L69.9593,147.584C71.3917,145.73,72.4338,143.506,72.9901,140.794C73.1305,140.112,73.4604,139.469,73.7911,138.824C74.0961,138.229,74.4017,137.632,74.5601,137.004C74.9101,135.634,75.3101,134.024,74.9201,132.754L83.1301,121.554C93.7301,105.434,106.64,92.6339,122.56,82.1039L148.19,69.4339C148.43,69.2895,148.692,69.1524,148.956,69.0141C149.716,68.6159,150.496,68.2073,150.83,67.5838L165.09,64.4739C183.83,60.5339,202.03,60.5239,220.84,64.4839L235.792,67.2001C238.864,70.2142,242.763,72.3439,247.62,73.4839C247.851,73.538,248.07,73.6599,248.289,73.7817C248.515,73.9074,248.741,74.033,248.98,74.0838C249.021,74.0919,249.062,74.1001,249.103,74.1084L249.185,74.1251C249.843,74.2582,250.562,74.4038,251.15,74.2138L263.43,82.1139C279.38,92.6839,292.27,105.514,302.83,121.564L311.565,136.832C311.983,139.869,313.105,142.886,315.07,145.894C315.291,146.231,315.412,146.63,315.533,147.031C315.63,147.354,315.728,147.679,315.88,147.974C315.922,148.055,315.965,148.14,316.008,148.226C316.303,148.815,316.633,149.472,317.13,149.734L320.44,164.084C324.49,182.934,324.37,201.134,320.5,219.854L315.046,238.158C313.378,240.683,312.146,243.611,311.36,246.964C311.289,247.267,311.187,247.582,311.085,247.899C310.829,248.691,310.57,249.494,310.77,250.144L302.86,262.464C292.32,278.464,279.49,291.334,263.48,301.854L247.382,310.663C244.839,311.129,242.308,312.132,239.78,313.774C239.307,314.08,238.753,314.259,238.199,314.439C237.793,314.57,237.386,314.702,237.01,314.884C236.953,314.911,236.895,314.938,236.837,314.966C236.22,315.257,235.504,315.594,235.23,316.114L229.75,306.034L240.52,301.434C252.84,295.974,263.63,289.144,273,280.424C265.72,273.134,258.77,266.174,251.82,259.214L260.69,250.994C267.36,257.654,274.4,264.684,281.63,271.904C300.21,250.974,310.35,226.394,312.08,198.134C311.826,198.066,311.604,197.992,311.402,197.924C311.041,197.803,310.745,197.704,310.45,197.704C307.388,197.693,304.326,197.691,301.263,197.69C295.576,197.686,289.888,197.682,284.2,197.624C282.733,197.611,282.102,198.118,281.795,198.951L281.68,184.144C281.75,184.954,283.11,186.274,283.89,186.284C291.249,186.404,298.614,186.396,306.265,186.388L306.268,186.388L306.278,186.388C308.209,186.386,310.158,186.384,312.13,186.384C310.33,157.614,300.11,133.044,281.59,112.234C274.532,119.292,267.619,126.195,260.604,133.201L260.24,133.564L251.65,124.944C258.71,117.814,265.66,110.824,272.92,103.524C251.82,84.8538,227.33,74.5538,199.19,72.9038C199.1,73.1347,199.01,73.3265,198.931,73.4933C198.792,73.7891,198.69,74.0065,198.69,74.2239C198.684,75.6112,198.676,76.9983,198.669,78.3853C198.629,85.8657,198.588,93.3413,198.74,100.824C198.76,101.704,200.33,103.084,201.39,103.314L185.2,103.214C186,103.144,187.22,101.244,187.24,100.174C187.4,93.8445,187.37,87.5151,187.341,81.1857C187.337,80.3951,187.333,79.6045,187.33,78.8139C187.323,77.5136,187.254,76.2177,187.182,74.8722C187.146,74.2102,187.11,73.5363,187.08,72.8438C158.58,74.6338,134.12,84.8539,113.3,103.294C120.55,110.554,127.57,117.584,134.7,124.734L125.85,133.564L123.912,131.612L123.885,131.585C117.413,125.068,111.046,118.656,104.67,112.244C88.3401,127.134,72.3301,165.724,74.2501,186.384C76.1044,186.384,77.9611,186.386,79.8196,186.389C87.2619,186.398,94.7324,186.408,102.19,186.264C102.627,186.258,103.201,185.712,103.646,185.055Z" clip-rule="evenodd" fill="rgb(47,83,115)" fill-rule="evenodd" stroke="none" stroke-width="1"/></g><script><![CDATA[!function(t,n){"object"==typeof exports&&"undefined"!=typeof module?module.exports=n(require("vue")):"function"==typeof define&&define.amd?define(["vue"],n):((t="undefined"!=typeof globalThis?globalThis:t||self).__SVGATOR_PLAYER__=t.__SVGATOR_PLAYER__||{},t.__SVGATOR_PLAYER__["91c80d77"]=n())}(this,(function(){"use strict";function t(t,n){var e=Object.keys(t);if(Object.getOwnPropertySymbols){var r=Object.getOwnPropertySymbols(t);n&&(r=r.filter((function(n){return Object.getOwnPropertyDescriptor(t,n).enumerable}))),e.push.apply(e,r)}return e}function n(n){for(var e=1;e<arguments.length;e++){var r=null!=arguments[e]?arguments[e]:{};e%2?t(Object(r),!0).forEach((function(t){o(n,t,r[t])})):Object.getOwnPropertyDescriptors?Object.defineProperties(n,Object.getOwnPropertyDescriptors(r)):t(Object(r)).forEach((function(t){Object.defineProperty(n,t,Object.getOwnPropertyDescriptor(r,t))}))}return n}function e(t){return(e="function"==typeof Symbol&&"symbol"==typeof Symbol.iterator?function(t){return typeof t}:function(t){return t&&"function"==typeof Symbol&&t.constructor===Symbol&&t!==Symbol.prototype?"symbol":typeof t})(t)}function r(t,n){if(!(t instanceof n))throw new TypeError("Cannot call a class as a function")}function i(t,n){for(var e=0;e<n.length;e++){var r=n[e];r.enumerable=r.enumerable||!1,r.configurable=!0,"value"in r&&(r.writable=!0),Object.defineProperty(t,r.key,r)}}function u(t,n,e){return n&&i(t.prototype,n),e&&i(t,e),t}function o(t,n,e){return n in t?Object.defineProperty(t,n,{value:e,enumerable:!0,configurable:!0,writable:!0}):t[n]=e,t}function a(t){return(a=Object.setPrototypeOf?Object.getPrototypeOf:function(t){return t.__proto__||Object.getPrototypeOf(t)})(t)}function l(t,n){return(l=Object.setPrototypeOf||function(t,n){return t.__proto__=n,t})(t,n)}function s(t,n){if(n&&("object"==typeof n||"function"==typeof n))return n;if(void 0!==n)throw new TypeError("Derived constructors may only return object or undefined");return function(t){if(void 0===t)throw new ReferenceError("this hasn't been initialised - super() hasn't been called");return t}(t)}function f(t){var n=function(){if("undefined"==typeof Reflect||!Reflect.construct)return!1;if(Reflect.construct.sham)return!1;if("function"==typeof Proxy)return!0;try{return Boolean.prototype.valueOf.call(Reflect.construct(Boolean,[],(function(){}))),!0}catch(t){return!1}}();return function(){var e,r=a(t);if(n){var i=a(this).constructor;e=Reflect.construct(r,arguments,i)}else e=r.apply(this,arguments);return s(this,e)}}function c(t,n,e){return(c="undefined"!=typeof Reflect&&Reflect.get?Reflect.get:function(t,n,e){var r=function(t,n){for(;!Object.prototype.hasOwnProperty.call(t,n)&&null!==(t=a(t)););return t}(t,n);if(r){var i=Object.getOwnPropertyDescriptor(r,n);return i.get?i.get.call(e):i.value}})(t,n,e||t)}var h=v(Math.pow(10,-6));function v(t){var n=arguments.length>1&&void 0!==arguments[1]?arguments[1]:6;if(Number.isInteger(t))return t;var e=Math.pow(10,n);return Math.round((+t+Number.EPSILON)*e)/e}function d(t,n){var e=arguments.length>2&&void 0!==arguments[2]?arguments[2]:h;return Math.abs(t-n)<e}var y=Math.PI/180;function g(t){return t}function p(t,n,e){var r=1-e;return 3*e*r*(t*r+n*e)+e*e*e}function m(){var t=arguments.length>0&&void 0!==arguments[0]?arguments[0]:0,n=arguments.length>1&&void 0!==arguments[1]?arguments[1]:0,e=arguments.length>2&&void 0!==arguments[2]?arguments[2]:1,r=arguments.length>3&&void 0!==arguments[3]?arguments[3]:1;return t<0||t>1||e<0||e>1?null:d(t,n)&&d(e,r)?g:function(i){if(i<=0)return t>0?i*n/t:0===n&&e>0?i*r/e:0;if(i>=1)return e<1?1+(i-1)*(r-1)/(e-1):1===e&&t<1?1+(i-1)*(n-1)/(t-1):1;for(var u,o=0,a=1;o<a;){var l=p(t,e,u=(o+a)/2);if(d(i,l))break;l<i?o=u:a=u}return p(n,r,u)}}function b(){return 1}function w(t){return 1===t?1:0}function x(){var t=arguments.length>0&&void 0!==arguments[0]?arguments[0]:1,n=arguments.length>1&&void 0!==arguments[1]?arguments[1]:0;if(1===t){if(0===n)return w;if(1===n)return b}var e=1/t;return function(t){return t>=1?1:(t+=n*e)-t%e}}var A="undefined"!=typeof window&&/(Mac|iPhone|iPod|iPad)/i.test(window.navigator.platform);Object.freeze({Meta:A?"Control":"Meta",Ctrl:"Control",Down:"ArrowDown",Up:"ArrowUp",Left:"ArrowLeft",Right:"ArrowRight",Esc:"Escape",Delete:"Backspace",Space:"Space"});var k=Math.sin,_=Math.cos,S=Math.acos,O=Math.asin,M=Math.tan,E=Math.atan2,P=Math.PI/180,j=180/Math.PI,B=Math.sqrt,I=function(){function t(){var n=arguments.length>0&&void 0!==arguments[0]?arguments[0]:1,e=arguments.length>1&&void 0!==arguments[1]?arguments[1]:0,i=arguments.length>2&&void 0!==arguments[2]?arguments[2]:0,u=arguments.length>3&&void 0!==arguments[3]?arguments[3]:1,o=arguments.length>4&&void 0!==arguments[4]?arguments[4]:0,a=arguments.length>5&&void 0!==arguments[5]?arguments[5]:0;r(this,t),this.m=[n,e,i,u,o,a],this.i=null,this.w=null,this.s=null}return u(t,[{key:"determinant",get:function(){var t=this.m;return t[0]*t[3]-t[1]*t[2]}},{key:"isIdentity",get:function(){if(null===this.i){var t=this.m;this.i=1===t[0]&&0===t[1]&&0===t[2]&&1===t[3]&&0===t[4]&&0===t[5]}return this.i}},{key:"point",value:function(t,n){var e=this.m;return{x:e[0]*t+e[2]*n+e[4],y:e[1]*t+e[3]*n+e[5]}}},{key:"translateSelf",value:function(){var t=arguments.length>0&&void 0!==arguments[0]?arguments[0]:0,n=arguments.length>1&&void 0!==arguments[1]?arguments[1]:0;if(!t&&!n)return this;var e=this.m;return e[4]+=e[0]*t+e[2]*n,e[5]+=e[1]*t+e[3]*n,this.w=this.s=this.i=null,this}},{key:"rotateSelf",value:function(){var t=arguments.length>0&&void 0!==arguments[0]?arguments[0]:0;if(t%=360){var n=k(t*=P),e=_(t),r=this.m,i=r[0],u=r[1];r[0]=i*e+r[2]*n,r[1]=u*e+r[3]*n,r[2]=r[2]*e-i*n,r[3]=r[3]*e-u*n,this.w=this.s=this.i=null}return this}},{key:"scaleSelf",value:function(){var t=arguments.length>0&&void 0!==arguments[0]?arguments[0]:1,n=arguments.length>1&&void 0!==arguments[1]?arguments[1]:1;if(1!==t||1!==n){var e=this.m;e[0]*=t,e[1]*=t,e[2]*=n,e[3]*=n,this.w=this.s=this.i=null}return this}},{key:"skewSelf",value:function(t,n){if(n%=360,(t%=360)||n){var e=this.m,r=e[0],i=e[1],u=e[2],o=e[3];t&&(t=M(t*P),e[2]+=r*t,e[3]+=i*t),n&&(n=M(n*P),e[0]+=u*n,e[1]+=o*n),this.w=this.s=this.i=null}return this}},{key:"resetSelf",value:function(){var t=arguments.length>0&&void 0!==arguments[0]?arguments[0]:1,n=arguments.length>1&&void 0!==arguments[1]?arguments[1]:0,e=arguments.length>2&&void 0!==arguments[2]?arguments[2]:0,r=arguments.length>3&&void 0!==arguments[3]?arguments[3]:1,i=arguments.length>4&&void 0!==arguments[4]?arguments[4]:0,u=arguments.length>5&&void 0!==arguments[5]?arguments[5]:0,o=this.m;return o[0]=t,o[1]=n,o[2]=e,o[3]=r,o[4]=i,o[5]=u,this.w=this.s=this.i=null,this}},{key:"recomposeSelf",value:function(){var t=arguments.length>0&&void 0!==arguments[0]?arguments[0]:null,n=arguments.length>1&&void 0!==arguments[1]?arguments[1]:null,e=arguments.length>2&&void 0!==arguments[2]?arguments[2]:null,r=arguments.length>3&&void 0!==arguments[3]?arguments[3]:null,i=arguments.length>4&&void 0!==arguments[4]?arguments[4]:null;return this.isIdentity||this.resetSelf(),t&&(t.x||t.y)&&this.translateSelf(t.x,t.y),n&&this.rotateSelf(n),e&&(e.x&&this.skewSelf(e.x,0),e.y&&this.skewSelf(0,e.y)),!r||1===r.x&&1===r.y||this.scaleSelf(r.x,r.y),i&&(i.x||i.y)&&this.translateSelf(i.x,i.y),this}},{key:"decompose",value:function(){var t=arguments.length>0&&void 0!==arguments[0]?arguments[0]:0,n=arguments.length>1&&void 0!==arguments[1]?arguments[1]:0,e=this.m,r=e[0]*e[0]+e[1]*e[1],i=[[e[0],e[1]],[e[2],e[3]]],u=B(r);if(0===u)return{origin:{x:v(e[4]),y:v(e[5])},translate:{x:v(t),y:v(n)},scale:{x:0,y:0},skew:{x:0,y:0},rotate:0};i[0][0]/=u,i[0][1]/=u;var o=e[0]*e[3]-e[1]*e[2]<0;o&&(u=-u);var a=i[0][0]*i[1][0]+i[0][1]*i[1][1];i[1][0]-=i[0][0]*a,i[1][1]-=i[0][1]*a;var l=B(i[1][0]*i[1][0]+i[1][1]*i[1][1]);if(0===l)return{origin:{x:v(e[4]),y:v(e[5])},translate:{x:v(t),y:v(n)},scale:{x:v(u),y:0},skew:{x:0,y:0},rotate:0};i[1][0]/=l,i[1][1]/=l,a/=l;var s=0;return i[1][1]<0?(s=S(i[1][1])*j,i[0][1]<0&&(s=360-s)):s=O(i[0][1])*j,o&&(s=-s),a=E(a,B(i[0][0]*i[0][0]+i[0][1]*i[0][1]))*j,o&&(a=-a),{origin:{x:v(e[4]),y:v(e[5])},translate:{x:v(t),y:v(n)},scale:{x:v(u),y:v(l)},skew:{x:v(a),y:0},rotate:v(s)}}},{key:"toString",value:function(){var t=arguments.length>0&&void 0!==arguments[0]?arguments[0]:" ";return null===this.s&&(this.s="matrix("+this.m.map((function(t){return v(t)})).join(t)+")"),this.s}}]),t}();function R(t,n,e){return t>=.5?e:n}function T(t,n,e){return 0===t||n===e?n:t*(e-n)+n}function N(t,n,e){var r=T(t,n,e);return r<=0?0:r}function C(t,n,e){var r=T(t,n,e);return r<=0?0:r>=1?1:r}function L(t,n,e){return 0===t?n:1===t?e:{x:T(t,n.x,e.x),y:T(t,n.y,e.y)}}function F(t,n,e){return 0===t?n:1===t?e:{x:N(t,n.x,e.x),y:N(t,n.y,e.y)}}function q(t,n,e){var r=function(t,n,e){return Math.round(T(t,n,e))}(t,n,e);return r<=0?0:r>=255?255:r}function V(t,n,e){return 0===t?n:1===t?e:{r:q(t,n.r,e.r),g:q(t,n.g,e.g),b:q(t,n.b,e.b),a:T(t,null==n.a?1:n.a,null==e.a?1:e.a)}}function D(t,n,e){var r=n.length;if(r!==e.length)return R(t,n,e);for(var i=new Array(r),u=0;u<r;u++)i[u]=T(t,n[u],e[u]);return i}function z(t,n){for(var e=[],r=0;r<t;r++)e.push(n);return e}function Y(t,n){if(--n<=0)return t;var e=(t=Object.assign([],t)).length;do{for(var r=0;r<e;r++)t.push(t[r])}while(--n>0);return t}var G,U=function(){function t(n){r(this,t),this.list=n,this.length=n.length}return u(t,[{key:"setAttribute",value:function(t,n){for(var e=this.list,r=0;r<this.length;r++)e[r].setAttribute(t,n)}},{key:"removeAttribute",value:function(t){for(var n=this.list,e=0;e<this.length;e++)n[e].removeAttribute(t)}},{key:"style",value:function(t,n){for(var e=this.list,r=0;r<this.length;r++)e[r].style[t]=n}}]),t}(),W=/-./g,$=function(t,n){return n.toUpperCase()};function H(t){return"function"==typeof t?t:R}function Q(t){return t?"function"==typeof t?t:Array.isArray(t)?function(t){var n=arguments.length>1&&void 0!==arguments[1]?arguments[1]:g;if(!Array.isArray(t))return n;switch(t.length){case 1:return x(t[0])||n;case 2:return x(t[0],t[1])||n;case 4:return m(t[0],t[1],t[2],t[3])||n}return n}(t,null):function(t,n){var e=arguments.length>2&&void 0!==arguments[2]?arguments[2]:g;switch(t){case"linear":return g;case"steps":return x(n.steps||1,n.jump||0)||e;case"bezier":case"cubic-bezier":return m(n.x1||0,n.y1||0,n.x2||0,n.y2||0)||e}return e}(t.type,t.value,null):null}function X(t,n,e){var r=arguments.length>3&&void 0!==arguments[3]&&arguments[3],i=n.length-1;if(t<=n[0].t)return r?[0,0,n[0].v]:n[0].v;if(t>=n[i].t)return r?[i,1,n[i].v]:n[i].v;var u,o=n[0],a=null;for(u=1;u<=i;u++){if(!(t>n[u].t)){a=n[u];break}o=n[u]}return null==a?r?[i,1,n[i].v]:n[i].v:o.t===a.t?r?[u,1,a.v]:a.v:(t=(t-o.t)/(a.t-o.t),o.e&&(t=o.e(t)),r?[u,t,e(t,o.v,a.v)]:e(t,o.v,a.v))}function J(t,n){var e=arguments.length>2&&void 0!==arguments[2]?arguments[2]:null;return t&&t.length?"function"!=typeof n?null:("function"!=typeof e&&(e=null),function(r){var i=X(r,t,n);return null!=i&&e&&(i=e(i)),i}):null}function Z(t,n){return t.t-n.t}function K(t,n,r,i,u){var o,a="@"===r[0],l="#"===r[0],s=G[r],f=R;switch(a?(o=r.substr(1),r=o.replace(W,$)):l&&(r=r.substr(1)),e(s)){case"function":if(f=s(i,u,X,Q,r,a,n,t),l)return f;break;case"string":f=J(i,H(s));break;case"object":if((f=J(i,H(s.i),s.f))&&"function"==typeof s.u)return s.u(n,f,r,a,t)}return f?function(t,n,e){if(arguments.length>3&&void 0!==arguments[3]&&arguments[3])return t instanceof U?function(r){return t.style(n,e(r))}:function(r){return t.style[n]=e(r)};if(Array.isArray(n)){var r=n.length;return function(i){var u=e(i);if(null==u)for(var o=0;o<r;o++)t[o].removeAttribute(n);else for(var a=0;a<r;a++)t[a].setAttribute(n,u)}}return function(r){var i=e(r);null==i?t.removeAttribute(n):t.setAttribute(n,i)}}(n,r,f,a):null}function tt(t,n,r,i){if(!i||"object"!==e(i))return null;var u=null,o=null;return Array.isArray(i)?o=function(t){if(!t||!t.length)return null;for(var n=0;n<t.length;n++)t[n].e&&(t[n].e=Q(t[n].e));return t.sort(Z)}(i):(o=i.keys,u=i.data||null),o?K(t,n,r,o,u):null}function nt(t,n,e){if(!e)return null;var r=[];for(var i in e)if(e.hasOwnProperty(i)){var u=tt(t,n,i,e[i]);u&&r.push(u)}return r.length?r:null}function et(t,n){if(!n.duration||n.duration<0)return null;var e=function(t,n){if(!n)return null;var e=[];if(Array.isArray(n))for(var r=n.length,i=0;i<r;i++){var u=n[i];if(2===u.length){var o=null;if("string"==typeof u[0])o=t.getElementById(u[0]);else if(Array.isArray(u[0])){o=[];for(var a=0;a<u[0].length;a++)if("string"==typeof u[0][a]){var l=t.getElementById(u[0][a]);l&&o.push(l)}o=o.length?1===o.length?o[0]:new U(o):null}if(o){var s=nt(t,o,u[1]);s&&(e=e.concat(s))}}}else for(var f in n)if(n.hasOwnProperty(f)){var c=t.getElementById(f);if(c){var h=nt(t,c,n[f]);h&&(e=e.concat(h))}}return e.length?e:null}(t,n.elements);return e?function(t,n){var e=arguments.length>2&&void 0!==arguments[2]?arguments[2]:1/0,r=arguments.length>3&&void 0!==arguments[3]?arguments[3]:1,i=arguments.length>4&&void 0!==arguments[4]&&arguments[4],u=arguments.length>5&&void 0!==arguments[5]?arguments[5]:1,o=t.length,a=r>0?n:0;i&&e%2==0&&(a=n-a);var l=null;return function(s,f){var c=s%n,h=1+(s-c)/n;f*=r,i&&h%2==0&&(f=-f);var v=!1;if(h>e)c=a,v=!0,-1===u&&(c=r>0?0:n);else if(f<0&&(c=n-c),c===l)return!1;l=c;for(var d=0;d<o;d++)t[d](c);return v}}(e,n.duration,n.iterations||1/0,n.direction||1,!!n.alternate,n.fill||1):null}function rt(t){return+("0x"+(t.replace(/[^0-9a-fA-F]+/g,"")||27))}function it(t,n,e){return!t||!e||n>t.length?t:t.substring(0,n)+it(t.substring(n+1),e,e)}function ut(t){var n=arguments.length>1&&void 0!==arguments[1]?arguments[1]:27;return!t||t%n?t%n:ut(t/n,n)}function ot(t,n,e){if(t&&t.length){var r=rt(e),i=rt(n),u=ut(r)+5,o=it(t,ut(r,5),u);return o=o.replace(/\x7c$/g,"==").replace(/\x2f$/g,"="),o=function(t,n,e){var r=+("0x"+t.substring(0,4));t=t.substring(4);for(var i=n%r+e%27,u=[],o=0;o<t.length;o+=2)if("|"!==t[o]){var a=+("0x"+t[o]+t[o+1])-i;u.push(a)}else{var l=+("0x"+t.substring(o+1,o+1+4))-i;o+=3,u.push(l)}return String.fromCharCode.apply(String,u)}(o=(o=atob(o)).replace(/[\x41-\x5A]/g,""),i,r),o=JSON.parse(o)}}Number.isInteger||(Number.isInteger=function(t){return"number"==typeof t&&isFinite(t)&&Math.floor(t)===t}),Number.EPSILON||(Number.EPSILON=2220446049250313e-31);var at=function(){function t(n,e){var i=arguments.length>2&&void 0!==arguments[2]?arguments[2]:{};r(this,t),this._id=0,this._running=!1,this._rollingBack=!1,this._animations=n,this.duration=e.duration,this.alternate=e.alternate,this.fill=e.fill,this.iterations=e.iterations,this.direction=i.direction||1,this.speed=i.speed||1,this.fps=i.fps||100,this.offset=i.offset||0,this.rollbackStartOffset=0}return u(t,[{key:"_rollback",value:function(){var t=this,n=1/0,e=null;this.rollbackStartOffset=this.offset,this._rollingBack||(this._rollingBack=!0,this._running=!0);this._id=window.requestAnimationFrame((function r(i){if(t._rollingBack){null==e&&(e=i);var u=i-e,o=t.rollbackStartOffset-u,a=Math.round(o*t.speed);if(a>t.duration&&n!=1/0){var l=!!t.alternate&&a/t.duration%2>1,s=a%t.duration;a=(s+=l?t.duration:0)||t.duration}var f=t.fps?1e3/t.fps:0,c=Math.max(0,a);if(c<n-f){t.offset=c,n=c;for(var h=t._animations,v=h.length,d=0;d<v;d++)h[d](c,t.direction)}var y=!1;if(t.iterations>0&&-1===t.fill){var g=t.iterations*t.duration,p=g==a;a=p?0:a,t.offset=p?0:t.offset,y=a>g}a>0&&t.offset>=a&&!y?t._id=window.requestAnimationFrame(r):t.stop()}}))}},{key:"_start",value:function(){var t=this,n=arguments.length>0&&void 0!==arguments[0]?arguments[0]:0,e=-1/0,r=null,i={},u=function u(o){t._running=!0,null==r&&(r=o);var a=Math.round((o-r+n)*t.speed),l=t.fps?1e3/t.fps:0;if(a>e+l&&!t._rollingBack){t.offset=a,e=a;for(var s=t._animations,f=s.length,c=0,h=0;h<f;h++)i[h]?c++:(i[h]=s[h](a,t.direction),i[h]&&c++);if(c===f)return void t._stop()}t._id=window.requestAnimationFrame(u)};this._id=window.requestAnimationFrame(u)}},{key:"_stop",value:function(){this._id&&window.cancelAnimationFrame(this._id),this._running=!1,this._rollingBack=!1}},{key:"play",value:function(){!this._rollingBack&&this._running||(this._rollingBack=!1,this.rollbackStartOffset>this.duration&&(this.offset=this.rollbackStartOffset-(this.rollbackStartOffset-this.offset)%this.duration,this.rollbackStartOffset=0),this._start(this.offset))}},{key:"stop",value:function(){this._stop(),this.offset=0,this.rollbackStartOffset=0;var t=this.direction,n=this._animations;window.requestAnimationFrame((function(){for(var e=0;e<n.length;e++)n[e](0,t)}))}},{key:"reachedToEnd",value:function(){return this.iterations>0&&this.offset>=this.iterations*this.duration}},{key:"restart",value:function(){this._stop(),this.offset=0,this._start()}},{key:"pause",value:function(){this._stop()}},{key:"reverse",value:function(){this.direction=-this.direction}}],[{key:"build",value:function(e,r){return delete e.animationSettings,e.options=ot(e.options,e.root,"91c80d77"),e.animations.map((function(t){var r=ot(t.s,e.root,"91c80d77");for(var i in delete t.s,e.animationSettings||(e.animationSettings=n({},r)),r)r.hasOwnProperty(i)&&(t[i]=r[i])})),(e=function(t,n){if(G=n,!t||!t.root||!Array.isArray(t.animations))return null;for(var e=document.getElementsByTagName("svg"),r=!1,i=0;i<e.length;i++)if(e[i].id===t.root&&!e[i].svgatorAnimation){(r=e[i]).svgatorAnimation=!0;break}if(!r)return null;var u=t.animations.map((function(t){return et(r,t)})).filter((function(t){return!!t}));return u.length?{element:r,animations:u,animationSettings:t.animationSettings,options:t.options||void 0}:null}(e,r))?{el:e.element,options:e.options||{},player:new t(e.animations,e.animationSettings,e.options)}:null}},{key:"push",value:function(t){return this.build(t)}},{key:"init",value:function(){var t=this,n=window.__SVGATOR_PLAYER__&&window.__SVGATOR_PLAYER__["91c80d77"];Array.isArray(n)&&n.splice(0).forEach((function(n){return t.build(n)}))}}]),t}();!function(){for(var t=0,n=["ms","moz","webkit","o"],e=0;e<n.length&&!window.requestAnimationFrame;++e)window.requestAnimationFrame=window[n[e]+"RequestAnimationFrame"],window.cancelAnimationFrame=window[n[e]+"CancelAnimationFrame"]||window[n[e]+"CancelRequestAnimationFrame"];window.requestAnimationFrame||(window.requestAnimationFrame=function(n){var e=Date.now(),r=Math.max(0,16-(e-t)),i=window.setTimeout((function(){n(e+r)}),r);return t=e+r,i},window.cancelAnimationFrame=window.clearTimeout)}();var lt=function(t,n){var e=!1,r=null;return function(i){e&&clearTimeout(e),e=setTimeout((function(){return function(){for(var i=0,u=window.innerHeight,o=0,a=window.innerWidth,l=t.parentNode;l instanceof Element;){var s=window.getComputedStyle(l);if("visible"!==s.overflowY||"visible"!==s.overflowX){var f=l.getBoundingClientRect();"visible"!==s.overflowY&&(i=Math.max(i,f.top),u=Math.min(u,f.bottom)),"visible"!==s.overflowX&&(o=Math.max(o,f.left),a=Math.min(a,f.right))}if(l===l.parentNode)break;l=l.parentNode}e=!1;var c=t.getBoundingClientRect(),h=Math.min(c.height,Math.max(0,i-c.top)),v=Math.min(c.height,Math.max(0,c.bottom-u)),d=Math.min(c.width,Math.max(0,o-c.left)),y=Math.min(c.width,Math.max(0,c.right-a)),g=(c.height-h-v)/c.height,p=(c.width-d-y)/c.width,m=Math.round(g*p*100);null!==r&&r===m||(r=m,n(m))}()}),100)}},st=function(){function t(n,e,i){r(this,t),e=Math.max(1,e||1),e=Math.min(e,100),this.el=n,this.onTresholdChange=i&&i.call?i:function(){},this.tresholdPercent=e||1,this.currentVisibility=null,this.visibilityCalculator=lt(n,this.onVisibilityUpdate.bind(this)),this.bindScrollWatchers(),this.visibilityCalculator()}return u(t,[{key:"bindScrollWatchers",value:function(){for(var t=this.el.parentNode;t&&(t.addEventListener("scroll",this.visibilityCalculator),t!==t.parentNode&&t!==document);)t=t.parentNode}},{key:"onVisibilityUpdate",value:function(t){var n=this.currentVisibility>=this.tresholdPercent,e=t>=this.tresholdPercent;if(null===this.currentVisibility||n!==e)return this.currentVisibility=t,void this.onTresholdChange(e);this.currentVisibility=t}}]),t}();function ft(t){return v(t)+""}function ct(t){var n=arguments.length>1&&void 0!==arguments[1]?arguments[1]:" ";return t&&t.length?t.map(ft).join(n):""}function ht(t){return ft(t.x)+","+ft(t.y)}function vt(t){return t?null==t.a||t.a>=1?"rgb("+t.r+","+t.g+","+t.b+")":"rgba("+t.r+","+t.g+","+t.b+","+t.a+")":"transparent"}function dt(t){return t?"url(#"+t+")":"none"}var yt={f:null,i:F,u:function(t,n){return function(e){var r=n(e);t.setAttribute("rx",ft(r.x)),t.setAttribute("ry",ft(r.y))}}},gt={f:null,i:function(t,n,e){return 0===t?n:1===t?e:{width:N(t,n.width,e.width),height:N(t,n.height,e.height)}},u:function(t,n){return function(e){var r=n(e);t.setAttribute("width",ft(r.width)),t.setAttribute("height",ft(r.height))}}};Object.freeze({M:2,L:2,Z:0,H:1,V:1,C:6,Q:4,T:2,S:4,A:7});var pt={},mt=null;function bt(t){var n=function(){if(mt)return mt;if("object"!==("undefined"==typeof document?"undefined":e(document))||!document.createElementNS)return{};var t=document.createElementNS("http://www.w3.org/2000/svg","svg");return t&&t.style?(t.style.position="absolute",t.style.opacity="0.01",t.style.zIndex="-9999",t.style.left="-9999px",t.style.width="1px",t.style.height="1px",mt={svg:t}):{}}().svg;if(!n)return function(t){return null};var r=document.createElementNS(n.namespaceURI,"path");r.setAttributeNS(null,"d",t),r.setAttributeNS(null,"fill","none"),r.setAttributeNS(null,"stroke","none"),n.appendChild(r);var i=r.getTotalLength();return function(t){var n=r.getPointAtLength(i*t);return{x:n.x,y:n.y}}}function wt(t){return pt[t]?pt[t]:pt[t]=bt(t)}function xt(t,n,e,r){if(!t||!r)return!1;var i=["M",t.x,t.y];if(n&&e&&(i.push("C"),i.push(n.x),i.push(n.y),i.push(e.x),i.push(e.y)),n?!e:e){var u=n||e;i.push("Q"),i.push(u.x),i.push(u.y)}return n||e||i.push("L"),i.push(r.x),i.push(r.y),i.join(" ")}function At(t,n,e,r){var i=arguments.length>4&&void 0!==arguments[4]?arguments[4]:1,u=xt(t,n,e,r),o=wt(u);try{return o(i)}catch(t){return null}}function kt(t,n,e,r){var i=1-r;return i*i*t+2*i*r*n+r*r*e}function _t(t,n,e,r){return 2*(1-r)*(n-t)+2*r*(e-n)}function St(t,n,e,r){var i=arguments.length>4&&void 0!==arguments[4]&&arguments[4],u=At(t,n,null,e,r);return u||(u={x:kt(t.x,n.x,e.x,r),y:kt(t.y,n.y,e.y,r)}),i&&(u.a=Ot(t,n,e,r)),u}function Ot(t,n,e,r){return Math.atan2(_t(t.y,n.y,e.y,r),_t(t.x,n.x,e.x,r))}function Mt(t,n,e,r,i){var u=i*i;return i*u*(r-t+3*(n-e))+3*u*(t+e-2*n)+3*i*(n-t)+t}function Et(t,n,e,r,i){var u=1-i;return 3*(u*u*(n-t)+2*u*i*(e-n)+i*i*(r-e))}function Pt(t,n,e,r,i){var u=arguments.length>5&&void 0!==arguments[5]&&arguments[5],o=At(t,n,e,r,i);return o||(o={x:Mt(t.x,n.x,e.x,r.x,i),y:Mt(t.y,n.y,e.y,r.y,i)}),u&&(o.a=jt(t,n,e,r,i)),o}function jt(t,n,e,r,i){return Math.atan2(Et(t.y,n.y,e.y,r.y,i),Et(t.x,n.x,e.x,r.x,i))}function Bt(t,n,e){return t+(n-t)*e}function It(t,n,e){var r=arguments.length>3&&void 0!==arguments[3]&&arguments[3],i={x:Bt(t.x,n.x,e),y:Bt(t.y,n.y,e)};return r&&(i.a=Rt(t,n)),i}function Rt(t,n){return Math.atan2(n.y-t.y,n.x-t.x)}function Tt(t,n,e){var r=arguments.length>3&&void 0!==arguments[3]&&arguments[3];if(Ct(n)){if(Lt(e))return St(n,e.start,e,t,r)}else if(Ct(e)){if(n.end)return St(n,n.end,e,t,r)}else{if(n.end)return e.start?Pt(n,n.end,e.start,e,t,r):St(n,n.end,e,t,r);if(e.start)return St(n,e.start,e,t,r)}return It(n,e,t,r)}function Nt(t,n,e){var r=Tt(t,n,e,!0);return r.a=function(t){return arguments.length>1&&void 0!==arguments[1]&&arguments[1]?t+Math.PI:t}(r.a)/y,r}function Ct(t){return!t.type||"corner"===t.type}function Lt(t){return null!=t.start&&!Ct(t)}var Ft=new I;var qt={f:function(t){return t?t.join(" "):""},i:function(t,n,r){if(0===t)return n;if(1===t)return r;var i=n.length;if(i!==r.length)return R(t,n,r);for(var u,o=new Array(i),a=0;a<i;a++){if((u=e(n[a]))!==e(r[a]))return R(t,n,r);if("number"===u)o[a]=T(t,n[a],r[a]);else{if(n[a]!==r[a])return R(t,n,r);o[a]=n[a]}}return o}},Vt={f:null,i:D,u:function(t,n){return function(e){var r=n(e);t.setAttribute("x1",ft(r[0])),t.setAttribute("y1",ft(r[1])),t.setAttribute("x2",ft(r[2])),t.setAttribute("y2",ft(r[3]))}}},Dt={f:ft,i:T},zt={f:ft,i:C},Yt={f:function(t){var n=arguments.length>1&&void 0!==arguments[1]?arguments[1]:" ";return t&&t.length>0&&(t=t.map((function(t){return v(t,4)}))),ct(t,n)},i:function(t,n,e){var r,i,u,o=n.length,a=e.length;if(o!==a)if(0===o)n=z(o=a,0);else if(0===a)a=o,e=z(o,0);else{var l=(u=(r=o)*(i=a)/function(t,n){for(var e;n;)e=n,n=t%n,t=e;return t||1}(r,i))<0?-u:u;n=Y(n,Math.floor(l/o)),e=Y(e,Math.floor(l/a)),o=a=l}for(var s=[],f=0;f<o;f++)s.push(v(N(t,n[f],e[f])));return s}};function Gt(t,n,e){return t.map((function(t){return function(t,n,e){var r=t.v;if(!r||"g"!==r.t||r.s||!r.v||!r.r)return t;var i=e.getElementById(r.r),u=i&&i.querySelectorAll("stop")||[];return r.s=r.v.map((function(t,n){var e=u[n]&&u[n].getAttribute("offset");return{c:t,o:e=v(parseInt(e)/100)}})),delete r.v,t}(t,0,e)}))}var Ut={gt:"gradientTransform",c:{x:"cx",y:"cy"},rd:"r",f:{x:"x1",y:"y1"},to:{x:"x2",y:"y2"}};function Wt(t,n,r,i,u,o,a,l){return Gt(t,0,l),n=function(t,n,e){for(var r,i,u,o=t.length-1,a={},l=0;l<=o;l++)(r=t[l]).e&&(r.e=n(r.e)),r.v&&"g"===(i=r.v).t&&i.r&&(u=e.getElementById(i.r))&&(a[i.r]={e:u,s:u.querySelectorAll("stop")});return a}(t,i,l),function(i){var u=r(i,t,$t);if(!u)return"none";if("c"===u.t)return vt(u.v);if("g"===u.t){if(!n[u.r])return dt(u.r);var o=n[u.r];return function(t,n){for(var e=t.s,r=e.length;r<n.length;r++){var i=e[e.length-1].cloneNode();i.id=Xt(i.id),t.e.appendChild(i),e=t.s=t.e.querySelectorAll("stop")}for(var u=0,o=e.length,a=n.length-1;u<o;u++)e[u].setAttribute("stop-color",vt(n[Math.min(u,a)].c)),e[u].setAttribute("offset",n[Math.min(u,a)].o)}(o,u.s),Object.keys(Ut).forEach((function(t){if(void 0!==u[t])if("object"!==e(Ut[t])){var n,r="gt"===t?(n=u[t],Array.isArray(n)?"matrix("+n.join(" ")+")":""):u[t],i=Ut[t];o.e.setAttribute(i,r)}else Object.keys(Ut[t]).forEach((function(n){if(void 0!==u[t][n]){var e=u[t][n],r=Ut[t][n];o.e.setAttribute(r,e)}}))})),dt(u.r)}return"none"}}function $t(t,e,r){if(0===t)return e;if(1===t)return r;if(e&&r){var i=e.t;if(i===r.t)switch(e.t){case"c":return{t:i,v:V(t,e.v,r.v)};case"g":if(e.r===r.r){var u={t:i,s:Ht(t,e.s,r.s),r:e.r};return e.gt&&r.gt&&(u.gt=D(t,e.gt,r.gt)),e.c?(u.c=L(t,e.c,r.c),u.rd=N(t,e.rd,r.rd)):e.f&&(u.f=L(t,e.f,r.f),u.to=L(t,e.to,r.to)),u}}if("c"===e.t&&"g"===r.t||"c"===r.t&&"g"===e.t){var o="c"===e.t?e:r,a="g"===e.t?n({},e):n({},r),l=a.s.map((function(t){return{c:o.v,o:t.o}}));return a.s="c"===e.t?Ht(t,l,a.s):Ht(t,a.s,l),a}}return R(t,e,r)}function Ht(t,n,e){if(n.length===e.length)return n.map((function(n,r){return Qt(t,n,e[r])}));for(var r=Math.max(n.length,e.length),i=[],u=0;u<r;u++){var o=Qt(t,n[Math.min(u,n.length-1)],e[Math.min(u,e.length-1)]);i.push(o)}return i}function Qt(t,n,e){return{o:C(t,n.o,e.o||0),c:V(t,n.c,e.c||{})}}function Xt(t){return t.replace(/-fill-([0-9]+)$/,(function(t,n){return"-fill-"+(+n+1)}))}var Jt={blur:F,brightness:N,contrast:N,"drop-shadow":function(t,n,e){return 0===t?n:1===t?e:{blur:F(t,n.blur,e.blur),offset:L(t,n.offset,e.offset),color:V(t,n.color,e.color)}},grayscale:N,"hue-rotate":T,invert:N,opacity:N,saturate:N,sepia:N};function Zt(t,n,e){if(0===t)return n;if(1===t)return e;var r=n.length;if(r!==e.length)return R(t,n,e);for(var i,u=[],o=0;o<r;o++){if(n[o].type!==e[o].type)return n;if(!(i=Jt[n[o].type]))return R(t,n,e);u.push({type:n.type,value:i(t,n[o].value,e[o].value)})}return u}var Kt={blur:function(t){return t?function(n){t.setAttribute("stdDeviation",ht(n))}:null},brightness:function(t,n,e){return(t=nn(e,n))?function(n){n=ft(n),t.map((function(t){return t.setAttribute("slope",n)}))}:null},contrast:function(t,n,e){return(t=nn(e,n))?function(n){var e=ft((1-n)/2);n=ft(n),t.map((function(t){t.setAttribute("slope",n),t.setAttribute("intercept",e)}))}:null},"drop-shadow":function(t,n,e){var r=e.getElementById(n+"-blur");if(!r)return null;var i=e.getElementById(n+"-offset");if(!i)return null;var u=e.getElementById(n+"-flood");return u?function(t){r.setAttribute("stdDeviation",ht(t.blur)),i.setAttribute("dx",ft(t.offset.x)),i.setAttribute("dy",ft(t.offset.y)),u.setAttribute("flood-color",vt(t.color))}:null},grayscale:function(t){return t?function(n){t.setAttribute("values",ct(function(t){return[.2126+.7874*(t=1-t),.7152-.7152*t,.0722-.0722*t,0,0,.2126-.2126*t,.7152+.2848*t,.0722-.0722*t,0,0,.2126-.2126*t,.7152-.7152*t,.0722+.9278*t,0,0,0,0,0,1,0]}(n)))}:null},"hue-rotate":function(t){return t?function(n){return t.setAttribute("values",ft(n))}:null},invert:function(t,n,e){return(t=nn(e,n))?function(n){n=ft(n)+" "+ft(1-n),t.map((function(t){return t.setAttribute("tableValues",n)}))}:null},opacity:function(t,n,e){return(t=e.getElementById(n+"-A"))?function(n){return t.setAttribute("tableValues","0 "+ft(n))}:null},saturate:function(t){return t?function(n){return t.setAttribute("values",ft(n))}:null},sepia:function(t){return t?function(n){return t.setAttribute("values",ct(function(t){return[.393+.607*(t=1-t),.769-.769*t,.189-.189*t,0,0,.349-.349*t,.686+.314*t,.168-.168*t,0,0,.272-.272*t,.534-.534*t,.131+.869*t,0,0,0,0,0,1,0]}(n)))}:null}};var tn=["R","G","B"];function nn(t,n){var e=tn.map((function(e){return t.getElementById(n+"-"+e)||null}));return-1!==e.indexOf(null)?null:e}var en={fill:Wt,"fill-opacity":zt,stroke:Wt,"stroke-opacity":zt,"stroke-width":Dt,"stroke-dashoffset":{f:ft,i:T},"stroke-dasharray":Yt,opacity:zt,transform:function(t,n,r,i){if(!(t=function(t,n){if(!t||"object"!==e(t))return null;var r=!1;for(var i in t)t.hasOwnProperty(i)&&(t[i]&&t[i].length?(t[i].forEach((function(t){t.e&&(t.e=n(t.e))})),r=!0):delete t[i]);return r?t:null}(t,i)))return null;var u=function(e,i,u){var o=arguments.length>3&&void 0!==arguments[3]?arguments[3]:null;return t[e]?r(i,t[e],u):n&&n[e]?n[e]:o};return n&&n.a&&t.o?function(n){var e=r(n,t.o,Nt);return Ft.recomposeSelf(e,u("r",n,T,0)+e.a,u("k",n,L),u("s",n,L),u("t",n,L)).toString()}:function(t){return Ft.recomposeSelf(u("o",t,Tt,null),u("r",t,T,0),u("k",t,L),u("s",t,L),u("t",t,L)).toString()}},"#filter":function(t,n,e,r,i,u,o,a){if(!n.items||!t||!t.length)return null;var l=function(t,n){var e=(t=t.map((function(t){return t&&Kt[t[0]]?(n.getElementById(t[1]),Kt[t[0]](n.getElementById(t[1]),t[1],n)):null}))).length;return function(n){for(var r=0;r<e;r++)t[r]&&t[r](n[r].value)}}(n.items,a);return l?(t=function(t,n){return t.map((function(t){return t.e=n(t.e),t}))}(t,r),function(n){l(e(n,t,Zt))}):null},"#line":Vt,points:{f:ct,i:D},d:qt,r:Dt,"#size":gt,"#radius":yt,_:function(t,n){if(Array.isArray(t))for(var e=0;e<t.length;e++)this[t[e]]=n;else this[t]=n}},rn=function(t){!function(t,n){if("function"!=typeof n&&null!==n)throw new TypeError("Super expression must either be null or a function");t.prototype=Object.create(n&&n.prototype,{constructor:{value:t,writable:!0,configurable:!0}}),n&&l(t,n)}(e,t);var n=f(e);function e(){return r(this,e),n.apply(this,arguments)}return u(e,null,[{key:"build",value:function(t){var n=c(a(e),"build",this).call(this,t,en);if(!n)return null;var r=n.el,i=n.options,u=n.player;return function(t,n,e){if("click"===e.start){var r=function(){switch(e.click){case"freeze":return!t._running&&t.reachedToEnd()&&(t.offset=0),t._running?t.pause():t.play();case"restart":return t.offset>0?t.restart():t.play();case"reverse":var n=!t._rollingBack&&t._running,r=t.reachedToEnd();return n||r&&1===t.fill?(t.pause(),r&&(t.offset=t.duration-1),t._rollback()):r?t.restart():t.play();case"none":default:return!t._running&&t.offset?t.restart():t.play()}};return void n.addEventListener("click",r)}if("hover"===e.start)return n.addEventListener("mouseenter",(function(){return t.reachedToEnd()?t.restart():t.play()})),void n.addEventListener("mouseleave",(function(){switch(e.hover){case"freeze":return t.pause();case"reset":return t.stop();case"reverse":return t.pause(),t._rollback();case"none":default:return}}));if("scroll"===e.start)return void new st(n,e.scroll||25,(function(n){n?t.reachedToEnd()?t.restart():t.play():t.pause()}));t.play()}(u,r,i),u}}]),e}(at);return rn.init(),rn}));
(function(s,i,o,w){w[o]=w[o]||{};w[o][s]=w[o][s]||[];w[o][s].push(i);})('91c80d77',{"root":"etXEYb8GA9H1","animations":[{"elements":{"etXEYb8GA9H15":{"transform":{"data":{"o":{"x":193.329331,"y":191.906942,"type":"corner"},"t":{"x":-193.32933,"y":-191.906941}},"keys":{"r":[{"t":90.9090909090909,"v":0,"e":[0.77,0,0.175,1]},{"t":181.8181818181818,"v":-210,"e":[0.77,0,0.175,1]},{"t":545.4545454545454,"v":-210,"e":[0.77,0,0.175,1]},{"t":636.3636363636364,"v":-360}]}}},"etXEYb8GA9H42":{"transform":{"data":{"o":{"x":192.969987,"y":191.988952,"type":"corner"},"t":{"x":-192.969986,"y":-191.988952}},"keys":{"r":[{"t":90.9090909090909,"v":0,"e":[0.77,0,0.175,1]},{"t":181.8181818181818,"v":150,"e":[0.77,0,0.175,1]},{"t":545.4545454545454,"v":150,"e":[0.77,0,0.175,1]},{"t":636.3636363636364,"v":360}]}}}},"s":"MDHA2MWEyNDk4YNjljOTk4ODliEOTA5Njk1NDkN2MTYwNTc2MDCU1NTc2MDU3NQjA1NzYwNTc2YMDU3SjYwNTcJ2MDUzNDlLOGUI5MDk5OGM4YATliOTA5Njk1TNDk2MTU4NTMD0OTkwOWI4Y0YY5OUg4ODliOLTA5Njk1OWE0COTYxNTg1MzQF5OGQ5MDkzVzPkzNDlLNjE1OGDUzNDk4ODkzUOWJKOGM5OTkH1ODg5YjhjNDSk2MThkODg5MUzlhOGM1MzQ5KOWE5NzhjOGMB4YjQ5NjE1ODHU1NThhNA|"}],"options":"MDXAyME45MjM5OPGFBOGI3ODg5TOGIzOVM1MTME5RjdmODY4ZDQdjODkzOTQzMNzlKN2Y4NjhkFN2M4OTM5NTEFzOTg1RDg2ODRU3YzM5OTQ/"},'__SVGATOR_PLAYER__',window)]]></script></svg>