<svg id="eeyNr5RfM2I1" xmlns="http://www.w3.org/2000/svg" xmlns:xlink="http://www.w3.org/1999/xlink" viewBox="0 0 490 490" shape-rendering="geometricPrecision" text-rendering="geometricPrecision"><path id="eeyNr5RfM2I2" d="M384,192C436.9375,192,480,148.9375,480,96C480,43.0625,436.9375,0,384,0C345.558594,0,312.414062,22.761719,297.097656,55.472656L271.390625,45.984375C271.695312,44.015625,272,42.046875,272,40C272,17.945312,254.054688,0,232,0C209.945312,0,192,17.945312,192,40C192,62.054688,209.945312,80,232,80C246.328125,80,258.824219,72.359375,265.886719,61.007812L291.550781,70.480469C289.296875,78.625,288,87.152344,288,96C288,106.480469,289.742188,116.542969,292.863281,125.992188L204.878906,163.28125C188.769531,132.824219,156.792969,112,120,112C108.078125,112,96.703125,114.289062,86.160156,118.273438L64.03125,71.769531C73.671875,64.457031,80,53,80,40C80,17.945312,62.054688,0,40,0C17.945312,0,0,17.945312,0,40C0,62.054688,17.945312,80,40,80C43.328125,80,46.519531,79.472656,49.617188,78.695312L71.71875,125.152344C43.230469,141.824219,24,172.671875,24,208C24,241.183594,40.929688,270.472656,66.59375,287.71875L51.960938,314.023438C48.152344,312.824219,44.191406,312,40,312C17.945312,312,0,329.945312,0,352C0,374.054688,17.945312,392,40,392C62.054688,392,80,374.054688,80,352C80,339.886719,74.472656,329.144531,65.945312,321.808594L80.609375,295.449219C92.640625,300.894531,105.953125,304,120,304C141.953125,304,162.144531,296.511719,178.335938,284.0625L209.824219,318.703125C193.855469,335.855469,184,358.769531,184,384C184,388.894531,184.488281,393.664062,185.191406,398.359375L148.144531,407.152344C141.769531,393.519531,128.015625,384,112,384C89.945312,384,72,401.945312,72,424C72,446.054688,89.945312,464,112,464C134.054688,464,152,446.054688,152,424C152,423.558594,151.878906,423.144531,151.871094,422.703125L188.847656,413.9375C201.457031,452.246094,237.519531,480,280,480C332.9375,480,376,436.9375,376,384C376,367.585938,371.847656,352.128906,364.550781,338.609375L411.542969,308.054688C418.808594,315.414062,428.871094,320,440,320C462.054688,320,480,302.054688,480,280C480,257.945312,462.054688,240,440,240C417.945312,240,400,257.945312,400,280C400,285.167969,401.0625,290.078125,402.855469,294.617188L355.753906,325.238281C346.328125,313.121094,334.089844,303.335938,320,296.839844L359.046875,188.59375C367.015625,190.742188,375.359375,192,384,192ZM232,64C218.769531,64,208,53.230469,208,40C208,26.769531,218.769531,16,232,16C245.230469,16,256,26.769531,256,40C256,53.230469,245.230469,64,232,64ZM16,40C16,26.769531,26.769531,16,40,16C53.230469,16,64,26.769531,64,40C64,53.230469,53.230469,64,40,64C26.769531,64,16,53.230469,16,40ZM40,376C26.769531,376,16,365.230469,16,352C16,338.769531,26.769531,328,40,328C53.230469,328,64,338.769531,64,352C64,365.230469,53.230469,376,40,376ZM112,448C98.769531,448,88,437.230469,88,424C88,410.769531,98.769531,400,112,400C125.230469,400,136,410.769531,136,424C136,437.230469,125.230469,448,112,448ZM440,256C453.230469,256,464,266.769531,464,280C464,293.230469,453.230469,304,440,304C426.769531,304,416,293.230469,416,280C416,266.769531,426.769531,256,440,256ZM336.886719,160.511719C340.457031,142.007812,356.769531,128,376,128L392,128C411.230469,128,427.542969,142.007812,431.113281,160.511719C417.878906,170.199219,401.625,176,384,176C366.375,176,350.121094,170.199219,336.886719,160.511719ZM384,112C370.769531,112,360,101.230469,360,88C360,74.769531,370.769531,64,384,64C397.230469,64,408,74.769531,408,88C408,101.230469,397.230469,112,384,112ZM384,16C428.113281,16,464,51.886719,464,96C464,116,456.566406,134.273438,444.382812,148.3125C438.777344,133.550781,427.089844,121.769531,412.527344,115.953125C419.609375,108.734375,424,98.878906,424,88C424,65.945312,406.054688,48,384,48C361.945312,48,344,65.945312,344,88C344,98.878906,348.390625,108.734375,355.472656,115.953125C340.910156,121.769531,329.222656,133.550781,323.617188,148.3125C311.433594,134.273438,304,116,304,96C304,51.886719,339.886719,16,384,16ZM40,208C40,163.886719,75.886719,128,120,128C164.113281,128,200,163.886719,200,208C200,228.0625,192.519531,246.382812,180.273438,260.441406C174.6875,245.625,162.976562,233.785156,148.375,227.953125C155.449219,220.734375,159.839844,210.878906,159.839844,200C159.839844,177.945312,141.894531,160,119.839844,160C97.785156,160,79.839844,177.945312,79.839844,200C79.839844,210.878906,84.230469,220.734375,91.3125,227.953125C76.792969,233.742188,65.121094,245.480469,59.496094,260.183594C47.382812,246.160156,40,227.945312,40,208ZM95.839844,200C95.839844,186.769531,106.609375,176,119.839844,176C133.070312,176,143.839844,186.769531,143.839844,200C143.839844,213.230469,133.070312,224,119.839844,224C106.609375,224,95.839844,213.230469,95.839844,200ZM72.753906,272.40625C76.359375,253.953125,92.648438,240,111.839844,240L127.839844,240C147.105469,240,163.449219,254.054688,166.96875,272.617188C153.761719,282.246094,137.558594,288,120,288C102.3125,288,86.007812,282.160156,72.753906,272.40625ZM232.753906,448.40625C236.359375,429.953125,252.648438,416,271.839844,416L287.839844,416C307.105469,416,323.449219,430.054688,326.96875,448.617188C313.761719,458.246094,297.558594,464,280,464C262.3125,464,246.007812,458.160156,232.753906,448.40625ZM279.839844,400C266.609375,400,255.839844,389.230469,255.839844,376C255.839844,362.769531,266.609375,352,279.839844,352C293.070312,352,303.839844,362.769531,303.839844,376C303.839844,389.230469,293.070312,400,279.839844,400ZM360,384C360,404.0625,352.519531,422.382812,340.273438,436.441406C334.6875,421.625,322.976562,409.785156,308.375,403.953125C315.449219,396.734375,319.839844,386.878906,319.839844,376C319.839844,353.945312,301.894531,336,279.839844,336C257.785156,336,239.839844,353.945312,239.839844,376C239.839844,386.878906,244.230469,396.734375,251.3125,403.953125C236.792969,409.742188,225.121094,421.480469,219.496094,436.183594C207.382812,422.160156,200,403.945312,200,384C200,339.886719,235.886719,304,280,304C324.113281,304,360,339.886719,360,384ZM304.953125,291.40625C296.984375,289.257812,288.640625,288,280,288C258.046875,288,237.855469,295.488281,221.664062,307.9375L190.175781,273.296875C206.144531,256.144531,216,233.230469,216,208C216,197.519531,214.257812,187.457031,211.136719,178.007812L299.121094,140.71875C308.976562,159.351562,324.792969,174.304688,344.007812,183.160156ZM304.953125,291.40625" transform="matrix(1 0 0 1 5 5)" fill="rgb(47,83,115)" stroke="none" stroke-width="1"/><g id="eeyNr5RfM2I3" transform="matrix(1 0 0 1 0.000001 0)"><rect id="eeyNr5RfM2I4" width="129.527344" height="125.749661" rx="0" ry="0" transform="matrix(1 0 0 1.12472 360.472656 225.535903)" fill="rgb(242,241,236)" stroke="none" stroke-width="0"/><rect id="eeyNr5RfM2I5" width="134.054688" height="80" rx="32" ry="32" transform="matrix(0.989837 0 0 1.475909 69.559404 366.969062)" fill="rgb(242,241,236)" stroke="none" stroke-width="0"/><ellipse id="eeyNr5RfM2I6" display="none" rx="94.846294" ry="88.53125" transform="matrix(1.110239 0 0 1.165625 289.706263 399.474282)" fill="rgb(242,241,236)" stroke="none" stroke-width="0"/><ellipse id="eeyNr5RfM2I7" display="none" rx="87.635073" ry="106.537627" transform="matrix(1.21268 0 0 1 397.199355 89.773717)" fill="rgb(242,241,236)" stroke="none" stroke-width="0"/><ellipse id="eeyNr5RfM2I8" rx="87.635073" ry="106.537627" transform="matrix(1.21268 0 0 1 258.341133 5)" fill="rgb(242,241,236)" stroke="none" stroke-width="0"/></g><g id="eeyNr5RfM2I9" transform="matrix(1.364338 -0.319454 0.319454 1.364338 45.733984 366.814091)"><path id="eeyNr5RfM2I10" d="M66.9841,45.007L88.4936,45.0083L88.5342,56.446L66.9797,56.4442C65.3604,64.3174,60.572,71.5004,53.0074,75.7078C39.2345,83.3683,21.7948,78.3949,14.1343,64.622C6.47378,50.8492,11.4472,33.4094,25.2201,25.7489C38.9929,18.0884,56.4327,23.0619,64.0932,36.8347C65.5491,39.4522,66.4101,42.212,66.9841,45.007Z" fill="rgb(242,241,236)" stroke="none" stroke-width="1"/><path id="eeyNr5RfM2I11" d="M88.4936,45.0083L66.9841,45.007C66.4101,42.212,65.549,39.4522,64.0932,36.8347C56.4327,23.0619,38.9929,18.0884,25.2201,25.7489C11.4472,33.4094,6.47375,50.8492,14.1343,64.622C21.7948,78.3949,39.2345,83.3684,53.0074,75.7078C60.5719,71.5004,65.3604,64.3174,66.9797,56.4442L88.5342,56.446L95.4375,56.446L95.4375,45.0083L88.4936,45.0083ZM30.7775,35.7407C22.5153,40.3362,19.5305,50.8023,24.126,59.0646C28.7215,67.3268,39.1877,70.3116,47.4499,65.7161C55.7122,61.1206,58.6969,50.6544,54.1014,42.3922C49.5059,34.1299,39.0398,31.1452,30.7775,35.7407Z" clip-rule="evenodd" fill="rgb(47,83,115)" fill-rule="evenodd" stroke="none" stroke-width="1"/></g><g id="eeyNr5RfM2I12" transform="matrix(1.317746 0.476461 -0.476461 1.317746 209.596561 -39.977588)"><path id="eeyNr5RfM2I13" d="M66.9841,45.007L88.4936,45.0083L88.5342,56.446L66.9797,56.4442C65.3604,64.3174,60.572,71.5004,53.0074,75.7078C39.2345,83.3683,21.7948,78.3949,14.1343,64.622C6.47378,50.8492,11.4472,33.4094,25.2201,25.7489C38.9929,18.0884,56.4327,23.0619,64.0932,36.8347C65.5491,39.4522,66.4101,42.212,66.9841,45.007Z" fill="rgb(242,241,236)" stroke="none" stroke-width="1"/><path id="eeyNr5RfM2I14" d="M88.4936,45.0083L66.9841,45.007C66.4101,42.212,65.549,39.4522,64.0932,36.8347C56.4327,23.0619,38.9929,18.0884,25.2201,25.7489C11.4472,33.4094,6.47375,50.8492,14.1343,64.622C21.7948,78.3949,39.2345,83.3684,53.0074,75.7078C60.5719,71.5004,65.3604,64.3174,66.9797,56.4442L88.5342,56.446L95.4375,56.446L95.4375,45.0083L88.4936,45.0083ZM30.7775,35.7407C22.5153,40.3362,19.5305,50.8023,24.126,59.0646C28.7215,67.3268,39.1877,70.3116,47.4499,65.7161C55.7122,61.1206,58.6969,50.6544,54.1014,42.3922C49.5059,34.1299,39.0398,31.1452,30.7775,35.7407Z" clip-rule="evenodd" fill="rgb(47,83,115)" fill-rule="evenodd" stroke="none" stroke-width="1"/></g><g id="eeyNr5RfM2I15" transform="matrix(-1.174641 0.763994 -0.763994 -1.174641 529.199632 315.57808)"><path id="eeyNr5RfM2I16" d="M66.9841,45.007L88.4936,45.0083L88.5342,56.446L66.9797,56.4442C65.3604,64.3174,60.572,71.5004,53.0074,75.7078C39.2345,83.3683,21.7948,78.3949,14.1343,64.622C6.47378,50.8492,11.4472,33.4094,25.2201,25.7489C38.9929,18.0884,56.4327,23.0619,64.0932,36.8347C65.5491,39.4522,66.4101,42.212,66.9841,45.007Z" fill="rgb(242,241,236)" stroke="none" stroke-width="1"/><path id="eeyNr5RfM2I17" d="M88.4936,45.0083L66.9841,45.007C66.4101,42.212,65.549,39.4522,64.0932,36.8347C56.4327,23.0619,38.9929,18.0884,25.2201,25.7489C11.4472,33.4094,6.47375,50.8492,14.1343,64.622C21.7948,78.3949,39.2345,83.3684,53.0074,75.7078C60.5719,71.5004,65.3604,64.3174,66.9797,56.4442L88.5342,56.446L111.05159,57.397014L110.883695,45.686557L88.4936,45.0083ZM30.7775,35.7407C22.5153,40.3362,19.5305,50.8023,24.126,59.0646C28.7215,67.3268,39.1877,70.3116,47.4499,65.7161C55.7122,61.1206,58.6969,50.6544,54.1014,42.3922C49.5059,34.1299,39.0398,31.1452,30.7775,35.7407Z" clip-rule="evenodd" fill="rgb(47,83,115)" fill-rule="evenodd" stroke="none" stroke-width="1"/></g><g id="eeyNr5RfM2I18" transform="matrix(1.395982 0 0 1.395982 28.934056 117.306021)"><path id="eeyNr5RfM2I19" d="M68.75,0.033447C95.0417,0.033447,117.892,14.9141,129.403,36.6782L133.875,47.2015C136.105,53.9538,137.35,61.1443,137.35,68.6334C137.35,86.6627,130.307,103.037,118.896,115.294L110.436,122.986C98.8658,131.882,84.4374,137.233,68.75,137.233C58.7124,137.233,49.1995,135.014,40.6021,131.123L30.5868,125.599C12.2477,113.275,0.150024,92.3459,0.150024,68.6334C0.150024,43.3886,13.8918,21.3453,34.249,9.43189L44.5686,4.51634C52.1025,1.66917,60.2309,0.033447,68.75,0.033447Z" fill="rgb(242,241,236)" stroke="none" stroke-width="1"/><path id="eeyNr5RfM2I20" d="M129.403,36.6782C117.892,14.9141,95.0417,0.033447,68.75,0.033447C60.2308,0.033447,52.1025,1.66917,44.5686,4.51634L34.249,9.43189C13.8918,21.3453,0.150024,43.3886,0.150024,68.6334C0.150024,92.3459,12.2477,113.275,30.5868,125.599L40.6021,131.123C49.1995,135.014,58.7124,137.233,68.75,137.233C84.4374,137.233,98.8658,131.882,110.436,122.986L118.896,115.294C130.307,103.037,137.35,86.6627,137.35,68.6334C137.35,61.1443,136.105,53.9538,133.875,47.2015L129.403,36.6782ZM68.75,11.4668C37.2274,11.4668,11.5834,37.1108,11.5834,68.6334C11.5834,82.886,16.859,95.9021,25.5149,105.923C29.5345,95.4164,37.875,87.0284,48.2504,82.8916C43.1897,77.7332,40.0522,70.6907,40.0522,62.9168C40.0522,47.1569,52.8757,34.3335,68.6356,34.3335C84.3955,34.3335,97.2189,47.1569,97.2189,62.9168C97.2189,70.6907,94.0814,77.7332,89.0263,82.8916C99.4604,87.0591,107.829,95.5196,111.82,106.107C120.571,96.0612,125.917,82.9698,125.917,68.6334C125.917,37.1108,100.273,11.4668,68.75,11.4668ZM34.9888,114.657C37.5652,101.471,49.2051,91.5001,62.9189,91.5001L74.3522,91.5001C88.1191,91.5001,99.7981,101.543,102.313,114.808C92.8756,121.688,81.2971,125.8,68.75,125.8C56.1108,125.8,44.4598,121.627,34.9888,114.657ZM68.6356,45.7668C59.1813,45.7668,51.4856,53.4625,51.4856,62.9168C51.4856,72.3711,59.1813,80.0668,68.6356,80.0668C78.0899,80.0668,85.7856,72.3711,85.7856,62.9168C85.7856,53.4625,78.0899,45.7668,68.6356,45.7668Z" clip-rule="evenodd" fill="rgb(47,83,115)" fill-rule="evenodd" stroke="none" stroke-width="1"/></g><g id="eeyNr5RfM2I21" transform="matrix(1.395982 0 0 1.395982 188.926257 293.425201)"><path id="eeyNr5RfM2I22" d="M68.75,0.033447C95.0417,0.033447,117.892,14.9141,129.403,36.6782L133.875,47.2015C136.105,53.9538,137.35,61.1443,137.35,68.6334C137.35,86.6627,130.307,103.037,118.896,115.294L110.436,122.986C98.8658,131.882,84.4374,137.233,68.75,137.233C58.7124,137.233,49.1995,135.014,40.6021,131.123L30.5868,125.599C12.2477,113.275,0.150024,92.3459,0.150024,68.6334C0.150024,43.3886,13.8918,21.3453,34.249,9.43189L44.5686,4.51634C52.1025,1.66917,60.2309,0.033447,68.75,0.033447Z" fill="rgb(242,241,236)" stroke="none" stroke-width="1"/><path id="eeyNr5RfM2I23" d="M129.403,36.6782C117.892,14.9141,95.0417,0.033447,68.75,0.033447C60.2308,0.033447,52.1025,1.66917,44.5686,4.51634L34.249,9.43189C13.8918,21.3453,0.150024,43.3886,0.150024,68.6334C0.150024,92.3459,12.2477,113.275,30.5868,125.599L40.6021,131.123C49.1995,135.014,58.7124,137.233,68.75,137.233C84.4374,137.233,98.8658,131.882,110.436,122.986L118.896,115.294C130.307,103.037,137.35,86.6627,137.35,68.6334C137.35,61.1443,136.105,53.9538,133.875,47.2015L129.403,36.6782ZM68.75,11.4668C37.2274,11.4668,11.5834,37.1108,11.5834,68.6334C11.5834,82.886,16.859,95.9021,25.5149,105.923C29.5345,95.4164,37.875,87.0284,48.2504,82.8916C43.1897,77.7332,40.0522,70.6907,40.0522,62.9168C40.0522,47.1569,52.8757,34.3335,68.6356,34.3335C84.3955,34.3335,97.2189,47.1569,97.2189,62.9168C97.2189,70.6907,94.0814,77.7332,89.0263,82.8916C99.4604,87.0591,107.829,95.5196,111.82,106.107C120.571,96.0612,125.917,82.9698,125.917,68.6334C125.917,37.1108,100.273,11.4668,68.75,11.4668ZM34.9888,114.657C37.5652,101.471,49.2051,91.5001,62.9189,91.5001L74.3522,91.5001C88.1191,91.5001,99.7981,101.543,102.313,114.808C92.8756,121.688,81.2971,125.8,68.75,125.8C56.1108,125.8,44.4598,121.627,34.9888,114.657ZM68.6356,45.7668C59.1813,45.7668,51.4856,53.4625,51.4856,62.9168C51.4856,72.3711,59.1813,80.0668,68.6356,80.0668C78.0899,80.0668,85.7856,72.3711,85.7856,62.9168C85.7856,53.4625,78.0899,45.7668,68.6356,45.7668Z" clip-rule="evenodd" fill="rgb(47,83,115)" fill-rule="evenodd" stroke="none" stroke-width="1"/></g><g id="eeyNr5RfM2I24" transform="matrix(1.395982 0 0 1.395982 293.261864 4.953309)"><path id="eeyNr5RfM2I25" d="M68.75,0.033447C95.0417,0.033447,117.892,14.9141,129.403,36.6782L133.875,47.2015C136.105,53.9538,137.35,61.1443,137.35,68.6334C137.35,86.6627,130.307,103.037,118.896,115.294L110.436,122.986C98.8658,131.882,84.4374,137.233,68.75,137.233C58.7124,137.233,49.1995,135.014,40.6021,131.123L30.5868,125.599C12.2477,113.275,0.150024,92.3459,0.150024,68.6334C0.150024,43.3886,13.8918,21.3453,34.249,9.43189L44.5686,4.51634C52.1025,1.66917,60.2309,0.033447,68.75,0.033447Z" fill="rgb(242,241,236)" stroke="none" stroke-width="1"/><path id="eeyNr5RfM2I26" d="M129.403,36.6782C117.892,14.9141,95.0417,0.033447,68.75,0.033447C60.2308,0.033447,52.1025,1.66917,44.5686,4.51634L34.249,9.43189C13.8918,21.3453,0.150024,43.3886,0.150024,68.6334C0.150024,92.3459,12.2477,113.275,30.5868,125.599L40.6021,131.123C49.1995,135.014,58.7124,137.233,68.75,137.233C84.4374,137.233,98.8658,131.882,110.436,122.986L118.896,115.294C130.307,103.037,137.35,86.6627,137.35,68.6334C137.35,61.1443,136.105,53.9538,133.875,47.2015L129.403,36.6782ZM68.75,11.4668C37.2274,11.4668,11.5834,37.1108,11.5834,68.6334C11.5834,82.886,16.859,95.9021,25.5149,105.923C29.5345,95.4164,37.875,87.0284,48.2504,82.8916C43.1897,77.7332,40.0522,70.6907,40.0522,62.9168C40.0522,47.1569,52.8757,34.3335,68.6356,34.3335C84.3955,34.3335,97.2189,47.1569,97.2189,62.9168C97.2189,70.6907,94.0814,77.7332,89.0263,82.8916C99.4604,87.0591,107.829,95.5196,111.82,106.107C120.571,96.0612,125.917,82.9698,125.917,68.6334C125.917,37.1108,100.273,11.4668,68.75,11.4668ZM34.9888,114.657C37.5652,101.471,49.2051,91.5001,62.9189,91.5001L74.3522,91.5001C88.1191,91.5001,99.7981,101.543,102.313,114.808C92.8756,121.688,81.2971,125.8,68.75,125.8C56.1108,125.8,44.4598,121.627,34.9888,114.657ZM68.6356,45.7668C59.1813,45.7668,51.4856,53.4625,51.4856,62.9168C51.4856,72.3711,59.1813,80.0668,68.6356,80.0668C78.0899,80.0668,85.7856,72.3711,85.7856,62.9168C85.7856,53.4625,78.0899,45.7668,68.6356,45.7668Z" clip-rule="evenodd" fill="rgb(47,83,115)" fill-rule="evenodd" stroke="none" stroke-width="1"/></g><script><![CDATA[!function(t,n){"object"==typeof exports&&"undefined"!=typeof module?module.exports=n():"function"==typeof define&&define.amd?define(n):((t="undefined"!=typeof globalThis?globalThis:t||self).__SVGATOR_PLAYER__=t.__SVGATOR_PLAYER__||{},t.__SVGATOR_PLAYER__["91c80d77"]=n())}(this,(function(){"use strict";function t(t,n){var e=Object.keys(t);if(Object.getOwnPropertySymbols){var r=Object.getOwnPropertySymbols(t);n&&(r=r.filter((function(n){return Object.getOwnPropertyDescriptor(t,n).enumerable}))),e.push.apply(e,r)}return e}function n(t){return(n="function"==typeof Symbol&&"symbol"==typeof Symbol.iterator?function(t){return typeof t}:function(t){return t&&"function"==typeof Symbol&&t.constructor===Symbol&&t!==Symbol.prototype?"symbol":typeof t})(t)}function e(t,n){if(!(t instanceof n))throw new TypeError("Cannot call a class as a function")}function r(t,n){for(var e=0;e<n.length;e++){var r=n[e];r.enumerable=r.enumerable||!1,r.configurable=!0,"value"in r&&(r.writable=!0),Object.defineProperty(t,r.key,r)}}function i(t,n,e){return n&&r(t.prototype,n),e&&r(t,e),t}function u(t,n,e){return n in t?Object.defineProperty(t,n,{value:e,enumerable:!0,configurable:!0,writable:!0}):t[n]=e,t}function o(t){return(o=Object.setPrototypeOf?Object.getPrototypeOf:function(t){return t.__proto__||Object.getPrototypeOf(t)})(t)}function a(t,n){return(a=Object.setPrototypeOf||function(t,n){return t.__proto__=n,t})(t,n)}function l(t,n){if(n&&("object"==typeof n||"function"==typeof n))return n;if(void 0!==n)throw new TypeError("Derived constructors may only return object or undefined");return function(t){if(void 0===t)throw new ReferenceError("this hasn't been initialised - super() hasn't been called");return t}(t)}function s(t){var n=function(){if("undefined"==typeof Reflect||!Reflect.construct)return!1;if(Reflect.construct.sham)return!1;if("function"==typeof Proxy)return!0;try{return Boolean.prototype.valueOf.call(Reflect.construct(Boolean,[],(function(){}))),!0}catch(t){return!1}}();return function(){var e,r=o(t);if(n){var i=o(this).constructor;e=Reflect.construct(r,arguments,i)}else e=r.apply(this,arguments);return l(this,e)}}function f(t,n,e){return(f="undefined"!=typeof Reflect&&Reflect.get?Reflect.get:function(t,n,e){var r=function(t,n){for(;!Object.prototype.hasOwnProperty.call(t,n)&&null!==(t=o(t)););return t}(t,n);if(r){var i=Object.getOwnPropertyDescriptor(r,n);return i.get?i.get.call(e):i.value}})(t,n,e||t)}var c=h(Math.pow(10,-6));function h(t){var n=arguments.length>1&&void 0!==arguments[1]?arguments[1]:6;if(Number.isInteger(t))return t;var e=Math.pow(10,n);return Math.round((+t+Number.EPSILON)*e)/e}function v(t,n){var e=arguments.length>2&&void 0!==arguments[2]?arguments[2]:c;return Math.abs(t-n)<e}var d=Math.PI/180;function y(t){return t}function g(t,n,e){var r=1-e;return 3*e*r*(t*r+n*e)+e*e*e}function p(){var t=arguments.length>0&&void 0!==arguments[0]?arguments[0]:0,n=arguments.length>1&&void 0!==arguments[1]?arguments[1]:0,e=arguments.length>2&&void 0!==arguments[2]?arguments[2]:1,r=arguments.length>3&&void 0!==arguments[3]?arguments[3]:1;return t<0||t>1||e<0||e>1?null:v(t,n)&&v(e,r)?y:function(i){if(i<=0)return t>0?i*n/t:0===n&&e>0?i*r/e:0;if(i>=1)return e<1?1+(i-1)*(r-1)/(e-1):1===e&&t<1?1+(i-1)*(n-1)/(t-1):1;for(var u,o=0,a=1;o<a;){var l=g(t,e,u=(o+a)/2);if(v(i,l))break;l<i?o=u:a=u}return g(n,r,u)}}function b(){return 1}function m(t){return 1===t?1:0}function w(){var t=arguments.length>0&&void 0!==arguments[0]?arguments[0]:1,n=arguments.length>1&&void 0!==arguments[1]?arguments[1]:0;if(1===t){if(0===n)return m;if(1===n)return b}var e=1/t;return function(t){return t>=1?1:(t+=n*e)-t%e}}function x(t,n,e){return t>=.5?e:n}function A(t,n,e){return 0===t||n===e?n:t*(e-n)+n}function k(t,n,e){var r=A(t,n,e);return r<=0?0:r}function _(t,n,e){return 0===t?n:1===t?e:{x:A(t,n.x,e.x),y:A(t,n.y,e.y)}}function S(t,n,e){return 0===t?n:1===t?e:{x:k(t,n.x,e.x),y:k(t,n.y,e.y)}}function O(t,n,e){var r=function(t,n,e){return Math.round(A(t,n,e))}(t,n,e);return r<=0?0:r>=255?255:r}function M(t,n,e){return 0===t?n:1===t?e:{r:O(t,n.r,e.r),g:O(t,n.g,e.g),b:O(t,n.b,e.b),a:A(t,null==n.a?1:n.a,null==e.a?1:e.a)}}function E(t,n,e){if(0===t)return n;if(1===t)return e;var r=n.length;if(r!==e.length)return x(t,n,e);for(var i=[],u=0;u<r;u++)i.push(M(t,n[u],e[u]));return i}function P(t,n,e){var r=n.length;if(r!==e.length)return x(t,n,e);for(var i=new Array(r),u=0;u<r;u++)i[u]=A(t,n[u],e[u]);return i}function j(t,n){for(var e=[],r=0;r<t;r++)e.push(n);return e}function B(t,n){if(--n<=0)return t;var e=(t=Object.assign([],t)).length;do{for(var r=0;r<e;r++)t.push(t[r])}while(--n>0);return t}var I,R=function(){function t(n){e(this,t),this.list=n,this.length=n.length}return i(t,[{key:"setAttribute",value:function(t,n){for(var e=this.list,r=0;r<this.length;r++)e[r].setAttribute(t,n)}},{key:"removeAttribute",value:function(t){for(var n=this.list,e=0;e<this.length;e++)n[e].removeAttribute(t)}},{key:"style",value:function(t,n){for(var e=this.list,r=0;r<this.length;r++)e[r].style[t]=n}}]),t}(),T=/-./g,N=function(t,n){return n.toUpperCase()};function C(t){return"function"==typeof t?t:x}function F(t){return t?"function"==typeof t?t:Array.isArray(t)?function(t){var n=arguments.length>1&&void 0!==arguments[1]?arguments[1]:y;if(!Array.isArray(t))return n;switch(t.length){case 1:return w(t[0])||n;case 2:return w(t[0],t[1])||n;case 4:return p(t[0],t[1],t[2],t[3])||n}return n}(t,null):function(t,n){var e=arguments.length>2&&void 0!==arguments[2]?arguments[2]:y;switch(t){case"linear":return y;case"steps":return w(n.steps||1,n.jump||0)||e;case"bezier":case"cubic-bezier":return p(n.x1||0,n.y1||0,n.x2||0,n.y2||0)||e}return e}(t.type,t.value,null):null}function L(t,n,e){var r=arguments.length>3&&void 0!==arguments[3]&&arguments[3],i=n.length-1;if(t<=n[0].t)return r?[0,0,n[0].v]:n[0].v;if(t>=n[i].t)return r?[i,1,n[i].v]:n[i].v;var u,o=n[0],a=null;for(u=1;u<=i;u++){if(!(t>n[u].t)){a=n[u];break}o=n[u]}return null==a?r?[i,1,n[i].v]:n[i].v:o.t===a.t?r?[u,1,a.v]:a.v:(t=(t-o.t)/(a.t-o.t),o.e&&(t=o.e(t)),r?[u,t,e(t,o.v,a.v)]:e(t,o.v,a.v))}function V(t,n){var e=arguments.length>2&&void 0!==arguments[2]?arguments[2]:null;return t&&t.length?"function"!=typeof n?null:("function"!=typeof e&&(e=null),function(r){var i=L(r,t,n);return null!=i&&e&&(i=e(i)),i}):null}function q(t,n){return t.t-n.t}function D(t,e,r,i,u){var o,a="@"===r[0],l="#"===r[0],s=I[r],f=x;switch(a?(o=r.substr(1),r=o.replace(T,N)):l&&(r=r.substr(1)),n(s)){case"function":if(f=s(i,u,L,F,r,a,e,t),l)return f;break;case"string":f=V(i,C(s));break;case"object":if((f=V(i,C(s.i),s.f))&&"function"==typeof s.u)return s.u(e,f,r,a,t)}return f?function(t,n,e){if(arguments.length>3&&void 0!==arguments[3]&&arguments[3])return t instanceof R?function(r){return t.style(n,e(r))}:function(r){return t.style[n]=e(r)};if(Array.isArray(n)){var r=n.length;return function(i){var u=e(i);if(null==u)for(var o=0;o<r;o++)t[o].removeAttribute(n);else for(var a=0;a<r;a++)t[a].setAttribute(n,u)}}return function(r){var i=e(r);null==i?t.removeAttribute(n):t.setAttribute(n,i)}}(e,r,f,a):null}function z(t,e,r,i){if(!i||"object"!==n(i))return null;var u=null,o=null;return Array.isArray(i)?o=function(t){if(!t||!t.length)return null;for(var n=0;n<t.length;n++)t[n].e&&(t[n].e=F(t[n].e));return t.sort(q)}(i):(o=i.keys,u=i.data||null),o?D(t,e,r,o,u):null}function Y(t,n,e){if(!e)return null;var r=[];for(var i in e)if(e.hasOwnProperty(i)){var u=z(t,n,i,e[i]);u&&r.push(u)}return r.length?r:null}function G(t,n){if(!n.duration||n.duration<0)return null;var e=function(t,n){if(!n)return null;var e=[];if(Array.isArray(n))for(var r=n.length,i=0;i<r;i++){var u=n[i];if(2===u.length){var o=null;if("string"==typeof u[0])o=t.getElementById(u[0]);else if(Array.isArray(u[0])){o=[];for(var a=0;a<u[0].length;a++)if("string"==typeof u[0][a]){var l=t.getElementById(u[0][a]);l&&o.push(l)}o=o.length?1===o.length?o[0]:new R(o):null}if(o){var s=Y(t,o,u[1]);s&&(e=e.concat(s))}}}else for(var f in n)if(n.hasOwnProperty(f)){var c=t.getElementById(f);if(c){var h=Y(t,c,n[f]);h&&(e=e.concat(h))}}return e.length?e:null}(t,n.elements);return e?function(t,n){var e=arguments.length>2&&void 0!==arguments[2]?arguments[2]:1/0,r=arguments.length>3&&void 0!==arguments[3]?arguments[3]:1,i=arguments.length>4&&void 0!==arguments[4]&&arguments[4],u=arguments.length>5&&void 0!==arguments[5]?arguments[5]:1,o=t.length,a=r>0?n:0;i&&e%2==0&&(a=n-a);var l=null;return function(s,f){var c=s%n,h=1+(s-c)/n;f*=r,i&&h%2==0&&(f=-f);var v=!1;if(h>e)c=a,v=!0,-1===u&&(c=r>0?0:n);else if(f<0&&(c=n-c),c===l)return!1;l=c;for(var d=0;d<o;d++)t[d](c);return v}}(e,n.duration,n.iterations||1/0,n.direction||1,!!n.alternate,n.fill||1):null}function U(t){return+("0x"+(t.replace(/[^0-9a-fA-F]+/g,"")||27))}function W(t,n,e){return!t||!e||n>t.length?t:t.substring(0,n)+W(t.substring(n+1),e,e)}function H(t){var n=arguments.length>1&&void 0!==arguments[1]?arguments[1]:27;return!t||t%n?t%n:H(t/n,n)}function Q(t,n,e){if(t&&t.length){var r=U(e),i=U(n),u=H(r)+5,o=W(t,H(r,5),u);return o=o.replace(/\x7c$/g,"==").replace(/\x2f$/g,"="),o=function(t,n,e){var r=+("0x"+t.substring(0,4));t=t.substring(4);for(var i=n%r+e%27,u=[],o=0;o<t.length;o+=2)if("|"!==t[o]){var a=+("0x"+t[o]+t[o+1])-i;u.push(a)}else{var l=+("0x"+t.substring(o+1,o+1+4))-i;o+=3,u.push(l)}return String.fromCharCode.apply(String,u)}(o=(o=atob(o)).replace(/[\x41-\x5A]/g,""),i,r),o=JSON.parse(o)}}Number.isInteger||(Number.isInteger=function(t){return"number"==typeof t&&isFinite(t)&&Math.floor(t)===t}),Number.EPSILON||(Number.EPSILON=2220446049250313e-31);var X=function(){function n(t,r){var i=arguments.length>2&&void 0!==arguments[2]?arguments[2]:{};e(this,n),this._id=0,this._running=!1,this._rollingBack=!1,this._animations=t,this.duration=r.duration,this.alternate=r.alternate,this.fill=r.fill,this.iterations=r.iterations,this.direction=i.direction||1,this.speed=i.speed||1,this.fps=i.fps||100,this.offset=i.offset||0,this.rollbackStartOffset=0}return i(n,[{key:"_rollback",value:function(){var t=this,n=1/0,e=null;this.rollbackStartOffset=this.offset,this._rollingBack||(this._rollingBack=!0,this._running=!0);this._id=window.requestAnimationFrame((function r(i){if(t._rollingBack){null==e&&(e=i);var u=i-e,o=t.rollbackStartOffset-u,a=Math.round(o*t.speed);if(a>t.duration&&n!=1/0){var l=!!t.alternate&&a/t.duration%2>1,s=a%t.duration;a=(s+=l?t.duration:0)||t.duration}var f=t.fps?1e3/t.fps:0,c=Math.max(0,a);if(c<n-f){t.offset=c,n=c;for(var h=t._animations,v=h.length,d=0;d<v;d++)h[d](c,t.direction)}var y=!1;if(t.iterations>0&&-1===t.fill){var g=t.iterations*t.duration,p=g==a;a=p?0:a,t.offset=p?0:t.offset,y=a>g}a>0&&t.offset>=a&&!y?t._id=window.requestAnimationFrame(r):t.stop()}}))}},{key:"_start",value:function(){var t=this,n=arguments.length>0&&void 0!==arguments[0]?arguments[0]:0,e=-1/0,r=null,i={},u=function u(o){t._running=!0,null==r&&(r=o);var a=Math.round((o-r+n)*t.speed),l=t.fps?1e3/t.fps:0;if(a>e+l&&!t._rollingBack){t.offset=a,e=a;for(var s=t._animations,f=s.length,c=0,h=0;h<f;h++)i[h]?c++:(i[h]=s[h](a,t.direction),i[h]&&c++);if(c===f)return void t._stop()}t._id=window.requestAnimationFrame(u)};this._id=window.requestAnimationFrame(u)}},{key:"_stop",value:function(){this._id&&window.cancelAnimationFrame(this._id),this._running=!1,this._rollingBack=!1}},{key:"play",value:function(){!this._rollingBack&&this._running||(this._rollingBack=!1,this.rollbackStartOffset>this.duration&&(this.offset=this.rollbackStartOffset-(this.rollbackStartOffset-this.offset)%this.duration,this.rollbackStartOffset=0),this._start(this.offset))}},{key:"stop",value:function(){this._stop(),this.offset=0,this.rollbackStartOffset=0;var t=this.direction,n=this._animations;window.requestAnimationFrame((function(){for(var e=0;e<n.length;e++)n[e](0,t)}))}},{key:"reachedToEnd",value:function(){return this.iterations>0&&this.offset>=this.iterations*this.duration}},{key:"restart",value:function(){this._stop(),this.offset=0,this._start()}},{key:"pause",value:function(){this._stop()}},{key:"reverse",value:function(){this.direction=-this.direction}}],[{key:"build",value:function(e,r){return delete e.animationSettings,e.options=Q(e.options,e.root,"91c80d77"),e.animations.map((function(n){var r=Q(n.s,e.root,"91c80d77");for(var i in delete n.s,e.animationSettings||(e.animationSettings=function(n){for(var e=1;e<arguments.length;e++){var r=null!=arguments[e]?arguments[e]:{};e%2?t(Object(r),!0).forEach((function(t){u(n,t,r[t])})):Object.getOwnPropertyDescriptors?Object.defineProperties(n,Object.getOwnPropertyDescriptors(r)):t(Object(r)).forEach((function(t){Object.defineProperty(n,t,Object.getOwnPropertyDescriptor(r,t))}))}return n}({},r)),r)r.hasOwnProperty(i)&&(n[i]=r[i])})),(e=function(t,n){if(I=n,!t||!t.root||!Array.isArray(t.animations))return null;for(var e=document.getElementsByTagName("svg"),r=!1,i=0;i<e.length;i++)if(e[i].id===t.root&&!e[i].svgatorAnimation){(r=e[i]).svgatorAnimation=!0;break}if(!r)return null;var u=t.animations.map((function(t){return G(r,t)})).filter((function(t){return!!t}));return u.length?{element:r,animations:u,animationSettings:t.animationSettings,options:t.options||void 0}:null}(e,r))?{el:e.element,options:e.options||{},player:new n(e.animations,e.animationSettings,e.options)}:null}},{key:"push",value:function(t){return this.build(t)}},{key:"init",value:function(){var t=this,n=window.__SVGATOR_PLAYER__&&window.__SVGATOR_PLAYER__["91c80d77"];Array.isArray(n)&&n.splice(0).forEach((function(n){return t.build(n)}))}}]),n}();!function(){for(var t=0,n=["ms","moz","webkit","o"],e=0;e<n.length&&!window.requestAnimationFrame;++e)window.requestAnimationFrame=window[n[e]+"RequestAnimationFrame"],window.cancelAnimationFrame=window[n[e]+"CancelAnimationFrame"]||window[n[e]+"CancelRequestAnimationFrame"];window.requestAnimationFrame||(window.requestAnimationFrame=function(n){var e=Date.now(),r=Math.max(0,16-(e-t)),i=window.setTimeout((function(){n(e+r)}),r);return t=e+r,i},window.cancelAnimationFrame=window.clearTimeout)}();var $=function(t,n){var e=!1,r=null;return function(i){e&&clearTimeout(e),e=setTimeout((function(){return function(){for(var i=0,u=window.innerHeight,o=0,a=window.innerWidth,l=t.parentNode;l instanceof Element;){var s=window.getComputedStyle(l);if("visible"!==s.overflowY||"visible"!==s.overflowX){var f=l.getBoundingClientRect();"visible"!==s.overflowY&&(i=Math.max(i,f.top),u=Math.min(u,f.bottom)),"visible"!==s.overflowX&&(o=Math.max(o,f.left),a=Math.min(a,f.right))}if(l===l.parentNode)break;l=l.parentNode}e=!1;var c=t.getBoundingClientRect(),h=Math.min(c.height,Math.max(0,i-c.top)),v=Math.min(c.height,Math.max(0,c.bottom-u)),d=Math.min(c.width,Math.max(0,o-c.left)),y=Math.min(c.width,Math.max(0,c.right-a)),g=(c.height-h-v)/c.height,p=(c.width-d-y)/c.width,b=Math.round(g*p*100);null!==r&&r===b||(r=b,n(b))}()}),100)}},J=function(){function t(n,r,i){e(this,t),r=Math.max(1,r||1),r=Math.min(r,100),this.el=n,this.onTresholdChange=i&&i.call?i:function(){},this.tresholdPercent=r||1,this.currentVisibility=null,this.visibilityCalculator=$(n,this.onVisibilityUpdate.bind(this)),this.bindScrollWatchers(),this.visibilityCalculator()}return i(t,[{key:"bindScrollWatchers",value:function(){for(var t=this.el.parentNode;t&&(t.addEventListener("scroll",this.visibilityCalculator),t!==t.parentNode&&t!==document);)t=t.parentNode}},{key:"onVisibilityUpdate",value:function(t){var n=this.currentVisibility>=this.tresholdPercent,e=t>=this.tresholdPercent;if(null===this.currentVisibility||n!==e)return this.currentVisibility=t,void this.onTresholdChange(e);this.currentVisibility=t}}]),t}();function Z(t){return h(t)+""}function K(t){var n=arguments.length>1&&void 0!==arguments[1]?arguments[1]:" ";return t&&t.length?t.map(Z).join(n):""}function tt(t){return Z(t.x)+","+Z(t.y)}function nt(t){return t?null==t.a||t.a>=1?"rgb("+t.r+","+t.g+","+t.b+")":"rgba("+t.r+","+t.g+","+t.b+","+t.a+")":"transparent"}var et={f:null,i:S,u:function(t,n){return function(e){var r=n(e);t.setAttribute("rx",Z(r.x)),t.setAttribute("ry",Z(r.y))}}},rt={f:null,i:function(t,n,e){return 0===t?n:1===t?e:{width:k(t,n.width,e.width),height:k(t,n.height,e.height)}},u:function(t,n){return function(e){var r=n(e);t.setAttribute("width",Z(r.width)),t.setAttribute("height",Z(r.height))}}},it=Math.sin,ut=Math.cos,ot=Math.acos,at=Math.asin,lt=Math.tan,st=Math.atan2,ft=Math.PI/180,ct=180/Math.PI,ht=Math.sqrt,vt=function(){function t(){var n=arguments.length>0&&void 0!==arguments[0]?arguments[0]:1,r=arguments.length>1&&void 0!==arguments[1]?arguments[1]:0,i=arguments.length>2&&void 0!==arguments[2]?arguments[2]:0,u=arguments.length>3&&void 0!==arguments[3]?arguments[3]:1,o=arguments.length>4&&void 0!==arguments[4]?arguments[4]:0,a=arguments.length>5&&void 0!==arguments[5]?arguments[5]:0;e(this,t),this.m=[n,r,i,u,o,a],this.i=null,this.w=null,this.s=null}return i(t,[{key:"determinant",get:function(){var t=this.m;return t[0]*t[3]-t[1]*t[2]}},{key:"isIdentity",get:function(){if(null===this.i){var t=this.m;this.i=1===t[0]&&0===t[1]&&0===t[2]&&1===t[3]&&0===t[4]&&0===t[5]}return this.i}},{key:"point",value:function(t,n){var e=this.m;return{x:e[0]*t+e[2]*n+e[4],y:e[1]*t+e[3]*n+e[5]}}},{key:"translateSelf",value:function(){var t=arguments.length>0&&void 0!==arguments[0]?arguments[0]:0,n=arguments.length>1&&void 0!==arguments[1]?arguments[1]:0;if(!t&&!n)return this;var e=this.m;return e[4]+=e[0]*t+e[2]*n,e[5]+=e[1]*t+e[3]*n,this.w=this.s=this.i=null,this}},{key:"rotateSelf",value:function(){var t=arguments.length>0&&void 0!==arguments[0]?arguments[0]:0;if(t%=360){var n=it(t*=ft),e=ut(t),r=this.m,i=r[0],u=r[1];r[0]=i*e+r[2]*n,r[1]=u*e+r[3]*n,r[2]=r[2]*e-i*n,r[3]=r[3]*e-u*n,this.w=this.s=this.i=null}return this}},{key:"scaleSelf",value:function(){var t=arguments.length>0&&void 0!==arguments[0]?arguments[0]:1,n=arguments.length>1&&void 0!==arguments[1]?arguments[1]:1;if(1!==t||1!==n){var e=this.m;e[0]*=t,e[1]*=t,e[2]*=n,e[3]*=n,this.w=this.s=this.i=null}return this}},{key:"skewSelf",value:function(t,n){if(n%=360,(t%=360)||n){var e=this.m,r=e[0],i=e[1],u=e[2],o=e[3];t&&(t=lt(t*ft),e[2]+=r*t,e[3]+=i*t),n&&(n=lt(n*ft),e[0]+=u*n,e[1]+=o*n),this.w=this.s=this.i=null}return this}},{key:"resetSelf",value:function(){var t=arguments.length>0&&void 0!==arguments[0]?arguments[0]:1,n=arguments.length>1&&void 0!==arguments[1]?arguments[1]:0,e=arguments.length>2&&void 0!==arguments[2]?arguments[2]:0,r=arguments.length>3&&void 0!==arguments[3]?arguments[3]:1,i=arguments.length>4&&void 0!==arguments[4]?arguments[4]:0,u=arguments.length>5&&void 0!==arguments[5]?arguments[5]:0,o=this.m;return o[0]=t,o[1]=n,o[2]=e,o[3]=r,o[4]=i,o[5]=u,this.w=this.s=this.i=null,this}},{key:"recomposeSelf",value:function(){var t=arguments.length>0&&void 0!==arguments[0]?arguments[0]:null,n=arguments.length>1&&void 0!==arguments[1]?arguments[1]:null,e=arguments.length>2&&void 0!==arguments[2]?arguments[2]:null,r=arguments.length>3&&void 0!==arguments[3]?arguments[3]:null,i=arguments.length>4&&void 0!==arguments[4]?arguments[4]:null;return this.isIdentity||this.resetSelf(),t&&(t.x||t.y)&&this.translateSelf(t.x,t.y),n&&this.rotateSelf(n),e&&(e.x&&this.skewSelf(e.x,0),e.y&&this.skewSelf(0,e.y)),!r||1===r.x&&1===r.y||this.scaleSelf(r.x,r.y),i&&(i.x||i.y)&&this.translateSelf(i.x,i.y),this}},{key:"decompose",value:function(){var t=arguments.length>0&&void 0!==arguments[0]?arguments[0]:0,n=arguments.length>1&&void 0!==arguments[1]?arguments[1]:0,e=this.m,r=e[0]*e[0]+e[1]*e[1],i=[[e[0],e[1]],[e[2],e[3]]],u=ht(r);if(0===u)return{origin:{x:h(e[4]),y:h(e[5])},translate:{x:h(t),y:h(n)},scale:{x:0,y:0},skew:{x:0,y:0},rotate:0};i[0][0]/=u,i[0][1]/=u;var o=e[0]*e[3]-e[1]*e[2]<0;o&&(u=-u);var a=i[0][0]*i[1][0]+i[0][1]*i[1][1];i[1][0]-=i[0][0]*a,i[1][1]-=i[0][1]*a;var l=ht(i[1][0]*i[1][0]+i[1][1]*i[1][1]);if(0===l)return{origin:{x:h(e[4]),y:h(e[5])},translate:{x:h(t),y:h(n)},scale:{x:h(u),y:0},skew:{x:0,y:0},rotate:0};i[1][0]/=l,i[1][1]/=l,a/=l;var s=0;return i[1][1]<0?(s=ot(i[1][1])*ct,i[0][1]<0&&(s=360-s)):s=at(i[0][1])*ct,o&&(s=-s),a=st(a,ht(i[0][0]*i[0][0]+i[0][1]*i[0][1]))*ct,o&&(a=-a),{origin:{x:h(e[4]),y:h(e[5])},translate:{x:h(t),y:h(n)},scale:{x:h(u),y:h(l)},skew:{x:h(a),y:0},rotate:h(s)}}},{key:"toString",value:function(){return null===this.s&&(this.s="matrix("+this.m.map((function(t){return h(t)})).join(" ")+")"),this.s}}]),t}();Object.freeze({M:2,L:2,Z:0,H:1,V:1,C:6,Q:4,T:2,S:4,A:7});var dt={},yt=null;function gt(t){var e=function(){if(yt)return yt;if("object"!==("undefined"==typeof document?"undefined":n(document))||!document.createElementNS)return{};var t=document.createElementNS("http://www.w3.org/2000/svg","svg");return t&&t.style?(t.style.position="absolute",t.style.opacity="0.01",t.style.zIndex="-9999",t.style.left="-9999px",t.style.width="1px",t.style.height="1px",yt={svg:t}):{}}().svg;if(!e)return function(t){return null};var r=document.createElementNS(e.namespaceURI,"path");r.setAttributeNS(null,"d",t),r.setAttributeNS(null,"fill","none"),r.setAttributeNS(null,"stroke","none"),e.appendChild(r);var i=r.getTotalLength();return function(t){var n=r.getPointAtLength(i*t);return{x:n.x,y:n.y}}}function pt(t){return dt[t]?dt[t]:dt[t]=gt(t)}function bt(t,n,e,r){if(!t||!r)return!1;var i=["M",t.x,t.y];if(n&&e&&(i.push("C"),i.push(n.x),i.push(n.y),i.push(e.x),i.push(e.y)),n?!e:e){var u=n||e;i.push("Q"),i.push(u.x),i.push(u.y)}return n||e||i.push("L"),i.push(r.x),i.push(r.y),i.join(" ")}function mt(t,n,e,r){var i=arguments.length>4&&void 0!==arguments[4]?arguments[4]:1,u=bt(t,n,e,r),o=pt(u);try{return o(i)}catch(t){return null}}function wt(t,n,e,r){var i=1-r;return i*i*t+2*i*r*n+r*r*e}function xt(t,n,e,r){return 2*(1-r)*(n-t)+2*r*(e-n)}function At(t,n,e,r){var i=arguments.length>4&&void 0!==arguments[4]&&arguments[4],u=mt(t,n,null,e,r);return u||(u={x:wt(t.x,n.x,e.x,r),y:wt(t.y,n.y,e.y,r)}),i&&(u.a=kt(t,n,e,r)),u}function kt(t,n,e,r){return Math.atan2(xt(t.y,n.y,e.y,r),xt(t.x,n.x,e.x,r))}function _t(t,n,e,r,i){var u=i*i;return i*u*(r-t+3*(n-e))+3*u*(t+e-2*n)+3*i*(n-t)+t}function St(t,n,e,r,i){var u=1-i;return 3*(u*u*(n-t)+2*u*i*(e-n)+i*i*(r-e))}function Ot(t,n,e,r,i){var u=arguments.length>5&&void 0!==arguments[5]&&arguments[5],o=mt(t,n,e,r,i);return o||(o={x:_t(t.x,n.x,e.x,r.x,i),y:_t(t.y,n.y,e.y,r.y,i)}),u&&(o.a=Mt(t,n,e,r,i)),o}function Mt(t,n,e,r,i){return Math.atan2(St(t.y,n.y,e.y,r.y,i),St(t.x,n.x,e.x,r.x,i))}function Et(t,n,e){return t+(n-t)*e}function Pt(t,n,e){var r=arguments.length>3&&void 0!==arguments[3]&&arguments[3],i={x:Et(t.x,n.x,e),y:Et(t.y,n.y,e)};return r&&(i.a=jt(t,n)),i}function jt(t,n){return Math.atan2(n.y-t.y,n.x-t.x)}function Bt(t,n,e){var r=arguments.length>3&&void 0!==arguments[3]&&arguments[3];if(Rt(n)){if(Tt(e))return At(n,e.start,e,t,r)}else if(Rt(e)){if(n.end)return At(n,n.end,e,t,r)}else{if(n.end)return e.start?Ot(n,n.end,e.start,e,t,r):At(n,n.end,e,t,r);if(e.start)return At(n,e.start,e,t,r)}return Pt(n,e,t,r)}function It(t,n,e){var r=Bt(t,n,e,!0);return r.a=function(t){return arguments.length>1&&void 0!==arguments[1]&&arguments[1]?t+Math.PI:t}(r.a)/d,r}function Rt(t){return!t.type||"corner"===t.type}function Tt(t){return null!=t.start&&!Rt(t)}var Nt=new vt;var Ct={f:function(t){return t?t.join(" "):""},i:function(t,e,r){if(0===t)return e;if(1===t)return r;var i=e.length;if(i!==r.length)return x(t,e,r);for(var u,o=new Array(i),a=0;a<i;a++){if((u=n(e[a]))!==n(r[a]))return x(t,e,r);if("number"===u)o[a]=A(t,e[a],r[a]);else{if(e[a]!==r[a])return x(t,e,r);o[a]=e[a]}}return o}},Ft={f:null,i:P,u:function(t,n){return function(e){var r=n(e);t.setAttribute("x1",Z(r[0])),t.setAttribute("y1",Z(r[1])),t.setAttribute("x2",Z(r[2])),t.setAttribute("y2",Z(r[3]))}}},Lt={f:Z,i:A},Vt={f:Z,i:function(t,n,e){var r=A(t,n,e);return r<=0?0:r>=1?1:r}},qt={f:function(t){var n=arguments.length>1&&void 0!==arguments[1]?arguments[1]:" ";return t&&t.length>0&&(t=t.map((function(t){return h(t,4)}))),K(t,n)},i:function(t,n,e){var r,i,u,o=n.length,a=e.length;if(o!==a)if(0===o)n=j(o=a,0);else if(0===a)a=o,e=j(o,0);else{var l=(u=(r=o)*(i=a)/function(t,n){for(var e;n;)e=n,n=t%n,t=e;return t||1}(r,i))<0?-u:u;n=B(n,Math.floor(l/o)),e=B(e,Math.floor(l/a)),o=a=l}for(var s=[],f=0;f<o;f++)s.push(h(k(t,n[f],e[f])));return s}};function Dt(t,n,e,r,i,u,o,a){return n=function(t,n,e){for(var r,i,u,o=t.length-1,a={},l=0;l<=o;l++)(r=t[l]).e&&(r.e=n(r.e)),r.v&&"g"===(i=r.v).t&&i.r&&(u=e.getElementById(i.r))&&(a[i.r]=u.querySelectorAll("stop"));return a}(t,r,a),function(r){var i,u=e(r,t,zt);return u?"c"===u.t?nt(u.v):"g"===u.t?(n[u.r]&&function(t,n){for(var e=0,r=t.length;e<r;e++)t[e].setAttribute("stop-color",nt(n[e]))}(n[u.r],u.v),(i=u.r)?"url(#"+i+")":"none"):"none":"none"}}function zt(t,n,e){if(0===t)return n;if(1===t)return e;if(n&&e){var r=n.t;if(r===e.t)switch(n.t){case"c":return{t:r,v:M(t,n.v,e.v)};case"g":if(n.r===e.r)return{t:r,v:E(t,n.v,e.v),r:n.r}}}return x(t,n,e)}var Yt={blur:S,brightness:k,contrast:k,"drop-shadow":function(t,n,e){return 0===t?n:1===t?e:{blur:S(t,n.blur,e.blur),offset:_(t,n.offset,e.offset),color:M(t,n.color,e.color)}},grayscale:k,"hue-rotate":A,invert:k,opacity:k,saturate:k,sepia:k};function Gt(t,n,e){if(0===t)return n;if(1===t)return e;var r=n.length;if(r!==e.length)return x(t,n,e);for(var i,u=[],o=0;o<r;o++){if(n[o].type!==e[o].type)return n;if(!(i=Yt[n[o].type]))return x(t,n,e);u.push({type:n.type,value:i(t,n[o].value,e[o].value)})}return u}var Ut={blur:function(t){return t?function(n){t.setAttribute("stdDeviation",tt(n))}:null},brightness:function(t,n,e){return(t=Ht(e,n))?function(n){n=Z(n),t.map((function(t){return t.setAttribute("slope",n)}))}:null},contrast:function(t,n,e){return(t=Ht(e,n))?function(n){var e=Z((1-n)/2);n=Z(n),t.map((function(t){t.setAttribute("slope",n),t.setAttribute("intercept",e)}))}:null},"drop-shadow":function(t,n,e){var r=e.getElementById(n+"-blur");if(!r)return null;var i=e.getElementById(n+"-offset");if(!i)return null;var u=e.getElementById(n+"-flood");return u?function(t){r.setAttribute("stdDeviation",tt(t.blur)),i.setAttribute("dx",Z(t.offset.x)),i.setAttribute("dy",Z(t.offset.y)),u.setAttribute("flood-color",nt(t.color))}:null},grayscale:function(t){return t?function(n){t.setAttribute("values",K(function(t){return[.2126+.7874*(t=1-t),.7152-.7152*t,.0722-.0722*t,0,0,.2126-.2126*t,.7152+.2848*t,.0722-.0722*t,0,0,.2126-.2126*t,.7152-.7152*t,.0722+.9278*t,0,0,0,0,0,1,0]}(n)))}:null},"hue-rotate":function(t){return t?function(n){return t.setAttribute("values",Z(n))}:null},invert:function(t,n,e){return(t=Ht(e,n))?function(n){n=Z(n)+" "+Z(1-n),t.map((function(t){return t.setAttribute("tableValues",n)}))}:null},opacity:function(t,n,e){return(t=e.getElementById(n+"-A"))?function(n){return t.setAttribute("tableValues","0 "+Z(n))}:null},saturate:function(t){return t?function(n){return t.setAttribute("values",Z(n))}:null},sepia:function(t){return t?function(n){return t.setAttribute("values",K(function(t){return[.393+.607*(t=1-t),.769-.769*t,.189-.189*t,0,0,.349-.349*t,.686+.314*t,.168-.168*t,0,0,.272-.272*t,.534-.534*t,.131+.869*t,0,0,0,0,0,1,0]}(n)))}:null}};var Wt=["R","G","B"];function Ht(t,n){var e=Wt.map((function(e){return t.getElementById(n+"-"+e)||null}));return-1!==e.indexOf(null)?null:e}var Qt={fill:Dt,"fill-opacity":Vt,stroke:Dt,"stroke-opacity":Vt,"stroke-width":Lt,"stroke-dashoffset":{f:Z,i:A},"stroke-dasharray":qt,opacity:Vt,transform:function(t,e,r,i){if(!(t=function(t,e){if(!t||"object"!==n(t))return null;var r=!1;for(var i in t)t.hasOwnProperty(i)&&(t[i]&&t[i].length?(t[i].forEach((function(t){t.e&&(t.e=e(t.e))})),r=!0):delete t[i]);return r?t:null}(t,i)))return null;var u=function(n,i,u){var o=arguments.length>3&&void 0!==arguments[3]?arguments[3]:null;return t[n]?r(i,t[n],u):e&&e[n]?e[n]:o};return e&&e.a&&t.o?function(n){var e=r(n,t.o,It);return Nt.recomposeSelf(e,u("r",n,A,0)+e.a,u("k",n,_),u("s",n,_),u("t",n,_)).toString()}:function(t){return Nt.recomposeSelf(u("o",t,Bt,null),u("r",t,A,0),u("k",t,_),u("s",t,_),u("t",t,_)).toString()}},"#filter":function(t,n,e,r,i,u,o,a){if(!n.items||!t||!t.length)return null;var l=function(t,n){var e=(t=t.map((function(t){return t&&Ut[t[0]]?(n.getElementById(t[1]),Ut[t[0]](n.getElementById(t[1]),t[1],n)):null}))).length;return function(n){for(var r=0;r<e;r++)t[r]&&t[r](n[r].value)}}(n.items,a);return l?(t=function(t,n){return t.map((function(t){return t.e=n(t.e),t}))}(t,r),function(n){l(e(n,t,Gt))}):null},"#line":Ft,points:{f:K,i:P},d:Ct,r:Lt,"#size":rt,"#radius":et,_:function(t,n){if(Array.isArray(t))for(var e=0;e<t.length;e++)this[t[e]]=n;else this[t]=n}},Xt=function(t){!function(t,n){if("function"!=typeof n&&null!==n)throw new TypeError("Super expression must either be null or a function");t.prototype=Object.create(n&&n.prototype,{constructor:{value:t,writable:!0,configurable:!0}}),n&&a(t,n)}(r,t);var n=s(r);function r(){return e(this,r),n.apply(this,arguments)}return i(r,null,[{key:"build",value:function(t){var n=f(o(r),"build",this).call(this,t,Qt);if(!n)return null;var e=n.el,i=n.options,u=n.player;return function(t,n,e){if("click"===e.start){var r=function(){switch(e.click){case"freeze":return!t._running&&t.reachedToEnd()&&(t.offset=0),t._running?t.pause():t.play();case"restart":return t.offset>0?t.restart():t.play();case"reverse":var n=!t._rollingBack&&t._running,r=t.reachedToEnd();return n||r&&1===t.fill?(t.pause(),r&&(t.offset=t.duration-1),t._rollback()):r?t.restart():t.play();case"none":default:return!t._running&&t.offset?t.restart():t.play()}};return void n.addEventListener("click",r)}if("hover"===e.start)return n.addEventListener("mouseenter",(function(){return t.reachedToEnd()?t.restart():t.play()})),void n.addEventListener("mouseleave",(function(){switch(e.hover){case"freeze":return t.pause();case"reset":return t.stop();case"reverse":return t.pause(),t._rollback();case"none":default:return}}));if("scroll"===e.start)return void new J(n,e.scroll||25,(function(n){n?t.reachedToEnd()?t.restart():t.play():t.pause()}));t.play()}(u,e,i),u}}]),r}(X);return Xt.init(),Xt}));
(function(s,i,o,w){w[o]=w[o]||{};w[o][s]=w[o][s]||[];w[o][s].push(i);})('91c80d77',{"root":"eeyNr5RfM2I1","animations":[{"elements":{"eeyNr5RfM2I9":{"transform":{"data":{"o":{"x":192.14834,"y":405.536831,"type":"corner"},"s":{"x":1.401238,"y":1.401238},"t":{"x":-95.4375,"y":-50.728382}},"keys":{"r":[{"t":400,"v":-13.178168,"e":[0.645,0.045,0.355,1]},{"t":500,"v":-19}]}}},"eeyNr5RfM2I12":{"transform":{"data":{"o":{"x":311.188823,"y":72.341719,"type":"corner"},"s":{"x":1.401238,"y":1.401238},"t":{"x":-95.437497,"y":-50.728388}},"keys":{"r":[{"t":200,"v":19.878596,"e":[0.645,0.045,0.355,1]},{"t":300,"v":16,"e":[0.645,0.045,0.355,1]},{"t":400,"v":16,"e":[0.645,0.045,0.355,1]},{"t":500,"v":19.878596}]}}},"eeyNr5RfM2I15":{"transform":{"data":{"o":{"x":359.997729,"y":340.833244,"type":"corner"},"s":{"x":1.401238,"y":1.401238},"t":{"x":-111.051586,"y":-50.728386}},"keys":{"r":[{"t":600,"v":146.959746,"e":[0.645,0.045,0.355,1]},{"t":700,"v":135,"e":[0.645,0.045,0.355,1]},{"t":800,"v":146.959746}]}}},"eeyNr5RfM2I18":{"transform":{"data":{"o":{"x":124.907839,"y":213.116766,"type":"corner"},"t":{"x":-68.750015,"y":-68.633224}},"keys":{"s":[{"t":0,"v":{"x":1.395982,"y":1.395982},"e":[0.645,0.045,0.355,1]},{"t":100,"v":{"x":1.395982,"y":1.395982},"e":[0.645,0.045,0.355,1]},{"t":200,"v":{"x":1.5,"y":1.5},"e":[0.645,0.045,0.355,1]},{"t":400,"v":{"x":1.5,"y":1.5},"e":[0.645,0.045,0.355,1]},{"t":500,"v":{"x":1.395982,"y":1.395982}}]}}},"eeyNr5RfM2I21":{"transform":{"data":{"o":{"x":284.90004,"y":389.235946,"type":"corner"},"t":{"x":-68.750015,"y":-68.633224}},"keys":{"s":[{"t":0,"v":{"x":1.395982,"y":1.395982},"e":[0.645,0.045,0.355,1]},{"t":400,"v":{"x":1.395982,"y":1.395982},"e":[0.645,0.045,0.355,1]},{"t":500,"v":{"x":1.5,"y":1.5},"e":[0.645,0.045,0.355,1]},{"t":700,"v":{"x":1.5,"y":1.5},"e":[0.645,0.045,0.355,1]},{"t":800,"v":{"x":1.395982,"y":1.395982}}]}}},"eeyNr5RfM2I24":{"transform":{"data":{"o":{"x":389.235647,"y":100.764054,"type":"corner"},"t":{"x":-68.750015,"y":-68.633224}},"keys":{"s":[{"t":0,"v":{"x":1.395982,"y":1.395982},"e":[0.645,0.045,0.355,1]},{"t":200,"v":{"x":1.395982,"y":1.395982},"e":[0.645,0.045,0.355,1]},{"t":300,"v":{"x":1.5,"y":1.5},"e":[0.645,0.045,0.355,1]},{"t":500,"v":{"x":1.5,"y":1.5},"e":[0.645,0.045,0.355,1]},{"t":600,"v":{"x":1.395982,"y":1.395982}}]}}}},"s":"MDOA1M2NkNzRVYSjZjN2M0YjNjFNmJiYzFjMDcC0OGM4MzgyODHI4MjdlNzRiNKmJiYzRiN2I1XYzZiYmMxYzAC3NDhjODM3ZTIc0YmJHYzZiNB2M0YjNjNmJiBYzFjMGM1NzQD4YzgzN2U3NGUI4YmJiZWJlNXzQ4YzgzN2U3XNGIzVWJlYzZSiN2M0UGMwYjGNjNmI3NzQ4YM2I4YjNiZWM1WYjc3ZTc0YzVTjMmI3YjdiNjEc0OGM4M2Nm"}],"options":"MDDAyMDgyMjk3YBTdiNjg3OTdiMMjk0MTI5NmYO3NjdkNmM3OTNI5MzMyOTZmNBzY3ZDZjNzkyWOTQxMjk3NTcY2NzU2YzI5ODDQ/"},'__SVGATOR_PLAYER__',window)]]></script></svg>