<svg id="ek9qlfwbzuD1" xmlns="http://www.w3.org/2000/svg" viewBox="0 0 512 512" shape-rendering="geometricPrecision" text-rendering="geometricPrecision"><g id="ek9qlfwbzuD2"><g id="ek9qlfwbzuD3"><g id="ek9qlfwbzuD4" fill="#2F5373" stroke="none" stroke-width="1"><g id="ek9qlfwbzuD5"><path id="ek9qlfwbzuD6" d="M331.135 354.422c-21.729 16.615-47.71 25.397-75.135 25.397-68.274 0-123.82-55.545-123.82-123.82 0-27.425 8.782-53.406 25.397-75.134a7.499 7.499 0 00-1.402-10.513 7.5 7.5 0 00-10.513 1.402C127.029 196.121 117.18 225.253 117.18 256c0 76.545 62.274 138.82 138.82 138.82 30.747 0 59.879-9.849 84.246-28.482a7.501 7.501 0 00-9.111-11.916z"/><path id="ek9qlfwbzuD7" d="M256 117.18c-30.747 0-59.879 9.849-84.246 28.482a7.499 7.499 0 00-1.402 10.513 7.498 7.498 0 0010.513 1.402c21.728-16.615 47.709-25.397 75.134-25.397 68.274 0 123.82 55.545 123.82 123.82 0 27.425-8.782 53.406-25.398 75.134a7.5 7.5 0 001.402 10.514 7.464 7.464 0 004.55 1.543 7.489 7.489 0 005.964-2.945c18.633-24.366 28.482-53.498 28.482-84.246.001-76.545-62.273-138.82-138.819-138.82z"/></g><path id="ek9qlfwbzuD8" d="M496.854 222.095l-53.647-7.556a.57.57 0 01-.476-.447 190.785 190.785 0 00-4.053-15.172.57.57 0 01.188-.625l42.671-33.358c6.869-5.37 8.763-15.115 4.403-22.668l-16.476-28.536c-4.361-7.553-13.746-10.787-21.832-7.521l-50.264 20.29a.572.572 0 01-.637-.15 193.415 193.415 0 00-11.083-11.083.57.57 0 01-.15-.637l20.291-50.265c3.263-8.085.029-17.471-7.521-21.832L369.732 26.06c-7.554-4.362-17.297-2.469-22.668 4.402l-33.36 42.671a.565.565 0 01-.626.188 190.419 190.419 0 00-15.169-4.052.57.57 0 01-.448-.476l-7.556-53.647C288.689 6.512 281.196 0 272.476 0h-32.951c-8.72 0-16.213 6.512-17.43 15.147l-7.556 53.647a.569.569 0 01-.448.476 190.39 190.39 0 00-15.169 4.052.57.57 0 01-.626-.188l-33.359-42.671c-5.371-6.87-15.116-8.763-22.668-4.402l-28.536 16.475c-7.552 4.36-10.786 13.747-7.521 21.833l20.29 50.263a.572.572 0 01-.15.637 193.128 193.128 0 00-11.084 11.084.569.569 0 01-.636.149l-50.264-20.29c-8.087-3.265-17.473-.03-21.833 7.521L26.06 142.268c-4.36 7.552-2.468 17.297 4.402 22.668l42.671 33.359a.57.57 0 01.188.626 190.617 190.617 0 00-4.052 15.169.569.569 0 01-.476.448l-53.647 7.556C6.512 223.311 0 230.804 0 239.524v32.951c0 8.72 6.512 16.213 15.147 17.43l53.647 7.556a.569.569 0 01.476.448 190.39 190.39 0 004.052 15.169.573.573 0 01-.188.627l-42.671 33.359c-6.87 5.371-8.763 15.116-4.402 22.668l16.475 28.536c4.36 7.552 13.745 10.785 21.833 7.521l50.264-20.29c.22-.087.47-.03.637.15 3.53 3.83 7.259 7.559 11.083 11.083a.57.57 0 01.149.636l-20.29 50.263c-3.265 8.086-.031 17.472 7.521 21.833l28.536 16.475c7.553 4.36 17.297 2.468 22.668-4.402l33.36-42.672a.568.568 0 01.625-.188 190.617 190.617 0 0015.169 4.052c.239.053.415.24.448.476l7.556 53.647c1.216 8.635 8.709 15.147 17.43 15.147h32.951c8.721 0 16.214-6.512 17.43-15.147l7.556-53.646a.57.57 0 01.448-.477 190.845 190.845 0 0015.169-4.052.571.571 0 01.626.188l33.359 42.671c5.371 6.872 15.118 8.764 22.668 4.402l28.538-16.476c7.55-4.36 10.783-13.746 7.521-21.832L385.5 397.367a.573.573 0 01.149-.637 193.485 193.485 0 0011.085-11.085.575.575 0 01.636-.149l50.264 20.29c8.081 3.262 17.471.032 21.832-7.521l16.477-28.537c4.358-7.553 2.465-17.297-4.404-22.667l-42.671-33.359a.568.568 0 01-.188-.627 190.564 190.564 0 004.051-15.168.571.571 0 01.477-.448l53.647-7.556c8.635-1.216 15.146-8.709 15.146-17.43v-32.951c-.001-8.718-6.513-16.211-15.147-17.427zm.146 50.381a2.613 2.613 0 01-2.238 2.576l-53.647 7.556c-6.384.899-11.617 5.734-13.023 12.033a176.378 176.378 0 01-3.731 13.969c-1.921 6.151.196 12.948 5.269 16.913l42.671 33.359a2.613 2.613 0 01.651 3.35l-16.476 28.536a2.615 2.615 0 01-3.227 1.112l-50.264-20.29c-5.971-2.41-12.916-.846-17.281 3.893a178.2 178.2 0 01-10.222 10.221c-4.736 4.367-6.301 11.312-3.893 17.28l20.291 50.263a2.616 2.616 0 01-1.111 3.228L362.23 472.95a2.615 2.615 0 01-3.35-.651l-33.358-42.671c-3.965-5.07-10.759-7.187-16.911-5.27a175.452 175.452 0 01-13.972 3.732c-6.297 1.406-11.132 6.64-12.032 13.023l-7.556 53.647a2.614 2.614 0 01-2.576 2.239h-32.951a2.613 2.613 0 01-2.576-2.239l-7.556-53.647c-.899-6.383-5.734-11.617-12.032-13.024a175.536 175.536 0 01-13.972-3.732 15.43 15.43 0 00-4.601-.7c-4.72 0-9.321 2.145-12.31 5.969l-33.359 42.671a2.613 2.613 0 01-3.351.65l-28.536-16.475a2.615 2.615 0 01-1.112-3.227l20.29-50.263c2.41-5.97.845-12.915-3.893-17.281a178.47 178.47 0 01-10.22-10.22c-4.366-4.739-11.312-6.303-17.281-3.894l-50.264 20.29a2.612 2.612 0 01-3.227-1.112L39.05 362.232a2.614 2.614 0 01.65-3.351l42.671-33.359c5.071-3.964 7.188-10.76 5.27-16.912a175.513 175.513 0 01-3.732-13.971c-1.407-6.298-6.641-11.133-13.024-12.032l-53.647-7.556a2.614 2.614 0 01-2.239-2.576v-32.951c0-1.289.962-2.396 2.239-2.576l53.647-7.556c6.383-.899 11.617-5.734 13.024-12.032a175.536 175.536 0 013.732-13.972c1.919-6.151-.199-12.947-5.27-16.911L39.7 153.118a2.614 2.614 0 01-.65-3.351l16.475-28.536a2.614 2.614 0 013.227-1.112l50.264 20.29c5.97 2.409 12.914.845 17.28-3.893a178.47 178.47 0 0110.22-10.22c4.739-4.367 6.304-11.312 3.894-17.282l-20.29-50.263a2.614 2.614 0 011.112-3.227l28.536-16.475a2.614 2.614 0 013.351.65l33.359 42.67c3.963 5.072 10.76 7.19 16.912 5.271a175.513 175.513 0 0113.971-3.732c6.298-1.407 11.133-6.641 12.032-13.024l7.556-53.647a2.614 2.614 0 012.576-2.239h32.951c1.289 0 2.396.962 2.576 2.239l7.556 53.648c.9 6.383 5.735 11.616 12.032 13.023a175.566 175.566 0 0113.972 3.732c6.151 1.919 12.946-.199 16.911-5.27l33.359-42.671a2.613 2.613 0 013.35-.65l28.536 16.475a2.615 2.615 0 011.112 3.228l-20.291 50.265c-2.408 5.968-.844 12.912 3.894 17.28a178.13 178.13 0 0110.22 10.219c4.368 4.74 11.312 6.305 17.282 3.894l50.264-20.29a2.614 2.614 0 013.227 1.112l16.475 28.535a2.615 2.615 0 01-.65 3.352l-42.671 33.359c-5.072 3.965-7.189 10.762-5.27 16.911a175.285 175.285 0 013.732 13.972c1.406 6.298 6.64 11.133 13.023 12.032l53.647 7.556a2.613 2.613 0 012.238 2.576z"/><path id="ek9qlfwbzuD9" d="M256 164.5c32.485 0 62.834 17.521 79.204 45.725a7.5 7.5 0 0012.973-7.529C329.134 169.883 293.813 149.5 256 149.5c-58.724 0-106.5 47.776-106.5 106.5S197.276 362.5 256 362.5c58.725 0 106.5-47.776 106.5-106.5 0-6.05-.518-12.121-1.539-18.044a7.5 7.5 0 10-14.781 2.548A91.52 91.52 0 01347.5 256c0 16.884-4.602 32.711-12.61 46.303-12.415-16.613-29.714-28.81-49.19-35.02 11.079-8.782 18.206-22.344 18.206-37.547 0-26.416-21.49-47.907-47.906-47.907s-47.907 21.491-47.907 47.907c0 15.203 7.127 28.765 18.207 37.547-19.476 6.21-36.775 18.407-49.19 35.02-8.008-13.592-12.61-29.419-12.61-46.303 0-50.453 41.047-91.5 91.5-91.5zm-32.907 65.236c0-18.145 14.762-32.907 32.907-32.907 18.145 0 32.906 14.762 32.906 32.907 0 18.145-14.762 32.906-32.906 32.906-18.145 0-32.907-14.762-32.907-32.906zM256 277.642c28.033 0 54.278 14.29 69.669 37.604C308.872 334.968 283.874 347.5 256 347.5c-27.874 0-52.872-12.532-69.669-32.254 15.392-23.314 41.636-37.604 69.669-37.604z"/></g></g></g><script><![CDATA[!function(t,n){"object"==typeof exports&&"undefined"!=typeof module?module.exports=n():"function"==typeof define&&define.amd?define(n):((t="undefined"!=typeof globalThis?globalThis:t||self).__SVGATOR_PLAYER__=t.__SVGATOR_PLAYER__||{},t.__SVGATOR_PLAYER__["91c80d77"]=n())}(this,(function(){"use strict";function t(t,n){var e=Object.keys(t);if(Object.getOwnPropertySymbols){var r=Object.getOwnPropertySymbols(t);n&&(r=r.filter((function(n){return Object.getOwnPropertyDescriptor(t,n).enumerable}))),e.push.apply(e,r)}return e}function n(t){return(n="function"==typeof Symbol&&"symbol"==typeof Symbol.iterator?function(t){return typeof t}:function(t){return t&&"function"==typeof Symbol&&t.constructor===Symbol&&t!==Symbol.prototype?"symbol":typeof t})(t)}function e(t,n){if(!(t instanceof n))throw new TypeError("Cannot call a class as a function")}function r(t,n){for(var e=0;e<n.length;e++){var r=n[e];r.enumerable=r.enumerable||!1,r.configurable=!0,"value"in r&&(r.writable=!0),Object.defineProperty(t,r.key,r)}}function i(t,n,e){return n&&r(t.prototype,n),e&&r(t,e),t}function u(t,n,e){return n in t?Object.defineProperty(t,n,{value:e,enumerable:!0,configurable:!0,writable:!0}):t[n]=e,t}function o(t){return(o=Object.setPrototypeOf?Object.getPrototypeOf:function(t){return t.__proto__||Object.getPrototypeOf(t)})(t)}function a(t,n){return(a=Object.setPrototypeOf||function(t,n){return t.__proto__=n,t})(t,n)}function l(t,n){if(n&&("object"==typeof n||"function"==typeof n))return n;if(void 0!==n)throw new TypeError("Derived constructors may only return object or undefined");return function(t){if(void 0===t)throw new ReferenceError("this hasn't been initialised - super() hasn't been called");return t}(t)}function s(t){var n=function(){if("undefined"==typeof Reflect||!Reflect.construct)return!1;if(Reflect.construct.sham)return!1;if("function"==typeof Proxy)return!0;try{return Boolean.prototype.valueOf.call(Reflect.construct(Boolean,[],(function(){}))),!0}catch(t){return!1}}();return function(){var e,r=o(t);if(n){var i=o(this).constructor;e=Reflect.construct(r,arguments,i)}else e=r.apply(this,arguments);return l(this,e)}}function f(t,n,e){return(f="undefined"!=typeof Reflect&&Reflect.get?Reflect.get:function(t,n,e){var r=function(t,n){for(;!Object.prototype.hasOwnProperty.call(t,n)&&null!==(t=o(t)););return t}(t,n);if(r){var i=Object.getOwnPropertyDescriptor(r,n);return i.get?i.get.call(e):i.value}})(t,n,e||t)}var c=h(Math.pow(10,-6));function h(t){var n=arguments.length>1&&void 0!==arguments[1]?arguments[1]:6;if(Number.isInteger(t))return t;var e=Math.pow(10,n);return Math.round((+t+Number.EPSILON)*e)/e}function v(t,n){var e=arguments.length>2&&void 0!==arguments[2]?arguments[2]:c;return Math.abs(t-n)<e}var d=Math.PI/180;function y(t){return t}function g(t,n,e){var r=1-e;return 3*e*r*(t*r+n*e)+e*e*e}function p(){var t=arguments.length>0&&void 0!==arguments[0]?arguments[0]:0,n=arguments.length>1&&void 0!==arguments[1]?arguments[1]:0,e=arguments.length>2&&void 0!==arguments[2]?arguments[2]:1,r=arguments.length>3&&void 0!==arguments[3]?arguments[3]:1;return t<0||t>1||e<0||e>1?null:v(t,n)&&v(e,r)?y:function(i){if(i<=0)return t>0?i*n/t:0===n&&e>0?i*r/e:0;if(i>=1)return e<1?1+(i-1)*(r-1)/(e-1):1===e&&t<1?1+(i-1)*(n-1)/(t-1):1;for(var u,o=0,a=1;o<a;){var l=g(t,e,u=(o+a)/2);if(v(i,l))break;l<i?o=u:a=u}return g(n,r,u)}}function b(){return 1}function m(t){return 1===t?1:0}function w(){var t=arguments.length>0&&void 0!==arguments[0]?arguments[0]:1,n=arguments.length>1&&void 0!==arguments[1]?arguments[1]:0;if(1===t){if(0===n)return m;if(1===n)return b}var e=1/t;return function(t){return t>=1?1:(t+=n*e)-t%e}}function x(t,n,e){return t>=.5?e:n}function A(t,n,e){return 0===t||n===e?n:t*(e-n)+n}function k(t,n,e){var r=A(t,n,e);return r<=0?0:r}function _(t,n,e){return 0===t?n:1===t?e:{x:A(t,n.x,e.x),y:A(t,n.y,e.y)}}function S(t,n,e){return 0===t?n:1===t?e:{x:k(t,n.x,e.x),y:k(t,n.y,e.y)}}function O(t,n,e){var r=function(t,n,e){return Math.round(A(t,n,e))}(t,n,e);return r<=0?0:r>=255?255:r}function M(t,n,e){return 0===t?n:1===t?e:{r:O(t,n.r,e.r),g:O(t,n.g,e.g),b:O(t,n.b,e.b),a:A(t,null==n.a?1:n.a,null==e.a?1:e.a)}}function E(t,n,e){if(0===t)return n;if(1===t)return e;var r=n.length;if(r!==e.length)return x(t,n,e);for(var i=[],u=0;u<r;u++)i.push(M(t,n[u],e[u]));return i}function P(t,n,e){var r=n.length;if(r!==e.length)return x(t,n,e);for(var i=new Array(r),u=0;u<r;u++)i[u]=A(t,n[u],e[u]);return i}function j(t,n){for(var e=[],r=0;r<t;r++)e.push(n);return e}function B(t,n){if(--n<=0)return t;var e=(t=Object.assign([],t)).length;do{for(var r=0;r<e;r++)t.push(t[r])}while(--n>0);return t}var I,R=function(){function t(n){e(this,t),this.list=n,this.length=n.length}return i(t,[{key:"setAttribute",value:function(t,n){for(var e=this.list,r=0;r<this.length;r++)e[r].setAttribute(t,n)}},{key:"removeAttribute",value:function(t){for(var n=this.list,e=0;e<this.length;e++)n[e].removeAttribute(t)}},{key:"style",value:function(t,n){for(var e=this.list,r=0;r<this.length;r++)e[r].style[t]=n}}]),t}(),T=/-./g,N=function(t,n){return n.toUpperCase()};function C(t){return"function"==typeof t?t:x}function F(t){return t?"function"==typeof t?t:Array.isArray(t)?function(t){var n=arguments.length>1&&void 0!==arguments[1]?arguments[1]:y;if(!Array.isArray(t))return n;switch(t.length){case 1:return w(t[0])||n;case 2:return w(t[0],t[1])||n;case 4:return p(t[0],t[1],t[2],t[3])||n}return n}(t,null):function(t,n){var e=arguments.length>2&&void 0!==arguments[2]?arguments[2]:y;switch(t){case"linear":return y;case"steps":return w(n.steps||1,n.jump||0)||e;case"bezier":case"cubic-bezier":return p(n.x1||0,n.y1||0,n.x2||0,n.y2||0)||e}return e}(t.type,t.value,null):null}function L(t,n,e){var r=arguments.length>3&&void 0!==arguments[3]&&arguments[3],i=n.length-1;if(t<=n[0].t)return r?[0,0,n[0].v]:n[0].v;if(t>=n[i].t)return r?[i,1,n[i].v]:n[i].v;var u,o=n[0],a=null;for(u=1;u<=i;u++){if(!(t>n[u].t)){a=n[u];break}o=n[u]}return null==a?r?[i,1,n[i].v]:n[i].v:o.t===a.t?r?[u,1,a.v]:a.v:(t=(t-o.t)/(a.t-o.t),o.e&&(t=o.e(t)),r?[u,t,e(t,o.v,a.v)]:e(t,o.v,a.v))}function V(t,n){var e=arguments.length>2&&void 0!==arguments[2]?arguments[2]:null;return t&&t.length?"function"!=typeof n?null:("function"!=typeof e&&(e=null),function(r){var i=L(r,t,n);return null!=i&&e&&(i=e(i)),i}):null}function q(t,n){return t.t-n.t}function D(t,e,r,i,u){var o,a="@"===r[0],l="#"===r[0],s=I[r],f=x;switch(a?(o=r.substr(1),r=o.replace(T,N)):l&&(r=r.substr(1)),n(s)){case"function":if(f=s(i,u,L,F,r,a,e,t),l)return f;break;case"string":f=V(i,C(s));break;case"object":if((f=V(i,C(s.i),s.f))&&"function"==typeof s.u)return s.u(e,f,r,a,t)}return f?function(t,n,e){if(arguments.length>3&&void 0!==arguments[3]&&arguments[3])return t instanceof R?function(r){return t.style(n,e(r))}:function(r){return t.style[n]=e(r)};if(Array.isArray(n)){var r=n.length;return function(i){var u=e(i);if(null==u)for(var o=0;o<r;o++)t[o].removeAttribute(n);else for(var a=0;a<r;a++)t[a].setAttribute(n,u)}}return function(r){var i=e(r);null==i?t.removeAttribute(n):t.setAttribute(n,i)}}(e,r,f,a):null}function z(t,e,r,i){if(!i||"object"!==n(i))return null;var u=null,o=null;return Array.isArray(i)?o=function(t){if(!t||!t.length)return null;for(var n=0;n<t.length;n++)t[n].e&&(t[n].e=F(t[n].e));return t.sort(q)}(i):(o=i.keys,u=i.data||null),o?D(t,e,r,o,u):null}function Y(t,n,e){if(!e)return null;var r=[];for(var i in e)if(e.hasOwnProperty(i)){var u=z(t,n,i,e[i]);u&&r.push(u)}return r.length?r:null}function G(t,n){if(!n.duration||n.duration<0)return null;var e=function(t,n){if(!n)return null;var e=[];if(Array.isArray(n))for(var r=n.length,i=0;i<r;i++){var u=n[i];if(2===u.length){var o=null;if("string"==typeof u[0])o=t.getElementById(u[0]);else if(Array.isArray(u[0])){o=[];for(var a=0;a<u[0].length;a++)if("string"==typeof u[0][a]){var l=t.getElementById(u[0][a]);l&&o.push(l)}o=o.length?1===o.length?o[0]:new R(o):null}if(o){var s=Y(t,o,u[1]);s&&(e=e.concat(s))}}}else for(var f in n)if(n.hasOwnProperty(f)){var c=t.getElementById(f);if(c){var h=Y(t,c,n[f]);h&&(e=e.concat(h))}}return e.length?e:null}(t,n.elements);return e?function(t,n){var e=arguments.length>2&&void 0!==arguments[2]?arguments[2]:1/0,r=arguments.length>3&&void 0!==arguments[3]?arguments[3]:1,i=arguments.length>4&&void 0!==arguments[4]&&arguments[4],u=arguments.length>5&&void 0!==arguments[5]?arguments[5]:1,o=t.length,a=r>0?n:0;i&&e%2==0&&(a=n-a);var l=null;return function(s,f){var c=s%n,h=1+(s-c)/n;f*=r,i&&h%2==0&&(f=-f);var v=!1;if(h>e)c=a,v=!0,-1===u&&(c=r>0?0:n);else if(f<0&&(c=n-c),c===l)return!1;l=c;for(var d=0;d<o;d++)t[d](c);return v}}(e,n.duration,n.iterations||1/0,n.direction||1,!!n.alternate,n.fill||1):null}function U(t){return+("0x"+(t.replace(/[^0-9a-fA-F]+/g,"")||27))}function W(t,n,e){return!t||!e||n>t.length?t:t.substring(0,n)+W(t.substring(n+1),e,e)}function H(t){var n=arguments.length>1&&void 0!==arguments[1]?arguments[1]:27;return!t||t%n?t%n:H(t/n,n)}function Q(t,n,e){if(t&&t.length){var r=U(e),i=U(n),u=H(r)+5,o=W(t,H(r,5),u);return o=o.replace(/\x7c$/g,"==").replace(/\x2f$/g,"="),o=function(t,n,e){var r=+("0x"+t.substring(0,4));t=t.substring(4);for(var i=n%r+e%27,u=[],o=0;o<t.length;o+=2)if("|"!==t[o]){var a=+("0x"+t[o]+t[o+1])-i;u.push(a)}else{var l=+("0x"+t.substring(o+1,o+1+4))-i;o+=3,u.push(l)}return String.fromCharCode.apply(String,u)}(o=(o=atob(o)).replace(/[\x41-\x5A]/g,""),i,r),o=JSON.parse(o)}}Number.isInteger||(Number.isInteger=function(t){return"number"==typeof t&&isFinite(t)&&Math.floor(t)===t}),Number.EPSILON||(Number.EPSILON=2220446049250313e-31);var X=function(){function n(t,r){var i=arguments.length>2&&void 0!==arguments[2]?arguments[2]:{};e(this,n),this._id=0,this._running=!1,this._rollingBack=!1,this._animations=t,this.duration=r.duration,this.alternate=r.alternate,this.fill=r.fill,this.iterations=r.iterations,this.direction=i.direction||1,this.speed=i.speed||1,this.fps=i.fps||100,this.offset=i.offset||0,this.rollbackStartOffset=0}return i(n,[{key:"_rollback",value:function(){var t=this,n=1/0,e=null;this.rollbackStartOffset=this.offset,this._rollingBack||(this._rollingBack=!0,this._running=!0);this._id=window.requestAnimationFrame((function r(i){if(t._rollingBack){null==e&&(e=i);var u=i-e,o=t.rollbackStartOffset-u,a=Math.round(o*t.speed);if(a>t.duration&&n!=1/0){var l=!!t.alternate&&a/t.duration%2>1,s=a%t.duration;a=(s+=l?t.duration:0)||t.duration}var f=t.fps?1e3/t.fps:0,c=Math.max(0,a);if(c<n-f){t.offset=c,n=c;for(var h=t._animations,v=h.length,d=0;d<v;d++)h[d](c,t.direction)}var y=!1;if(t.iterations>0&&-1===t.fill){var g=t.iterations*t.duration,p=g==a;a=p?0:a,t.offset=p?0:t.offset,y=a>g}a>0&&t.offset>=a&&!y?t._id=window.requestAnimationFrame(r):t.stop()}}))}},{key:"_start",value:function(){var t=this,n=arguments.length>0&&void 0!==arguments[0]?arguments[0]:0,e=-1/0,r=null,i={},u=function u(o){t._running=!0,null==r&&(r=o);var a=Math.round((o-r+n)*t.speed),l=t.fps?1e3/t.fps:0;if(a>e+l&&!t._rollingBack){t.offset=a,e=a;for(var s=t._animations,f=s.length,c=0,h=0;h<f;h++)i[h]?c++:(i[h]=s[h](a,t.direction),i[h]&&c++);if(c===f)return void t._stop()}t._id=window.requestAnimationFrame(u)};this._id=window.requestAnimationFrame(u)}},{key:"_stop",value:function(){this._id&&window.cancelAnimationFrame(this._id),this._running=!1,this._rollingBack=!1}},{key:"play",value:function(){!this._rollingBack&&this._running||(this._rollingBack=!1,this.rollbackStartOffset>this.duration&&(this.offset=this.rollbackStartOffset-(this.rollbackStartOffset-this.offset)%this.duration,this.rollbackStartOffset=0),this._start(this.offset))}},{key:"stop",value:function(){this._stop(),this.offset=0,this.rollbackStartOffset=0;var t=this.direction,n=this._animations;window.requestAnimationFrame((function(){for(var e=0;e<n.length;e++)n[e](0,t)}))}},{key:"reachedToEnd",value:function(){return this.iterations>0&&this.offset>=this.iterations*this.duration}},{key:"restart",value:function(){this._stop(),this.offset=0,this._start()}},{key:"pause",value:function(){this._stop()}},{key:"reverse",value:function(){this.direction=-this.direction}}],[{key:"build",value:function(e,r){return delete e.animationSettings,e.options=Q(e.options,e.root,"91c80d77"),e.animations.map((function(n){var r=Q(n.s,e.root,"91c80d77");for(var i in delete n.s,e.animationSettings||(e.animationSettings=function(n){for(var e=1;e<arguments.length;e++){var r=null!=arguments[e]?arguments[e]:{};e%2?t(Object(r),!0).forEach((function(t){u(n,t,r[t])})):Object.getOwnPropertyDescriptors?Object.defineProperties(n,Object.getOwnPropertyDescriptors(r)):t(Object(r)).forEach((function(t){Object.defineProperty(n,t,Object.getOwnPropertyDescriptor(r,t))}))}return n}({},r)),r)r.hasOwnProperty(i)&&(n[i]=r[i])})),(e=function(t,n){if(I=n,!t||!t.root||!Array.isArray(t.animations))return null;for(var e=document.getElementsByTagName("svg"),r=!1,i=0;i<e.length;i++)if(e[i].id===t.root&&!e[i].svgatorAnimation){(r=e[i]).svgatorAnimation=!0;break}if(!r)return null;var u=t.animations.map((function(t){return G(r,t)})).filter((function(t){return!!t}));return u.length?{element:r,animations:u,animationSettings:t.animationSettings,options:t.options||void 0}:null}(e,r))?{el:e.element,options:e.options||{},player:new n(e.animations,e.animationSettings,e.options)}:null}},{key:"push",value:function(t){return this.build(t)}},{key:"init",value:function(){var t=this,n=window.__SVGATOR_PLAYER__&&window.__SVGATOR_PLAYER__["91c80d77"];Array.isArray(n)&&n.splice(0).forEach((function(n){return t.build(n)}))}}]),n}();!function(){for(var t=0,n=["ms","moz","webkit","o"],e=0;e<n.length&&!window.requestAnimationFrame;++e)window.requestAnimationFrame=window[n[e]+"RequestAnimationFrame"],window.cancelAnimationFrame=window[n[e]+"CancelAnimationFrame"]||window[n[e]+"CancelRequestAnimationFrame"];window.requestAnimationFrame||(window.requestAnimationFrame=function(n){var e=Date.now(),r=Math.max(0,16-(e-t)),i=window.setTimeout((function(){n(e+r)}),r);return t=e+r,i},window.cancelAnimationFrame=window.clearTimeout)}();var $=function(t,n){var e=!1,r=null;return function(i){e&&clearTimeout(e),e=setTimeout((function(){return function(){for(var i=0,u=window.innerHeight,o=0,a=window.innerWidth,l=t.parentNode;l instanceof Element;){var s=window.getComputedStyle(l);if("visible"!==s.overflowY||"visible"!==s.overflowX){var f=l.getBoundingClientRect();"visible"!==s.overflowY&&(i=Math.max(i,f.top),u=Math.min(u,f.bottom)),"visible"!==s.overflowX&&(o=Math.max(o,f.left),a=Math.min(a,f.right))}if(l===l.parentNode)break;l=l.parentNode}e=!1;var c=t.getBoundingClientRect(),h=Math.min(c.height,Math.max(0,i-c.top)),v=Math.min(c.height,Math.max(0,c.bottom-u)),d=Math.min(c.width,Math.max(0,o-c.left)),y=Math.min(c.width,Math.max(0,c.right-a)),g=(c.height-h-v)/c.height,p=(c.width-d-y)/c.width,b=Math.round(g*p*100);null!==r&&r===b||(r=b,n(b))}()}),100)}},J=function(){function t(n,r,i){e(this,t),r=Math.max(1,r||1),r=Math.min(r,100),this.el=n,this.onTresholdChange=i&&i.call?i:function(){},this.tresholdPercent=r||1,this.currentVisibility=null,this.visibilityCalculator=$(n,this.onVisibilityUpdate.bind(this)),this.bindScrollWatchers(),this.visibilityCalculator()}return i(t,[{key:"bindScrollWatchers",value:function(){for(var t=this.el.parentNode;t&&(t.addEventListener("scroll",this.visibilityCalculator),t!==t.parentNode&&t!==document);)t=t.parentNode}},{key:"onVisibilityUpdate",value:function(t){var n=this.currentVisibility>=this.tresholdPercent,e=t>=this.tresholdPercent;if(null===this.currentVisibility||n!==e)return this.currentVisibility=t,void this.onTresholdChange(e);this.currentVisibility=t}}]),t}();function Z(t){return h(t)+""}function K(t){var n=arguments.length>1&&void 0!==arguments[1]?arguments[1]:" ";return t&&t.length?t.map(Z).join(n):""}function tt(t){return Z(t.x)+","+Z(t.y)}function nt(t){return t?null==t.a||t.a>=1?"rgb("+t.r+","+t.g+","+t.b+")":"rgba("+t.r+","+t.g+","+t.b+","+t.a+")":"transparent"}var et={f:null,i:S,u:function(t,n){return function(e){var r=n(e);t.setAttribute("rx",Z(r.x)),t.setAttribute("ry",Z(r.y))}}},rt={f:null,i:function(t,n,e){return 0===t?n:1===t?e:{width:k(t,n.width,e.width),height:k(t,n.height,e.height)}},u:function(t,n){return function(e){var r=n(e);t.setAttribute("width",Z(r.width)),t.setAttribute("height",Z(r.height))}}},it=Math.sin,ut=Math.cos,ot=Math.acos,at=Math.asin,lt=Math.tan,st=Math.atan2,ft=Math.PI/180,ct=180/Math.PI,ht=Math.sqrt,vt=function(){function t(){var n=arguments.length>0&&void 0!==arguments[0]?arguments[0]:1,r=arguments.length>1&&void 0!==arguments[1]?arguments[1]:0,i=arguments.length>2&&void 0!==arguments[2]?arguments[2]:0,u=arguments.length>3&&void 0!==arguments[3]?arguments[3]:1,o=arguments.length>4&&void 0!==arguments[4]?arguments[4]:0,a=arguments.length>5&&void 0!==arguments[5]?arguments[5]:0;e(this,t),this.m=[n,r,i,u,o,a],this.i=null,this.w=null,this.s=null}return i(t,[{key:"determinant",get:function(){var t=this.m;return t[0]*t[3]-t[1]*t[2]}},{key:"isIdentity",get:function(){if(null===this.i){var t=this.m;this.i=1===t[0]&&0===t[1]&&0===t[2]&&1===t[3]&&0===t[4]&&0===t[5]}return this.i}},{key:"point",value:function(t,n){var e=this.m;return{x:e[0]*t+e[2]*n+e[4],y:e[1]*t+e[3]*n+e[5]}}},{key:"translateSelf",value:function(){var t=arguments.length>0&&void 0!==arguments[0]?arguments[0]:0,n=arguments.length>1&&void 0!==arguments[1]?arguments[1]:0;if(!t&&!n)return this;var e=this.m;return e[4]+=e[0]*t+e[2]*n,e[5]+=e[1]*t+e[3]*n,this.w=this.s=this.i=null,this}},{key:"rotateSelf",value:function(){var t=arguments.length>0&&void 0!==arguments[0]?arguments[0]:0;if(t%=360){var n=it(t*=ft),e=ut(t),r=this.m,i=r[0],u=r[1];r[0]=i*e+r[2]*n,r[1]=u*e+r[3]*n,r[2]=r[2]*e-i*n,r[3]=r[3]*e-u*n,this.w=this.s=this.i=null}return this}},{key:"scaleSelf",value:function(){var t=arguments.length>0&&void 0!==arguments[0]?arguments[0]:1,n=arguments.length>1&&void 0!==arguments[1]?arguments[1]:1;if(1!==t||1!==n){var e=this.m;e[0]*=t,e[1]*=t,e[2]*=n,e[3]*=n,this.w=this.s=this.i=null}return this}},{key:"skewSelf",value:function(t,n){if(n%=360,(t%=360)||n){var e=this.m,r=e[0],i=e[1],u=e[2],o=e[3];t&&(t=lt(t*ft),e[2]+=r*t,e[3]+=i*t),n&&(n=lt(n*ft),e[0]+=u*n,e[1]+=o*n),this.w=this.s=this.i=null}return this}},{key:"resetSelf",value:function(){var t=arguments.length>0&&void 0!==arguments[0]?arguments[0]:1,n=arguments.length>1&&void 0!==arguments[1]?arguments[1]:0,e=arguments.length>2&&void 0!==arguments[2]?arguments[2]:0,r=arguments.length>3&&void 0!==arguments[3]?arguments[3]:1,i=arguments.length>4&&void 0!==arguments[4]?arguments[4]:0,u=arguments.length>5&&void 0!==arguments[5]?arguments[5]:0,o=this.m;return o[0]=t,o[1]=n,o[2]=e,o[3]=r,o[4]=i,o[5]=u,this.w=this.s=this.i=null,this}},{key:"recomposeSelf",value:function(){var t=arguments.length>0&&void 0!==arguments[0]?arguments[0]:null,n=arguments.length>1&&void 0!==arguments[1]?arguments[1]:null,e=arguments.length>2&&void 0!==arguments[2]?arguments[2]:null,r=arguments.length>3&&void 0!==arguments[3]?arguments[3]:null,i=arguments.length>4&&void 0!==arguments[4]?arguments[4]:null;return this.isIdentity||this.resetSelf(),t&&(t.x||t.y)&&this.translateSelf(t.x,t.y),n&&this.rotateSelf(n),e&&(e.x&&this.skewSelf(e.x,0),e.y&&this.skewSelf(0,e.y)),!r||1===r.x&&1===r.y||this.scaleSelf(r.x,r.y),i&&(i.x||i.y)&&this.translateSelf(i.x,i.y),this}},{key:"decompose",value:function(){var t=arguments.length>0&&void 0!==arguments[0]?arguments[0]:0,n=arguments.length>1&&void 0!==arguments[1]?arguments[1]:0,e=this.m,r=e[0]*e[0]+e[1]*e[1],i=[[e[0],e[1]],[e[2],e[3]]],u=ht(r);if(0===u)return{origin:{x:h(e[4]),y:h(e[5])},translate:{x:h(t),y:h(n)},scale:{x:0,y:0},skew:{x:0,y:0},rotate:0};i[0][0]/=u,i[0][1]/=u;var o=e[0]*e[3]-e[1]*e[2]<0;o&&(u=-u);var a=i[0][0]*i[1][0]+i[0][1]*i[1][1];i[1][0]-=i[0][0]*a,i[1][1]-=i[0][1]*a;var l=ht(i[1][0]*i[1][0]+i[1][1]*i[1][1]);if(0===l)return{origin:{x:h(e[4]),y:h(e[5])},translate:{x:h(t),y:h(n)},scale:{x:h(u),y:0},skew:{x:0,y:0},rotate:0};i[1][0]/=l,i[1][1]/=l,a/=l;var s=0;return i[1][1]<0?(s=ot(i[1][1])*ct,i[0][1]<0&&(s=360-s)):s=at(i[0][1])*ct,o&&(s=-s),a=st(a,ht(i[0][0]*i[0][0]+i[0][1]*i[0][1]))*ct,o&&(a=-a),{origin:{x:h(e[4]),y:h(e[5])},translate:{x:h(t),y:h(n)},scale:{x:h(u),y:h(l)},skew:{x:h(a),y:0},rotate:h(s)}}},{key:"toString",value:function(){return null===this.s&&(this.s="matrix("+this.m.map((function(t){return h(t)})).join(" ")+")"),this.s}}]),t}();Object.freeze({M:2,L:2,Z:0,H:1,V:1,C:6,Q:4,T:2,S:4,A:7});var dt={},yt=null;function gt(t){var e=function(){if(yt)return yt;if("object"!==("undefined"==typeof document?"undefined":n(document))||!document.createElementNS)return{};var t=document.createElementNS("http://www.w3.org/2000/svg","svg");return t&&t.style?(t.style.position="absolute",t.style.opacity="0.01",t.style.zIndex="-9999",t.style.left="-9999px",t.style.width="1px",t.style.height="1px",yt={svg:t}):{}}().svg;if(!e)return function(t){return null};var r=document.createElementNS(e.namespaceURI,"path");r.setAttributeNS(null,"d",t),r.setAttributeNS(null,"fill","none"),r.setAttributeNS(null,"stroke","none"),e.appendChild(r);var i=r.getTotalLength();return function(t){var n=r.getPointAtLength(i*t);return{x:n.x,y:n.y}}}function pt(t){return dt[t]?dt[t]:dt[t]=gt(t)}function bt(t,n,e,r){if(!t||!r)return!1;var i=["M",t.x,t.y];if(n&&e&&(i.push("C"),i.push(n.x),i.push(n.y),i.push(e.x),i.push(e.y)),n?!e:e){var u=n||e;i.push("Q"),i.push(u.x),i.push(u.y)}return n||e||i.push("L"),i.push(r.x),i.push(r.y),i.join(" ")}function mt(t,n,e,r){var i=arguments.length>4&&void 0!==arguments[4]?arguments[4]:1,u=bt(t,n,e,r),o=pt(u);try{return o(i)}catch(t){return null}}function wt(t,n,e,r){var i=1-r;return i*i*t+2*i*r*n+r*r*e}function xt(t,n,e,r){return 2*(1-r)*(n-t)+2*r*(e-n)}function At(t,n,e,r){var i=arguments.length>4&&void 0!==arguments[4]&&arguments[4],u=mt(t,n,null,e,r);return u||(u={x:wt(t.x,n.x,e.x,r),y:wt(t.y,n.y,e.y,r)}),i&&(u.a=kt(t,n,e,r)),u}function kt(t,n,e,r){return Math.atan2(xt(t.y,n.y,e.y,r),xt(t.x,n.x,e.x,r))}function _t(t,n,e,r,i){var u=i*i;return i*u*(r-t+3*(n-e))+3*u*(t+e-2*n)+3*i*(n-t)+t}function St(t,n,e,r,i){var u=1-i;return 3*(u*u*(n-t)+2*u*i*(e-n)+i*i*(r-e))}function Ot(t,n,e,r,i){var u=arguments.length>5&&void 0!==arguments[5]&&arguments[5],o=mt(t,n,e,r,i);return o||(o={x:_t(t.x,n.x,e.x,r.x,i),y:_t(t.y,n.y,e.y,r.y,i)}),u&&(o.a=Mt(t,n,e,r,i)),o}function Mt(t,n,e,r,i){return Math.atan2(St(t.y,n.y,e.y,r.y,i),St(t.x,n.x,e.x,r.x,i))}function Et(t,n,e){return t+(n-t)*e}function Pt(t,n,e){var r=arguments.length>3&&void 0!==arguments[3]&&arguments[3],i={x:Et(t.x,n.x,e),y:Et(t.y,n.y,e)};return r&&(i.a=jt(t,n)),i}function jt(t,n){return Math.atan2(n.y-t.y,n.x-t.x)}function Bt(t,n,e){var r=arguments.length>3&&void 0!==arguments[3]&&arguments[3];if(Rt(n)){if(Tt(e))return At(n,e.start,e,t,r)}else if(Rt(e)){if(n.end)return At(n,n.end,e,t,r)}else{if(n.end)return e.start?Ot(n,n.end,e.start,e,t,r):At(n,n.end,e,t,r);if(e.start)return At(n,e.start,e,t,r)}return Pt(n,e,t,r)}function It(t,n,e){var r=Bt(t,n,e,!0);return r.a=function(t){return arguments.length>1&&void 0!==arguments[1]&&arguments[1]?t+Math.PI:t}(r.a)/d,r}function Rt(t){return!t.type||"corner"===t.type}function Tt(t){return null!=t.start&&!Rt(t)}var Nt=new vt;var Ct={f:function(t){return t?t.join(" "):""},i:function(t,e,r){if(0===t)return e;if(1===t)return r;var i=e.length;if(i!==r.length)return x(t,e,r);for(var u,o=new Array(i),a=0;a<i;a++){if((u=n(e[a]))!==n(r[a]))return x(t,e,r);if("number"===u)o[a]=A(t,e[a],r[a]);else{if(e[a]!==r[a])return x(t,e,r);o[a]=e[a]}}return o}},Ft={f:null,i:P,u:function(t,n){return function(e){var r=n(e);t.setAttribute("x1",Z(r[0])),t.setAttribute("y1",Z(r[1])),t.setAttribute("x2",Z(r[2])),t.setAttribute("y2",Z(r[3]))}}},Lt={f:Z,i:A},Vt={f:Z,i:function(t,n,e){var r=A(t,n,e);return r<=0?0:r>=1?1:r}},qt={f:function(t){var n=arguments.length>1&&void 0!==arguments[1]?arguments[1]:" ";return t&&t.length>0&&(t=t.map((function(t){return h(t,4)}))),K(t,n)},i:function(t,n,e){var r,i,u,o=n.length,a=e.length;if(o!==a)if(0===o)n=j(o=a,0);else if(0===a)a=o,e=j(o,0);else{var l=(u=(r=o)*(i=a)/function(t,n){for(var e;n;)e=n,n=t%n,t=e;return t||1}(r,i))<0?-u:u;n=B(n,Math.floor(l/o)),e=B(e,Math.floor(l/a)),o=a=l}for(var s=[],f=0;f<o;f++)s.push(h(k(t,n[f],e[f])));return s}};function Dt(t,n,e,r,i,u,o,a){return n=function(t,n,e){for(var r,i,u,o=t.length-1,a={},l=0;l<=o;l++)(r=t[l]).e&&(r.e=n(r.e)),r.v&&"g"===(i=r.v).t&&i.r&&(u=e.getElementById(i.r))&&(a[i.r]=u.querySelectorAll("stop"));return a}(t,r,a),function(r){var i,u=e(r,t,zt);return u?"c"===u.t?nt(u.v):"g"===u.t?(n[u.r]&&function(t,n){for(var e=0,r=t.length;e<r;e++)t[e].setAttribute("stop-color",nt(n[e]))}(n[u.r],u.v),(i=u.r)?"url(#"+i+")":"none"):"none":"none"}}function zt(t,n,e){if(0===t)return n;if(1===t)return e;if(n&&e){var r=n.t;if(r===e.t)switch(n.t){case"c":return{t:r,v:M(t,n.v,e.v)};case"g":if(n.r===e.r)return{t:r,v:E(t,n.v,e.v),r:n.r}}}return x(t,n,e)}var Yt={blur:S,brightness:k,contrast:k,"drop-shadow":function(t,n,e){return 0===t?n:1===t?e:{blur:S(t,n.blur,e.blur),offset:_(t,n.offset,e.offset),color:M(t,n.color,e.color)}},grayscale:k,"hue-rotate":A,invert:k,opacity:k,saturate:k,sepia:k};function Gt(t,n,e){if(0===t)return n;if(1===t)return e;var r=n.length;if(r!==e.length)return x(t,n,e);for(var i,u=[],o=0;o<r;o++){if(n[o].type!==e[o].type)return n;if(!(i=Yt[n[o].type]))return x(t,n,e);u.push({type:n.type,value:i(t,n[o].value,e[o].value)})}return u}var Ut={blur:function(t){return t?function(n){t.setAttribute("stdDeviation",tt(n))}:null},brightness:function(t,n,e){return(t=Ht(e,n))?function(n){n=Z(n),t.map((function(t){return t.setAttribute("slope",n)}))}:null},contrast:function(t,n,e){return(t=Ht(e,n))?function(n){var e=Z((1-n)/2);n=Z(n),t.map((function(t){t.setAttribute("slope",n),t.setAttribute("intercept",e)}))}:null},"drop-shadow":function(t,n,e){var r=e.getElementById(n+"-blur");if(!r)return null;var i=e.getElementById(n+"-offset");if(!i)return null;var u=e.getElementById(n+"-flood");return u?function(t){r.setAttribute("stdDeviation",tt(t.blur)),i.setAttribute("dx",Z(t.offset.x)),i.setAttribute("dy",Z(t.offset.y)),u.setAttribute("flood-color",nt(t.color))}:null},grayscale:function(t){return t?function(n){t.setAttribute("values",K(function(t){return[.2126+.7874*(t=1-t),.7152-.7152*t,.0722-.0722*t,0,0,.2126-.2126*t,.7152+.2848*t,.0722-.0722*t,0,0,.2126-.2126*t,.7152-.7152*t,.0722+.9278*t,0,0,0,0,0,1,0]}(n)))}:null},"hue-rotate":function(t){return t?function(n){return t.setAttribute("values",Z(n))}:null},invert:function(t,n,e){return(t=Ht(e,n))?function(n){n=Z(n)+" "+Z(1-n),t.map((function(t){return t.setAttribute("tableValues",n)}))}:null},opacity:function(t,n,e){return(t=e.getElementById(n+"-A"))?function(n){return t.setAttribute("tableValues","0 "+Z(n))}:null},saturate:function(t){return t?function(n){return t.setAttribute("values",Z(n))}:null},sepia:function(t){return t?function(n){return t.setAttribute("values",K(function(t){return[.393+.607*(t=1-t),.769-.769*t,.189-.189*t,0,0,.349-.349*t,.686+.314*t,.168-.168*t,0,0,.272-.272*t,.534-.534*t,.131+.869*t,0,0,0,0,0,1,0]}(n)))}:null}};var Wt=["R","G","B"];function Ht(t,n){var e=Wt.map((function(e){return t.getElementById(n+"-"+e)||null}));return-1!==e.indexOf(null)?null:e}var Qt={fill:Dt,"fill-opacity":Vt,stroke:Dt,"stroke-opacity":Vt,"stroke-width":Lt,"stroke-dashoffset":{f:Z,i:A},"stroke-dasharray":qt,opacity:Vt,transform:function(t,e,r,i){if(!(t=function(t,e){if(!t||"object"!==n(t))return null;var r=!1;for(var i in t)t.hasOwnProperty(i)&&(t[i]&&t[i].length?(t[i].forEach((function(t){t.e&&(t.e=e(t.e))})),r=!0):delete t[i]);return r?t:null}(t,i)))return null;var u=function(n,i,u){var o=arguments.length>3&&void 0!==arguments[3]?arguments[3]:null;return t[n]?r(i,t[n],u):e&&e[n]?e[n]:o};return e&&e.a&&t.o?function(n){var e=r(n,t.o,It);return Nt.recomposeSelf(e,u("r",n,A,0)+e.a,u("k",n,_),u("s",n,_),u("t",n,_)).toString()}:function(t){return Nt.recomposeSelf(u("o",t,Bt,null),u("r",t,A,0),u("k",t,_),u("s",t,_),u("t",t,_)).toString()}},"#filter":function(t,n,e,r,i,u,o,a){if(!n.items||!t||!t.length)return null;var l=function(t,n){var e=(t=t.map((function(t){return t&&Ut[t[0]]?(n.getElementById(t[1]),Ut[t[0]](n.getElementById(t[1]),t[1],n)):null}))).length;return function(n){for(var r=0;r<e;r++)t[r]&&t[r](n[r].value)}}(n.items,a);return l?(t=function(t,n){return t.map((function(t){return t.e=n(t.e),t}))}(t,r),function(n){l(e(n,t,Gt))}):null},"#line":Ft,points:{f:K,i:P},d:Ct,r:Lt,"#size":rt,"#radius":et,_:function(t,n){if(Array.isArray(t))for(var e=0;e<t.length;e++)this[t[e]]=n;else this[t]=n}},Xt=function(t){!function(t,n){if("function"!=typeof n&&null!==n)throw new TypeError("Super expression must either be null or a function");t.prototype=Object.create(n&&n.prototype,{constructor:{value:t,writable:!0,configurable:!0}}),n&&a(t,n)}(r,t);var n=s(r);function r(){return e(this,r),n.apply(this,arguments)}return i(r,null,[{key:"build",value:function(t){var n=f(o(r),"build",this).call(this,t,Qt);if(!n)return null;var e=n.el,i=n.options,u=n.player;return function(t,n,e){if("click"===e.start){var r=function(){switch(e.click){case"freeze":return!t._running&&t.reachedToEnd()&&(t.offset=0),t._running?t.pause():t.play();case"restart":return t.offset>0?t.restart():t.play();case"reverse":var n=!t._rollingBack&&t._running,r=t.reachedToEnd();return n||r&&1===t.fill?(t.pause(),r&&(t.offset=t.duration-1),t._rollback()):r?t.restart():t.play();case"none":default:return!t._running&&t.offset?t.restart():t.play()}};return void n.addEventListener("click",r)}if("hover"===e.start)return n.addEventListener("mouseenter",(function(){return t.reachedToEnd()?t.restart():t.play()})),void n.addEventListener("mouseleave",(function(){switch(e.hover){case"freeze":return t.pause();case"reset":return t.stop();case"reverse":return t.pause(),t._rollback();case"none":default:return}}));if("scroll"===e.start)return void new J(n,e.scroll||25,(function(n){n?t.reachedToEnd()?t.restart():t.play():t.pause()}));t.play()}(u,e,i),u}}]),r}(X);return Xt.init(),Xt}));
(function(s,i,o,w){w[o]=w[o]||{};w[o][s]=w[o][s]||[];w[o][s].push(i);})('91c80d77',{"root":"ek9qlfwbzuD1","animations":[{"elements":{"ek9qlfwbzuD5":{"transform":{"data":{"o":{"x":255.999504,"y":256.000008,"type":"corner"},"t":{"x":-255.999504,"y":-256.000008}},"keys":{"r":[{"t":0,"v":0,"e":[0.42,0,0.58,1]},{"t":100,"v":0,"e":[0.42,0,0.58,1]},{"t":300,"v":60,"e":[0.42,0,0.58,1]},{"t":400,"v":60,"e":[0.42,0,0.58,1]},{"t":600,"v":180}]}}},"ek9qlfwbzuD8":{"transform":{"data":{"o":{"x":256.000359,"y":255.999535,"type":"corner"},"t":{"x":-256.000359,"y":-255.999535}},"keys":{"r":[{"t":0,"v":0,"e":[0.42,0,0.58,1]},{"t":100,"v":0,"e":[0.42,0,0.58,1]},{"t":300,"v":-90,"e":[0.42,0,0.58,1]},{"t":400,"v":-90,"e":[0.42,0,0.58,1]},{"t":600,"v":-180}]}}}},"s":"MDOA1Mzk1UzNjUDDdlOGY4YzdiYOGU4Mzg5ODhWHM2M1NDRiNGWE0YU9LNGE0NFjNjN2U4MzhjDN2Y3ZDhlODMG4OVE4ODNjNTOQ0YjQ2M2M4MXzhlN2Y4YzdiEOGU4Mzg5ODgT4ZDNjNTQ0YjWQ2M2M4MDgzOKDY4NkczYzU0MNGI0NkIzYzdAiODY4ZTdmOGIM4ODdiOGU3ZNjNjNTQ4MDdiWODY4ZDdmNDYAzYzhkOGE3ZjVdmN2VCM2M1NFEE0Yjk3"}],"options":"MDIAyMDkyMzk4YGThiNzg4OThiGMzk1MTM5N2YN4NjhkN2M4OTUM5NDMzOTdmWOTg2OGQ3Yzg5XMzk1MTM5ODUW4Njg1N2MzOTTk0"},'__SVGATOR_PLAYER__',window)]]></script></svg>