<svg id="ej3MYhaE5S21" xmlns="http://www.w3.org/2000/svg" viewBox="0 0 511 511" shape-rendering="geometricPrecision" text-rendering="geometricPrecision"><circle id="ej3MYhaE5S22" r="188.488" transform="rotate(-1.548 9587.616 -9328.024)" fill="#F2F1EC" stroke="none" stroke-width="1"/><path id="ej3MYhaE5S23" d="M260.64.27c10.72 4.07 17.25 13.18 24.97 20.83 3.41 3.38 6.53 7.09 9.51 10.86 1.95 2.46 3.65 2.4 6.34 1.12 10.03-4.77 20.09-9.51 30.33-13.78 13.8-5.75 26.62-.59 32.42 13.06 4.34 10.21 8.42 20.56 12.02 31.06 1.46 4.25 3.3 5.62 7.74 5.36 11.08-.64 22.2-.95 33.3-1 14.97-.07 24.98 9.99 24.9 25.02-.06 10.77-.47 21.55-.99 32.31-.17 3.6 1.04 5.23 4.48 6.42 10.17 3.53 20.29 7.26 30.26 11.34 13.99 5.73 19.4 18.53 13.69 32.54-4.38 10.74-9.17 21.32-14.11 31.81-1.44 3.05-.81 4.59 1.5 6.69 8.35 7.57 16.69 15.19 24.67 23.15 11.47 11.47 11.47 24.91.03 36.42-7.37 7.4-15.05 14.51-22.85 21.45-2.82 2.51-3.42 4.33-1.65 7.9 4.85 9.8 9.41 19.76 13.58 29.87 5.58 13.51.37 26.34-13.02 32.05-10.36 4.42-20.88 8.52-31.53 12.18-4.15 1.42-5.26 3.34-5.04 7.48.58 11.25.95 22.53.99 33.8.05 14.43-9.98 24.58-24.34 24.57-10.94 0-21.88-.45-32.81-.93-3.46-.15-5.32.65-6.55 4.25a573.107 573.107 0 01-11.31 30.27c-5.65 13.9-18.7 19.52-32.49 13.9-10.74-4.38-21.32-9.17-31.82-14.09-2.95-1.38-4.56-1.08-6.72 1.32-7.43 8.26-14.95 16.46-22.78 24.33-12.06 12.13-25.32 12.08-37.48-.13-7.37-7.4-14.43-15.12-21.42-22.89-2.16-2.4-3.8-2.69-6.74-1.27-10 4.82-20.08 9.52-30.33 13.78-13.54 5.63-26.69.2-32.36-13.34-4.41-10.54-8.42-21.26-12.32-32.01-1.15-3.17-2.62-4.39-6.08-4.23-11.59.54-23.19 1-34.79 1.03-14.7.04-24.73-10.05-24.67-24.75.04-10.77.45-21.55.99-32.31.19-3.8-1.07-5.49-4.7-6.75-10.33-3.58-20.59-7.4-30.68-11.61-13.24-5.53-18.61-18.19-13.3-31.49 4.3-10.77 9.03-21.38 14.04-31.84 1.73-3.61 1.09-5.36-1.71-7.87-8.41-7.51-16.59-15.29-24.62-23.2-2.56-2.52-4.37-5.79-6.53-8.71v-17.93c3.32-4.11 6.33-8.52 10.02-12.25 6.18-6.24 12.61-12.26 19.29-17.95 3.35-2.85 3.94-4.94 1.84-9.08-4.93-9.74-9.39-19.76-13.47-29.9-5.17-12.84-.09-25.44 12.57-30.99 10.46-4.58 21.14-8.72 31.93-12.46 4.26-1.47 5.58-3.34 5.33-7.75-.63-11.24-.97-22.52-.99-33.78-.04-14.35 10.1-24.44 24.5-24.39 10.93.03 21.87.47 32.79.98 3.56.16 5.25-.96 6.44-4.43 3.51-10.17 7.25-20.28 11.33-30.24 5.73-14.01 18.51-19.46 32.49-13.77 10.74 4.37 21.31 9.16 31.8 14.08 2.97 1.39 4.69 1.16 6.7-1.37 3.19-4.02 6.47-8.03 10.15-11.6 7.9-7.67 14.42-17.06 25.33-21.15 3.96.01 7.95.01 11.93.01zM441.67 255.1c-.6-103.58-83.75-186.75-187.07-186.72-103.33.04-186.8 83.28-186.84 186.85-.04 103.68 83.59 187.14 187.22 186.97 103.4-.18 186.31-83.59 186.69-187.1zM139.79 87.24c-16.5-3.18-32.91-4.82-49.48-3.31-5.4.49-7.4 3.05-7.38 9.91.03 10.93.59 21.86 1.21 32.77.27 4.64 1.26 9.23 2.13 15.36 15.46-22 33.11-39.53 53.52-54.73zm282.92 53.18c3.23-16.37 4.69-32.64 3.4-49.04-.46-5.78-3-7.85-10.04-7.82-11.09.04-22.19.66-33.27 1.3-4.46.26-8.88 1.2-14.81 2.04 22.02 15.48 39.55 33.14 54.72 53.52zM86.9 369.53c-.64 1.13-1.06 1.54-1.09 1.97-1.04 14.69-2.4 29.37-2.91 44.09-.31 9 2.52 11.51 11.69 11.52 9.94.01 19.89-.42 29.81-1.04 5.17-.32 10.28-1.44 16.84-2.41-21.78-15.43-39.41-32.98-54.34-54.13zm282.17 53.44c.87.61 1.25 1.09 1.65 1.12 15.19 1.04 30.36 2.39 45.57 2.87 7.58.24 10.08-2.63 10.13-10.44.06-10.43-.42-20.88-1.02-31.3-.29-5.04-1.39-10.04-2.34-16.48-15.48 21.76-33.11 39.49-53.99 54.23zM293.25 56.15c-1.6-2.48-2.32-3.97-3.37-5.16-9.2-10.41-18.29-20.93-27.79-31.07-5.41-5.78-9.32-5.72-14.8-.09-8.08 8.3-15.9 16.86-23.64 25.48-2.64 2.95-4.71 6.41-7.04 9.64 25.7-3.86 50.63-3.76 76.64 1.2zM453.8 293.81c2.36-1.5 3.84-2.18 5.01-3.22 10.53-9.31 21.17-18.51 31.44-28.11 5.49-5.13 5.39-9.19-.02-14.45-8.43-8.19-17.11-16.12-25.85-23.97-2.87-2.57-6.26-4.56-10.66-7.71 5.1 26.48 5.08 51.43.08 77.46zM216.14 454.43c1.5 2.36 2.18 3.84 3.22 5.01 9.31 10.53 18.51 21.17 28.11 31.44 5.13 5.49 9.19 5.4 14.45-.02 8.19-8.43 16.12-17.11 23.97-25.85 2.57-2.87 4.56-6.26 7.71-10.66-26.47 5.1-51.42 5.08-77.46.08zM54.57 217.1c-14.15 9.71-26.34 20.81-37.38 33.17-3.32 3.71-2.45 7.77.87 11.12 5.82 5.89 11.61 11.82 17.78 17.33 5.85 5.22 12.18 9.91 18.79 15.24-1.09-13.67-2.87-26.15-2.87-38.62-.01-12.49 1.76-24.97 2.81-38.24zm16.17-69.94c-11.91 4.85-23.33 9.21-34.47 14.19-4.62 2.07-4.46 6.66-2.87 10.85 1.94 5.11 4.05 10.17 6.33 15.13 2.32 5.05 4.94 9.95 7.58 15.22 2.64-1.52 4.51-3.06 6.65-3.74 5.75-1.82 7.96-6.17 9.78-11.44 2.37-6.87 4.79-13.91 8.48-20.1 4.3-7.21.53-12.8-1.48-20.11zM362.6 71.01c-4.6-11.4-8.93-22.65-13.71-33.7-1.85-4.27-5.95-5.24-11.14-3.28-4.96 1.87-9.86 3.91-14.68 6.13-5.2 2.39-10.26 5.06-15.68 7.76 1.54 2.67 3.02 4.55 3.77 6.68 1.89 5.36 5.72 7.89 10.99 9.58 6.45 2.05 13.04 4.32 18.75 7.83 7.32 4.49 13.7 2.71 21.7-1zm99.9 236.75c-3.19 1.83-5.2 3.42-7.48 4.21-5.26 1.82-7.54 5.66-9.19 10.71-2.1 6.43-4.42 12.97-7.83 18.76-3.7 6.29-3.24 12-.81 18.29.95 2.46 2.01 3.03 4.42 2.08 10.01-3.96 20.12-7.67 30.07-11.78 4.74-1.96 6.53-5.77 4.59-10.61-4.2-10.41-8.94-20.62-13.77-31.66zm-414.65 1.47c-4.68 11.55-9.59 23.18-14.05 34.99-1.22 3.23.59 6.47 3.79 7.81 10.77 4.49 21.67 8.66 32.89 13.11 1.07-3.73 1.54-6.54 2.67-9.06 1.94-4.29 1.34-8-.75-12.15-3.12-6.18-6.3-12.52-8.01-19.17-2.16-8.43-7.53-12.64-16.54-15.53zm154.36 153.91c-1.84-3.2-3.33-5.08-4.08-7.22-1.89-5.38-5.77-7.86-11.03-9.53-6.29-2.01-12.6-4.37-18.32-7.61-6.2-3.51-11.89-3.69-18.27-1.05-2.63 1.09-3.37 2.05-2.32 4.69 3.91 9.85 7.55 19.81 11.58 29.61 2.01 4.9 5.62 6.83 10.44 4.92 10.59-4.19 20.93-8.99 32-13.81zm106.33-1.15c11.39 4.73 22.67 9.74 34.24 13.92 2.12.77 7.05-1.04 7.93-2.94 5.03-10.83 9.24-22.05 13.86-33.49-3.76-1.09-6.44-1.49-8.78-2.61-4.65-2.22-8.66-1.29-13.08.93-6.19 3.11-12.55 6.23-19.2 7.94-8.33 2.16-11.96 7.85-14.97 16.25zM200.67 48.61c-11.23-4.74-22.23-9.59-33.41-13.98-3.67-1.44-7.64-.36-9.3 3.57-4.54 10.75-8.68 21.67-13.14 32.92 3.7 1.06 6.5 1.55 9.02 2.67 4.28 1.89 7.99 1.4 12.15-.72 6.17-3.14 12.51-6.33 19.16-8.04 8.41-2.19 12.7-7.49 15.52-16.42zm260.77 152.77c4.7-11.49 9.61-23 14.06-34.69 1.3-3.43-.51-6.83-3.93-8.25-10.67-4.43-21.48-8.55-32.68-12.96-.96 3.27-1.34 5.76-2.39 7.92-2.47 5.12-1.58 9.61.99 14.52 3.06 5.85 6.02 11.97 7.61 18.33 2.1 8.38 7.7 12.18 16.34 15.13z" fill="#2F5373" stroke="none" stroke-width="1"/><g id="ej3MYhaE5S24" fill="#2F5373" stroke="none" stroke-width="1"><path id="ej3MYhaE5S25" d="M272.67 295.7c1.63 8.89 3.87 17.12 4.52 25.47 2.02 26.07-4.85 49.18-25.59 66.39-16.32 13.54-35.59 19.16-56.65 16.81-45.48-5.08-72.98-32.55-88.71-73.47-8.43-21.94-11.36-44.91-9.18-68.44 1.17-12.65 7.21-16.8 19.08-12.94 5.53 1.8 7.61 5.88 8.32 11.22 2.08 15.52 5.71 30.65 12.05 45 5.86 13.26 13.44 25.4 26.64 32.51 13.39 7.22 27.89 8.6 42.51 4.9 15.45-3.91 25.5-17.56 25.52-33.48.01-7.9-4.21-13.55-11.38-15.89-7-2.28-14.55-4.57-21.73-4.21-13.69.69-22.65-4.04-27.21-17.12-1.3-3.73-3.64-7.08-5.32-10.68-4.84-10.42 1.1-19.62 12.6-20.78 10.33-1.05 20.67-2.64 30.77-4.98 5.94-1.38 11.4-4.73 13.72-11.21 2.24-6.25.34-10.45-6.05-12.26-11.18-3.17-22.13-.97-32.63 2.87-6.63 2.42-12.98 5.87-19.02 9.57-9.68 5.94-17.07 4.91-23.59-4.23-5.79-8.1-11.56-16.22-17.18-24.44-6.62-9.69-3.86-19.39 6.94-23.88 6.57-2.74 13.32-5.08 20.09-7.32 4.8-1.59 8.99.5 10.54 4.75 1.44 3.96-.48 8.07-5.1 9.95-4.75 1.94-9.68 3.44-14.51 5.21-1.5.55-2.9 1.34-4.88 2.28 6.01 8.55 11.7 16.64 16.61 23.62 11.82-4.6 22.69-9.43 33.95-13.03 9.01-2.88 18.48-3.42 28.04-1.82 11 1.85 19.57 6.54 22.72 17.92 2.93 10.6-1.88 23.17-11.02 30.07-11.62 8.78-25.26 11.19-39.26 12.45-2.07.19-4.18.03-7.55.03 2.99 5.8 5.17 10.56 7.91 14.97.67 1.08 3.18 1.14 4.89 1.43 9.9 1.72 20.3 2 29.63 5.31 20.52 7.27 28.14 24.06 22.11 45.03-7.33 25.47-30.19 39.34-57.52 37.6-18.43-1.17-35.18-6.63-48.01-20.86-10.62-11.78-17.67-25.6-22.75-40.5-1.06-3.1-2.02-6.24-3.37-9.26 1.43 17.81 5.76 34.86 14.36 50.56 12.57 22.95 30.51 39.65 56.62 45.87 16.12 3.84 32 2.93 46.98-4.78 23.64-12.17 32.88-36.18 29.26-63.28-1.12-8.42-4.19-16.67-7.13-24.72-3.27-8.97-.38-13.54 9.3-14.01 5.6-.27 11.25-.93 16.7-2.19 11.73-2.71 20.34-9.27 24.41-21.11 5.12-14.93 14.48-25.92 29.78-31.23 18.39-6.39 34.08-.3 43.28 16.88 11.81 22.06 8.84 50.35-7.29 69.54-4.01 4.77-8.13 5.7-12.03 2.74-3.95-3.01-4.24-7.81-.23-12.68 12.66-15.41 13.12-32.36 6.37-50.1-4.37-11.48-12.6-15.22-24.26-11.51-8.32 2.64-14.46 7.83-18.15 15.88-2.83 6.17-5.24 12.67-8.98 18.26-8.07 12.07-20.61 17.21-34.3 20.04-1.13.23-2.28.41-3.41.66-.8.16-1.58.43-2.23.62z"/><path id="ej3MYhaE5S26" d="M241.9 258.48c6.99 3.59 11.72 3.33 15.54-2.28 6.78-9.97 12.42-20.7 19.06-30.77 4.7-7.13 9.12-15.15 15.64-20.26 25.8-20.19 64.38-19.88 90.29 5.97 19.19 19.15 30.19 42.12 30.27 69.3.1 34.58-11.92 64.54-40.41 85.18-34.05 24.68-78.39 8.34-90.12-32.06-1.7-5.86-2.68-11.96-3.64-18-.77-4.85 1.05-8.9 5.43-11.37 4.18-2.35 8.56-2.1 12.05 1.14 9.76 9.03 21.1 12.62 34.28 11.4 5.08-.47 8.33 2.52 8.73 6.84.41 4.41-2.67 7.82-7.78 8.66-10.85 1.79-21.1-.21-30.93-4.88-.88-.42-1.76-.83-3.61-1.71 2.23 10.19 6.33 18.43 13.49 24.78 16.23 14.39 40.07 14.48 56.84-.4 37.03-32.87 43.49-96.88-2.35-133.16-19.79-15.66-53-12.91-67.77 5.8-4.16 5.27-6.62 11.84-10.21 17.59-5.6 8.98-10.98 18.16-17.41 26.53-7.44 9.69-19.04 12.33-30.49 8.1-4.19-1.55-8.28-3.41-12.32-5.35-6.99-3.35-7.86-8.77-2.87-14.86 5.77-7.04 11.99-13.85 16.78-21.53 15.37-24.62 4.94-43.64-17.75-54.27-9.36-4.38-19.4-5.36-29.64-5.1-8.05.21-12.05-2.46-12.23-7.75-.17-5.16 4.06-8.31 11.86-8.38 21.66-.19 41.37 4.9 57.14 20.98 13.67 13.94 17.9 32.56 10.03 50.38-3.71 8.41-9.09 16.1-13.81 24.05-1.09 1.82-2.55 3.41-4.09 5.43z"/><path id="ej3MYhaE5S27" d="M292.7 185.14c-32.91.15-57.56-19.51-65.05-51.87-1.65-7.11.5-12.62 5.94-15.27 5.43-2.65 10.62-1.33 15.31 4.43 6.9 8.49 15.36 14.28 25.92 17.49 14.25 4.33 26.04.22 36.7-9.14 1.87-1.64 3.6-3.45 5.56-4.98 6.56-5.1 15.55-4.84 21.29 1.19 4.44 4.66 8.49 9.79 12.13 15.1 4.51 6.58 3.26 14.8-2.46 20.4-13.85 13.59-35.76 22.56-55.34 22.65zm-42.76-39.16c8.19 15.4 22.15 21.86 38.57 23.14 18.84 1.46 34.78-5.77 48.84-18.49-3.59-4.49-6.75-8.45-9.95-12.45-27.49 26.22-51.43 23.31-77.46 7.8z"/><path id="ej3MYhaE5S28" d="M258.42 113.21c-.06-9.27 16-25.45 25.33-25.5 9.18-.05 25.55 16.03 25.68 25.22.14 9.85-16.99 26.4-26.73 25.82-8.55-.51-24.22-16.99-24.28-25.54zm34.13.1c-2.86-3.11-5.58-6.08-8.36-9.11l-9.31 8.68c3.25 3.43 6.03 6.37 9.02 9.53 3.07-3.23 5.76-6.07 8.65-9.1z"/></g><script><![CDATA[!function(t,n){"object"==typeof exports&&"undefined"!=typeof module?module.exports=n(require("vue")):"function"==typeof define&&define.amd?define(["vue"],n):((t="undefined"!=typeof globalThis?globalThis:t||self).__SVGATOR_PLAYER__=t.__SVGATOR_PLAYER__||{},t.__SVGATOR_PLAYER__["91c80d77"]=n())}(this,(function(){"use strict";function t(t,n){var e=Object.keys(t);if(Object.getOwnPropertySymbols){var r=Object.getOwnPropertySymbols(t);n&&(r=r.filter((function(n){return Object.getOwnPropertyDescriptor(t,n).enumerable}))),e.push.apply(e,r)}return e}function n(n){for(var e=1;e<arguments.length;e++){var r=null!=arguments[e]?arguments[e]:{};e%2?t(Object(r),!0).forEach((function(t){o(n,t,r[t])})):Object.getOwnPropertyDescriptors?Object.defineProperties(n,Object.getOwnPropertyDescriptors(r)):t(Object(r)).forEach((function(t){Object.defineProperty(n,t,Object.getOwnPropertyDescriptor(r,t))}))}return n}function e(t){return(e="function"==typeof Symbol&&"symbol"==typeof Symbol.iterator?function(t){return typeof t}:function(t){return t&&"function"==typeof Symbol&&t.constructor===Symbol&&t!==Symbol.prototype?"symbol":typeof t})(t)}function r(t,n){if(!(t instanceof n))throw new TypeError("Cannot call a class as a function")}function i(t,n){for(var e=0;e<n.length;e++){var r=n[e];r.enumerable=r.enumerable||!1,r.configurable=!0,"value"in r&&(r.writable=!0),Object.defineProperty(t,r.key,r)}}function u(t,n,e){return n&&i(t.prototype,n),e&&i(t,e),t}function o(t,n,e){return n in t?Object.defineProperty(t,n,{value:e,enumerable:!0,configurable:!0,writable:!0}):t[n]=e,t}function a(t){return(a=Object.setPrototypeOf?Object.getPrototypeOf:function(t){return t.__proto__||Object.getPrototypeOf(t)})(t)}function l(t,n){return(l=Object.setPrototypeOf||function(t,n){return t.__proto__=n,t})(t,n)}function s(t,n){if(n&&("object"==typeof n||"function"==typeof n))return n;if(void 0!==n)throw new TypeError("Derived constructors may only return object or undefined");return function(t){if(void 0===t)throw new ReferenceError("this hasn't been initialised - super() hasn't been called");return t}(t)}function f(t){var n=function(){if("undefined"==typeof Reflect||!Reflect.construct)return!1;if(Reflect.construct.sham)return!1;if("function"==typeof Proxy)return!0;try{return Boolean.prototype.valueOf.call(Reflect.construct(Boolean,[],(function(){}))),!0}catch(t){return!1}}();return function(){var e,r=a(t);if(n){var i=a(this).constructor;e=Reflect.construct(r,arguments,i)}else e=r.apply(this,arguments);return s(this,e)}}function c(t,n,e){return(c="undefined"!=typeof Reflect&&Reflect.get?Reflect.get:function(t,n,e){var r=function(t,n){for(;!Object.prototype.hasOwnProperty.call(t,n)&&null!==(t=a(t)););return t}(t,n);if(r){var i=Object.getOwnPropertyDescriptor(r,n);return i.get?i.get.call(e):i.value}})(t,n,e||t)}var h=v(Math.pow(10,-6));function v(t){var n=arguments.length>1&&void 0!==arguments[1]?arguments[1]:6;if(Number.isInteger(t))return t;var e=Math.pow(10,n);return Math.round((+t+Number.EPSILON)*e)/e}function d(t,n){var e=arguments.length>2&&void 0!==arguments[2]?arguments[2]:h;return Math.abs(t-n)<e}var y=Math.PI/180;function g(t){return t}function p(t,n,e){var r=1-e;return 3*e*r*(t*r+n*e)+e*e*e}function m(){var t=arguments.length>0&&void 0!==arguments[0]?arguments[0]:0,n=arguments.length>1&&void 0!==arguments[1]?arguments[1]:0,e=arguments.length>2&&void 0!==arguments[2]?arguments[2]:1,r=arguments.length>3&&void 0!==arguments[3]?arguments[3]:1;return t<0||t>1||e<0||e>1?null:d(t,n)&&d(e,r)?g:function(i){if(i<=0)return t>0?i*n/t:0===n&&e>0?i*r/e:0;if(i>=1)return e<1?1+(i-1)*(r-1)/(e-1):1===e&&t<1?1+(i-1)*(n-1)/(t-1):1;for(var u,o=0,a=1;o<a;){var l=p(t,e,u=(o+a)/2);if(d(i,l))break;l<i?o=u:a=u}return p(n,r,u)}}function b(){return 1}function w(t){return 1===t?1:0}function x(){var t=arguments.length>0&&void 0!==arguments[0]?arguments[0]:1,n=arguments.length>1&&void 0!==arguments[1]?arguments[1]:0;if(1===t){if(0===n)return w;if(1===n)return b}var e=1/t;return function(t){return t>=1?1:(t+=n*e)-t%e}}var A="undefined"!=typeof window&&/(Mac|iPhone|iPod|iPad)/i.test(window.navigator.platform);Object.freeze({Meta:A?"Control":"Meta",Ctrl:"Control",Down:"ArrowDown",Up:"ArrowUp",Left:"ArrowLeft",Right:"ArrowRight",Esc:"Escape",Delete:"Backspace",Space:"Space"});var k=Math.sin,_=Math.cos,S=Math.acos,O=Math.asin,M=Math.tan,E=Math.atan2,P=Math.PI/180,j=180/Math.PI,B=Math.sqrt,I=function(){function t(){var n=arguments.length>0&&void 0!==arguments[0]?arguments[0]:1,e=arguments.length>1&&void 0!==arguments[1]?arguments[1]:0,i=arguments.length>2&&void 0!==arguments[2]?arguments[2]:0,u=arguments.length>3&&void 0!==arguments[3]?arguments[3]:1,o=arguments.length>4&&void 0!==arguments[4]?arguments[4]:0,a=arguments.length>5&&void 0!==arguments[5]?arguments[5]:0;r(this,t),this.m=[n,e,i,u,o,a],this.i=null,this.w=null,this.s=null}return u(t,[{key:"determinant",get:function(){var t=this.m;return t[0]*t[3]-t[1]*t[2]}},{key:"isIdentity",get:function(){if(null===this.i){var t=this.m;this.i=1===t[0]&&0===t[1]&&0===t[2]&&1===t[3]&&0===t[4]&&0===t[5]}return this.i}},{key:"point",value:function(t,n){var e=this.m;return{x:e[0]*t+e[2]*n+e[4],y:e[1]*t+e[3]*n+e[5]}}},{key:"translateSelf",value:function(){var t=arguments.length>0&&void 0!==arguments[0]?arguments[0]:0,n=arguments.length>1&&void 0!==arguments[1]?arguments[1]:0;if(!t&&!n)return this;var e=this.m;return e[4]+=e[0]*t+e[2]*n,e[5]+=e[1]*t+e[3]*n,this.w=this.s=this.i=null,this}},{key:"rotateSelf",value:function(){var t=arguments.length>0&&void 0!==arguments[0]?arguments[0]:0;if(t%=360){var n=k(t*=P),e=_(t),r=this.m,i=r[0],u=r[1];r[0]=i*e+r[2]*n,r[1]=u*e+r[3]*n,r[2]=r[2]*e-i*n,r[3]=r[3]*e-u*n,this.w=this.s=this.i=null}return this}},{key:"scaleSelf",value:function(){var t=arguments.length>0&&void 0!==arguments[0]?arguments[0]:1,n=arguments.length>1&&void 0!==arguments[1]?arguments[1]:1;if(1!==t||1!==n){var e=this.m;e[0]*=t,e[1]*=t,e[2]*=n,e[3]*=n,this.w=this.s=this.i=null}return this}},{key:"skewSelf",value:function(t,n){if(n%=360,(t%=360)||n){var e=this.m,r=e[0],i=e[1],u=e[2],o=e[3];t&&(t=M(t*P),e[2]+=r*t,e[3]+=i*t),n&&(n=M(n*P),e[0]+=u*n,e[1]+=o*n),this.w=this.s=this.i=null}return this}},{key:"resetSelf",value:function(){var t=arguments.length>0&&void 0!==arguments[0]?arguments[0]:1,n=arguments.length>1&&void 0!==arguments[1]?arguments[1]:0,e=arguments.length>2&&void 0!==arguments[2]?arguments[2]:0,r=arguments.length>3&&void 0!==arguments[3]?arguments[3]:1,i=arguments.length>4&&void 0!==arguments[4]?arguments[4]:0,u=arguments.length>5&&void 0!==arguments[5]?arguments[5]:0,o=this.m;return o[0]=t,o[1]=n,o[2]=e,o[3]=r,o[4]=i,o[5]=u,this.w=this.s=this.i=null,this}},{key:"recomposeSelf",value:function(){var t=arguments.length>0&&void 0!==arguments[0]?arguments[0]:null,n=arguments.length>1&&void 0!==arguments[1]?arguments[1]:null,e=arguments.length>2&&void 0!==arguments[2]?arguments[2]:null,r=arguments.length>3&&void 0!==arguments[3]?arguments[3]:null,i=arguments.length>4&&void 0!==arguments[4]?arguments[4]:null;return this.isIdentity||this.resetSelf(),t&&(t.x||t.y)&&this.translateSelf(t.x,t.y),n&&this.rotateSelf(n),e&&(e.x&&this.skewSelf(e.x,0),e.y&&this.skewSelf(0,e.y)),!r||1===r.x&&1===r.y||this.scaleSelf(r.x,r.y),i&&(i.x||i.y)&&this.translateSelf(i.x,i.y),this}},{key:"decompose",value:function(){var t=arguments.length>0&&void 0!==arguments[0]?arguments[0]:0,n=arguments.length>1&&void 0!==arguments[1]?arguments[1]:0,e=this.m,r=e[0]*e[0]+e[1]*e[1],i=[[e[0],e[1]],[e[2],e[3]]],u=B(r);if(0===u)return{origin:{x:v(e[4]),y:v(e[5])},translate:{x:v(t),y:v(n)},scale:{x:0,y:0},skew:{x:0,y:0},rotate:0};i[0][0]/=u,i[0][1]/=u;var o=e[0]*e[3]-e[1]*e[2]<0;o&&(u=-u);var a=i[0][0]*i[1][0]+i[0][1]*i[1][1];i[1][0]-=i[0][0]*a,i[1][1]-=i[0][1]*a;var l=B(i[1][0]*i[1][0]+i[1][1]*i[1][1]);if(0===l)return{origin:{x:v(e[4]),y:v(e[5])},translate:{x:v(t),y:v(n)},scale:{x:v(u),y:0},skew:{x:0,y:0},rotate:0};i[1][0]/=l,i[1][1]/=l,a/=l;var s=0;return i[1][1]<0?(s=S(i[1][1])*j,i[0][1]<0&&(s=360-s)):s=O(i[0][1])*j,o&&(s=-s),a=E(a,B(i[0][0]*i[0][0]+i[0][1]*i[0][1]))*j,o&&(a=-a),{origin:{x:v(e[4]),y:v(e[5])},translate:{x:v(t),y:v(n)},scale:{x:v(u),y:v(l)},skew:{x:v(a),y:0},rotate:v(s)}}},{key:"toString",value:function(){var t=arguments.length>0&&void 0!==arguments[0]?arguments[0]:" ";return null===this.s&&(this.s="matrix("+this.m.map((function(t){return v(t)})).join(t)+")"),this.s}}]),t}();function R(t,n,e){return t>=.5?e:n}function T(t,n,e){return 0===t||n===e?n:t*(e-n)+n}function N(t,n,e){var r=T(t,n,e);return r<=0?0:r}function C(t,n,e){var r=T(t,n,e);return r<=0?0:r>=1?1:r}function L(t,n,e){return 0===t?n:1===t?e:{x:T(t,n.x,e.x),y:T(t,n.y,e.y)}}function F(t,n,e){return 0===t?n:1===t?e:{x:N(t,n.x,e.x),y:N(t,n.y,e.y)}}function q(t,n,e){var r=function(t,n,e){return Math.round(T(t,n,e))}(t,n,e);return r<=0?0:r>=255?255:r}function V(t,n,e){return 0===t?n:1===t?e:{r:q(t,n.r,e.r),g:q(t,n.g,e.g),b:q(t,n.b,e.b),a:T(t,null==n.a?1:n.a,null==e.a?1:e.a)}}function D(t,n,e){var r=n.length;if(r!==e.length)return R(t,n,e);for(var i=new Array(r),u=0;u<r;u++)i[u]=T(t,n[u],e[u]);return i}function z(t,n){for(var e=[],r=0;r<t;r++)e.push(n);return e}function Y(t,n){if(--n<=0)return t;var e=(t=Object.assign([],t)).length;do{for(var r=0;r<e;r++)t.push(t[r])}while(--n>0);return t}var G,U=function(){function t(n){r(this,t),this.list=n,this.length=n.length}return u(t,[{key:"setAttribute",value:function(t,n){for(var e=this.list,r=0;r<this.length;r++)e[r].setAttribute(t,n)}},{key:"removeAttribute",value:function(t){for(var n=this.list,e=0;e<this.length;e++)n[e].removeAttribute(t)}},{key:"style",value:function(t,n){for(var e=this.list,r=0;r<this.length;r++)e[r].style[t]=n}}]),t}(),W=/-./g,$=function(t,n){return n.toUpperCase()};function H(t){return"function"==typeof t?t:R}function Q(t){return t?"function"==typeof t?t:Array.isArray(t)?function(t){var n=arguments.length>1&&void 0!==arguments[1]?arguments[1]:g;if(!Array.isArray(t))return n;switch(t.length){case 1:return x(t[0])||n;case 2:return x(t[0],t[1])||n;case 4:return m(t[0],t[1],t[2],t[3])||n}return n}(t,null):function(t,n){var e=arguments.length>2&&void 0!==arguments[2]?arguments[2]:g;switch(t){case"linear":return g;case"steps":return x(n.steps||1,n.jump||0)||e;case"bezier":case"cubic-bezier":return m(n.x1||0,n.y1||0,n.x2||0,n.y2||0)||e}return e}(t.type,t.value,null):null}function X(t,n,e){var r=arguments.length>3&&void 0!==arguments[3]&&arguments[3],i=n.length-1;if(t<=n[0].t)return r?[0,0,n[0].v]:n[0].v;if(t>=n[i].t)return r?[i,1,n[i].v]:n[i].v;var u,o=n[0],a=null;for(u=1;u<=i;u++){if(!(t>n[u].t)){a=n[u];break}o=n[u]}return null==a?r?[i,1,n[i].v]:n[i].v:o.t===a.t?r?[u,1,a.v]:a.v:(t=(t-o.t)/(a.t-o.t),o.e&&(t=o.e(t)),r?[u,t,e(t,o.v,a.v)]:e(t,o.v,a.v))}function J(t,n){var e=arguments.length>2&&void 0!==arguments[2]?arguments[2]:null;return t&&t.length?"function"!=typeof n?null:("function"!=typeof e&&(e=null),function(r){var i=X(r,t,n);return null!=i&&e&&(i=e(i)),i}):null}function Z(t,n){return t.t-n.t}function K(t,n,r,i,u){var o,a="@"===r[0],l="#"===r[0],s=G[r],f=R;switch(a?(o=r.substr(1),r=o.replace(W,$)):l&&(r=r.substr(1)),e(s)){case"function":if(f=s(i,u,X,Q,r,a,n,t),l)return f;break;case"string":f=J(i,H(s));break;case"object":if((f=J(i,H(s.i),s.f))&&"function"==typeof s.u)return s.u(n,f,r,a,t)}return f?function(t,n,e){if(arguments.length>3&&void 0!==arguments[3]&&arguments[3])return t instanceof U?function(r){return t.style(n,e(r))}:function(r){return t.style[n]=e(r)};if(Array.isArray(n)){var r=n.length;return function(i){var u=e(i);if(null==u)for(var o=0;o<r;o++)t[o].removeAttribute(n);else for(var a=0;a<r;a++)t[a].setAttribute(n,u)}}return function(r){var i=e(r);null==i?t.removeAttribute(n):t.setAttribute(n,i)}}(n,r,f,a):null}function tt(t,n,r,i){if(!i||"object"!==e(i))return null;var u=null,o=null;return Array.isArray(i)?o=function(t){if(!t||!t.length)return null;for(var n=0;n<t.length;n++)t[n].e&&(t[n].e=Q(t[n].e));return t.sort(Z)}(i):(o=i.keys,u=i.data||null),o?K(t,n,r,o,u):null}function nt(t,n,e){if(!e)return null;var r=[];for(var i in e)if(e.hasOwnProperty(i)){var u=tt(t,n,i,e[i]);u&&r.push(u)}return r.length?r:null}function et(t,n){if(!n.duration||n.duration<0)return null;var e=function(t,n){if(!n)return null;var e=[];if(Array.isArray(n))for(var r=n.length,i=0;i<r;i++){var u=n[i];if(2===u.length){var o=null;if("string"==typeof u[0])o=t.getElementById(u[0]);else if(Array.isArray(u[0])){o=[];for(var a=0;a<u[0].length;a++)if("string"==typeof u[0][a]){var l=t.getElementById(u[0][a]);l&&o.push(l)}o=o.length?1===o.length?o[0]:new U(o):null}if(o){var s=nt(t,o,u[1]);s&&(e=e.concat(s))}}}else for(var f in n)if(n.hasOwnProperty(f)){var c=t.getElementById(f);if(c){var h=nt(t,c,n[f]);h&&(e=e.concat(h))}}return e.length?e:null}(t,n.elements);return e?function(t,n){var e=arguments.length>2&&void 0!==arguments[2]?arguments[2]:1/0,r=arguments.length>3&&void 0!==arguments[3]?arguments[3]:1,i=arguments.length>4&&void 0!==arguments[4]&&arguments[4],u=arguments.length>5&&void 0!==arguments[5]?arguments[5]:1,o=t.length,a=r>0?n:0;i&&e%2==0&&(a=n-a);var l=null;return function(s,f){var c=s%n,h=1+(s-c)/n;f*=r,i&&h%2==0&&(f=-f);var v=!1;if(h>e)c=a,v=!0,-1===u&&(c=r>0?0:n);else if(f<0&&(c=n-c),c===l)return!1;l=c;for(var d=0;d<o;d++)t[d](c);return v}}(e,n.duration,n.iterations||1/0,n.direction||1,!!n.alternate,n.fill||1):null}function rt(t){return+("0x"+(t.replace(/[^0-9a-fA-F]+/g,"")||27))}function it(t,n,e){return!t||!e||n>t.length?t:t.substring(0,n)+it(t.substring(n+1),e,e)}function ut(t){var n=arguments.length>1&&void 0!==arguments[1]?arguments[1]:27;return!t||t%n?t%n:ut(t/n,n)}function ot(t,n,e){if(t&&t.length){var r=rt(e),i=rt(n),u=ut(r)+5,o=it(t,ut(r,5),u);return o=o.replace(/\x7c$/g,"==").replace(/\x2f$/g,"="),o=function(t,n,e){var r=+("0x"+t.substring(0,4));t=t.substring(4);for(var i=n%r+e%27,u=[],o=0;o<t.length;o+=2)if("|"!==t[o]){var a=+("0x"+t[o]+t[o+1])-i;u.push(a)}else{var l=+("0x"+t.substring(o+1,o+1+4))-i;o+=3,u.push(l)}return String.fromCharCode.apply(String,u)}(o=(o=atob(o)).replace(/[\x41-\x5A]/g,""),i,r),o=JSON.parse(o)}}Number.isInteger||(Number.isInteger=function(t){return"number"==typeof t&&isFinite(t)&&Math.floor(t)===t}),Number.EPSILON||(Number.EPSILON=2220446049250313e-31);var at=function(){function t(n,e){var i=arguments.length>2&&void 0!==arguments[2]?arguments[2]:{};r(this,t),this._id=0,this._running=!1,this._rollingBack=!1,this._animations=n,this.duration=e.duration,this.alternate=e.alternate,this.fill=e.fill,this.iterations=e.iterations,this.direction=i.direction||1,this.speed=i.speed||1,this.fps=i.fps||100,this.offset=i.offset||0,this.rollbackStartOffset=0}return u(t,[{key:"_rollback",value:function(){var t=this,n=1/0,e=null;this.rollbackStartOffset=this.offset,this._rollingBack||(this._rollingBack=!0,this._running=!0);this._id=window.requestAnimationFrame((function r(i){if(t._rollingBack){null==e&&(e=i);var u=i-e,o=t.rollbackStartOffset-u,a=Math.round(o*t.speed);if(a>t.duration&&n!=1/0){var l=!!t.alternate&&a/t.duration%2>1,s=a%t.duration;a=(s+=l?t.duration:0)||t.duration}var f=t.fps?1e3/t.fps:0,c=Math.max(0,a);if(c<n-f){t.offset=c,n=c;for(var h=t._animations,v=h.length,d=0;d<v;d++)h[d](c,t.direction)}var y=!1;if(t.iterations>0&&-1===t.fill){var g=t.iterations*t.duration,p=g==a;a=p?0:a,t.offset=p?0:t.offset,y=a>g}a>0&&t.offset>=a&&!y?t._id=window.requestAnimationFrame(r):t.stop()}}))}},{key:"_start",value:function(){var t=this,n=arguments.length>0&&void 0!==arguments[0]?arguments[0]:0,e=-1/0,r=null,i={},u=function u(o){t._running=!0,null==r&&(r=o);var a=Math.round((o-r+n)*t.speed),l=t.fps?1e3/t.fps:0;if(a>e+l&&!t._rollingBack){t.offset=a,e=a;for(var s=t._animations,f=s.length,c=0,h=0;h<f;h++)i[h]?c++:(i[h]=s[h](a,t.direction),i[h]&&c++);if(c===f)return void t._stop()}t._id=window.requestAnimationFrame(u)};this._id=window.requestAnimationFrame(u)}},{key:"_stop",value:function(){this._id&&window.cancelAnimationFrame(this._id),this._running=!1,this._rollingBack=!1}},{key:"play",value:function(){!this._rollingBack&&this._running||(this._rollingBack=!1,this.rollbackStartOffset>this.duration&&(this.offset=this.rollbackStartOffset-(this.rollbackStartOffset-this.offset)%this.duration,this.rollbackStartOffset=0),this._start(this.offset))}},{key:"stop",value:function(){this._stop(),this.offset=0,this.rollbackStartOffset=0;var t=this.direction,n=this._animations;window.requestAnimationFrame((function(){for(var e=0;e<n.length;e++)n[e](0,t)}))}},{key:"reachedToEnd",value:function(){return this.iterations>0&&this.offset>=this.iterations*this.duration}},{key:"restart",value:function(){this._stop(),this.offset=0,this._start()}},{key:"pause",value:function(){this._stop()}},{key:"reverse",value:function(){this.direction=-this.direction}}],[{key:"build",value:function(e,r){return delete e.animationSettings,e.options=ot(e.options,e.root,"91c80d77"),e.animations.map((function(t){var r=ot(t.s,e.root,"91c80d77");for(var i in delete t.s,e.animationSettings||(e.animationSettings=n({},r)),r)r.hasOwnProperty(i)&&(t[i]=r[i])})),(e=function(t,n){if(G=n,!t||!t.root||!Array.isArray(t.animations))return null;for(var e=document.getElementsByTagName("svg"),r=!1,i=0;i<e.length;i++)if(e[i].id===t.root&&!e[i].svgatorAnimation){(r=e[i]).svgatorAnimation=!0;break}if(!r)return null;var u=t.animations.map((function(t){return et(r,t)})).filter((function(t){return!!t}));return u.length?{element:r,animations:u,animationSettings:t.animationSettings,options:t.options||void 0}:null}(e,r))?{el:e.element,options:e.options||{},player:new t(e.animations,e.animationSettings,e.options)}:null}},{key:"push",value:function(t){return this.build(t)}},{key:"init",value:function(){var t=this,n=window.__SVGATOR_PLAYER__&&window.__SVGATOR_PLAYER__["91c80d77"];Array.isArray(n)&&n.splice(0).forEach((function(n){return t.build(n)}))}}]),t}();!function(){for(var t=0,n=["ms","moz","webkit","o"],e=0;e<n.length&&!window.requestAnimationFrame;++e)window.requestAnimationFrame=window[n[e]+"RequestAnimationFrame"],window.cancelAnimationFrame=window[n[e]+"CancelAnimationFrame"]||window[n[e]+"CancelRequestAnimationFrame"];window.requestAnimationFrame||(window.requestAnimationFrame=function(n){var e=Date.now(),r=Math.max(0,16-(e-t)),i=window.setTimeout((function(){n(e+r)}),r);return t=e+r,i},window.cancelAnimationFrame=window.clearTimeout)}();var lt=function(t,n){var e=!1,r=null;return function(i){e&&clearTimeout(e),e=setTimeout((function(){return function(){for(var i=0,u=window.innerHeight,o=0,a=window.innerWidth,l=t.parentNode;l instanceof Element;){var s=window.getComputedStyle(l);if("visible"!==s.overflowY||"visible"!==s.overflowX){var f=l.getBoundingClientRect();"visible"!==s.overflowY&&(i=Math.max(i,f.top),u=Math.min(u,f.bottom)),"visible"!==s.overflowX&&(o=Math.max(o,f.left),a=Math.min(a,f.right))}if(l===l.parentNode)break;l=l.parentNode}e=!1;var c=t.getBoundingClientRect(),h=Math.min(c.height,Math.max(0,i-c.top)),v=Math.min(c.height,Math.max(0,c.bottom-u)),d=Math.min(c.width,Math.max(0,o-c.left)),y=Math.min(c.width,Math.max(0,c.right-a)),g=(c.height-h-v)/c.height,p=(c.width-d-y)/c.width,m=Math.round(g*p*100);null!==r&&r===m||(r=m,n(m))}()}),100)}},st=function(){function t(n,e,i){r(this,t),e=Math.max(1,e||1),e=Math.min(e,100),this.el=n,this.onTresholdChange=i&&i.call?i:function(){},this.tresholdPercent=e||1,this.currentVisibility=null,this.visibilityCalculator=lt(n,this.onVisibilityUpdate.bind(this)),this.bindScrollWatchers(),this.visibilityCalculator()}return u(t,[{key:"bindScrollWatchers",value:function(){for(var t=this.el.parentNode;t&&(t.addEventListener("scroll",this.visibilityCalculator),t!==t.parentNode&&t!==document);)t=t.parentNode}},{key:"onVisibilityUpdate",value:function(t){var n=this.currentVisibility>=this.tresholdPercent,e=t>=this.tresholdPercent;if(null===this.currentVisibility||n!==e)return this.currentVisibility=t,void this.onTresholdChange(e);this.currentVisibility=t}}]),t}();function ft(t){return v(t)+""}function ct(t){var n=arguments.length>1&&void 0!==arguments[1]?arguments[1]:" ";return t&&t.length?t.map(ft).join(n):""}function ht(t){return ft(t.x)+","+ft(t.y)}function vt(t){return t?null==t.a||t.a>=1?"rgb("+t.r+","+t.g+","+t.b+")":"rgba("+t.r+","+t.g+","+t.b+","+t.a+")":"transparent"}function dt(t){return t?"url(#"+t+")":"none"}var yt={f:null,i:F,u:function(t,n){return function(e){var r=n(e);t.setAttribute("rx",ft(r.x)),t.setAttribute("ry",ft(r.y))}}},gt={f:null,i:function(t,n,e){return 0===t?n:1===t?e:{width:N(t,n.width,e.width),height:N(t,n.height,e.height)}},u:function(t,n){return function(e){var r=n(e);t.setAttribute("width",ft(r.width)),t.setAttribute("height",ft(r.height))}}};Object.freeze({M:2,L:2,Z:0,H:1,V:1,C:6,Q:4,T:2,S:4,A:7});var pt={},mt=null;function bt(t){var n=function(){if(mt)return mt;if("object"!==("undefined"==typeof document?"undefined":e(document))||!document.createElementNS)return{};var t=document.createElementNS("http://www.w3.org/2000/svg","svg");return t&&t.style?(t.style.position="absolute",t.style.opacity="0.01",t.style.zIndex="-9999",t.style.left="-9999px",t.style.width="1px",t.style.height="1px",mt={svg:t}):{}}().svg;if(!n)return function(t){return null};var r=document.createElementNS(n.namespaceURI,"path");r.setAttributeNS(null,"d",t),r.setAttributeNS(null,"fill","none"),r.setAttributeNS(null,"stroke","none"),n.appendChild(r);var i=r.getTotalLength();return function(t){var n=r.getPointAtLength(i*t);return{x:n.x,y:n.y}}}function wt(t){return pt[t]?pt[t]:pt[t]=bt(t)}function xt(t,n,e,r){if(!t||!r)return!1;var i=["M",t.x,t.y];if(n&&e&&(i.push("C"),i.push(n.x),i.push(n.y),i.push(e.x),i.push(e.y)),n?!e:e){var u=n||e;i.push("Q"),i.push(u.x),i.push(u.y)}return n||e||i.push("L"),i.push(r.x),i.push(r.y),i.join(" ")}function At(t,n,e,r){var i=arguments.length>4&&void 0!==arguments[4]?arguments[4]:1,u=xt(t,n,e,r),o=wt(u);try{return o(i)}catch(t){return null}}function kt(t,n,e,r){var i=1-r;return i*i*t+2*i*r*n+r*r*e}function _t(t,n,e,r){return 2*(1-r)*(n-t)+2*r*(e-n)}function St(t,n,e,r){var i=arguments.length>4&&void 0!==arguments[4]&&arguments[4],u=At(t,n,null,e,r);return u||(u={x:kt(t.x,n.x,e.x,r),y:kt(t.y,n.y,e.y,r)}),i&&(u.a=Ot(t,n,e,r)),u}function Ot(t,n,e,r){return Math.atan2(_t(t.y,n.y,e.y,r),_t(t.x,n.x,e.x,r))}function Mt(t,n,e,r,i){var u=i*i;return i*u*(r-t+3*(n-e))+3*u*(t+e-2*n)+3*i*(n-t)+t}function Et(t,n,e,r,i){var u=1-i;return 3*(u*u*(n-t)+2*u*i*(e-n)+i*i*(r-e))}function Pt(t,n,e,r,i){var u=arguments.length>5&&void 0!==arguments[5]&&arguments[5],o=At(t,n,e,r,i);return o||(o={x:Mt(t.x,n.x,e.x,r.x,i),y:Mt(t.y,n.y,e.y,r.y,i)}),u&&(o.a=jt(t,n,e,r,i)),o}function jt(t,n,e,r,i){return Math.atan2(Et(t.y,n.y,e.y,r.y,i),Et(t.x,n.x,e.x,r.x,i))}function Bt(t,n,e){return t+(n-t)*e}function It(t,n,e){var r=arguments.length>3&&void 0!==arguments[3]&&arguments[3],i={x:Bt(t.x,n.x,e),y:Bt(t.y,n.y,e)};return r&&(i.a=Rt(t,n)),i}function Rt(t,n){return Math.atan2(n.y-t.y,n.x-t.x)}function Tt(t,n,e){var r=arguments.length>3&&void 0!==arguments[3]&&arguments[3];if(Ct(n)){if(Lt(e))return St(n,e.start,e,t,r)}else if(Ct(e)){if(n.end)return St(n,n.end,e,t,r)}else{if(n.end)return e.start?Pt(n,n.end,e.start,e,t,r):St(n,n.end,e,t,r);if(e.start)return St(n,e.start,e,t,r)}return It(n,e,t,r)}function Nt(t,n,e){var r=Tt(t,n,e,!0);return r.a=function(t){return arguments.length>1&&void 0!==arguments[1]&&arguments[1]?t+Math.PI:t}(r.a)/y,r}function Ct(t){return!t.type||"corner"===t.type}function Lt(t){return null!=t.start&&!Ct(t)}var Ft=new I;var qt={f:function(t){return t?t.join(" "):""},i:function(t,n,r){if(0===t)return n;if(1===t)return r;var i=n.length;if(i!==r.length)return R(t,n,r);for(var u,o=new Array(i),a=0;a<i;a++){if((u=e(n[a]))!==e(r[a]))return R(t,n,r);if("number"===u)o[a]=T(t,n[a],r[a]);else{if(n[a]!==r[a])return R(t,n,r);o[a]=n[a]}}return o}},Vt={f:null,i:D,u:function(t,n){return function(e){var r=n(e);t.setAttribute("x1",ft(r[0])),t.setAttribute("y1",ft(r[1])),t.setAttribute("x2",ft(r[2])),t.setAttribute("y2",ft(r[3]))}}},Dt={f:ft,i:T},zt={f:ft,i:C},Yt={f:function(t){var n=arguments.length>1&&void 0!==arguments[1]?arguments[1]:" ";return t&&t.length>0&&(t=t.map((function(t){return v(t,4)}))),ct(t,n)},i:function(t,n,e){var r,i,u,o=n.length,a=e.length;if(o!==a)if(0===o)n=z(o=a,0);else if(0===a)a=o,e=z(o,0);else{var l=(u=(r=o)*(i=a)/function(t,n){for(var e;n;)e=n,n=t%n,t=e;return t||1}(r,i))<0?-u:u;n=Y(n,Math.floor(l/o)),e=Y(e,Math.floor(l/a)),o=a=l}for(var s=[],f=0;f<o;f++)s.push(v(N(t,n[f],e[f])));return s}};function Gt(t,n,e){return t.map((function(t){return function(t,n,e){var r=t.v;if(!r||"g"!==r.t||r.s||!r.v||!r.r)return t;var i=e.getElementById(r.r),u=i&&i.querySelectorAll("stop")||[];return r.s=r.v.map((function(t,n){var e=u[n]&&u[n].getAttribute("offset");return{c:t,o:e=v(parseInt(e)/100)}})),delete r.v,t}(t,0,e)}))}var Ut={gt:"gradientTransform",c:{x:"cx",y:"cy"},rd:"r",f:{x:"x1",y:"y1"},to:{x:"x2",y:"y2"}};function Wt(t,n,r,i,u,o,a,l){return Gt(t,0,l),n=function(t,n,e){for(var r,i,u,o=t.length-1,a={},l=0;l<=o;l++)(r=t[l]).e&&(r.e=n(r.e)),r.v&&"g"===(i=r.v).t&&i.r&&(u=e.getElementById(i.r))&&(a[i.r]={e:u,s:u.querySelectorAll("stop")});return a}(t,i,l),function(i){var u=r(i,t,$t);if(!u)return"none";if("c"===u.t)return vt(u.v);if("g"===u.t){if(!n[u.r])return dt(u.r);var o=n[u.r];return function(t,n){for(var e=t.s,r=e.length;r<n.length;r++){var i=e[e.length-1].cloneNode();i.id=Xt(i.id),t.e.appendChild(i),e=t.s=t.e.querySelectorAll("stop")}for(var u=0,o=e.length,a=n.length-1;u<o;u++)e[u].setAttribute("stop-color",vt(n[Math.min(u,a)].c)),e[u].setAttribute("offset",n[Math.min(u,a)].o)}(o,u.s),Object.keys(Ut).forEach((function(t){if(void 0!==u[t])if("object"!==e(Ut[t])){var n,r="gt"===t?(n=u[t],Array.isArray(n)?"matrix("+n.join(" ")+")":""):u[t],i=Ut[t];o.e.setAttribute(i,r)}else Object.keys(Ut[t]).forEach((function(n){if(void 0!==u[t][n]){var e=u[t][n],r=Ut[t][n];o.e.setAttribute(r,e)}}))})),dt(u.r)}return"none"}}function $t(t,e,r){if(0===t)return e;if(1===t)return r;if(e&&r){var i=e.t;if(i===r.t)switch(e.t){case"c":return{t:i,v:V(t,e.v,r.v)};case"g":if(e.r===r.r){var u={t:i,s:Ht(t,e.s,r.s),r:e.r};return e.gt&&r.gt&&(u.gt=D(t,e.gt,r.gt)),e.c?(u.c=L(t,e.c,r.c),u.rd=N(t,e.rd,r.rd)):e.f&&(u.f=L(t,e.f,r.f),u.to=L(t,e.to,r.to)),u}}if("c"===e.t&&"g"===r.t||"c"===r.t&&"g"===e.t){var o="c"===e.t?e:r,a="g"===e.t?n({},e):n({},r),l=a.s.map((function(t){return{c:o.v,o:t.o}}));return a.s="c"===e.t?Ht(t,l,a.s):Ht(t,a.s,l),a}}return R(t,e,r)}function Ht(t,n,e){if(n.length===e.length)return n.map((function(n,r){return Qt(t,n,e[r])}));for(var r=Math.max(n.length,e.length),i=[],u=0;u<r;u++){var o=Qt(t,n[Math.min(u,n.length-1)],e[Math.min(u,e.length-1)]);i.push(o)}return i}function Qt(t,n,e){return{o:C(t,n.o,e.o||0),c:V(t,n.c,e.c||{})}}function Xt(t){return t.replace(/-fill-([0-9]+)$/,(function(t,n){return"-fill-"+(+n+1)}))}var Jt={blur:F,brightness:N,contrast:N,"drop-shadow":function(t,n,e){return 0===t?n:1===t?e:{blur:F(t,n.blur,e.blur),offset:L(t,n.offset,e.offset),color:V(t,n.color,e.color)}},grayscale:N,"hue-rotate":T,invert:N,opacity:N,saturate:N,sepia:N};function Zt(t,n,e){if(0===t)return n;if(1===t)return e;var r=n.length;if(r!==e.length)return R(t,n,e);for(var i,u=[],o=0;o<r;o++){if(n[o].type!==e[o].type)return n;if(!(i=Jt[n[o].type]))return R(t,n,e);u.push({type:n.type,value:i(t,n[o].value,e[o].value)})}return u}var Kt={blur:function(t){return t?function(n){t.setAttribute("stdDeviation",ht(n))}:null},brightness:function(t,n,e){return(t=nn(e,n))?function(n){n=ft(n),t.map((function(t){return t.setAttribute("slope",n)}))}:null},contrast:function(t,n,e){return(t=nn(e,n))?function(n){var e=ft((1-n)/2);n=ft(n),t.map((function(t){t.setAttribute("slope",n),t.setAttribute("intercept",e)}))}:null},"drop-shadow":function(t,n,e){var r=e.getElementById(n+"-blur");if(!r)return null;var i=e.getElementById(n+"-offset");if(!i)return null;var u=e.getElementById(n+"-flood");return u?function(t){r.setAttribute("stdDeviation",ht(t.blur)),i.setAttribute("dx",ft(t.offset.x)),i.setAttribute("dy",ft(t.offset.y)),u.setAttribute("flood-color",vt(t.color))}:null},grayscale:function(t){return t?function(n){t.setAttribute("values",ct(function(t){return[.2126+.7874*(t=1-t),.7152-.7152*t,.0722-.0722*t,0,0,.2126-.2126*t,.7152+.2848*t,.0722-.0722*t,0,0,.2126-.2126*t,.7152-.7152*t,.0722+.9278*t,0,0,0,0,0,1,0]}(n)))}:null},"hue-rotate":function(t){return t?function(n){return t.setAttribute("values",ft(n))}:null},invert:function(t,n,e){return(t=nn(e,n))?function(n){n=ft(n)+" "+ft(1-n),t.map((function(t){return t.setAttribute("tableValues",n)}))}:null},opacity:function(t,n,e){return(t=e.getElementById(n+"-A"))?function(n){return t.setAttribute("tableValues","0 "+ft(n))}:null},saturate:function(t){return t?function(n){return t.setAttribute("values",ft(n))}:null},sepia:function(t){return t?function(n){return t.setAttribute("values",ct(function(t){return[.393+.607*(t=1-t),.769-.769*t,.189-.189*t,0,0,.349-.349*t,.686+.314*t,.168-.168*t,0,0,.272-.272*t,.534-.534*t,.131+.869*t,0,0,0,0,0,1,0]}(n)))}:null}};var tn=["R","G","B"];function nn(t,n){var e=tn.map((function(e){return t.getElementById(n+"-"+e)||null}));return-1!==e.indexOf(null)?null:e}var en={fill:Wt,"fill-opacity":zt,stroke:Wt,"stroke-opacity":zt,"stroke-width":Dt,"stroke-dashoffset":{f:ft,i:T},"stroke-dasharray":Yt,opacity:zt,transform:function(t,n,r,i){if(!(t=function(t,n){if(!t||"object"!==e(t))return null;var r=!1;for(var i in t)t.hasOwnProperty(i)&&(t[i]&&t[i].length?(t[i].forEach((function(t){t.e&&(t.e=n(t.e))})),r=!0):delete t[i]);return r?t:null}(t,i)))return null;var u=function(e,i,u){var o=arguments.length>3&&void 0!==arguments[3]?arguments[3]:null;return t[e]?r(i,t[e],u):n&&n[e]?n[e]:o};return n&&n.a&&t.o?function(n){var e=r(n,t.o,Nt);return Ft.recomposeSelf(e,u("r",n,T,0)+e.a,u("k",n,L),u("s",n,L),u("t",n,L)).toString()}:function(t){return Ft.recomposeSelf(u("o",t,Tt,null),u("r",t,T,0),u("k",t,L),u("s",t,L),u("t",t,L)).toString()}},"#filter":function(t,n,e,r,i,u,o,a){if(!n.items||!t||!t.length)return null;var l=function(t,n){var e=(t=t.map((function(t){return t&&Kt[t[0]]?(n.getElementById(t[1]),Kt[t[0]](n.getElementById(t[1]),t[1],n)):null}))).length;return function(n){for(var r=0;r<e;r++)t[r]&&t[r](n[r].value)}}(n.items,a);return l?(t=function(t,n){return t.map((function(t){return t.e=n(t.e),t}))}(t,r),function(n){l(e(n,t,Zt))}):null},"#line":Vt,points:{f:ct,i:D},d:qt,r:Dt,"#size":gt,"#radius":yt,_:function(t,n){if(Array.isArray(t))for(var e=0;e<t.length;e++)this[t[e]]=n;else this[t]=n}},rn=function(t){!function(t,n){if("function"!=typeof n&&null!==n)throw new TypeError("Super expression must either be null or a function");t.prototype=Object.create(n&&n.prototype,{constructor:{value:t,writable:!0,configurable:!0}}),n&&l(t,n)}(e,t);var n=f(e);function e(){return r(this,e),n.apply(this,arguments)}return u(e,null,[{key:"build",value:function(t){var n=c(a(e),"build",this).call(this,t,en);if(!n)return null;var r=n.el,i=n.options,u=n.player;return function(t,n,e){if("click"===e.start){var r=function(){switch(e.click){case"freeze":return!t._running&&t.reachedToEnd()&&(t.offset=0),t._running?t.pause():t.play();case"restart":return t.offset>0?t.restart():t.play();case"reverse":var n=!t._rollingBack&&t._running,r=t.reachedToEnd();return n||r&&1===t.fill?(t.pause(),r&&(t.offset=t.duration-1),t._rollback()):r?t.restart():t.play();case"none":default:return!t._running&&t.offset?t.restart():t.play()}};return void n.addEventListener("click",r)}if("hover"===e.start)return n.addEventListener("mouseenter",(function(){return t.reachedToEnd()?t.restart():t.play()})),void n.addEventListener("mouseleave",(function(){switch(e.hover){case"freeze":return t.pause();case"reset":return t.stop();case"reverse":return t.pause(),t._rollback();case"none":default:return}}));if("scroll"===e.start)return void new st(n,e.scroll||25,(function(n){n?t.reachedToEnd()?t.restart():t.play():t.pause()}));t.play()}(u,r,i),u}}]),e}(at);return rn.init(),rn}));
(function(s,i,o,w){w[o]=w[o]||{};w[o][s]=w[o][s]||[];w[o][s].push(i);})('91c80d77',{"root":"ej3MYhaE5S21","animations":[{"elements":{"ej3MYhaE5S23":{"transform":{"data":{"o":{"x":255.468124,"y":255.576309,"type":"corner"},"t":{"x":-255.468124,"y":-255.576309}},"keys":{"r":[{"t":0,"v":0,"e":[0.86,0,0.07,1]},{"t":100,"v":180,"e":[0.86,0,0.07,1]},{"t":400,"v":180,"e":[0.86,0,0.07,1]},{"t":500,"v":360,"e":[0.86,0,0.07,1]},{"t":800,"v":360,"e":[0.77,0,0.175,1]}]}}}},"s":"MDXA1M2M0NmJhZAGJlYmJhYWJkJYjJiOGI3NmIT4MzdhNzk3OUTQ3OTc1NmJhZDGIyYmJhZWFjEYmRiMmI4YjdXRNmI4MzdhNzVU2YmIyYmRhZUWJiYWFiZGIyIYjhiN2JjNmIN4MzdhNzU2YmJFmYjJiNWI1NWmJRODM3YTc1HQzZiYWFQYjVKiZGFlYmJUYjTdhYWJkYWU2YQks4M2FmYWFiDNWJjR2FlNzUA2YlFiY2I5YWOVhZWFkNmI4MAzdhYzZM"}],"options":"MDTAyMDgyMjlINT2FJN2I2ODc5BWTdiMjlMNDEAyOTZmNzY3ZDLZjNzkyOTMzQAjI5NmY3NjdkKNmM3OTI5RTQYxMjlFNzU3NjJc1NmMyOTg0"},'__SVGATOR_PLAYER__',window)]]></script></svg>