<svg cache-id="7b1cf6529ac7458bad2fbfa30ccbdb1e" id="eyJ9P1jgcWV1" xmlns="http://www.w3.org/2000/svg" xmlns:xlink="http://www.w3.org/1999/xlink" viewBox="0 0 512 530" shape-rendering="geometricPrecision" text-rendering="geometricPrecision"><g id="eyJ9P1jgcWV2"><g id="eyJ9P1jgcWV3" transform="matrix(1 0 0 1 0.000001 20.991608)"><path id="eyJ9P1jgcWV4" d="M182.632812,404.128906C178.207031,404.128906,174.59375,400.550781,174.59375,396.128906C174.59375,391.703125,178.128906,388.128906,182.542969,388.128906L182.632812,388.128906C187.046875,388.128906,190.632812,391.703125,190.632812,396.128906C190.632812,400.550781,187.046875,404.128906,182.632812,404.128906ZM182.632812,404.128906" fill="rgb(54,88,119)" stroke="none" stroke-width="1"/><path id="eyJ9P1jgcWV5" d="M468.695312,61.265625C468.054688,61.265625,467.398438,61.191406,466.753906,61.023438C462.464844,59.953125,459.855469,55.609375,460.929688,51.320312L472.238281,6.070312C473.3125,1.792969,477.640625,-0.847656,481.9375,0.25C486.222656,1.320312,488.832031,5.664062,487.761719,9.953125L476.449219,55.199219C475.535156,58.839844,472.28125,61.265625,468.695312,61.265625ZM468.695312,61.265625" fill="rgb(54,88,119)" stroke="none" stroke-width="1"/><path id="eyJ9P1jgcWV6" d="M434.742188,27.328125C431.160156,27.328125,427.902344,24.902344,426.992188,21.273438C425.910156,16.984375,428.519531,12.640625,432.816406,11.566406L478.0625,0.257812C482.335938,-0.832031,486.6875,1.792969,487.761719,6.082031C488.839844,10.367188,486.230469,14.710938,481.9375,15.785156L436.6875,27.097656C436.039062,27.257812,435.382812,27.328125,434.742188,27.328125ZM434.742188,27.328125" fill="rgb(54,88,119)" stroke="none" stroke-width="1"/><path id="eyJ9P1jgcWV7" d="M159.769531,370.183594C157.71875,370.183594,155.671875,369.398438,154.113281,367.839844C150.984375,364.710938,150.984375,359.65625,154.113281,356.527344L463.03125,47.609375C466.160156,44.480469,471.214844,44.480469,474.34375,47.609375C477.472656,50.734375,477.472656,55.792969,474.34375,58.921875L165.425781,367.847656C163.855469,369.410156,161.816406,370.183594,159.769531,370.183594ZM159.769531,370.183594" fill="rgb(54,88,119)" stroke="none" stroke-width="1"/><path id="eyJ9P1jgcWV8" d="M125.832031,336.25C123.785156,336.25,121.734375,335.464844,120.175781,333.902344C117.046875,330.777344,117.046875,325.71875,120.175781,322.59375L429.097656,13.671875C432.222656,10.542969,437.28125,10.542969,440.40625,13.671875C443.535156,16.800781,443.535156,21.855469,440.40625,24.984375L131.488281,333.902344C129.921875,335.472656,127.871094,336.25,125.832031,336.25ZM125.832031,336.25" fill="rgb(54,88,119)" stroke="none" stroke-width="1"/><path id="eyJ9P1jgcWV9" d="M172.046875,382.472656C170,382.472656,167.953125,381.6875,166.390625,380.128906L107.863281,321.601562C104.734375,318.472656,104.734375,313.417969,107.863281,310.289062C110.992188,307.160156,116.046875,307.160156,119.175781,310.289062L177.703125,368.816406C180.832031,371.945312,180.832031,377,177.703125,380.128906C176.144531,381.6875,174.097656,382.472656,172.046875,382.472656ZM172.046875,382.472656" fill="rgb(54,88,119)" stroke="none" stroke-width="1"/><path id="eyJ9P1jgcWV10" d="M165.40625,421.097656C163.359375,421.097656,161.3125,420.3125,159.753906,418.753906L69.246094,328.25C66.121094,325.121094,66.121094,320.0625,69.246094,316.9375C72.375,313.808594,77.433594,313.808594,80.558594,316.9375L171.0625,407.441406C174.191406,410.566406,174.191406,415.625,171.0625,418.753906C169.503906,420.3125,167.457031,421.097656,165.40625,421.097656ZM165.40625,421.097656" fill="rgb(54,88,119)" stroke="none" stroke-width="1"/><path id="eyJ9P1jgcWV11" d="M182.398438,428.128906C173.847656,428.128906,165.808594,424.800781,159.761719,418.761719C156.625,415.632812,156.625,410.578125,159.742188,407.449219C162.871094,404.304688,167.945312,404.320312,171.054688,407.433594C177.113281,413.488281,187.65625,413.488281,193.695312,407.449219C199.9375,401.207031,199.929688,391.054688,193.695312,384.808594C187.457031,378.585938,177.304688,378.59375,171.078125,384.816406C167.953125,387.945312,162.894531,387.945312,159.769531,384.816406C156.640625,381.6875,156.640625,376.632812,159.769531,373.503906C172.238281,361.03125,192.542969,361.039062,205.007812,373.496094C217.488281,385.992188,217.488281,406.296875,205.015625,418.753906C198.984375,424.800781,190.945312,428.128906,182.398438,428.128906ZM182.398438,428.128906" fill="rgb(54,88,119)" stroke="none" stroke-width="1"/><path id="eyJ9P1jgcWV12" d="M92.121094,313.625C87.695312,313.625,84.078125,310.046875,84.078125,305.625C84.078125,301.199219,87.617188,297.625,92.03125,297.625L92.121094,297.625C96.535156,297.625,100.121094,301.199219,100.121094,305.625C100.121094,310.046875,96.527344,313.625,92.121094,313.625ZM92.121094,313.625" fill="rgb(54,88,119)" stroke="none" stroke-width="1"/><path id="eyJ9P1jgcWV13" d="M108.855469,330.59375C106.808594,330.59375,104.761719,329.808594,103.207031,328.257812C100.070312,325.128906,100.070312,320.070312,103.191406,316.945312C109.425781,310.695312,109.425781,300.535156,103.191406,294.289062C96.953125,288.0625,86.792969,288.082031,80.566406,294.304688C74.328125,300.542969,74.335938,310.695312,80.566406,316.945312C83.6875,320.070312,83.6875,325.128906,80.550781,328.257812C77.441406,331.367188,72.367188,331.382812,69.238281,328.238281C56.777344,315.761719,56.777344,295.457031,69.246094,283C81.703125,270.511719,102.007812,270.519531,114.503906,282.976562C126.976562,295.472656,126.976562,315.769531,114.519531,328.238281C112.960938,329.816406,110.902344,330.59375,108.855469,330.59375ZM108.855469,330.59375" fill="rgb(54,88,119)" stroke="none" stroke-width="1"/><path id="eyJ9P1jgcWV14" d="M33.328125,440.0625C31.28125,440.0625,29.230469,439.28125,27.671875,437.71875C24.542969,434.59375,24.542969,429.535156,27.671875,426.410156L103.183594,350.894531C106.3125,347.769531,111.367188,347.769531,114.496094,350.894531C117.625,354.023438,117.625,359.082031,114.496094,362.207031L38.984375,437.71875C37.425781,439.28125,35.375,440.0625,33.328125,440.0625ZM33.328125,440.0625" fill="rgb(54,88,119)" stroke="none" stroke-width="1"/><path id="eyJ9P1jgcWV15" d="M55.9375,462.703125C53.886719,462.703125,51.839844,461.921875,50.28125,460.359375C47.152344,457.230469,47.152344,452.175781,50.28125,449.046875L125.808594,373.519531C128.9375,370.390625,133.992188,370.390625,137.121094,373.519531C140.246094,376.648438,140.246094,381.703125,137.121094,384.832031L61.59375,460.359375C60.03125,461.921875,57.984375,462.703125,55.9375,462.703125ZM55.9375,462.703125" fill="rgb(54,88,119)" stroke="none" stroke-width="1"/><path id="eyJ9P1jgcWV16" d="M31.992188,488.015625C23.449219,488.015625,15.40625,484.6875,9.367188,478.632812C3.328125,472.609375,0,464.566406,0,456.023438C0,447.472656,3.328125,439.441406,9.375,433.390625C21.457031,421.3125,42.542969,421.320312,54.617188,433.382812C67.097656,445.878906,67.097656,466.183594,54.625,478.640625C48.574219,484.6875,40.542969,488.015625,31.992188,488.015625ZM31.992188,440.03125C27.71875,440.03125,23.703125,441.6875,20.6875,444.703125C17.664062,447.726562,16,451.753906,16,456.023438C16,460.296875,17.664062,464.304688,20.679688,467.320312C26.742188,473.382812,37.265625,473.375,43.3125,467.328125C49.542969,461.097656,49.535156,450.945312,43.304688,444.695312C40.289062,441.6875,36.273438,440.03125,31.992188,440.03125ZM31.992188,440.03125" fill="rgb(54,88,119)" stroke="none" stroke-width="1"/><path id="eyJ9P1jgcWV17" d="M171.0625,324.9375C169.015625,324.9375,166.96875,324.152344,165.40625,322.59375C162.28125,319.464844,162.28125,314.410156,165.40625,311.28125L400.832031,75.871094C403.960938,72.746094,409.015625,72.746094,412.144531,75.871094C415.273438,79,415.273438,84.054688,412.144531,87.183594L176.71875,322.59375C175.160156,324.160156,173.113281,324.9375,171.0625,324.9375ZM171.0625,324.9375" fill="rgb(54,88,119)" stroke="none" stroke-width="1"/><path id="eyJ9P1jgcWV18" d="M112.160156,406.472656C111.328125,406.472656,110.472656,406.335938,109.632812,406.054688L75.695312,394.746094C71.511719,393.351562,69.238281,388.824219,70.640625,384.625C72.039062,380.441406,76.535156,378.167969,80.761719,379.566406L114.695312,390.878906C118.878906,392.273438,121.152344,396.800781,119.753906,401C118.625,404.351562,115.503906,406.472656,112.160156,406.472656ZM112.160156,406.472656" fill="rgb(54,88,119)" stroke="none" stroke-width="1"/><path id="eyJ9P1jgcWV19" d="M89.527344,429.097656C88.695312,429.097656,87.839844,428.960938,87,428.679688L53.078125,417.367188C48.894531,415.96875,46.625,411.449219,48.023438,407.25C49.425781,403.0625,53.910156,400.785156,58.144531,402.191406L92.0625,413.503906C96.246094,414.902344,98.519531,419.425781,97.121094,423.625C96,426.976562,92.878906,429.097656,89.527344,429.097656ZM89.527344,429.097656" fill="rgb(54,88,119)" stroke="none" stroke-width="1"/></g><g id="eyJ9P1jgcWV20" transform="matrix(1 0 0 1 0 20.987939)"><path id="eyJ9P1jgcWV21" d="M329.847656,404.128906C325.425781,404.128906,321.808594,400.550781,321.808594,396.128906C321.808594,391.703125,325.34375,388.128906,329.761719,388.128906L329.847656,388.128906C334.265625,388.128906,337.847656,391.703125,337.847656,396.128906C337.847656,400.550781,334.265625,404.128906,329.847656,404.128906ZM329.847656,404.128906" fill="rgb(54,88,119)" stroke="none" stroke-width="1"/><path id="eyJ9P1jgcWV22" d="M43.304688,61.265625C39.71875,61.265625,36.464844,58.839844,35.550781,55.207031L24.238281,9.960938C23.167969,5.671875,25.777344,1.328125,30.0625,0.257812C34.320312,-0.832031,38.6875,1.792969,39.761719,6.070312L51.070312,51.320312C52.152344,55.617188,49.535156,59.960938,45.246094,61.023438C44.601562,61.191406,43.945312,61.265625,43.304688,61.265625ZM43.304688,61.265625" fill="rgb(54,88,119)" stroke="none" stroke-width="1"/><path id="eyJ9P1jgcWV23" d="M77.257812,27.328125C76.617188,27.328125,75.960938,27.257812,75.3125,27.089844L30.0625,15.777344C25.777344,14.703125,23.167969,10.359375,24.238281,6.070312C25.304688,1.792969,29.65625,-0.839844,33.9375,0.257812L79.183594,11.566406C83.472656,12.640625,86.078125,16.984375,85.007812,21.273438C84.105469,24.902344,80.839844,27.328125,77.257812,27.328125ZM77.257812,27.328125" fill="rgb(54,88,119)" stroke="none" stroke-width="1"/><path id="eyJ9P1jgcWV24" d="M352.230469,370.183594C350.183594,370.183594,348.136719,369.398438,346.574219,367.839844L250.34375,271.609375C247.214844,268.480469,252.871094,269.205845,256,266.076939C259.128906,262.948033,258.527344,257.167969,261.65625,260.296875L357.886719,356.527344C361.015625,359.65625,361.015625,364.710938,357.886719,367.839844C356.328125,369.410156,354.28125,370.183594,352.230469,370.183594ZM352.230469,370.183594" fill="rgb(54,88,119)" stroke="none" stroke-width="1"/><path id="eyJ9P1jgcWV25" d="M386.167969,336.25C384.121094,336.25,382.070312,335.464844,380.511719,333.902344L284.289062,237.664062C281.160156,234.535156,284.148179,235.790384,287.277085,232.66929C290.402085,229.540384,290.883712,222.20425,294.012618,225.333156L391.824219,322.59375C394.953125,325.71875,394.953125,330.777344,391.824219,333.902344C390.265625,335.472656,388.214844,336.25,386.167969,336.25ZM386.167969,336.25" fill="rgb(54,88,119)" stroke="none" stroke-width="1"/><path id="eyJ9P1jgcWV26" d="M339.953125,382.472656C337.902344,382.472656,335.855469,381.6875,334.296875,380.128906C331.167969,377,331.167969,371.945312,334.296875,368.816406L392.824219,310.289062C395.953125,307.160156,401.007812,307.160156,404.136719,310.289062C407.265625,313.417969,407.265625,318.472656,404.136719,321.601562L345.609375,380.128906C344.046875,381.6875,342,382.472656,339.953125,382.472656ZM339.953125,382.472656" fill="rgb(54,88,119)" stroke="none" stroke-width="1"/><path id="eyJ9P1jgcWV27" d="M346.59375,421.097656C344.542969,421.097656,342.496094,420.3125,340.9375,418.753906C337.808594,415.625,337.808594,410.566406,340.9375,407.441406L431.441406,316.9375C434.566406,313.808594,439.625,313.808594,442.753906,316.9375C445.878906,320.0625,445.878906,325.121094,442.753906,328.25L352.246094,418.753906C350.6875,420.3125,348.640625,421.097656,346.59375,421.097656ZM346.59375,421.097656" fill="rgb(54,88,119)" stroke="none" stroke-width="1"/><path id="eyJ9P1jgcWV28" d="M329.601562,428.128906C321.054688,428.128906,313.015625,424.800781,306.976562,418.746094C294.511719,406.289062,294.511719,385.984375,306.976562,373.511719C319.480469,361.023438,339.769531,361.03125,352.230469,373.503906C355.359375,376.632812,355.359375,381.6875,352.230469,384.816406C349.105469,387.945312,344.046875,387.945312,340.921875,384.816406C334.679688,378.578125,324.527344,378.601562,318.289062,384.824219C312.070312,391.054688,312.0625,401.207031,318.296875,407.441406C324.34375,413.488281,334.878906,413.488281,340.945312,407.433594C344.054688,404.320312,349.128906,404.304688,352.257812,407.449219C355.375,410.578125,355.375,415.632812,352.238281,418.761719C346.191406,424.800781,338.160156,428.128906,329.601562,428.128906ZM329.601562,428.128906" fill="rgb(54,88,119)" stroke="none" stroke-width="1"/><path id="eyJ9P1jgcWV29" d="M420.367188,313.625C415.945312,313.625,412.328125,310.046875,412.328125,305.625C412.328125,301.199219,415.863281,297.625,420.28125,297.625L420.367188,297.625C424.785156,297.625,428.367188,301.199219,428.367188,305.625C428.367188,310.046875,424.785156,313.625,420.367188,313.625ZM420.367188,313.625" fill="rgb(54,88,119)" stroke="none" stroke-width="1"/><path id="eyJ9P1jgcWV30" d="M437.097656,330.59375C435.046875,330.59375,433,329.808594,431.449219,328.257812C428.3125,325.128906,428.3125,320.070312,431.433594,316.945312C437.664062,310.695312,437.671875,300.542969,431.441406,294.3125C425.207031,288.0625,415.039062,288.070312,408.792969,294.304688C402.574219,300.535156,402.574219,310.695312,408.808594,316.945312C411.929688,320.070312,411.929688,325.128906,408.792969,328.257812C405.679688,331.367188,400.609375,331.382812,397.480469,328.238281C385.023438,315.761719,385.023438,295.464844,397.480469,282.992188C410.007812,270.519531,430.3125,270.535156,442.761719,283.007812C455.222656,295.464844,455.222656,315.769531,442.761719,328.238281C441.191406,329.816406,439.144531,330.59375,437.097656,330.59375ZM437.097656,330.59375" fill="rgb(54,88,119)" stroke="none" stroke-width="1"/><path id="eyJ9P1jgcWV31" d="M478.671875,440.0625C476.625,440.0625,474.574219,439.28125,473.015625,437.71875L397.503906,362.207031C394.375,359.082031,394.375,354.023438,397.503906,350.894531C400.632812,347.769531,405.6875,347.769531,408.816406,350.894531L484.328125,426.410156C487.457031,429.535156,487.457031,434.59375,484.328125,437.71875C482.769531,439.28125,480.71875,440.0625,478.671875,440.0625ZM478.671875,440.0625" fill="rgb(54,88,119)" stroke="none" stroke-width="1"/><path id="eyJ9P1jgcWV32" d="M456.0625,462.703125C454.015625,462.703125,451.96875,461.921875,450.40625,460.359375L374.878906,384.832031C371.753906,381.703125,371.753906,376.648438,374.878906,373.519531C378.007812,370.390625,383.0625,370.390625,386.191406,373.519531L461.71875,449.046875C464.847656,452.175781,464.847656,457.230469,461.71875,460.359375C460.160156,461.921875,458.113281,462.703125,456.0625,462.703125ZM456.0625,462.703125" fill="rgb(54,88,119)" stroke="none" stroke-width="1"/><path id="eyJ9P1jgcWV33" d="M480.007812,488.015625C471.457031,488.015625,463.425781,484.6875,457.375,478.640625C444.902344,466.175781,444.902344,445.871094,457.367188,433.398438C469.480469,421.304688,490.542969,421.3125,502.625,433.390625C508.671875,439.441406,512,447.472656,512,456.023438C512,464.566406,508.671875,472.609375,502.617188,478.648438C496.59375,484.6875,488.550781,488.015625,480.007812,488.015625ZM480.007812,440.03125C475.726562,440.03125,471.710938,441.6875,468.679688,444.710938C462.464844,450.945312,462.457031,461.097656,468.6875,467.328125C474.734375,473.375,485.273438,473.367188,491.304688,467.335938C494.335938,464.304688,496,460.296875,496,456.023438C496,451.753906,494.335938,447.726562,491.3125,444.703125C488.296875,441.6875,484.28125,440.03125,480.007812,440.03125ZM480.007812,440.03125" fill="rgb(54,88,119)" stroke="none" stroke-width="1"/><path id="eyJ9P1jgcWV34" d="M340.9375,324.9375C338.886719,324.9375,336.839844,324.152344,335.28125,322.59375L267.328125,254.625C264.199219,251.496094,271.053448,253.611054,274.182354,250.48996C277.31126,247.361054,275.511719,240.183594,278.640625,243.3125L346.59375,311.28125C349.71875,314.410156,349.71875,319.464844,346.59375,322.59375C345.03125,324.160156,342.984375,324.9375,340.9375,324.9375ZM340.9375,324.9375" fill="rgb(54,88,119)" stroke="none" stroke-width="1"/><path id="eyJ9P1jgcWV35" d="M399.839844,406.472656C396.488281,406.472656,393.367188,404.351562,392.257812,401C390.855469,396.808594,393.121094,392.273438,397.3125,390.878906L431.246094,379.566406C435.480469,378.167969,439.96875,380.433594,441.367188,384.625C442.769531,388.816406,440.503906,393.351562,436.3125,394.746094L402.375,406.054688C401.527344,406.335938,400.679688,406.472656,399.839844,406.472656ZM399.839844,406.472656" fill="rgb(54,88,119)" stroke="none" stroke-width="1"/><path id="eyJ9P1jgcWV36" d="M422.472656,429.097656C419.121094,429.097656,416,426.976562,414.886719,423.625C413.488281,419.433594,415.753906,414.902344,419.945312,413.503906L453.863281,402.191406C458.089844,400.785156,462.585938,403.054688,463.984375,407.25C465.382812,411.441406,463.121094,415.96875,458.929688,417.367188L425.007812,428.679688C424.160156,428.960938,423.304688,429.097656,422.472656,429.097656ZM422.472656,429.097656" fill="rgb(54,88,119)" stroke="none" stroke-width="1"/><path id="eyJ9P1jgcWV37" d="M222.0625,231.627976C220.015625,231.627976,217.96875,239.230469,216.40625,237.671875L37.65625,58.921875C34.527344,55.792969,34.527344,50.734375,37.65625,47.609375C40.785156,44.480469,45.839844,44.480469,48.96875,47.609375L227.71875,226.359375C230.847656,229.488281,225.191406,228.49907,222.0625,231.627976C220.503906,233.18657,224.113281,231.627976,222.0625,231.627976ZM222.0625,231.627976" fill="rgb(54,88,119)" stroke="none" stroke-width="1"/><path id="eyJ9P1jgcWV38" d="M239.03125,223.046875C236.984375,223.046875,234.9375,222.265625,233.375,220.703125L99.855469,87.183594C96.726562,84.054688,96.726562,79,99.855469,75.871094C102.984375,72.746094,108.039062,72.746094,111.167969,75.871094L244.679688,209.382812C247.808594,212.511719,242.160156,212.293703,239.03125,215.422609C237.480468,216.992922,241.078125,223.046875,239.03125,223.046875ZM239.03125,223.046875" fill="rgb(54,88,119)" stroke="none" stroke-width="1"/><path id="eyJ9P1jgcWV39" d="M256,199.236092C253.953125,199.236092,251.902344,205.296875,250.34375,203.734375L71.59375,24.984375C68.464844,21.855469,68.464844,16.800781,71.59375,13.671875C74.71875,10.542969,79.777344,10.542969,82.902344,13.671875L257.397587,188.392663C260.526493,191.517663,259.128906,196.111091,256,199.236091C254.441406,200.798591,258.046875,199.236092,256,199.236092ZM250.34375,199.236091" fill="rgb(54,88,119)" stroke="none" stroke-width="1"/></g></g><script><![CDATA[!function(t,n){"object"==typeof exports&&"undefined"!=typeof module?module.exports=n():"function"==typeof define&&define.amd?define(n):((t="undefined"!=typeof globalThis?globalThis:t||self).__SVGATOR_PLAYER__=t.__SVGATOR_PLAYER__||{},t.__SVGATOR_PLAYER__["91c80d77"]=n())}(this,(function(){"use strict";function t(t,n){var e=Object.keys(t);if(Object.getOwnPropertySymbols){var r=Object.getOwnPropertySymbols(t);n&&(r=r.filter((function(n){return Object.getOwnPropertyDescriptor(t,n).enumerable}))),e.push.apply(e,r)}return e}function n(t){return(n="function"==typeof Symbol&&"symbol"==typeof Symbol.iterator?function(t){return typeof t}:function(t){return t&&"function"==typeof Symbol&&t.constructor===Symbol&&t!==Symbol.prototype?"symbol":typeof t})(t)}function e(t,n){if(!(t instanceof n))throw new TypeError("Cannot call a class as a function")}function r(t,n){for(var e=0;e<n.length;e++){var r=n[e];r.enumerable=r.enumerable||!1,r.configurable=!0,"value"in r&&(r.writable=!0),Object.defineProperty(t,r.key,r)}}function i(t,n,e){return n&&r(t.prototype,n),e&&r(t,e),t}function u(t,n,e){return n in t?Object.defineProperty(t,n,{value:e,enumerable:!0,configurable:!0,writable:!0}):t[n]=e,t}function o(t){return(o=Object.setPrototypeOf?Object.getPrototypeOf:function(t){return t.__proto__||Object.getPrototypeOf(t)})(t)}function a(t,n){return(a=Object.setPrototypeOf||function(t,n){return t.__proto__=n,t})(t,n)}function l(t,n){if(n&&("object"==typeof n||"function"==typeof n))return n;if(void 0!==n)throw new TypeError("Derived constructors may only return object or undefined");return function(t){if(void 0===t)throw new ReferenceError("this hasn't been initialised - super() hasn't been called");return t}(t)}function s(t){var n=function(){if("undefined"==typeof Reflect||!Reflect.construct)return!1;if(Reflect.construct.sham)return!1;if("function"==typeof Proxy)return!0;try{return Boolean.prototype.valueOf.call(Reflect.construct(Boolean,[],(function(){}))),!0}catch(t){return!1}}();return function(){var e,r=o(t);if(n){var i=o(this).constructor;e=Reflect.construct(r,arguments,i)}else e=r.apply(this,arguments);return l(this,e)}}function f(t,n,e){return(f="undefined"!=typeof Reflect&&Reflect.get?Reflect.get:function(t,n,e){var r=function(t,n){for(;!Object.prototype.hasOwnProperty.call(t,n)&&null!==(t=o(t)););return t}(t,n);if(r){var i=Object.getOwnPropertyDescriptor(r,n);return i.get?i.get.call(e):i.value}})(t,n,e||t)}var c=h(Math.pow(10,-6));function h(t){var n=arguments.length>1&&void 0!==arguments[1]?arguments[1]:6;if(Number.isInteger(t))return t;var e=Math.pow(10,n);return Math.round((+t+Number.EPSILON)*e)/e}function v(t,n){var e=arguments.length>2&&void 0!==arguments[2]?arguments[2]:c;return Math.abs(t-n)<e}var d=Math.PI/180;function y(t){return t}function g(t,n,e){var r=1-e;return 3*e*r*(t*r+n*e)+e*e*e}function p(){var t=arguments.length>0&&void 0!==arguments[0]?arguments[0]:0,n=arguments.length>1&&void 0!==arguments[1]?arguments[1]:0,e=arguments.length>2&&void 0!==arguments[2]?arguments[2]:1,r=arguments.length>3&&void 0!==arguments[3]?arguments[3]:1;return t<0||t>1||e<0||e>1?null:v(t,n)&&v(e,r)?y:function(i){if(i<=0)return t>0?i*n/t:0===n&&e>0?i*r/e:0;if(i>=1)return e<1?1+(i-1)*(r-1)/(e-1):1===e&&t<1?1+(i-1)*(n-1)/(t-1):1;for(var u,o=0,a=1;o<a;){var l=g(t,e,u=(o+a)/2);if(v(i,l))break;l<i?o=u:a=u}return g(n,r,u)}}function b(){return 1}function m(t){return 1===t?1:0}function w(){var t=arguments.length>0&&void 0!==arguments[0]?arguments[0]:1,n=arguments.length>1&&void 0!==arguments[1]?arguments[1]:0;if(1===t){if(0===n)return m;if(1===n)return b}var e=1/t;return function(t){return t>=1?1:(t+=n*e)-t%e}}function x(t,n,e){return t>=.5?e:n}function A(t,n,e){return 0===t||n===e?n:t*(e-n)+n}function k(t,n,e){var r=A(t,n,e);return r<=0?0:r}function _(t,n,e){return 0===t?n:1===t?e:{x:A(t,n.x,e.x),y:A(t,n.y,e.y)}}function S(t,n,e){return 0===t?n:1===t?e:{x:k(t,n.x,e.x),y:k(t,n.y,e.y)}}function O(t,n,e){var r=function(t,n,e){return Math.round(A(t,n,e))}(t,n,e);return r<=0?0:r>=255?255:r}function M(t,n,e){return 0===t?n:1===t?e:{r:O(t,n.r,e.r),g:O(t,n.g,e.g),b:O(t,n.b,e.b),a:A(t,null==n.a?1:n.a,null==e.a?1:e.a)}}function E(t,n,e){if(0===t)return n;if(1===t)return e;var r=n.length;if(r!==e.length)return x(t,n,e);for(var i=[],u=0;u<r;u++)i.push(M(t,n[u],e[u]));return i}function P(t,n,e){var r=n.length;if(r!==e.length)return x(t,n,e);for(var i=new Array(r),u=0;u<r;u++)i[u]=A(t,n[u],e[u]);return i}function j(t,n){for(var e=[],r=0;r<t;r++)e.push(n);return e}function B(t,n){if(--n<=0)return t;var e=(t=Object.assign([],t)).length;do{for(var r=0;r<e;r++)t.push(t[r])}while(--n>0);return t}var I,R=function(){function t(n){e(this,t),this.list=n,this.length=n.length}return i(t,[{key:"setAttribute",value:function(t,n){for(var e=this.list,r=0;r<this.length;r++)e[r].setAttribute(t,n)}},{key:"removeAttribute",value:function(t){for(var n=this.list,e=0;e<this.length;e++)n[e].removeAttribute(t)}},{key:"style",value:function(t,n){for(var e=this.list,r=0;r<this.length;r++)e[r].style[t]=n}}]),t}(),T=/-./g,N=function(t,n){return n.toUpperCase()};function C(t){return"function"==typeof t?t:x}function F(t){return t?"function"==typeof t?t:Array.isArray(t)?function(t){var n=arguments.length>1&&void 0!==arguments[1]?arguments[1]:y;if(!Array.isArray(t))return n;switch(t.length){case 1:return w(t[0])||n;case 2:return w(t[0],t[1])||n;case 4:return p(t[0],t[1],t[2],t[3])||n}return n}(t,null):function(t,n){var e=arguments.length>2&&void 0!==arguments[2]?arguments[2]:y;switch(t){case"linear":return y;case"steps":return w(n.steps||1,n.jump||0)||e;case"bezier":case"cubic-bezier":return p(n.x1||0,n.y1||0,n.x2||0,n.y2||0)||e}return e}(t.type,t.value,null):null}function L(t,n,e){var r=arguments.length>3&&void 0!==arguments[3]&&arguments[3],i=n.length-1;if(t<=n[0].t)return r?[0,0,n[0].v]:n[0].v;if(t>=n[i].t)return r?[i,1,n[i].v]:n[i].v;var u,o=n[0],a=null;for(u=1;u<=i;u++){if(!(t>n[u].t)){a=n[u];break}o=n[u]}return null==a?r?[i,1,n[i].v]:n[i].v:o.t===a.t?r?[u,1,a.v]:a.v:(t=(t-o.t)/(a.t-o.t),o.e&&(t=o.e(t)),r?[u,t,e(t,o.v,a.v)]:e(t,o.v,a.v))}function V(t,n){var e=arguments.length>2&&void 0!==arguments[2]?arguments[2]:null;return t&&t.length?"function"!=typeof n?null:("function"!=typeof e&&(e=null),function(r){var i=L(r,t,n);return null!=i&&e&&(i=e(i)),i}):null}function q(t,n){return t.t-n.t}function D(t,e,r,i,u){var o,a="@"===r[0],l="#"===r[0],s=I[r],f=x;switch(a?(o=r.substr(1),r=o.replace(T,N)):l&&(r=r.substr(1)),n(s)){case"function":if(f=s(i,u,L,F,r,a,e,t),l)return f;break;case"string":f=V(i,C(s));break;case"object":if((f=V(i,C(s.i),s.f))&&"function"==typeof s.u)return s.u(e,f,r,a,t)}return f?function(t,n,e){if(arguments.length>3&&void 0!==arguments[3]&&arguments[3])return t instanceof R?function(r){return t.style(n,e(r))}:function(r){return t.style[n]=e(r)};if(Array.isArray(n)){var r=n.length;return function(i){var u=e(i);if(null==u)for(var o=0;o<r;o++)t[o].removeAttribute(n);else for(var a=0;a<r;a++)t[a].setAttribute(n,u)}}return function(r){var i=e(r);null==i?t.removeAttribute(n):t.setAttribute(n,i)}}(e,r,f,a):null}function z(t,e,r,i){if(!i||"object"!==n(i))return null;var u=null,o=null;return Array.isArray(i)?o=function(t){if(!t||!t.length)return null;for(var n=0;n<t.length;n++)t[n].e&&(t[n].e=F(t[n].e));return t.sort(q)}(i):(o=i.keys,u=i.data||null),o?D(t,e,r,o,u):null}function Y(t,n,e){if(!e)return null;var r=[];for(var i in e)if(e.hasOwnProperty(i)){var u=z(t,n,i,e[i]);u&&r.push(u)}return r.length?r:null}function G(t,n){if(!n.duration||n.duration<0)return null;var e=function(t,n){if(!n)return null;var e=[];if(Array.isArray(n))for(var r=n.length,i=0;i<r;i++){var u=n[i];if(2===u.length){var o=null;if("string"==typeof u[0])o=t.getElementById(u[0]);else if(Array.isArray(u[0])){o=[];for(var a=0;a<u[0].length;a++)if("string"==typeof u[0][a]){var l=t.getElementById(u[0][a]);l&&o.push(l)}o=o.length?1===o.length?o[0]:new R(o):null}if(o){var s=Y(t,o,u[1]);s&&(e=e.concat(s))}}}else for(var f in n)if(n.hasOwnProperty(f)){var c=t.getElementById(f);if(c){var h=Y(t,c,n[f]);h&&(e=e.concat(h))}}return e.length?e:null}(t,n.elements);return e?function(t,n){var e=arguments.length>2&&void 0!==arguments[2]?arguments[2]:1/0,r=arguments.length>3&&void 0!==arguments[3]?arguments[3]:1,i=arguments.length>4&&void 0!==arguments[4]&&arguments[4],u=arguments.length>5&&void 0!==arguments[5]?arguments[5]:1,o=t.length,a=r>0?n:0;i&&e%2==0&&(a=n-a);var l=null;return function(s,f){var c=s%n,h=1+(s-c)/n;f*=r,i&&h%2==0&&(f=-f);var v=!1;if(h>e)c=a,v=!0,-1===u&&(c=r>0?0:n);else if(f<0&&(c=n-c),c===l)return!1;l=c;for(var d=0;d<o;d++)t[d](c);return v}}(e,n.duration,n.iterations||1/0,n.direction||1,!!n.alternate,n.fill||1):null}function U(t){return+("0x"+(t.replace(/[^0-9a-fA-F]+/g,"")||27))}function W(t,n,e){return!t||!e||n>t.length?t:t.substring(0,n)+W(t.substring(n+1),e,e)}function H(t){var n=arguments.length>1&&void 0!==arguments[1]?arguments[1]:27;return!t||t%n?t%n:H(t/n,n)}function Q(t,n,e){if(t&&t.length){var r=U(e),i=U(n),u=H(r)+5,o=W(t,H(r,5),u);return o=o.replace(/\x7c$/g,"==").replace(/\x2f$/g,"="),o=function(t,n,e){var r=+("0x"+t.substring(0,4));t=t.substring(4);for(var i=n%r+e%27,u=[],o=0;o<t.length;o+=2)if("|"!==t[o]){var a=+("0x"+t[o]+t[o+1])-i;u.push(a)}else{var l=+("0x"+t.substring(o+1,o+1+4))-i;o+=3,u.push(l)}return String.fromCharCode.apply(String,u)}(o=(o=atob(o)).replace(/[\x41-\x5A]/g,""),i,r),o=JSON.parse(o)}}Number.isInteger||(Number.isInteger=function(t){return"number"==typeof t&&isFinite(t)&&Math.floor(t)===t}),Number.EPSILON||(Number.EPSILON=2220446049250313e-31);var X=function(){function n(t,r){var i=arguments.length>2&&void 0!==arguments[2]?arguments[2]:{};e(this,n),this._id=0,this._running=!1,this._rollingBack=!1,this._animations=t,this.duration=r.duration,this.alternate=r.alternate,this.fill=r.fill,this.iterations=r.iterations,this.direction=i.direction||1,this.speed=i.speed||1,this.fps=i.fps||100,this.offset=i.offset||0,this.rollbackStartOffset=0}return i(n,[{key:"_rollback",value:function(){var t=this,n=1/0,e=null;this.rollbackStartOffset=this.offset,this._rollingBack||(this._rollingBack=!0,this._running=!0);this._id=window.requestAnimationFrame((function r(i){if(t._rollingBack){null==e&&(e=i);var u=i-e,o=t.rollbackStartOffset-u,a=Math.round(o*t.speed);if(a>t.duration&&n!=1/0){var l=!!t.alternate&&a/t.duration%2>1,s=a%t.duration;a=(s+=l?t.duration:0)||t.duration}var f=t.fps?1e3/t.fps:0,c=Math.max(0,a);if(c<n-f){t.offset=c,n=c;for(var h=t._animations,v=h.length,d=0;d<v;d++)h[d](c,t.direction)}var y=!1;if(t.iterations>0&&-1===t.fill){var g=t.iterations*t.duration,p=g==a;a=p?0:a,t.offset=p?0:t.offset,y=a>g}a>0&&t.offset>=a&&!y?t._id=window.requestAnimationFrame(r):t.stop()}}))}},{key:"_start",value:function(){var t=this,n=arguments.length>0&&void 0!==arguments[0]?arguments[0]:0,e=-1/0,r=null,i={},u=function u(o){t._running=!0,null==r&&(r=o);var a=Math.round((o-r+n)*t.speed),l=t.fps?1e3/t.fps:0;if(a>e+l&&!t._rollingBack){t.offset=a,e=a;for(var s=t._animations,f=s.length,c=0,h=0;h<f;h++)i[h]?c++:(i[h]=s[h](a,t.direction),i[h]&&c++);if(c===f)return void t._stop()}t._id=window.requestAnimationFrame(u)};this._id=window.requestAnimationFrame(u)}},{key:"_stop",value:function(){this._id&&window.cancelAnimationFrame(this._id),this._running=!1,this._rollingBack=!1}},{key:"play",value:function(){!this._rollingBack&&this._running||(this._rollingBack=!1,this.rollbackStartOffset>this.duration&&(this.offset=this.rollbackStartOffset-(this.rollbackStartOffset-this.offset)%this.duration,this.rollbackStartOffset=0),this._start(this.offset))}},{key:"stop",value:function(){this._stop(),this.offset=0,this.rollbackStartOffset=0;var t=this.direction,n=this._animations;window.requestAnimationFrame((function(){for(var e=0;e<n.length;e++)n[e](0,t)}))}},{key:"reachedToEnd",value:function(){return this.iterations>0&&this.offset>=this.iterations*this.duration}},{key:"restart",value:function(){this._stop(),this.offset=0,this._start()}},{key:"pause",value:function(){this._stop()}},{key:"reverse",value:function(){this.direction=-this.direction}}],[{key:"build",value:function(e,r){return delete e.animationSettings,e.options=Q(e.options,e.root,"91c80d77"),e.animations.map((function(n){var r=Q(n.s,e.root,"91c80d77");for(var i in delete n.s,e.animationSettings||(e.animationSettings=function(n){for(var e=1;e<arguments.length;e++){var r=null!=arguments[e]?arguments[e]:{};e%2?t(Object(r),!0).forEach((function(t){u(n,t,r[t])})):Object.getOwnPropertyDescriptors?Object.defineProperties(n,Object.getOwnPropertyDescriptors(r)):t(Object(r)).forEach((function(t){Object.defineProperty(n,t,Object.getOwnPropertyDescriptor(r,t))}))}return n}({},r)),r)r.hasOwnProperty(i)&&(n[i]=r[i])})),(e=function(t,n){if(I=n,!t||!t.root||!Array.isArray(t.animations))return null;for(var e=document.getElementsByTagName("svg"),r=!1,i=0;i<e.length;i++)if(e[i].id===t.root&&!e[i].svgatorAnimation){(r=e[i]).svgatorAnimation=!0;break}if(!r)return null;var u=t.animations.map((function(t){return G(r,t)})).filter((function(t){return!!t}));return u.length?{element:r,animations:u,animationSettings:t.animationSettings,options:t.options||void 0}:null}(e,r))?{el:e.element,options:e.options||{},player:new n(e.animations,e.animationSettings,e.options)}:null}},{key:"push",value:function(t){return this.build(t)}},{key:"init",value:function(){var t=this,n=window.__SVGATOR_PLAYER__&&window.__SVGATOR_PLAYER__["91c80d77"];Array.isArray(n)&&n.splice(0).forEach((function(n){return t.build(n)}))}}]),n}();!function(){for(var t=0,n=["ms","moz","webkit","o"],e=0;e<n.length&&!window.requestAnimationFrame;++e)window.requestAnimationFrame=window[n[e]+"RequestAnimationFrame"],window.cancelAnimationFrame=window[n[e]+"CancelAnimationFrame"]||window[n[e]+"CancelRequestAnimationFrame"];window.requestAnimationFrame||(window.requestAnimationFrame=function(n){var e=Date.now(),r=Math.max(0,16-(e-t)),i=window.setTimeout((function(){n(e+r)}),r);return t=e+r,i},window.cancelAnimationFrame=window.clearTimeout)}();var $=function(t,n){var e=!1,r=null;return function(i){e&&clearTimeout(e),e=setTimeout((function(){return function(){for(var i=0,u=window.innerHeight,o=0,a=window.innerWidth,l=t.parentNode;l instanceof Element;){var s=window.getComputedStyle(l);if("visible"!==s.overflowY||"visible"!==s.overflowX){var f=l.getBoundingClientRect();"visible"!==s.overflowY&&(i=Math.max(i,f.top),u=Math.min(u,f.bottom)),"visible"!==s.overflowX&&(o=Math.max(o,f.left),a=Math.min(a,f.right))}if(l===l.parentNode)break;l=l.parentNode}e=!1;var c=t.getBoundingClientRect(),h=Math.min(c.height,Math.max(0,i-c.top)),v=Math.min(c.height,Math.max(0,c.bottom-u)),d=Math.min(c.width,Math.max(0,o-c.left)),y=Math.min(c.width,Math.max(0,c.right-a)),g=(c.height-h-v)/c.height,p=(c.width-d-y)/c.width,b=Math.round(g*p*100);null!==r&&r===b||(r=b,n(b))}()}),100)}},J=function(){function t(n,r,i){e(this,t),r=Math.max(1,r||1),r=Math.min(r,100),this.el=n,this.onTresholdChange=i&&i.call?i:function(){},this.tresholdPercent=r||1,this.currentVisibility=null,this.visibilityCalculator=$(n,this.onVisibilityUpdate.bind(this)),this.bindScrollWatchers(),this.visibilityCalculator()}return i(t,[{key:"bindScrollWatchers",value:function(){for(var t=this.el.parentNode;t&&(t.addEventListener("scroll",this.visibilityCalculator),t!==t.parentNode&&t!==document);)t=t.parentNode}},{key:"onVisibilityUpdate",value:function(t){var n=this.currentVisibility>=this.tresholdPercent,e=t>=this.tresholdPercent;if(null===this.currentVisibility||n!==e)return this.currentVisibility=t,void this.onTresholdChange(e);this.currentVisibility=t}}]),t}();function Z(t){return h(t)+""}function K(t){var n=arguments.length>1&&void 0!==arguments[1]?arguments[1]:" ";return t&&t.length?t.map(Z).join(n):""}function tt(t){return Z(t.x)+","+Z(t.y)}function nt(t){return t?null==t.a||t.a>=1?"rgb("+t.r+","+t.g+","+t.b+")":"rgba("+t.r+","+t.g+","+t.b+","+t.a+")":"transparent"}var et={f:null,i:S,u:function(t,n){return function(e){var r=n(e);t.setAttribute("rx",Z(r.x)),t.setAttribute("ry",Z(r.y))}}},rt={f:null,i:function(t,n,e){return 0===t?n:1===t?e:{width:k(t,n.width,e.width),height:k(t,n.height,e.height)}},u:function(t,n){return function(e){var r=n(e);t.setAttribute("width",Z(r.width)),t.setAttribute("height",Z(r.height))}}},it=Math.sin,ut=Math.cos,ot=Math.acos,at=Math.asin,lt=Math.tan,st=Math.atan2,ft=Math.PI/180,ct=180/Math.PI,ht=Math.sqrt,vt=function(){function t(){var n=arguments.length>0&&void 0!==arguments[0]?arguments[0]:1,r=arguments.length>1&&void 0!==arguments[1]?arguments[1]:0,i=arguments.length>2&&void 0!==arguments[2]?arguments[2]:0,u=arguments.length>3&&void 0!==arguments[3]?arguments[3]:1,o=arguments.length>4&&void 0!==arguments[4]?arguments[4]:0,a=arguments.length>5&&void 0!==arguments[5]?arguments[5]:0;e(this,t),this.m=[n,r,i,u,o,a],this.i=null,this.w=null,this.s=null}return i(t,[{key:"determinant",get:function(){var t=this.m;return t[0]*t[3]-t[1]*t[2]}},{key:"isIdentity",get:function(){if(null===this.i){var t=this.m;this.i=1===t[0]&&0===t[1]&&0===t[2]&&1===t[3]&&0===t[4]&&0===t[5]}return this.i}},{key:"point",value:function(t,n){var e=this.m;return{x:e[0]*t+e[2]*n+e[4],y:e[1]*t+e[3]*n+e[5]}}},{key:"translateSelf",value:function(){var t=arguments.length>0&&void 0!==arguments[0]?arguments[0]:0,n=arguments.length>1&&void 0!==arguments[1]?arguments[1]:0;if(!t&&!n)return this;var e=this.m;return e[4]+=e[0]*t+e[2]*n,e[5]+=e[1]*t+e[3]*n,this.w=this.s=this.i=null,this}},{key:"rotateSelf",value:function(){var t=arguments.length>0&&void 0!==arguments[0]?arguments[0]:0;if(t%=360){var n=it(t*=ft),e=ut(t),r=this.m,i=r[0],u=r[1];r[0]=i*e+r[2]*n,r[1]=u*e+r[3]*n,r[2]=r[2]*e-i*n,r[3]=r[3]*e-u*n,this.w=this.s=this.i=null}return this}},{key:"scaleSelf",value:function(){var t=arguments.length>0&&void 0!==arguments[0]?arguments[0]:1,n=arguments.length>1&&void 0!==arguments[1]?arguments[1]:1;if(1!==t||1!==n){var e=this.m;e[0]*=t,e[1]*=t,e[2]*=n,e[3]*=n,this.w=this.s=this.i=null}return this}},{key:"skewSelf",value:function(t,n){if(n%=360,(t%=360)||n){var e=this.m,r=e[0],i=e[1],u=e[2],o=e[3];t&&(t=lt(t*ft),e[2]+=r*t,e[3]+=i*t),n&&(n=lt(n*ft),e[0]+=u*n,e[1]+=o*n),this.w=this.s=this.i=null}return this}},{key:"resetSelf",value:function(){var t=arguments.length>0&&void 0!==arguments[0]?arguments[0]:1,n=arguments.length>1&&void 0!==arguments[1]?arguments[1]:0,e=arguments.length>2&&void 0!==arguments[2]?arguments[2]:0,r=arguments.length>3&&void 0!==arguments[3]?arguments[3]:1,i=arguments.length>4&&void 0!==arguments[4]?arguments[4]:0,u=arguments.length>5&&void 0!==arguments[5]?arguments[5]:0,o=this.m;return o[0]=t,o[1]=n,o[2]=e,o[3]=r,o[4]=i,o[5]=u,this.w=this.s=this.i=null,this}},{key:"recomposeSelf",value:function(){var t=arguments.length>0&&void 0!==arguments[0]?arguments[0]:null,n=arguments.length>1&&void 0!==arguments[1]?arguments[1]:null,e=arguments.length>2&&void 0!==arguments[2]?arguments[2]:null,r=arguments.length>3&&void 0!==arguments[3]?arguments[3]:null,i=arguments.length>4&&void 0!==arguments[4]?arguments[4]:null;return this.isIdentity||this.resetSelf(),t&&(t.x||t.y)&&this.translateSelf(t.x,t.y),n&&this.rotateSelf(n),e&&(e.x&&this.skewSelf(e.x,0),e.y&&this.skewSelf(0,e.y)),!r||1===r.x&&1===r.y||this.scaleSelf(r.x,r.y),i&&(i.x||i.y)&&this.translateSelf(i.x,i.y),this}},{key:"decompose",value:function(){var t=arguments.length>0&&void 0!==arguments[0]?arguments[0]:0,n=arguments.length>1&&void 0!==arguments[1]?arguments[1]:0,e=this.m,r=e[0]*e[0]+e[1]*e[1],i=[[e[0],e[1]],[e[2],e[3]]],u=ht(r);if(0===u)return{origin:{x:h(e[4]),y:h(e[5])},translate:{x:h(t),y:h(n)},scale:{x:0,y:0},skew:{x:0,y:0},rotate:0};i[0][0]/=u,i[0][1]/=u;var o=e[0]*e[3]-e[1]*e[2]<0;o&&(u=-u);var a=i[0][0]*i[1][0]+i[0][1]*i[1][1];i[1][0]-=i[0][0]*a,i[1][1]-=i[0][1]*a;var l=ht(i[1][0]*i[1][0]+i[1][1]*i[1][1]);if(0===l)return{origin:{x:h(e[4]),y:h(e[5])},translate:{x:h(t),y:h(n)},scale:{x:h(u),y:0},skew:{x:0,y:0},rotate:0};i[1][0]/=l,i[1][1]/=l,a/=l;var s=0;return i[1][1]<0?(s=ot(i[1][1])*ct,i[0][1]<0&&(s=360-s)):s=at(i[0][1])*ct,o&&(s=-s),a=st(a,ht(i[0][0]*i[0][0]+i[0][1]*i[0][1]))*ct,o&&(a=-a),{origin:{x:h(e[4]),y:h(e[5])},translate:{x:h(t),y:h(n)},scale:{x:h(u),y:h(l)},skew:{x:h(a),y:0},rotate:h(s)}}},{key:"toString",value:function(){return null===this.s&&(this.s="matrix("+this.m.map((function(t){return h(t)})).join(" ")+")"),this.s}}]),t}();Object.freeze({M:2,L:2,Z:0,H:1,V:1,C:6,Q:4,T:2,S:4,A:7});var dt={},yt=null;function gt(t){var e=function(){if(yt)return yt;if("object"!==("undefined"==typeof document?"undefined":n(document))||!document.createElementNS)return{};var t=document.createElementNS("http://www.w3.org/2000/svg","svg");return t&&t.style?(t.style.position="absolute",t.style.opacity="0.01",t.style.zIndex="-9999",t.style.left="-9999px",t.style.width="1px",t.style.height="1px",yt={svg:t}):{}}().svg;if(!e)return function(t){return null};var r=document.createElementNS(e.namespaceURI,"path");r.setAttributeNS(null,"d",t),r.setAttributeNS(null,"fill","none"),r.setAttributeNS(null,"stroke","none"),e.appendChild(r);var i=r.getTotalLength();return function(t){var n=r.getPointAtLength(i*t);return{x:n.x,y:n.y}}}function pt(t){return dt[t]?dt[t]:dt[t]=gt(t)}function bt(t,n,e,r){if(!t||!r)return!1;var i=["M",t.x,t.y];if(n&&e&&(i.push("C"),i.push(n.x),i.push(n.y),i.push(e.x),i.push(e.y)),n?!e:e){var u=n||e;i.push("Q"),i.push(u.x),i.push(u.y)}return n||e||i.push("L"),i.push(r.x),i.push(r.y),i.join(" ")}function mt(t,n,e,r){var i=arguments.length>4&&void 0!==arguments[4]?arguments[4]:1,u=bt(t,n,e,r),o=pt(u);try{return o(i)}catch(t){return null}}function wt(t,n,e,r){var i=1-r;return i*i*t+2*i*r*n+r*r*e}function xt(t,n,e,r){return 2*(1-r)*(n-t)+2*r*(e-n)}function At(t,n,e,r){var i=arguments.length>4&&void 0!==arguments[4]&&arguments[4],u=mt(t,n,null,e,r);return u||(u={x:wt(t.x,n.x,e.x,r),y:wt(t.y,n.y,e.y,r)}),i&&(u.a=kt(t,n,e,r)),u}function kt(t,n,e,r){return Math.atan2(xt(t.y,n.y,e.y,r),xt(t.x,n.x,e.x,r))}function _t(t,n,e,r,i){var u=i*i;return i*u*(r-t+3*(n-e))+3*u*(t+e-2*n)+3*i*(n-t)+t}function St(t,n,e,r,i){var u=1-i;return 3*(u*u*(n-t)+2*u*i*(e-n)+i*i*(r-e))}function Ot(t,n,e,r,i){var u=arguments.length>5&&void 0!==arguments[5]&&arguments[5],o=mt(t,n,e,r,i);return o||(o={x:_t(t.x,n.x,e.x,r.x,i),y:_t(t.y,n.y,e.y,r.y,i)}),u&&(o.a=Mt(t,n,e,r,i)),o}function Mt(t,n,e,r,i){return Math.atan2(St(t.y,n.y,e.y,r.y,i),St(t.x,n.x,e.x,r.x,i))}function Et(t,n,e){return t+(n-t)*e}function Pt(t,n,e){var r=arguments.length>3&&void 0!==arguments[3]&&arguments[3],i={x:Et(t.x,n.x,e),y:Et(t.y,n.y,e)};return r&&(i.a=jt(t,n)),i}function jt(t,n){return Math.atan2(n.y-t.y,n.x-t.x)}function Bt(t,n,e){var r=arguments.length>3&&void 0!==arguments[3]&&arguments[3];if(Rt(n)){if(Tt(e))return At(n,e.start,e,t,r)}else if(Rt(e)){if(n.end)return At(n,n.end,e,t,r)}else{if(n.end)return e.start?Ot(n,n.end,e.start,e,t,r):At(n,n.end,e,t,r);if(e.start)return At(n,e.start,e,t,r)}return Pt(n,e,t,r)}function It(t,n,e){var r=Bt(t,n,e,!0);return r.a=function(t){return arguments.length>1&&void 0!==arguments[1]&&arguments[1]?t+Math.PI:t}(r.a)/d,r}function Rt(t){return!t.type||"corner"===t.type}function Tt(t){return null!=t.start&&!Rt(t)}var Nt=new vt;var Ct={f:function(t){return t?t.join(" "):""},i:function(t,e,r){if(0===t)return e;if(1===t)return r;var i=e.length;if(i!==r.length)return x(t,e,r);for(var u,o=new Array(i),a=0;a<i;a++){if((u=n(e[a]))!==n(r[a]))return x(t,e,r);if("number"===u)o[a]=A(t,e[a],r[a]);else{if(e[a]!==r[a])return x(t,e,r);o[a]=e[a]}}return o}},Ft={f:null,i:P,u:function(t,n){return function(e){var r=n(e);t.setAttribute("x1",Z(r[0])),t.setAttribute("y1",Z(r[1])),t.setAttribute("x2",Z(r[2])),t.setAttribute("y2",Z(r[3]))}}},Lt={f:Z,i:A},Vt={f:Z,i:function(t,n,e){var r=A(t,n,e);return r<=0?0:r>=1?1:r}},qt={f:function(t){var n=arguments.length>1&&void 0!==arguments[1]?arguments[1]:" ";return t&&t.length>0&&(t=t.map((function(t){return h(t,4)}))),K(t,n)},i:function(t,n,e){var r,i,u,o=n.length,a=e.length;if(o!==a)if(0===o)n=j(o=a,0);else if(0===a)a=o,e=j(o,0);else{var l=(u=(r=o)*(i=a)/function(t,n){for(var e;n;)e=n,n=t%n,t=e;return t||1}(r,i))<0?-u:u;n=B(n,Math.floor(l/o)),e=B(e,Math.floor(l/a)),o=a=l}for(var s=[],f=0;f<o;f++)s.push(h(k(t,n[f],e[f])));return s}};function Dt(t,n,e,r,i,u,o,a){return n=function(t,n,e){for(var r,i,u,o=t.length-1,a={},l=0;l<=o;l++)(r=t[l]).e&&(r.e=n(r.e)),r.v&&"g"===(i=r.v).t&&i.r&&(u=e.getElementById(i.r))&&(a[i.r]=u.querySelectorAll("stop"));return a}(t,r,a),function(r){var i,u=e(r,t,zt);return u?"c"===u.t?nt(u.v):"g"===u.t?(n[u.r]&&function(t,n){for(var e=0,r=t.length;e<r;e++)t[e].setAttribute("stop-color",nt(n[e]))}(n[u.r],u.v),(i=u.r)?"url(#"+i+")":"none"):"none":"none"}}function zt(t,n,e){if(0===t)return n;if(1===t)return e;if(n&&e){var r=n.t;if(r===e.t)switch(n.t){case"c":return{t:r,v:M(t,n.v,e.v)};case"g":if(n.r===e.r)return{t:r,v:E(t,n.v,e.v),r:n.r}}}return x(t,n,e)}var Yt={blur:S,brightness:k,contrast:k,"drop-shadow":function(t,n,e){return 0===t?n:1===t?e:{blur:S(t,n.blur,e.blur),offset:_(t,n.offset,e.offset),color:M(t,n.color,e.color)}},grayscale:k,"hue-rotate":A,invert:k,opacity:k,saturate:k,sepia:k};function Gt(t,n,e){if(0===t)return n;if(1===t)return e;var r=n.length;if(r!==e.length)return x(t,n,e);for(var i,u=[],o=0;o<r;o++){if(n[o].type!==e[o].type)return n;if(!(i=Yt[n[o].type]))return x(t,n,e);u.push({type:n.type,value:i(t,n[o].value,e[o].value)})}return u}var Ut={blur:function(t){return t?function(n){t.setAttribute("stdDeviation",tt(n))}:null},brightness:function(t,n,e){return(t=Ht(e,n))?function(n){n=Z(n),t.map((function(t){return t.setAttribute("slope",n)}))}:null},contrast:function(t,n,e){return(t=Ht(e,n))?function(n){var e=Z((1-n)/2);n=Z(n),t.map((function(t){t.setAttribute("slope",n),t.setAttribute("intercept",e)}))}:null},"drop-shadow":function(t,n,e){var r=e.getElementById(n+"-blur");if(!r)return null;var i=e.getElementById(n+"-offset");if(!i)return null;var u=e.getElementById(n+"-flood");return u?function(t){r.setAttribute("stdDeviation",tt(t.blur)),i.setAttribute("dx",Z(t.offset.x)),i.setAttribute("dy",Z(t.offset.y)),u.setAttribute("flood-color",nt(t.color))}:null},grayscale:function(t){return t?function(n){t.setAttribute("values",K(function(t){return[.2126+.7874*(t=1-t),.7152-.7152*t,.0722-.0722*t,0,0,.2126-.2126*t,.7152+.2848*t,.0722-.0722*t,0,0,.2126-.2126*t,.7152-.7152*t,.0722+.9278*t,0,0,0,0,0,1,0]}(n)))}:null},"hue-rotate":function(t){return t?function(n){return t.setAttribute("values",Z(n))}:null},invert:function(t,n,e){return(t=Ht(e,n))?function(n){n=Z(n)+" "+Z(1-n),t.map((function(t){return t.setAttribute("tableValues",n)}))}:null},opacity:function(t,n,e){return(t=e.getElementById(n+"-A"))?function(n){return t.setAttribute("tableValues","0 "+Z(n))}:null},saturate:function(t){return t?function(n){return t.setAttribute("values",Z(n))}:null},sepia:function(t){return t?function(n){return t.setAttribute("values",K(function(t){return[.393+.607*(t=1-t),.769-.769*t,.189-.189*t,0,0,.349-.349*t,.686+.314*t,.168-.168*t,0,0,.272-.272*t,.534-.534*t,.131+.869*t,0,0,0,0,0,1,0]}(n)))}:null}};var Wt=["R","G","B"];function Ht(t,n){var e=Wt.map((function(e){return t.getElementById(n+"-"+e)||null}));return-1!==e.indexOf(null)?null:e}var Qt={fill:Dt,"fill-opacity":Vt,stroke:Dt,"stroke-opacity":Vt,"stroke-width":Lt,"stroke-dashoffset":{f:Z,i:A},"stroke-dasharray":qt,opacity:Vt,transform:function(t,e,r,i){if(!(t=function(t,e){if(!t||"object"!==n(t))return null;var r=!1;for(var i in t)t.hasOwnProperty(i)&&(t[i]&&t[i].length?(t[i].forEach((function(t){t.e&&(t.e=e(t.e))})),r=!0):delete t[i]);return r?t:null}(t,i)))return null;var u=function(n,i,u){var o=arguments.length>3&&void 0!==arguments[3]?arguments[3]:null;return t[n]?r(i,t[n],u):e&&e[n]?e[n]:o};return e&&e.a&&t.o?function(n){var e=r(n,t.o,It);return Nt.recomposeSelf(e,u("r",n,A,0)+e.a,u("k",n,_),u("s",n,_),u("t",n,_)).toString()}:function(t){return Nt.recomposeSelf(u("o",t,Bt,null),u("r",t,A,0),u("k",t,_),u("s",t,_),u("t",t,_)).toString()}},"#filter":function(t,n,e,r,i,u,o,a){if(!n.items||!t||!t.length)return null;var l=function(t,n){var e=(t=t.map((function(t){return t&&Ut[t[0]]?(n.getElementById(t[1]),Ut[t[0]](n.getElementById(t[1]),t[1],n)):null}))).length;return function(n){for(var r=0;r<e;r++)t[r]&&t[r](n[r].value)}}(n.items,a);return l?(t=function(t,n){return t.map((function(t){return t.e=n(t.e),t}))}(t,r),function(n){l(e(n,t,Gt))}):null},"#line":Ft,points:{f:K,i:P},d:Ct,r:Lt,"#size":rt,"#radius":et,_:function(t,n){if(Array.isArray(t))for(var e=0;e<t.length;e++)this[t[e]]=n;else this[t]=n}},Xt=function(t){!function(t,n){if("function"!=typeof n&&null!==n)throw new TypeError("Super expression must either be null or a function");t.prototype=Object.create(n&&n.prototype,{constructor:{value:t,writable:!0,configurable:!0}}),n&&a(t,n)}(r,t);var n=s(r);function r(){return e(this,r),n.apply(this,arguments)}return i(r,null,[{key:"build",value:function(t){var n=f(o(r),"build",this).call(this,t,Qt);if(!n)return null;var e=n.el,i=n.options,u=n.player;return function(t,n,e){if("click"===e.start){var r=function(){switch(e.click){case"freeze":return!t._running&&t.reachedToEnd()&&(t.offset=0),t._running?t.pause():t.play();case"restart":return t.offset>0?t.restart():t.play();case"reverse":var n=!t._rollingBack&&t._running,r=t.reachedToEnd();return n||r&&1===t.fill?(t.pause(),r&&(t.offset=t.duration-1),t._rollback()):r?t.restart():t.play();case"none":default:return!t._running&&t.offset?t.restart():t.play()}};return void n.addEventListener("click",r)}if("hover"===e.start)return n.addEventListener("mouseenter",(function(){return t.reachedToEnd()?t.restart():t.play()})),void n.addEventListener("mouseleave",(function(){switch(e.hover){case"freeze":return t.pause();case"reset":return t.stop();case"reverse":return t.pause(),t._rollback();case"none":default:return}}));if("scroll"===e.start)return void new J(n,e.scroll||25,(function(n){n?t.reachedToEnd()?t.restart():t.play():t.pause()}));t.play()}(u,e,i),u}}]),r}(X);return Xt.init(),Xt}));
(function(s,i,o,w){w[o]=w[o]||{};w[o][s]=w[o][s]||[];w[o][s].push(i);})('91c80d77',{"root":"eyJ9P1jgcWV1","animations":[{"elements":{"eyJ9P1jgcWV3":{"transform":{"data":{"o":{"x":244.002396,"y":265,"type":"corner"},"t":{"x":-244.002395,"y":-244.008392}},"keys":{"r":[{"t":0,"v":0,"e":[1,0,0,1]},{"t":300,"v":-5,"e":[1,0,0,1]},{"t":500,"v":0,"e":[1,0,0,1]},{"t":700,"v":-5,"e":[1,0,0,1]},{"t":900,"v":0}]}}},"eyJ9P1jgcWV20":{"transform":{"data":{"o":{"x":267.999111,"y":265,"type":"corner"},"t":{"x":-267.999111,"y":-244.012061}},"keys":{"r":[{"t":0,"v":0,"e":[1,0,0,1]},{"t":300,"v":5,"e":[1,0,0,1]},{"t":500,"v":0,"e":[1,0,0,1]},{"t":700,"v":5,"e":[1,0,0,1]},{"t":900,"v":0}]}}}},"s":"MDRA1M2M1NmNhZXWJmYmNhYlNiKZWIzYjliODZLjODQ3YjdhN2AE3YTc2WVA2YG2FlTmIzYmNYWYWZhZGJlYjNQiOWI4NmM4NDOdiNzY2Y0ViMK2JlYWZiY2FiTYmViM2I5YjhSiZDZjODQ3YjAc2SjZjYjBiMJ2I2YjY2Yzg0ON2I3NjZjYWJWiNmJlYWZiY2DI4YWJiZWFmQVTZjODRiMGFiSTmI2YmRhZjcX2NmNiZGJhYWXZhZmFlSTZjOJDQ3Yk9jNw|"}],"options":"MDHAyMDgyMjk3YXTdiNjg3OTdiKMjk0MTI5NmZBRRjc2N2Q2YzLc5VjI5MzMyODUZUNmY3NjdkMNmM3OTI5NDESyOTc1NzY3NTUZjMjk4NA|"},'__SVGATOR_PLAYER__',window)]]></script></svg>