<svg width="385" height="384" fill="none" xmlns="http://www.w3.org/2000/svg"><path d="M177.99 228.614c0-4.3-.05-8.39.01-12.48.06-4.05 2.27-6.56 5.63-6.55 3.37 0 5.55 2.5 5.59 6.57.05 5.87.07 11.74-.01 17.61-.06 4.15-2.11 6.12-6.27 6.24-1.75.05-3.53.21-5.24-.03-3.66-.52-4.54 1.16-4.29 4.46.15 2 .63 2.95 2.8 2.94 11.11-.06 22.23-.1 33.34.02 3.15.03 2.88-1.84 2.93-3.92.06-2.15-.21-3.69-2.96-3.49-2.36.17-4.75.11-7.11 0-3.49-.16-5.59-2.17-5.66-5.68-.12-6.37-.12-12.74 0-19.11.06-3.3 2.37-5.5 5.38-5.6 3.14-.1 5.64 2.17 5.76 5.62.15 4.35.04 8.7.04 12.89.46.3.66.55.85.54 13.6-.23 16.57 9.7 14.43 20.48-1.13 5.68-5.97 9.35-11.99 9.42-12.11.13-24.23.15-36.34 0-7.48-.09-12.51-5.41-12.64-12.94-.03-1.37-.03-2.75 0-4.12.18-7.32 5.12-12.34 12.5-12.72.97-.05 1.94-.09 3.25-.15zm-22.55-10.34c-13.78-.1-24.82-11.38-24.75-25.28.07-13.74 11.47-25 25.2-24.91 13.73.09 25.03 11.47 25.01 25.18-.02 13.93-11.41 25.12-25.46 25.01zm.08-11.25c7.67.09 13.91-5.86 14.12-13.47.21-7.62-6.17-14.18-13.84-14.22-7.55-.04-13.81 6.17-13.86 13.75-.06 7.68 5.95 13.84 13.58 13.94zm74.51 11.25c-13.77-.06-25.02-11.37-24.98-25.12.04-13.7 11.42-25.05 25.12-25.07 13.91-.02 25.18 11.39 25.09 25.39-.1 13.8-11.35 24.86-25.23 24.8zm-.02-11.25c7.69.07 13.88-5.91 13.99-13.53.12-7.79-6.11-14.17-13.82-14.16-7.51.01-13.83 6.29-13.88 13.8-.06 7.55 6.13 13.82 13.71 13.89zm-36.88 83.92c-2.54 2.76-4.21 4.78-6.1 6.59-2.69 2.57-6.09 2.61-8.33.3-2.23-2.31-2.1-5.61.54-8.32 1.82-1.87 3.86-3.54 6.73-6.14-2.6-2.13-4.87-3.71-6.8-5.63-2.67-2.66-2.68-5.99-.35-8.27 2.39-2.34 5.49-2.27 8.29.47 1.86 1.81 3.45 3.91 5.87 6.7 2-2.37 3.33-4.16 4.87-5.74 3.57-3.64 6.72-4.04 9.36-1.33 2.53 2.59 2.01 5.81-1.54 9.39-1.41 1.42-2.86 2.78-4.7 4.57 1.85 1.92 3.6 3.73 5.34 5.55 2.96 3.1 3.28 6.49.83 8.88-2.42 2.37-5.81 2.03-8.86-1.05-1.66-1.69-3.1-3.58-5.15-5.97zm-89.24-138.31c.08 3.26-2.29 5.69-5.54 5.68-4.55-.01-8.85-3.36-8.84-6.89.01-2.96 2.45-5.43 5.43-5.53 4.4-.15 8.87 3.22 8.95 6.74zm183.66 5.68c-3.24-.01-5.6-2.47-5.5-5.72.1-3.43 4.18-6.61 8.61-6.71 3.14-.07 5.77 2.48 5.76 5.57-.01 3.54-4.34 6.88-8.87 6.86zm8.87 74.19c0 3.11-2.62 5.65-5.76 5.57-4.43-.11-8.51-3.3-8.61-6.72-.1-3.24 2.28-5.7 5.51-5.71 4.54-.02 8.86 3.32 8.86 6.86zm-198-6.87c3.23.03 5.58 2.51 5.46 5.76-.13 3.41-4.25 6.6-8.65 6.68-3.14.06-5.75-2.51-5.72-5.62.04-3.53 4.4-6.86 8.91-6.82zm54.13-137.11c3.52.07 6.85 4.48 6.76 8.96-.06 3.22-2.56 5.55-5.81 5.41-3.4-.15-6.58-4.32-6.61-8.69-.03-3.15 2.55-5.74 5.66-5.68zm86.5 5.47c.12 4.44-3.23 8.85-6.77 8.91-3.1.05-5.49-2.16-5.65-5.21-.22-4.31 3.11-8.96 6.55-9.16 3.09-.19 5.79 2.32 5.87 5.46z" fill="#2F5373"/><path d="M161.43 193.194c.01 2.97-2.42 5.47-5.42 5.57-3.18.1-5.79-2.4-5.79-5.55 0-3 2.4-5.52 5.38-5.62 3.09-.11 5.81 2.51 5.83 5.6zm68.8-5.61c3.13.05 5.64 2.73 5.51 5.88-.12 3.02-2.6 5.35-5.64 5.3-3.15-.05-5.72-2.73-5.56-5.82.16-2.96 2.75-5.4 5.69-5.36z" fill="#2F5373"/><path d="M34.19 216.674c.75.47 1.13 1.79 1.37 2.8 1.472 15.637 8.53 49.836 24.99 61.54 1.327 1.907 2.238 3.684 2.431 5.54L68 272.494l-20.16-48.95-13.65-6.87zm177.13-203.13c12 2.21 23.97 4.68 35.88 7.35 9.425-.644 26.03 5.981 28.64 11.86 9.23 5.7 18.6 11.26 27.28 17.72 3.019 2.246 5.577 3.605 8.641 3.675l-15.301 5.395c-3.03.99-5.55 2.01-8.17 2.59l-15.06 4.96c-15.24-9.69-30.91-16.23-48.61-20.16l-7.2-14.14c.49.8 1.64 1.51 2.59 1.68 23.59 4.23 45.23 13.09 64.89 26.82.91.63 2.36 1.07 3.39.84 2.62-.58 5.14-1.6 8.17-2.59-1.21-1.02-1.97-1.82-2.87-2.4-7.69-4.88-15.37-9.77-23.13-14.54-12.585-1.729-24.46-6.729-26.71-11.09l-12.64-3.41c-5.61-1.22-11.28-2.12-17.86-3.33l-6.49-13.04c.583.713 3.283 1.504 4.56 1.81z" fill="#F2F1EC"/><path d="M53.83 305.304c-22.75-27.93-36.02-59.82-39.42-95.73-.126-1.306-.19-1.677-.298-2.87l11.838 5.69c3.24 1.64 6.907 3.327 9.307 4.817l12.583 6.333c.93 3.63 1.59 6.26 2.27 8.89 1.08 4.22-.26 7.35-3.53 8.23-3.38.92-6.21-.96-7.28-5.16-1.35-5.32-2.45-10.7-3.74-16.03-.24-1.01-.057-.367-.303-2.263-2.4-1.49-6.067-3.177-9.307-4.817 3.94 31.26 15.3 58.51 34.47 83.25.65-1.93.91-3.27 1.52-4.42.898-1.676 1.31-4.759 1.703-6.524-1.136-1.318-1.766-1.779-3.093-3.686-3.7-5.3-6.79-11.05-9.95-16.71-2.12-3.8-1.28-7.08 1.85-8.69 3.14-1.61 5.96-.34 8.14 3.61 2.28 4.13 4.6 8.24 7.41 13.27L63.643 284.7c-.393 1.765-.805 4.848-1.703 6.524-.61 1.15-.87 2.49-1.52 4.42l-4.235 12.71c-1.155-1.474-1.12-1.535-2.355-3.05z" fill="#2F5373"/><path fill-rule="evenodd" clip-rule="evenodd" d="M82.6 333.424c27.25 21.43 58.22 33.85 92.78 37.12 1.278.124 1.387.193 2.896.39l-5.746-11.9c-31.18-4.01-58.45-15.32-83.23-34.5l-13.654 4.302c3.122 2.344 3.5 1.871 6.954 4.588zm17.016-12.222l13.124-4.348c15.3 9.7 30.89 16.19 48.63 20.15l5.97 12.396c-1.576-.226-2.11-.276-4.13-.636-22.41-4.01-42.86-12.85-61.63-25.7-1.3-.89-.907-.858-1.964-1.862zm110.994 49.352c35.82-3.4 67.68-16.57 95.49-39.34 1.437-1.175 1.269-.926 2.914-2.176l-12.324-4.504c-24.81 19.14-52.04 30.55-83.29 34.46l-5.976 12.178c1.093-.189 1.763-.485 3.186-.618zm7.545-20.778l6.355-12.692c17.82-4.11 33.58-10.49 48.63-20.24l13.791 4.52c-1.494.972-1.031.61-2.001 1.29-19.67 13.67-41.28 22.61-64.86 26.8-.88.16-1.105.192-1.915.322z" fill="#2F5373"/><path d="M371.46 211.094c.08.86-.09 1.74-.2 2.61-4.41 34.56-17.48 65.41-39.7 92.29-1.6 1.93-.226.349-1.896 2.748l-4.144-13.058c19.16-24.81 30.55-52.04 34.47-83.25-2.45 1.2-4.16 2.21-5.98 2.89-1.379.52-2.933 1.557-3.554 2.561-.167 1.367-.172 1.495-.386 2.669-4.15 22.92-12.95 43.94-26.25 63.08-.7 1-.701 1.183-1.419 2.346l-4.531-13.766c9.66-15.24 16.18-30.86 20.13-48.6l12.456-5.729c.621-1.004 2.175-2.041 3.554-2.561 1.82-.68 3.53-1.69 5.98-2.89l12.336-5.838.196-.093c-.652 2.83-.707 3.096-1.062 4.591zm-39.44-132.55c22.83 27.94 36.07 59.88 39.52 95.82.125 1.285.157 1.217.353 2.896l-11.843-5.656c-4.05-31.29-15.34-58.57-34.52-83.31-1.05 3.11-2.662 7.357-3.202 9.847.895 1.255.662.923 1.342 1.893 13.68 19.64 22.54 41.25 26.79 64.78.17.96.172.291.172 1.926l-12.582-6.336c-4.06-17.76-10.46-33.48-20.18-48.58l4.458-13.683c.54-2.49 2.152-6.737 3.202-9.847l4.609-13.35.005-.015c.902 1.622 1.247 2.29 1.876 3.615zm-120.7-65c12 2.21 23.97 4.68 35.88 7.35 4.25.95 5.95 4.07 4.9 7.41-1.02 3.23-4.09 4.4-8.35 3.21-4.21-1.17-8.38-2.49-12.64-3.41-5.61-1.22-11.28-2.12-17.86-3.33 1.75 3.43 3.569 7.31 4.929 9.51 1.831.19.881.02 1.831.19 23.59 4.23 45.23 13.09 64.89 26.82.91.63 1.499 1.009 1.94 1.317 2.62-.58 7.191-2.315 10.221-3.305-1.21-1.02-2.571-1.582-3.471-2.162-7.69-4.88-15.37-9.77-23.13-14.54-3.8-2.33-5.07-5.17-3.35-8.28 1.73-3.12 4.89-3.94 8.73-1.57 9.23 5.7 18.6 11.26 27.28 17.72 3.526 2.09 4.387 2.643 6.855 4.304l-12.914 4.528c-3.03.99-7.601 2.725-10.221 3.305l-13.61 4.483c-15.24-9.69-30.91-16.23-48.61-20.16l-6.441-12.65c-1.36-2.2-3.179-6.08-4.929-9.51l-5.762-11.578c2.426.21 1.935-.006 3.832.348z" fill="#2F5373"/><path fill-rule="evenodd" clip-rule="evenodd" d="M72.66 54.194c.563.24 2.919.977 3.42 1.072l13.24 4.148c24.72-19.19 52-30.48 83.27-34.52l5.608-11.887c-.326.04-1.61.31-2.818.427-35.91 3.42-67.8 16.67-95.73 39.43-1.821 1.486-1.332.837-3.57 2.402l-3.42-1.072zm95.216-20.072c-1.578.267-1.036.172-2.086.362-23.54 4.26-45.14 13.12-64.77 26.82-.97.67.164.017-1.793 1.344l13.603 4.406c15.11-9.69 30.84-16.14 48.56-20.13l6.486-12.802z" fill="#2F5373"/><path d="M14.4 174.414c3.23-34.58 15.69-65.54 37.12-92.78 1.21-1.196 1.496-2.4 4.748-6.294l3.802 13.394c1.91 2.852 3.64 8.233 3.508 10.704h.033l4.459 12.316c-9.66 15.27-16.27 30.91-20.08 48.59l-.15.076-11.853 6.005c.288-3.955.254-3.668.393-5.301 3.69-20.1 11.1-38.89 22.62-55.77 2.07-3.039 3.102-3.877 4.578-5.916.132-2.471-1.597-7.852-3.508-10.704-18.83 24.38-30.21 51.59-34.1 82.69l-11.763 6.081c.193-3.091.044-1.488.193-3.091z" fill="#2F5373"/><path d="M89.32 59.414l-13.24-4.148C68.84 60.625 61.427 68.88 56.268 75.34l3.802 13.394c4.357-5.427 16.306-18.889 29.25-29.32zm23.51 7.64l-13.603-4.406C86.51 72.437 72.223 88.71 63.611 99.438l4.459 12.316c13.24-22.197 35.357-39.049 44.76-44.7zm100.42-42.28l-5.762-11.578c-8.031-.648-20.674-1.225-29.29-.19l-5.608 11.888c5.095-1.15 20.36-2.784 40.66-.12zm11.37 22.16l-6.441-12.65c-11.786-1.17-35.199-2.534-50.303-.162l-6.486 12.802c25.112-5.961 52.617-2.477 63.23.01zm93.25 64.89l4.458-13.683C309.9 80.917 294.654 68.11 286.84 62.61l-13.61 4.483c10.163 6.851 33.32 25.39 44.64 44.73zm7.66-23.53l4.609-13.35c-4.906-8.209-13.369-15.43-20.164-20.166l-12.914 4.528c9.977 6.4 23.224 21.203 28.469 28.988zM338 223.614l12.456-5.729c1.064-9.853 1.41-36.019.176-51.145l-12.582-6.336c1.733 14.108 4.15 46.501-.05 63.21zm21.99-11.18l12.336-5.838c1.231-9.105.419-21.679-.433-29.336l-11.843-5.656c.893 9.883 2.132 31.886-.06 40.83zm-86.85 104.41l13.791 4.52c8.826-5.883 25.271-19.165 35.47-35.384l-4.531-13.766c-14.904 25.071-36.03 40.199-44.73 44.63zm23.55 7.69l12.324 4.504c5.802-4.498 14.762-12.319 20.65-20.296l-4.144-13.058c-5.118 6.456-18.049 21.266-28.83 28.85zm-135.32 12.47l5.97 12.396c15.134 2.087 36.538 2.596 50.815.376l6.355-12.692c-14.733 4.272-48.232 1.727-63.14-.08zm11.16 22.03l5.746 11.9c11.277 1.423 21.162 1.54 29.148.238l5.976-12.178c-11.025 2.256-29.526 1.947-40.87.04zM68 272.494L63.643 284.7c9.306 10.664 26.363 27.358 35.973 36.502l13.124-4.348c-11.622-9.83-36.84-32.465-44.74-44.36zm-7.58 23.15l-4.235 12.71c4.818 6.075 12.431 14.791 19.461 20.482l13.654-4.302c-7.739-5.601-22.478-21.594-28.88-28.89zm-46.308-88.94l11.838 5.69c-2.24-10.385-.92-31.64.02-40.97l-11.763 6.081c-.432 7.69-.83 20.358-.095 29.199zm21.145 10.507l12.583 6.333c-3.428-13.065-1.428-47.527 0-63.124l-11.853 6.005c-1.01 14.609-2.107 38.483-.73 50.786z" fill="#2F5373"/><path d="M11.95 191.454c17.65-9.03 35.3-18.05 53.5-27.36-3.9 18.72-3.96 36.92.04 55.77-18.15-9.26-35.74-18.24-53.32-27.21-.07-.4-.15-.8-.22-1.2zm57.45 139.19c-7.44 2.69-15.04-2.61-15.68-10.37-.22-2.62.5-5.48 1.46-7.98.362-.941.54-1.778.545-2.56l4.695-14.09c.65-1.93.91-3.27 1.52-4.42.898-1.676 1.195-3.198 1.042-4.67L68 272.494c1.66-5.13 2.64-9.44 4.44-13.38 1.753-3.846 2.404-7.471 1.963-11.147l8.677 14.527c10.53 15.86 23.24 28.82 39.48 39.36l12.69 7.88c-7.31 2.08-14.51 4.54-22.51 7.12l-16.21 5.37c-2.24.32-4.39 1.36-7.23 2.31l-16.86 5.312c-.948.14-1.953.403-3.04.798zm126.57 53.33h-6c-4.8-1.9-7.98-5.39-9.75-10.16-.394-1.068-.948-1.796-1.66-2.293l-6.03-12.487c-1.03-2.12-1.8-3.4-2.29-4.78-.531-1.5-1.262-2.626-2.233-3.47l-6.637-13.78c-1.99-3.93-3.87-6.91-5.05-10.15-1.469-4.031-3.416-7.499-6.092-10.19l14.932 3c4.27.69 7.95 1.3 11.63 1.86 1.603.243 3.02.144 4.194-.26h23.104c1.197.446 2.662.579 4.332.35 3.94-.54 7.85-1.22 12.35-1.93l14.46-3.57c-3.48 6.69-6.88 13.43-10.72 20.97l-6.86 13.7c-1.45 2.42-2.63 5-4.25 8.21l-6.25 12.736c-.581.485-1.045 1.155-1.39 2.084-1.81 4.75-4.901 8.108-9.79 10.16zm134.64-72.25c.85 2.83 1.85 5.88 1.58 8.72-.79 8.32-8.67 12.67-17.32 9.88-1.715-.554-3.229-1.014-4.77-.889l-13.41-4.901c-3.13-1.05-5.53-2.06-8.02-2.6l-15.53-5.09c-4.02-1.31-7.59-2.09-10.81-3.6-5.063-2.374-10.027-3.482-14.948-2.581l16.098-8.809c16.01-10.52 28.84-23.39 39.38-39.39l7.91-12.32c2.19 7.17 4.57 14.28 7.1 22.07l4.98 15.13c.54 2.61 1.6 5.12 2.67 8.34l5.09 16.04zm44.19-132.51c4.77 1.78 8.27 4.95 10.17 9.76v6c-1.8 4.14-4.46 7.51-8.83 9.09-1.611.58-2.825 1.374-3.619 2.439l-12.531 5.931c-2.45 1.2-4.16 2.21-5.98 2.89-1.379.52-2.291 1.262-2.913 2.266L338 223.614c-3.59 1.8-6.25 3.53-9.16 4.5-6.065 2.037-10.686 5.34-13.794 10.044l5.454-18.304c3.87-18.72 3.99-36.92-.06-55.77l-3.31-14.35c6.69 3.47 13.42 6.86 20.92 10.67l14 7.05c2.29 1.42 4.79 2.52 8 4.15l12.471 5.956c.495.706 1.218 1.258 2.279 1.654zm-86.51-117.08c2.62-.58 5.14-1.6 8.17-2.59l15.301-5.395c1.492.033 3.105-.24 4.949-.865 9.28-3.14 17.57 5.5 15.14 15.03-.31 1.21-.52 2.48-1.08 3.57-.577 1.124-.754 2.111-.626 3.045l-4.614 13.365c-1.05 3.11-2.06 5.51-2.6 8l-5.06 15.53c-1.28 3.86-2.03 7.16-3.45 10.15-2.381 5.027-3.529 9.968-2.855 14.858l-8.735-15.268c-10.56-16.05-23.45-28.88-39.4-39.45l-12.28-7.9c7.15-2.26 14.28-4.59 22.08-7.12l15.06-4.96zm-233.98 6.31c-2.83-7.83 3.33-15.83 11.48-15.79 2.3.01 4.74.63 6.87 1.54l1.592.499 15.068 4.72c3.08 1.04 5.46 2.06 7.95 2.6l15.56 5.04c3.63 1.23 6.82 1.92 9.64 3.32 7.111 3.544 14.027 4.078 20.847 1.47l4.873-2.41a30.13 30.13 0 01-4.873 2.41l-20.757 10.26c-15.92 10.53-28.83 23.331-39.43 39.451l-8.21 11.2c-2.07-6.79-4.38-13.51-6.85-21L62.587 96.61c.131-2.471-.607-5.024-2.517-7.876l-5.082-17.902-.678-2.388zm138.02-57.32c.44.01.87.03 1.31.04 8.98 17.58 17.95 35.17 27.2 53.32-18.81-3.96-37.01-3.95-55.75-.01 9.27-18.15 18.25-35.75 27.24-53.35z" fill="#F2F1EC"/><path fill-rule="evenodd" clip-rule="evenodd" d="M293.822 60.441c-1.933.672-3.708 1.29-5.532 1.693l-15.06 4.96-4.312 1.4c-6.156 2-11.955 3.883-17.768 5.72l12.28 7.9c9.574-3.106 18.984-6.156 28.311-9.178 9.593-3.11 19.097-6.19 28.599-9.272l.94.97a97367.3 97367.3 0 01-12.006 37.05l-6.444 19.88 8.735 15.268c-.674-4.89.474-9.831 2.855-14.858.964-2.03 1.619-4.203 2.341-6.597.342-1.132.698-2.314 1.109-3.553l5.06-15.53c.379-1.745.988-3.446 1.68-5.378.295-.825.606-1.692.92-2.622l4.614-13.365c-.128-.934.049-1.92.626-3.045.434-.844.658-1.797.881-2.746.064-.276.129-.551.199-.824 2.43-9.53-5.86-18.17-15.14-15.03-1.844.626-3.457.898-4.949.864l-15.301 5.396c-.921.3-1.794.604-2.638.898zm91.148 128.533c-1.9-4.81-5.4-7.98-10.17-9.76-1.061-.396-1.784-.948-2.279-1.654l-12.471-5.956c-.964-.49-1.864-.931-2.713-1.348-1.98-.972-3.685-1.808-5.287-2.802l-14-7.05c-1.706-.867-3.373-1.712-5.008-2.541-5.552-2.816-10.744-5.448-15.912-8.129l3.31 14.35c18.168 9.274 35.737 18.238 53.306 27.202l.025.014.009.004.059 1.299.001.011c-7.237 3.697-14.475 7.392-21.75 11.106a91142.21 91142.21 0 00-31.59 16.134l-5.454 18.304c3.108-4.704 7.729-8.007 13.794-10.044 1.961-.654 3.809-1.653 5.905-2.786 1.014-.548 2.085-1.127 3.255-1.714l13.097-6.024c.622-1.004 1.534-1.746 2.913-2.266 1.217-.455 2.385-1.057 3.757-1.765.68-.351 1.411-.727 2.223-1.125l12.531-5.931c.794-1.065 2.008-1.859 3.619-2.439 4.37-1.58 7.03-4.95 8.83-9.09v-6zm-54.193 123.302l-.167-.552-5.09-16.04c-.325-.978-.649-1.89-.957-2.759-.709-1.994-1.337-3.763-1.713-5.581l-4.98-15.13c-.65-2.001-1.29-3.957-1.919-5.881-1.821-5.566-3.553-10.861-5.181-16.189l-7.91 12.32c6.28 19.4 12.35 38.13 18.43 56.86-.27.33-.529.659-.789.989l-.001.001-19.097-6.182c-12.477-4.039-25.056-8.11-37.923-12.278l-16.098 8.809c4.921-.901 9.885.207 14.948 2.581 2.179 1.022 4.519 1.709 7.05 2.453 1.208.355 2.461.723 3.76 1.147l15.53 5.09c1.73.375 3.417.977 5.335 1.662.842.301 1.73.617 2.685.938l13.41 4.901c1.541-.125 3.055.335 4.77.889 8.65 2.79 16.53-1.56 17.32-9.88.253-2.656-.606-5.496-1.413-8.168zM189.97 383.974h6c4.889-2.052 7.98-5.41 9.79-10.16.345-.929.809-1.599 1.39-2.084l6.25-12.736c.437-.866.842-1.686 1.229-2.469 1.047-2.121 1.962-3.974 3.021-5.741l6.86-13.7c.925-1.815 1.824-3.584 2.704-5.318 2.778-5.465 5.374-10.573 8.016-15.652l-14.46 3.57c-6.317 12.366-12.53 24.538-18.714 36.653l-8.426 16.507c-.41.04-1.22.14-1.22.14l-27.25-53.32-14.932-3c2.676 2.691 4.623 6.159 6.092 10.19.798 2.191 1.916 4.262 3.171 6.589a147.565 147.565 0 011.879 3.561l6.637 13.78c.971.844 1.702 1.97 2.233 3.47.323.91.768 1.776 1.329 2.868.289.565.61 1.19.961 1.912l6.03 12.487c.712.497 1.266 1.225 1.66 2.293 1.77 4.77 4.95 8.26 9.75 10.16zm-136.25-63.7c.64 7.76 8.24 13.06 15.68 10.37 1.087-.395 2.092-.658 3.04-.798l16.86-5.312c.896-.3 1.724-.609 2.507-.901 1.699-.634 3.19-1.19 4.723-1.409l16.21-5.37c2.032-.655 4.012-1.303 5.956-1.938 5.708-1.867 11.101-3.63 16.554-5.182l-12.69-7.88c-9.574 3.098-18.97 6.141-28.274 9.154-9.647 3.124-19.197 6.216-28.746 9.306-.15-.15-.3-.298-.45-.445-.15-.148-.3-.295-.45-.445l18.44-56.93-8.677-14.527c.44 3.676-.21 7.301-1.963 11.147-1.224 2.68-2.07 5.531-3.007 8.696-.44 1.487-.902 3.044-1.433 4.684l-5.018 14.06c.153 1.472-.144 2.994-1.042 4.67-.4.754-.65 1.589-.957 2.619a51.157 51.157 0 01-.563 1.801l-4.695 14.09c-.006.782-.183 1.619-.545 2.56-.96 2.5-1.68 5.36-1.46 7.98zm12.07-267.62c-8.15-.04-14.31 7.96-11.48 15.79l.678 2.388 5.082 17.902c1.91 2.852 2.648 5.405 2.517 7.876l5.483 15.144c.663 2.01 1.314 3.964 1.952 5.879 1.74 5.222 3.383 10.153 4.898 15.121l8.21-11.2-18.45-56.86c.15-.175.297-.35.445-.525.147-.175.295-.35.445-.525l.138.045h.004c18.712 6.065 37.427 12.13 56.848 18.415l20.757-10.261a30.13 30.13 0 004.873-2.41l-4.873 2.41c-6.82 2.608-13.736 2.075-20.847-1.47-1.886-.935-3.936-1.554-6.173-2.229a103.788 103.788 0 01-3.467-1.09l-15.56-5.04c-1.72-.373-3.387-.975-5.269-1.654-.843-.305-1.728-.624-2.681-.946l-15.068-4.721-1.592-.5c-2.13-.91-4.57-1.53-6.87-1.54z" fill="#2F5373"/><path d="M.97 194.994c1.89 4.81 5.4 7.96 10.16 9.75 1.043.388 1.765.925 2.266 1.616l12.554 6.034c3.24 1.64 5.84 2.79 8.24 4.28l13.65 6.87 15.63 7.81c1.518.646 2.772 1.435 3.85 2.37l-1.83-13.86c-18.15-9.26-35.74-18.24-53.32-27.21-.07-.4-.15-.8-.22-1.2 17.65-9.03 35.3-18.05 53.5-27.36l4.51-16.51-9.53 6.56c-4.03 1.6-7.79 3.85-12.44 6.2l-14.883 7.54c-.904.785-2.03 1.402-3.437 1.86-1.03.33-1.99.89-3.7 1.68l-13.05 6.747c-.455.435-1.04.791-1.79 1.073-4.76 1.78-8.27 4.94-10.16 9.75v6zM189.98.004c-4.81 1.89-7.98 5.4-9.76 10.16l-1.805 2.383-5.825 12.347-3.95 7.72-7.25 14.31c-3.76 7.41-7.08 14.08-10.56 20.66l14.26-3.11c9.27-18.15 18.25-35.75 27.24-53.35.44.01.87.03 1.31.04 8.98 17.58 17.95 35.17 27.2 53.32l14.952 2.716c-3.019-2.961-5.241-6.777-6.792-11.346l-4.38-8.92-7.2-14.14-4.17-8.02-6.49-13.04c-.559-.538-1.014-1.253-1.36-2.23-1.62-4.59-4.94-7.66-9.42-9.5h-6z" fill="#2F5373"/><path fill-rule="evenodd" clip-rule="evenodd" d="M216.709 320.337c1.308-.213 2.656-.431 4.061-.653l14.46-3.57c.274-.52.989-.857 1.606-1.148l.087-.041.087-.041c.376-.182.783-.314 1.188-.445.555-.18 1.108-.359 1.582-.665 2.528-1.642 5.059-2.645 7.602-3.111l-6.862-9.229c-.518-2.768-1.017-5.477-1.508-8.144l-.006-.032-.01-.055-.004-.018-.001-.009c-1.115-6.05-2.19-11.886-3.351-17.712-.64-3.26.27-5.41 3.13-7.21 3.195-2.019 6.275-4.219 9.314-6.39 1.25-.893 2.494-1.781 3.736-2.65l8.87-8.22a476.096 476.096 0 013.965-6.416c3.093-4.945 6.223-9.95 8.915-15.174 4.61-8.94 7.06-18.66 7.92-28.71.059-.666.127-1.259.305-1.743l-.115-14.807c-1.72-19.29-9.14-36.14-21.44-50.58l-8.59-8.62c-10.09-8.61-21.47-15.22-34.5-18.58-2.919-.757-5.902-1.261-8.885-1.766-2.301-.39-4.602-.779-6.875-1.284l-16.19-.1c-19.28 1.8-36.1 9.25-50.5 21.52l-8.85 8.83c-8.52 9.94-15.1 21.32-18.49 34.32-.786 3.008-1.307 6.08-1.828 9.152-.375 2.208-.75 4.415-1.222 6.598-.092.425-.345.951-.664 1.421l.794 15.239c1.68 18.46 8.67 34.73 20.44 48.99.284.342.535.715.759 1.047.084.125.165.244.241.353l8.42 8.7c1.251.864 2.538 1.729 3.842 2.605l.002.001.002.001c3.386 2.275 6.887 4.626 10.164 7.253 1.31 1.05 2.2 3.72 1.94 5.45-.984 6.505-2.206 12.972-3.473 19.673v.002l-.001.006-.002.006v.003c-.432 2.286-.87 4.599-1.304 6.95l-5.73 9.79c4.394.926 7.806 2.843 10.487 5.54l14.933 3c3.894.892 12.511 2.46 15.824 1.6.934-.342 2.956-1.675 3.566-4.27.59-3.34-1.74-5.82-5.99-6.62a1887.897 1887.897 0 01-16.485-3.231c-1.997-.397-4.007-.798-6.035-1.199a2063.16 2063.16 0 001.665-9.011v-.002c1.143-6.238 2.242-12.231 3.465-18.197 1.66-8.15-.06-14.8-7.32-19.61-.96-.64-1.6-2.42-1.64-3.7-.099-3.254-.086-6.511-.074-9.768.009-2.368.018-4.736-.016-7.102-.15-10.54-6.33-16.66-16.89-16.79-1.956-.026-3.912-.02-5.868-.013h-.002c-1.793.006-3.587.012-5.38-.007-3.166-.03-3.17-.06-3.678-4.066l-.002-.014c.55 0 1.095.009 1.636.017 1.191.02 2.365.038 3.534-.037 3.37-.21 5.5-2.31 5.59-5.36.09-3-1.99-5.45-5.27-5.72-2.027-.165-4.076-.127-6.231-.087h-.001c-.982.018-1.985.037-3.018.037-.248-2.007-.482-3.852-.714-5.686l-.346-2.734c1.318-.34 2.832-.373 4.33-.406 3.969-.088 7.83-.173 7.67-5.944-.152-5.356-3.84-5.358-7.679-5.36-1.464-.001-2.951-.002-4.271-.3.3-2.73.59-5.39.93-8.53.909 0 1.8.009 2.679.018 1.916.019 3.773.037 5.631-.038 4-.16 6.44-2.52 6.29-5.91-.15-3.26-2.45-5.18-6.43-5.3-.942-.035-1.889-.026-2.834-.018-.419.004-.838.008-1.256.008.02-5.84 1.58-7.45 6.97-7.45 2.916 0 5.833.007 8.751.014 7.456.018 14.915.037 22.369-.064 3.66-.05 6.48 1.15 8.97 3.77 3.7 3.9 7.53 7.67 11.39 11.41 8.2 7.94 19.67 7.97 27.89.07 1.501-1.442 2.952-2.94 4.402-4.438 2.47-2.551 4.938-5.1 7.648-7.362 2.11-1.77 5.21-3.16 7.91-3.26 7.547-.27 15.109-.226 22.669-.183 2.818.017 5.635.033 8.451.033 6.23 0 6.85.56 7.84 7.47-.543 0-1.08-.007-1.613-.013-1.206-.015-2.391-.03-3.577.033-3.44.19-5.57 2.17-5.73 5.22-.17 3.16 1.99 5.65 5.48 5.9 1.944.143 3.898.11 5.981.074.971-.017 1.97-.034 3.009-.034.4 2.87.77 5.52 1.25 8.93-.803 0-1.561-.011-2.289-.021-1.512-.021-2.894-.04-4.271.041-3.6.2-5.82 2.4-5.8 5.57.01 2.99 2.1 5.21 5.48 5.52 1.394.121 2.806.093 4.371.061.758-.015 1.553-.031 2.399-.031l-.447 3.653c-.213 1.741-.418 3.411-.633 5.207-.962 0-1.897-.011-2.812-.022-1.938-.024-3.79-.046-5.638.042-3.8.18-6.13 2.46-6.08 5.73.05 3.29 2.35 5.32 6.26 5.46 1.011.034 2.023.026 3.067.018.473-.004.953-.008 1.443-.008.18 3.02-.85 4.21-3.64 4.11-4.12-.15-8.25-.12-12.37 0-9.26.27-15.44 6.3-15.77 15.58-.107 2.911-.091 5.827-.075 8.743.017 3.084.033 6.168-.095 9.247-.06 1.44-1.03 3.3-2.19 4.15-5.69 4.18-8.3 9.59-7.1 16.56 1.066 6.179 2.229 12.345 3.392 18.509v.002c.549 2.913 1.099 5.825 1.638 8.739.069.374.106.752.166 1.356.036.363.08.808.144 1.384-2.66.513-5.279 1.032-7.873 1.545-4.983.986-9.874 1.954-14.787 2.835-4.33.76-6.78 2.92-6.46 6.25.218 2.248 1.467 3.857 3.458 4.6 1.197.446 2.661.579 4.332.35 2.71-.372 5.405-.809 8.289-1.277zm18.941-192.943c-24.53-17.97-63.29-16.86-84.59 0h84.59zm20.72 20.19c-3.28-6.31-7.13-9.16-14.34-9.05-24.266.359-48.538.304-72.811.25-8.826-.02-17.653-.04-26.479-.04-6.84 0-9.66 1.92-12.59 8.84h3.76c2.511 0 5.023.011 7.534.021 5.858.026 11.714.051 17.566-.061 6.4-.12 11.67 2.05 16.08 6.64 3.004 3.122 6.087 6.166 9.17 9.21l1.68 1.66c4.83 4.78 9.15 4.82 13.94.12.777-.766 1.558-1.529 2.339-2.292l.001-.002c2.705-2.643 5.41-5.286 7.97-8.056 4.81-5.2 10.59-7.49 17.7-7.3 6.472.18 12.944.139 19.58.097 2.93-.018 5.892-.037 8.9-.037zm-129.53 86.14c2.211 2.629 4.345 5.159 6.506 7.722 2.285 2.711 4.602 5.458 7.074 8.398 1.182-17.064.923-17.059-9.225-16.847-.842.017-1.752.036-2.735.047-.136.006-.269.068-.597.221-.226.106-.545.255-1.023.459zm128.819-.653c1.178.026 2.443.053 3.831.053-2.433 2.931-4.696 5.658-6.873 8.284-2.199 2.651-4.312 5.199-6.427 7.746a22.548 22.548 0 00-.44-.22c-.148-.073-.295-.145-.44-.22 0-1.14-.017-2.28-.035-3.42-.045-3.021-.091-6.039.185-9.03.11-1.14 1.95-2.83 3.17-3 2.162-.298 4.372-.25 7.029-.193z" fill="#2F5373"/><path fill-rule="evenodd" clip-rule="evenodd" d="M103.646 185.055l.794 15.239c-.2-2.17-1.13-2.7-3.08-2.67-3.5.056-7 .043-10.499.031-1.5-.006-3-.011-4.5-.011H73.82c1.81 28.8 11.96 53.4 30.659 74.34 3.914-3.898 7.726-7.691 11.5-11.447l.034-.034a31063.1 31063.1 0 009.866-9.819l8.42 8.7-10.473 10.468c-3.548 3.545-7.116 7.111-10.717 10.712 9.38 8.52 20.02 15.49 32.36 20.77l-5.73 9.79c-.611-.13-1.242-.43-1.86-.723-.949-.45-1.867-.885-2.63-.667l-12.69-7.88c-16.24-10.54-28.95-23.5-39.48-39.36l-8.677-14.527c-.298-2.49-1.097-5.003-2.393-7.623-1.333-2.705-2.716-4.907-4.69-6.62l-1.83-13.86c-4-18.85-3.94-37.05-.04-55.77l4.51-16.51c1.432-1.854 2.474-4.078 3.03-6.79.14-.682.47-1.325.801-1.97.305-.595.61-1.192.77-1.82.35-1.37.75-2.98.36-4.25l8.21-11.2c10.6-16.12 23.509-28.92 39.429-39.45l25.63-12.67c.24-.144.502-.282.766-.42.76-.398 1.54-.807 1.874-1.43l14.26-3.11c18.74-3.94 36.94-3.95 55.75.01l14.952 2.716c3.072 3.014 6.971 5.144 11.828 6.284.231.054.45.176.669.298.226.125.452.251.691.302l.123.024.082.017c.658.133 1.377.279 1.965.089l12.28 7.9c15.95 10.57 28.84 23.4 39.4 39.45l8.735 15.268c.418 3.037 1.54 6.054 3.505 9.062.221.337.342.736.463 1.137.097.323.195.648.347.943l.128.252c.295.589.625 1.246 1.122 1.508l3.31 14.35c4.05 18.85 3.93 37.05.06 55.77l-5.454 18.304c-1.668 2.525-2.9 5.453-3.686 8.806-.071.303-.173.618-.275.935-.256.792-.515 1.595-.315 2.245l-7.91 12.32c-10.54 16-23.37 28.87-39.38 39.39l-16.098 8.809c-2.543.466-5.074 1.469-7.602 3.111-.473.306-1.027.485-1.581.665-.406.131-.813.263-1.189.445l-.173.082c-.617.291-1.333.628-1.607 1.148l-5.48-10.08 10.77-4.6c12.32-5.46 23.11-12.29 32.48-21.01l-21.18-21.21 8.87-8.22 20.94 20.91c18.58-20.93 28.72-45.51 30.45-73.77a10.888 10.888 0 01-.678-.21c-.361-.121-.657-.22-.952-.22-3.062-.011-6.124-.013-9.187-.014-5.687-.004-11.375-.008-17.063-.066-1.467-.013-2.098.494-2.405 1.327l-.115-14.807c.07.81 1.43 2.13 2.21 2.14 7.359.12 14.724.112 22.375.104h.014c1.931-.002 3.88-.004 5.852-.004-1.8-28.77-12.02-53.34-30.54-74.15-7.058 7.058-13.971 13.961-20.986 20.967l-.364.363-8.59-8.62c7.06-7.13 14.01-14.12 21.27-21.42-21.1-18.67-45.59-28.97-73.73-30.62-.09.23-.18.422-.259.59-.139.295-.241.513-.241.73l-.021 4.161c-.04 7.48-.081 14.956.071 22.439.02.88 1.59 2.26 2.65 2.49l-16.19-.1c.8-.07 2.02-1.97 2.04-3.04.16-6.33.13-12.659.101-18.988l-.011-2.372c-.007-1.3-.076-2.596-.148-3.942-.036-.662-.072-1.336-.102-2.028-28.5 1.79-52.96 12.01-73.78 30.45 7.25 7.26 14.27 14.29 21.4 21.44l-8.85 8.83-1.938-1.952-.027-.027c-6.472-6.517-12.839-12.929-19.215-19.341-16.33 14.89-32.34 53.48-30.42 74.14 1.854 0 3.711.002 5.57.005 7.442.009 14.912.019 22.37-.125.437-.006 1.011-.552 1.456-1.209z" fill="#2F5373"/></svg>