<svg id="esEnXKrQRIO1" xmlns="http://www.w3.org/2000/svg" xmlns:xlink="http://www.w3.org/1999/xlink" viewBox="0 0 484 484" shape-rendering="geometricPrecision" text-rendering="geometricPrecision"><path id="esEnXKrQRIO2" d="M352,424C352,428.417969,348.417969,432,344,432L56,432C51.582031,432,48,428.417969,48,424L48,24C48,19.582031,51.582031,16,56,16L280,16L280,72C280,85.253906,290.746094,96,304,96L352,96L352,144L368,144L368,88.246094C368,86.273438,367.269531,84.371094,365.953125,82.902344L293.953125,2.65625C292.433594,0.964844,290.269531,0,288,0L56,0C42.746094,0,32,10.746094,32,24L32,32L24,32C10.746094,32,0,42.746094,0,56L0,456C0,469.253906,10.746094,480,24,480L320,480C333.253906,480,344,469.253906,344,456L344,448C357.253906,448,368,437.253906,368,424L368,336L352,336ZM296,72L296,28.921875L341.847656,80L304,80C299.582031,80,296,76.417969,296,72ZM328,456C328,460.417969,324.417969,464,320,464L24,464C19.582031,464,16,460.417969,16,456L16,56C16,51.582031,19.582031,48,24,48L32,48L32,424C32,437.253906,42.746094,448,56,448L328,448ZM328,456" transform="matrix(1 0 0 1 2 2)" fill="rgb(47,83,115)" stroke="none" stroke-width="1"/><path id="esEnXKrQRIO3" d="M80,48L96,48L96,64L80,64ZM80,48" transform="matrix(1 0 0 1 2 2)" fill="rgb(47,83,115)" stroke="none" stroke-width="1"/><path id="esEnXKrQRIO4" d="M112,48L176,48L176,64L112,64ZM112,48" transform="matrix(1 0 0 1 2 2)" fill="rgb(47,83,115)" stroke="none" stroke-width="1"/><path id="esEnXKrQRIO5" d="M80,80L176,80L176,96L80,96ZM80,80" transform="matrix(1 0 0 1 2 2)" fill="rgb(47,83,115)" stroke="none" stroke-width="1"/><path id="esEnXKrQRIO6" d="M80,144L112,144L112,160L80,160ZM80,144" transform="matrix(1 0 0 1 2 2)" fill="rgb(47,83,115)" stroke="none" stroke-width="1"/><path id="esEnXKrQRIO7" d="M128,144L240,144L240,160L128,160ZM128,144" transform="matrix(1 0 0 1 2 2)" fill="rgb(47,83,115)" stroke="none" stroke-width="1"/><path id="esEnXKrQRIO8" d="M80,192L240,192L240,208L80,208ZM80,192" transform="matrix(1 0 0 1 2 2)" fill="rgb(47,83,115)" stroke="none" stroke-width="1"/><path id="esEnXKrQRIO9" d="M80,240L240,240L240,256L80,256ZM80,240" transform="matrix(1 0 0 1 2 2)" fill="rgb(47,83,115)" stroke="none" stroke-width="1"/><path id="esEnXKrQRIO10" d="M80,288L240,288L240,304L80,304ZM80,288" transform="matrix(1 0 0 1 2 2)" fill="rgb(47,83,115)" stroke="none" stroke-width="1"/><path id="esEnXKrQRIO11" display="none" d="M448,208C433.453125,208.054688,420.773438,217.914062,417.136719,232L335.199219,232C334.167969,226.992188,332.179688,222.230469,329.34375,217.976562L399.855469,147.464844C404.730469,150.402344,410.308594,151.96875,416,152C433.671875,152,448,137.671875,448,120C448,102.328125,433.671875,88,416,88C398.328125,88,384,102.328125,384,120C384.027344,125.695312,385.59375,131.277344,388.535156,136.152344L318.023438,206.664062C301.324219,195.589844,279.007812,198.582031,265.8125,213.660156C252.617188,228.742188,252.617188,251.257812,265.8125,266.339844C279.007812,281.417969,301.324219,284.410156,318.023438,273.335938L388.535156,343.847656C385.59375,348.722656,384.027344,354.304688,384,360C384,377.671875,398.328125,392,416,392C433.671875,392,448,377.671875,448,360C448,342.328125,433.671875,328,416,328C410.304688,328.027344,404.722656,329.59375,399.847656,332.535156L329.335938,262.023438C332.175781,257.769531,334.167969,253.007812,335.199219,248L417.136719,248C421.320312,264.0625,437.109375,274.242188,453.464844,271.425781C469.824219,268.609375,481.296875,253.738281,479.875,237.199219C478.449219,220.664062,464.597656,207.976562,448,208ZM416,104C424.835938,104,432,111.164062,432,120C432,128.835938,424.835938,136,416,136C407.164062,136,400,128.835938,400,120C400,111.164062,407.164062,104,416,104ZM296,264C282.746094,264,272,253.253906,272,240C272,226.746094,282.746094,216,296,216C309.253906,216,320,226.746094,320,240C320,253.253906,309.253906,264,296,264ZM432,360C432,368.835938,424.835938,376,416,376C407.164062,376,400,368.835938,400,360C400,351.164062,407.164062,344,416,344C424.835938,344,432,351.164062,432,360ZM448,256C439.164062,256,432,248.835938,432,240C432,231.164062,439.164062,224,448,224C456.835938,224,464,231.164062,464,240C464,248.835938,456.835938,256,448,256ZM448,256" transform="matrix(1 0 0 1 2 2)" fill="rgb(47,83,115)" stroke="none" stroke-width="1"/><path id="esEnXKrQRIO12" d="M208,352L272,352L272,368L208,368ZM208,352" transform="matrix(1 0 0 1 2 2)" fill="rgb(47,83,115)" stroke="none" stroke-width="1"/><path id="esEnXKrQRIO13" d="M208,384L272,384L272,400L208,400ZM208,384" transform="matrix(1 0 0 1 2 2)" fill="rgb(47,83,115)" stroke="none" stroke-width="1"/><path id="esEnXKrQRIO14" d="M4.480146,43.544974L27.3111,20.714C28.9346,21.6923,30.7923,22.214,32.6878,22.2244C38.5731,22.2244,43.3449,17.4526,43.3449,11.5673C43.3449,5.68192,38.5731,0.910156,32.6878,0.910156C26.8024,0.910156,22.0307,5.68192,22.0307,11.5673C22.0398,13.464,22.5614,15.323,23.541,16.9466L0.710093,39.777474L2.635622,41.375964L4.480146,43.544974ZM38.0163,11.5673C38.0163,8.62459,35.6304,6.23871,32.6878,6.23871C29.7451,6.23871,27.3592,8.62459,27.3592,11.5673C27.3592,14.5099,29.7451,16.8958,32.6878,16.8958C35.6304,16.8958,38.0163,14.5099,38.0163,11.5673Z" transform="matrix(3.067837 0 0 3.067837 317.762944 86.809458)" clip-rule="evenodd" fill="rgb(47,83,115)" fill-rule="evenodd" stroke="none" stroke-width="1"/><path id="esEnXKrQRIO15" d="M4.49261,43.557682L27.3111,20.714C28.9346,21.6923,30.7923,22.214,32.6878,22.2244C38.5731,22.2244,43.3449,17.4526,43.3449,11.5673C43.3449,5.68192,38.5731,0.910156,32.6878,0.910156C26.8024,0.910156,22.0307,5.68192,22.0307,11.5673C22.0398,13.464,22.5614,15.323,23.541,16.9466L0.722557,39.790182L3.115451,41.529885L4.49261,43.557682ZM38.0163,11.5673C38.0163,8.62459,35.6304,6.23871,32.6878,6.23871C29.7451,6.23871,27.3592,8.62459,27.3592,11.5673C27.3592,14.5099,29.7451,16.8958,32.6878,16.8958C35.6304,16.8958,38.0163,14.5099,38.0163,11.5673Z" transform="matrix(0.059228 3.067265 -3.067265 0.059228 450.797314 260.727264)" clip-rule="evenodd" fill="rgb(47,83,115)" fill-rule="evenodd" stroke="none" stroke-width="1"/><path id="esEnXKrQRIO16" d="M38.3449,0.624278C33.5003,0.642491,29.2775,3.926,28.0664,8.61711L1.747119,8.61711L1.747119,13.9457L28.0664,13.9457C29.4596,19.295,34.7179,22.6852,40.1649,21.7473C45.6131,20.8093,49.4339,15.8567,48.9604,10.3486C48.4855,4.84185,43.8725,0.616473,38.3449,0.624278ZM33.0163,11.2814C33.0163,14.2241,35.4022,16.6099,38.3449,16.6099C41.2876,16.6099,43.6734,14.2241,43.6734,11.2814C43.6734,8.33871,41.2876,5.95283,38.3449,5.95283C35.4022,5.95283,33.0163,8.33871,33.0163,11.2814Z" transform="matrix(3.096613 0 0 3.096613 330.991347 207.488732)" clip-rule="evenodd" fill="rgb(47,83,115)" fill-rule="evenodd" stroke="none" stroke-width="1"/><ellipse id="esEnXKrQRIO17" rx="36.443407" ry="36.443407" transform="matrix(1.093723 0 0 1.093723 296.542507 242)" fill="rgb(242,241,236)" stroke="none" stroke-width="0"/><g id="esEnXKrQRIO18" transform="matrix(3.038389 0 0 3.038389 256.137011 201.253872)"><path id="esEnXKrQRIO19" d="M26.7783,10.8671C26.4349,9.19937,25.7727,7.61356,24.8283,6.19686L21.0582,2.4294C15.4968,-1.2587,8.06464,-0.262192,3.67014,4.75935C-0.724357,9.78219,-0.724357,17.2807,3.67014,22.3035C8.06464,27.325,15.4968,28.3215,21.0582,24.6334L24.8256,20.866C25.7714,19.4493,26.4349,17.8635,26.7783,16.1957L26.7783,10.8671ZM5.73079,13.5314C5.73079,17.9454,9.30961,21.5243,13.7236,21.5243C18.1376,21.5243,21.7165,17.9454,21.7165,13.5314C21.7165,9.11742,18.1376,5.53859,13.7236,5.53859C9.30961,5.53859,5.73079,9.11742,5.73079,13.5314Z" clip-rule="evenodd" fill="rgb(47,83,115)" fill-rule="evenodd" stroke="none" stroke-width="1"/><path id="esEnXKrQRIO20" d="M0.749265,16.1957C1.09271,17.8635,1.75487,19.4493,2.69934,20.866L6.4694,24.6334C12.0308,28.3215,19.463,27.325,23.8574,22.3035C28.2519,17.2807,28.2519,9.78218,23.8575,4.75934C19.463,-0.262197,12.0308,-1.2587,6.4694,2.4294L2.70194,6.19685C1.75617,7.61355,1.09271,9.19937,0.749265,10.8671L0.749265,16.1957ZM21.7968,13.5314C21.7968,9.11741,18.218,5.53859,13.804,5.53859C9.38995,5.53859,5.81113,9.11741,5.81113,13.5314C5.81113,17.9454,9.38995,21.5243,13.804,21.5243C18.218,21.5243,21.7968,17.9454,21.7968,13.5314Z" clip-rule="evenodd" fill="rgb(47,83,115)" fill-rule="evenodd" stroke="none" stroke-width="1"/></g></svg>