<svg xmlns="http://www.w3.org/2000/svg" viewBox="0 0 484 484" shape-rendering="geometricPrecision" text-rendering="geometricPrecision"><path d="M354 426a8 8 0 01-8 8H58a8 8 0 01-8-8V26a8 8 0 018-8h224v56c0 13.254 10.746 24 24 24h48v48h16V90.246c0-1.973-.73-3.875-2.047-5.344l-72-80.246A8.003 8.003 0 00290 2H58C44.746 2 34 12.746 34 26v8h-8C12.746 34 2 44.746 2 58v400c0 13.254 10.746 24 24 24h296c13.254 0 24-10.746 24-24v-8c13.254 0 24-10.746 24-24v-88h-16zM298 74V30.922L343.848 82H306a8 8 0 01-8-8zm32 384a8 8 0 01-8 8H26a8 8 0 01-8-8V58a8 8 0 018-8h8v376c0 13.254 10.746 24 24 24h272zm0 0" fill="#2F5373"/><path d="M82 50h16v16H82zm32 0h64v16h-64zM82 82h96v16H82zm0 64h32v16H82zm48 0h112v16H130zm-48 48h160v16H82zm0 48h160v16H82zm0 48h160v16H82zm128 64h64v16h-64zm0 32h64v16h-64zm0 0" fill="#2F5373"/><path d="M331.507 220.398l70.042-70.041a32.303 32.303 0 0016.495 4.633c18.055 0 32.694-14.639 32.694-32.694 0-18.055-14.64-32.694-32.694-32.694-18.056 0-32.694 14.639-32.694 32.694a32.244 32.244 0 004.633 16.503L319.94 208.84l5.908 4.904 5.658 6.654zm102.884-98.102c0-9.028-7.32-16.347-16.347-16.347-9.028 0-16.347 7.32-16.347 16.347 0 9.027 7.32 16.347 16.347 16.347 9.027 0 16.347-7.32 16.347-16.347zM317.46 277.087l71.42 68.637a32.303 32.303 0 00-4.315 16.582c.349 18.051 15.268 32.405 33.32 32.057 18.052-.349 32.405-15.268 32.057-33.32-.349-18.052-15.268-32.405-33.32-32.057a32.244 32.244 0 00-16.41 4.951L328.793 265.3l-5.194 7.443-6.139 4.344zm100.11 100.931c9.026-.174 16.203-7.633 16.029-16.66-.175-9.025-7.634-16.202-16.66-16.028-9.026.175-16.203 7.634-16.029 16.66.175 9.026 7.634 16.203 16.66 16.028zm32.16-168.596c-15.001.056-28.078 10.224-31.828 24.75h-81.5v16.501h81.5c4.314 16.565 20.597 27.063 37.464 24.159 16.871-2.905 28.703-18.241 27.237-35.298-1.47-17.052-15.755-30.136-32.872-30.112zm-16.5 33c0 9.113 7.388 16.501 16.5 16.501 9.113 0 16.501-7.388 16.501-16.5 0-9.113-7.388-16.5-16.5-16.5-9.113 0-16.5 7.387-16.5 16.5z" clip-rule="evenodd" fill="#2F5373" fill-rule="evenodd"/><circle transform="translate(296.543 242) scale(1.09372)" fill="#F2F1EC" r="36.443"/><g clip-rule="evenodd" fill="#2F5373" fill-rule="evenodd"><path d="M337.5 234.272a40.2 40.2 0 00-5.925-14.19l-11.455-11.447c-16.898-11.206-39.48-8.178-52.832 7.08-13.352 15.261-13.352 38.044 0 53.306 13.353 15.257 35.934 18.285 52.832 7.079l11.447-11.447a40.138 40.138 0 005.933-14.19v-16.19zm-63.95 8.096c0 13.411 10.873 24.285 24.285 24.285 13.411 0 24.285-10.874 24.285-24.285 0-13.412-10.874-24.286-24.285-24.286-13.412 0-24.286 10.874-24.286 24.286z"/><path d="M258.414 250.463a40.198 40.198 0 005.925 14.19l11.455 11.447c16.897 11.206 39.48 8.178 52.831-7.08 13.352-15.26 13.352-38.044 0-53.305-13.352-15.258-35.934-18.286-52.831-7.08l-11.447 11.447a40.142 40.142 0 00-5.933 14.19v16.19zm63.95-8.095c0-13.412-10.874-24.286-24.285-24.286-13.412 0-24.286 10.874-24.286 24.286 0 13.411 10.874 24.285 24.286 24.285 13.411 0 24.285-10.874 24.285-24.285z"/></g></svg>