<svg xmlns="http://www.w3.org/2000/svg" viewBox="0 0 66 66" shape-rendering="geometricPrecision" text-rendering="geometricPrecision"><g fill="#2F5373"><path d="M19 44c1.654 0 3-1.346 3-3s-1.346-3-3-3-3 1.346-3 3 1.346 3 3 3zm0-4a1.001 1.001 0 010 2 1.001 1.001 0 010-2zm-1-4h2c1.103 0 2-.897 2-2V24c0-1.103-.897-2-2-2h-2c-1.103 0-2 .897-2 2v10c0 1.103.897 2 2 2zm0-12h2l.001 10H18z"/><path d="M56 16V6c0-2.206-1.794-4-4-4H13c-2.757 0-5 2.243-5 5v11H6c-2.206 0-4 1.794-4 4v22c0 2.206 1.794 4 4 4h2v11c0 2.757 2.243 5 5 5h46c2.757 0 5-2.243 5-5V16h-8zM4 44V22c0-1.103.897-2 2-2h26c1.103 0 2 .897 2 2v22c0 1.103-.897 2-2 2H21.22l-1.947 7.787c-.062.251-.482.251-.545 0L16.78 46H6c-1.103 0-2-.897-2-2zm26 4h2c1.474 0 2.75-.81 3.444-2H48v10H30zm2-30h-4v-8h20v12H36c0-2.206-1.794-4-4-4zM10 59V48h5.22l1.568 6.272A2.276 2.276 0 0019 56c1.048 0 1.958-.71 2.212-1.728L22.78 48H28v10h22V44H36v-2h6v-2h-6v-2h14v-2H36v-2h6v-2h-6v-2h14v-2H36v-4h14V8H26v10H10V7c0-1.654 1.346-3 3-3h39c1.103 0 2 .897 2 2v53c0 1.13.391 2.162 1.026 3H13c-1.654 0-3-1.346-3-3zm52 0c0 1.654-1.346 3-3 3s-3-1.346-3-3V18h2v38h2V18h2z"/><path d="M44 32h6v2h-6zm0 8h6v2h-6z"/></g><rect width="9.424" height="34.892" rx="0" ry="0" transform="translate(-1.424 16)" fill="#F2F1EC"/><rect width="16" height="40" rx="0" ry="0" transform="translate(10 16)" fill="#F2F1EC"/><rect width="12.662" height="30" rx="0" ry="0" transform="matrix(1 0 0 1.07456 23.338 16.882)" fill="#F2F1EC"/><path d="M32 32h6v2h-6zm0 4h6v2h-6zm-.44 4h6v2h-6zm-2.705 4h8.29v2h-8.29z" fill="#2F5373"/><path d="M30 44v6h-2v-6zM10 18.068v33.864H8V18.068zm18-3.129v8.122h-2V14.94zM29 28h6v2h-6z" fill="#2F5373"/><path d="M26.008 22H39.33v2H26.008z" fill="#2F5373"/><path d="M6.212 18.134h25.816A3.976 3.976 0 0136 22.106V43.95c-.06.483-.255 1.558-.552 1.985-.69 1.182-1.956 1.986-3.42 1.986h-9.155l-1.557 6.228a2.26 2.26 0 01-2.196 1.716 2.26 2.26 0 01-2.196-1.716l-1.557-6.228H6.212A3.976 3.976 0 012.24 43.95V22.106a3.976 3.976 0 013.972-3.972z" fill="#2F5373"/><path d="M4.226 22.106V43.95c0 1.095.89 1.985 1.986 1.985h10.704l1.934 7.733c.062.249.48.249.541 0l1.933-7.733h10.704c1.095 0 1.986-.89 1.986-1.985V22.106c0-1.095-.89-1.986-1.986-1.986H6.212c-1.096 0-1.986.89-1.986 1.986z" fill="#F2F1EC"/><path d="M19.12 28.23a2.982 2.982 0 002.979-2.98 2.982 2.982 0 00-2.98-2.978 2.982 2.982 0 00-2.978 2.978 2.982 2.982 0 002.979 2.98zm0-3.973a.994.994 0 010 1.986.994.994 0 010-1.986zm-.993 20.029h1.986a1.988 1.988 0 001.986-1.986v-9.93c0-1.095-.89-1.985-1.986-1.985h-1.986c-1.095 0-1.986.89-1.986 1.985v9.93c0 1.095.89 1.986 1.986 1.986zm0-11.916h1.986v9.93h-1.986v-9.93z" fill="#2F5373"/></svg>