<svg id="eeyZt0uXok71" xmlns="http://www.w3.org/2000/svg" xmlns:xlink="http://www.w3.org/1999/xlink" viewBox="0 0 66 66" shape-rendering="geometricPrecision" text-rendering="geometricPrecision"><g id="eeyZt0uXok72" transform="matrix(1 0 0 1 1 1)"><path id="eeyZt0uXok73" d="M18,43C19.654,43,21,41.654,21,40C21,38.346,19.654,37,18,37C16.346,37,15,38.346,15,40C15,41.654,16.346,43,18,43ZM18,39C18.552,39,19,39.449,19,40C19,40.551,18.552,41,18,41C17.448,41,17,40.551,17,40C17,39.449,17.448,39,18,39Z" fill="rgb(47,83,115)" stroke="none" stroke-width="1"/><path id="eeyZt0uXok74" d="M17,35L19,35C20.103,35,21,34.103,21,33L21,23C21,21.897,20.103,21,19,21L17,21C15.897,21,15,21.897,15,23L15,33C15,34.103,15.897,35,17,35ZM17,23L19,23L19.001,33L17,33Z" fill="rgb(47,83,115)" stroke="none" stroke-width="1"/><path id="eeyZt0uXok75" d="M55,15L55,5C55,2.794,53.206,1,51,1L12,1C9.243,1,7,3.243,7,6L7,17L5,17C2.794,17,1,18.794,1,21L1,43C1,45.206,2.794,47,5,47L7,47L7,58C7,60.757,9.243,63,12,63L58,63C60.757,63,63,60.757,63,58L63,15L55,15ZM3,43L3,21C3,19.897,3.897,19,5,19L31,19C32.103,19,33,19.897,33,21L33,43C33,44.103,32.103,45,31,45L20.22,45L18.273,52.787C18.211,53.038,17.791,53.038,17.728,52.787L15.78,45L5,45C3.897,45,3,44.103,3,43ZM29,47L31,47C32.474,47,33.75,46.19,34.444,45L47,45L47,55L29,55ZM31,17L27,17L27,9L47,9L47,21L35,21C35,18.794,33.206,17,31,17ZM9,58L9,47L14.22,47L15.788,53.272C16.042,54.29,16.952,55,18,55C19.048,55,19.958,54.29,20.212,53.272L21.78,47L27,47L27,57L49,57L49,43L35,43L35,41L41,41L41,39L35,39L35,37L49,37L49,35L35,35L35,33L41,33L41,31L35,31L35,29L49,29L49,27L35,27L35,23L49,23L49,7L25,7L25,17L9,17L9,6C9,4.346,10.346,3,12,3L51,3C52.103,3,53,3.897,53,5L53,58C53,59.13,53.391,60.162,54.026,61L12,61C10.346,61,9,59.654,9,58ZM61,58C61,59.654,59.654,61,58,61C56.346,61,55,59.654,55,58L55,17L57,17L57,55L59,55L59,17L61,17Z" fill="rgb(47,83,115)" stroke="none" stroke-width="1"/><path id="eeyZt0uXok76" d="M43,31L49,31L49,33L43,33Z" fill="rgb(47,83,115)" stroke="none" stroke-width="1"/><path id="eeyZt0uXok77" d="M43,39L49,39L49,41L43,41Z" fill="rgb(47,83,115)" stroke="none" stroke-width="1"/></g><rect id="eeyZt0uXok78" width="9.42371" height="34.891875" rx="0" ry="0" transform="matrix(1 0 0 1 -1.42371 16.000001)" fill="rgb(242,241,236)" stroke="none" stroke-width="0"/><rect id="eeyZt0uXok79" width="16" height="40" rx="0" ry="0" transform="matrix(1 0 0 1 10 16)" fill="rgb(242,241,236)" stroke="none" stroke-width="0"/><rect id="eeyZt0uXok710" width="12.662171" height="30" rx="0" ry="0" transform="matrix(1 0 0 1.07456 23.33783 16.8816)" fill="rgb(242,241,236)" stroke="none" stroke-width="0"/><path id="eeyZt0uXok711" d="M43,31L49,31L49,33L43,33Z" transform="matrix(1 0 0 1 -10.999999 1)" fill="rgb(47,83,115)" stroke="none" stroke-width="1"/><path id="eeyZt0uXok712" d="M43,31L49,31L49,33L43,33Z" transform="matrix(1 0 0 1 -10.999999 5)" fill="rgb(47,83,115)" stroke="none" stroke-width="1"/><path id="eeyZt0uXok713" d="M43,31L49,31L49,33L43,33Z" transform="matrix(1 0 0 1 -11.439822 9)" fill="rgb(47,83,115)" stroke="none" stroke-width="1"/><path id="eeyZt0uXok714" d="M43,31L49,31L49,33L43,33Z" transform="matrix(1.381612 0 0 1 -30.554151 13)" fill="rgb(47,83,115)" stroke="none" stroke-width="1"/><path id="eeyZt0uXok715" d="M43,31L49,31L49,33L43,33Z" transform="matrix(0 1 -1 0 60.999999 0.999999)" fill="rgb(47,83,115)" stroke="none" stroke-width="1"/><path id="eeyZt0uXok716" d="M43,31L49,31L49,33L43,33Z" transform="matrix(0 5.644118 -1 0 40.999991 -224.629429)" fill="rgb(47,83,115)" stroke="none" stroke-width="1"/><path id="eeyZt0uXok717" d="M43,31L49,31L49,33L43,33Z" transform="matrix(0 1.35369 -1 0 58.999999 -43.269741)" fill="rgb(47,83,115)" stroke="none" stroke-width="1"/><path id="eeyZt0uXok718" d="M43,31L49,31L49,33L43,33Z" transform="matrix(1 0 0 1 -14.000004 -3)" fill="rgb(47,83,115)" stroke="none" stroke-width="1"/><path id="eeyZt0uXok719" d="M43,31L49,31L49,33L43,33Z" transform="matrix(2.220376 0 0 1 -69.468381 -9)" fill="rgb(47,83,115)" stroke="none" stroke-width="1"/><g id="eeyZt0uXok720" transform="matrix(0.27872 0 0 0.27872 1.984733 17.97729)"><path id="eeyZt0uXok721" d="M15.1655,0.5625L22.2905,0.5625L29.4155,0.5625L86.4155,0.5625L93.5405,0.5625L107.791,0.5625C115.649,0.5625,122.041,6.95362,122.041,14.8125L122.041,21.9375L122.041,36.1875L122.041,43.3125L122.041,50.4375L122.041,57.5625L122.041,64.6875L122.041,71.8125L122.041,78.9375L122.041,86.0625L122.041,93.1875C121.825,94.9234,121.127,98.7786,120.06,100.312C117.587,104.552,113.042,107.438,107.791,107.438L100.666,107.438L93.5405,107.438L74.9443,107.438L69.3583,129.781C68.4534,133.408,65.2115,135.938,61.478,135.938C57.7445,135.938,54.5027,133.408,53.5978,129.781L48.0118,107.438L29.4155,107.438L22.2905,107.438L15.1655,107.438C7.30665,107.438,0.915527,101.046,0.915527,93.1875L0.915527,14.8125C0.915527,6.95362,7.30665,0.5625,15.1655,0.5625Z" fill="rgb(47,83,115)" stroke="none" stroke-width="1"/><path id="eeyZt0uXok722" d="M8.04053,14.8125L8.04053,93.1875C8.04053,97.1169,11.2361,100.312,15.1655,100.312L53.5693,100.312L60.509,128.054C60.7335,128.948,62.2297,128.948,62.4506,128.054L69.3868,100.312L107.791,100.312C111.72,100.312,114.916,97.1169,114.916,93.1875L114.916,14.8125C114.916,10.8831,111.72,7.6875,107.791,7.6875L15.1655,7.6875C11.2361,7.6875,8.04053,10.8831,8.04053,14.8125Z" fill="rgb(242,241,236)" stroke="none" stroke-width="1"/><path id="eeyZt0uXok723" d="M61.478,94.1875C67.3704,94.1875,72.1655,89.3924,72.1655,83.5C72.1655,77.6076,67.3704,72.8125,61.478,72.8125C55.5857,72.8125,50.7905,77.6076,50.7905,83.5C50.7905,89.3924,55.5857,94.1875,61.478,94.1875ZM61.478,79.9375C63.4445,79.9375,65.0405,81.5371,65.0405,83.5C65.0405,85.4629,63.4445,87.0625,61.478,87.0625C59.5115,87.0625,57.9155,85.4629,57.9155,83.5C57.9155,81.5371,59.5115,79.9375,61.478,79.9375Z" transform="matrix(1 0 0 1 0 -57.405281)" fill="rgb(47,83,115)" stroke="none" stroke-width="1"/><path id="eeyZt0uXok724" d="M57.9155,65.6875L65.0405,65.6875C68.97,65.6875,72.1655,62.4919,72.1655,58.5625L72.1655,22.9375C72.1655,19.0081,68.97,15.8125,65.0405,15.8125L57.9155,15.8125C53.9861,15.8125,50.7905,19.0081,50.7905,22.9375L50.7905,58.5625C50.7905,62.4919,53.9861,65.6875,57.9155,65.6875ZM57.9155,22.9375L65.0405,22.9375L65.0441,58.5625L57.9155,58.5625L57.9155,22.9375Z" transform="matrix(1 0 0 1 0 28.702641)" fill="rgb(47,83,115)" stroke="none" stroke-width="1"/></g></svg>