<?xml version="1.0"?>
<svg xmlns="http://www.w3.org/2000/svg" xmlns:xlink="http://www.w3.org/1999/xlink" xmlns:svgjs="http://svgjs.com/svgjs" version="1.1" width="512" height="512" x="0" y="0" viewBox="0 0 511.903 511.903" style="enable-background:new 0 0 512 512" xml:space="preserve" class=""><g><g xmlns="http://www.w3.org/2000/svg"><g><path d="m509.707 433.39-24.859-24.859c-2.93-2.928-7.678-2.928-10.607 0-2.929 2.93-2.929 7.678 0 10.607l24.859 24.859c1.465 1.464 3.385 2.196 5.304 2.196s3.839-.732 5.304-2.196c2.928-2.93 2.928-7.678-.001-10.607z" fill="#2f5373" data-original="#000000" style=""/><path d="m437.317 361c-2.93-2.928-7.678-2.928-10.607 0l-7.838 7.838-28.816-28.816 7.838-7.838c2.929-2.93 2.929-7.678 0-10.607l-35.134-35.135c4.209-7.659 7.911-15.619 11.072-23.869 9.392-24.508 13.653-50.286 12.666-76.62-.156-4.138-3.632-7.342-7.776-7.214-4.139.155-7.369 3.637-7.214 7.776 1.855 49.467-17.142 97.898-52.118 132.875-34.778 34.774-80.446 52.159-126.126 52.154-45.669-.004-91.353-17.389-126.117-52.153-69.539-69.549-69.54-182.705 0-252.243 69.54-69.539 182.697-69.538 252.243 0 23.769 23.768 40.274 53.562 47.733 86.159.924 4.037 4.948 6.562 8.983 5.639 4.038-.925 6.562-4.946 5.639-8.984-8.089-35.352-25.983-67.655-51.749-93.421-75.396-75.387-198.069-75.387-273.456 0-75.387 75.388-75.387 198.06 0 273.457 37.698 37.698 87.202 56.545 136.724 56.54 32.12-.003 64.244-7.947 93.143-23.811l35.169 35.168c1.465 1.464 3.385 2.196 5.304 2.196s3.839-.732 5.304-2.196l7.838-7.838 28.816 28.816-7.838 7.837c-2.929 2.93-2.929 7.678 0 10.607l72.39 72.39c1.465 1.464 3.385 2.196 5.304 2.196s3.839-.732 5.304-2.196c2.929-2.93 2.929-7.678 0-10.607l-67.087-67.086 55.104-55.104 17.486 17.487c2.93 2.928 7.678 2.928 10.607 0 2.929-2.93 2.929-7.678 0-10.607zm-110.437 20.984-27.228-27.228c10.732-7.073 20.91-15.326 30.345-24.76 9.355-9.355 17.622-19.493 24.777-30.328l27.211 27.211zm23.749-2.535 28.819-28.819 28.816 28.816-28.819 28.819z" fill="#2f5373" data-original="#000000" style=""/><path d="m70.405 252.825c-3.622 2.01-4.929 6.575-2.919 10.197 6.467 11.656 14.578 22.397 24.104 31.924 27.156 27.161 63.265 42.12 101.675 42.12s74.521-14.958 101.683-42.119 42.119-63.273 42.119-101.683-14.959-74.519-42.119-101.675c-27.161-27.161-63.273-42.119-101.683-42.119s-74.519 14.96-101.674 42.12c-17.949 17.943-30.852 40.325-37.315 64.724-6.27 23.67-6.395 48.726-.361 72.458 1.021 4.014 5.101 6.443 9.116 5.421 4.015-1.021 6.442-5.102 5.421-9.116-11.146-43.844 1.784-90.928 33.745-122.88 24.323-24.328 56.665-37.726 91.067-37.726 34.403 0 66.748 13.398 91.076 37.727 24.328 24.323 37.726 56.665 37.726 91.067 0 34.403-13.398 66.747-37.727 91.075-24.327 24.328-56.672 37.727-91.075 37.727-34.402 0-66.744-13.397-91.068-37.727-8.54-8.539-15.806-18.16-21.595-28.595-2.009-3.622-6.575-4.927-10.196-2.92z" fill="#2f5373" data-original="#000000" style=""/><path d="m146.44 193.267c0 25.82 21.006 46.827 46.827 46.827s46.827-21.007 46.827-46.827-21.006-46.827-46.827-46.827-46.827 21.006-46.827 46.827zm78.654 0c0 17.55-14.278 31.827-31.827 31.827s-31.827-14.277-31.827-31.827 14.277-31.827 31.827-31.827 31.827 14.277 31.827 31.827z" fill="#2f5373" data-original="#000000" style=""/><path d="m178.764 193.267c0 7.997 6.506 14.504 14.503 14.504 7.998 0 14.504-6.507 14.504-14.504s-6.506-14.504-14.504-14.504-14.503 6.507-14.503 14.504z" fill="#2f5373" data-original="#000000" style=""/><path d="m193.266 81.793c-4.142 0-7.5 3.357-7.5 7.5v25.188c-37.667 3.558-67.726 33.618-71.285 71.285h-25.188c-4.142 0-7.5 3.357-7.5 7.5s3.358 7.5 7.5 7.5h25.188c3.558 37.667 33.617 67.727 71.285 71.285v25.189c0 4.143 3.358 7.5 7.5 7.5s7.5-3.357 7.5-7.5v-25.189c37.668-3.558 67.727-33.618 71.285-71.285h25.189c4.143 0 7.5-3.357 7.5-7.5s-3.357-7.5-7.5-7.5h-25.189c-3.558-37.667-33.618-67.727-71.285-71.285v-25.188c0-4.143-3.357-7.5-7.5-7.5zm64.151 111.474c0 35.373-28.778 64.15-64.15 64.15s-64.15-28.777-64.15-64.15 28.777-64.15 64.15-64.15 64.15 28.777 64.15 64.15z" fill="#2f5373" data-original="#000000" style=""/></g></g></g></svg>
