<svg xmlns="http://www.w3.org/2000/svg" width="512" height="512" viewBox="0 0 511.903 511.903"><g fill="#2f5373" xmlns="http://www.w3.org/2000/svg"><path d="M509.707 433.39l-24.859-24.859a7.5 7.5 0 00-10.607 10.607l24.859 24.859c1.465 1.464 3.385 2.196 5.304 2.196s3.839-.732 5.304-2.196a7.501 7.501 0 00-.001-10.607zM437.317 361a7.502 7.502 0 00-10.607 0l-7.838 7.838-28.816-28.816 7.838-7.838a7.5 7.5 0 000-10.607l-35.134-35.135a192.632 192.632 0 0011.072-23.869c9.392-24.508 13.653-50.286 12.666-76.62-.156-4.138-3.632-7.342-7.776-7.214a7.5 7.5 0 00-7.214 7.776c1.855 49.467-17.142 97.898-52.118 132.875-34.778 34.774-80.446 52.159-126.126 52.154-45.669-.004-91.353-17.389-126.117-52.153-69.539-69.549-69.54-182.705 0-252.243 69.54-69.539 182.697-69.538 252.243 0 23.769 23.768 40.274 53.562 47.733 86.159a7.502 7.502 0 008.983 5.639 7.502 7.502 0 005.639-8.984c-8.089-35.352-25.983-67.655-51.749-93.421-75.396-75.387-198.069-75.387-273.456 0-75.387 75.388-75.387 198.06 0 273.457 37.698 37.698 87.202 56.545 136.724 56.54 32.12-.003 64.244-7.947 93.143-23.811l35.169 35.168c1.465 1.464 3.385 2.196 5.304 2.196s3.839-.732 5.304-2.196l7.838-7.838 28.816 28.816L361 426.71a7.5 7.5 0 000 10.607l72.39 72.39c1.465 1.464 3.385 2.196 5.304 2.196s3.839-.732 5.304-2.196a7.5 7.5 0 000-10.607l-67.087-67.086 55.104-55.104 17.486 17.487a7.5 7.5 0 0010.607-10.607zM326.88 381.984l-27.228-27.228a193.473 193.473 0 0030.345-24.76 194.132 194.132 0 0024.777-30.328l27.211 27.211zm23.749-2.535l28.819-28.819 28.816 28.816-28.819 28.819z" data-original="#000000"/><path d="M70.405 252.825a7.5 7.5 0 00-2.919 10.197c6.467 11.656 14.578 22.397 24.104 31.924 27.156 27.161 63.265 42.12 101.675 42.12s74.521-14.958 101.683-42.119 42.119-63.273 42.119-101.683-14.959-74.519-42.119-101.675C267.787 64.428 231.675 49.47 193.265 49.47S118.746 64.43 91.591 91.59c-17.949 17.943-30.852 40.325-37.315 64.724a144.543 144.543 0 00-.361 72.458 7.499 7.499 0 009.116 5.421 7.499 7.499 0 005.421-9.116c-11.146-43.844 1.784-90.928 33.745-122.88 24.323-24.328 56.665-37.726 91.067-37.726 34.403 0 66.748 13.398 91.076 37.727 24.328 24.323 37.726 56.665 37.726 91.067 0 34.403-13.398 66.747-37.727 91.075-24.327 24.328-56.672 37.727-91.075 37.727-34.402 0-66.744-13.397-91.068-37.727-8.54-8.539-15.806-18.16-21.595-28.595a7.501 7.501 0 00-10.196-2.92z" data-original="#000000"/><path d="M146.44 193.267c0 25.82 21.006 46.827 46.827 46.827s46.827-21.007 46.827-46.827-21.006-46.827-46.827-46.827-46.827 21.006-46.827 46.827zm78.654 0c0 17.55-14.278 31.827-31.827 31.827s-31.827-14.277-31.827-31.827 14.277-31.827 31.827-31.827 31.827 14.277 31.827 31.827z" data-original="#000000"/><path d="M178.764 193.267c0 7.997 6.506 14.504 14.503 14.504 7.998 0 14.504-6.507 14.504-14.504s-6.506-14.504-14.504-14.504-14.503 6.507-14.503 14.504z" data-original="#000000"/><path d="M193.266 81.793a7.5 7.5 0 00-7.5 7.5v25.188c-37.667 3.558-67.726 33.618-71.285 71.285H89.293c-4.142 0-7.5 3.357-7.5 7.5s3.358 7.5 7.5 7.5h25.188c3.558 37.667 33.617 67.727 71.285 71.285v25.189c0 4.143 3.358 7.5 7.5 7.5s7.5-3.357 7.5-7.5v-25.189c37.668-3.558 67.727-33.618 71.285-71.285h25.189c4.143 0 7.5-3.357 7.5-7.5s-3.357-7.5-7.5-7.5h-25.189c-3.558-37.667-33.618-67.727-71.285-71.285V89.293c0-4.143-3.357-7.5-7.5-7.5zm64.151 111.474c0 35.373-28.778 64.15-64.15 64.15s-64.15-28.777-64.15-64.15 28.777-64.15 64.15-64.15 64.15 28.777 64.15 64.15z" data-original="#000000"/></g></svg>