<svg xmlns="http://www.w3.org/2000/svg" viewBox="0 0 65 64" shape-rendering="geometricPrecision" text-rendering="geometricPrecision"><g transform="translate(0 -2)"><path d="M60.16 41.778a1.919 1.919 0 01.409-2.103l1.455-1.456-4.244-4.244-1.457 1.456c-.551.552-1.377.712-2.141.392A1.906 1.906 0 0153 34.055V32h-2.051a17.716 17.716 0 00-.886-4.649l11.572-11.572A8.02 8.02 0 0064 10.071C64 5.621 60.379 2 55.929 2c-2.156 0-4.183.84-5.707 2.364l-11.56 11.561a17.764 17.764 0 00-4.717-.881C32.565 12.633 29.972 11 27 11c-.761 0-1.495.114-2.194.313C23.08 8.068 19.727 6 16 6 10.486 6 6 10.486 6 16c0 .766.094 1.52.265 2.258A6.009 6.009 0 002 24c0 3.309 2.691 6 6 6h7.254A18.132 18.132 0 0015 33c0 2.201.407 3.992 1.064 5.522l-8.921 8.922L2.179 60.35a2.69 2.69 0 003.472 3.471l12.906-4.964 6.523-6.524c-.049.215-.08.437-.08.667 0 .771.301 1.468.78 2a2.976 2.976 0 00-.78 2c0 1.39.955 2.552 2.24 2.89A6.098 6.098 0 0033 64a6.098 6.098 0 005.76-4.11A2.996 2.996 0 0041 57c0-.075-.995-1.773-1-1.846l2.22 2.87 1.457-1.456c.551-.552 1.374-.713 2.14-.394A1.914 1.914 0 0147 57.945V60h6v-2.055c0-.778.465-1.473 1.222-1.786a1.917 1.917 0 012.102.409l1.456 1.456 4.244-4.244-1.455-1.456c-.551-.552-.712-1.377-.393-2.141A1.909 1.909 0 0161.945 49H64v-6h-2.055c-.778 0-1.472-.465-1.785-1.222zm-14.984 2.948c1.091-1.065 2.184-2.153 3.127-3.411A4.941 4.941 0 0150 41c2.757 0 5 2.243 5 5s-2.243 5-5 5-5-2.243-5-5c0-.433.067-.859.176-1.274zm1.201-23.688L51 16.414 54.586 20l-5.341 5.341a18.148 18.148 0 00-2.868-4.303zM47.414 10L49 8.414 57.586 17 56 18.586zm8.515-6A6.079 6.079 0 0162 10.071a6.032 6.032 0 01-1.778 4.293L59 15.586 50.414 7l1.222-1.222A6.034 6.034 0 0155.929 4zM46 11.414L49.586 15l-4.621 4.621a18.128 18.128 0 00-4.301-2.871zM49 33c0 5.203-2.62 7.759-5.394 10.464-1.91 1.863-3.872 3.789-5.014 6.596A2.957 2.957 0 0038 50h-4v-5c0-1.654-1.346-3-3-3h-2a1.001 1.001 0 010-2h10c1.654 0 3-1.346 3-3s-1.346-3-3-3h-8c-.551 0-1-.448-1-1v-3h5c2.757 0 5-2.243 5-5s-2.243-5-5-5c-.028 0-.054.008-.082.008.043-.334.082-.668.082-1.008a8.01 8.01 0 00-.236-1.896C42.736 17.992 49 24.834 49 33zM27 53c0-.552.449-1 1-1h10a1.001 1.001 0 010 2H28c-.551 0-1-.448-1-1zm-12.586 0l7.351-7.351c1.23 1.22 2.372 2.454 3.214 3.957L18 56.586zM4 24c0-2.206 1.794-4 4-4s4 1.794 4 4h2c0-3.222-2.555-5.852-5.744-5.987A7.993 7.993 0 018 16c0-4.411 3.589-8 8-8a7.975 7.975 0 016.969 4.101 8.006 8.006 0 00-3.919 6.025C17.304 18.556 16 20.123 16 22h2c0-1.103.897-2 2-2s2 .897 2 2h2c0-1.835-1.248-3.368-2.935-3.838C21.475 15.25 23.976 13 27 13c3.309 0 6 2.691 6 6 0 .526-.086 1.041-.22 1.543C31.14 21.364 30 23.044 30 25h2c0-1.654 1.346-3 3-3s3 1.346 3 3-1.346 3-3 3H8c-2.206 0-4-1.794-4-4zm24 6v3c0 1.654 1.346 3 3 3h8a1.001 1.001 0 010 2H29c-1.654 0-3 1.346-3 3s1.346 3 3 3h2c.551 0 1 .448 1 1v5h-4c-.203 0-.401.021-.592.06-1.142-2.807-3.104-4.733-5.014-6.596C19.62 40.759 17 38.203 17 33c0-1.011.121-2.013.308-3zm-7.663 14.249L13 51.586 9.414 48l7.63-7.63c.939 1.474 2.103 2.704 3.293 3.879zM8.381 49.795l7.824 7.824-6.624 2.548-3.748-3.748zM4.934 61.954c-.433.168-.934-.177-.934-.641 0-.085.016-.168.045-.246l1.002-2.606 2.491 2.491zM33 62a4.109 4.109 0 01-3.524-2h7.048A4.109 4.109 0 0133 62zm5-4H28a1.001 1.001 0 010-2h10a1.001 1.001 0 010 2zm24-11h-.055c-1.591 0-3.011.95-3.631 2.452a3.912 3.912 0 00.84 4.286l.042.042-1.416 1.416-.042-.042c-1.128-1.128-2.812-1.459-4.319-.827A3.903 3.903 0 0051 57.945V58h-2v-.055c0-1.591-.95-3.011-2.452-3.632a3.909 3.909 0 00-4.287.841l-.042.042L40 55.154c.08-.269 1-1.86 1-2.154 0-.71-.258-1.354-.672-1.869.622-1.679 1.597-3.022 2.732-4.262C43.49 50.319 46.435 53 50 53c3.86 0 7-3.141 7-7s-3.14-7-7-7c-.098 0-.193.01-.29.014.677-1.405 1.142-3.034 1.259-5.014H51v.055c0 1.591.95 3.012 2.451 3.631a3.907 3.907 0 004.287-.84l.042-.042 1.416 1.416-.042.042c-1.126 1.127-1.456 2.81-.827 4.318A3.902 3.902 0 0061.945 45H62z" fill="#2F5373"/><rect width="14" height="31.954" rx="0" ry="0" transform="translate(51 30)" fill="#F2F1EC"/><rect width="9.774" height="14.083" rx="0" ry="0" transform="matrix(1.30136 0 0 1.12904 42.204 48.1)" fill="#F2F1EC"/><rect width="7.586" height="10" rx="0" ry="0" transform="rotate(38.719 -26.223 92.477)" fill="#F2F1EC"/><rect width="7.586" height="10" rx="0" ry="0" transform="matrix(.74884 .66275 -.73095 .8259 49.768 39.357)" fill="#F2F1EC"/><path fill="#F2F1EC" stroke="#F2F1EC" stroke-width=".64" d="M50.2 38.678l-1.414 2.794"/><path fill="#F2F1EC" d="M43.057 47.139l.632-.476"/><path d="M40.978 53Q41 54.313 40 55.154V53q.956-1.313.978 0z" fill="#2F5373" stroke="#2F5373" stroke-width=".128"/><ellipse rx="1.803" ry=".502" transform="matrix(1.14007 0 0 .5948 42.056 55.24)" fill="#F2F1EC"/><ellipse rx="1.803" ry=".502" transform="matrix(.45846 .44763 -.62486 .63997 41.009 55.954)" fill="#F2F1EC"/><ellipse rx="1.197" ry="1.352" transform="translate(42.204 56.891)" fill="#F2F1EC"/><ellipse rx="1.197" ry="1.352" transform="translate(41.86 55.73)" fill="#F2F1EC"/><path d="M40 56.568c.381.631.978.515.978.515Q41 55.566 40 55.196s-.213 1.02 0 1.372z" fill="#2F5373" stroke="#2F5373" stroke-width=".128"/></g><path d="M50.052 62.578l.002-.001 1.016-3.012a.809.809 0 011.491-.1l1.41 2.848c.2.4.684.564 1.085.366l4.349-2.153a.809.809 0 00.366-1.084l-1.411-2.848a.809.809 0 01.984-1.128l3.011 1.017a.809.809 0 001.025-.507v-.001l1.552-4.595a.809.809 0 00-.507-1.026l-3.011-1.017a.809.809 0 01-.1-1.49l2.848-1.41a.809.809 0 00.366-1.084l-1.35-2.723-1.19-1.987a.881.881 0 00-.082-.047.809.809 0 00-.617.042l-2.848 1.41a.792.792 0 01-.891-.116.804.804 0 01-.235-.867l1.017-3.01a.809.809 0 00-.507-1.026h-.001l-4.597-1.553a.809.809 0 00-1.026.507l-1.017 3.012a.809.809 0 01-1.491.1l-1.41-2.847a.809.809 0 00-1.084-.366l-4.349 2.153a.809.809 0 00-.366 1.084l1.41 2.848a.809.809 0 01-.983 1.125L39.9 42.076a.809.809 0 00-1.026.507l-1.553 4.598a.809.809 0 00.508 1.026l3.011 1.016a.809.809 0 01.1 1.491l-2.847 1.41a.809.809 0 00-.366 1.085l2.154 4.349c.198.4.683.564 1.083.365l2.848-1.41a.795.795 0 01.892.117.785.785 0 01.233.866l-1.016 3.011a.81.81 0 00.507 1.026l4.599 1.552a.809.809 0 001.025-.507zm-3.579-4.568l-.758 2.245 3.064 1.037.758-2.244a2.427 2.427 0 014.473-.3l1.052 2.123 2.9-1.436-1.052-2.123a2.426 2.426 0 012.95-3.376l2.246.758 1.034-3.065-2.245-.757a2.427 2.427 0 01-.3-4.474l2.123-1.052-1.435-2.9-2.126 1.056a2.426 2.426 0 01-3.375-2.951l.757-2.245-3.064-1.035-.758 2.245a2.427 2.427 0 01-4.474.3l-1.051-2.122-2.9 1.435 1.051 2.123a2.426 2.426 0 01-2.951 3.376l-2.245-.758-1.035 3.065 2.25.75a2.426 2.426 0 01.3 4.474l-2.123 1.052 1.436 2.9 2.122-1.051a2.426 2.426 0 013.376 2.95z" clip-rule="evenodd" fill="#2F5373" fill-rule="evenodd"/><path d="M51.127 43.336a5.944 5.944 0 105.944 5.945 5.95 5.95 0 00-5.944-5.945zm0 10.403a4.458 4.458 0 110-8.916 4.458 4.458 0 010 8.916z" fill="#355877"/><path d="M51.202 52.28c1.654 0 3-1.345 3-3 0-1.653-1.346-3-3-3s-3 1.347-3 3c0 1.655 1.346 3 3 3zm0-4a1.001 1.001 0 010 2 1.001 1.001 0 010-2z" fill="#2F5373"/><ellipse rx=".304" ry=".466" transform="rotate(-38.941 79.793 -11.045)" fill="#F2F1EC"/><rect width=".337" height=".715" rx="0" ry="0" transform="matrix(.6805 .6969 -1.72383 1.68325 20.155 42.057)" fill="#F2F1EC"/><rect width=".337" height=".715" rx="0" ry="0" transform="matrix(.69241 .68507 -1.17282 1.18538 16.93 38.272)" fill="#F2F1EC"/><rect width="1.031" height=".96" rx="0" ry="0" transform="matrix(1.17898 -.9837 .60362 .72344 23.407 48.349)" fill="#F2F1EC"/><rect width="1.205" height="1.985" rx="0" ry="0" transform="matrix(.89192 -.4522 .30137 .59442 15.369 37.589)" fill="#F2F1EC"/><rect width=".845" height="1.571" rx="0" ry="0" transform="rotate(-43.867 63.932 -3.535)" fill="#F2F1EC"/><rect width=".384" height=".643" rx="0" ry="0" transform="translate(24.616 50)" fill="#F2F1EC"/><rect width="2.182" height="2.279" rx="0" ry="0" transform="translate(22.969 48.03)" fill="#F2F1EC"/><ellipse rx=".239" ry=".269" transform="translate(24.855 50.322)" fill="#F2F1EC"/><rect width=".845" height="1.571" rx="0" ry="0" transform="rotate(-48.799 56.956 -.286)" fill="#F2F1EC"/><rect width="1.205" height="1.985" rx="0" ry="0" transform="rotate(-31.718 72.29 -7.73)" fill="#F2F1EC"/><g fill="#F2F1EC"><rect width="1.588" height=".566" rx="0" ry="0" transform="matrix(3.2606 1.14004 -.33005 .94396 36.8 12.73)"/><rect width="1.588" height=".566" rx="0" ry="0" transform="matrix(2.49497 2.38878 -.69157 .72231 44.24 16.17)"/><rect width="1.588" height=".566" rx="0" ry="0" transform="matrix(1.358 3.176 -.91947 .39315 48.95 21.476)"/></g><g transform="translate(0 -2)"><ellipse rx=".829" ry="3.003" transform="matrix(.70775 .70647 -1.07708 1.07902 44.031 42.15)" fill="#F2F1EC"/><ellipse rx=".829" ry="3.003" transform="matrix(.92645 .3764 -.22034 .54233 47.256 37.555)" fill="#F2F1EC"/><ellipse rx=".829" ry="3.003" transform="matrix(.96128 .27559 -.16132 .56271 47.77 36.238)" fill="#F2F1EC"/><ellipse rx=".829" ry="3.003" transform="matrix(.96128 .27559 -.16132 .56271 46.921 38.156)" fill="#F2F1EC"/><ellipse rx=".829" ry="3.003" transform="matrix(.86938 .49414 -.75337 1.32545 40.21 45.956)" fill="#F2F1EC"/><ellipse rx=".829" ry="3.003" transform="matrix(.7677 .6408 -.97697 1.17044 40.21 45.956)" fill="#F2F1EC"/><ellipse rx=".829" ry="3.003" transform="matrix(.7623 .64723 -.98676 1.1622 41.009 45.227)" fill="#F2F1EC"/><ellipse rx=".829" ry="3.003" transform="matrix(.69492 .71909 -1.09631 1.05947 41.507 44.69)" fill="#F2F1EC"/><ellipse rx=".829" ry="3.003" transform="matrix(.7974 .60346 -.92003 1.2157 40.695 45.546)" fill="#F2F1EC"/><ellipse rx=".829" ry="3.003" transform="matrix(.7974 .60346 -.92003 1.2157 39.633 44.69)" fill="#F2F1EC"/><ellipse rx=".829" ry="3.003" transform="matrix(.7974 .60346 -.92003 1.2157 38.972 44.122)" fill="#F2F1EC"/><ellipse rx=".829" ry="3.003" transform="matrix(.88826 .88665 -1.07708 1.07902 43.373 40.98)" fill="#F2F1EC"/><ellipse rx=".829" ry="3.003" transform="matrix(.86096 1.27923 -1.26481 .85126 43.34 40.31)" fill="#F2F1EC"/><ellipse rx=".829" ry="3.003" transform="matrix(.86096 1.27923 -1.26481 .85126 40.776 41.975)" fill="#F2F1EC"/><ellipse rx=".829" ry="3.003" transform="matrix(.86096 1.27923 -1.26481 .85126 43.573 38.91)" fill="#F2F1EC"/><path fill="#F2F1EC" stroke="#F2F1EC" stroke-width=".4" d="M38.386 49.878l.81-1.248"/><ellipse rx=".927" ry="1.675" transform="matrix(.75214 -.659 1.04279 1.19017 46.338 19.66)" fill="#F2F1EC"/><ellipse rx=".927" ry="1.675" transform="translate(50.696 26.11)" fill="#F2F1EC"/><ellipse rx=".927" ry="1.675" transform="translate(50.2 24.916)" fill="#F2F1EC"/><ellipse rx="6.323" ry="4.019" transform="translate(50.354 17.019)" fill="#F2F1EC"/><rect width="14.778" height="12.987" rx="0" ry="0" transform="translate(50.222 14.364)" fill="#F2F1EC"/><rect width="26.338" height="14.925" rx="0" ry="0" transform="translate(38.662 1)" fill="#F2F1EC"/><ellipse rx="2.78" ry="2.527" transform="translate(18.985 46.747)" fill="#F2F1EC"/><rect width="15.392" height="12.045" rx="0" ry="0" transform="translate(9.414 49.606)" fill="#F2F1EC"/><rect width="6.05" height="19.905" rx="0" ry="0" transform="translate(13 44.095)" fill="#F2F1EC"/><ellipse rx=".927" ry="1.675" transform="matrix(.46601 -.88478 1.40005 .7374 40.377 15.61)" fill="#F2F1EC"/><rect width="14.254" height="27.261" rx="0" ry="0" transform="translate(1 37.74)" fill="#F2F1EC"/><ellipse rx="2" ry="3.108" transform="translate(15 41.582)" fill="#F2F1EC"/><path fill="none" stroke="#F2F1EC" stroke-width=".64" d="M45.074 17.66l.428-.426"/><ellipse rx=".531" ry=".306" transform="translate(45.34 17.355)" fill="#F2F1EC"/><path fill="none" stroke="#F2F1EC" stroke-width=".64" d="M45.074 17.66l.428-.426"/></g><path d="M7.121 45.242l9.313-9.314 1.023 1.93-7.965 7.964 3.743 3.744 7.66-7.66 1.49 1.462-7.674 7.674 3.744 3.743 7.285-7.286.105 2.846-6.809 6.81-13.472 5.182a2.808 2.808 0 01-3.624-3.623l5.18-13.472zm1.292 2.454l8.168 8.167-6.915 2.66-3.912-3.912 2.66-6.915zM3.84 59.719c0 .485.523.845.975.67l2.718-1.046-2.6-2.6-1.046 2.72a.736.736 0 00-.047.256zm57.957-44.962L50.004 26.55l-.833-2.048 5.443-5.443-3.655-3.655-2.355 2.356-2.356 2.357-1.439-1.445 4.71-4.709-3.655-3.654-5.438 5.438-2.04-.841 11.78-11.782A8.172 8.172 0 0155.982.715c4.535 0 8.225 3.69 8.225 8.225a8.173 8.173 0 01-2.41 5.817zM55.982 2.753A6.195 6.195 0 0162.17 8.94a6.147 6.147 0 01-1.812 4.375l-1.245 1.246-8.75-8.75 1.245-1.246a6.15 6.15 0 014.375-1.812zm-7.061 4.499l-1.616 1.616 8.75 8.75L57.67 16l-8.75-8.75z" clip-rule="evenodd" fill="#2F5373" fill-rule="evenodd"/><rect width="1.824" height="2.321" rx="0" ry="0" transform="translate(36.687 45.681)" fill="#F2F1EC"/><rect width="15" height="24.876" rx="0" ry="0" transform="matrix(1 0 0 1.02502 0 2.813)" fill="#F2F1EC"/><rect width="9.256" height="10" rx="0" ry="0" transform="translate(31 18)" fill="#F2F1EC"/><rect width="5.764" height="9.446" rx="0" ry="0" transform="matrix(1 0 0 .97043 29.618 15.195)" fill="#F2F1EC"/><rect width="28.955" height="14.586" rx="0" ry="0" transform="matrix(.9416 0 0 1.73578 4.89 2.696)" fill="#F2F1EC"/><rect width="3.764" height=".458" rx="0" ry="0" transform="matrix(1.03235 0 0 1 30.94 15.104)" fill="#F2F1EC"/><rect width="14.95" height="3.376" rx="0" ry="0" transform="matrix(1 0 0 1.15578 21.26 9.151)" fill="#F2F1EC"/><path d="M34.217 12.784c-1.404-2.452-4.042-4.114-7.066-4.114-.774 0-1.52.116-2.232.319-1.756-3.302-5.167-5.405-8.958-5.405-5.61 0-10.174 4.563-10.174 10.173 0 .78.096 1.546.27 2.297a6.113 6.113 0 00-4.34 5.842A6.11 6.11 0 007.823 28H35.29a5.093 5.093 0 005.087-5.087 5.093 5.093 0 00-5.087-5.087c-.014 0-.028.003-.041.005a.283.283 0 01-.042.004c.044-.34.083-.68.083-1.026 0-.665-.09-1.31-.24-1.929l-.833-2.096zM7.822 17.826a4.074 4.074 0 00-4.07 4.07 4.074 4.074 0 004.07 4.07H35.29a3.056 3.056 0 003.052-3.053 3.056 3.056 0 00-3.052-3.052 3.056 3.056 0 00-3.052 3.052h-2.034c0-1.99 1.16-3.699 2.828-4.534.136-.51.224-1.035.224-1.57a6.11 6.11 0 00-6.105-6.104c-3.076 0-5.62 2.29-6.038 5.252 1.717.478 2.986 2.037 2.986 3.904h-2.034a2.037 2.037 0 00-2.035-2.035 2.037 2.037 0 00-2.035 2.035h-2.034c0-1.91 1.326-3.504 3.103-3.941a8.145 8.145 0 013.987-6.13 8.113 8.113 0 00-7.09-4.172c-4.488 0-8.14 3.652-8.14 8.14 0 .695.088 1.382.261 2.047 3.245.137 5.844 2.813 5.844 6.09H11.89a4.074 4.074 0 00-4.07-4.069z" clip-rule="evenodd" fill="#F2F1EC" fill-rule="evenodd"/><path d="M3.752 21.896a4.074 4.074 0 014.07-4.07 4.074 4.074 0 014.07 4.07h2.034c0-3.278-2.6-5.954-5.844-6.091a8.131 8.131 0 01-.26-2.048c0-4.487 3.651-8.139 8.139-8.139a8.113 8.113 0 017.09 4.172 8.145 8.145 0 00-3.987 6.13c-1.777.437-3.103 2.032-3.103 3.941h2.034c0-1.122.913-2.035 2.035-2.035s2.035.913 2.035 2.035h2.034c0-1.867-1.27-3.426-2.986-3.904.418-2.963 2.962-5.252 6.038-5.252a6.11 6.11 0 016.105 6.104c0 .535-.088 1.06-.224 1.57-1.669.835-2.828 2.544-2.828 4.534h2.034a3.056 3.056 0 013.052-3.052 3.056 3.056 0 013.052 3.052 3.056 3.056 0 01-3.052 3.052H7.822a4.074 4.074 0 01-4.07-4.07z" fill="#F2F1EC"/><path d="M34.217 12.784c-1.404-2.452-4.042-4.114-7.066-4.114-.774 0-1.52.116-2.232.319-1.756-3.302-5.167-5.405-8.958-5.405-5.61 0-10.174 4.563-10.174 10.173 0 .78.096 1.546.27 2.297a6.113 6.113 0 00-4.34 5.842A6.11 6.11 0 007.823 28H35.29a5.093 5.093 0 005.087-5.087 5.093 5.093 0 00-5.087-5.087c-.014 0-.028.003-.041.005a.283.283 0 01-.042.004c.044-.34.083-.68.083-1.026 0-.665-.09-1.31-.24-1.929l-.833-2.096zM7.822 17.826a4.074 4.074 0 00-4.07 4.07 4.074 4.074 0 004.07 4.07H35.29a3.056 3.056 0 003.052-3.053 3.056 3.056 0 00-3.052-3.052 3.056 3.056 0 00-3.052 3.052h-2.034c0-1.99 1.16-3.699 2.828-4.534.136-.51.224-1.035.224-1.57a6.11 6.11 0 00-6.105-6.104c-3.076 0-5.62 2.29-6.038 5.252 1.717.478 2.986 2.037 2.986 3.904h-2.034a2.037 2.037 0 00-2.035-2.035 2.037 2.037 0 00-2.035 2.035h-2.034c0-1.91 1.326-3.504 3.103-3.941a8.145 8.145 0 013.987-6.13 8.113 8.113 0 00-7.09-4.172c-4.488 0-8.14 3.652-8.14 8.14 0 .695.088 1.382.261 2.047 3.245.137 5.844 2.813 5.844 6.09H11.89a4.074 4.074 0 00-4.07-4.069z" clip-rule="evenodd" fill="#2F5373" fill-rule="evenodd"/><circle transform="matrix(1.06364 0 0 .89817 37.98 55.159)" fill="#F2F1EC" r=".943"/><circle transform="matrix(1.06364 0 0 .93985 37.947 54.916)" fill="#F2F1EC" r=".943"/><circle transform="matrix(1.06364 0 0 .93985 37.947 50.916)" fill="#F2F1EC" r=".943"/><circle transform="matrix(1.06364 0 0 .89817 37.98 51.159)" fill="#F2F1EC" r=".943"/><ellipse rx="1.11" ry="1.721" transform="matrix(.70647 0 0 1 25.784 50.566)" fill="#2F5373"/><rect width="2.217" height=".919" rx="0" ry="0" transform="translate(35.628 49.997)" fill="#F2F1EC"/><rect width="2.271" height="1.134" rx="0" ry="0" transform="translate(35.628 54)" fill="#F2F1EC"/></svg>