<svg id="eATl8jh0UGL1" xmlns="http://www.w3.org/2000/svg" xmlns:xlink="http://www.w3.org/1999/xlink" viewBox="0 0 65 64" shape-rendering="geometricPrecision" text-rendering="geometricPrecision"><g id="eATl8jh0UGL2" transform="matrix(1 0 0 1 0 -2)"><path id="eATl8jh0UGL3" d="M59.16,40.778C58.857,40.052,59.018,39.227,59.569,38.675L61.024,37.219L56.78,32.975L55.323,34.431C54.772,34.983,53.946,35.143,53.182,34.823C52.464,34.527,52,33.833,52,33.055L52,31L49.949,31C49.858,29.387,49.559,27.828,49.063,26.351L60.635,14.779C62.16,13.254,63,11.227,63,9.071C63,4.621,59.379,1,54.929,1C52.773,1,50.746,1.84,49.222,3.364L37.662,14.925C36.167,14.423,34.582,14.131,32.945,14.044C31.565,11.633,28.972,10,26,10C25.239,10,24.505,10.114,23.806,10.313C22.08,7.068,18.727,5,15,5C9.486,5,5,9.486,5,15C5,15.766,5.094,16.52,5.265,17.258C2.8,18.004,1,20.295,1,23C1,26.309,3.691,29,7,29L14.254,29C14.088,29.989,14,30.993,14,32C14,34.201,14.407,35.992,15.064,37.522L6.143,46.444L1.179,59.35C1.06,59.658,1,59.982,1,60.313C1,61.795,2.206,63,3.687,63C4.018,63,4.342,62.939,4.651,62.821L17.557,57.857L24.08,51.333C24.031,51.548,24,51.77,24,52C24,52.771,24.301,53.468,24.78,54C24.3,54.532,24,55.229,24,56C24,57.39,24.955,58.552,26.24,58.89C27.092,61.33,29.374,63,32,63C34.626,63,36.908,61.33,37.76,58.89C39.045,58.552,40,57.39,40,56C40,55.925,39.005,54.227,39,54.154L41.22,57.024L42.677,55.568C43.228,55.016,44.051,54.855,44.817,55.174C45.535,55.473,46,56.167,46,56.945L46,59L52,59L52,56.945C52,56.167,52.465,55.472,53.222,55.159C53.948,54.857,54.773,55.016,55.324,55.568L56.78,57.024L61.024,52.78L59.569,51.324C59.018,50.772,58.857,49.947,59.176,49.183C59.473,48.465,60.167,48,60.945,48L63,48L63,42L60.945,42C60.167,42,59.473,41.535,59.16,40.778ZM44.176,43.726C45.267,42.661,46.36,41.573,47.303,40.315C47.847,40.117,48.413,40,49,40C51.757,40,54,42.243,54,45C54,47.757,51.757,50,49,50C46.243,50,44,47.757,44,45C44,44.567,44.067,44.141,44.176,43.726ZM45.377,20.038L50,15.414L53.586,19L48.245,24.341C47.496,22.769,46.528,21.323,45.377,20.038ZM46.414,9L48,7.414L56.586,16L55,17.586ZM54.929,3C58.276,3,61,5.724,61,9.071C61,10.692,60.369,12.217,59.222,13.364L58,14.586L49.414,6L50.636,4.778C51.783,3.632,53.307,3,54.929,3ZM45,10.414L48.586,14L43.965,18.621C42.681,17.469,41.236,16.5,39.664,15.75ZM48,32C48,37.203,45.38,39.759,42.606,42.464C40.696,44.327,38.734,46.253,37.592,49.06C37.401,49.021,37.203,49,37,49L33,49L33,44C33,42.346,31.654,41,30,41L28,41C27.449,41,27,40.552,27,40C27,39.448,27.449,39,28,39L38,39C39.654,39,41,37.654,41,36C41,34.346,39.654,33,38,33L30,33C29.449,33,29,32.552,29,32L29,29L34,29C36.757,29,39,26.757,39,24C39,21.243,36.757,19,34,19C33.972,19,33.946,19.008,33.918,19.008C33.961,18.674,34,18.34,34,18C34,17.346,33.912,16.713,33.764,16.104C41.736,16.992,48,23.834,48,32ZM26,52C26,51.448,26.449,51,27,51L37,51C37.551,51,38,51.448,38,52C38,52.552,37.551,53,37,53L27,53C26.449,53,26,52.552,26,52ZM13.414,52L20.765,44.649C21.995,45.869,23.137,47.103,23.979,48.606L17,55.586ZM3,23C3,20.794,4.794,19,7,19C9.206,19,11,20.794,11,23L13,23C13,19.778,10.445,17.148,7.256,17.013C7.086,16.359,7,15.684,7,15C7,10.589,10.589,7,15,7C17.925,7,20.565,8.59,21.969,11.101C19.837,12.352,18.331,14.555,18.05,17.126C16.304,17.556,15,19.123,15,21L17,21C17,19.897,17.897,19,19,19C20.103,19,21,19.897,21,21L23,21C23,19.165,21.752,17.632,20.065,17.162C20.475,14.25,22.976,12,26,12C29.309,12,32,14.691,32,18C32,18.526,31.914,19.041,31.78,19.543C30.14,20.364,29,22.044,29,24L31,24C31,22.346,32.346,21,34,21C35.654,21,37,22.346,37,24C37,25.654,35.654,27,34,27L7,27C4.794,27,3,25.206,3,23ZM27,29L27,32C27,33.654,28.346,35,30,35L38,35C38.551,35,39,35.448,39,36C39,36.552,38.551,37,38,37L28,37C26.346,37,25,38.346,25,40C25,41.654,26.346,43,28,43L30,43C30.551,43,31,43.448,31,44L31,49L27,49C26.797,49,26.599,49.021,26.408,49.06C25.266,46.253,23.304,44.327,21.394,42.464C18.62,39.759,16,37.203,16,32C16,30.989,16.121,29.987,16.308,29ZM19.337,43.249L12,50.586L8.414,47L16.044,39.37C16.983,40.844,18.147,42.074,19.337,43.249ZM7.381,48.795L15.205,56.619L8.581,59.167L4.833,55.419ZM3.934,60.954C3.501,61.122,3,60.777,3,60.313C3,60.228,3.016,60.145,3.045,60.067L4.047,57.461L6.538,59.952ZM32,61C30.523,61,29.206,60.214,28.476,59L35.524,59C34.794,60.214,33.477,61,32,61ZM37,57L27,57C26.449,57,26,56.552,26,56C26,55.448,26.449,55,27,55L37,55C37.551,55,38,55.448,38,56C38,56.552,37.551,57,37,57ZM61,46L60.945,46C59.354,46,57.934,46.95,57.314,48.452C56.698,49.929,57.028,51.611,58.154,52.738L58.196,52.78L56.78,54.196L56.738,54.154C55.61,53.026,53.926,52.695,52.419,53.327C50.95,53.935,50,55.354,50,56.945L50,57L48,57L48,56.945C48,55.354,47.05,53.934,45.548,53.313C44.069,52.696,42.387,53.027,41.261,54.154L41.219,54.196L39,54.154C39.08,53.885,40,52.294,40,52C40,51.29,39.742,50.646,39.328,50.131C39.95,48.452,40.925,47.109,42.06,45.869C42.49,49.319,45.435,52,49,52C52.86,52,56,48.859,56,45C56,41.141,52.86,38,49,38C48.902,38,48.807,38.01,48.71,38.014C49.387,36.609,49.852,34.98,49.969,33L50,33L50,33.055C50,34.646,50.95,36.067,52.451,36.686C53.927,37.304,55.611,36.974,56.738,35.846L56.78,35.804L58.196,37.22L58.154,37.262C57.028,38.389,56.698,40.072,57.327,41.58C57.934,43.05,59.354,44,60.945,44L61,44Z" transform="matrix(1 0 0 1 1 1)" fill="rgb(47,83,115)" stroke="none" stroke-width="1"/><rect id="eATl8jh0UGL4" width="14" height="31.954" rx="0" ry="0" transform="matrix(1 0 0 1 51 30)" fill="rgb(242,241,236)" stroke="none" stroke-width="0"/><rect id="eATl8jh0UGL5" width="9.774" height="14.083" rx="0" ry="0" transform="matrix(1.301356 0 0 1.12904 42.204273 48.09973)" fill="rgb(242,241,236)" stroke="none" stroke-width="0"/><rect id="eATl8jh0UGL6" width="7.586" height="10" rx="0" ry="0" transform="matrix(0.780226 0.625498 -0.625498 0.780226 52.081208 36.726357)" fill="rgb(242,241,236)" stroke="none" stroke-width="0"/><rect id="eATl8jh0UGL7" width="7.586" height="10" rx="0" ry="0" transform="matrix(0.748836 0.662755 -0.730954 0.825894 49.768152 39.356701)" fill="rgb(242,241,236)" stroke="none" stroke-width="0"/><line id="eATl8jh0UGL8" x1="0.707" y1="-1.3965" x2="-0.707" y2="1.3965" transform="matrix(1 0 0 1 49.492622 40.074886)" fill="rgb(242,241,236)" stroke="rgb(242,241,236)" stroke-width="0.64"/><line id="eATl8jh0UGL9" x1="-0.273" y1="0.0655" x2="0.273" y2="-0.0655" transform="matrix(1.156476 0 0 3.601796 43.373 46.901129)" fill="rgb(242,241,236)" stroke="none" stroke-width="0.64"/><path id="eATl8jh0UGL10" d="M39.978,52Q40,53.313,39,54.154L39,52Q39.956,50.687,39.978,52Z" transform="matrix(1 0 0 1 1 1)" fill="rgb(47,83,115)" stroke="rgb(47,83,115)" stroke-width="0.128"/><path id="eATl8jh0UGL11" d="" transform="matrix(1 0 0 1 1 1)" fill="none" stroke="rgb(63,87,135)" stroke-width="0.128"/><ellipse id="eATl8jh0UGL12" rx="1.803" ry="0.5025" transform="matrix(1.140067 0 0 0.594793 42.055541 55.240224)" fill="rgb(242,241,236)" stroke="none" stroke-width="0"/><ellipse id="eATl8jh0UGL13" rx="1.803" ry="0.5025" transform="matrix(0.458459 0.447631 -0.624858 0.639973 41.008881 55.954223)" fill="rgb(242,241,236)" stroke="none" stroke-width="0"/><ellipse id="eATl8jh0UGL14" rx="1.196641" ry="1.352388" transform="matrix(1 0 0 1 42.204273 56.891495)" fill="rgb(242,241,236)" stroke="none" stroke-width="0"/><ellipse id="eATl8jh0UGL15" rx="1.196641" ry="1.352388" transform="matrix(1 0 0 1 41.860641 55.7305)" fill="rgb(242,241,236)" stroke="none" stroke-width="0"/><path id="eATl8jh0UGL16" d="" transform="matrix(1 0 0 1 1 1)" fill="none" stroke="rgb(63,87,135)" stroke-width="0.128"/><path id="eATl8jh0UGL17" d="M39,55.568C39.380992,56.19901,39.978458,56.082888,39.978458,56.082888Q40,54.566442,39,54.196C39,54.196,38.787255,55.215645,39,55.568Z" transform="matrix(1 0 0 1 1 1)" fill="rgb(47,83,115)" stroke="rgb(47,83,115)" stroke-width="0.128"/></g><g id="eATl8jh0UGL18" transform="matrix(1 0 0 1 -1.306018 -0.672923)"><g id="eATl8jh0UGL19" transform="matrix(0.17 0 0 0.17 38.580707 38.165543)"><path id="eATl8jh0UGL20" d="M146.289,68.1606L146.288,68.1606L146.279,68.1519L129.454,65.7514C127.089,65.4146,125.445,63.2243,125.782,60.8595C125.943,59.723,126.55,58.6979,127.468,58.0091L141.067,47.8101C142.978,46.3768,143.365,43.666,141.932,41.7547L126.361,20.9934C124.928,19.0821,122.217,18.695,120.306,20.1283L106.711,30.3273C104.808,31.7714,102.095,31.3995,100.651,29.4963C99.9499,28.5724,99.6493,27.4051,99.8169,26.2572L102.222,9.4319C102.561,7.06705,100.919,4.87575,98.5544,4.53622L98.552,4.53595L98.5495,4.53568L72.8747,0.867836C70.5104,0.528302,68.318,2.16975,67.9785,4.53459L67.9785,4.53568L65.5736,21.361C65.2368,23.7259,63.0466,25.37,60.6817,25.0332C59.5452,24.8715,58.5201,24.2644,57.8313,23.3463L47.6366,9.74764C46.2034,7.83641,43.4925,7.44929,41.5813,8.88258L28.5838,18.6361L19.3017,26.8412C19.2374,26.9952,19.1806,27.1526,19.133,27.3126C18.9725,28.448,19.2698,29.6012,19.9592,30.5176L30.1538,44.112C31.2287,45.5031,31.332,47.4138,30.4134,48.9131C29.5289,50.4215,27.8187,51.2444,26.0881,50.9935L9.26274,48.5887C6.89789,48.2497,4.70659,49.8917,4.36706,52.256L4.36679,52.2584L4.36652,52.2608L0.694355,77.9487C0.355361,80.313,1.99734,82.5048,4.36165,82.8444L4.36409,82.8446L4.36652,82.8449L21.1919,85.2498C23.5567,85.5866,25.2009,87.7768,24.864,90.1417C24.7024,91.2781,24.0952,92.3032,23.1772,92.992L9.5828,103.187C7.67157,104.62,7.28447,107.331,8.71776,109.242L24.2888,130.003C25.7221,131.915,28.4329,132.302,30.3442,130.869L43.9429,120.674C45.8557,119.243,48.5666,119.634,49.9972,121.548C50.6816,122.463,50.9763,123.612,50.8157,124.744L48.4152,141.569C48.0757,143.934,49.7171,146.126,52.082,146.465L52.083,146.465L77.7752,150.138C77.9774,150.164,78.1812,150.177,78.3851,150.177C80.5385,150.179,82.3654,148.597,82.6714,146.465L85.072,129.64C85.4088,127.275,87.599,125.631,89.9639,125.968C91.1003,126.13,92.1254,126.737,92.8142,127.655L103.013,141.249C104.447,143.16,107.157,143.548,109.069,142.114L129.83,126.543C131.741,125.11,132.128,122.399,130.695,120.488L120.5,106.893C119.43,105.5,119.327,103.593,120.241,102.092C121.106,100.564,122.832,99.7357,124.566,100.016L141.391,102.417C143.756,102.756,145.948,101.114,146.288,98.7501L146.288,98.749L149.956,73.0568C150.295,70.6919,148.654,68.5001,146.289,68.1606ZM125.769,91.4392L138.312,93.2299L140.773,76.1105L128.23,74.3198C124.823,73.8321,121.749,72.0117,119.685,69.2587C115.386,63.5255,116.549,55.3923,122.282,51.093L132.417,43.4892L122.036,29.6483L111.902,37.2478C109.149,39.3131,105.688,40.1998,102.281,39.7132C95.1866,38.7,90.2569,32.1277,91.2701,25.0332L93.0608,12.4899L75.937,10.0461L74.1463,22.5894C73.6586,25.9961,71.8382,29.0698,69.0852,31.134C63.352,35.4333,55.2189,34.2704,50.9195,28.5367L43.3157,18.4025L29.4748,28.7832L37.1003,38.926C39.1667,41.6807,40.0534,45.143,39.5651,48.5519C38.5498,55.6459,31.9753,60.5735,24.8813,59.5576L12.338,57.7669L9.88991,74.8907L22.4332,76.6814C25.8399,77.1691,28.9136,78.9895,30.9778,81.7425C35.2772,87.4757,34.1142,95.6088,28.3805,99.9081L18.2507,107.512L28.6314,121.353L38.7655,113.753C41.5202,111.687,44.9826,110.8,48.3914,111.289C55.4854,112.304,60.413,118.878,59.3971,125.972L57.6064,138.516L74.7302,140.964L76.482,128.403C76.9696,124.996,78.79,121.923,81.5431,119.859C87.2762,115.559,95.4094,116.722,99.7087,122.456L107.313,132.586L121.153,122.205L113.554,112.071C111.489,109.318,110.602,105.857,111.089,102.45C112.102,95.3563,118.674,90.426,125.769,91.4392Z" transform="matrix(-0.20097 1.081486 -1.081486 -0.20097 178.275048 3.050902)" clip-rule="evenodd" fill="rgb(47,83,115)" fill-rule="evenodd" stroke="none" stroke-width="1"/><path id="eATl8jh0UGL21" d="M75.325,40.5349C56.0144,40.5349,40.3599,56.1894,40.3599,75.5C40.3599,94.8106,56.0144,110.465,75.325,110.465C94.6355,110.465,110.29,94.8106,110.29,75.5C110.268,56.1982,94.6268,40.5562,75.325,40.5349ZM75.325,101.724C60.8418,101.724,49.1011,89.9832,49.1011,75.5C49.1011,61.0168,60.8418,49.2762,75.325,49.2762C89.8081,49.2762,101.549,61.0168,101.549,75.5C101.532,89.9761,89.801,101.707,75.325,101.724Z" transform="matrix(1 0 0 1 6.159418 -6.159418)" fill="rgb(53,88,119)" stroke="none" stroke-width="1"/></g><path id="eATl8jh0UGL22" d="M49,48C50.654,48,52,46.654,52,45C52,43.346,50.654,42,49,42C47.346,42,46,43.346,46,45C46,46.654,47.346,48,49,48ZM49,44C49.551,44,50,44.448,50,45C50,45.552,49.551,46,49,46C48.449,46,48,45.552,48,45C48,44.448,48.449,44,49,44Z" transform="matrix(1 0 0 1 3.508513 4.953468)" fill="rgb(47,83,115)" stroke="none" stroke-width="1" stroke-opacity="0.8"/></g><ellipse id="eATl8jh0UGL23" rx="0.303881" ry="0.466171" transform="matrix(0.777793 -0.62852 0.62852 0.777793 24.672596 47.697307)" fill="rgb(242,241,236)" stroke="none" stroke-width="0"/><rect id="eATl8jh0UGL24" width="0.337" height="0.714745" rx="0" ry="0" transform="matrix(0.680502 0.696905 -1.723828 1.683253 20.155459 42.057382)" fill="rgb(242,241,236)" stroke="none" stroke-width="0"/><rect id="eATl8jh0UGL25" width="0.337" height="0.714745" rx="0" ry="0" transform="matrix(0.692412 0.685074 -1.172817 1.18538 16.929444 38.271624)" fill="rgb(242,241,236)" stroke="none" stroke-width="0"/><rect id="eATl8jh0UGL26" width="1.031" height="0.959829" rx="0" ry="0" transform="matrix(1.178976 -0.983709 0.603623 0.723443 23.40705 48.348926)" fill="rgb(242,241,236)" stroke="none" stroke-width="0"/><rect id="eATl8jh0UGL27" width="1.205" height="1.984596" rx="0" ry="0" transform="matrix(0.891919 -0.452196 0.301366 0.59442 15.368574 37.58866)" fill="rgb(242,241,236)" stroke="none" stroke-width="0"/><rect id="eATl8jh0UGL28" width="0.845377" height="1.571206" rx="0" ry="0" transform="matrix(0.720945 -0.692992 0.692992 0.720945 20.290488 43.317847)" fill="rgb(242,241,236)" stroke="none" stroke-width="0"/><rect id="eATl8jh0UGL29" width="0.384045" height="0.643299" rx="0" ry="0" transform="matrix(1 0 0 1 24.615956 50.000001)" fill="rgb(242,241,236)" stroke="none" stroke-width="0"/><rect id="eATl8jh0UGL30" width="2.182479" height="2.279013" rx="0" ry="0" transform="matrix(1 0 0 1 22.969 48.029104)" fill="rgb(242,241,236)" stroke="none" stroke-width="0"/><ellipse id="eATl8jh0UGL31" rx="0.239442" ry="0.268796" transform="matrix(1 0 0 1 24.855397 50.321651)" fill="rgb(242,241,236)" stroke="none" stroke-width="0"/><rect id="eATl8jh0UGL32" width="0.845377" height="1.571206" rx="0" ry="0" transform="matrix(0.658706 -0.752401 0.752401 0.658706 19.654075 42.755792)" fill="rgb(242,241,236)" stroke="none" stroke-width="0"/><rect id="eATl8jh0UGL33" width="1.205" height="1.984596" rx="0" ry="0" transform="matrix(0.850646 -0.525738 0.525738 0.850646 14.861036 36.85138)" fill="rgb(242,241,236)" stroke="none" stroke-width="0"/><g id="eATl8jh0UGL34" transform="matrix(1 0 0 1 0.000001 0.000001)"><rect id="eATl8jh0UGL35" width="1.5879" height="0.566446" rx="0" ry="0" transform="matrix(3.260597 1.140041 -0.330049 0.943964 36.799998 12.729144)" fill="rgb(242,241,236)" stroke="none" stroke-width="0"/><rect id="eATl8jh0UGL36" width="1.5879" height="0.566446" rx="0" ry="0" transform="matrix(2.494974 2.388785 -0.691569 0.722311 44.240726 16.170718)" fill="rgb(242,241,236)" stroke="none" stroke-width="0"/><rect id="eATl8jh0UGL37" width="1.5879" height="0.566446" rx="0" ry="0" transform="matrix(1.358003 3.176006 -0.919474 0.39315 48.950382 21.47628)" fill="rgb(242,241,236)" stroke="none" stroke-width="0"/></g><g id="eATl8jh0UGL38" transform="matrix(1 0 0 1 0 -2)"><ellipse id="eATl8jh0UGL39" rx="0.828846" ry="3.003307" transform="matrix(0.707746 0.706467 -1.077077 1.079025 44.031222 42.150803)" fill="rgb(242,241,236)" stroke="none" stroke-width="0"/><ellipse id="eATl8jh0UGL40" rx="0.828846" ry="3.003307" transform="matrix(0.926454 0.376408 -0.220342 0.542328 47.255868 37.55495)" fill="rgb(242,241,236)" stroke="none" stroke-width="0"/><ellipse id="eATl8jh0UGL41" rx="0.828846" ry="3.003307" transform="matrix(0.961276 0.275587 -0.161323 0.562712 47.769233 36.238158)" fill="rgb(242,241,236)" stroke="none" stroke-width="0"/><ellipse id="eATl8jh0UGL42" rx="0.828846" ry="3.003307" transform="matrix(0.961276 0.275587 -0.161323 0.562712 46.921241 38.15647)" fill="rgb(242,241,236)" stroke="none" stroke-width="0"/><ellipse id="eATl8jh0UGL43" rx="0.828846" ry="3.003307" transform="matrix(0.869381 0.494142 -0.753366 1.325454 40.209818 45.955565)" fill="rgb(242,241,236)" stroke="none" stroke-width="0"/><ellipse id="eATl8jh0UGL44" rx="0.828846" ry="3.003307" transform="matrix(0.767704 0.640804 -0.976967 1.170438 40.209818 45.955565)" fill="rgb(242,241,236)" stroke="none" stroke-width="0"/><ellipse id="eATl8jh0UGL45" rx="0.828846" ry="3.003307" transform="matrix(0.762297 0.647228 -0.98676 1.162194 41.008881 45.22733)" fill="rgb(242,241,236)" stroke="none" stroke-width="0"/><ellipse id="eATl8jh0UGL46" rx="0.828846" ry="3.003307" transform="matrix(0.694921 0.719086 -1.096315 1.059473 41.507365 44.690878)" fill="rgb(242,241,236)" stroke="none" stroke-width="0"/><ellipse id="eATl8jh0UGL47" rx="0.828846" ry="3.003307" transform="matrix(0.797395 0.603457 -0.920028 1.215705 40.69489 45.545998)" fill="rgb(242,241,236)" stroke="none" stroke-width="0"/><ellipse id="eATl8jh0UGL48" rx="0.828846" ry="3.003307" transform="matrix(0.797395 0.603457 -0.920028 1.215705 39.633238 44.690878)" fill="rgb(242,241,236)" stroke="none" stroke-width="0"/><ellipse id="eATl8jh0UGL49" rx="0.828846" ry="3.003307" transform="matrix(0.797395 0.603457 -0.920028 1.215705 38.97232 44.121749)" fill="rgb(242,241,236)" stroke="none" stroke-width="0"/><ellipse id="eATl8jh0UGL50" rx="0.828846" ry="3.003307" transform="matrix(0.888258 0.886653 -1.077077 1.079025 43.373 40.979698)" fill="rgb(242,241,236)" stroke="none" stroke-width="0"/><ellipse id="eATl8jh0UGL51" rx="0.828846" ry="3.003307" transform="matrix(0.860956 1.279225 -1.264814 0.851256 43.340598 40.309202)" fill="rgb(242,241,236)" stroke="none" stroke-width="0"/><ellipse id="eATl8jh0UGL52" rx="0.828846" ry="3.003307" transform="matrix(0.860956 1.279225 -1.264814 0.851256 40.775706 41.974819)" fill="rgb(242,241,236)" stroke="none" stroke-width="0"/><ellipse id="eATl8jh0UGL53" rx="0.828846" ry="3.003307" transform="matrix(0.860956 1.279225 -1.264814 0.851256 43.572526 38.910159)" fill="rgb(242,241,236)" stroke="none" stroke-width="0"/><line id="eATl8jh0UGL54" x1="-0.40499" y1="0.624138" x2="0.40499" y2="-0.624138" transform="matrix(1 0 0 1 38.790777 49.254207)" fill="rgb(242,241,236)" stroke="rgb(242,241,236)" stroke-width="0.4"/><ellipse id="eATl8jh0UGL55" rx="0.927443" ry="1.6755" transform="matrix(0.752141 -0.659003 1.042789 1.190168 46.337555 19.660681)" fill="rgb(242,241,236)" stroke="none" stroke-width="0"/><ellipse id="eATl8jh0UGL56" rx="0.927443" ry="1.6755" transform="matrix(1 0 0 1 50.695595 26.109219)" fill="rgb(242,241,236)" stroke="none" stroke-width="0"/><ellipse id="eATl8jh0UGL57" rx="0.927443" ry="1.6755" transform="matrix(1 0 0 1 50.199622 24.916492)" fill="rgb(242,241,236)" stroke="none" stroke-width="0"/><ellipse id="eATl8jh0UGL58" rx="6.32271" ry="4.019" transform="matrix(1 0 0 1 50.353932 17.019)" fill="rgb(242,241,236)" stroke="none" stroke-width="0"/><rect id="eATl8jh0UGL59" width="14.778" height="12.987" rx="0" ry="0" transform="matrix(1 0 0 1 50.222 14.364)" fill="rgb(242,241,236)" stroke="none" stroke-width="0"/><rect id="eATl8jh0UGL60" width="26.338" height="14.925" rx="0" ry="0" transform="matrix(1 0 0 1 38.662 1)" fill="rgb(242,241,236)" stroke="none" stroke-width="0"/><ellipse id="eATl8jh0UGL61" rx="2.78" ry="2.52665" transform="matrix(1 0 0 1 18.985 46.746993)" fill="rgb(242,241,236)" stroke="none" stroke-width="0"/><rect id="eATl8jh0UGL62" width="15.392" height="12.04482" rx="0" ry="0" transform="matrix(1 0 0 1 9.414 49.606)" fill="rgb(242,241,236)" stroke="none" stroke-width="0"/><rect id="eATl8jh0UGL63" width="6.05" height="19.905134" rx="0" ry="0" transform="matrix(1 0 0 1 13 44.094866)" fill="rgb(242,241,236)" stroke="none" stroke-width="0"/><ellipse id="eATl8jh0UGL64" rx="0.927443" ry="1.6755" transform="matrix(0.466013 -0.884778 1.40005 0.737408 40.377055 15.610446)" fill="rgb(242,241,236)" stroke="none" stroke-width="0"/><rect id="eATl8jh0UGL65" width="14.254" height="27.260947" rx="0" ry="0" transform="matrix(1 0 0 1 1 37.739054)" fill="rgb(242,241,236)" stroke="none" stroke-width="0"/><ellipse id="eATl8jh0UGL66" rx="2" ry="3.108463" transform="matrix(1 0 0 1 15 41.582415)" fill="rgb(242,241,236)" stroke="none" stroke-width="0"/><line id="eATl8jh0UGL67" x1="-0.301638" y1="0" x2="0.301638" y2="0" transform="matrix(0.708161 -0.706051 0.706051 0.708161 45.287929 17.447709)" fill="none" stroke="rgb(242,241,236)" stroke-width="0.64"/><ellipse id="eATl8jh0UGL68" rx="0.531254" ry="0.305594" transform="matrix(1 0 0 1 45.340309 17.355087)" fill="rgb(242,241,236)" stroke="none" stroke-width="0"/><line id="eATl8jh0UGL69" x1="-0.301638" y1="0" x2="0.301638" y2="0" transform="matrix(0.708161 -0.706051 0.706051 0.708161 45.287929 17.447709)" fill="none" stroke="rgb(242,241,236)" stroke-width="0.64"/></g><g id="eATl8jh0UGL70" transform="matrix(1 0 0 1 0 -2)"><path id="eATl8jh0UGL71" d="M41.144,71.552L112.512,0.176025L120.352,14.96L59.312,76L88,104.688L146.696,45.992L158.12,57.192L99.312,116L128,144.688L183.832,88.848L184.64,110.664L132.456,162.856L29.208,202.568C26.736,203.512,24.144,204,21.496,204C9.648,204,0,194.36,0,182.504C0,179.856,0.48,177.264,1.432,174.8L41.144,71.552ZM51.048,90.36L113.64,152.952L60.648,173.336L30.664,143.352L51.048,90.36ZM16,182.504C16,186.216,20.008,188.976,23.472,187.632L44.304,179.616L24.376,159.688L16.36,180.536C16.128,181.16,16,181.824,16,182.504Z" transform="matrix(0.130486 0 0 0.130486 1.752383 37.905186)" clip-rule="evenodd" fill="rgb(47,83,115)" fill-rule="evenodd" stroke="none" stroke-width="1"/><path id="eATl8jh0UGL72" d="M184.08,110.232L91.5039,202.808L84.9599,186.728L127.688,144L98.9999,115.312L80.5079,133.808L62.0159,152.304L50.7199,140.968L87.6879,104L58.9999,75.312L16.3119,118L0.295898,111.4L92.7759,18.912C104.968,6.72,121.184,0,138.432,0C174.032,0,203,28.968,203,64.568C203,81.816,196.28,98.032,184.08,110.232ZM138.432,16C165.208,16,187,37.792,187,64.568C187,77.536,181.952,89.736,172.776,98.912L163,108.688L94.3119,40L104.088,30.224C113.264,21.056,125.456,16,138.432,16ZM82.9999,51.312L70.3119,64L139,132.688L151.688,120L82.9999,51.312Z" transform="matrix(0.127385 0 0 0.127385 38.348101 2.715282)" clip-rule="evenodd" fill="rgb(47,83,115)" fill-rule="evenodd" stroke="none" stroke-width="1"/></g><rect id="eATl8jh0UGL73" width="1.824093" height="2.320671" rx="0" ry="0" transform="matrix(1 0 0 1 36.687024 45.681207)" fill="rgb(242,241,236)" stroke="none" stroke-width="0"/><rect id="eATl8jh0UGL74" width="15" height="24.875613" rx="0" ry="0" transform="matrix(1 0 0 1.02502 0 2.813194)" fill="rgb(242,241,236)" stroke="none" stroke-width="0"/><rect id="eATl8jh0UGL75" width="9.255574" height="10" rx="0" ry="0" transform="matrix(1 0 0 1 31 18)" fill="rgb(242,241,236)" stroke="none" stroke-width="0"/><rect id="eATl8jh0UGL76" width="5.764" height="9.446262" rx="0" ry="0" transform="matrix(1 0 0 0.97043 29.618 15.195029)" fill="rgb(242,241,236)" stroke="none" stroke-width="0"/><rect id="eATl8jh0UGL77" width="28.955" height="14.586" rx="0" ry="0" transform="matrix(0.941603 0 0 1.735775 4.890443 2.69608)" fill="rgb(242,241,236)" stroke="none" stroke-width="0"/><rect id="eATl8jh0UGL78" width="3.764" height="0.458195" rx="0" ry="0" transform="matrix(1.032349 0 0 1 30.939119 15.104)" fill="rgb(242,241,236)" stroke="none" stroke-width="0"/><rect id="eATl8jh0UGL79" width="14.95" height="3.375865" rx="0" ry="0" transform="matrix(1 0 0 1.15578 21.259194 9.151053)" fill="rgb(242,241,236)" stroke="none" stroke-width="0"/><g id="eATl8jh0UGL80" transform="matrix(0.127169 0 0 0.127169 1.717679 3.583552)"><path id="eATl8jh0UGL81" d="M255.56,72.352C244.52,53.064,223.776,40,200,40C193.912,40,188.04,40.912,182.448,42.504C168.64,16.544,141.816,0,112,0C67.888,0,32,35.888,32,80C32,86.128,32.752,92.16,34.12,98.064C14.4,104.032,0,122.36,0,144C0,170.472,21.528,192,48,192L106.032,192L122.464,192L208,192L224,192L264,192C286.056,192,304,174.056,304,152C304,129.944,286.056,112,264,112C263.888,112,263.78,112.016,263.672,112.032C263.564,112.048,263.456,112.064,263.344,112.064C263.688,109.392,264,106.72,264,104C264,98.768,263.296,93.704,262.112,88.832L255.56,72.352ZM48,112C30.352,112,16,126.352,16,144C16,161.648,30.352,176,48,176L264,176C277.232,176,288,165.232,288,152C288,138.768,277.232,128,264,128C250.768,128,240,138.768,240,152L224,152C224,136.352,233.12,122.912,246.24,116.344C247.312,112.328,248,108.208,248,104C248,77.528,226.472,56,200,56C175.808,56,155.8,74,152.52,97.296C166.016,101.056,176,113.32,176,128L160,128C160,119.176,152.824,112,144,112C135.176,112,128,119.176,128,128L112,128C112,112.984,122.432,100.448,136.4,97.008C138.648,76.44,150.696,58.816,167.752,48.808C156.52,28.72,135.4,16,112,16C76.712,16,48,44.712,48,80C48,85.472,48.688,90.872,50.048,96.104C75.56,97.184,96,118.224,96,144L80,144C80,126.352,65.648,112,48,112Z" clip-rule="evenodd" fill="rgb(242,241,236)" fill-rule="evenodd" stroke="none" stroke-width="1"/><path id="eATl8jh0UGL82" d="M16,144C16,126.352,30.352,112,48,112C65.648,112,80,126.352,80,144L96,144C96,118.224,75.56,97.184,50.048,96.104C48.688,90.872,48,85.472,48,80C48,44.712,76.712,16,112,16C135.4,16,156.52,28.72,167.752,48.808C150.696,58.816,138.648,76.44,136.4,97.008C122.432,100.448,112,112.984,112,128L128,128C128,119.176,135.176,112,144,112C152.824,112,160,119.176,160,128L176,128C176,113.32,166.016,101.056,152.52,97.296C155.8,74,175.808,56,200,56C226.472,56,248,77.528,248,104C248,108.208,247.312,112.328,246.24,116.344C233.12,122.912,224,136.352,224,152L240,152C240,138.768,250.768,128,264,128C277.232,128,288,138.768,288,152C288,165.232,277.232,176,264,176L48,176C30.352,176,16,161.648,16,144Z" fill="rgb(242,241,236)" stroke="none" stroke-width="1"/><path id="eATl8jh0UGL83" d="M255.56,72.352C244.52,53.064,223.776,40,200,40C193.912,40,188.04,40.912,182.448,42.504C168.64,16.544,141.816,0,112,0C67.888,0,32,35.888,32,80C32,86.128,32.752,92.16,34.12,98.064C14.4,104.032,0,122.36,0,144C0,170.472,21.528,192,48,192L106.032,192L122.464,192L208,192L224,192L264,192C286.056,192,304,174.056,304,152C304,129.944,286.056,112,264,112C263.888,112,263.78,112.016,263.672,112.032C263.564,112.048,263.456,112.064,263.344,112.064C263.688,109.392,264,106.72,264,104C264,98.768,263.296,93.704,262.112,88.832L255.56,72.352ZM48,112C30.352,112,16,126.352,16,144C16,161.648,30.352,176,48,176L264,176C277.232,176,288,165.232,288,152C288,138.768,277.232,128,264,128C250.768,128,240,138.768,240,152L224,152C224,136.352,233.12,122.912,246.24,116.344C247.312,112.328,248,108.208,248,104C248,77.528,226.472,56,200,56C175.808,56,155.8,74,152.52,97.296C166.016,101.056,176,113.32,176,128L160,128C160,119.176,152.824,112,144,112C135.176,112,128,119.176,128,128L112,128C112,112.984,122.432,100.448,136.4,97.008C138.648,76.44,150.696,58.816,167.752,48.808C156.52,28.72,135.4,16,112,16C76.712,16,48,44.712,48,80C48,85.472,48.688,90.872,50.048,96.104C75.56,97.184,96,118.224,96,144L80,144C80,126.352,65.648,112,48,112Z" clip-rule="evenodd" fill="rgb(47,83,115)" fill-rule="evenodd" stroke="none" stroke-width="1"/></g><ellipse id="eATl8jh0UGL84" rx="0.943106" ry="0.943106" transform="matrix(1.063645 0 0 0.898174 37.980213 55.158799)" fill="rgb(242,241,236)" stroke="none" stroke-width="0"/><ellipse id="eATl8jh0UGL85" rx="0.943106" ry="0.943106" transform="matrix(1.063645 0 0 0.93985 37.947228 54.916104)" fill="rgb(242,241,236)" stroke="none" stroke-width="0"/><ellipse id="eATl8jh0UGL86" rx="0.943106" ry="0.943106" transform="matrix(1.063645 0 0 0.93985 37.947228 50.916104)" fill="rgb(242,241,236)" stroke="none" stroke-width="0"/><ellipse id="eATl8jh0UGL87" rx="0.943106" ry="0.943106" transform="matrix(1.063645 0 0 0.898174 37.980213 51.158799)" fill="rgb(242,241,236)" stroke="none" stroke-width="0"/><ellipse id="eATl8jh0UGL88" rx="1.11" ry="1.721409" transform="matrix(0.706468 0 0 1 25.78418 50.56602)" fill="rgb(47,83,115)" stroke="none" stroke-width="0"/><rect id="eATl8jh0UGL89" width="2.217023" height="0.918818" rx="0" ry="0" transform="matrix(1 0 0 1 35.627787 49.997286)" fill="rgb(242,241,236)" stroke="none" stroke-width="0"/><rect id="eATl8jh0UGL90" width="2.270542" height="1.134343" rx="0" ry="0" transform="matrix(1 0 0 1 35.627787 54)" fill="rgb(242,241,236)" stroke="none" stroke-width="0"/></svg>