<svg width="65" height="65" fill="none" xmlns="http://www.w3.org/2000/svg"><g clip-path="url(#clip0_45_968)"><path d="M37.95 51.41c.554 0 1.003-.397 1.003-.886 0-.49-.449-.887-1.003-.887-.554 0-1.003.397-1.003.886 0 .49.449.887 1.003.887z" fill="#F2F1EC"/><path d="M37.98 51.64c.554 0 1.003-.38 1.003-.848 0-.468-.449-.847-1.003-.847-.554 0-1.003.38-1.003.847 0 .468.45.847 1.003.847zm0 4c.554 0 1.003-.38 1.003-.848 0-.468-.449-.847-1.003-.847-.554 0-1.003.38-1.003.847 0 .468.45.847 1.003.847z" fill="#F2F1EC"/><path d="M37.898 53.633h-2.27v1.135h2.27v-1.135zm-.053-4.003h-2.217v.92h2.217v-.92zm2.952-11.956h-3.874v2.32h3.873v-2.32z" fill="#F2F1EC"/><path d="M39 38h-4v9h4v-9z" fill="#F2F1EC"/><path d="M60.16 41.411a1.919 1.919 0 01.409-2.102l1.455-1.456-4.244-4.245-1.457 1.457c-.551.552-1.377.712-2.141.392A1.906 1.906 0 0153 33.688v-2.055h-2.051a17.716 17.716 0 00-.886-4.648l11.572-11.572A8.02 8.02 0 0064 9.704c0-4.45-3.621-8.071-8.071-8.071-2.156 0-4.183.84-5.707 2.364l-11.56 11.56a17.764 17.764 0 00-4.717-.88c-1.38-2.412-3.973-4.045-6.945-4.045-.761 0-1.495.115-2.194.314C23.08 7.702 19.727 5.634 16 5.634c-5.514 0-10 4.486-10 10 0 .765.094 1.52.265 2.258A6.009 6.009 0 002 23.634c0 3.308 2.691 6 6 6h7.254a18.132 18.132 0 00-.254 3c0 2.2.407 3.992 1.064 5.522l-8.921 8.922-4.964 12.905a2.69 2.69 0 003.472 3.471l12.906-4.964 6.523-6.523a2.99 2.99 0 00-.08.666c0 .771.301 1.468.78 2a2.976 2.976 0 00-.78 2c0 1.39.955 2.552 2.24 2.89a6.098 6.098 0 005.76 4.11 6.098 6.098 0 005.76-4.11 2.996 2.996 0 002.24-2.89c0-.075-.995-1.773-1-1.846l2.22 2.87 1.457-1.455c.551-.552 1.374-.713 2.14-.395A1.914 1.914 0 0147 57.578v2.055h6v-2.055c0-.778.465-1.473 1.222-1.786a1.917 1.917 0 012.102.41l1.456 1.456 4.244-4.245-1.455-1.455c-.551-.552-.712-1.377-.393-2.142a1.909 1.909 0 011.769-1.183H64v-6h-2.055c-.778 0-1.472-.465-1.785-1.222zM45.176 44.36c1.091-1.065 2.184-2.153 3.127-3.41A4.941 4.941 0 0150 40.633c2.757 0 5 2.243 5 5 0 2.758-2.243 5-5 5s-5-2.242-5-5c0-.433.067-.858.176-1.274zm1.201-23.688L51 16.049l3.586 3.586-5.341 5.34a18.148 18.148 0 00-2.868-4.302zm1.037-11.037L49 8.048l8.586 8.586L56 18.219l-8.586-8.585zm8.515-6A6.079 6.079 0 0162 9.704a6.032 6.032 0 01-1.778 4.293L59 15.22l-8.586-8.586 1.222-1.222a6.034 6.034 0 014.293-1.778zM46 11.047l3.586 3.586-4.621 4.622a18.128 18.128 0 00-4.301-2.871L46 11.047zm3 21.586c0 5.203-2.62 7.76-5.394 10.464-1.91 1.864-3.872 3.79-5.014 6.596a2.957 2.957 0 00-.592-.06h-4v-5c0-1.654-1.346-3-3-3h-2a1.001 1.001 0 010-2h10c1.654 0 3-1.346 3-3s-1.346-3-3-3h-8c-.551 0-1-.448-1-1v-3h5c2.757 0 5-2.242 5-5 0-2.756-2.243-5-5-5-.028 0-.054.009-.082.009.043-.334.082-.668.082-1.008a8.01 8.01 0 00-.236-1.896C42.736 17.625 49 24.468 49 32.633zm-22 20c0-.552.449-1 1-1h10a1.001 1.001 0 010 2H28c-.551 0-1-.448-1-1zm-12.586 0l7.351-7.35c1.23 1.22 2.372 2.453 3.214 3.956L18 56.22l-3.586-3.586zM4 23.633c0-2.206 1.794-4 4-4s4 1.794 4 4h2c0-3.221-2.555-5.851-5.744-5.986A7.993 7.993 0 018 15.633c0-4.412 3.589-8 8-8a7.975 7.975 0 016.969 4.1 8.006 8.006 0 00-3.919 6.025c-1.746.43-3.05 1.997-3.05 3.875h2c0-1.104.897-2 2-2s2 .896 2 2h2c0-1.835-1.248-3.369-2.935-3.838.41-2.912 2.911-5.162 5.935-5.162 3.309 0 6 2.69 6 6 0 .526-.086 1.04-.22 1.543-1.64.82-2.78 2.5-2.78 4.457h2c0-1.654 1.346-3 3-3s3 1.346 3 3-1.346 3-3 3H8c-2.206 0-4-1.794-4-4zm24 6v3c0 1.654 1.346 3 3 3h8a1.001 1.001 0 010 2H29c-1.654 0-3 1.346-3 3s1.346 3 3 3h2c.551 0 1 .448 1 1v5h-4c-.203 0-.401.021-.592.06-1.142-2.806-3.104-4.732-5.014-6.596C19.62 40.392 17 37.837 17 32.633c0-1.01.121-2.013.308-3H28zm-7.663 14.25L13 51.218l-3.586-3.586 7.63-7.63c.939 1.474 2.103 2.705 3.293 3.88zM8.381 49.428l7.824 7.825L9.581 59.8l-3.748-3.747 2.548-6.624zm-3.447 12.16c-.433.167-.934-.178-.934-.642 0-.084.016-.167.045-.245l1.002-2.607 2.491 2.492-2.604 1.002zM33 61.633a4.109 4.109 0 01-3.524-2h7.048a4.109 4.109 0 01-3.524 2zm5-4H28a1.001 1.001 0 010-2h10a1.001 1.001 0 010 2zm24-11h-.055c-1.591 0-3.011.95-3.631 2.453a3.912 3.912 0 00.84 4.285l.042.042-1.416 1.417-.042-.042c-1.128-1.128-2.812-1.46-4.319-.827A3.903 3.903 0 0051 57.578v.055h-2v-.055c0-1.59-.95-3.01-2.452-3.632a3.909 3.909 0 00-4.287.842l-.042.042L40 54.788c.08-.27 1-1.86 1-2.154 0-.71-.258-1.355-.672-1.87.622-1.678 1.597-3.022 2.732-4.262.43 3.45 3.375 6.131 6.94 6.131 3.86 0 7-3.14 7-7 0-3.858-3.14-7-7-7-.098 0-.193.01-.29.014.677-1.404 1.142-3.033 1.259-5.014H51v.055c0 1.591.95 3.012 2.451 3.631a3.907 3.907 0 004.287-.84l.042-.041 1.416 1.415-.042.042c-1.126 1.127-1.456 2.81-.827 4.319a3.902 3.902 0 003.618 2.42H62v2z" fill="#2F5373"/><path d="M60.16 41.411a1.919 1.919 0 01.409-2.102l1.455-1.456-4.244-4.245-1.457 1.457c-.551.552-1.377.712-2.141.392A1.906 1.906 0 0153 33.688v-2.055h-2.051a17.716 17.716 0 00-.886-4.648l11.572-11.572A8.02 8.02 0 0064 9.704c0-4.45-3.621-8.071-8.071-8.071-2.156 0-4.183.84-5.707 2.364l-11.56 11.56a17.764 17.764 0 00-4.717-.88c-1.38-2.412-3.973-4.045-6.945-4.045-.761 0-1.495.115-2.194.314C23.08 7.702 19.727 5.634 16 5.634c-5.514 0-10 4.486-10 10 0 .765.094 1.52.265 2.258A6.009 6.009 0 002 23.634c0 3.308 2.691 6 6 6h7.254a18.132 18.132 0 00-.254 3c0 2.2.407 3.992 1.064 5.522l-8.921 8.922-4.964 12.905a2.69 2.69 0 003.472 3.471l12.906-4.964 6.523-6.523a2.99 2.99 0 00-.08.666c0 .771.301 1.468.78 2a2.976 2.976 0 00-.78 2c0 1.39.955 2.552 2.24 2.89a6.098 6.098 0 005.76 4.11 6.098 6.098 0 005.76-4.11 2.996 2.996 0 002.24-2.89c0-.075-.995-1.773-1-1.846l2.22 2.87 1.457-1.455c.551-.552 1.374-.713 2.14-.395A1.914 1.914 0 0147 57.578v2.055h6v-2.055c0-.778.465-1.473 1.222-1.786a1.917 1.917 0 012.102.41l1.456 1.456 4.244-4.245-1.455-1.455c-.551-.552-.712-1.377-.393-2.142a1.909 1.909 0 011.769-1.183H64v-6h-2.055c-.778 0-1.472-.465-1.785-1.222zM45.176 44.36c1.091-1.065 2.184-2.153 3.127-3.41A4.941 4.941 0 0150 40.633c2.757 0 5 2.243 5 5 0 2.758-2.243 5-5 5s-5-2.242-5-5c0-.433.067-.858.176-1.274zm1.201-23.688L51 16.049l3.586 3.586-5.341 5.34a18.148 18.148 0 00-2.868-4.302zm1.037-11.037L49 8.048l8.586 8.586L56 18.219l-8.586-8.585zm8.515-6A6.079 6.079 0 0162 9.704a6.032 6.032 0 01-1.778 4.293L59 15.22l-8.586-8.586 1.222-1.222a6.034 6.034 0 014.293-1.778zM46 11.047l3.586 3.586-4.621 4.622a18.128 18.128 0 00-4.301-2.871L46 11.047zm3 21.586c0 5.203-2.62 7.76-5.394 10.464-1.91 1.864-3.872 3.79-5.014 6.596a2.957 2.957 0 00-.592-.06h-4v-5c0-1.654-1.346-3-3-3h-2a1.001 1.001 0 010-2h10c1.654 0 3.2-1.346 3.2-3s-1.546-3-3.2-3h-8c-.551 0-1-.448-1-1v-3h5c2.757 0 5-2.242 5-5 0-2.756-2.243-5-5-5-.028 0-.054.009-.082.009.043-.334.082-.668.082-1.008a8.01 8.01 0 00-.236-1.896C42.736 17.625 49 24.468 49 32.633zm-22 20c0-.552.449-1 1-1h10a1.001 1.001 0 010 2H28c-.551 0-1-.448-1-1zm-12.586 0l7.351-7.35c1.23 1.22 2.372 2.453 3.214 3.956L18 56.22l-3.586-3.586zM4 23.633c0-2.206 1.794-4 4-4s4 1.794 4 4h2c0-3.221-2.555-5.851-5.744-5.986A7.993 7.993 0 018 15.633c0-4.412 3.589-8 8-8a7.975 7.975 0 016.969 4.1 8.006 8.006 0 00-3.919 6.025c-1.746.43-3.05 1.997-3.05 3.875h2c0-1.104.897-2 2-2s2 .896 2 2h2c0-1.835-1.248-3.369-2.935-3.838.41-2.912 2.911-5.162 5.935-5.162 3.309 0 6 2.69 6 6 0 .526-.086 1.04-.22 1.543-1.64.82-2.78 2.5-2.78 4.457h2c0-1.654 1.346-3 3-3s3 1.346 3 3-1.346 3-3 3H8c-2.206 0-4-1.794-4-4zm24 6v3c0 1.654 1.346 3 3 3h8a1.001 1.001 0 010 2H29c-1.654 0-3 1.346-3 3s1.346 3 3 3h2c.551 0 1 .448 1 1v5h-4c-.203 0-.401.021-.592.06-1.142-2.806-3.104-4.732-5.014-6.596C19.62 40.392 17 37.837 17 32.633c0-1.01.121-2.013.308-3H28zm-7.663 14.25L13 51.218l-3.586-3.586 7.63-7.63c.939 1.474 2.103 2.705 3.293 3.88zM8.381 49.428l7.824 7.825L9.581 59.8l-3.748-3.747 2.548-6.624zm-3.447 12.16c-.433.167-.934-.178-.934-.642 0-.084.016-.167.045-.245l1.002-2.607 2.491 2.492-2.604 1.002zM33 61.633a4.109 4.109 0 01-3.524-2h7.048a4.109 4.109 0 01-3.524 2zm5-4H28a1.001 1.001 0 010-2h10a1.001 1.001 0 010 2zm24-11h-.055c-1.591 0-3.011.95-3.631 2.453a3.912 3.912 0 00.84 4.285l.042.042-1.416 1.417-.042-.042c-1.128-1.128-2.812-1.46-4.319-.827A3.903 3.903 0 0051 57.578v.055h-2v-.055c0-1.59-.95-3.01-2.452-3.632a3.909 3.909 0 00-4.287.842l-.042.042L40 54.788c.08-.27 1-1.86 1-2.154 0-.71-.258-1.355-.672-1.87.622-1.678 1.597-3.022 2.732-4.262.43 3.45 3.375 6.131 6.94 6.131 3.86 0 7-3.14 7-7 0-3.858-3.14-7-7-7-.098 0-.193.01-.29.014.677-1.404 1.142-3.033 1.259-5.014H51v.055c0 1.591.95 3.012 2.451 3.631a3.907 3.907 0 004.287-.84l.042-.041 1.416 1.415-.042.042c-1.126 1.127-1.456 2.81-.827 4.319a3.902 3.902 0 003.618 2.42H62v2z" fill="#2F5373"/><path d="M64.97 29.634h-14v31.953h14V29.633z" fill="#F2F1EC"/><path d="M55 30H42v30h13V30zM7.586-.366H0v10h7.586v-10z" fill="#F2F1EC"/><path d="M7.586-.366H0v10h7.586v-10z" fill="#F2F1EC"/><path d="M50.2 38.312l-1.414 2.793" stroke="#F2F1EC" stroke-width=".64"/><path d="M40.978 52.634c.015.875-.311 1.593-.978 2.154v-2.154c.637-.876.963-.876.978 0z" fill="#2F5373" stroke="#2F5373" stroke-width=".128"/><path d="M42.056 55.173c1.135 0 2.055-.134 2.055-.3 0-.164-.92-.298-2.055-.298-1.136 0-2.056.134-2.056.299 0 .165.92.299 2.056.299zm.148 2.704c.661 0 1.197-.605 1.197-1.352 0-.747-.536-1.352-1.197-1.352-.66 0-1.196.605-1.196 1.352 0 .747.535 1.352 1.196 1.352z" fill="#F2F1EC"/><path d="M41.86 56.716c.662 0 1.197-.605 1.197-1.352 0-.747-.535-1.352-1.196-1.352-.661 0-1.197.605-1.197 1.352 0 .747.536 1.352 1.197 1.352z" fill="#F2F1EC"/><path d="M40 56.202c.381.63.978.514.978.514.015-1.01-.311-1.64-.978-1.886 0 0-.213 1.02 0 1.372z" fill="#2F5373" stroke="#2F5373" stroke-width=".128"/><path fill-rule="evenodd" clip-rule="evenodd" d="M62.064 44.386l-.002-.001-2.86-.408a.735.735 0 01-.338-1.317l2.312-1.733a.735.735 0 00.147-1.03l-2.647-3.53a.735.735 0 00-1.03-.146l-2.31 1.734a.735.735 0 01-1.172-.692l.408-2.86a.735.735 0 00-.623-.833l-4.366-.624a.735.735 0 00-.832.624l-.409 2.86a.735.735 0 01-1.316.338l-1.733-2.312a.735.735 0 00-1.03-.147l-2.077 1.784-1.088.825c-.011.026-.62.414-.629.441-.027.193.002.472.119.628l1.733 2.31a.72.72 0 01.044.817.731.731 0 01-.735.354l-2.86-.41a.735.735 0 00-.833.624v.001l-.624 4.367a.735.735 0 00.623.832h.001l2.86.41a.735.735 0 01.338 1.316l-2.311 1.733a.735.735 0 00-.147 1.03l2.647 3.528a.735.735 0 001.03.148l2.311-1.734a.735.735 0 011.168.692l-.408 2.86a.735.735 0 00.624.833l4.367.624a.735.735 0 00.832-.624l.409-2.86a.735.735 0 011.316-.338l1.734 2.311a.736.736 0 001.03.147l3.529-2.647a.735.735 0 00.147-1.03l-1.733-2.31a.723.723 0 01-.044-.816.713.713 0 01.735-.353l2.86.408a.735.735 0 00.833-.624l.623-4.367a.735.735 0 00-.623-.833zm-1.433 1.32l-.4 2.778-2.037-.29a2.108 2.108 0 00-1.984 3.35l1.234 1.647-2.248 1.686-1.235-1.645a2.108 2.108 0 00-3.774.966l-.284 2.04-2.77-.396.268-1.878c.011-.08.018-.16.02-.24a2.108 2.108 0 00-3.36-1.906l-1.647 1.234-1.675-2.232 1.543-1.158a2.16 2.16 0 00.294-.266 2.108 2.108 0 00-1.169-3.6l-2.038-.291.398-2.779 1.937.277c.038.005.076.01.114.013a2.108 2.108 0 001.972-3.353l-1.239-1.648 2.248-1.686 1.236 1.646a2.108 2.108 0 003.742-.797c.025-.09.045-.183.058-.277l.275-1.928 2.77.395-.29 2.038a2.108 2.108 0 003.165 2.11 2.15 2.15 0 00.311-.195l1.533-1.15 1.675 2.233-1.646 1.235a2.108 2.108 0 00.966 3.773l.056.008c.037.008.074.014.112.02l1.87.266z" fill="#2F5373"/><path fill-rule="evenodd" clip-rule="evenodd" d="M61.943 44.399l-.002-.002-2.831-.404a.728.728 0 01-.334-1.303l2.288-1.716a.728.728 0 00.146-1.02l-2.62-3.494a.728.728 0 00-1.02-.145l-2.288 1.716a.728.728 0 01-1.16-.685l.405-2.831a.728.728 0 00-.618-.824l-4.322-.618a.728.728 0 00-.824.617l-.404 2.832a.728.728 0 01-1.303.334l-1.716-2.288a.728.728 0 00-1.02-.146l-2.187 1.642-1.562 1.38a.796.796 0 00-.028.08.728.728 0 00.139.54l1.716 2.287c.18.234.198.556.043.808a.724.724 0 01-.728.35l-2.831-.404a.728.728 0 00-.824.617l-.618 4.324a.728.728 0 00.617.824l2.832.405a.728.728 0 01.334 1.303l-2.288 1.715a.728.728 0 00-.145 1.02l2.62 3.494a.728.728 0 001.02.145l2.288-1.715a.728.728 0 011.157.685l-.404 2.831a.728.728 0 00.617.824l4.324.618a.728.728 0 00.824-.618l.404-2.831a.728.728 0 011.303-.335L54.66 56.7a.728.728 0 001.019.146l3.494-2.62a.728.728 0 00.146-1.02l-1.716-2.288a.715.715 0 01-.044-.808.707.707 0 01.728-.349l2.832.404a.728.728 0 00.824-.617l.617-4.324a.728.728 0 00-.617-.824zm-1.418 1.306l-.396 2.75-2.017-.288a2.087 2.087 0 00-1.964 3.319l1.222 1.63-2.226 1.669-1.223-1.63a2.087 2.087 0 00-3.736.957l-.281 2.02-2.743-.392.266-1.86c.011-.079.018-.158.02-.236a2.087 2.087 0 00-3.327-1.888l-1.63 1.222-1.658-2.21 1.527-1.146a2.16 2.16 0 00.291-.263 2.087 2.087 0 00-1.157-3.565l-2.017-.288.393-2.75 1.918.273c.038.005.075.01.113.013a2.087 2.087 0 001.952-3.32l-1.226-1.63 2.226-1.67 1.222 1.63a2.087 2.087 0 003.705-.79c.025-.089.044-.18.058-.273l.272-1.91 2.743.392-.288 2.017a2.087 2.087 0 003.133 2.088c.108-.054.21-.119.309-.192l1.517-1.138 1.658 2.21-1.63 1.223a2.086 2.086 0 00.957 3.735l.056.008c.036.008.073.014.11.019l1.85.264z" fill="#2F5373"/><path fill-rule="evenodd" clip-rule="evenodd" d="M49.99 41.317a4.258 4.258 0 00-3.257 1.499 4.457 4.457 0 000 5.78 4.258 4.258 0 003.258 1.498 4.255 4.255 0 003.257-1.498 4.457 4.457 0 000-5.78 4.258 4.258 0 00-3.257-1.499zm0 1.756c-1.418.007-2.566 1.183-2.566 2.633s1.148 2.626 2.567 2.633c1.418-.007 2.566-1.183 2.566-2.633s-1.148-2.626-2.566-2.633z" fill="#2F5373"/><path fill-rule="evenodd" clip-rule="evenodd" d="M49.97 43.07a2.513 2.513 0 00-1.929.895c-.84.987-.84 2.46 0 3.448.503.59 1.212.897 1.929.894a2.513 2.513 0 001.929-.894c.84-.987.84-2.46 0-3.448a2.513 2.513 0 00-1.929-.894zm0 1.048c-.84.004-1.52.706-1.52 1.57 0 .866.68 1.567 1.52 1.572.84-.005 1.52-.706 1.52-1.571s-.68-1.567-1.52-1.57z" fill="#F2F1EC"/><path d="M40.93 39.86a2.93 2.93 0 100-5.86 2.93 2.93 0 000 5.86zM38 50h-9v6h9v-6zM1.205-.366H0v1.984h1.205V-.366z" fill="#F2F1EC"/><path d="M.845-.366H0v1.57h.845v-1.57zM25 49.633h-.384v.644H25v-.644z" fill="#F2F1EC"/><path d="M24 48l-1.031-.337v2.279L25.5 50 24 48z" fill="#F2F1EC"/><path d="M24.855 50.224c.133 0 .24-.12.24-.269 0-.148-.107-.269-.24-.269-.132 0-.239.12-.239.27 0 .148.107.268.24.268zM.845-.366H0v1.57h.845v-1.57z" fill="#F2F1EC"/><path d="M1.205-.366H0v1.984h1.205V-.366z" fill="#F2F1EC"/><path d="M0 2.637c.458 0 .829-1.345.829-3.003C.829-2.026.458-3.37 0-3.37c-.458 0-.829 1.345-.829 3.004 0 1.658.371 3.003.829 3.003z" fill="#F2F1EC"/><path d="M0 2.637c.458 0 .829-1.345.829-3.003C.829-2.026.458-3.37 0-3.37c-.458 0-.829 1.345-.829 3.004 0 1.658.371 3.003.829 3.003z" fill="#F2F1EC"/><path d="M0 2.637c.458 0 .829-1.345.829-3.003C.829-2.026.458-3.37 0-3.37c-.458 0-.829 1.345-.829 3.004 0 1.658.371 3.003.829 3.003z" fill="#F2F1EC"/><path d="M0 2.637c.458 0 .829-1.345.829-3.003C.829-2.026.458-3.37 0-3.37c-.458 0-.829 1.345-.829 3.004 0 1.658.371 3.003.829 3.003z" fill="#F2F1EC"/><path d="M0 2.637c.458 0 .829-1.345.829-3.003C.829-2.026.458-3.37 0-3.37c-.458 0-.829 1.345-.829 3.004 0 1.658.371 3.003.829 3.003z" fill="#F2F1EC"/><path d="M0 2.637c.458 0 .829-1.345.829-3.003C.829-2.026.458-3.37 0-3.37c-.458 0-.829 1.345-.829 3.004 0 1.658.371 3.003.829 3.003z" fill="#F2F1EC"/><path d="M0 2.637c.458 0 .829-1.345.829-3.003C.829-2.026.458-3.37 0-3.37c-.458 0-.829 1.345-.829 3.004 0 1.658.371 3.003.829 3.003z" fill="#F2F1EC"/><path d="M0 2.637c.458 0 .829-1.345.829-3.003C.829-2.026.458-3.37 0-3.37c-.458 0-.829 1.345-.829 3.004 0 1.658.371 3.003.829 3.003z" fill="#F2F1EC"/><path d="M0 2.637c.458 0 .829-1.345.829-3.003C.829-2.026.458-3.37 0-3.37c-.458 0-.829 1.345-.829 3.004 0 1.658.371 3.003.829 3.003z" fill="#F2F1EC"/><path d="M0 2.637c.458 0 .829-1.345.829-3.003C.829-2.026.458-3.37 0-3.37c-.458 0-.829 1.345-.829 3.004 0 1.658.371 3.003.829 3.003z" fill="#F2F1EC"/><path d="M0 2.637c.458 0 .829-1.345.829-3.003C.829-2.026.458-3.37 0-3.37c-.458 0-.829 1.345-.829 3.004 0 1.658.371 3.003.829 3.003z" fill="#F2F1EC"/><path d="M0 2.637c.458 0 .829-1.345.829-3.003C.829-2.026.458-3.37 0-3.37c-.458 0-.829 1.345-.829 3.004 0 1.658.371 3.003.829 3.003z" fill="#F2F1EC"/><path d="M0 2.637c.458 0 .829-1.345.829-3.003C.829-2.026.458-3.37 0-3.37c-.458 0-.829 1.345-.829 3.004 0 1.658.371 3.003.829 3.003z" fill="#F2F1EC"/><path d="M0 2.637c.458 0 .829-1.345.829-3.003C.829-2.026.458-3.37 0-3.37c-.458 0-.829 1.345-.829 3.004 0 1.658.371 3.003.829 3.003z" fill="#F2F1EC"/><path d="M0 2.637c.458 0 .829-1.345.829-3.003C.829-2.026.458-3.37 0-3.37c-.458 0-.829 1.345-.829 3.004 0 1.658.371 3.003.829 3.003z" fill="#F2F1EC"/><path d="M38.386 49.512l.81-1.248" stroke="#F2F1EC" stroke-width=".4"/><path d="M0 1.31c.512 0 .927-.751.927-1.676 0-.926-.415-1.676-.927-1.676s-.927.75-.927 1.676c0 .925.415 1.675.927 1.675zm50.696 26.108c.512 0 .927-.75.927-1.675 0-.926-.415-1.676-.927-1.676-.513 0-.928.75-.928 1.676 0 .925.415 1.675.928 1.675z" fill="#F2F1EC"/><path d="M50.2 26.226c.512 0 .927-.75.927-1.676 0-.925-.415-1.675-.928-1.675-.512 0-.927.75-.927 1.675s.415 1.676.928 1.676zM49.5 21c3.492 0 7.176-2.128 7.176-4.348 0-2.22-2.83-4.019-6.322-4.019S44 14.78 44 17s2.008 4 5.5 4z" fill="#F2F1EC"/><path d="M65 13.998H50.222v12.987H65V13.998z" fill="#F2F1EC"/><path d="M65 .634H38.662v14.925H65V.633zM18.985 48.907c1.535 0 2.78-1.131 2.78-2.526 0-1.396-1.245-2.527-2.78-2.527-1.535 0-2.78 1.131-2.78 2.526 0 1.396 1.245 2.527 2.78 2.527zm5.821.333H9.414v12.044h15.392V49.24z" fill="#F2F1EC"/><path d="M19.05 43.728H13v19.905h6.05V43.728zM0 1.31c.512 0 .927-.751.927-1.676 0-.926-.415-1.676-.927-1.676s-.927.75-.927 1.676c0 .925.415 1.675.927 1.675z" fill="#F2F1EC"/><path d="M15.254 37.373H1v27.26h14.254v-27.26z" fill="#F2F1EC"/><path d="M15 44.324c1.105 0 2-1.391 2-3.108s-.895-3.108-2-3.108-2 1.391-2 3.108.895 3.108 2 3.108zm30.34-27.03c.294 0 .531-.137.531-.305 0-.17-.237-.306-.53-.306-.294 0-.532.137-.532.306 0 .168.238.305.531.305z" fill="#F2F1EC"/><path fill-rule="evenodd" clip-rule="evenodd" d="M27.27 59.487c.808 2.433 2.97 4.097 5.458 4.097 2.489 0 4.65-1.664 5.458-4.097 1.218-.337 2.122-1.495 2.122-2.88 0-1.293-.942-1.768-.947-1.84.076-.269.947-.436.947-2.148 0-.707-.244-1.35-.636-1.863.59-1.673 1.513-3.012 2.588-4.248l2.005-2.136c1.034-1.062 2.07-2.146 2.963-3.4l1.333-2.294c.642-1.4 1.082-3.024 1.193-4.998l-.019-1.994-.242.948c0 5.186-2.907 7.995-5.535 10.692-1.81 1.857-3.876 3.505-4.958 6.303-.181-.039-1.342 0-1.534 0h-3.79v-4.984c0-1.649-1.276-2.99-2.843-2.99h-1.895c-.522 0-.947-.447-.947-.997s.425-.997.947-.997h10.475c1.568 0 2.843-1.342 2.843-2.99 0-1.65-1.275-2.99-2.843-2.99h-8.58c-.522 0-.947-.447-.947-.998H27.99c0 1.649 1.275 2.99 2.842 2.99h8.58c.523 0 .948.447.948.997s-.425.964-.948.964H28.938c-1.567 0-2.842 1.375-2.842 3.024 0 1.648 1.275 2.99 2.842 2.99h1.895c.522 0 .948.447.948.997v4.984h-3.79c-.193 0-.38.02-.561.06l.56 1.934h9.476c.522 0 .947.446.947.996s-.425.997-.947.997H27.99v1.994h9.475c.522 0 .947.446.947.997 0 .55-.425.996-.947.996H27.99l-.72 1.884zm2.12.11c.691 1.21 1.939 1.994 3.338 1.994 1.4 0 2.648-.784 3.34-1.994h-6.679zM7.121 46.875l9.313-9.313 1.023 1.929-7.965 7.965 3.743 3.743 7.66-7.659 1.49 1.462-7.674 7.673 3.744 3.744 7.285-7.287.105 2.847-6.809 6.81-13.472 5.182a2.808 2.808 0 01-3.624-3.623l5.18-13.473zm1.292 2.455l8.168 8.167-6.915 2.66-3.912-3.913 2.66-6.914zM3.84 61.353c0 .484.523.844.975.67l2.718-1.047-2.6-2.6-1.046 2.72a.736.736 0 00-.047.257zM61.797 16.39L50.004 28.184l-.833-2.048 5.443-5.443-3.655-3.654-2.355 2.356-2.356 2.356-1.439-1.444 4.71-4.71-3.655-3.654-5.438 5.438-2.04-.84 11.78-11.782a8.172 8.172 0 015.816-2.41c4.535 0 8.225 3.69 8.225 8.226a8.173 8.173 0 01-2.41 5.817zM55.982 4.388a6.195 6.195 0 016.187 6.187 6.147 6.147 0 01-1.812 4.375l-1.245 1.245-8.75-8.75L51.607 6.2a6.15 6.15 0 014.375-1.812zm-7.06 4.498l-1.617 1.617 8.75 8.75 1.616-1.617-8.75-8.75z" fill="#2F5373"/><path d="M38.511 45.315h-1.824v2.32h1.824v-2.32z" fill="#F2F1EC"/><path d="M37.511 45.315h-1.824v2.32h1.824v-2.32zM1.824-.366H0v2.32h1.824v-2.32zM47 34h-4l-.5 2.5-.5 2-1.5 1-4 1.5 1.5 6 2 .5 7-7.5v-6z" fill="#F2F1EC"/><path d="M47.76 31.634h-4.756v4.019h4.755v-4.02z" fill="#F2F1EC"/><path d="M49.62 29.784H43.3v4.35h6.32v-4.35zM37.782 43.655h-1.824v2.32h1.824v-2.32zM15 2.447H0v25.498h15V2.447zM39 18l-8-.366v10h9.256L39 18z" fill="#F2F1EC"/><path d="M33.656 14.829h-4.038v9.166h5.764l-1.726-9.166z" fill="#F2F1EC"/><path d="M32.155 2.33H4.89v25.318h27.265V2.33z" fill="#F2F1EC"/><path d="M33.825 14.738h-2.886v.458h2.886v-.458zm2.385-5.953H21.26v3.901h14.95V8.785z" fill="#F2F1EC"/><path fill-rule="evenodd" clip-rule="evenodd" d="M34.217 14.418c-1.404-2.453-4.042-4.114-7.066-4.114a8.13 8.13 0 00-2.232.318c-1.756-3.301-5.167-5.405-8.958-5.405-5.61 0-10.174 4.564-10.174 10.174 0 .779.096 1.546.27 2.297a6.113 6.113 0 00-4.34 5.841 6.11 6.11 0 006.105 6.105H35.29a5.092 5.092 0 005.087-5.087 5.093 5.093 0 00-5.087-5.087.271.271 0 00-.041.004.298.298 0 01-.042.004 8 8 0 00.083-1.025c0-.666-.09-1.31-.24-1.93l-.833-2.095zM7.822 19.46a4.074 4.074 0 00-4.07 4.07 4.073 4.073 0 004.07 4.069H35.29a3.056 3.056 0 003.052-3.052 3.056 3.056 0 00-3.052-3.052 3.056 3.056 0 00-3.052 3.052h-2.035c0-1.99 1.16-3.7 2.829-4.535.136-.51.224-1.034.224-1.57a6.11 6.11 0 00-6.105-6.103c-3.076 0-5.62 2.289-6.038 5.251 1.717.478 2.986 2.038 2.986 3.905h-2.034a2.037 2.037 0 00-2.035-2.035 2.037 2.037 0 00-2.035 2.035h-2.034c0-1.91 1.326-3.504 3.103-3.942a8.145 8.145 0 013.986-6.129 8.113 8.113 0 00-7.09-4.172c-4.487 0-8.138 3.651-8.138 8.139 0 .696.087 1.382.26 2.048 3.244.137 5.844 2.813 5.844 6.09H11.89a4.074 4.074 0 00-4.07-4.069z" fill="#F2F1EC"/><path d="M3.752 23.53a4.073 4.073 0 014.07-4.07 4.073 4.073 0 014.07 4.07h2.034c0-3.278-2.6-5.954-5.844-6.091a8.132 8.132 0 01-.26-2.048c0-4.488 3.651-8.14 8.139-8.14a8.113 8.113 0 017.09 4.173 8.145 8.145 0 00-3.987 6.13c-1.777.437-3.104 2.031-3.104 3.94h2.035c0-1.121.913-2.034 2.035-2.034s2.035.913 2.035 2.035h2.034c0-1.867-1.27-3.427-2.986-3.905.418-2.962 2.962-5.251 6.038-5.251a6.11 6.11 0 016.104 6.104c0 .535-.087 1.059-.223 1.57-1.669.835-2.828 2.544-2.828 4.534h2.034a3.056 3.056 0 013.052-3.052 3.056 3.056 0 013.052 3.052 3.056 3.056 0 01-3.052 3.052H7.822a4.074 4.074 0 01-4.07-4.07z" fill="#F2F1EC"/><path fill-rule="evenodd" clip-rule="evenodd" d="M34.217 14.418c-1.404-2.453-4.042-4.114-7.066-4.114a8.13 8.13 0 00-2.232.318c-1.756-3.301-5.167-5.405-8.958-5.405-5.61 0-10.174 4.564-10.174 10.174 0 .779.096 1.546.27 2.297a6.113 6.113 0 00-4.34 5.841 6.11 6.11 0 006.105 6.105H35.29a5.092 5.092 0 005.087-5.087 5.093 5.093 0 00-5.087-5.087.271.271 0 00-.041.004.298.298 0 01-.042.004 8 8 0 00.083-1.025c0-.666-.09-1.31-.24-1.93l-.833-2.095zM7.822 19.46a4.074 4.074 0 00-4.07 4.07 4.073 4.073 0 004.07 4.069H35.29a3.056 3.056 0 003.052-3.052 3.056 3.056 0 00-3.052-3.052 3.056 3.056 0 00-3.052 3.052h-2.035c0-1.99 1.16-3.7 2.829-4.535.136-.51.224-1.034.224-1.57a6.11 6.11 0 00-6.105-6.103c-3.076 0-5.62 2.289-6.038 5.251 1.717.478 2.986 2.038 2.986 3.905h-2.034a2.037 2.037 0 00-2.035-2.035 2.037 2.037 0 00-2.035 2.035h-2.034c0-1.91 1.326-3.504 3.103-3.942a8.145 8.145 0 013.986-6.129 8.113 8.113 0 00-7.09-4.172c-4.487 0-8.138 3.651-8.138 8.139 0 .696.087 1.382.26 2.048 3.244.137 5.844 2.813 5.844 6.09H11.89a4.074 4.074 0 00-4.07-4.069z" fill="#2F5373"/><path d="M25.784 51.921c.433 0 .784-.77.784-1.721 0-.951-.35-1.722-.784-1.722-.433 0-.784.77-.784 1.722 0 .95.351 1.721.784 1.721zm22.486-13.32c-.946 1.34-2.04 2.497-3.134 3.63l-2.12 2.281c-1.137 1.32-2.114 2.75-2.737 4.536L38 50c1.144-2.987 3.65-7.129 5.563-9.112 2.78-2.878 5.187-5.6 5.187-11.138l1.75-1.25.25 1.25L51 31c-.117 2.107-.643 3.657-1.321 5.152l-1.41 2.45z" fill="#2F5373"/></g><defs><clipPath id="clip0_45_968"><path fill="#fff" transform="translate(0 .634)" d="M0 0h65v64H0z"/></clipPath></defs></svg>