<svg id="eDwt59v2P0Y1" xmlns="http://www.w3.org/2000/svg" xmlns:xlink="http://www.w3.org/1999/xlink" viewBox="0 0 64 64" shape-rendering="geometricPrecision" text-rendering="geometricPrecision"><g><path d="M62,53h-1v-35c0-1.654-1.346-3-3-3h-21.184c.112-.314.184-.648.184-1v-10c0-1.654-1.346-3-3-3h-20c-1.654,0-3,1.346-3,3v10c0,.352.072.686.184,1L6,15c-1.654,0-3,1.346-3,3v35h-1c-.552,0-1,.447-1,1v4c0,2.757,2.243,5,5,5h52c2.757,0,5-2.243,5-5v-4c0-.553-.448-1-1-1ZM13,14v-10c0-.552.449-1,1-1h20c.551,0,1,.448,1,1v10c0,.552-.449,1-1,1h-6c-.552,0-1,.447-1,1v1.586l-2.293-2.293C24.52,15.105,24.265,15,24,15h-10c-.551,0-1-.448-1-1ZM5,18c0-.552.449-1,1-1h8h9.586l3.707,3.707c.191.191.447.293.707.293.129,0,.259-.024.383-.076.373-.154.617-.52.617-.924v-3h5h24c.551,0,1,.448,1,1v35h-54ZM23,55h18v1c0,.552-.449,1-1,1h-16c-.551,0-1-.448-1-1Zm38,3c0,1.654-1.346,3-3,3h-52c-1.654,0-3-1.346-3-3v-3h18v1c0,1.654,1.346,3,3,3h16c1.654,0,3-1.346,3-3v-1h18Z" fill="#2f5373"/><path d="M56,19h-25v2h24v24h-14v-2h1c.552,0,1-.447,1-1v-4c0-.553-.448-1-1-1h-1v-3c0-1.723-.876-3.245-2.207-4.145C39.536,29.128,40,28.119,40,27c0-2.206-1.794-4-4-4s-4,1.794-4,4c0,1.119.464,2.128,1.207,2.855C31.876,30.755,31,32.277,31,34v3h-6v-.172c0-1.096.307-2.143.869-3.053.35.143.73.225,1.131.225c1.654,0,3-1.346,3-3s-1.346-3-3-3-3,1.346-3,3c0,.512.141.988.368,1.41C23.481,33.701,23,35.227,23,36.828v.172h-1c-.552,0-1,.447-1,1v4c0,.553.448,1,1,1h1v2h-14v-24h15v-2h-16c-.552,0-1,.447-1,1v30c0,.553.448,1,1,1h48c.552,0,1-.447,1-1v-30c0-.553-.448-1-1-1ZM27,30c.551,0,1,.448,1,1s-.449,1-1,1-1-.448-1-1s.449-1,1-1Zm7-3c0-1.103.897-2,2-2s2,.897,2,2-.897,2-2,2-2-.897-2-2Zm-1,7c0-1.654,1.346-3,3-3s3,1.346,3,3v3h-6ZM23,39h18v2h-18Zm16,4v6h-14v-6ZM9,47h14v2h-14Zm32,2v-2h14v2Z" fill="#2f5373"/><path d="M15,9h18v2h-18Z" fill="#2f5373"/><path d="M15,5h18v2h-18Z" fill="#2f5373"/></g><g transform="matrix(.183574 0 0 0.183574 10.689058 22.507447)" opacity="0"><path d="M26.1265,47.7451c12.0798,0,21.8725-9.7927,21.8725-21.8725s-9.7927-21.8726-21.8725-21.8726C14.0466,4,4.25391,13.7927,4.25391,25.8726c0,12.0798,9.79269,21.8725,21.87259,21.8725Z" fill="none" stroke="#2f5373" stroke-width="7" stroke-linecap="round" stroke-linejoin="round"/><path d="M26.1265,12.0754v13.7972" fill="none" stroke="#2f5373" stroke-width="5.5" stroke-linecap="round" stroke-linejoin="round"/><path d="M36.0566,25.8726h-9.9301" fill="none" stroke="#2f5373" stroke-width="5.5" stroke-linecap="round" stroke-linejoin="round"/></g></svg>