<svg xmlns="http://www.w3.org/2000/svg" viewBox="0 0 64 64" shape-rendering="geometricPrecision" text-rendering="geometricPrecision"><g fill="#2f5373"><path d="M62 53h-1V18c0-1.654-1.346-3-3-3H36.816c.112-.314.184-.648.184-1V4c0-1.654-1.346-3-3-3H14c-1.654 0-3 1.346-3 3v10c0 .352.072.686.184 1H6c-1.654 0-3 1.346-3 3v35H2a1 1 0 00-1 1v4c0 2.757 2.243 5 5 5h52c2.757 0 5-2.243 5-5v-4a1 1 0 00-1-1zM13 14V4c0-.552.449-1 1-1h20c.551 0 1 .448 1 1v10c0 .552-.449 1-1 1h-6a1 1 0 00-1 1v1.586l-2.293-2.293A.997.997 0 0024 15H14c-.551 0-1-.448-1-1zm-8 4c0-.552.449-1 1-1h17.586l3.707 3.707A1 1 0 0029 20v-3h29c.551 0 1 .448 1 1v35H5zm18 37h18v1c0 .552-.449 1-1 1H24c-.551 0-1-.448-1-1zm38 3c0 1.654-1.346 3-3 3H6c-1.654 0-3-1.346-3-3v-3h18v1c0 1.654 1.346 3 3 3h16c1.654 0 3-1.346 3-3v-1h18z"/><path d="M56 19H31v2h24v24H41v-2h1a1 1 0 001-1v-4a1 1 0 00-1-1h-1v-3a4.999 4.999 0 00-2.207-4.145A3.982 3.982 0 0040 27c0-2.206-1.794-4-4-4s-4 1.794-4 4c0 1.119.464 2.128 1.207 2.855A4.999 4.999 0 0031 34v3h-6v-.172a5.79 5.79 0 01.869-3.053c.35.143.73.225 1.131.225 1.654 0 3-1.346 3-3s-1.346-3-3-3-3 1.346-3 3c0 .512.141.988.368 1.41A7.769 7.769 0 0023 36.828V37h-1a1 1 0 00-1 1v4a1 1 0 001 1h1v2H9V21h15v-2H8a1 1 0 00-1 1v30a1 1 0 001 1h48a1 1 0 001-1V20a1 1 0 00-1-1zM27 30a1.001 1.001 0 11-1 1c0-.552.449-1 1-1zm7-3c0-1.103.897-2 2-2s2 .897 2 2-.897 2-2 2-2-.897-2-2zm-1 7c0-1.654 1.346-3 3-3s3 1.346 3 3v3h-6zm-10 5h18v2H23zm16 4v6H25v-6zM9 47h14v2H9zm32 2v-2h14v2zM15 9h18v2H15zm0-4h18v2H15z"/></g></svg>