<?xml version="1.0"?>
<svg xmlns="http://www.w3.org/2000/svg" xmlns:xlink="http://www.w3.org/1999/xlink" xmlns:svgjs="http://svgjs.com/svgjs" version="1.1" width="512" height="512" x="0" y="0" viewBox="0 0 512 512" style="enable-background:new 0 0 512 512" xml:space="preserve" class=""><g>
<g xmlns="http://www.w3.org/2000/svg">
	<g>
		<path d="M478.894,21.13c-12.97-13.157-30.23-20.632-48.665-21.09C429.973,0.014,429.714,0,429.451,0H83.567    C44.509,0,12.731,31.777,12.731,70.835c0,39.058,31.776,70.835,70.834,70.835c12.173,0,23.63-3.1,33.646-8.531    c5.882,5.447,12.992,9.279,20.706,11.2v191.926c0,4.153,3.367,7.519,7.519,7.519c4.153,0,7.519-3.366,7.519-7.519V145.766h206.089    v35.041c0,4.153,3.367,7.519,7.519,7.519c4.153,0,7.519-3.366,7.519-7.519v-36.014c8.142-1.663,15.721-5.441,21.976-10.978    c9.711,5.012,20.716,7.855,32.376,7.855c39.058,0,70.834-31.777,70.834-70.835C499.272,52.113,492.035,34.461,478.894,21.13z     M364.581,130.728h-215.13c-0.732,0-1.458-0.04-2.182-0.088c-0.277-0.019-0.554-0.038-0.835-0.064    c-5.985-0.553-11.642-2.728-16.399-6.283c11.003-9.555,18.72-22.181,22.231-36.16c0.058-0.229,0.102-0.464,0.158-0.694    c0.199-0.828,0.397-1.656,0.566-2.493c0.439-2.164,0.78-4.362,1.016-6.592h203.989c1.922,18.293,10.813,34.945,24.887,46.722    C377.538,128.725,371.175,130.728,364.581,130.728z M428.436,126.631c-28.803,0-52.576-21.938-55.493-49.983    c-0.006-0.057-0.013-0.114-0.019-0.171c-0.085-0.846-0.148-1.699-0.195-2.556c-0.009-0.168-0.016-0.336-0.024-0.504    c-0.039-0.857-0.066-1.716-0.066-2.583c0-4.153-3.367-7.519-7.519-7.519H146.882c-4.153,0-7.519,3.366-7.519,7.519    c0,1.082-0.039,2.158-0.1,3.23c-0.019,0.324-0.05,0.645-0.074,0.967c-0.057,0.757-0.124,1.511-0.211,2.262    c-0.042,0.359-0.088,0.717-0.137,1.074c-0.099,0.73-0.214,1.456-0.341,2.179c-0.059,0.336-0.115,0.674-0.18,1.008    c-0.161,0.822-0.343,1.638-0.54,2.45c-0.053,0.218-0.096,0.439-0.152,0.656c-0.251,0.985-0.533,1.959-0.837,2.925    c-0.124,0.392-0.263,0.777-0.395,1.166c-0.192,0.568-0.389,1.133-0.599,1.694c-0.185,0.492-0.38,0.979-0.578,1.464    c-0.173,0.424-0.353,0.845-0.536,1.264c-0.242,0.552-0.486,1.103-0.745,1.645c-0.124,0.261-0.259,0.518-0.387,0.777    c-1.091,2.193-2.313,4.31-3.673,6.328c-0.027,0.041-0.054,0.082-0.081,0.122c-0.484,0.714-0.984,1.417-1.499,2.107    c-0.026,0.035-0.053,0.07-0.079,0.105c-2.083,2.776-4.421,5.35-6.975,7.692c-0.109,0.1-0.217,0.2-0.326,0.298    c-0.575,0.519-1.16,1.027-1.756,1.522c-0.157,0.13-0.318,0.256-0.476,0.384c-9.597,7.795-21.818,12.478-35.116,12.478    c-30.766,0-55.796-25.03-55.796-55.796c0-30.766,25.03-55.796,55.796-55.796h345.263c0.166,0.014,0.334,0.022,0.503,0.024    c30.272,0.478,54.9,25.497,54.9,55.772C484.233,101.601,459.202,126.631,428.436,126.631z" fill="#365877" data-original="#000000" style="" class=""/>
	</g>
</g>
<g xmlns="http://www.w3.org/2000/svg">
	<g>
		<path d="M82.553,33.784c-20.43,0-37.051,16.621-37.051,37.051c0,20.43,16.621,37.051,37.051,37.051s37.051-16.621,37.051-37.051    S102.983,33.784,82.553,33.784z M82.553,92.847c-12.138,0-22.012-9.875-22.012-22.012c0-12.137,9.875-22.012,22.012-22.012    c12.137,0,22.012,9.875,22.012,22.012C104.564,82.972,94.691,92.847,82.553,92.847z" fill="#365877" data-original="#000000" style="" class=""/>
	</g>
</g>
<g xmlns="http://www.w3.org/2000/svg">
	<g>
		<path d="M429.451,33.784c-20.43,0-37.051,16.621-37.051,37.051c0,20.43,16.621,37.051,37.051,37.051s37.051-16.621,37.051-37.051    C466.501,50.405,449.881,33.784,429.451,33.784z M429.451,92.847c-12.138,0-22.012-9.875-22.012-22.012    c0-12.137,9.874-22.012,22.012-22.012s22.012,9.875,22.012,22.012C451.462,82.972,441.589,92.847,429.451,92.847z" fill="#365877" data-original="#000000" style="" class=""/>
	</g>
</g>
<g xmlns="http://www.w3.org/2000/svg">
	<g>
		<path d="M431.163,450.915h-11.572v-20.234c0-14.128-11.494-25.622-25.622-25.622h-19.885V216.482c0-4.153-3.367-7.519-7.519-7.519    c-4.153,0-7.519,3.366-7.519,7.519v188.577H152.958V371.63c0-4.153-3.367-7.519-7.519-7.519c-4.153,0-7.519,3.366-7.519,7.519    v33.429h-19.885c-14.128,0-25.622,11.494-25.622,25.622v20.234H80.84c-19.635,0-35.609,15.975-35.609,35.609v17.957    c0,4.153,3.367,7.519,7.519,7.519h406.504c4.153,0,7.519-3.366,7.519-7.519v-17.957    C466.772,466.889,450.798,450.915,431.163,450.915z M107.45,430.681c0-5.836,4.748-10.584,10.583-10.584H393.97    c5.836,0,10.583,4.748,10.583,10.584v20.234H107.45V430.681z M60.269,496.961v-10.438c0-11.343,9.228-20.57,20.571-20.57h350.324    c11.343,0,20.571,9.228,20.571,20.57v10.438H60.269z" fill="#365877" data-original="#000000" style="" class=""/>
	</g>
</g>
<g xmlns="http://www.w3.org/2000/svg">
	<g>
		<path d="M195.084,160.254c-12.05,0-21.853,9.803-21.853,21.853v182.541c0,12.049,9.803,21.853,21.853,21.853    c12.05,0.001,21.853-9.803,21.853-21.852V182.107C216.937,170.058,207.134,160.254,195.084,160.254z M201.898,364.648    c0,3.758-3.057,6.814-6.814,6.814c-3.757,0-6.815-3.056-6.815-6.813V182.107c0-3.758,3.057-6.814,6.815-6.814    s6.814,3.057,6.814,6.814V364.648z" fill="#365877" data-original="#000000" style="" class=""/>
	</g>
</g>
<g xmlns="http://www.w3.org/2000/svg">
	<g>
		<path d="M256.001,160.254c-12.05,0-21.853,9.803-21.853,21.853v182.541c0,12.049,9.803,21.853,21.853,21.853    c12.05,0,21.853-9.803,21.853-21.852V182.107C277.855,170.058,268.051,160.254,256.001,160.254z M262.816,364.648    c0,3.758-3.057,6.814-6.814,6.814c-3.758,0.001-6.814-3.056-6.814-6.813V182.107c0-3.758,3.057-6.814,6.814-6.814    c3.758,0,6.814,3.057,6.814,6.814V364.648z" fill="#365877" data-original="#000000" style="" class=""/>
	</g>
</g>
<g xmlns="http://www.w3.org/2000/svg">
	<g>
		<path d="M316.92,160.254c-12.05,0-21.853,9.803-21.853,21.853v182.541c0,12.049,9.803,21.853,21.853,21.853    s21.853-9.803,21.853-21.852V182.107C338.772,170.058,328.97,160.254,316.92,160.254z M323.735,364.648    c0,3.758-3.057,6.814-6.815,6.814s-6.814-3.056-6.814-6.813V182.107c0-3.758,3.057-6.814,6.814-6.814    c3.757,0,6.815,3.057,6.815,6.814V364.648z" fill="#365877" data-original="#000000" style="" class=""/>
	</g>
</g>
<g xmlns="http://www.w3.org/2000/svg">
</g>
<g xmlns="http://www.w3.org/2000/svg">
</g>
<g xmlns="http://www.w3.org/2000/svg">
</g>
<g xmlns="http://www.w3.org/2000/svg">
</g>
<g xmlns="http://www.w3.org/2000/svg">
</g>
<g xmlns="http://www.w3.org/2000/svg">
</g>
<g xmlns="http://www.w3.org/2000/svg">
</g>
<g xmlns="http://www.w3.org/2000/svg">
</g>
<g xmlns="http://www.w3.org/2000/svg">
</g>
<g xmlns="http://www.w3.org/2000/svg">
</g>
<g xmlns="http://www.w3.org/2000/svg">
</g>
<g xmlns="http://www.w3.org/2000/svg">
</g>
<g xmlns="http://www.w3.org/2000/svg">
</g>
<g xmlns="http://www.w3.org/2000/svg">
</g>
<g xmlns="http://www.w3.org/2000/svg">
</g>
</g></svg>
