<svg xmlns="http://www.w3.org/2000/svg" width="512" height="512"><path d="M478.894 21.13C465.924 7.973 448.664.498 430.229.04a7.69 7.69 0 00-.778-.04H83.567C44.509 0 12.731 31.777 12.731 70.835c0 39.058 31.776 70.835 70.834 70.835 12.173 0 23.63-3.1 33.646-8.531a47.24 47.24 0 0020.706 11.2v191.926a7.52 7.52 0 0015.038 0V145.766h206.089v35.041a7.52 7.52 0 0015.038 0v-36.014a47.49 47.49 0 0021.976-10.978 70.392 70.392 0 0032.376 7.855c39.058 0 70.834-31.777 70.834-70.835.004-18.722-7.233-36.374-20.374-49.705zM364.581 130.728h-215.13c-.732 0-1.458-.04-2.182-.088-.277-.019-.554-.038-.835-.064a32.31 32.31 0 01-16.399-6.283 70.67 70.67 0 0022.231-36.16c.058-.229.102-.464.158-.694.199-.828.397-1.656.566-2.493.439-2.164.78-4.362 1.016-6.592h203.989c1.922 18.293 10.813 34.945 24.887 46.722a32.442 32.442 0 01-18.301 5.652zm63.855-4.097c-28.803 0-52.576-21.938-55.493-49.983l-.019-.171a56.567 56.567 0 01-.195-2.556l-.024-.504a56.716 56.716 0 01-.066-2.583 7.52 7.52 0 00-7.519-7.519H146.882a7.519 7.519 0 00-7.519 7.519c0 1.082-.039 2.158-.1 3.23-.019.324-.05.645-.074.967a56.546 56.546 0 01-.211 2.262 56.412 56.412 0 01-.478 3.253c-.059.336-.115.674-.18 1.008a56.242 56.242 0 01-.54 2.45c-.053.218-.096.439-.152.656a54.928 54.928 0 01-.837 2.925c-.124.392-.263.777-.395 1.166a55.751 55.751 0 01-.599 1.694 56.324 56.324 0 01-1.114 2.728 55.431 55.431 0 01-.745 1.645c-.124.261-.259.518-.387.777a55.738 55.738 0 01-3.673 6.328l-.081.122a56.905 56.905 0 01-1.499 2.107l-.079.105a56.236 56.236 0 01-6.975 7.692c-.109.1-.217.2-.326.298a56.45 56.45 0 01-1.756 1.522c-.157.13-.318.256-.476.384-9.597 7.795-21.818 12.478-35.116 12.478-30.766 0-55.796-25.03-55.796-55.796s25.03-55.796 55.796-55.796h345.263c.166.014.334.022.503.024 30.272.478 54.9 25.497 54.9 55.772-.003 30.766-25.034 55.796-55.8 55.796z" fill="#365877" data-original="#000000" xmlns="http://www.w3.org/2000/svg"/><path d="M82.553 33.784c-20.43 0-37.051 16.621-37.051 37.051 0 20.43 16.621 37.051 37.051 37.051s37.051-16.621 37.051-37.051-16.621-37.051-37.051-37.051zm0 59.063c-12.138 0-22.012-9.875-22.012-22.012s9.875-22.012 22.012-22.012 22.012 9.875 22.012 22.012c-.001 12.137-9.874 22.012-22.012 22.012zm346.898-59.063c-20.43 0-37.051 16.621-37.051 37.051 0 20.43 16.621 37.051 37.051 37.051s37.051-16.621 37.051-37.051c-.001-20.43-16.621-37.051-37.051-37.051zm0 59.063c-12.138 0-22.012-9.875-22.012-22.012s9.874-22.012 22.012-22.012 22.012 9.875 22.012 22.012c-.001 12.137-9.874 22.012-22.012 22.012zm1.712 358.068h-11.572v-20.234c0-14.128-11.494-25.622-25.622-25.622h-19.885V216.482a7.52 7.52 0 00-15.038 0v188.577H152.958V371.63a7.52 7.52 0 00-15.038 0v33.429h-19.885c-14.128 0-25.622 11.494-25.622 25.622v20.234H80.84c-19.635 0-35.609 15.975-35.609 35.609v17.957A7.52 7.52 0 0052.75 512h406.504a7.519 7.519 0 007.519-7.519v-17.957c-.001-19.635-15.975-35.609-35.61-35.609zM107.45 430.681c0-5.836 4.748-10.584 10.583-10.584H393.97c5.836 0 10.583 4.748 10.583 10.584v20.234H107.45v-20.234zm-47.181 66.28v-10.438c0-11.343 9.228-20.57 20.571-20.57h350.324c11.343 0 20.571 9.228 20.571 20.57v10.438H60.269z" fill="#365877" data-original="#000000" xmlns="http://www.w3.org/2000/svg"/><path d="M195.084 160.254c-12.05 0-21.853 9.803-21.853 21.853v182.541c0 12.049 9.803 21.853 21.853 21.853 12.05.001 21.853-9.803 21.853-21.852V182.107c0-12.049-9.803-21.853-21.853-21.853zm6.814 204.394a6.821 6.821 0 01-6.814 6.814c-3.757 0-6.815-3.056-6.815-6.813V182.107c0-3.758 3.057-6.814 6.815-6.814s6.814 3.057 6.814 6.814v182.541zm54.103-204.394c-12.05 0-21.853 9.803-21.853 21.853v182.541c0 12.049 9.803 21.853 21.853 21.853s21.853-9.803 21.853-21.852V182.107c.001-12.049-9.803-21.853-21.853-21.853zm6.815 204.394a6.821 6.821 0 01-6.814 6.814 6.82 6.82 0 01-6.814-6.813V182.107a6.821 6.821 0 016.814-6.814 6.821 6.821 0 016.814 6.814v182.541zm54.104-204.394c-12.05 0-21.853 9.803-21.853 21.853v182.541c0 12.049 9.803 21.853 21.853 21.853s21.853-9.803 21.853-21.852V182.107c-.001-12.049-9.803-21.853-21.853-21.853zm6.815 204.394c0 3.758-3.057 6.814-6.815 6.814s-6.814-3.056-6.814-6.813V182.107a6.821 6.821 0 016.814-6.814c3.757 0 6.815 3.057 6.815 6.814v182.541z" fill="#365877" data-original="#000000" xmlns="http://www.w3.org/2000/svg"/></svg>