<svg width="402" height="385" viewBox="0 0 402 385" fill="none" xmlns="http://www.w3.org/2000/svg">
<path d="M384.65 56.04C382.91 59.11 380.27 59.95 376.81 59.91C363.58 59.76 350.36 59.85 336.86 59.85C336.86 66.28 336.86 72.45 336.86 78.64C344.31 77 351.72 75.36 359.13 73.76C361.32 73.29 363.53 72.85 365.74 72.52C370.51 71.81 373.84 75.41 372.64 80.07C365.97 105.87 354.83 129.53 338.91 150.95C337.56 152.77 336.71 155.42 336.69 157.69C336.52 177.18 336.66 196.68 336.57 216.18C336.45 242.73 318.34 264.51 292.25 269.44C288.59 270.13 284.8 270.33 281.06 270.37C268.44 270.48 255.81 270.43 243.19 270.39C241.71 270.39 240.15 270.3 238.77 269.83C236.05 268.9 234.94 266.75 235.28 263.93C235.6 261.25 237.21 259.61 239.87 259.26C241.59 259.03 243.36 259.14 245.11 259.12C259.35 258.97 273.66 259.64 287.81 258.48C308.41 256.8 324.46 239.42 325.15 218.64C325.71 201.79 325.26 184.91 325.26 167.92C324.82 167.97 324.35 167.88 324.17 168.06C312.33 180.79 297.82 190.23 284.18 200.75C265.54 215.13 247.79 230.49 232.84 248.81C224.7 258.79 218.52 269.76 216.18 283.16C219.76 283.16 223.19 283.15 226.63 283.16C232.7 283.19 234.34 284.84 234.37 291.02C234.4 296.14 234.38 301.26 234.38 306.59C235.06 306.88 235.9 306.97 236.29 307.45C237.71 309.15 239.91 310.92 240.03 312.79C240.14 314.44 237.95 316.29 236.65 317.96C236.05 318.74 234.42 319.53 234.54 319.9C234.9 321.04 235.68 322.32 236.67 322.94C244.21 327.6 251.77 332.23 259.47 336.62C263.03 338.65 264.58 341.26 264.5 345.39C264.31 355.76 264.35 366.14 264.49 376.51C264.54 379.9 263.61 382.57 260.86 384.56C223.36 384.56 185.86 384.56 148.36 384.56C145.61 382.55 144.74 379.85 144.79 376.48C144.93 366.11 144.96 355.73 144.78 345.36C144.71 341.24 146.25 338.63 149.83 336.61C157.43 332.31 164.88 327.72 172.32 323.15C173.37 322.51 174.56 321.34 174.71 320.28C174.81 319.6 172.97 318.77 172.26 317.82C171.06 316.21 169.14 314.39 169.25 312.78C169.37 310.96 171.05 308.55 172.71 307.73C174.6 306.8 174.96 305.88 174.94 304.13C174.89 299.63 174.89 295.13 174.93 290.63C174.98 284.95 176.71 283.21 182.3 283.18C188.42 283.15 194.55 283.08 200.67 283.22C202.85 283.27 203.315 283.22 204.24 280.45C206.33 274.19 206.52 268.2 205.16 261.53C200.26 237.54 204.5 214.36 213.29 191.85C218.58 178.3 225.59 165.66 233.81 153.68C234.37 152.86 234.93 152.03 235.45 151.18C235.55 151.01 236.229 150.07 235.4 150.07C228.47 150.07 221.52 150.08 214.57 150.07C213.07 150.07 211.56 150.11 210.08 149.95C207.03 149.62 205.33 147.8 205.16 144.78C204.99 141.75 206.53 139.76 209.48 139.07C210.8 138.76 212.21 138.77 213.57 138.77C223.07 138.75 232.57 138.87 242.06 138.66C246.375 138.66 244.735 139.133 247.1 136.47C267.72 113.25 292.48 95.98 321.36 84.66C324.39 83.47 325.355 84.0779 325.23 79.0625C325.08 73.0525 325.26 67.02 325.23 61.15C325.23 60.92 325.1 60.68 324.86 59.89C323.59 59.89 322.14 59.89 320.7 59.89C280.96 59.89 241.22 59.89 201.48 59.89C194.51 59.89 193.36 58.8 192.83 51.71C191.23 30.18 174.6 13.37 153.5 11.95C132.41 10.53 113.46 24.46 109.22 45.47C107.71 52.96 108.33 60.88 108.01 68.6C107.94 70.22 108.05 71.85 107.95 73.47C107.75 76.69 105.97 78.53 102.78 78.82C99.75 79.1 96.9 77.02 96.89 73.81C96.85 62.6 95.44 51.25 98.74 40.27C105.23 18.67 119.73 5.74001 141.82 1.28001C142.52 1.14001 143.18 0.810007 143.86 0.570007C208.36 0.570007 272.86 0.570007 337.36 0.570007C338.04 0.810007 338.71 1.13001 339.41 1.27001C361.82 5.66001 376.2 18.91 382.84 40.66C383.56 43.01 384.02 45.43 384.61 47.82C384.65 50.54 384.65 53.29 384.65 56.04ZM372.91 48.43C372.59 46.73 372.42 45.5 372.12 44.3C367.31 24.97 350.85 11.88 330.59 11.83C282.62 11.7 234.64 11.78 186.67 11.8C185.92 11.8 185.18 12.01 184.01 12.18C195.63 21.89 202.12 33.9 204.07 48.43C260.35 48.43 316.4 48.43 372.91 48.43ZM253.02 348.51C251.26 348.51 249.89 348.51 248.52 348.51C235.65 348.51 222.78 348.54 209.9 348.49C205.66 348.47 203.05 346.09 203.19 342.62C203.32 339.31 205.82 337.26 209.97 337.25C218.09 337.21 226.22 337.25 234.34 337.23C235.23 337.23 236.13 337.06 237.81 336.89C235.84 335.67 234.64 334.77 233.31 334.14C226.95 331.1 221.58 327.41 222.84 319.09C222.85 319 222.71 318.89 222.62 318.76C210.6 318.76 198.57 318.76 186.41 318.76C186.35 319.78 186.17 320.54 186.27 321.25C186.97 326.3 184.77 329.52 180.27 331.68C177.45 333.03 174.89 334.91 172.21 336.55C175.35 337.28 178.21 337.13 181.04 337.32C184.05 337.53 185.85 339.35 186.1 342.37C186.36 345.59 184.63 347.6 181.59 348.32C180.28 348.63 178.86 348.5 177.48 348.5C170.51 348.51 163.55 348.51 156.4 348.51C156.4 356.93 156.4 364.98 156.4 373.06C188.71 373.06 220.77 373.06 253.01 373.06C253.02 364.89 253.02 356.95 253.02 348.51ZM342.77 89.77C342.59 89.43 342.41 89.09 342.23 88.75C333.67 92.11 324.96 95.13 316.58 98.89C292.3 109.8 271.47 125.42 254.2 145.7C253.36 146.69 252.31 148.54 252.69 149.38C255.78 156.1 259.2 162.68 262.73 169.72C286.66 139.77 313.65 113.7 342.77 89.77ZM290.61 155.68C301.13 154.87 310.58 154.23 320.01 153.31C321.52 153.16 323.29 152.11 324.29 150.93C337.58 135.15 347.74 117.51 355.12 98.25C355.5 97.27 355.72 96.23 356.26 94.35C332.6 113.36 310.96 133.16 290.61 155.68ZM243.99 157.91C239.06 166.45 234.41 174.12 230.22 182.02C229.04 184.25 228.66 187.25 228.89 189.81C229.47 196.38 230.6 202.9 231.51 209.44C231.68 210.66 231.84 211.88 232.04 213.37C239.69 202.14 246.99 191.46 254.23 180.74C254.64 180.13 254.97 179.02 254.69 178.47C251.39 171.95 247.96 165.48 243.99 157.91ZM222.82 307.09C222.82 302.92 222.82 298.88 222.82 294.65C210.67 294.65 198.64 294.65 186.6 294.65C186.6 298.94 186.6 302.97 186.6 307.09C198.69 307.09 210.42 307.09 222.82 307.09ZM310.08 166.48C309.94 166.16 309.8 165.84 309.66 165.51C300.1 166.28 290.53 167.03 280.97 167.84C280.41 167.89 279.72 168.19 279.37 168.61C275.3 173.59 271.28 178.61 266.7 184.3C273.43 183.13 279.19 182.18 284.93 181.1C288.22 180.48 291.99 180.45 294.62 178.73C300.1 175.14 304.97 170.61 310.08 166.48ZM215.28 247.71C216.75 244.5 218.23 241.29 219.68 238.07C220.75 235.7 222.75 233.25 222.62 230.92C222.24 223.81 221.03 216.75 220.14 209.66C215.64 222.03 213.9 234.6 215.28 247.71ZM242.19 220.74C242.38 220.85 242.56 220.96 242.75 221.07C252.66 212.43 262.56 203.79 272.94 194.75C267.68 195.65 262.96 196.42 258.26 197.3C257.62 197.42 256.92 198.02 256.54 198.59C251.73 205.96 246.97 213.35 242.19 220.74Z" fill="#2F5373"/>
<path d="M0.650015 214.29C2.85001 211.51 5.76002 210.9 9.20002 210.91C36.82 211.01 64.43 210.96 92.05 210.96C93.52 210.96 94.98 210.96 96.78 210.96C96.78 209.01 96.78 207.53 96.78 206.05C96.78 171.68 96.78 137.32 96.78 102.95C96.78 101.95 96.76 100.95 96.78 99.9501C96.88 95.6101 99.01 92.9601 102.41 92.9301C105.83 92.8901 108.02 95.5101 108.03 99.8601C108.05 124.23 108.04 148.6 108.04 172.96C108.04 186.71 107.88 200.45 108.08 214.2C108.33 231.48 102.26 245.88 89.29 257.35C88.93 257.67 88.64 258.06 87.69 259.1C89.68 259.1 90.96 259.1 92.24 259.1C122.48 259.1 152.72 259.1 182.96 259.1C184.21 259.1 185.46 259.07 186.71 259.15C189.92 259.34 191.8 261.06 192.12 264.26C192.43 267.31 190.43 269.73 187.18 270.25C185.84 270.47 184.44 270.4 183.07 270.4C141.33 270.41 99.59 270.41 57.86 270.4C27.65 270.39 7.40001 253.88 1.23001 224.26C1.11001 223.67 0.840015 223.11 0.640015 222.54C0.650015 219.79 0.650015 217.04 0.650015 214.29ZM12.7 222.49C13.6 242.08 34.29 259.72 55.1 259.06C76.18 258.4 96.06 240.66 95.89 222.49C68.24 222.49 40.6 222.49 12.7 222.49Z" fill="#2F5373"/>
<path d="M195.77 119.97C179.65 119.97 163.53 119.97 147.42 119.97C146.17 119.97 144.91 120.01 143.68 119.83C140.8 119.41 138.83 117.44 139.15 114.8C139.39 112.82 141.1 110.76 142.68 109.32C143.57 108.51 145.53 108.71 147 108.7C179.49 108.67 211.97 108.68 244.46 108.68C244.83 108.68 245.21 108.67 245.58 108.68C249.83 108.83 252.48 111.12 252.37 114.54C252.26 117.88 249.82 119.94 245.63 119.95C229.01 119.99 212.39 119.97 195.77 119.97Z" fill="#2F5373"/>
<path d="M258.75 89.9201C249.27 89.9201 239.78 89.9401 230.3 89.9101C225.59 89.8901 223.12 87.8601 223.19 84.1801C223.26 80.6801 225.74 78.6401 230.19 78.6401C249.28 78.6101 268.37 78.6101 287.46 78.6401C291.79 78.6501 294.44 80.8501 294.48 84.2601C294.52 87.6901 291.93 89.8801 287.57 89.9001C277.97 89.9501 268.36 89.9201 258.75 89.9201Z" fill="#2F5373"/>
<path d="M174.41 89.9202C165.05 89.9202 155.69 89.9402 146.33 89.9102C141.57 89.9002 138.99 87.9402 138.94 84.4002C138.89 80.8602 141.59 78.6502 146.17 78.6402C165.14 78.6202 184.1 78.6202 203.07 78.6402C207.67 78.6502 210.3 80.8302 210.23 84.4202C210.16 87.9202 207.73 89.8902 203.23 89.9002C193.63 89.9502 184.02 89.9202 174.41 89.9202Z" fill="#2F5373"/>
<rect x="201.594" y="150.047" width="28.1562" height="133.078" fill="#F2F1EC"/>
<path d="M325.131 163.849C325.208 157.35 325.244 150.85 325.372 144.351C325.456 139.872 327.525 137.376 331.034 137.337C334.523 137.299 336.819 139.13 336.789 143.42C336.694 156.67 336.626 170.736 336.398 183.974C336.328 188.154 334.097 190.527 330.66 190.557C327.018 190.584 324.905 188.158 324.917 183.708C324.924 177.098 325.053 170.479 325.131 163.849Z" fill="#2F5373"/>
<rect x="244.891" y="127.51" width="64.25" height="52.625" fill="#F2F1EC"/>
<rect x="336.75" y="111.375" width="64.25" height="52.625" fill="#F2F1EC"/>
<rect x="336.891" y="64.9375" width="64.25" height="52.625" fill="#F2F1EC"/>
<rect x="306.141" y="91.25" width="64.25" height="52.625" fill="#F2F1EC"/>
<rect x="254.641" y="91.25" width="64.25" height="52.625" fill="#F2F1EC"/>
<rect x="239.344" y="174.494" width="64.25" height="72.5061" fill="#F2F1EC"/>
<rect x="201.594" y="150.047" width="64.25" height="106.453" fill="#F2F1EC"/>
<rect x="303.594" y="64.9375" width="21.6406" height="52.625" fill="#F2F1EC"/>
<rect x="260.984" y="137.656" width="64.3906" height="52.625" fill="#F2F1EC"/>
<path d="M325.131 95.885C325.168 89.3851 325.163 82.885 325.252 76.3854C325.308 71.9057 327.4 69.3974 330.974 69.3376C334.528 69.2776 336.878 71.0954 336.875 75.3855C336.863 88.6356 336.884 102.701 336.737 115.941C336.692 120.121 334.435 122.508 330.934 122.558C327.224 122.607 325.056 120.195 325.04 115.745C325.005 109.135 325.094 102.515 325.131 95.885Z" fill="#2F5373"/>
<path d="M165.52 150.03C159.02 150.03 152.52 150.07 146.02 150.02C141.54 149.99 139.02 147.99 138.94 144.55C138.86 141.13 141.48 138.77 145.77 138.75C159.02 138.69 172.27 138.68 185.51 138.75C189.69 138.77 192.09 140.93 192.16 144.3C192.23 147.87 189.83 149.97 185.38 150.01C178.77 150.08 172.15 150.03 165.52 150.03Z" fill="#2F5373"/>
<path d="M165.52 150.03C159.02 150.03 152.52 150.07 146.02 150.02C141.54 149.99 139.02 147.99 138.94 144.55C138.86 141.13 141.48 138.77 145.77 138.75C159.02 138.69 172.27 138.68 185.51 138.75C189.69 138.77 192.09 140.93 192.16 144.3C192.23 147.87 189.83 149.97 185.38 150.01C178.77 150.08 172.15 150.03 165.52 150.03Z" fill="#2F5373"/>
<path d="M162.65 168.87C168.15 168.87 173.64 168.83 179.14 168.88C183.66 168.92 186.09 170.88 186.15 174.38C186.22 177.96 183.84 180.07 179.37 180.09C168.13 180.15 156.88 180.15 145.64 180.09C141.49 180.07 139.01 177.93 138.94 174.62C138.86 171.17 141.45 168.94 145.78 168.89C151.41 168.82 157.03 168.87 162.65 168.87Z" fill="#2F5373"/>
<path d="M246.02 150.03C239.52 150.03 233.02 150.07 226.52 150.02C222.04 149.99 219.52 147.99 219.44 144.55C219.36 141.13 221.98 138.77 226.27 138.75C239.52 138.69 252.77 138.68 266.01 138.75C270.19 138.77 272.59 140.93 272.66 144.3C272.73 147.87 270.33 149.97 265.88 150.01C259.27 150.08 252.65 150.03 246.02 150.03Z" fill="#2F5373"/>
<path d="M246.02 150.03C239.52 150.03 233.02 150.07 226.52 150.02C222.04 149.99 219.52 147.99 219.44 144.55C219.36 141.13 221.98 138.77 226.27 138.75C239.52 138.69 252.77 138.68 266.01 138.75C270.19 138.77 272.59 140.93 272.66 144.3C272.73 147.87 270.33 149.97 265.88 150.01C259.27 150.08 252.65 150.03 246.02 150.03Z" fill="#2F5373"/>
<path d="M366.74 72.0951C364.53 72.4251 362.32 72.8651 360.13 73.3351L337.86 78.2151L322.36 84.2351C293.48 95.5551 268.72 112.825 248.1 136.045C245.001 139.766 238.334 147.917 236.45 150.755L234.81 153.255C226.59 165.235 219.58 177.875 214.29 191.425C205.5 213.935 201.26 237.115 206.16 261.105C207.52 267.775 207.33 273.765 205.24 280.025V282.781L217.18 282.735C219.52 269.335 225.7 258.365 233.84 248.385C248.79 230.065 266.54 214.705 285.18 200.325C298.82 189.805 313.33 180.365 325.17 167.635L339.91 150.525C355.83 129.105 366.97 105.445 373.64 79.6451C374.84 74.9851 371.51 71.3851 366.74 72.0951Z" fill="#F2F1EC"/>
<path fill-rule="evenodd" clip-rule="evenodd" d="M366.74 72.0951C364.53 72.4251 362.32 72.8651 360.13 73.3351L337.86 78.2151L322.36 84.2351C293.48 95.5551 268.72 112.825 248.1 136.045C245.001 139.766 238.334 147.917 236.45 150.755L234.81 153.255C226.59 165.235 219.58 177.875 214.29 191.425C205.5 213.935 201.26 237.115 206.16 261.105C207.52 267.775 204.245 286.016 203.25 289.25L207.75 288.625H215.5C217.84 275.225 225.7 258.365 233.84 248.385C248.79 230.065 266.54 214.705 285.18 200.325C288.544 197.731 291.961 195.202 295.377 192.673C305.815 184.949 316.25 177.226 325.17 167.635L339.91 150.525C355.83 129.105 366.97 105.445 373.64 79.6451C374.84 74.9851 371.51 71.3851 366.74 72.0951ZM343.77 89.3451L343.23 88.3251C340.538 89.3817 337.831 90.4048 335.124 91.4278C329.224 93.6578 323.324 95.8875 317.58 98.4651C293.3 109.375 272.47 124.995 255.2 145.275C254.36 146.265 253.31 148.115 253.69 148.955C256.056 154.102 258.616 159.166 261.271 164.418C262.083 166.023 262.903 167.647 263.73 169.295C287.66 139.345 314.65 113.275 343.77 89.3451ZM299.071 154.691C296.637 154.873 294.155 155.059 291.61 155.255C311.96 132.735 333.6 112.935 357.26 93.9251C357.073 94.5749 356.925 95.1244 356.795 95.6057C356.549 96.5169 356.369 97.1838 356.12 97.8251C348.74 117.085 338.58 134.725 325.29 150.505C324.29 151.685 322.52 152.735 321.01 152.885C313.861 153.583 306.701 154.119 299.071 154.691ZM311.08 166.055C310.94 165.735 310.8 165.415 310.66 165.085C308.25 165.279 305.839 165.472 303.428 165.665L303.406 165.667L303.379 165.669L303.35 165.671C296.223 166.241 289.094 166.811 281.97 167.415C281.41 167.465 280.72 167.765 280.37 168.185C277.136 172.143 273.933 176.125 270.455 180.45C269.557 181.567 268.64 182.707 267.7 183.875C269.627 183.54 271.475 183.223 273.265 182.916L273.266 182.916L273.268 182.915C277.729 182.15 281.834 181.446 285.93 180.675C286.792 180.513 287.687 180.391 288.586 180.268C291.118 179.923 293.679 179.574 295.62 178.305C299.495 175.767 303.065 172.758 306.63 169.753C308.107 168.509 309.583 167.265 311.08 166.055ZM240.949 164.425C242.272 162.163 243.62 159.858 244.99 157.485C245.764 158.96 246.517 160.394 247.253 161.794L247.257 161.802L247.259 161.806L247.259 161.807C250.296 167.586 253.035 172.799 255.69 178.045C255.97 178.595 255.64 179.705 255.23 180.315C249.6 188.652 243.933 196.964 238.094 205.53C236.424 207.979 234.741 210.448 233.04 212.945C232.983 212.523 232.93 212.122 232.878 211.737L232.878 211.736C232.748 210.763 232.632 209.889 232.51 209.015C232.25 207.147 231.972 205.28 231.694 203.413C230.999 198.745 230.304 194.078 229.89 189.385C229.66 186.825 230.04 183.825 231.22 181.595C234.246 175.89 237.512 170.305 240.949 164.425ZM216.28 247.285C216.61 246.565 216.94 245.845 217.27 245.125L217.271 245.122C218.413 242.633 219.555 240.142 220.68 237.645C221.001 236.933 221.406 236.215 221.812 235.494C222.759 233.815 223.711 232.125 223.62 230.495C223.346 225.37 222.641 220.271 221.935 215.168C221.662 213.192 221.388 211.214 221.14 209.235C216.64 221.605 214.9 234.175 216.28 247.285ZM243.47 220.48C243.377 220.425 243.285 220.37 243.19 220.315C244.343 218.533 245.494 216.75 246.646 214.968C250.269 209.361 253.89 203.757 257.54 198.165C257.92 197.595 258.62 196.995 259.26 196.875C262.766 196.219 266.283 195.623 270.027 194.99C271.302 194.774 272.604 194.554 273.94 194.325C266.872 200.481 260.026 206.451 253.248 212.362C250.073 215.132 246.912 217.888 243.75 220.645C243.655 220.59 243.562 220.535 243.47 220.48Z" fill="#2F5373"/>
</svg>
