<svg width="402" height="385" fill="none" xmlns="http://www.w3.org/2000/svg"><path d="M384.65 56.04c-1.74 3.07-4.38 3.91-7.84 3.87-13.23-.15-26.45-.06-39.95-.06v18.79c7.45-1.64 14.86-3.28 22.27-4.88 2.19-.47 4.4-.91 6.61-1.24 4.77-.71 8.1 2.89 6.9 7.55-6.67 25.8-17.81 49.46-33.73 70.88-1.35 1.82-2.2 4.47-2.22 6.74-.17 19.49-.03 38.99-.12 58.49-.12 26.55-18.23 48.33-44.32 53.26-3.66.69-7.45.89-11.19.93-12.62.11-25.25.06-37.87.02-1.48 0-3.04-.09-4.42-.56-2.72-.93-3.83-3.08-3.49-5.9.32-2.68 1.93-4.32 4.59-4.67 1.72-.23 3.49-.12 5.24-.14 14.24-.15 28.55.52 42.7-.64 20.6-1.68 36.65-19.06 37.34-39.84.56-16.85.11-33.73.11-50.72-.44.05-.91-.04-1.09.14-11.84 12.73-26.35 22.17-39.99 32.69-18.64 14.38-36.39 29.74-51.34 48.06-8.14 9.98-14.32 20.95-16.66 34.35 3.58 0 7.01-.01 10.45 0 6.07.03 7.71 1.68 7.74 7.86.03 5.12.01 10.24.01 15.57.68.29 1.52.38 1.91.86 1.42 1.7 3.62 3.47 3.74 5.34.11 1.65-2.08 3.5-3.38 5.17-.6.78-2.23 1.57-2.11 1.94.36 1.14 1.14 2.42 2.13 3.04 7.54 4.66 15.1 9.29 22.8 13.68 3.56 2.03 5.11 4.64 5.03 8.77-.19 10.37-.15 20.75-.01 31.12.05 3.39-.88 6.06-3.63 8.05h-112.5c-2.75-2.01-3.62-4.71-3.57-8.08.14-10.37.17-20.75-.01-31.12-.07-4.12 1.47-6.73 5.05-8.75 7.6-4.3 15.05-8.89 22.49-13.46 1.05-.64 2.24-1.81 2.39-2.87.1-.68-1.74-1.51-2.45-2.46-1.2-1.61-3.12-3.43-3.01-5.04.12-1.82 1.8-4.23 3.46-5.05 1.89-.93 2.25-1.85 2.23-3.6-.05-4.5-.05-9-.01-13.5.05-5.68 1.78-7.42 7.37-7.45 6.12-.03 12.25-.1 18.37.04 2.18.05 2.645 0 3.57-2.77 2.09-6.26 2.28-12.25.92-18.92-4.9-23.99-.66-47.17 8.13-69.68 5.29-13.55 12.3-26.19 20.52-38.17.56-.82 1.12-1.65 1.64-2.5.1-.17.779-1.11-.05-1.11-6.93 0-13.88.01-20.83 0-1.5 0-3.01.04-4.49-.12-3.05-.33-4.75-2.15-4.92-5.17-.17-3.03 1.37-5.02 4.32-5.71 1.32-.31 2.73-.3 4.09-.3 9.5-.02 19 .1 28.49-.11 4.315 0 2.675.473 5.04-2.19 20.62-23.22 45.38-40.49 74.26-51.81 3.03-1.19 3.995-.582 3.87-5.597-.15-6.01.03-12.043 0-17.913 0-.23-.13-.47-.37-1.26H201.48c-6.97 0-8.12-1.09-8.65-8.18-1.6-21.53-18.23-38.34-39.33-39.76-21.09-1.42-40.04 12.51-44.28 33.52-1.51 7.49-.89 15.41-1.21 23.13-.07 1.62.04 3.25-.06 4.87-.2 3.22-1.98 5.06-5.17 5.35-3.03.28-5.88-1.8-5.89-5.01-.04-11.21-1.45-22.56 1.85-33.54 6.49-21.6 20.99-34.53 43.08-38.99.7-.14 1.36-.47 2.04-.71h193.5c.68.24 1.35.56 2.05.7 22.41 4.39 36.79 17.64 43.43 39.39.72 2.35 1.18 4.77 1.77 7.16.04 2.72.04 5.47.04 8.22zm-11.74-7.61c-.32-1.7-.49-2.93-.79-4.13-4.81-19.33-21.27-32.42-41.53-32.47-47.97-.13-95.95-.05-143.92-.03-.75 0-1.49.21-2.66.38 11.62 9.71 18.11 21.72 20.06 36.25h168.84zM253.02 348.51h-4.5c-12.87 0-25.74.03-38.62-.02-4.24-.02-6.85-2.4-6.71-5.87.13-3.31 2.63-5.36 6.78-5.37 8.12-.04 16.25 0 24.37-.02.89 0 1.79-.17 3.47-.34-1.97-1.22-3.17-2.12-4.5-2.75-6.36-3.04-11.73-6.73-10.47-15.05.01-.09-.13-.2-.22-.33h-36.21c-.06 1.02-.24 1.78-.14 2.49.7 5.05-1.5 8.27-6 10.43-2.82 1.35-5.38 3.23-8.06 4.87 3.14.73 6 .58 8.83.77 3.01.21 4.81 2.03 5.06 5.05.26 3.22-1.47 5.23-4.51 5.95-1.31.31-2.73.18-4.11.18-6.97.01-13.93.01-21.08.01v24.55h96.61c.01-8.17.01-16.11.01-24.55zm89.75-258.74l-.54-1.02c-8.56 3.36-17.27 6.38-25.65 10.14-24.28 10.91-45.11 26.53-62.38 46.81-.84.99-1.89 2.84-1.51 3.68 3.09 6.72 6.51 13.3 10.04 20.34 23.93-29.95 50.92-56.02 80.04-79.95zm-52.16 65.91c10.52-.81 19.97-1.45 29.4-2.37 1.51-.15 3.28-1.2 4.28-2.38 13.29-15.78 23.45-33.42 30.83-52.68.38-.98.6-2.02 1.14-3.9-23.66 19.01-45.3 38.81-65.65 61.33zm-46.62 2.23c-4.93 8.54-9.58 16.21-13.77 24.11-1.18 2.23-1.56 5.23-1.33 7.79.58 6.57 1.71 13.09 2.62 19.63.17 1.22.33 2.44.53 3.93 7.65-11.23 14.95-21.91 22.19-32.63.41-.61.74-1.72.46-2.27-3.3-6.52-6.73-12.99-10.7-20.56zm-21.17 149.18v-12.44H186.6v12.44h36.22zm87.26-140.61c-.14-.32-.28-.64-.42-.97-9.56.77-19.13 1.52-28.69 2.33-.56.05-1.25.35-1.6.77-4.07 4.98-8.09 10-12.67 15.69 6.73-1.17 12.49-2.12 18.23-3.2 3.29-.62 7.06-.65 9.69-2.37 5.48-3.59 10.35-8.12 15.46-12.25zm-94.8 81.23c1.47-3.21 2.95-6.42 4.4-9.64 1.07-2.37 3.07-4.82 2.94-7.15-.38-7.11-1.59-14.17-2.48-21.26-4.5 12.37-6.24 24.94-4.86 38.05zm26.91-26.97c.19.11.37.22.56.33 9.91-8.64 19.81-17.28 30.19-26.32-5.26.9-9.98 1.67-14.68 2.55-.64.12-1.34.72-1.72 1.29-4.81 7.37-9.57 14.76-14.35 22.15z" fill="#2F5373"/><path d="M.65 214.29c2.2-2.78 5.11-3.39 8.55-3.38 27.62.1 55.23.05 82.85.05h4.73V102.95c0-1-.02-2 0-3 .1-4.34 2.23-6.99 5.63-7.02 3.42-.04 5.61 2.58 5.62 6.93.02 24.37.01 48.74.01 73.1 0 13.75-.16 27.49.04 41.24.25 17.28-5.82 31.68-18.79 43.15-.36.32-.65.71-1.6 1.75h95.27c1.25 0 2.5-.03 3.75.05 3.21.19 5.09 1.91 5.41 5.11.31 3.05-1.69 5.47-4.94 5.99-1.34.22-2.74.15-4.11.15-41.74.01-83.48.01-125.21 0-30.21-.01-50.46-16.52-56.63-46.14-.12-.59-.39-1.15-.59-1.72.01-2.75.01-5.5.01-8.25zm12.05 8.2c.9 19.59 21.59 37.23 42.4 36.57 21.08-.66 40.96-18.4 40.79-36.57H12.7zm183.07-102.52h-48.35c-1.25 0-2.51.04-3.74-.14-2.88-.42-4.85-2.39-4.53-5.03.24-1.98 1.95-4.04 3.53-5.48.89-.81 2.85-.61 4.32-.62 32.49-.03 64.97-.02 97.46-.02.37 0 .75-.01 1.12 0 4.25.15 6.9 2.44 6.79 5.86-.11 3.34-2.55 5.4-6.74 5.41-16.62.04-33.24.02-49.86.02zm62.98-30.05c-9.48 0-18.97.02-28.45-.01-4.71-.02-7.18-2.05-7.11-5.73.07-3.5 2.55-5.54 7-5.54 19.09-.03 38.18-.03 57.27 0 4.33.01 6.98 2.21 7.02 5.62.04 3.43-2.55 5.62-6.91 5.64-9.6.05-19.21.02-28.82.02zm-84.34 0c-9.36 0-18.72.02-28.08-.01-4.76-.01-7.34-1.97-7.39-5.51-.05-3.54 2.65-5.75 7.23-5.76 18.97-.02 37.93-.02 56.9 0 4.6.01 7.23 2.19 7.16 5.78-.07 3.5-2.5 5.47-7 5.48-9.6.05-19.21.02-28.82.02z" fill="#2F5373"/><path fill="#F2F1EC" d="M201.594 150.047h28.156v133.078h-28.156z"/><path d="M325.131 163.849c.077-6.499.113-12.999.241-19.498.084-4.479 2.153-6.975 5.662-7.014 3.489-.038 5.785 1.793 5.755 6.083-.095 13.25-.163 27.316-.391 40.554-.07 4.18-2.301 6.553-5.738 6.583-3.642.027-5.755-2.399-5.743-6.849.007-6.61.136-13.229.214-19.859z" fill="#2F5373"/><path fill="#F2F1EC" d="M244.891 127.51h64.25v52.625h-64.25zm91.859-16.135H401V164h-64.25z"/><path fill="#F2F1EC" d="M336.891 64.938h64.25v52.625h-64.25z"/><path fill="#F2F1EC" d="M306.141 91.25h64.25v52.625h-64.25z"/><path fill="#F2F1EC" d="M254.641 91.25h64.25v52.625h-64.25zm-15.297 83.244h64.25V247h-64.25z"/><path fill="#F2F1EC" d="M201.594 150.047h64.25V256.5h-64.25zm102-85.109h21.641v52.625h-21.641z"/><path fill="#F2F1EC" d="M260.984 137.656h64.391v52.625h-64.391z"/><path d="M325.131 95.885c.037-6.5.032-13 .121-19.5.056-4.48 2.148-6.988 5.722-7.047 3.554-.06 5.904 1.757 5.901 6.047-.012 13.25.009 27.316-.138 40.556-.045 4.18-2.302 6.567-5.803 6.617-3.71.049-5.878-2.363-5.894-6.813-.035-6.61.054-13.23.091-19.86zM165.52 150.03c-6.5 0-13 .04-19.5-.01-4.48-.03-7-2.03-7.08-5.47-.08-3.42 2.54-5.78 6.83-5.8 13.25-.06 26.5-.07 39.74 0 4.18.02 6.58 2.18 6.65 5.55.07 3.57-2.33 5.67-6.78 5.71-6.61.07-13.23.02-19.86.02z" fill="#2F5373"/><path d="M165.52 150.03c-6.5 0-13 .04-19.5-.01-4.48-.03-7-2.03-7.08-5.47-.08-3.42 2.54-5.78 6.83-5.8 13.25-.06 26.5-.07 39.74 0 4.18.02 6.58 2.18 6.65 5.55.07 3.57-2.33 5.67-6.78 5.71-6.61.07-13.23.02-19.86.02zm-2.87 18.84c5.5 0 10.99-.04 16.49.01 4.52.04 6.95 2 7.01 5.5.07 3.58-2.31 5.69-6.78 5.71-11.24.06-22.49.06-33.73 0-4.15-.02-6.63-2.16-6.7-5.47-.08-3.45 2.51-5.68 6.84-5.73 5.63-.07 11.25-.02 16.87-.02zm83.37-18.84c-6.5 0-13 .04-19.5-.01-4.48-.03-7-2.03-7.08-5.47-.08-3.42 2.54-5.78 6.83-5.8 13.25-.06 26.5-.07 39.74 0 4.18.02 6.58 2.18 6.65 5.55.07 3.57-2.33 5.67-6.78 5.71-6.61.07-13.23.02-19.86.02z" fill="#2F5373"/><path d="M246.02 150.03c-6.5 0-13 .04-19.5-.01-4.48-.03-7-2.03-7.08-5.47-.08-3.42 2.54-5.78 6.83-5.8 13.25-.06 26.5-.07 39.74 0 4.18.02 6.58 2.18 6.65 5.55.07 3.57-2.33 5.67-6.78 5.71-6.61.07-13.23.02-19.86.02z" fill="#2F5373"/><path d="M366.74 72.095c-2.21.33-4.42.77-6.61 1.24l-22.27 4.88-15.5 6.02c-28.88 11.32-53.64 28.59-74.26 51.81-3.099 3.721-9.766 11.872-11.65 14.71l-1.64 2.5c-8.22 11.98-15.23 24.62-20.52 38.17-8.79 22.51-13.03 45.69-8.13 69.68 1.36 6.67 1.17 12.66-.92 18.92v2.756l11.94-.046c2.34-13.4 8.52-24.37 16.66-34.35 14.95-18.32 32.7-33.68 51.34-48.06 13.64-10.52 28.15-19.96 39.99-32.69l14.74-17.11c15.92-21.42 27.06-45.08 33.73-70.88 1.2-4.66-2.13-8.26-6.9-7.55z" fill="#F2F1EC"/><path fill-rule="evenodd" clip-rule="evenodd" d="M366.74 72.095c-2.21.33-4.42.77-6.61 1.24l-22.27 4.88-15.5 6.02c-28.88 11.32-53.64 28.59-74.26 51.81-3.099 3.721-9.766 11.872-11.65 14.71l-1.64 2.5c-8.22 11.98-15.23 24.62-20.52 38.17-8.79 22.51-13.03 45.69-8.13 69.68 1.36 6.67-1.915 24.911-2.91 28.145l4.5-.625h7.75c2.34-13.4 10.2-30.26 18.34-40.24 14.95-18.32 32.7-33.68 51.34-48.06 3.364-2.594 6.781-5.123 10.197-7.652 10.438-7.724 20.873-15.447 29.793-25.038l14.74-17.11c15.92-21.42 27.06-45.08 33.73-70.88 1.2-4.66-2.13-8.26-6.9-7.55zm-22.97 17.25l-.54-1.02a683.458 683.458 0 01-8.106 3.103c-5.9 2.23-11.8 4.46-17.544 7.037-24.28 10.91-45.11 26.53-62.38 46.81-.84.99-1.89 2.84-1.51 3.68 2.366 5.147 4.926 10.211 7.581 15.463.812 1.605 1.632 3.229 2.459 4.877 23.93-29.95 50.92-56.02 80.04-79.95zm-44.699 65.346c-2.434.182-4.916.368-7.461.564 20.35-22.52 41.99-42.32 65.65-61.33-.187.65-.335 1.2-.465 1.68-.246.912-.426 1.579-.675 2.22-7.38 19.26-17.54 36.9-30.83 52.68-1 1.18-2.77 2.23-4.28 2.38-7.149.698-14.309 1.234-21.939 1.806zm12.009 11.364c-.14-.32-.28-.64-.42-.97l-7.232.58-.022.002-.027.002-.029.002c-7.127.57-14.256 1.14-21.38 1.744-.56.05-1.25.35-1.6.77-3.234 3.958-6.437 7.94-9.915 12.265l-2.755 3.425c1.927-.335 3.775-.652 5.565-.959h.001l.002-.001c4.461-.765 8.566-1.469 12.662-2.24.862-.162 1.757-.284 2.656-.407 2.532-.345 5.093-.694 7.034-1.963 3.875-2.538 7.445-5.547 11.01-8.552 1.477-1.244 2.953-2.488 4.45-3.698zm-70.131-1.63c1.323-2.262 2.671-4.567 4.041-6.94a6422.4 6422.4 0 002.263 4.309l.004.008.002.004v.001c3.037 5.779 5.776 10.992 8.431 16.238.28.55-.05 1.66-.46 2.27-5.63 8.337-11.297 16.649-17.136 25.215l-5.054 7.415-.162-1.208v-.001c-.13-.973-.246-1.847-.368-2.721-.26-1.868-.538-3.735-.816-5.602-.695-4.668-1.39-9.335-1.804-14.028-.23-2.56.15-5.56 1.33-7.79 3.026-5.705 6.292-11.29 9.729-17.17zm-24.669 82.86l.99-2.16.001-.003a1198.12 1198.12 0 003.409-7.477c.321-.712.726-1.43 1.132-2.151.947-1.679 1.899-3.369 1.808-4.999-.274-5.125-.979-10.224-1.685-15.327-.273-1.976-.547-3.954-.795-5.933-4.5 12.37-6.24 24.94-4.86 38.05zm27.19-26.805l-.28-.165c1.153-1.782 2.304-3.565 3.456-5.347 3.623-5.607 7.244-11.211 10.894-16.803.38-.57 1.08-1.17 1.72-1.29 3.506-.656 7.023-1.252 10.767-1.885 1.275-.216 2.577-.436 3.913-.665a42767.328 42767.328 0 00-20.692 18.037l-9.498 8.283-.28-.165z" fill="#2F5373"/></svg>