<svg xmlns="http://www.w3.org/2000/svg" viewBox="0 0 490 490" shape-rendering="geometricPrecision" text-rendering="geometricPrecision"><path d="M389 197c52.938 0 96-43.063 96-96 0-52.938-43.063-96-96-96-38.441 0-71.586 22.762-86.902 55.473l-25.707-9.489c.304-1.968.609-3.937.609-5.984 0-22.055-17.945-40-40-40s-40 17.945-40 40 17.945 40 40 40c14.328 0 26.824-7.64 33.887-18.992l25.664 9.472C294.297 83.625 293 92.152 293 101c0 10.48 1.742 20.543 4.863 29.992l-87.984 37.29C193.769 137.823 161.793 117 125 117c-11.922 0-23.297 2.29-33.84 6.273L69.031 76.77C78.671 69.457 85 58 85 45 85 22.945 67.055 5 45 5S5 22.945 5 45s17.945 40 40 40c3.328 0 6.52-.527 9.617-1.305l22.102 46.457C48.23 146.824 29 177.672 29 213c0 33.184 16.93 62.473 42.594 79.719L56.96 319.023C53.152 317.824 49.19 317 45 317c-22.055 0-40 17.945-40 40s17.945 40 40 40 40-17.945 40-40c0-12.113-5.527-22.855-14.055-30.191l14.664-26.36C97.641 305.895 110.953 309 125 309c21.953 0 42.145-7.488 58.336-19.938l31.488 34.641C198.855 340.855 189 363.77 189 389c0 4.895.488 9.664 1.191 14.36l-37.046 8.792C146.77 398.52 133.015 389 117 389c-22.055 0-40 17.945-40 40s17.945 40 40 40 40-17.945 40-40c0-.441-.121-.855-.129-1.297l36.977-8.765C206.457 457.245 242.52 485 285 485c52.938 0 96-43.063 96-96 0-16.414-4.152-31.871-11.45-45.39l46.993-30.555C423.809 320.415 433.871 325 445 325c22.055 0 40-17.945 40-40s-17.945-40-40-40-40 17.945-40 40c0 5.168 1.063 10.078 2.855 14.617l-47.101 30.621A96.534 96.534 0 00325 301.84l39.047-108.246C372.016 195.742 380.359 197 389 197zM237 69c-13.23 0-24-10.77-24-24s10.77-24 24-24 24 10.77 24 24-10.77 24-24 24zM21 45c0-13.23 10.77-24 24-24s24 10.77 24 24-10.77 24-24 24-24-10.77-24-24zm24 336c-13.23 0-24-10.77-24-24s10.77-24 24-24 24 10.77 24 24-10.77 24-24 24zm72 72c-13.23 0-24-10.77-24-24s10.77-24 24-24 24 10.77 24 24-10.77 24-24 24zm328-192c13.23 0 24 10.77 24 24s-10.77 24-24 24-24-10.77-24-24 10.77-24 24-24zm-103.113-95.488C345.457 147.008 361.77 133 381 133h16c19.23 0 35.543 14.008 39.113 32.512C422.88 175.199 406.625 181 389 181s-33.879-5.8-47.113-15.488zM389 117c-13.23 0-24-10.77-24-24s10.77-24 24-24 24 10.77 24 24-10.77 24-24 24zm0-96c44.113 0 80 35.887 80 80 0 20-7.434 38.273-19.617 52.313-5.606-14.762-17.293-26.543-31.856-32.36C424.61 113.734 429 103.88 429 93c0-22.055-17.945-40-40-40s-40 17.945-40 40c0 10.879 4.39 20.734 11.473 27.953-14.563 5.817-26.25 17.598-31.856 32.36C316.434 139.273 309 121 309 101c0-44.113 35.887-80 80-80zM45 213c0-44.113 35.887-80 80-80s80 35.887 80 80c0 20.063-7.48 38.383-19.727 52.441-5.585-14.816-17.296-26.656-31.898-32.488 7.074-7.219 11.465-17.074 11.465-27.953 0-22.055-17.945-40-40-40s-40 17.945-40 40c0 10.879 4.39 20.734 11.472 27.953-14.519 5.79-26.19 17.527-31.816 32.23C52.383 251.16 45 232.946 45 213zm55.84-8c0-13.23 10.77-24 24-24s24 10.77 24 24-10.77 24-24 24-24-10.77-24-24zm-23.086 72.406C81.359 258.953 97.648 245 116.84 245h16c19.265 0 35.61 14.055 39.129 32.617C158.762 287.247 142.559 293 125 293c-17.688 0-33.992-5.84-47.246-15.594zm160 176C241.359 434.953 257.648 421 276.84 421h16c19.265 0 35.61 14.055 39.129 32.617C318.762 463.247 302.559 469 285 469c-17.688 0-33.992-5.84-47.246-15.594zM284.84 405c-13.23 0-24-10.77-24-24s10.77-24 24-24 24 10.77 24 24-10.77 24-24 24zM365 389c0 20.063-7.48 38.383-19.727 52.441-5.586-14.816-17.296-26.656-31.898-32.488 7.074-7.219 11.465-17.074 11.465-27.953 0-22.055-17.945-40-40-40s-40 17.945-40 40c0 10.879 4.39 20.734 11.472 27.953-14.519 5.79-26.19 17.527-31.816 32.23C212.383 427.16 205 408.946 205 389c0-44.113 35.887-80 80-80s80 35.887 80 80zm-55.047-92.594C301.984 294.258 293.641 293 285 293c-21.953 0-42.145 7.488-58.336 19.938l-31.488-34.641C211.145 261.145 221 238.23 221 213c0-10.48-1.742-20.543-4.863-29.992l87.984-37.29c9.856 18.634 25.672 33.587 44.887 42.442zm0 0" fill="#2F5373"/><g fill="#F2F1EC"><rect width="129.527" height="125.75" rx="0" ry="0" transform="matrix(1 0 0 1.12472 360.473 225.536)"/><rect width="134.055" height="80" rx="32" ry="32" transform="matrix(.98984 0 0 1.4759 69.56 366.97)"/><ellipse rx="87.635" ry="106.538" transform="matrix(1.21268 0 0 1 258.341 5)"/></g><path d="M389.236 5c36.702 0 68.601 20.773 84.67 51.155l6.243 14.69c3.113 9.427 4.851 19.465 4.851 29.92 0 25.168-9.832 48.026-25.761 65.137l-11.81 10.738c-16.152 12.418-36.294 19.888-58.193 19.888-14.013 0-27.293-3.098-39.294-8.53l-13.982-7.71c-25.6-17.205-42.489-46.421-42.489-79.524 0-35.241 19.184-66.013 47.602-82.644l14.406-6.862C365.996 7.283 377.343 5 389.236 5z" fill="#F2F1EC"/><path d="M473.906 56.155C457.837 25.773 425.938 5 389.236 5c-11.893 0-23.24 2.283-33.757 6.258l-14.406 6.862c-28.418 16.631-47.602 47.403-47.602 82.644 0 33.103 16.888 62.32 42.49 79.523L349.94 188c12.002 5.431 25.282 8.53 39.295 8.53 21.899 0 42.04-7.47 58.193-19.89l11.81-10.737c15.93-17.11 25.761-39.97 25.761-65.138 0-10.454-1.738-20.492-4.851-29.918l-6.243-14.69zm-84.67-35.194c-44.005 0-79.804 35.798-79.804 79.803 0 19.897 7.365 38.067 19.448 52.056 5.611-14.667 17.255-26.377 31.739-32.152-7.065-7.2-11.445-17.032-11.445-27.884 0-22 17.901-39.902 39.902-39.902 22 0 39.902 17.901 39.902 39.902 0 10.852-4.38 20.683-11.437 27.884 14.566 5.818 26.248 17.629 31.82 32.409 12.216-14.024 19.679-32.3 19.679-52.313 0-44.005-35.799-79.803-79.804-79.803zm-47.13 144.051c3.596-18.407 19.845-32.326 38.99-32.326h15.96c19.219 0 35.522 14.02 39.033 32.537-13.174 9.605-29.338 15.345-46.853 15.345-17.644 0-33.91-5.826-47.13-15.556zm46.97-96.17c-13.198 0-23.941 10.744-23.941 23.942s10.743 23.941 23.94 23.941c13.199 0 23.942-10.743 23.942-23.941 0-13.198-10.743-23.941-23.941-23.941z" clip-rule="evenodd" fill="#2F5373" fill-rule="evenodd"/><path d="M124.908 117.353c36.703 0 68.601 20.773 84.67 51.155l6.243 14.69c3.113 9.427 4.851 19.464 4.851 29.919 0 25.169-9.832 48.027-25.761 65.137l-11.81 10.738c-16.152 12.419-36.294 19.889-58.193 19.889-14.012 0-27.292-3.098-39.294-8.53l-13.981-7.711c-25.601-17.204-42.49-46.42-42.49-79.523 0-35.241 19.184-66.013 47.602-82.644l14.406-6.862c10.517-3.975 21.864-6.258 33.757-6.258z" fill="#F2F1EC"/><path d="M209.578 168.508c-16.069-30.382-47.967-51.155-84.67-51.155-11.893 0-23.24 2.283-33.757 6.258l-14.406 6.862c-28.418 16.63-47.602 47.403-47.602 82.644 0 33.102 16.889 62.319 42.49 79.523l13.98 7.711c12.003 5.432 25.283 8.53 39.295 8.53 21.9 0 42.04-7.47 58.193-19.889l11.81-10.738c15.93-17.11 25.761-39.968 25.761-65.137 0-10.455-1.738-20.492-4.85-29.919l-6.244-14.69zm-84.67-35.195c-44.005 0-79.804 35.799-79.804 79.804 0 19.896 7.365 38.067 19.448 52.056 5.612-14.667 17.255-26.377 31.739-32.152-7.065-7.2-11.445-17.032-11.445-27.884 0-22 17.902-39.902 39.902-39.902s39.902 17.901 39.902 39.902c0 10.852-4.38 20.683-11.437 27.884 14.566 5.818 26.248 17.629 31.82 32.408 12.216-14.023 19.679-32.299 19.679-52.312 0-44.005-35.799-79.804-79.804-79.804zm-47.13 144.052c3.596-18.407 19.845-32.326 38.99-32.326h15.96c19.219 0 35.522 14.02 39.033 32.537-13.174 9.604-29.338 15.345-46.853 15.345-17.644 0-33.909-5.826-47.13-15.556zm46.97-96.17c-13.198 0-23.941 10.744-23.941 23.942s10.743 23.94 23.941 23.94c13.198 0 23.941-10.742 23.941-23.94s-10.743-23.941-23.94-23.941z" clip-rule="evenodd" fill="#2F5373" fill-rule="evenodd"/><path d="M284.9 293.472c36.703 0 68.601 20.773 84.67 51.155l6.243 14.69c3.113 9.427 4.851 19.465 4.851 29.92 0 25.168-9.832 48.026-25.761 65.137l-11.81 10.737C326.94 477.531 306.799 485 284.9 485c-14.012 0-27.292-3.098-39.294-8.53l-13.981-7.71c-25.601-17.205-42.49-46.422-42.49-79.524 0-35.241 19.184-66.013 47.602-82.644l14.406-6.862c10.517-3.975 21.865-6.258 33.757-6.258z" fill="#F2F1EC"/><path d="M369.57 344.627c-16.069-30.382-47.967-51.155-84.67-51.155-11.893 0-23.24 2.283-33.757 6.258l-14.406 6.862c-28.418 16.63-47.601 47.403-47.601 82.644 0 33.102 16.888 62.32 42.489 79.523l13.981 7.712C257.608 481.902 270.888 485 284.9 485c21.9 0 42.041-7.47 58.193-19.889l11.81-10.737c15.93-17.111 25.761-39.97 25.761-65.138 0-10.454-1.738-20.492-4.85-29.918l-6.243-14.69zm-84.67-35.194c-44.005 0-79.804 35.798-79.804 79.803 0 19.897 7.365 38.067 19.449 52.056 5.61-14.667 17.254-26.377 31.738-32.152-7.065-7.2-11.445-17.032-11.445-27.884 0-22 17.902-39.902 39.902-39.902s39.902 17.901 39.902 39.902c0 10.852-4.38 20.683-11.437 27.884 14.566 5.818 26.249 17.629 31.82 32.409 12.216-14.024 19.68-32.3 19.68-52.313 0-44.005-35.8-79.803-79.805-79.803zm-47.13 144.051c3.597-18.407 19.846-32.326 38.99-32.326h15.96c19.219 0 35.523 14.02 39.033 32.537-13.174 9.604-29.337 15.345-46.853 15.345-17.644 0-33.909-5.826-47.13-15.556zm46.97-96.17c-13.198 0-23.94 10.744-23.94 23.942s10.742 23.941 23.94 23.941 23.941-10.743 23.941-23.941c0-13.198-10.743-23.941-23.94-23.941z" clip-rule="evenodd" fill="#2F5373" fill-rule="evenodd"/><path d="M153.175 412.625l29.347-6.87 3.709 15.593-29.408 6.883c.305 11.259-3.933 22.589-12.91 30.746-16.343 14.85-41.726 13.637-56.577-2.707-14.851-16.344-13.637-41.726 2.707-56.577 16.343-14.852 41.726-13.637 56.577 2.706 2.823 3.106 4.879 6.596 6.555 10.226z" fill="#F2F1EC"/><path d="M182.522 405.756l-29.347 6.87c-1.676-3.63-3.733-7.12-6.555-10.227-14.851-16.343-40.234-17.558-56.577-2.706-16.344 14.85-17.558 40.233-2.707 56.577 14.851 16.344 40.234 17.558 56.577 2.707 8.977-8.157 13.215-19.487 12.91-30.746l29.408-6.883 9.418-2.205-3.654-15.605-9.473 2.218zm-81.705 5.793c-9.805 8.91-10.534 24.142-1.624 33.947 8.909 9.804 24.142 10.533 33.946 1.624 9.805-8.91 10.533-24.142 1.624-33.947-8.909-9.804-24.142-10.533-33.946-1.624z" clip-rule="evenodd" fill="#2F5373" fill-rule="evenodd"/><path d="M276.42 51.246l28.344 10.25-5.396 15.091-28.403-10.272c-5.885 9.603-15.617 16.787-27.59 18.727-21.8 3.532-42.41-11.33-45.943-33.13-3.532-21.799 11.33-42.41 33.13-45.943 21.799-3.532 42.41 11.331 45.943 33.13.671 4.143.49 8.19-.084 12.147z" fill="#F2F1EC"/><path d="M304.764 61.496l-28.343-10.25c.575-3.957.755-8.004.084-12.147C272.972 17.3 252.36 2.437 230.562 5.97c-21.8 3.533-36.662 24.144-33.13 45.943 3.532 21.8 24.144 36.662 45.943 33.13 11.973-1.94 21.705-9.124 27.59-18.727l28.403 10.272 9.097 3.29 5.45-15.073-9.151-3.308zm-71.64-39.712c-13.077 2.119-21.997 14.488-19.877 27.566 2.119 13.077 14.488 21.997 27.565 19.878 13.078-2.12 21.997-14.49 19.878-27.566-2.119-13.077-14.488-21.997-27.566-19.878z" clip-rule="evenodd" fill="#2F5373" fill-rule="evenodd"/><path d="M416.132 313.886l-25.267 16.432-8.786-13.404 25.32-16.466c-4.112-10.485-3.976-22.58 1.696-33.302 10.325-19.52 34.61-27.003 54.131-16.677 19.52 10.325 27.003 34.61 16.677 54.131-10.325 19.521-34.61 27.003-54.131 16.677-3.71-1.962-6.83-4.546-9.64-7.39z" fill="#F2F1EC"/><path d="M390.865 330.318l25.267-16.432c2.81 2.845 5.93 5.429 9.64 7.391 19.52 10.326 43.806 2.844 54.131-16.677 10.326-19.52 2.844-43.806-16.677-54.131-19.52-10.326-43.806-2.844-54.131 16.677-5.671 10.721-5.808 22.817-1.695 33.302l-25.32 16.466L354.902 333l9.144 13.627 26.818-16.309zm74.876-33.209c6.195-11.71 1.705-26.284-10.006-32.479-11.71-6.194-26.284-1.704-32.479 10.007-6.194 11.71-1.704 26.284 10.007 32.479 11.71 6.194 26.284 1.704 32.478-10.007z" clip-rule="evenodd" fill="#2F5373" fill-rule="evenodd"/></svg>