<svg xmlns="http://www.w3.org/2000/svg" width="512" height="512"><g xmlns="http://www.w3.org/2000/svg" fill="#2f5373"><path d="M331.135 354.422c-21.729 16.615-47.71 25.397-75.135 25.397-68.274 0-123.82-55.545-123.82-123.82 0-27.425 8.782-53.406 25.397-75.134a7.499 7.499 0 00-1.402-10.513 7.5 7.5 0 00-10.513 1.402C127.029 196.121 117.18 225.253 117.18 256c0 76.545 62.274 138.82 138.82 138.82 30.747 0 59.879-9.849 84.246-28.482a7.501 7.501 0 00-9.111-11.916zM256 117.18c-30.747 0-59.879 9.849-84.246 28.482a7.499 7.499 0 00-1.402 10.513 7.498 7.498 0 0010.513 1.402c21.728-16.615 47.709-25.397 75.134-25.397 68.274 0 123.82 55.545 123.82 123.82 0 27.425-8.782 53.406-25.398 75.134a7.5 7.5 0 001.402 10.514 7.464 7.464 0 004.55 1.543 7.489 7.489 0 005.964-2.945c18.633-24.366 28.482-53.498 28.482-84.246.001-76.545-62.273-138.82-138.819-138.82z" data-original="#000000"/><path d="M496.854 222.095l-53.647-7.556a.57.57 0 01-.476-.447 190.785 190.785 0 00-4.053-15.172.57.57 0 01.188-.625l42.671-33.358c6.869-5.37 8.763-15.115 4.403-22.668l-16.476-28.536c-4.361-7.553-13.746-10.787-21.832-7.521l-50.264 20.29a.572.572 0 01-.637-.15 193.415 193.415 0 00-11.083-11.083.57.57 0 01-.15-.637l20.291-50.265c3.263-8.085.029-17.471-7.521-21.832L369.732 26.06c-7.554-4.362-17.297-2.469-22.668 4.402l-33.36 42.671a.565.565 0 01-.626.188 190.419 190.419 0 00-15.169-4.052.57.57 0 01-.448-.476l-7.556-53.647C288.689 6.512 281.196 0 272.476 0h-32.951c-8.72 0-16.213 6.512-17.43 15.147l-7.556 53.647a.569.569 0 01-.448.476 190.39 190.39 0 00-15.169 4.052.57.57 0 01-.626-.188l-33.359-42.671c-5.371-6.87-15.116-8.763-22.668-4.402l-28.536 16.475c-7.552 4.36-10.786 13.747-7.521 21.833l20.29 50.263a.572.572 0 01-.15.637 193.128 193.128 0 00-11.084 11.084.569.569 0 01-.636.149l-50.264-20.29c-8.087-3.265-17.473-.03-21.833 7.521L26.06 142.268c-4.36 7.552-2.468 17.297 4.402 22.668l42.671 33.359a.57.57 0 01.188.626 190.617 190.617 0 00-4.052 15.169.569.569 0 01-.476.448l-53.647 7.556C6.512 223.311 0 230.804 0 239.524v32.951c0 8.72 6.512 16.213 15.147 17.43l53.647 7.556a.569.569 0 01.476.448 190.39 190.39 0 004.052 15.169.573.573 0 01-.188.627l-42.671 33.359c-6.87 5.371-8.763 15.116-4.402 22.668l16.475 28.536c4.36 7.552 13.745 10.785 21.833 7.521l50.264-20.29c.22-.087.47-.03.637.15 3.53 3.83 7.259 7.559 11.083 11.083a.57.57 0 01.149.636l-20.29 50.263c-3.265 8.086-.031 17.472 7.521 21.833l28.536 16.475c7.553 4.36 17.297 2.468 22.668-4.402l33.36-42.672a.568.568 0 01.625-.188 190.617 190.617 0 0015.169 4.052c.239.053.415.24.448.476l7.556 53.647c1.216 8.635 8.709 15.147 17.43 15.147h32.951c8.721 0 16.214-6.512 17.43-15.147l7.556-53.646a.57.57 0 01.448-.477 190.845 190.845 0 0015.169-4.052.571.571 0 01.626.188l33.359 42.671c5.371 6.872 15.118 8.764 22.668 4.402l28.538-16.476c7.55-4.36 10.783-13.746 7.521-21.832L385.5 397.367a.573.573 0 01.149-.637 193.485 193.485 0 0011.085-11.085.575.575 0 01.636-.149l50.264 20.29c8.081 3.262 17.471.032 21.832-7.521l16.477-28.537c4.358-7.553 2.465-17.297-4.404-22.667l-42.671-33.359a.568.568 0 01-.188-.627 190.564 190.564 0 004.051-15.168.571.571 0 01.477-.448l53.647-7.556c8.635-1.216 15.146-8.709 15.146-17.43v-32.951c-.001-8.718-6.513-16.211-15.147-17.427zm.146 50.381a2.613 2.613 0 01-2.238 2.576l-53.647 7.556c-6.384.899-11.617 5.734-13.023 12.033a176.378 176.378 0 01-3.731 13.969c-1.921 6.151.196 12.948 5.269 16.913l42.671 33.359a2.613 2.613 0 01.651 3.35l-16.476 28.536a2.615 2.615 0 01-3.227 1.112l-50.264-20.29c-5.971-2.41-12.916-.846-17.281 3.893a178.2 178.2 0 01-10.222 10.221c-4.736 4.367-6.301 11.312-3.893 17.28l20.291 50.263a2.616 2.616 0 01-1.111 3.228L362.23 472.95a2.615 2.615 0 01-3.35-.651l-33.358-42.671c-3.965-5.07-10.759-7.187-16.911-5.27a175.452 175.452 0 01-13.972 3.732c-6.297 1.406-11.132 6.64-12.032 13.023l-7.556 53.647a2.614 2.614 0 01-2.576 2.239h-32.951a2.613 2.613 0 01-2.576-2.239l-7.556-53.647c-.899-6.383-5.734-11.617-12.032-13.024a175.536 175.536 0 01-13.972-3.732 15.43 15.43 0 00-4.601-.7c-4.72 0-9.321 2.145-12.31 5.969l-33.359 42.671a2.613 2.613 0 01-3.351.65l-28.536-16.475a2.615 2.615 0 01-1.112-3.227l20.29-50.263c2.41-5.97.845-12.915-3.893-17.281a178.47 178.47 0 01-10.22-10.22c-4.366-4.739-11.312-6.303-17.281-3.894l-50.264 20.29a2.612 2.612 0 01-3.227-1.112L39.05 362.232a2.614 2.614 0 01.65-3.351l42.671-33.359c5.071-3.964 7.188-10.76 5.27-16.912a175.513 175.513 0 01-3.732-13.971c-1.407-6.298-6.641-11.133-13.024-12.032l-53.647-7.556a2.614 2.614 0 01-2.239-2.576v-32.951c0-1.289.962-2.396 2.239-2.576l53.647-7.556c6.383-.899 11.617-5.734 13.024-12.032a175.536 175.536 0 013.732-13.972c1.919-6.151-.199-12.947-5.27-16.911L39.7 153.118a2.614 2.614 0 01-.65-3.351l16.475-28.536a2.614 2.614 0 013.227-1.112l50.264 20.29c5.97 2.409 12.914.845 17.28-3.893a178.47 178.47 0 0110.22-10.22c4.739-4.367 6.304-11.312 3.894-17.282l-20.29-50.263a2.614 2.614 0 011.112-3.227l28.536-16.475a2.614 2.614 0 013.351.65l33.359 42.67c3.963 5.072 10.76 7.19 16.912 5.271a175.513 175.513 0 0113.971-3.732c6.298-1.407 11.133-6.641 12.032-13.024l7.556-53.647a2.614 2.614 0 012.576-2.239h32.951c1.289 0 2.396.962 2.576 2.239l7.556 53.648c.9 6.383 5.735 11.616 12.032 13.023a175.566 175.566 0 0113.972 3.732c6.151 1.919 12.946-.199 16.911-5.27l33.359-42.671a2.613 2.613 0 013.35-.65l28.536 16.475a2.615 2.615 0 011.112 3.228l-20.291 50.265c-2.408 5.968-.844 12.912 3.894 17.28a178.13 178.13 0 0110.22 10.219c4.368 4.74 11.312 6.305 17.282 3.894l50.264-20.29a2.614 2.614 0 013.227 1.112l16.475 28.535a2.615 2.615 0 01-.65 3.352l-42.671 33.359c-5.072 3.965-7.189 10.762-5.27 16.911a175.285 175.285 0 013.732 13.972c1.406 6.298 6.64 11.133 13.023 12.032l53.647 7.556a2.613 2.613 0 012.238 2.576z" data-original="#000000"/><path d="M256 164.5c32.485 0 62.834 17.521 79.204 45.725a7.5 7.5 0 0012.973-7.529C329.134 169.883 293.813 149.5 256 149.5c-58.724 0-106.5 47.776-106.5 106.5S197.276 362.5 256 362.5c58.725 0 106.5-47.776 106.5-106.5 0-6.05-.518-12.121-1.539-18.044a7.5 7.5 0 10-14.781 2.548A91.52 91.52 0 01347.5 256c0 16.884-4.602 32.711-12.61 46.303-12.415-16.613-29.714-28.81-49.19-35.02 11.079-8.782 18.206-22.344 18.206-37.547 0-26.416-21.49-47.907-47.906-47.907s-47.907 21.491-47.907 47.907c0 15.203 7.127 28.765 18.207 37.547-19.476 6.21-36.775 18.407-49.19 35.02-8.008-13.592-12.61-29.419-12.61-46.303 0-50.453 41.047-91.5 91.5-91.5zm-32.907 65.236c0-18.145 14.762-32.907 32.907-32.907s32.906 14.762 32.906 32.907-14.762 32.906-32.906 32.906c-18.145 0-32.907-14.762-32.907-32.906zM256 277.642c28.033 0 54.278 14.29 69.669 37.604C308.872 334.968 283.874 347.5 256 347.5s-52.872-12.532-69.669-32.254c15.392-23.314 41.636-37.604 69.669-37.604z" data-original="#000000"/></g></svg>