<svg id="eV0vgIWrxH71" xmlns="http://www.w3.org/2000/svg" xmlns:xlink="http://www.w3.org/1999/xlink" viewBox="0 0 512 512" shape-rendering="geometricPrecision" text-rendering="geometricPrecision"><g><path d="M370.673,84.912c.000404-14.337064-8.635723-27.262634-21.881327-32.749471s-28.492155-2.454389-38.630133,7.683303-13.170857,25.384158-7.684393,38.629917s18.411789,21.882251,32.748853,21.882251c19.56731-.022043,35.424405-15.878691,35.447-35.446Zm-58.894,0c-.000404-9.483517,5.712017-18.033451,14.473529-21.662916s18.846648-1.623687,25.55265,5.08203s8.712212,16.790767,5.08312,25.552433-12.178782,14.474453-21.662299,14.474453c-12.942863-.014878-23.43157-10.503138-23.447-23.446Z" fill="#2f5373"/><path d="M120.928,271.567c-53.019336,0-96,42.980664-96,96s42.980664,96,96,96s96-42.980664,96-96c-.060069-52.994435-43.005565-95.939931-96-96ZM197.173,374h7.517c-1.409523,17.996509-8.527373,35.073114-20.317,48.743l-5.289-5.4c-1.489905-1.565938-3.709772-2.204418-5.803972-1.669343s-3.735721,2.160151-4.291853,4.248859.059967,4.314889,1.610825,5.820484l5.324,5.275c-13.634622,11.959283-30.827318,19.097047-48.923,20.311v-7.517c0-3.313708-2.686292-6-6-6s-6,2.686292-6,6v7.517c-18.117652-1.216694-35.332969-8.355455-48.995-20.317l5.271-5.289c2.343068-2.34721,2.33971-6.149432-.0075-8.4925s-6.149432-2.33971-8.4925.0075l-5.291,5.5C45.695808,409.06961,38.577335,391.994945,37.166,374h7.518c3.313708,0,6-2.686292,6-6s-2.686292-6-6-6h-7.518c1.216302-18.172003,8.352983-35.445033,20.318-49.176l5.289,5.181c1.129839,1.111653,2.658155,1.723988,4.243,1.7c2.428296-.016961,4.609811-1.487935,5.535867-3.73278s.416183-4.826085-1.293867-6.55022l-5.253-5.3c13.663028-11.964134,30.880021-19.105321,49-20.324v7.518c0,3.313708,2.686292,6,6,6s6-2.686292,6-6v-7.518c18.096075,1.217823,35.288277,8.357843,48.923,20.318l-5.306,5.289c-2.343068,2.33865-2.34665,6.133932-.008,8.477s6.133932,2.34665,8.477.008l5.288-5.072c11.964195,13.733187,19.098533,31.008604,20.311,49.182h-7.517c-3.313708,0-6,2.686292-6,6s2.686292,6,6,6Z" fill="#2f5373"/><path d="M158.691,321.906l-55.918,24.407c-1.387372.605308-2.494692,1.712628-3.1,3.1L75.267,405.33c-.990119,2.269499-.484419,4.914123,1.27317,6.658211s4.406034,2.229379,6.66783,1.221789l55.565-24.759c1.352996-.603229,2.435326-1.685203,3.039-3.038l24.76-55.566c1.007958-2.262021.522633-4.910912-1.221816-6.668642s-4.389583-2.263131-6.659184-1.272358ZM92.453,395.954l14.7-33.677l18.765,18.765Zm41.95-23.4l-18.765-18.765l33.677-14.7Z" fill="#2f5373"/><path d="M458.24,70h-27.469c-1.514751-.100444-3.002085.439685-4.099405,1.488708s-1.703803,2.510556-1.671595,4.028292v38.483h-41.46c5.373-9.333,9-19.633,9-30.44c0-30.358-25.71-55.056-57.313-55.056s-57.313,24.696-57.313,55.056c0,10.807,3.626,21.107,9,30.44h-187.732C84.845,114,73,125.2,73,139.536v122.483C26.185202,283.270978,-1.038619,332.819212,6.126914,383.730184s47.00826,91.019836,97.8704,98.524143s100.590516-19.389048,122.153686-66.061327l229.208-.534c28.531448-.151095,51.594136-23.298191,51.641-51.83v-245.529c-.028932-12.880927-5.190176-25.219207-14.341454-34.284152s-21.537924-14.109009-34.418546-14.015848ZM335.226,40.5c24.986,0,45.313,19.315,45.313,43.056c0,29.055-34.469,55.881-45.319,63.6-7.622764-5.428103-14.776535-11.486363-21.386-18.111-10.912-11.025-23.92-27.866-23.92-45.493c0-23.733,20.327-43.052,45.312-43.052Zm-214.298,431c-57.397881,0-103.928264-46.529786-103.929-103.927667s46.528452-103.92886,103.926333-103.930333s103.929458,46.527119,103.931667,103.925c-.062274,57.373235-46.555768,103.868517-103.929,103.933Zm334.4-67.836l-224.4.522c13.822058-41.5245,3.082476-87.293685-27.767164-118.336125s-76.551029-42.066961-118.160836-28.503875v-117.81C85,131.816,91.462,126,99.182,126h195.9c15.321,19.506,35.547,32.62,36.908,33.49c1.970506,1.259848,4.493494,1.259848,6.464,0c1.361-.87,21.588-13.984,36.909-33.49h49.637v192c-.050178,1.566503.534227,3.086914,1.620714,4.216514s2.583017,1.772698,4.150286,1.783486h24.415c21.997501-.038107,39.860892,17.763499,39.899,39.761s-17.763498,39.860892-39.761,39.899ZM495,330.69c-9.829018-11.842954-24.421576-18.693525-39.812-18.69L437,312v-230h21.239c9.69793-.096224,19.033274,3.681686,25.93478,10.495518s10.798455,16.100115,10.82622,25.798482Z" fill="#2f5373"/><path d="M416.755,345h-59.693c-4.676604.046644-9.178498-1.77473-12.50704-5.060093s-5.20854-7.763093-5.22296-12.439907c-.017952-7.858627-3.163615-15.386823-8.742241-20.921919s-13.131232-8.62169-20.989759-8.578081c0,0-24.1,0-24.1,0-8.008129,0-14.5-6.491871-14.5-14.5s6.491871-14.5,14.5-14.5c0,0,56.778,0,56.778,0c7.912965.050858,15.516441-3.070706,21.111-8.667c8.533401-8.596649,11.086197-21.469044,6.479289-32.67162s-15.476898-18.555033-27.589289-18.66138c0,0-83.4,0-83.4,0-9.629,0-17.462-7.371-17.462-17s7.833-17,17.462-17h77.98c3.313708,0,6-2.686292,6-6s-2.686292-6-6-6h-77.98c-16.016258,0-29,12.983742-29,29s12.983742,29,29,29c0,0,83.4,0,83.4,0c9.898745.116707,17.860167,8.177569,17.854,18.077.005566,9.873984-7.980068,17.89048-17.854,17.923c0,0-56.779,0-56.779,0-14.635546,0-26.5,11.864454-26.5,26.5s11.864454,26.5,26.5,26.5h24.1c4.676776-.046912,9.178928,1.774344,12.507688,5.059736s5.208894,7.763275,5.223312,12.440264c.017954,7.858279,3.163343,15.38617,8.741535,20.921208s13.130284,8.621867,20.988465,8.578792h59.693c3.313708,0,6,2.686292,6,6s-2.686292,6-6,6h-126.222c-3.313708,0-6,2.686292-6,6s2.686292,6,6,6h126.223c9.941125,0,18-8.058875,18-18s-8.058875-18-18-18Z" fill="#2f5373"/><path d="M260.528,354.251c-8.673379,0-16.492703,5.224771-19.811768,13.237967s-1.484225,17.236722,4.648924,23.369584s15.356759,7.967274,23.3698,4.647835s13.237448-11.139007,13.237044-19.812386c-.013777-11.837321-9.606679-21.429775-21.444-21.443Zm0,30.887c-5.215777,0-9.444-4.228223-9.444-9.444s4.228223-9.444,9.444-9.444s9.444,4.228223,9.444,9.444c-.005512,5.213492-4.230508,9.438488-9.444,9.444Z" fill="#2f5373"/><path d="M102,135.11c-3.313708,0-6,2.686292-6,6v3.649c0,3.313708,2.686292,6,6,6s6-2.686292,6-6v-3.649c0-3.313708-2.686292-6-6-6Z" fill="#2f5373"/><path d="M102,158.13c-3.313708,0-6,2.686292-6,6v67.844c0,3.313708,2.686292,6,6,6s6-2.686292,6-6v-67.844c0-3.313708-2.686292-6-6-6Z" fill="#2f5373"/></g><path d="" fill="none" stroke="#3f5787" stroke-width="1.024"/><path d="" fill="none" stroke="#3f5787" stroke-width="1.024"/><rect width="80.281" height="37" rx="0" ry="0" transform="translate(295.082 126)" fill="#f2f1ec" stroke-width="0"/><rect width="121.54" height="97.483675" rx="0" ry="0" transform="translate(271 16.516326)" fill="#f2f1ec" stroke-width="0"/><g transform="matrix(.379538 0 0 0.369332 276.017595 17.045176)"><path d="M150.435,0.099123C72.9937,2.75067,9.0446,62.9564,1.63586,140.007c-1.403758,14.818-.779866,29.791,2.02766,44.297.07798.624.38993,2.339,1.01382,5.069c2.3396,10.528,5.84896,20.744,10.37226,30.571C30.8029,257.143,65.195,314.386,139.594,376.073c4.602,3.821,10.451,5.927,16.378,5.927c6.005,0,11.776-2.106,16.377-5.927c74.321-61.687,108.713-118.93,124.545-156.129c4.523-9.827,8.032-20.121,10.372-30.415.39-1.716.78-3.354,1.014-4.991c1.871-9.671,2.807-19.575,2.807-29.401c0-87.4234-72.761-158.15735-160.652-155.037877ZM281.998,179.469c0,.156-.078.312-.078.39-.078.233-.234,1.403-.78,3.587-1.949,8.734-4.913,17.313-8.656,25.424-.078.156-.156.234-.156.39-14.506,34.392-46.48,87.501-116.356,145.601C86.0955,296.683,54.1209,243.574,39.6154,209.26c-.078-.156-.078-.234-.156-.39-3.7433-8.189-6.7068-16.69-8.6565-25.58-.3899-1.794-.6239-2.886-.7019-3.276c0-.155-.078-.389-.078-.545-2.3396-12.088-2.8855-24.566-1.7157-36.888C34.4683,78.8657,87.3433,29.1102,151.448,26.8486c1.56-.078,3.042-.078,4.602-.078c70.734,0,128.366,57.5542,128.366,128.3664-.078,8.11-.858,16.299-2.418,24.332Z" fill="#2f5373"/><path d="M150.435,0.099123C72.9937,2.75067,9.0446,62.9564,1.63586,140.007c-1.403758,14.818-.779866,29.791,2.02766,44.297.07798.624.38993,2.339,1.01382,5.069c2.3396,10.528,5.84896,20.744,10.37226,30.571C30.8029,257.143,65.195,314.386,139.594,376.073c4.602,3.821,10.451,5.927,16.378,5.927c6.005,0,11.776-2.106,16.377-5.927c74.321-61.687,108.713-118.93,124.545-156.129c4.523-9.827,8.032-20.121,10.372-30.415.39-1.716.78-3.354,1.014-4.991c1.871-9.671,2.807-19.575,2.807-29.401c0-87.4234-72.761-158.15735-160.652-155.037877ZM281.998,179.469c0,.156-.078.312-.078.39-.078.233-.234,1.403-.78,3.587-1.949,8.734-4.913,17.313-8.656,25.424-.078.156-.156.234-.156.39-14.506,34.392-46.48,87.501-116.356,145.601C86.0955,296.683,54.1209,243.574,39.6154,209.26c-.078-.156-.078-.234-.156-.39-3.7433-8.189-6.7068-16.69-8.6565-25.58-.3899-1.794-.6239-2.886-.7019-3.276c0-.155-.078-.389-.078-.545-2.3396-12.088-2.8855-24.566-1.7157-36.888C34.4683,78.8657,87.3433,29.1102,151.448,26.8486c1.56-.078,3.042-.078,4.602-.078c70.734,0,128.366,57.5542,128.366,128.3664-.078,8.11-.858,16.299-2.418,24.332Z" transform="matrix(1.06 0 0 1.06-9.36001-11.459992)" fill="#2f5373"/><path d="M281.998,179.469c0,.156-.078.312-.078.39-.078.233-.234,1.403-.78,3.587-1.949,8.734-4.913,17.313-8.656,25.424-.078.156-.156.234-.156.39-14.506,34.392-46.48,87.501-116.356,145.601C86.0955,296.683,54.1209,243.574,39.6154,209.26c-.078-.156-.078-.234-.156-.39-3.7433-8.189-6.7068-16.69-8.6565-25.58-.3899-1.794-.6239-2.886-.7019-3.276c0-.155-.078-.389-.078-.545-2.3396-12.088-2.8855-24.566-1.7157-36.888C34.4683,78.8657,87.3433,29.1102,151.448,26.8486c1.56-.078,3.042-.078,4.602-.078c70.734,0,128.366,57.5542,128.366,128.3664-.078,8.11-.858,16.299-2.418,24.332Z" fill="#f2f1ec"/><path d="M155.972,74.4985c-45.311,0-82.2764,36.8875-82.2764,82.2765c0,45.388,36.9654,82.198,82.2764,82.198c45.31,0,82.276-36.888,82.276-82.276c0-45.389-36.966-82.1985-82.276-82.1985Zm0,137.7245c-30.571,0-55.527-24.878-55.527-55.526c0-30.571,24.878-55.527,55.527-55.527c30.57,0,55.526,24.878,55.526,55.527c0,30.648-24.956,55.526-55.526,55.526Z" transform="matrix(1.1 0 0 1.1-15.59718-15.673576)" fill="#2f5373"/></g></svg>