<svg xmlns="http://www.w3.org/2000/svg" viewBox="0 0 512 512" shape-rendering="geometricPrecision" text-rendering="geometricPrecision"><g fill="#2f5373"><path d="M370.673 84.912a35.447 35.447 0 10-35.447 35.446c19.567-.022 35.424-15.879 35.447-35.446zm-58.894 0a23.447 23.447 0 1123.447 23.446c-12.943-.015-23.432-10.503-23.447-23.446zM120.928 271.567c-53.02 0-96 42.98-96 96s42.98 96 96 96 96-42.98 96-96c-.06-52.994-43.006-95.94-96-96zM197.173 374h7.517a84.767 84.767 0 01-20.317 48.743l-5.289-5.4a5.971 5.971 0 10-8.485 8.4l5.324 5.275A82.574 82.574 0 01127 451.329v-7.517a6 6 0 00-12 0v7.517a82.8 82.8 0 01-48.995-20.317l5.271-5.289a6.005 6.005 0 00-8.5-8.485l-5.291 5.5A84.77 84.77 0 0137.166 374h7.518a6 6 0 000-12h-7.518a83.324 83.324 0 0120.318-49.176l5.289 5.181a5.922 5.922 0 004.243 1.7 6.034 6.034 0 004.242-10.283l-5.253-5.3a82.815 82.815 0 0149-20.324v7.518a6 6 0 0012 0v-7.518a82.6 82.6 0 0148.923 20.318l-5.306 5.289a5.994 5.994 0 108.469 8.485l5.288-5.072A83.316 83.316 0 01204.69 362h-7.517a6 6 0 000 12z"/><path d="M158.691 321.906l-55.918 24.407a6 6 0 00-3.1 3.1L75.267 405.33a6 6 0 007.941 7.88l55.565-24.759a6.006 6.006 0 003.039-3.038l24.76-55.566a6 6 0 00-7.881-7.941zm-66.238 74.048l14.7-33.677 18.765 18.765zm41.95-23.4l-18.765-18.765 33.677-14.7z"/><path d="M458.24 70h-27.469A5.414 5.414 0 00425 75.517V114h-41.46c5.373-9.333 9-19.633 9-30.44 0-30.358-25.71-55.056-57.313-55.056S277.914 53.2 277.914 83.56c0 10.807 3.626 21.107 9 30.44H99.182C84.845 114 73 125.2 73 139.536v122.483c-46.815 21.252-74.039 70.8-66.873 121.711s47.008 91.02 97.87 98.524 100.59-19.389 122.154-66.061l229.208-.534c28.531-.151 51.594-23.298 51.641-51.83V118.3A48.41 48.41 0 00458.24 70zM335.226 40.5c24.986 0 45.313 19.315 45.313 43.056 0 29.055-34.469 55.881-45.319 63.6a167.257 167.257 0 01-21.386-18.111c-10.912-11.025-23.92-27.866-23.92-45.493 0-23.733 20.327-43.052 45.312-43.052zm-214.298 431C63.53 471.5 17 424.97 16.999 367.572s46.528-103.929 103.926-103.93 103.93 46.527 103.932 103.925c-.062 57.373-46.556 103.869-103.929 103.933zm334.4-67.836l-224.4.522c13.822-41.525 3.082-87.294-27.767-118.336S126.61 243.783 85 257.346v-117.81C85 131.816 91.462 126 99.182 126h195.9c15.321 19.506 35.547 32.62 36.908 33.49a6 6 0 006.464 0c1.361-.87 21.588-13.984 36.909-33.49H425v192a5.814 5.814 0 005.771 6h24.415c21.998-.038 39.86 17.763 39.899 39.761s-17.763 39.86-39.761 39.899zM495 330.69A51.722 51.722 0 00455.188 312H437V82h21.239A36.4 36.4 0 01495 118.294z"/><path d="M416.755 345h-59.693a17.555 17.555 0 01-17.73-17.5A29.568 29.568 0 00309.6 298h-24.1c-8.008 0-14.5-6.492-14.5-14.5s6.492-14.5 14.5-14.5h56.778a29.582 29.582 0 0021.111-8.667A30.117 30.117 0 00342.279 209h-83.4c-9.629 0-17.462-7.371-17.462-17s7.833-17 17.462-17h77.98a6 6 0 000-12h-77.98c-16.016 0-29 12.984-29 29s12.984 29 29 29h83.4c9.899.117 17.86 8.178 17.854 18.077.006 9.874-7.98 17.89-17.854 17.923H285.5c-14.636 0-26.5 11.864-26.5 26.5s11.864 26.5 26.5 26.5h24.1a17.555 17.555 0 0117.731 17.5 29.568 29.568 0 0029.73 29.5h59.693a6 6 0 010 12H290.532a6 6 0 000 12h126.223c9.941 0 18-8.059 18-18s-8.059-18-18-18zm-156.227 9.251a21.444 21.444 0 1021.444 21.443c-.014-11.837-9.607-21.43-21.444-21.443zm0 30.887a9.444 9.444 0 119.444-9.444 9.454 9.454 0 01-9.444 9.444zM102 135.11a6 6 0 00-6 6v3.649a6 6 0 0012 0v-3.649a6 6 0 00-6-6zm0 23.02a6 6 0 00-6 6v67.844a6 6 0 0012 0V164.13a6 6 0 00-6-6z"/></g><rect width="80.281" height="37" rx="0" ry="0" transform="translate(295.082 126)" fill="#f2f1ec"/><rect width="121.54" height="97.484" rx="0" ry="0" transform="translate(271 16.516)" fill="#f2f1ec"/><path d="M333.113 17.082c-29.392.98-53.663 23.215-56.475 51.672-.532 5.473-.296 11.003.77 16.36.03.231.148.864.385 1.873.888 3.888 2.22 7.661 3.936 11.29 5.98 13.74 19.033 34.881 47.27 57.664a9.944 9.944 0 006.216 2.189c2.279 0 4.47-.778 6.216-2.189 28.207-22.783 41.26-43.925 47.27-57.663a56.448 56.448 0 003.936-11.234c.148-.633.296-1.238.385-1.843a55.843 55.843 0 001.065-10.859c0-32.288-27.616-58.412-60.974-57.26zm49.934 66.247c0 .057-.03.115-.03.144-.03.086-.089.518-.296 1.325a46.035 46.035 0 01-3.285 9.39c-.03.057-.06.086-.06.144-5.505 12.702-17.64 32.317-44.161 53.775-26.52-21.487-38.656-41.102-44.162-53.775-.03-.058-.03-.087-.06-.144-1.42-3.025-2.545-6.165-3.285-9.448-.148-.663-.236-1.066-.266-1.21 0-.057-.03-.144-.03-.201a46.716 46.716 0 01-.65-13.624c2.338-23.532 22.406-41.908 46.736-42.744.592-.029 1.154-.029 1.746-.029 26.847 0 48.72 21.257 48.72 47.41a48.465 48.465 0 01-.917 8.987z" fill="#2f5373"/><path d="M332.987 12.851c-31.156 1.038-56.883 24.609-59.864 54.773-.565 5.801-.314 11.663.816 17.342.031.244.157.916.408 1.985.941 4.121 2.353 8.12 4.173 11.968 6.337 14.563 20.174 36.973 50.105 61.123a10.541 10.541 0 006.59 2.32c2.415 0 4.737-.824 6.588-2.32 29.9-24.15 43.736-46.56 50.106-61.123a59.835 59.835 0 004.172-11.907c.157-.672.314-1.313.408-1.954a59.193 59.193 0 001.13-11.51c0-34.226-29.273-61.918-64.632-60.697zm52.929 70.222c0 .061-.032.122-.032.153-.031.091-.094.55-.313 1.404-.784 3.42-1.977 6.778-3.483 9.954-.031.06-.063.091-.063.152-5.835 13.464-18.699 34.256-46.81 57.002-28.113-22.776-40.976-43.568-46.812-57.002-.032-.06-.032-.091-.063-.152-1.506-3.206-2.698-6.534-3.483-10.015-.156-.702-.25-1.13-.282-1.282 0-.061-.031-.153-.031-.214-.942-4.732-1.161-9.617-.69-14.441 2.478-24.944 23.75-44.423 49.54-45.308.628-.03 1.224-.03 1.852-.03 28.457 0 51.643 22.531 51.643 50.254a51.373 51.373 0 01-.973 9.525z" fill="#2f5373"/><path d="M383.047 83.329c0 .057-.03.115-.03.144-.03.086-.089.518-.296 1.325a46.035 46.035 0 01-3.285 9.39c-.03.057-.06.086-.06.144-5.505 12.702-17.64 32.317-44.161 53.775-26.52-21.487-38.656-41.102-44.162-53.775-.03-.058-.03-.087-.06-.144-1.42-3.025-2.545-6.165-3.285-9.448-.148-.663-.236-1.066-.266-1.21 0-.057-.03-.144-.03-.201a46.716 46.716 0 01-.65-13.624c2.338-23.532 22.406-41.908 46.736-42.744.592-.029 1.154-.029 1.746-.029 26.847 0 48.72 21.257 48.72 47.41a48.465 48.465 0 01-.917 8.987z" fill="#f2f1ec"/><path d="M335.215 41.523c-18.917 0-34.35 14.986-34.35 33.426s15.433 33.394 34.35 33.394c18.916 0 34.35-14.986 34.35-33.426s-15.434-33.394-34.35-33.394zm0 55.952c-12.763 0-23.182-10.107-23.182-22.558 0-12.42 10.386-22.559 23.182-22.559 12.763 0 23.182 10.107 23.182 22.559 0 12.451-10.42 22.558-23.182 22.558z" fill="#2f5373"/></svg>