<svg xmlns="http://www.w3.org/2000/svg" viewBox="0 0 511 511" shape-rendering="geometricPrecision" text-rendering="geometricPrecision"><circle r="188.488" transform="rotate(-1.548 9587.616 -9328.024)" fill="#F2F1EC"/><path d="M260.64.27c10.72 4.07 17.25 13.18 24.97 20.83 3.41 3.38 6.53 7.09 9.51 10.86 1.95 2.46 3.65 2.4 6.34 1.12 10.03-4.77 20.09-9.51 30.33-13.78 13.8-5.75 26.62-.59 32.42 13.06 4.34 10.21 8.42 20.56 12.02 31.06 1.46 4.25 3.3 5.62 7.74 5.36 11.08-.64 22.2-.95 33.3-1 14.97-.07 24.98 9.99 24.9 25.02-.06 10.77-.47 21.55-.99 32.31-.17 3.6 1.04 5.23 4.48 6.42 10.17 3.53 20.29 7.26 30.26 11.34 13.99 5.73 19.4 18.53 13.69 32.54-4.38 10.74-9.17 21.32-14.11 31.81-1.44 3.05-.81 4.59 1.5 6.69 8.35 7.57 16.69 15.19 24.67 23.15 11.47 11.47 11.47 24.91.03 36.42-7.37 7.4-15.05 14.51-22.85 21.45-2.82 2.51-3.42 4.33-1.65 7.9 4.85 9.8 9.41 19.76 13.58 29.87 5.58 13.51.37 26.34-13.02 32.05-10.36 4.42-20.88 8.52-31.53 12.18-4.15 1.42-5.26 3.34-5.04 7.48.58 11.25.95 22.53.99 33.8.05 14.43-9.98 24.58-24.34 24.57-10.94 0-21.88-.45-32.81-.93-3.46-.15-5.32.65-6.55 4.25a573.107 573.107 0 01-11.31 30.27c-5.65 13.9-18.7 19.52-32.49 13.9-10.74-4.38-21.32-9.17-31.82-14.09-2.95-1.38-4.56-1.08-6.72 1.32-7.43 8.26-14.95 16.46-22.78 24.33-12.06 12.13-25.32 12.08-37.48-.13-7.37-7.4-14.43-15.12-21.42-22.89-2.16-2.4-3.8-2.69-6.74-1.27-10 4.82-20.08 9.52-30.33 13.78-13.54 5.63-26.69.2-32.36-13.34-4.41-10.54-8.42-21.26-12.32-32.01-1.15-3.17-2.62-4.39-6.08-4.23-11.59.54-23.19 1-34.79 1.03-14.7.04-24.73-10.05-24.67-24.75.04-10.77.45-21.55.99-32.31.19-3.8-1.07-5.49-4.7-6.75-10.33-3.58-20.59-7.4-30.68-11.61-13.24-5.53-18.61-18.19-13.3-31.49 4.3-10.77 9.03-21.38 14.04-31.84 1.73-3.61 1.09-5.36-1.71-7.87-8.41-7.51-16.59-15.29-24.62-23.2-2.56-2.52-4.37-5.79-6.53-8.71v-17.93c3.32-4.11 6.33-8.52 10.02-12.25 6.18-6.24 12.61-12.26 19.29-17.95 3.35-2.85 3.94-4.94 1.84-9.08-4.93-9.74-9.39-19.76-13.47-29.9-5.17-12.84-.09-25.44 12.57-30.99 10.46-4.58 21.14-8.72 31.93-12.46 4.26-1.47 5.58-3.34 5.33-7.75-.63-11.24-.97-22.52-.99-33.78-.04-14.35 10.1-24.44 24.5-24.39 10.93.03 21.87.47 32.79.98 3.56.16 5.25-.96 6.44-4.43 3.51-10.17 7.25-20.28 11.33-30.24 5.73-14.01 18.51-19.46 32.49-13.77 10.74 4.37 21.31 9.16 31.8 14.08 2.97 1.39 4.69 1.16 6.7-1.37 3.19-4.02 6.47-8.03 10.15-11.6 7.9-7.67 14.42-17.06 25.33-21.15 3.96.01 7.95.01 11.93.01zM441.67 255.1c-.6-103.58-83.75-186.75-187.07-186.72-103.33.04-186.8 83.28-186.84 186.85-.04 103.68 83.59 187.14 187.22 186.97 103.4-.18 186.31-83.59 186.69-187.1zM139.79 87.24c-16.5-3.18-32.91-4.82-49.48-3.31-5.4.49-7.4 3.05-7.38 9.91.03 10.93.59 21.86 1.21 32.77.27 4.64 1.26 9.23 2.13 15.36 15.46-22 33.11-39.53 53.52-54.73zm282.92 53.18c3.23-16.37 4.69-32.64 3.4-49.04-.46-5.78-3-7.85-10.04-7.82-11.09.04-22.19.66-33.27 1.3-4.46.26-8.88 1.2-14.81 2.04 22.02 15.48 39.55 33.14 54.72 53.52zM86.9 369.53c-.64 1.13-1.06 1.54-1.09 1.97-1.04 14.69-2.4 29.37-2.91 44.09-.31 9 2.52 11.51 11.69 11.52 9.94.01 19.89-.42 29.81-1.04 5.17-.32 10.28-1.44 16.84-2.41-21.78-15.43-39.41-32.98-54.34-54.13zm282.17 53.44c.87.61 1.25 1.09 1.65 1.12 15.19 1.04 30.36 2.39 45.57 2.87 7.58.24 10.08-2.63 10.13-10.44.06-10.43-.42-20.88-1.02-31.3-.29-5.04-1.39-10.04-2.34-16.48-15.48 21.76-33.11 39.49-53.99 54.23zM293.25 56.15c-1.6-2.48-2.32-3.97-3.37-5.16-9.2-10.41-18.29-20.93-27.79-31.07-5.41-5.78-9.32-5.72-14.8-.09-8.08 8.3-15.9 16.86-23.64 25.48-2.64 2.95-4.71 6.41-7.04 9.64 25.7-3.86 50.63-3.76 76.64 1.2zM453.8 293.81c2.36-1.5 3.84-2.18 5.01-3.22 10.53-9.31 21.17-18.51 31.44-28.11 5.49-5.13 5.39-9.19-.02-14.45-8.43-8.19-17.11-16.12-25.85-23.97-2.87-2.57-6.26-4.56-10.66-7.71 5.1 26.48 5.08 51.43.08 77.46zM216.14 454.43c1.5 2.36 2.18 3.84 3.22 5.01 9.31 10.53 18.51 21.17 28.11 31.44 5.13 5.49 9.19 5.4 14.45-.02 8.19-8.43 16.12-17.11 23.97-25.85 2.57-2.87 4.56-6.26 7.71-10.66-26.47 5.1-51.42 5.08-77.46.08zM54.57 217.1c-14.15 9.71-26.34 20.81-37.38 33.17-3.32 3.71-2.45 7.77.87 11.12 5.82 5.89 11.61 11.82 17.78 17.33 5.85 5.22 12.18 9.91 18.79 15.24-1.09-13.67-2.87-26.15-2.87-38.62-.01-12.49 1.76-24.97 2.81-38.24zm16.17-69.94c-11.91 4.85-23.33 9.21-34.47 14.19-4.62 2.07-4.46 6.66-2.87 10.85 1.94 5.11 4.05 10.17 6.33 15.13 2.32 5.05 4.94 9.95 7.58 15.22 2.64-1.52 4.51-3.06 6.65-3.74 5.75-1.82 7.96-6.17 9.78-11.44 2.37-6.87 4.79-13.91 8.48-20.1 4.3-7.21.53-12.8-1.48-20.11zM362.6 71.01c-4.6-11.4-8.93-22.65-13.71-33.7-1.85-4.27-5.95-5.24-11.14-3.28-4.96 1.87-9.86 3.91-14.68 6.13-5.2 2.39-10.26 5.06-15.68 7.76 1.54 2.67 3.02 4.55 3.77 6.68 1.89 5.36 5.72 7.89 10.99 9.58 6.45 2.05 13.04 4.32 18.75 7.83 7.32 4.49 13.7 2.71 21.7-1zm99.9 236.75c-3.19 1.83-5.2 3.42-7.48 4.21-5.26 1.82-7.54 5.66-9.19 10.71-2.1 6.43-4.42 12.97-7.83 18.76-3.7 6.29-3.24 12-.81 18.29.95 2.46 2.01 3.03 4.42 2.08 10.01-3.96 20.12-7.67 30.07-11.78 4.74-1.96 6.53-5.77 4.59-10.61-4.2-10.41-8.94-20.62-13.77-31.66zm-414.65 1.47c-4.68 11.55-9.59 23.18-14.05 34.99-1.22 3.23.59 6.47 3.79 7.81 10.77 4.49 21.67 8.66 32.89 13.11 1.07-3.73 1.54-6.54 2.67-9.06 1.94-4.29 1.34-8-.75-12.15-3.12-6.18-6.3-12.52-8.01-19.17-2.16-8.43-7.53-12.64-16.54-15.53zm154.36 153.91c-1.84-3.2-3.33-5.08-4.08-7.22-1.89-5.38-5.77-7.86-11.03-9.53-6.29-2.01-12.6-4.37-18.32-7.61-6.2-3.51-11.89-3.69-18.27-1.05-2.63 1.09-3.37 2.05-2.32 4.69 3.91 9.85 7.55 19.81 11.58 29.61 2.01 4.9 5.62 6.83 10.44 4.92 10.59-4.19 20.93-8.99 32-13.81zm106.33-1.15c11.39 4.73 22.67 9.74 34.24 13.92 2.12.77 7.05-1.04 7.93-2.94 5.03-10.83 9.24-22.05 13.86-33.49-3.76-1.09-6.44-1.49-8.78-2.61-4.65-2.22-8.66-1.29-13.08.93-6.19 3.11-12.55 6.23-19.2 7.94-8.33 2.16-11.96 7.85-14.97 16.25zM200.67 48.61c-11.23-4.74-22.23-9.59-33.41-13.98-3.67-1.44-7.64-.36-9.3 3.57-4.54 10.75-8.68 21.67-13.14 32.92 3.7 1.06 6.5 1.55 9.02 2.67 4.28 1.89 7.99 1.4 12.15-.72 6.17-3.14 12.51-6.33 19.16-8.04 8.41-2.19 12.7-7.49 15.52-16.42zm260.77 152.77c4.7-11.49 9.61-23 14.06-34.69 1.3-3.43-.51-6.83-3.93-8.25-10.67-4.43-21.48-8.55-32.68-12.96-.96 3.27-1.34 5.76-2.39 7.92-2.47 5.12-1.58 9.61.99 14.52 3.06 5.85 6.02 11.97 7.61 18.33 2.1 8.38 7.7 12.18 16.34 15.13z" fill="#2F5373"/><g fill="#2F5373"><path d="M272.67 295.7c1.63 8.89 3.87 17.12 4.52 25.47 2.02 26.07-4.85 49.18-25.59 66.39-16.32 13.54-35.59 19.16-56.65 16.81-45.48-5.08-72.98-32.55-88.71-73.47-8.43-21.94-11.36-44.91-9.18-68.44 1.17-12.65 7.21-16.8 19.08-12.94 5.53 1.8 7.61 5.88 8.32 11.22 2.08 15.52 5.71 30.65 12.05 45 5.86 13.26 13.44 25.4 26.64 32.51 13.39 7.22 27.89 8.6 42.51 4.9 15.45-3.91 25.5-17.56 25.52-33.48.01-7.9-4.21-13.55-11.38-15.89-7-2.28-14.55-4.57-21.73-4.21-13.69.69-22.65-4.04-27.21-17.12-1.3-3.73-3.64-7.08-5.32-10.68-4.84-10.42 1.1-19.62 12.6-20.78 10.33-1.05 20.67-2.64 30.77-4.98 5.94-1.38 11.4-4.73 13.72-11.21 2.24-6.25.34-10.45-6.05-12.26-11.18-3.17-22.13-.97-32.63 2.87-6.63 2.42-12.98 5.87-19.02 9.57-9.68 5.94-17.07 4.91-23.59-4.23-5.79-8.1-11.56-16.22-17.18-24.44-6.62-9.69-3.86-19.39 6.94-23.88 6.57-2.74 13.32-5.08 20.09-7.32 4.8-1.59 8.99.5 10.54 4.75 1.44 3.96-.48 8.07-5.1 9.95-4.75 1.94-9.68 3.44-14.51 5.21-1.5.55-2.9 1.34-4.88 2.28 6.01 8.55 11.7 16.64 16.61 23.62 11.82-4.6 22.69-9.43 33.95-13.03 9.01-2.88 18.48-3.42 28.04-1.82 11 1.85 19.57 6.54 22.72 17.92 2.93 10.6-1.88 23.17-11.02 30.07-11.62 8.78-25.26 11.19-39.26 12.45-2.07.19-4.18.03-7.55.03 2.99 5.8 5.17 10.56 7.91 14.97.67 1.08 3.18 1.14 4.89 1.43 9.9 1.72 20.3 2 29.63 5.31 20.52 7.27 28.14 24.06 22.11 45.03-7.33 25.47-30.19 39.34-57.52 37.6-18.43-1.17-35.18-6.63-48.01-20.86-10.62-11.78-17.67-25.6-22.75-40.5-1.06-3.1-2.02-6.24-3.37-9.26 1.43 17.81 5.76 34.86 14.36 50.56 12.57 22.95 30.51 39.65 56.62 45.87 16.12 3.84 32 2.93 46.98-4.78 23.64-12.17 32.88-36.18 29.26-63.28-1.12-8.42-4.19-16.67-7.13-24.72-3.27-8.97-.38-13.54 9.3-14.01 5.6-.27 11.25-.93 16.7-2.19 11.73-2.71 20.34-9.27 24.41-21.11 5.12-14.93 14.48-25.92 29.78-31.23 18.39-6.39 34.08-.3 43.28 16.88 11.81 22.06 8.84 50.35-7.29 69.54-4.01 4.77-8.13 5.7-12.03 2.74-3.95-3.01-4.24-7.81-.23-12.68 12.66-15.41 13.12-32.36 6.37-50.1-4.37-11.48-12.6-15.22-24.26-11.51-8.32 2.64-14.46 7.83-18.15 15.88-2.83 6.17-5.24 12.67-8.98 18.26-8.07 12.07-20.61 17.21-34.3 20.04-1.13.23-2.28.41-3.41.66-.8.16-1.58.43-2.23.62z"/><path d="M241.9 258.48c6.99 3.59 11.72 3.33 15.54-2.28 6.78-9.97 12.42-20.7 19.06-30.77 4.7-7.13 9.12-15.15 15.64-20.26 25.8-20.19 64.38-19.88 90.29 5.97 19.19 19.15 30.19 42.12 30.27 69.3.1 34.58-11.92 64.54-40.41 85.18-34.05 24.68-78.39 8.34-90.12-32.06-1.7-5.86-2.68-11.96-3.64-18-.77-4.85 1.05-8.9 5.43-11.37 4.18-2.35 8.56-2.1 12.05 1.14 9.76 9.03 21.1 12.62 34.28 11.4 5.08-.47 8.33 2.52 8.73 6.84.41 4.41-2.67 7.82-7.78 8.66-10.85 1.79-21.1-.21-30.93-4.88-.88-.42-1.76-.83-3.61-1.71 2.23 10.19 6.33 18.43 13.49 24.78 16.23 14.39 40.07 14.48 56.84-.4 37.03-32.87 43.49-96.88-2.35-133.16-19.79-15.66-53-12.91-67.77 5.8-4.16 5.27-6.62 11.84-10.21 17.59-5.6 8.98-10.98 18.16-17.41 26.53-7.44 9.69-19.04 12.33-30.49 8.1-4.19-1.55-8.28-3.41-12.32-5.35-6.99-3.35-7.86-8.77-2.87-14.86 5.77-7.04 11.99-13.85 16.78-21.53 15.37-24.62 4.94-43.64-17.75-54.27-9.36-4.38-19.4-5.36-29.64-5.1-8.05.21-12.05-2.46-12.23-7.75-.17-5.16 4.06-8.31 11.86-8.38 21.66-.19 41.37 4.9 57.14 20.98 13.67 13.94 17.9 32.56 10.03 50.38-3.71 8.41-9.09 16.1-13.81 24.05-1.09 1.82-2.55 3.41-4.09 5.43z"/><path d="M292.7 185.14c-32.91.15-57.56-19.51-65.05-51.87-1.65-7.11.5-12.62 5.94-15.27 5.43-2.65 10.62-1.33 15.31 4.43 6.9 8.49 15.36 14.28 25.92 17.49 14.25 4.33 26.04.22 36.7-9.14 1.87-1.64 3.6-3.45 5.56-4.98 6.56-5.1 15.55-4.84 21.29 1.19 4.44 4.66 8.49 9.79 12.13 15.1 4.51 6.58 3.26 14.8-2.46 20.4-13.85 13.59-35.76 22.56-55.34 22.65zm-42.76-39.16c8.19 15.4 22.15 21.86 38.57 23.14 18.84 1.46 34.78-5.77 48.84-18.49-3.59-4.49-6.75-8.45-9.95-12.45-27.49 26.22-51.43 23.31-77.46 7.8z"/><path d="M258.42 113.21c-.06-9.27 16-25.45 25.33-25.5 9.18-.05 25.55 16.03 25.68 25.22.14 9.85-16.99 26.4-26.73 25.82-8.55-.51-24.22-16.99-24.28-25.54zm34.13.1c-2.86-3.11-5.58-6.08-8.36-9.11l-9.31 8.68c3.25 3.43 6.03 6.37 9.02 9.53 3.07-3.23 5.76-6.07 8.65-9.1z"/></g></svg>