<svg id="eilUZv3sThA1" xmlns="http://www.w3.org/2000/svg" xmlns:xlink="http://www.w3.org/1999/xlink" viewBox="0 0 512 512" shape-rendering="geometricPrecision" text-rendering="geometricPrecision"><g id="eilUZv3sThA2"><g id="eilUZv3sThA3"><path id="eilUZv3sThA4" d="M472,48L448,48L448,40C448,26.745166,437.254834,16,424,16C410.745166,16,400,26.745166,400,40L400,48L336,48L336,40C336,26.745166,325.254834,16,312,16C298.745166,16,288,26.745166,288,40L288,48L224,48L224,40C224,26.745166,213.254834,16,200,16C186.745166,16,176,26.745166,176,40L176,48L112,48L112,40C112,26.745166,101.254834,16,88,16C74.745166,16,64,26.745166,64,40L64,48L40,48C26.751562,48.01543,16.01543,58.751562,16,72L16,472C16.01543,485.248438,26.751562,495.98457,40,496L472,496C485.248438,495.98457,495.98457,485.248438,496,472L496,72C495.98457,58.751562,485.248438,48.01543,472,48ZM416,40C416,35.581722,419.581722,32,424,32C428.418278,32,432,35.581722,432,40L432,72C432,76.418278,428.418278,80,424,80C419.581722,80,416,76.418278,416,72ZM304,40C304,35.581722,307.581722,32,312,32C316.418278,32,320,35.581722,320,40L320,72C320,76.418278,316.418278,80,312,80C307.581722,80,304,76.418278,304,72ZM192,40C192,35.581722,195.581722,32,200,32C204.418278,32,208,35.581722,208,40L208,72C208,76.418278,204.418278,80,200,80C195.581722,80,192,76.418278,192,72ZM80,40C80,35.581722,83.581722,32,88,32C92.418278,32,96,35.581722,96,40L96,72C96,76.418278,92.418278,80,88,80C83.581722,80,80,76.418278,80,72ZM480,472C479.99504,476.416222,476.416222,479.99504,472,480L40,480C35.583778,479.99504,32.00496,476.416222,32,472L32,144L480,144ZM480,128L32,128L32,72C32.00496,67.583778,35.583778,64.00496,40,64L64,64L64,72C64,85.254834,74.745166,96,88,96C101.254834,96,112,85.254834,112,72L112,64L176,64L176,72C176,85.254834,186.745166,96,200,96C213.254834,96,224,85.254834,224,72L224,64L288,64L288,72C288,85.254834,298.745166,96,312,96C325.254834,96,336,85.254834,336,72L336,64L400,64L400,72C400,85.254834,410.745166,96,424,96C437.254834,96,448,85.254834,448,72L448,64L472,64C476.416222,64.00496,479.99504,67.583778,480,72Z" fill="rgb(50,86,117)" stroke="none" stroke-width="1"/><path id="eilUZv3sThA5" display="none" d="M340,304L335.6,304C331.49627,263.116752,297.088691,231.989994,256,231.989994C214.911309,231.989994,180.50373,263.116752,176.4,304L172,304C138.862915,304,112,330.862915,112,364C112,397.137085,138.862915,424,172,424L320.805,424C324.911918,444.119706,343.58659,457.861356,364.017194,455.797446C384.447799,453.733536,399.996836,436.534589,399.996836,416C399.996836,395.465411,384.447799,378.266464,364.017194,376.202554C343.58659,374.138644,324.911918,387.880294,320.805,408L172,408C147.699471,408,128,388.300529,128,364C128,339.699471,147.699471,320,172,320L176.4,320C180.50373,360.883248,214.911309,392.010006,256,392.010006C297.088691,392.010006,331.49627,360.883248,335.6,320L340,320C373.137085,320,400,293.137085,400,260C400,226.862915,373.137085,200,340,200L191.2,200C187.093082,179.880294,168.41841,166.138644,147.987806,168.202554C127.557201,170.266464,112.008164,187.465411,112.008164,208C112.008164,228.534589,127.557201,245.733536,147.987806,247.797446C168.41841,249.861356,187.093082,236.119706,191.2,216L340,216C364.300529,216,384,235.699471,384,260C384,284.300529,364.300529,304,340,304ZM360,392C373.254834,392,384,402.745166,384,416C384,429.254834,373.254834,440,360,440C346.745166,440,336,429.254834,336,416C336.01543,402.751562,346.751562,392.01543,360,392ZM256,376C220.653776,376,192,347.346224,192,312C192,276.653776,220.653776,248,256,248C291.346224,248,320,276.653776,320,312C319.960321,347.329775,291.329775,375.960321,256,376ZM152,232C138.745166,232,128,221.254834,128,208C128,194.745166,138.745166,184,152,184C165.254834,184,176,194.745166,176,208C175.98457,221.248438,165.248438,231.98457,152,232Z" fill="rgb(50,86,117)" stroke="none" stroke-width="1"/><path id="eilUZv3sThA6" display="none" d="M248,304L216,304L216,320L256,320C260.418278,320,264,316.418278,264,312L264,264L248,264Z" fill="rgb(50,86,117)" stroke="none" stroke-width="1"/></g></g><g id="eilUZv3sThA7" transform="matrix(1 0 0 1 0 0.000126)"><g id="eilUZv3sThA8"><g id="eilUZv3sThA9" transform="matrix(0.666314 0 0 0.666314 82.423612 142.362087)"><path id="eilUZv3sThA10" d="M246,137.12L246,191.5C246,197.022,250.477,201.5,256,201.5C261.523,201.5,266,197.022,266,191.5L266,137.12C284.345,132.621,298,116.046,298,96.333C298,73.174,279.159,54.333,256,54.333C232.841,54.333,214,73.174,214,96.333C214,116.045,227.655,132.621,246,137.12ZM256,74.332C268.131,74.332,278,84.201,278,96.332C278,108.463,268.131,118.332,256,118.332C243.869,118.332,234,108.463,234,96.332C234,84.201,243.869,74.332,256,74.332Z" fill="rgb(53,88,119)" stroke="none" stroke-width="1"/><path id="eilUZv3sThA11" d="M56,137.12L56,191.5C56,197.022,60.477,201.5,66,201.5C71.523,201.5,76,197.022,76,191.5L76,137.12C94.345,132.621,108,116.046,108,96.333C108,73.174,89.159,54.333,66,54.333C42.841,54.333,24,73.174,24,96.333C24,116.045,37.655,132.621,56,137.12ZM66,74.332C78.131,74.332,88,84.201,88,96.332C88,108.463,78.131,118.332,66,118.332C53.869,118.332,44,108.463,44,96.332C44,84.201,53.869,74.332,66,74.332Z" fill="rgb(53,88,119)" stroke="none" stroke-width="1"/><path id="eilUZv3sThA12" d="M361,375.213L361,322C361,316.478,356.523,312,351,312C345.477,312,341,316.478,341,322L341,375.213C322.655,379.712,309,396.287,309,416C309,439.159,327.841,458,351,458C374.159,458,393,439.159,393,416C393,396.287,379.345,379.712,361,375.213ZM351,438C338.869,438,329,428.131,329,416C329,403.869,338.869,394,351,394C363.131,394,373,403.869,373,416C373,428.131,363.131,438,351,438Z" fill="rgb(53,88,119)" stroke="none" stroke-width="1"/><path id="eilUZv3sThA13" d="M171,375.213L171,367C171,361.478,166.523,357,161,357C155.477,357,151,361.478,151,367L151,375.213C132.655,379.712,119,396.287,119,416C119,439.159,137.841,458,161,458C184.159,458,203,439.159,203,416C203,396.287,189.345,379.712,171,375.213ZM161,438C148.869,438,139,428.131,139,416C139,403.869,148.869,394,161,394C173.131,394,183,403.869,183,416C183,428.131,173.131,438,161,438Z" fill="rgb(53,88,119)" stroke="none" stroke-width="1"/><path id="eilUZv3sThA14" d="M446,200C451.523,200,456,195.522,456,190L456,134.437L507,104.993C510.094,103.207,512,99.905,512,96.333C512,92.761,510.094,89.459,507,87.673L451,55.34C447.906,53.553,444.095,53.553,441,55.34C437.906,57.126,436,60.428,436,64L436,190C436,195.523,440.477,200,446,200ZM456,81.321L482,96.333L456,111.344Z" fill="rgb(53,88,119)" stroke="none" stroke-width="1"/><path id="eilUZv3sThA15" d="M161,332C163.63,332,166.21,330.93,168.07,329.069C169.93,327.21,171,324.63,171,322C171,319.37,169.93,316.79,168.07,314.93C166.21,313.07,163.63,312,161,312C158.37,312,155.79,313.069,153.93,314.93C152.07,316.79,151,319.37,151,322C151,324.63,152.07,327.21,153.93,329.069C155.79,330.93,158.37,332,161,332Z" fill="rgb(53,88,119)" stroke="none" stroke-width="1"/><path id="eilUZv3sThA16" d="M502,246L478.391,246C474.181,233.239,462.153,224,448,224C433.847,224,421.819,233.239,417.609,246L381.391,246C377.181,233.239,365.153,224,351,224C336.847,224,324.819,233.239,320.609,246L286.391,246C282.181,233.239,270.153,224,256,224C241.847,224,229.819,233.239,225.609,246L191.391,246C187.181,233.239,175.153,224,161,224C146.847,224,134.819,233.239,130.609,246L94.391,246C90.181,233.24,78.153,224,64,224C49.847,224,37.819,233.239,33.609,246L10,246C4.477,246,0,250.478,0,256C0,261.522,4.477,266,10,266L33.609,266C37.819,278.761,49.847,288,64,288C78.153,288,90.181,278.761,94.391,266L130.609,266C134.819,278.761,146.847,288,161,288C175.153,288,187.181,278.761,191.391,266L225.609,266C229.819,278.761,241.847,288,256,288C270.153,288,282.181,278.761,286.391,266L320.609,266C324.819,278.761,336.847,288,351,288C365.153,288,377.181,278.761,381.391,266L417.609,266C421.819,278.761,433.847,288,448,288C462.153,288,474.181,278.761,478.391,266L502,266C507.523,266,512,261.522,512,256C512,250.478,507.523,246,502,246ZM64,268C57.383,268,52,262.617,52,256C52,249.383,57.383,244,64,244C70.617,244,76,249.383,76,256C76,262.617,70.617,268,64,268ZM161,268C154.383,268,149,262.617,149,256C149,249.383,154.383,244,161,244C167.617,244,173,249.383,173,256C173,262.617,167.617,268,161,268ZM256,268C249.383,268,244,262.617,244,256C244,249.383,249.383,244,256,244C262.617,244,268,249.383,268,256C268,262.617,262.617,268,256,268ZM351,268C344.383,268,339,262.617,339,256C339,249.383,344.383,244,351,244C357.617,244,363,249.383,363,256C363,262.617,357.617,268,351,268ZM448,268C441.383,268,436,262.617,436,256C436,249.383,441.383,244,448,244C454.617,244,460,249.383,460,256C460,262.617,454.617,268,448,268Z" fill="rgb(53,88,119)" stroke="none" stroke-width="1"/></g></g></g></svg>