<svg xmlns="http://www.w3.org/2000/svg" viewBox="0 0 512 512" shape-rendering="geometricPrecision" text-rendering="geometricPrecision"><path d="M472 48h-24v-8c0-13.255-10.745-24-24-24s-24 10.745-24 24v8h-64v-8c0-13.255-10.745-24-24-24s-24 10.745-24 24v8h-64v-8c0-13.255-10.745-24-24-24s-24 10.745-24 24v8h-64v-8c0-13.255-10.745-24-24-24S64 26.745 64 40v8H40c-13.248.015-23.985 10.752-24 24v400c.015 13.248 10.752 23.985 24 24h432c13.248-.015 23.985-10.752 24-24V72c-.015-13.248-10.752-23.985-24-24zm-56-8a8 8 0 1116 0v32a8 8 0 11-16 0zm-112 0a8 8 0 1116 0v32a8 8 0 11-16 0zm-112 0a8 8 0 1116 0v32a8 8 0 11-16 0zM80 40a8 8 0 1116 0v32a8 8 0 11-16 0zm400 432a8.009 8.009 0 01-8 8H40a8.009 8.009 0 01-8-8V144h448zm0-344H32V72a8.009 8.009 0 018-8h24v8c0 13.255 10.745 24 24 24s24-10.745 24-24v-8h64v8c0 13.255 10.745 24 24 24s24-10.745 24-24v-8h64v8c0 13.255 10.745 24 24 24s24-10.745 24-24v-8h64v8c0 13.255 10.745 24 24 24s24-10.745 24-24v-8h24a8.009 8.009 0 018 8z" fill="#325675"/><path d="M246.337 233.727v36.234a6.663 6.663 0 0013.326 0v-36.234c12.224-2.998 21.322-14.042 21.322-27.177 0-15.43-12.554-27.985-27.985-27.985s-27.985 12.554-27.985 27.985c0 13.135 9.098 24.18 21.322 27.177zM253 191.891c8.083 0 14.659 6.576 14.659 14.659 0 8.083-6.576 14.658-14.659 14.658-8.083 0-14.659-6.575-14.659-14.658 0-8.083 6.576-14.66 14.659-14.66zm-133.263 41.836v36.234a6.663 6.663 0 0013.326 0v-36.234c12.224-2.998 21.323-14.042 21.323-27.177 0-15.43-12.554-27.985-27.986-27.985-15.43 0-27.985 12.554-27.985 27.985 0 13.135 9.099 24.18 21.322 27.177zm6.663-41.836c8.083 0 14.66 6.576 14.66 14.659 0 8.083-6.577 14.658-14.66 14.658s-14.659-6.575-14.659-14.658c0-8.083 6.576-14.66 14.66-14.66zm196.563 200.481v-35.457a6.663 6.663 0 00-13.326 0v35.457c-12.224 2.998-21.322 14.042-21.322 27.177 0 15.431 12.554 27.985 27.985 27.985s27.985-12.554 27.985-27.985c0-13.135-9.099-24.18-21.322-27.177zm-6.663 41.836c-8.083 0-14.66-6.576-14.66-14.66 0-8.082 6.577-14.658 14.66-14.658s14.659 6.576 14.659 14.659c0 8.083-6.576 14.659-14.66 14.659zm-119.937-41.836v-5.473a6.663 6.663 0 00-13.326 0v5.473c-12.224 2.998-21.322 14.042-21.322 27.177 0 15.431 12.554 27.985 27.985 27.985s27.985-12.554 27.985-27.985c0-13.135-9.098-24.18-21.322-27.177zm-6.663 41.836c-8.083 0-14.659-6.576-14.659-14.66 0-8.082 6.576-14.658 14.66-14.658 8.082 0 14.658 6.576 14.658 14.659 0 8.083-6.576 14.659-14.659 14.659zm189.9-158.583a6.663 6.663 0 006.663-6.663v-37.023l33.982-19.618a6.663 6.663 0 000-11.541l-37.314-21.544a6.661 6.661 0 00-9.994 5.77v83.956a6.663 6.663 0 006.663 6.663zm6.663-79.077l17.324 10.002-17.324 10.002zM189.7 363.578a6.711 6.711 0 004.711-1.953 6.71 6.71 0 001.952-4.71 6.714 6.714 0 00-1.952-4.71 6.714 6.714 0 00-4.71-1.953 6.71 6.71 0 00-4.712 1.952 6.714 6.714 0 00-1.952 4.711 6.71 6.71 0 001.952 4.71 6.711 6.711 0 004.711 1.953zm227.213-57.303h-15.73c-2.806-8.502-10.82-14.658-20.25-14.658-9.431 0-17.445 6.156-20.25 14.658H336.55c-2.805-8.502-10.82-14.658-20.25-14.658s-17.445 6.156-20.25 14.658h-22.8c-2.805-8.502-10.82-14.658-20.25-14.658s-17.445 6.156-20.25 14.658h-22.8c-2.805-8.502-10.82-14.658-20.25-14.658s-17.445 6.156-20.25 14.658h-24.132c-2.806-8.502-10.82-14.658-20.25-14.658s-17.445 6.156-20.25 14.658H89.087a6.663 6.663 0 000 13.327h15.73c2.806 8.503 10.82 14.659 20.25 14.659 9.431 0 17.445-6.156 20.25-14.66h24.133c2.805 8.504 10.82 14.66 20.25 14.66s17.445-6.156 20.25-14.66h22.8c2.805 8.504 10.82 14.66 20.25 14.66s17.445-6.156 20.25-14.66h22.8c2.805 8.504 10.82 14.66 20.25 14.66s17.445-6.156 20.25-14.66h24.132c2.806 8.504 10.82 14.66 20.25 14.66s17.445-6.156 20.25-14.66h15.731a6.663 6.663 0 000-13.326zm-291.845 14.66c-4.41 0-7.996-3.587-7.996-7.996 0-4.41 3.587-7.996 7.996-7.996 4.409 0 7.995 3.587 7.995 7.996 0 4.409-3.586 7.995-7.995 7.995zm64.632 0c-4.409 0-7.996-3.587-7.996-7.996 0-4.41 3.587-7.996 7.996-7.996 4.41 0 7.996 3.587 7.996 7.996 0 4.409-3.587 7.995-7.996 7.995zm63.3 0c-4.409 0-7.996-3.587-7.996-7.996 0-4.41 3.587-7.996 7.996-7.996 4.409 0 7.996 3.587 7.996 7.996 0 4.409-3.587 7.995-7.996 7.995zm63.3 0c-4.41 0-7.996-3.587-7.996-7.996 0-4.41 3.587-7.996 7.996-7.996 4.409 0 7.996 3.587 7.996 7.996 0 4.409-3.587 7.995-7.996 7.995zm64.632 0c-4.409 0-7.995-3.587-7.995-7.996 0-4.41 3.586-7.996 7.995-7.996 4.41 0 7.996 3.587 7.996 7.996 0 4.409-3.587 7.995-7.996 7.995z" fill="#355877"/></svg>