<svg xmlns="http://www.w3.org/2000/svg" width="512" height="512"><path xmlns="http://www.w3.org/2000/svg" d="M182.633 404.129c-4.426 0-8.04-3.578-8.04-8 0-4.426 3.536-8 7.95-8h.09c4.414 0 8 3.574 8 8a8 8 0 01-8 8zM468.695 61.266c-.64 0-1.297-.075-1.941-.243a7.998 7.998 0 01-5.824-9.703l11.308-45.25c1.075-4.277 5.403-6.918 9.7-5.82a8.004 8.004 0 015.824 9.703L476.449 55.2a8.003 8.003 0 01-7.754 6.067zm0 0" fill="#365877" data-original="#000000"/><path xmlns="http://www.w3.org/2000/svg" d="M434.742 27.328a8.001 8.001 0 01-7.75-6.055c-1.082-4.289 1.528-8.632 5.824-9.707L478.062.258c4.274-1.09 8.625 1.535 9.7 5.824 1.078 4.285-1.532 8.629-5.825 9.703l-45.25 11.313c-.648.16-1.304.23-1.945.23zM159.77 370.184a7.977 7.977 0 01-5.657-2.344 7.99 7.99 0 010-11.313L463.031 47.61a7.99 7.99 0 0111.313 0 7.99 7.99 0 010 11.313L165.426 367.848a7.98 7.98 0 01-5.656 2.336zm0 0" fill="#365877" data-original="#000000"/><path xmlns="http://www.w3.org/2000/svg" d="M125.832 336.25a7.972 7.972 0 01-5.656-2.348 7.985 7.985 0 010-11.308L429.098 13.672a7.985 7.985 0 0111.308 0 7.99 7.99 0 010 11.312L131.488 333.902a7.965 7.965 0 01-5.656 2.348zm0 0" fill="#365877" data-original="#000000"/><path xmlns="http://www.w3.org/2000/svg" d="M172.047 382.473a7.99 7.99 0 01-5.656-2.344l-58.528-58.527a7.99 7.99 0 010-11.313 7.99 7.99 0 0111.313 0l58.527 58.527a7.99 7.99 0 010 11.313 7.977 7.977 0 01-5.656 2.344zm-6.641 38.625a7.975 7.975 0 01-5.652-2.344L69.246 328.25a7.997 7.997 0 010-11.313 7.99 7.99 0 0111.313 0l90.504 90.504a7.99 7.99 0 010 11.313 7.977 7.977 0 01-5.657 2.344zm0 0" fill="#365877" data-original="#000000"/><path xmlns="http://www.w3.org/2000/svg" d="M182.398 428.129c-8.55 0-16.59-3.328-22.636-9.367a7.994 7.994 0 01-.02-11.313 7.99 7.99 0 0111.313-.015c6.058 6.054 16.601 6.054 22.64.015 6.243-6.242 6.235-16.394 0-22.64-6.238-6.223-16.39-6.215-22.617.007a7.985 7.985 0 01-11.308 0 7.99 7.99 0 010-11.312c12.468-12.473 32.773-12.465 45.238-.008 12.48 12.496 12.48 32.8.008 45.258-6.032 6.047-14.07 9.375-22.618 9.375zM92.121 313.625c-4.426 0-8.043-3.578-8.043-8 0-4.426 3.54-8 7.953-8h.09c4.414 0 8 3.574 8 8 0 4.422-3.594 8-8 8zm0 0" fill="#365877" data-original="#000000"/><path xmlns="http://www.w3.org/2000/svg" d="M108.855 330.594a7.984 7.984 0 01-5.648-2.336 7.99 7.99 0 01-.016-11.313c6.235-6.25 6.235-16.41 0-22.656-6.238-6.226-16.398-6.207-22.625.016-6.238 6.238-6.23 16.39 0 22.64a7.99 7.99 0 01-.015 11.313 7.994 7.994 0 01-11.313-.02c-12.46-12.476-12.46-32.781.008-45.238 12.457-12.488 32.762-12.48 45.258-.023 12.473 12.496 12.473 32.793.016 45.261a7.933 7.933 0 01-5.665 2.356zM33.328 440.063a7.967 7.967 0 01-5.656-2.344 7.985 7.985 0 010-11.309l75.512-75.515a7.997 7.997 0 0111.312 0 7.99 7.99 0 010 11.312l-75.512 75.512a7.967 7.967 0 01-5.656 2.344zm22.61 22.64a7.96 7.96 0 01-5.657-2.344 7.99 7.99 0 010-11.312l75.528-75.527a7.99 7.99 0 0111.312 0 7.997 7.997 0 010 11.312l-75.527 75.527a7.974 7.974 0 01-5.657 2.344zm0 0" fill="#365877" data-original="#000000"/><path xmlns="http://www.w3.org/2000/svg" d="M31.992 488.016c-8.543 0-16.586-3.329-22.625-9.383C3.328 472.609 0 464.566 0 456.023c0-8.55 3.328-16.582 9.375-22.632 12.082-12.079 33.168-12.07 45.242-.008 12.48 12.496 12.48 32.8.008 45.258-6.05 6.046-14.082 9.375-22.633 9.375zm0-47.985c-4.273 0-8.289 1.656-11.305 4.672A15.915 15.915 0 0016 456.023c0 4.274 1.664 8.282 4.68 11.297 6.062 6.063 16.586 6.055 22.633.008 6.23-6.23 6.222-16.383-.008-22.633-3.016-3.007-7.032-4.664-11.313-4.664zm139.071-115.093a7.99 7.99 0 01-5.657-2.344 7.997 7.997 0 010-11.313l235.426-235.41a7.997 7.997 0 0111.313 0 7.99 7.99 0 010 11.313l-235.426 235.41a7.945 7.945 0 01-5.656 2.344zm-58.903 81.535a7.97 7.97 0 01-2.527-.418l-33.938-11.309a7.997 7.997 0 01-5.054-10.121 7.993 7.993 0 0110.12-5.059l33.934 11.313A8.003 8.003 0 01119.754 401a8.027 8.027 0 01-7.594 5.473zm-22.633 22.625A7.97 7.97 0 0187 428.68l-33.922-11.313a7.998 7.998 0 01-5.055-10.117 7.982 7.982 0 0110.122-5.059l33.917 11.313a8.004 8.004 0 015.06 10.121 8.013 8.013 0 01-7.595 5.473zm240.321-24.969c-4.422 0-8.04-3.578-8.04-8 0-4.426 3.536-8 7.954-8h.086c4.418 0 8 3.574 8 8 0 4.422-3.582 8-8 8zM43.305 61.266a8.005 8.005 0 01-7.754-6.059L24.238 9.961A8.004 8.004 0 0130.063.258c4.257-1.09 8.625 1.535 9.699 5.812L51.07 51.32a7.985 7.985 0 01-5.824 9.703 7.7 7.7 0 01-1.941.243zm0 0" fill="#365877" data-original="#000000"/><path xmlns="http://www.w3.org/2000/svg" d="M77.258 27.328a7.75 7.75 0 01-1.945-.238l-45.25-11.313a8.01 8.01 0 01-5.825-9.707c1.067-4.277 5.418-6.91 9.7-5.812l45.246 11.308a8.007 8.007 0 015.824 9.707c-.903 3.63-4.168 6.055-7.75 6.055zM352.23 370.184a7.99 7.99 0 01-5.656-2.344l-96.23-96.23c-3.13-3.13-3.13-8.184 0-11.313s8.183-3.129 11.312 0l96.23 96.23a7.99 7.99 0 010 11.313 7.928 7.928 0 01-5.656 2.344zm33.938-33.934a7.972 7.972 0 01-5.656-2.348l-96.223-96.238c-3.129-3.129-3.129-8.191 0-11.312a7.99 7.99 0 0111.313 0l96.222 96.242a7.985 7.985 0 010 11.308 7.939 7.939 0 01-5.656 2.348zm0 0" fill="#365877" data-original="#000000"/><path xmlns="http://www.w3.org/2000/svg" d="M339.953 382.473a7.977 7.977 0 01-5.656-2.344 7.99 7.99 0 010-11.313l58.527-58.527a7.99 7.99 0 0111.313 0 7.99 7.99 0 010 11.313l-58.528 58.527a7.99 7.99 0 01-5.656 2.344zm6.641 38.625a7.977 7.977 0 01-5.656-2.344 7.99 7.99 0 010-11.313l90.503-90.504a7.99 7.99 0 0111.313 0 7.997 7.997 0 010 11.313l-90.508 90.504a7.975 7.975 0 01-5.652 2.344zm0 0" fill="#365877" data-original="#000000"/><path xmlns="http://www.w3.org/2000/svg" d="M329.602 428.129c-8.547 0-16.586-3.328-22.625-9.383-12.465-12.457-12.465-32.762 0-45.234 12.503-12.489 32.793-12.48 45.253-.008a7.99 7.99 0 010 11.312 7.985 7.985 0 01-11.308 0c-6.242-6.238-16.395-6.214-22.633.008-6.219 6.23-6.226 16.383.008 22.617 6.047 6.047 16.582 6.047 22.648-.007a7.99 7.99 0 0111.313.015 7.994 7.994 0 01-.02 11.313c-6.047 6.039-14.078 9.367-22.636 9.367zm90.765-114.504c-4.422 0-8.039-3.578-8.039-8 0-4.426 3.535-8 7.953-8h.086c4.418 0 8 3.574 8 8 0 4.422-3.582 8-8 8zm0 0" fill="#365877" data-original="#000000"/><path xmlns="http://www.w3.org/2000/svg" d="M437.098 330.594a7.97 7.97 0 01-5.649-2.336 7.99 7.99 0 01-.015-11.313c6.23-6.25 6.238-16.402.007-22.632-6.234-6.25-16.402-6.243-22.648-.008-6.219 6.23-6.219 16.39.016 22.64a7.99 7.99 0 01-.016 11.313 7.993 7.993 0 01-11.313-.02c-12.457-12.476-12.457-32.773 0-45.246 12.528-12.472 32.832-12.457 45.282.016 12.46 12.457 12.46 32.762 0 45.23a7.952 7.952 0 01-5.664 2.356zm41.574 109.469a7.967 7.967 0 01-5.656-2.344l-75.512-75.512a7.99 7.99 0 010-11.312 7.997 7.997 0 0111.312 0l75.512 75.515a7.985 7.985 0 010 11.309 7.967 7.967 0 01-5.656 2.344zm-22.609 22.64a7.974 7.974 0 01-5.657-2.344l-75.527-75.527a7.997 7.997 0 010-11.312 7.99 7.99 0 0111.312 0l75.528 75.527a7.99 7.99 0 010 11.312 7.96 7.96 0 01-5.656 2.344zm0 0" fill="#365877" data-original="#000000"/><path xmlns="http://www.w3.org/2000/svg" d="M480.008 488.016c-8.551 0-16.582-3.329-22.633-9.375-12.473-12.465-12.473-32.77-.008-45.243 12.113-12.093 33.176-12.086 45.258-.007 6.047 6.05 9.375 14.082 9.375 22.632 0 8.543-3.328 16.586-9.383 22.625-6.023 6.04-14.066 9.368-22.61 9.368zm0-47.985a15.92 15.92 0 00-11.328 4.68c-6.215 6.234-6.223 16.387.007 22.617 6.047 6.047 16.586 6.04 22.618.008 3.03-3.031 4.695-7.04 4.695-11.313 0-4.27-1.664-8.296-4.688-11.32-3.015-3.015-7.03-4.672-11.304-4.672zm-139.07-115.093a7.977 7.977 0 01-5.657-2.344l-67.953-67.969a7.99 7.99 0 010-11.313 7.99 7.99 0 0111.313 0l67.953 67.97a7.997 7.997 0 010 11.312 7.958 7.958 0 01-5.656 2.344zm58.902 81.535c-3.352 0-6.473-2.121-7.582-5.473a7.994 7.994 0 015.055-10.121l33.933-11.313a7.984 7.984 0 0110.121 5.059 7.994 7.994 0 01-5.055 10.121l-33.937 11.309a8.016 8.016 0 01-2.535.418zm22.633 22.625a7.996 7.996 0 01-7.586-5.473 8.001 8.001 0 015.058-10.121l33.918-11.313a7.977 7.977 0 0110.121 5.059 7.995 7.995 0 01-5.054 10.117l-33.922 11.313a8.052 8.052 0 01-2.535.418zm-200.41-189.082a7.99 7.99 0 01-5.657-2.344L37.656 58.922a7.99 7.99 0 010-11.313 7.99 7.99 0 0111.313 0l178.75 178.75a7.99 7.99 0 010 11.313 7.977 7.977 0 01-5.656 2.344zm16.968-16.969a7.974 7.974 0 01-5.656-2.344L99.855 87.183a7.99 7.99 0 010-11.312 7.997 7.997 0 0111.313 0L244.68 209.383a7.99 7.99 0 010 11.312 7.912 7.912 0 01-5.649 2.352zM256 206.082a7.972 7.972 0 01-5.656-2.348L71.594 24.984a7.99 7.99 0 010-11.312 7.985 7.985 0 0111.308 0l178.754 178.754a7.985 7.985 0 010 11.308 7.972 7.972 0 01-5.656 2.348zm0 0" fill="#365877" data-original="#000000"/></svg>