<svg xmlns="http://www.w3.org/2000/svg" viewBox="0 0 512 512" shape-rendering="geometricPrecision" text-rendering="geometricPrecision"><g fill="#2f5373"><path d="M394.928 154.294a7.782 7.782 0 01-3.414-.773c-3.993-1.891-5.704-6.657-3.809-10.649l25.458-53.742c1.887-3.989 6.673-5.72 10.65-3.805 3.992 1.887 5.703 6.657 3.808 10.649l-25.458 53.738c-1.36 2.895-4.235 4.582-7.235 4.582z"/><path d="M366.664 126.015c-3 0-5.863-1.688-7.235-4.578-1.894-3.993-.183-8.759 3.809-10.65l53.742-25.454c3.977-1.891 8.758-.184 10.649 3.809 1.895 3.988.184 8.758-3.809 10.645l-53.741 25.458a8.094 8.094 0 01-3.415.77z"/><path d="M394.936 154.294a7.959 7.959 0 01-5.653-2.344L361 123.671c-3.129-3.129-3.129-8.184 0-11.313s8.184-3.129 11.313 0l28.279 28.283a7.986 7.986 0 010 11.309 7.957 7.957 0 01-5.656 2.344z"/></g><g fill="#2f5373"><path d="M138.521 218.365c-3.528 0-6.77-2.36-7.72-5.938-15.45-57.836 1.223-120.023 43.507-162.3C216.588 7.855 278.772-8.81 336.596 6.632a7.987 7.987 0 015.664 9.79c-1.133 4.274-5.551 6.833-9.789 5.664C280.139 8.11 223.862 23.2 185.621 61.441c-38.252 38.252-53.331 94.525-39.365 146.857 1.144 4.266-1.391 8.649-5.661 9.793a8.054 8.054 0 01-2.074.274z"/><path d="M158.752 198.172a8.01 8.01 0 01-7.895-6.762c-7.129-45.409 7.985-91.877 40.429-124.32 32.439-32.432 78.907-47.508 124.27-40.425 4.359.687 7.344 4.781 6.664 9.153-.695 4.367-4.832 7.293-9.153 6.664-40.307-6.363-81.626 7.095-110.48 35.928-28.834 28.834-42.264 70.157-35.92 110.519.68 4.368-2.297 8.466-6.665 9.153-.425.055-.832.09-1.25.09z"/><path d="M332.709 137.328a7.991 7.991 0 01-5.657-2.344c-34.314-34.314-34.314-90.142 0-124.457 3.13-3.129 8.185-3.129 11.314 0s3.129 8.184 0 11.313c-28.072 28.073-28.072 73.755 0 101.831a7.99 7.99 0 010 11.313 7.985 7.985 0 01-5.657 2.344z"/><path d="M332.709 24.184a7.993 7.993 0 01-5.657-2.344 7.99 7.99 0 010-11.313l1.833-1.832c3.129-3.13 8.184-3.13 11.313 0s3.129 8.184 0 11.313l-1.832 1.832a7.953 7.953 0 01-5.657 2.344zM140.361 216.525a7.991 7.991 0 01-5.657-2.344 7.99 7.99 0 010-11.313c34.323-34.323 90.158-34.307 124.465 0a7.99 7.99 0 010 11.313 7.998 7.998 0 01-11.313 0c-28.064-28.068-73.755-28.084-101.839 0a7.951 7.951 0 01-5.656 2.344z"/><path d="M138.528 218.357a7.987 7.987 0 01-5.656-2.344 7.99 7.99 0 010-11.313l1.832-1.832c3.129-3.129 8.184-3.129 11.313 0s3.129 8.184 0 11.313l-1.832 1.832a7.985 7.985 0 01-5.657 2.344zm117.35 18.425a7.975 7.975 0 01-5.657-2.344 7.99 7.99 0 010-11.313L345 128.35a7.99 7.99 0 0111.313 0 7.998 7.998 0 010 11.313l-94.779 94.775a7.93 7.93 0 01-5.656 2.344z"/><path d="M321.404 171.272c-.375 0-.758-.024-1.145-.078l-39.6-5.665a8.008 8.008 0 01-6.794-9.059c.633-4.375 4.704-7.414 9.056-6.789l39.604 5.664c4.375.621 7.418 4.68 6.793 9.055a7.995 7.995 0 01-7.914 6.872z"/><path d="M287.444 205.212c-3.922 0-7.348-2.872-7.914-6.864l-5.657-39.604a8.006 8.006 0 016.794-9.056c4.375-.656 8.43 2.415 9.055 6.794l5.656 39.6c.625 4.375-2.414 8.434-6.793 9.055a8.753 8.753 0 01-1.141.075z"/></g><g fill="#2f5373"><path d="M343.741 387.805a166.998 166.998 0 01-43.21-5.664 7.99 7.99 0 01-5.664-9.79c1.144-4.273 5.578-6.809 9.793-5.664 52.34 13.977 108.613-1.121 146.857-39.362 38.241-38.245 53.332-94.522 39.362-146.853-1.144-4.262 1.391-8.645 5.665-9.79 4.223-1.137 8.649 1.391 9.793 5.664 15.439 57.836-1.226 120.024-43.506 162.288-31.85 31.85-75.005 49.171-119.09 49.171z"/><path d="M343.792 363.831c-7.403 0-14.833-.57-22.252-1.738-4.367-.688-7.344-4.786-6.664-9.153.687-4.368 4.785-7.313 9.153-6.665 40.33 6.38 81.685-7.086 110.519-35.92 28.826-28.834 42.26-70.141 35.924-110.48-.68-4.367 2.301-8.465 6.664-9.153 4.504-.625 8.462 2.305 9.153 6.665 7.118 45.378-7.993 91.838-40.428 124.274-27.147 27.15-64.125 42.17-102.069 42.17z"/><path d="M440.196 211.634c-22.536 0-45.073-8.575-62.226-25.736a7.99 7.99 0 010-11.313 7.989 7.989 0 0111.313 0c28.096 28.091 73.763 28.076 101.827 0a7.989 7.989 0 0111.313 0 7.99 7.99 0 010 11.313c-17.161 17.161-39.69 25.736-62.227 25.736z"/><path d="M496.766 188.242a8.022 8.022 0 01-5.672-2.352 8.01 8.01 0 01.028-11.321l1.832-1.832c3.133-3.129 8.199-3.094 11.317.023a8.007 8.007 0 01-.024 11.321l-1.832 1.832a7.988 7.988 0 01-5.649 2.329zM304.426 380.59a7.975 7.975 0 01-5.653-2.344 7.99 7.99 0 010-11.313c28.072-28.08 28.072-73.755 0-101.839a7.99 7.99 0 010-11.313 7.994 7.994 0 0111.31 0c34.314 34.315 34.314 90.151 0 124.465a7.978 7.978 0 01-5.657 2.344z"/><path d="M302.594 382.422a7.975 7.975 0 01-5.653-2.344 7.99 7.99 0 010-11.313l1.832-1.832a7.987 7.987 0 0111.31 0 7.99 7.99 0 010 11.313l-1.833 1.832a7.974 7.974 0 01-5.656 2.344zm-17.425-118.349a7.985 7.985 0 01-5.657-2.344 7.99 7.99 0 010-11.313l95.779-95.775a7.986 7.986 0 0111.309 0 7.986 7.986 0 010 11.309l-95.775 95.779a8.015 8.015 0 01-5.656 2.344z"/><path d="M355.351 239.159c-.375 0-.762-.027-1.144-.082l-39.601-5.657a8.003 8.003 0 01-6.793-9.055c.621-4.375 4.688-7.41 9.055-6.793l39.604 5.656a8.003 8.003 0 016.79 9.056 7.996 7.996 0 01-7.911 6.875z"/><path d="M355.335 239.159a7.999 7.999 0 01-7.914-6.868l-5.665-39.6c-.621-4.375 2.419-8.434 6.794-9.059 4.344-.629 8.426 2.418 9.059 6.793l5.661 39.605a8.004 8.004 0 01-6.79 9.055c-.387.047-.77.074-1.145.074z"/></g><g fill="#2f5373"><path d="M228.534 320.7a7.992 7.992 0 01-5.656-2.344l-28.279-28.283a7.99 7.99 0 010-11.314 7.986 7.986 0 0111.309 0l28.283 28.283a7.992 7.992 0 010 11.314 7.989 7.989 0 01-5.657 2.344zm155.092-132.458a7.978 7.978 0 01-5.656-2.344l-50.918-50.914a7.99 7.99 0 010-11.313 7.992 7.992 0 0111.314 0l50.917 50.914a7.998 7.998 0 010 11.313 7.996 7.996 0 01-5.657 2.344zm-79.2 79.196a7.959 7.959 0 01-5.653-2.344l-50.917-50.913c-3.129-3.129-3.129-8.184 0-11.313s8.184-3.129 11.313 0l50.914 50.913a7.99 7.99 0 010 11.313 7.928 7.928 0 01-5.657 2.344zm90.51-113.144a7.959 7.959 0 01-5.653-2.344L361 123.671c-3.129-3.129-3.129-8.184 0-11.313s8.184-3.129 11.313 0l28.279 28.283a7.986 7.986 0 010 11.309 7.957 7.957 0 01-5.656 2.344z"/><path d="M222.878 269.782a7.975 7.975 0 01-5.657-2.344 7.99 7.99 0 010-11.313L361 112.35a7.99 7.99 0 0111.313 0 7.998 7.998 0 010 11.313L228.534 267.438a7.93 7.93 0 01-5.656 2.344zm28.291 28.291a7.985 7.985 0 01-5.657-2.344 7.99 7.99 0 010-11.313l143.779-143.775a7.986 7.986 0 0111.309 0 7.986 7.986 0 010 11.309L256.825 295.729a8.015 8.015 0 01-5.656 2.344z"/><path d="M200.251 292.416a7.975 7.975 0 01-5.653-2.344c-9.363-9.36-9.363-24.575 0-33.939 9.048-9.056 24.865-9.071 33.936 0a7.99 7.99 0 010 11.313 7.99 7.99 0 01-11.313 0c-3.039-3.016-8.297-3.031-11.305 0a8.003 8.003 0 00-.008 11.313 7.99 7.99 0 010 11.313 7.978 7.978 0 01-5.657 2.344zm39.597 32.956c-6.145 0-12.29-2.336-16.97-7.016-3.129-3.129-3.129-8.185 0-11.314s8.184-3.129 11.313 0 8.184 3.129 11.313 0a7.93 7.93 0 002.344-5.656 7.946 7.946 0 00-2.344-5.657c-3.129-3.129-3.129-8.184 0-11.313s8.184-3.129 11.313 0a23.856 23.856 0 017.032 16.97c0 6.414-2.504 12.45-7.032 16.977-4.672 4.673-10.817 7.009-16.969 7.009z"/><path d="M251.169 298.073a7.985 7.985 0 01-5.657-2.344l-28.283-28.283a7.998 7.998 0 010-11.313 7.998 7.998 0 0111.313 0l28.283 28.283a7.99 7.99 0 010 11.313 8.015 8.015 0 01-5.656 2.344zm-53.262 64.571a7.975 7.975 0 01-5.656-2.344l-39.6-39.601a7.989 7.989 0 010-11.313 7.99 7.99 0 0111.313 0l39.6 39.604a7.987 7.987 0 010 11.31 7.965 7.965 0 01-5.657 2.344z"/></g><g fill="#2f5373"><path d="M13.856 478.803A7.976 7.976 0 018.2 476.46a7.991 7.991 0 010-11.314l186.398-186.395a7.987 7.987 0 0111.31 0 7.992 7.992 0 010 11.314L19.513 476.46a7.936 7.936 0 01-5.657 2.343zm28.196 29.287a7.983 7.983 0 01-5.656-2.343 7.99 7.99 0 010-11.313L222.79 308.039c3.13-3.13 8.185-3.13 11.314 0s3.129 8.185 0 11.314L47.709 505.747a8.017 8.017 0 01-5.657 2.344z"/><path d="M197.907 362.644a7.975 7.975 0 01-5.656-2.344l-39.6-39.601a7.989 7.989 0 010-11.313 7.99 7.99 0 0111.313 0l39.6 39.604a7.987 7.987 0 010 11.31 7.965 7.965 0 01-5.657 2.344zM61.942 498.606a7.98 7.98 0 01-5.657-2.344l-39.596-39.593a7.99 7.99 0 010-11.313 7.99 7.99 0 0111.313 0l39.596 39.592a7.999 7.999 0 01-5.656 13.658z"/><path d="M188.293 360.94h-56.566c-4.422 0-8-3.574-8-8a7.996 7.996 0 018-8.001h56.566a7.996 7.996 0 018.001 8.001c0 4.426-3.578 8-8.001 8zm-32.002 32.002H99.725c-4.422 0-8-3.574-8-8a7.996 7.996 0 018-8.001h56.566a7.996 7.996 0 018.001 8.001c0 4.426-3.578 8-8.001 8zm-32.002 32.003H67.723c-4.422 0-8-3.575-8-8.001a7.996 7.996 0 018-8.001h56.566a7.997 7.997 0 018.001 8.001 7.994 7.994 0 01-8.001 8.001zm-32.002 32.002H35.721c-4.422 0-8-3.575-8-8.001 0-4.422 3.578-8 8-8h56.566a7.996 7.996 0 018.001 8 7.994 7.994 0 01-8 8.001z"/></g><g fill="#2f5373"><path d="M28.002 512.935c-7.169 0-14.337-2.727-19.802-8.184-5.29-5.29-8.2-12.314-8.2-19.803 0-7.481 2.91-14.504 8.2-19.802a7.998 7.998 0 0111.313 0 7.991 7.991 0 010 11.314 11.95 11.95 0 00-3.512 8.488c0 3.2 1.246 6.22 3.512 8.489 4.672 4.672 12.298 4.672 16.97 0a7.99 7.99 0 0111.313 0 7.991 7.991 0 010 11.314c-5.457 5.457-12.626 8.184-19.794 8.184z"/><path d="M42.052 508.09a7.983 7.983 0 01-5.656-2.343 7.99 7.99 0 010-11.313l16.294-15.631c3.13-3.129 8.185-3.129 11.314 0s3.13 8.185 0 11.314l-16.295 15.63a8.017 8.017 0 01-5.657 2.344zm-28.196-29.287A7.976 7.976 0 018.2 476.46a7.991 7.991 0 010-11.314l16.211-16.2a7.987 7.987 0 0111.31 0 7.992 7.992 0 010 11.315L19.513 476.46a7.936 7.936 0 01-5.657 2.343z"/><path d="M61.942 498.606a7.98 7.98 0 01-5.657-2.344l-39.596-39.593a7.99 7.99 0 010-11.313 7.99 7.99 0 0111.313 0l39.596 39.592a7.999 7.999 0 01-5.656 13.658z"/></g></svg>