<svg id="eDwEVmjqcka1" xmlns="http://www.w3.org/2000/svg" xmlns:xlink="http://www.w3.org/1999/xlink" viewBox="0 0 512 512" shape-rendering="geometricPrecision" text-rendering="geometricPrecision"><g><path d="M394.928,154.294c-1.149,0-2.309-.238-3.414-.773-3.993-1.891-5.704-6.657-3.809-10.649l25.458-53.7422c1.887-3.9885,6.673-5.7191,10.65-3.8049c3.992,1.8868,5.703,6.6567,3.808,10.6491l-25.458,53.738c-1.36,2.895-4.235,4.582-7.235,4.582v0Z" fill="#2f5373"/><path d="M366.664,126.015c-3,0-5.863-1.688-7.235-4.578-1.894-3.993-.183-8.759,3.809-10.65L416.98,85.3327c3.977-1.8908,8.758-.1836,10.649,3.8088c1.895,3.9886.184,8.7584-3.809,10.6452L370.079,125.245c-1.102.512-2.262.77-3.415.77v0Z" fill="#2f5373"/><path d="M394.936,154.294c-2.047,0-4.094-.781-5.653-2.344L361,123.671c-3.129-3.129-3.129-8.184,0-11.313s8.184-3.129,11.313,0l28.279,28.283c3.129,3.125,3.129,8.184,0,11.309-1.558,1.563-3.605,2.344-5.656,2.344v0Z" fill="#2f5373"/></g><g transform="translate(0 0.000001)"><path d="M138.521,218.365c-3.528,0-6.77-2.36-7.72-5.938-15.45-57.836,1.223-120.0235,43.507-162.2997C216.588,7.85506,278.772,-8.81008,336.596,6.63232c4.274,1.1407,6.809,5.51988,5.664,9.78968-1.133,4.2737-5.551,6.8325-9.789,5.6644-52.332-13.97742-108.609,1.1134-146.85,39.3541C147.369,99.693,132.29,155.966,146.256,208.298c1.144,4.266-1.391,8.649-5.661,9.793-.691.184-1.387.274-2.074.274v0Z" fill="#2f5373"/><path d="M158.752,198.172c-3.871,0-7.27-2.817-7.895-6.762-7.129-45.409,7.985-91.8772,40.429-124.3207c32.439-32.4317,78.907-47.5069,124.27-40.4244c4.359.6875,7.344,4.7815,6.664,9.1529-.695,4.3675-4.832,7.2934-9.153,6.6645-40.307-6.3637-81.626,7.0942-110.48,35.9281-28.834,28.8336-42.264,70.1566-35.92,110.5186.68,4.368-2.297,8.466-6.665,9.153-.425.055-.832.09-1.25.09Z" fill="#2f5373"/><path d="M332.709,137.328c-2.047,0-4.094-.785-5.657-2.344-34.314-34.314-34.314-90.1422,0-124.4569c3.13-3.12908,8.185-3.12908,11.314,0s3.129,8.1842,0,11.3133c-28.072,28.0721-28.072,73.7547,0,101.8306c3.129,3.125,3.129,8.184,0,11.313-1.559,1.559-3.61,2.344-5.657,2.344Z" fill="#2f5373"/><path d="M332.709,24.1843c-2.047,0-4.094-.7852-5.657-2.3439-3.129-3.1292-3.129-8.1842,0-11.3133l1.833-1.83212c3.129-3.12911,8.184-3.12911,11.313,0s3.129,8.18412,0,11.31322l-1.832,1.8322c-1.559,1.5665-3.61,2.3439-5.657,2.3439Z" fill="#2f5373"/><path d="M140.361,216.525c-2.047,0-4.094-.785-5.657-2.344-3.129-3.129-3.129-8.184,0-11.313c34.323-34.323,90.158-34.307,124.465,0c3.129,3.129,3.129,8.184,0,11.313-3.129,3.125-8.184,3.125-11.313,0-28.064-28.068-73.755-28.084-101.839,0-1.558,1.566-3.609,2.344-5.656,2.344v0Z" fill="#2f5373"/><path d="M138.528,218.357c-2.047,0-4.094-.785-5.656-2.344-3.129-3.129-3.129-8.184,0-11.313l1.832-1.832c3.129-3.129,8.184-3.129,11.313,0s3.129,8.184,0,11.313l-1.832,1.832c-1.559,1.559-3.61,2.344-5.657,2.344Z" fill="#2f5373"/><path d="M255.878,236.782c-2.047,0-4.094-.781-5.657-2.344-3.129-3.129-3.129-8.184,0-11.313L345,128.35c3.129-3.129,8.184-3.129,11.313,0c3.125,3.129,3.125,8.184,0,11.313l-94.779,94.775c-1.558,1.571-3.609,2.344-5.656,2.344Z" fill="#2f5373"/><path d="M321.404,171.272c-.375,0-.758-.024-1.145-.078l-39.6-5.665c-4.376-.625-7.419-4.68-6.794-9.059.633-4.375,4.704-7.414,9.056-6.789l39.604,5.664c4.375.621,7.418,4.68,6.793,9.055-.57,4.001-3.992,6.872-7.914,6.872Z" fill="#2f5373"/><path d="M287.444,205.212c-3.922,0-7.348-2.872-7.914-6.864l-5.657-39.604c-.625-4.376,2.418-8.431,6.794-9.056c4.375-.656,8.43,2.415,9.055,6.794l5.656,39.6c.625,4.375-2.414,8.434-6.793,9.055-.391.051-.766.075-1.141.075Z" fill="#2f5373"/></g><g transform="translate(0 0.000001)"><path d="M343.741,387.805c-14.431,0-28.951-1.847-43.21-5.664-4.266-1.133-6.809-5.52-5.664-9.79c1.144-4.273,5.578-6.809,9.793-5.664c52.34,13.977,108.613-1.121,146.857-39.362c38.241-38.245,53.332-94.522,39.362-146.853-1.144-4.262,1.391-8.645,5.665-9.79c4.223-1.137,8.649,1.391,9.793,5.664c15.439,57.836-1.226,120.024-43.506,162.288-31.85,31.85-75.005,49.171-119.09,49.171Z" fill="#2f5373"/><path d="M343.792,363.831c-7.403,0-14.833-.57-22.252-1.738-4.367-.688-7.344-4.786-6.664-9.153.687-4.368,4.785-7.313,9.153-6.665c40.33,6.38,81.685-7.086,110.519-35.92c28.826-28.834,42.26-70.141,35.924-110.48-.68-4.367,2.301-8.465,6.664-9.153c4.504-.625,8.462,2.305,9.153,6.665c7.118,45.378-7.993,91.838-40.428,124.274-27.147,27.15-64.125,42.17-102.069,42.17v0Z" fill="#2f5373"/><path d="M440.196,211.634c-22.536,0-45.073-8.575-62.226-25.736-3.129-3.129-3.129-8.184,0-11.313c3.125-3.13,8.184-3.13,11.313,0c28.096,28.091,73.763,28.076,101.827,0c3.129-3.13,8.188-3.13,11.313,0c3.129,3.129,3.129,8.184,0,11.313-17.161,17.161-39.69,25.736-62.227,25.736v0Z" fill="#2f5373"/><path d="M496.766,188.242c-2.054,0-4.109-.793-5.672-2.352-3.117-3.137-3.102-8.2.028-11.321l1.832-1.832c3.133-3.129,8.199-3.094,11.317.023c3.121,3.137,3.105,8.2-.024,11.321l-1.832,1.832c-1.558,1.551-3.605,2.329-5.649,2.329Z" fill="#2f5373"/><path d="M304.426,380.59c-2.047,0-4.094-.785-5.653-2.344-3.129-3.129-3.129-8.184,0-11.313c28.072-28.08,28.072-73.755,0-101.839-3.129-3.129-3.129-8.184,0-11.313c3.125-3.125,8.184-3.125,11.31,0c34.314,34.315,34.314,90.151,0,124.465-1.559,1.559-3.606,2.344-5.657,2.344v0Z" fill="#2f5373"/><path d="M302.594,382.422c-2.047,0-4.094-.785-5.653-2.344-3.129-3.129-3.129-8.184,0-11.313l1.832-1.832c3.125-3.129,8.184-3.129,11.31,0c3.129,3.129,3.129,8.184,0,11.313l-1.833,1.832c-1.558,1.559-3.605,2.344-5.656,2.344Z" fill="#2f5373"/><path d="M285.169,264.073c-2.047,0-4.098-.785-5.657-2.344-3.129-3.129-3.129-8.184,0-11.313l95.779-95.775c3.125-3.129,8.184-3.129,11.309,0c3.129,3.125,3.129,8.184,0,11.309l-95.775,95.779c-1.57,1.559-3.617,2.344-5.656,2.344v0Z" fill="#2f5373"/><path d="M355.351,239.159c-.375,0-.762-.027-1.144-.082l-39.601-5.657c-4.379-.625-7.418-4.68-6.793-9.055.621-4.375,4.688-7.41,9.055-6.793l39.604,5.656c4.376.625,7.415,4.68,6.79,9.056-.567,4-3.993,6.875-7.911,6.875v0Z" fill="#2f5373"/><path d="M355.335,239.159c-3.922,0-7.344-2.875-7.914-6.868l-5.665-39.6c-.621-4.375,2.419-8.434,6.794-9.059c4.344-.629,8.426,2.418,9.059,6.793l5.661,39.605c.625,4.375-2.415,8.43-6.79,9.055-.387.047-.77.074-1.145.074v0Z" fill="#2f5373"/></g><g transform="translate(0 0.000001)"><path d="M228.534,320.7c-2.047,0-4.094-.786-5.656-2.344l-28.279-28.283c-3.13-3.13-3.13-8.185,0-11.314c3.125-3.129,8.184-3.129,11.309,0l28.283,28.283c3.129,3.129,3.129,8.185,0,11.314-1.559,1.558-3.61,2.344-5.657,2.344Z" fill="#2f5373"/><path d="M383.626,188.242c-2.051,0-4.098-.786-5.656-2.344l-50.918-50.914c-3.129-3.129-3.129-8.188,0-11.313c3.13-3.129,8.185-3.129,11.314,0l50.917,50.914c3.125,3.129,3.125,8.184,0,11.313-1.563,1.558-3.61,2.344-5.657,2.344Z" fill="#2f5373"/><path d="M304.426,267.438c-2.047,0-4.094-.781-5.653-2.344l-50.917-50.913c-3.129-3.129-3.129-8.184,0-11.313s8.184-3.129,11.313,0l50.914,50.913c3.129,3.129,3.129,8.184,0,11.313-1.559,1.571-3.606,2.344-5.657,2.344Z" fill="#2f5373"/><path d="M394.936,154.294c-2.047,0-4.094-.781-5.653-2.344L361,123.671c-3.129-3.129-3.129-8.184,0-11.313s8.184-3.129,11.313,0l28.279,28.283c3.129,3.125,3.129,8.184,0,11.309-1.558,1.563-3.605,2.344-5.656,2.344v0Z" fill="#2f5373"/><g><path d="M222.878,269.782c-2.047,0-4.094-.781-5.657-2.344-3.129-3.129-3.129-8.184,0-11.313L361,112.35c3.129-3.129,8.184-3.129,11.313,0c3.125,3.129,3.125,8.184,0,11.313L228.534,267.438c-1.558,1.571-3.609,2.344-5.656,2.344Z" fill="#2f5373"/><path d="M251.169,298.073c-2.047,0-4.098-.785-5.657-2.344-3.129-3.129-3.129-8.184,0-11.313L389.291,140.641c3.125-3.129,8.184-3.129,11.309,0c3.129,3.125,3.129,8.184,0,11.309L256.825,295.729c-1.57,1.559-3.617,2.344-5.656,2.344v0Z" fill="#2f5373"/></g><path d="M200.251,292.416c-2.047,0-4.094-.785-5.653-2.344-9.363-9.36-9.363-24.575,0-33.939c9.048-9.056,24.865-9.071,33.936,0c3.129,3.129,3.129,8.188,0,11.313-3.129,3.129-8.184,3.129-11.313,0-3.039-3.016-8.297-3.031-11.305,0-3.126,3.121-3.126,8.192-.008,11.313c3.129,3.129,3.129,8.184,0,11.313-1.559,1.559-3.606,2.344-5.657,2.344Z" fill="#2f5373"/><path d="M239.848,325.372c-6.145,0-12.29-2.336-16.97-7.016-3.129-3.129-3.129-8.185,0-11.314s8.184-3.129,11.313,0s8.184,3.129,11.313,0c1.512-1.511,2.344-3.512,2.344-5.656c0-2.137-.832-4.145-2.344-5.657-3.129-3.129-3.129-8.184,0-11.313s8.184-3.129,11.313,0c4.528,4.528,7.032,10.559,7.032,16.97c0,6.414-2.504,12.45-7.032,16.977-4.672,4.673-10.817,7.009-16.969,7.009v0Z" fill="#2f5373"/><path d="M251.169,298.073c-2.047,0-4.098-.785-5.657-2.344l-28.283-28.283c-3.125-3.125-3.125-8.184,0-11.313c3.129-3.125,8.184-3.125,11.313,0l28.283,28.283c3.129,3.129,3.129,8.184,0,11.313-1.57,1.559-3.617,2.344-5.656,2.344v0Z" fill="#2f5373"/><path d="M197.907,362.644c-2.047,0-4.094-.782-5.656-2.344l-39.6-39.601c-3.13-3.129-3.13-8.184,0-11.313c3.129-3.129,8.184-3.129,11.313,0l39.6,39.604c3.129,3.126,3.129,8.185,0,11.31-1.559,1.562-3.606,2.344-5.657,2.344v0Z" fill="#2f5373"/></g><g><path d="M13.8564,478.803c-2.0471,0-4.09406-.781-5.65666-2.343-3.12911-3.126-3.12911-8.185,0-11.314L194.598,278.751c3.126-3.129,8.185-3.129,11.31,0c3.129,3.13,3.129,8.185,0,11.314L19.513,476.46c-1.5587,1.57-3.6096,2.343-5.6566,2.343Z" fill="#2f5373"/><path d="M42.1472,507.094c-2.047,0-4.0979-.785-5.6566-2.344-3.1291-3.129-3.1291-8.184,0-11.313L222.885,307.042c3.13-3.129,8.185-3.129,11.314,0s3.129,8.185,0,11.314L47.8039,504.75c-1.5705,1.559-3.6175,2.344-5.6567,2.344Z" transform="translate(-.095038 0.996739)" fill="#2f5373"/><path d="M197.907,362.644c-2.047,0-4.094-.782-5.656-2.344l-39.6-39.601c-3.13-3.129-3.13-8.184,0-11.313c3.129-3.129,8.184-3.129,11.313,0l39.6,39.604c3.129,3.126,3.129,8.185,0,11.31-1.559,1.562-3.606,2.344-5.657,2.344v0Z" fill="#2f5373"/><path d="M61.9416,498.606c-2.051,0-4.098-.786-5.6567-2.344L16.6886,456.669c-3.1291-3.129-3.1291-8.188,0-11.313c3.1291-3.129,8.1842-3.129,11.3133,0l39.5963,39.592c3.1252,3.129,3.1252,8.185,0,11.314-1.5626,1.558-3.6096,2.344-5.6566,2.344v0Z" fill="#2f5373"/><path d="M188.293,360.94h-56.566c-4.422,0-8-3.574-8-8c0-4.422,3.578-8.001,8-8.001h56.566c4.423,0,8.001,3.579,8.001,8.001c0,4.426-3.578,8-8.001,8Z" fill="#2f5373"/><path d="M156.291,392.942h-56.5658c-4.4221,0-8.0005-3.574-8.0005-8c0-4.422,3.5784-8.001,8.0005-8.001h56.5658c4.423,0,8.001,3.579,8.001,8.001c0,4.426-3.578,8-8.001,8Z" fill="#2f5373"/><path d="M124.289,424.945h-56.5658c-4.4222,0-8.0005-3.575-8.0005-8.001c0-4.422,3.5783-8.001,8.0005-8.001h56.5658c4.422,0,8.001,3.579,8.001,8.001c0,4.426-3.579,8.001-8.001,8.001Z" fill="#2f5373"/><path d="M92.2873,456.947h-56.5662c-4.4222,0-8.0005-3.575-8.0005-8.001c0-4.422,3.5783-8,8.0005-8h56.5662c4.4221,0,8.0007,3.578,8.0007,8c0,4.426-3.5786,8.001-8.0007,8.001Z" fill="#2f5373"/></g><g><path d="M28.0018,512.935c-7.1684,0-14.3369-2.727-19.80205-8.184C2.91034,499.461,0,492.437,0,484.948c0-7.481,2.91034-14.504,8.19975-19.802c3.12915-3.125,8.18415-3.125,11.31325,0c3.1291,3.13,3.1291,8.188,0,11.314-2.2658,2.273-3.512,5.289-3.512,8.488c0,3.2,1.2462,6.22,3.512,8.489c4.6722,4.672,12.2976,4.672,16.9698,0c3.1291-3.129,8.1841-3.129,11.3133,0c3.1291,3.129,3.1291,8.184,0,11.314-5.4574,5.457-12.6259,8.184-19.7943,8.184Z" fill="#2f5373"/><path d="M42.1472,507.094c-2.047,0-4.0979-.785-5.6566-2.344-3.1291-3.129-3.1291-8.184,0-11.313l16.294739-15.630737c3.13-3.129001,8.185-3.129001,11.314,0s3.129,8.185,0,11.313998L47.8039,504.75c-1.5705,1.559-3.6175,2.344-5.6567,2.344Z" transform="translate(-.095038 0.996739)" fill="#2f5373"/><path d="M13.8564,478.803c-2.0471,0-4.09406-.781-5.65666-2.343-3.12911-3.126-3.12911-8.185,0-11.314L24.4111,448.946503c3.126-3.129002,8.185-3.129002,11.31,0c3.129001,3.129998,3.129001,8.185,0,11.314L19.513,476.46c-1.5587,1.57-3.6096,2.343-5.6566,2.343Z" fill="#2f5373"/><path d="M61.9416,498.606c-2.051,0-4.098-.786-5.6567-2.344L16.6886,456.669c-3.1291-3.129-3.1291-8.188,0-11.313c3.1291-3.129,8.1842-3.129,11.3133,0l39.5963,39.592c3.1252,3.129,3.1252,8.185,0,11.314-1.5626,1.558-3.6096,2.344-5.6566,2.344v0Z" fill="#2f5373"/></g></svg>