<svg width="278" height="278" viewBox="0 0 278 278" fill="none" xmlns="http://www.w3.org/2000/svg">
<path d="M213.955 237.242C192.226 253.857 166.245 262.639 138.82 262.639C70.546 262.639 15 207.094 15 138.819C15 111.394 23.782 85.4129 40.397 63.6849C42.913 60.3949 42.286 55.6879 38.995 53.1719C35.707 50.6559 30.999 51.2829 28.482 54.5739C9.849 78.9409 0 108.073 0 138.82C0 215.365 62.274 277.64 138.82 277.64C169.567 277.64 198.699 267.791 223.066 249.158C226.356 246.642 226.984 241.934 224.468 238.644C221.952 235.354 217.245 234.725 213.955 237.242V237.242Z" fill="#2F5373"/>
<path d="M138.82 0C108.073 0 78.941 9.849 54.574 28.482C51.283 30.998 50.656 35.705 53.172 38.995C55.688 42.286 60.396 42.914 63.685 40.397C85.413 23.782 111.394 15 138.819 15C207.093 15 262.639 70.545 262.639 138.82C262.639 166.245 253.857 192.226 237.241 213.954C234.725 217.245 235.352 221.952 238.643 224.468C240.002 225.508 241.604 226.011 243.193 226.011C245.45 226.011 247.68 224.997 249.157 223.066C267.79 198.7 277.639 169.568 277.639 138.82C277.64 62.275 215.366 0 138.82 0V0Z" fill="#2F5373"/>
<path d="M138.82 47.3199C171.305 47.3199 201.654 64.841 218.024 93.045C220.103 96.628 224.695 97.845 228.275 95.767C231.858 93.687 233.076 89.0979 230.997 85.5159C211.954 52.7029 176.633 32.3199 138.82 32.3199C80.096 32.3199 32.32 80.0959 32.32 138.82C32.32 197.544 80.096 245.32 138.82 245.32C197.545 245.32 245.32 197.544 245.32 138.82C245.32 132.77 244.802 126.699 243.781 120.776C243.078 116.694 239.205 113.958 235.116 114.659C231.035 115.363 228.296 119.242 229 123.324C229.876 128.408 230.32 133.622 230.32 138.82C230.32 155.704 225.718 171.531 217.71 185.123C205.295 168.51 187.996 156.313 168.52 150.103C179.599 141.321 186.726 127.759 186.726 112.556C186.726 86.1399 165.236 64.6489 138.82 64.6489C112.404 64.6489 90.913 86.1399 90.913 112.556C90.913 127.759 98.04 141.321 109.12 150.103C89.644 156.313 72.345 168.51 59.93 185.123C51.922 171.531 47.32 155.704 47.32 138.82C47.32 88.3669 88.367 47.3199 138.82 47.3199V47.3199ZM105.913 112.556C105.913 94.4109 120.675 79.6489 138.82 79.6489C156.965 79.6489 171.726 94.4109 171.726 112.556C171.726 130.701 156.964 145.462 138.82 145.462C120.675 145.462 105.913 130.7 105.913 112.556ZM138.82 160.462C166.853 160.462 193.098 174.752 208.489 198.066C191.692 217.788 166.694 230.32 138.82 230.32C110.946 230.32 85.948 217.788 69.151 198.066C84.543 174.752 110.787 160.462 138.82 160.462Z" fill="#2F5373"/>
<circle cx="138.5" cy="139.5" r="91.5" fill="#F2F1EC"/>
</svg>
