<?xml version="1.0" encoding="utf-8"?>
<!-- Generator: Adobe Illustrator 24.0.2, SVG Export Plug-In . SVG Version: 6.00 Build 0)  -->
<svg version="1.1" id="Layer_1" xmlns="http://www.w3.org/2000/svg" xmlns:xlink="http://www.w3.org/1999/xlink" x="0px" y="0px"
	 viewBox="0 0 1920 1080" style="enable-background:new 0 0 1920 1080;" xml:space="preserve">
<style type="text/css">
	.st0{fill:#FFFFFF;}
</style>
<g>
	<g>
		<path d="M833.97,983.55c-2,0-4,0-6,0c-4.8-1.9-7.98-5.39-9.75-10.16c-0.86-2.33-2.48-3.04-4.84-3.27
			c-34.56-3.27-65.53-15.69-92.78-37.12c-4.31-3.39-7.73-4.77-13.2-2.78c-7.44,2.69-15.04-2.61-15.68-10.37
			c-0.22-2.62,0.5-5.48,1.46-7.98c1.09-2.83,0.5-4.72-1.35-6.99c-22.75-27.93-36.02-59.82-39.42-95.73
			c-0.23-2.38-0.97-3.97-3.28-4.83c-4.76-1.79-8.27-4.94-10.16-9.75c0-2,0-4,0-6c1.89-4.81,5.4-7.97,10.16-9.75
			c2.32-0.87,3.05-2.46,3.27-4.83c3.23-34.58,15.69-65.54,37.12-92.78c3.38-4.3,4.77-7.7,2.79-13.19
			c-2.83-7.83,3.33-15.83,11.48-15.79c2.3,0.01,4.74,0.63,6.87,1.54c2.8,1.19,4.71,0.53,6.99-1.33
			c27.93-22.76,59.82-36.01,95.73-39.43c2.36-0.23,3.97-0.95,4.84-3.27c1.78-4.76,4.95-8.27,9.76-10.16c2,0,4,0,6,0
			c4.48,1.84,7.8,4.91,9.42,9.5c1.04,2.94,3.08,3.51,5.92,4.04c12,2.21,23.97,4.68,35.88,7.35c4.25,0.95,5.95,4.07,4.9,7.41
			c-1.02,3.23-4.09,4.4-8.35,3.21c-4.21-1.17-8.38-2.49-12.64-3.41c-5.61-1.22-11.28-2.12-17.86-3.33c1.75,3.43,2.81,5.82,4.17,8.02
			c0.49,0.8,1.64,1.51,2.59,1.68c23.59,4.23,45.23,13.09,64.89,26.82c0.91,0.63,2.36,1.07,3.39,0.84c2.62-0.58,5.14-1.6,8.17-2.59
			c-1.21-1.02-1.97-1.82-2.87-2.4c-7.69-4.88-15.37-9.77-23.13-14.54c-3.8-2.33-5.07-5.17-3.35-8.28c1.73-3.12,4.89-3.94,8.73-1.57
			c9.23,5.7,18.6,11.26,27.28,17.72c4.49,3.34,7.96,4.72,13.59,2.81c9.28-3.14,17.57,5.5,15.14,15.03
			c-0.31,1.21-0.52,2.48-1.08,3.57c-1.34,2.61-0.52,4.48,1.25,6.66c22.83,27.94,36.07,59.88,39.52,95.82
			c0.23,2.36,0.93,3.98,3.26,4.85c4.77,1.78,8.27,4.95,10.17,9.76c0,2,0,4,0,6c-1.8,4.14-4.46,7.51-8.83,9.09
			c-3.39,1.22-5.02,3.39-4.68,7.03c0.08,0.86-0.09,1.74-0.2,2.61c-4.41,34.56-17.48,65.41-39.7,92.29c-1.6,1.93-1.62,3.51-0.95,5.73
			c0.85,2.83,1.85,5.88,1.58,8.72c-0.79,8.32-8.67,12.67-17.32,9.88c-3.13-1.01-5.59-1.71-8.77,0.89
			c-27.81,22.77-59.67,35.94-95.49,39.34c-2.36,0.22-3.98,0.92-4.85,3.26C841.95,978.14,838.78,981.65,833.97,983.55z
			 M867.75,905.61c-0.17-1.53-0.2-2.14-0.31-2.74c-1.68-9.08-3.46-18.15-5.03-27.25c-1.2-6.97,1.41-12.38,7.1-16.56
			c1.16-0.85,2.13-2.71,2.19-4.15c0.25-5.99-0.05-12,0.17-17.99c0.33-9.28,6.51-15.31,15.77-15.58c4.12-0.12,8.25-0.15,12.37,0
			c2.79,0.1,3.82-1.09,3.64-4.11c-1.57,0-3.04,0.04-4.51-0.01c-3.91-0.14-6.21-2.17-6.26-5.46c-0.05-3.27,2.28-5.55,6.08-5.73
			c2.72-0.13,5.45-0.02,8.45-0.02c0.36-3,0.69-5.65,1.08-8.86c-2.59,0-4.7,0.15-6.77-0.03c-3.38-0.31-5.47-2.53-5.48-5.52
			c-0.02-3.17,2.2-5.37,5.8-5.57c2.04-0.12,4.09-0.02,6.56-0.02c-0.48-3.41-0.85-6.06-1.25-8.93c-3.27,0-6.14,0.17-8.99-0.04
			c-3.49-0.25-5.65-2.74-5.48-5.9c0.16-3.05,2.29-5.03,5.73-5.22c1.71-0.09,3.42-0.02,5.19-0.02c-0.99-6.91-1.61-7.47-7.84-7.47
			c-10.37,0-20.76-0.22-31.12,0.15c-2.7,0.1-5.8,1.49-7.91,3.26c-4.3,3.59-7.99,7.9-12.05,11.8c-8.22,7.9-19.69,7.87-27.89-0.07
			c-3.86-3.74-7.69-7.51-11.39-11.41c-2.49-2.62-5.31-3.82-8.97-3.77c-10.37,0.14-20.75,0.05-31.12,0.05
			c-5.39,0-6.95,1.61-6.97,7.45c1.36,0,2.73-0.04,4.09,0.01c3.98,0.12,6.28,2.04,6.43,5.3c0.15,3.39-2.29,5.75-6.29,5.91
			c-2.71,0.11-5.42,0.02-8.31,0.02c-0.34,3.14-0.63,5.8-0.93,8.53c4.78,1.08,11.74-1.74,11.95,5.66c0.22,7.95-7.19,5.11-12,6.35
			c0.35,2.78,0.69,5.42,1.06,8.42c3.3,0,6.3-0.19,9.25,0.05c3.28,0.27,5.36,2.72,5.27,5.72c-0.09,3.05-2.22,5.15-5.59,5.36
			c-1.7,0.11-3.41,0.02-5.17,0.02c0.51,4.02,0.51,4.05,3.68,4.08c3.75,0.04,7.5-0.03,11.25,0.02c10.56,0.13,16.74,6.25,16.89,16.79
			c0.08,5.62-0.08,11.25,0.09,16.87c0.04,1.28,0.68,3.06,1.64,3.7c7.26,4.81,8.98,11.46,7.32,19.61c-1.8,8.78-3.33,17.62-5.13,27.21
			c7.68,1.52,15.09,3.02,22.52,4.43c4.25,0.8,6.58,3.28,5.99,6.62c-0.61,3.44-3.54,5.17-7.76,4.53c-3.68-0.56-7.36-1.17-11.63-1.86
			c9.23,18.06,18.24,35.69,27.25,53.32c0.41-0.05,0.81-0.1,1.22-0.14c8.98-17.59,17.95-35.17,27.14-53.16
			c-4.5,0.71-8.41,1.39-12.35,1.93c-4.45,0.61-7.44-1.35-7.79-4.95c-0.32-3.33,2.13-5.49,6.46-6.25
			C852.56,908.65,859.98,907.11,867.75,905.61z M712.25,785.96c9.28,0,18.62,0.06,27.94-0.12c0.75-0.01,1.9-1.61,2.12-2.63
			c1.13-5.22,1.7-10.58,3.05-15.75c3.39-13,9.97-24.38,18.49-34.32c-7.15-7.2-14.16-14.26-21.18-21.32
			C726.34,726.71,710.33,765.3,712.25,785.96z M950.13,785.96c-1.8-28.77-12.02-53.34-30.54-74.15
			c-7.18,7.18-14.21,14.2-21.35,21.33c12.3,14.44,19.72,31.29,21.44,50.58c0.07,0.81,1.43,2.13,2.21,2.14
			C931.11,786.01,940.34,785.96,950.13,785.96z M898.69,850.57c6.67,6.66,13.71,13.69,20.94,20.91
			c18.58-20.93,28.72-45.51,30.45-73.77c-0.71-0.19-1.17-0.43-1.63-0.43c-8.75-0.03-17.5,0.01-26.25-0.08
			c-2.32-0.02-2.55,1.26-2.71,3.07c-0.86,10.05-3.31,19.77-7.92,28.71C907.71,836.47,902.95,843.51,898.69,850.57z M711.82,797.22
			c1.81,28.8,11.96,53.4,30.66,74.34c7.35-7.32,14.34-14.27,21.4-21.3c-0.28-0.4-0.61-0.93-1-1.4
			c-11.77-14.26-18.76-30.53-20.44-48.99c-0.2-2.17-1.13-2.7-3.08-2.67c-5,0.08-10,0.02-15,0.02
			C720.29,797.22,716.21,797.22,711.82,797.22z M751.3,702.87c7.25,7.26,14.27,14.29,21.4,21.44c14.4-12.27,31.22-19.72,50.5-21.52
			c0.8-0.07,2.02-1.97,2.04-3.04c0.18-7.12,0.12-14.24,0.09-21.36c-0.01-1.94-0.16-3.87-0.25-5.97
			C796.58,674.21,772.12,684.43,751.3,702.87z M910.92,703.1c-21.1-18.67-45.59-28.97-73.73-30.62c-0.25,0.64-0.5,0.98-0.5,1.32
			c-0.04,8.87-0.13,17.73,0.05,26.6c0.02,0.88,1.59,2.26,2.65,2.49c5.22,1.16,10.59,1.71,15.76,3.05
			c13.03,3.36,24.41,9.97,34.5,18.58C896.71,717.39,903.66,710.4,910.92,703.1z M894.37,747.16c-3.28-6.31-7.13-9.16-14.34-9.05
			c-33.09,0.49-66.19,0.21-99.29,0.21c-6.84,0-9.66,1.92-12.59,8.84c1.35,0,2.55,0,3.76,0c8.37,0,16.74,0.12,25.1-0.04
			c6.4-0.12,11.67,2.05,16.08,6.64c3.55,3.69,7.21,7.27,10.85,10.87c4.83,4.78,9.15,4.82,13.94,0.12
			c3.47-3.42,7.01-6.78,10.31-10.35c4.81-5.2,10.59-7.49,17.7-7.3C875.22,747.36,884.55,747.16,894.37,747.16z M706,872.07
			c1.66-5.13,2.64-9.44,4.44-13.38c2.94-6.45,2.78-12.28-0.43-18.77c-2.06-4.18-4.24-7.16-8.54-8.99c-5.07-2.15-9.88-4.9-15.63-7.81
			c0.93,3.63,1.59,6.26,2.27,8.89c1.08,4.22-0.26,7.35-3.53,8.23c-3.38,0.92-6.21-0.96-7.28-5.16c-1.35-5.32-2.45-10.7-3.74-16.03
			c-0.24-1.01-0.62-2.33-1.37-2.8c-2.4-1.49-5-2.64-8.24-4.28c3.94,31.26,15.3,58.51,34.47,83.25c0.65-1.93,0.91-3.27,1.52-4.42
			c2.03-3.79,0.99-6.79-1.39-10.21c-3.7-5.3-6.79-11.05-9.95-16.71c-2.12-3.8-1.28-7.08,1.85-8.69c3.14-1.61,5.96-0.34,8.14,3.61
			C700.87,862.93,703.19,867.04,706,872.07z M703.57,663.22c-0.3,0.35-0.59,0.7-0.89,1.05c6.08,18.73,12.15,37.45,18.45,56.86
			c10.6-16.12,23.51-28.92,39.43-39.45C741.09,675.38,722.33,669.3,703.57,663.22z M959.28,664.21c-0.31-0.32-0.63-0.65-0.94-0.97
			c-18.74,6.08-37.49,12.15-56.91,18.45c15.95,10.57,28.84,23.4,39.4,39.45C947.13,701.7,953.21,682.96,959.28,664.21z M702.64,919
			c0.3,0.3,0.6,0.59,0.9,0.89c18.76-6.07,37.52-12.15,57.02-18.46c-16.24-10.54-28.95-23.5-39.48-39.36
			C714.78,881.52,708.71,900.26,702.64,919z M940.86,862.04c-10.54,16-23.37,28.87-39.38,39.39c19.45,6.3,38.24,12.38,57.02,18.46
			c0.26-0.33,0.52-0.66,0.79-0.99C953.21,900.17,947.14,881.44,940.86,862.04z M831.64,610.74c-0.44-0.01-0.87-0.03-1.31-0.04
			c-8.99,17.6-17.97,35.2-27.24,53.35c18.74-3.94,36.94-3.95,55.75,0.01C849.59,645.91,840.62,628.32,831.64,610.74z
			 M1011.84,792.19c-0.02-0.44-0.04-0.88-0.06-1.31c-17.58-8.97-35.16-17.94-53.34-27.22c4.05,18.85,3.93,37.05,0.06,55.77
			C976.64,810.16,994.24,801.18,1011.84,792.19z M703.45,763.67c-18.2,9.31-35.85,18.33-53.5,27.36c0.07,0.4,0.15,0.8,0.22,1.2
			c17.58,8.97,35.17,17.95,53.32,27.21C699.49,800.59,699.55,782.39,703.45,763.67z M878.52,901.01
			c12.32-5.46,23.11-12.29,32.48-21.01c-7.28-7.29-14.23-14.25-21.18-21.21c-4.26,2.98-8.54,6.19-13.05,9.04
			c-2.86,1.8-3.77,3.95-3.13,7.21C875.32,883.47,876.82,891.92,878.52,901.01z M783.47,900.91c1.71-9.25,3.46-17.91,4.78-26.64
			c0.26-1.73-0.63-4.4-1.94-5.45c-4.54-3.64-9.51-6.75-14.01-9.86c-7,7-14.03,14.02-21.19,21.18
			C760.49,888.66,771.13,895.63,783.47,900.91z M873.65,726.97c-24.53-17.97-63.29-16.86-84.59,0
			C817.13,726.97,845.06,726.97,873.65,726.97z M810.53,958.61c-1.03-2.12-1.8-3.4-2.29-4.78c-1.19-3.36-3.38-4.84-7.03-5.49
			c-22.41-4.01-42.86-12.85-61.63-25.7c-1.3-0.89-3.42-1.07-5.05-0.84c-2.24,0.32-4.39,1.36-7.23,2.31
			C752.08,943.29,779.35,954.6,810.53,958.61z M998.05,771.18c-4.05-31.29-15.34-58.57-34.52-83.31c-1.05,3.11-2.06,5.51-2.6,8
			c-0.25,1.16,0.06,2.77,0.74,3.74c13.68,19.64,22.54,41.25,26.79,64.78c0.17,0.96,0.8,2.16,1.59,2.64
			C992.34,768.45,994.84,769.55,998.05,771.18z M997.99,812.01c-2.45,1.2-4.16,2.21-5.98,2.89c-2.49,0.94-3.46,2.6-3.94,5.23
			c-4.15,22.92-12.95,43.94-26.25,63.08c-0.7,1-1.21,2.57-0.97,3.71c0.54,2.61,1.6,5.12,2.67,8.34
			C982.68,870.45,994.07,843.22,997.99,812.01z M810.59,624.47c-31.27,4.04-58.55,15.33-83.27,34.52c3.08,1.04,5.46,2.06,7.95,2.6
			c1.16,0.25,2.78-0.04,3.75-0.71c19.63-13.7,41.23-22.56,64.77-26.82c1.05-0.19,2.3-0.98,2.85-1.87
			C808.01,630,809.03,627.6,810.59,624.47z M698.07,688.31c-18.83,24.38-30.21,51.59-34.1,82.69c1.71-0.79,2.67-1.35,3.7-1.68
			c4.21-1.37,5.89-4.16,6.71-8.62c3.69-20.1,11.1-38.89,22.62-55.77C700.83,699.31,702.23,694.52,698.07,688.31z M851.4,958.57
			c31.25-3.91,58.48-15.32,83.29-34.46c-3.13-1.05-5.53-2.06-8.02-2.6c-1.16-0.25-2.77,0.04-3.74,0.72
			c-19.67,13.67-41.28,22.61-64.86,26.8c-0.88,0.16-2.01,0.64-2.42,1.33C854.2,952.78,853.02,955.36,851.4,958.57z M862.62,646.51
			c1.72,3.45,3.41,6.06,4.38,8.92c3.13,9.22,8.99,15.37,18.62,17.63c0.47,0.11,0.89,0.5,1.36,0.6c0.71,0.14,1.52,0.34,2.17,0.13
			c7.15-2.26,14.28-4.59,22.08-7.12C895.99,656.98,880.32,650.44,862.62,646.51z M862.51,936.66c17.82-4.11,33.58-10.49,48.63-20.24
			c-4.02-1.31-7.59-2.09-10.81-3.6c-7.68-3.6-15.13-4.29-22.55,0.53c-0.82,0.53-1.88,0.68-2.77,1.11c-0.65,0.31-1.48,0.66-1.78,1.23
			C869.75,922.38,866.35,929.12,862.51,936.66z M706.07,711.33c-9.66,15.27-16.27,30.91-20.08,48.59c4.65-2.35,8.41-4.6,12.44-6.2
			c6.36-2.53,11.11-6.28,12.56-13.35c0.27-1.31,1.24-2.48,1.57-3.79c0.35-1.37,0.75-2.98,0.36-4.25
			C710.85,725.54,708.54,718.82,706.07,711.33z M976,823.19c-3.59,1.8-6.25,3.53-9.16,4.5c-9.32,3.13-15.23,9.25-17.48,18.85
			c-0.25,1.06-0.87,2.27-0.59,3.18c2.19,7.17,4.57,14.28,7.1,22.07C965.53,856.55,972.05,840.93,976,823.19z M750.83,666.63
			c3.63,1.23,6.82,1.92,9.64,3.32c8.81,4.39,17.32,4.16,25.72-0.94c0.93-0.56,2.19-1.01,2.64-1.85c3.48-6.58,6.8-13.25,10.56-20.66
			C781.67,650.49,765.94,656.94,750.83,666.63z M955.87,711.4c-1.28,3.86-2.03,7.16-3.45,10.15c-3.86,8.15-4.48,16.07,0.65,23.92
			c0.4,0.61,0.47,1.42,0.81,2.08c0.33,0.64,0.68,1.46,1.25,1.76c6.69,3.47,13.42,6.86,20.92,10.67
			C971.99,742.22,965.59,726.5,955.87,711.4z M799.37,936.58c-1.99-3.93-3.87-6.91-5.05-10.15c-2.94-8.07-7.8-13.88-16.58-15.73
			c-1.55-0.33-3.23-1.75-4.49-1.39c-7.31,2.08-14.51,4.54-22.51,7.12C766.04,926.13,781.63,932.62,799.37,936.58z M764.84,833.3
			c4.55,5.41,8.77,10.4,13.58,16.12c1.28-18.48,0.87-16.94-11.96-16.8C766.23,832.63,766.01,832.8,764.84,833.3z M897.49,832.7
			c-4.52,0-7.74-0.29-10.86,0.14c-1.22,0.17-3.06,1.86-3.17,3c-0.38,4.12-0.15,8.29-0.15,12.45c0.29,0.15,0.59,0.29,0.88,0.44
			C888.4,843.66,892.6,838.59,897.49,832.7z"/>
		<path d="M815.99,828.19c0-4.3-0.05-8.39,0.01-12.48c0.06-4.05,2.27-6.56,5.63-6.55c3.37,0,5.55,2.5,5.59,6.57
			c0.05,5.87,0.07,11.74-0.01,17.61c-0.06,4.15-2.11,6.12-6.27,6.24c-1.75,0.05-3.53,0.21-5.24-0.03c-3.66-0.52-4.54,1.16-4.29,4.46
			c0.15,2,0.63,2.95,2.8,2.94c11.11-0.06,22.23-0.1,33.34,0.02c3.15,0.03,2.88-1.84,2.93-3.92c0.06-2.15-0.21-3.69-2.96-3.49
			c-2.36,0.17-4.75,0.11-7.11,0c-3.49-0.16-5.59-2.17-5.66-5.68c-0.12-6.37-0.12-12.74,0-19.11c0.06-3.3,2.37-5.5,5.38-5.6
			c3.14-0.1,5.64,2.17,5.76,5.62c0.15,4.35,0.04,8.7,0.04,12.89c0.46,0.3,0.66,0.55,0.85,0.54c13.6-0.23,16.57,9.7,14.43,20.48
			c-1.13,5.68-5.97,9.35-11.99,9.42c-12.11,0.13-24.23,0.15-36.34,0c-7.48-0.09-12.51-5.41-12.64-12.94c-0.03-1.37-0.03-2.75,0-4.12
			c0.18-7.32,5.12-12.34,12.5-12.72C813.71,828.29,814.68,828.25,815.99,828.19z"/>
		<path d="M793.44,817.85c-13.78-0.1-24.82-11.38-24.75-25.28c0.07-13.74,11.47-25,25.2-24.91c13.73,0.09,25.03,11.47,25.01,25.18
			C818.88,806.77,807.49,817.96,793.44,817.85z M793.52,806.6c7.67,0.09,13.91-5.86,14.12-13.47c0.21-7.62-6.17-14.18-13.84-14.22
			c-7.55-0.04-13.81,6.17-13.86,13.75C779.88,800.34,785.89,806.5,793.52,806.6z"/>
		<path d="M868.03,817.85c-13.77-0.06-25.02-11.37-24.98-25.12c0.04-13.7,11.42-25.05,25.12-25.07
			c13.91-0.02,25.18,11.39,25.09,25.39C893.16,806.85,881.91,817.91,868.03,817.85z M868.01,806.6c7.69,0.07,13.88-5.91,13.99-13.53
			c0.12-7.79-6.11-14.17-13.82-14.16c-7.51,0.01-13.83,6.29-13.88,13.8C854.24,800.26,860.43,806.53,868.01,806.6z"/>
		<path d="M831.13,890.52c-2.54,2.76-4.21,4.78-6.1,6.59c-2.69,2.57-6.09,2.61-8.33,0.3c-2.23-2.31-2.1-5.61,0.54-8.32
			c1.82-1.87,3.86-3.54,6.73-6.14c-2.6-2.13-4.87-3.71-6.8-5.63c-2.67-2.66-2.68-5.99-0.35-8.27c2.39-2.34,5.49-2.27,8.29,0.47
			c1.86,1.81,3.45,3.91,5.87,6.7c2-2.37,3.33-4.16,4.87-5.74c3.57-3.64,6.72-4.04,9.36-1.33c2.53,2.59,2.01,5.81-1.54,9.39
			c-1.41,1.42-2.86,2.78-4.7,4.57c1.85,1.92,3.6,3.73,5.34,5.55c2.96,3.1,3.28,6.49,0.83,8.88c-2.42,2.37-5.81,2.03-8.86-1.05
			C834.62,894.8,833.18,892.91,831.13,890.52z"/>
		<path d="M741.89,752.21c0.08,3.26-2.29,5.69-5.54,5.68c-4.55-0.01-8.85-3.36-8.84-6.89c0.01-2.96,2.45-5.43,5.43-5.53
			C737.34,745.32,741.81,748.69,741.89,752.21z"/>
		<path d="M925.55,757.89c-3.24-0.01-5.6-2.47-5.5-5.72c0.1-3.43,4.18-6.61,8.61-6.71c3.14-0.07,5.77,2.48,5.76,5.57
			C934.41,754.57,930.08,757.91,925.55,757.89z"/>
		<path d="M934.42,832.08c0,3.11-2.62,5.65-5.76,5.57c-4.43-0.11-8.51-3.3-8.61-6.72c-0.1-3.24,2.28-5.7,5.51-5.71
			C930.1,825.2,934.42,828.54,934.42,832.08z"/>
		<path d="M736.42,825.21c3.23,0.03,5.58,2.51,5.46,5.76c-0.13,3.41-4.25,6.6-8.65,6.68c-3.14,0.06-5.75-2.51-5.72-5.62
			C727.55,828.5,731.91,825.17,736.42,825.21z"/>
		<path d="M790.55,688.1c3.52,0.07,6.85,4.48,6.76,8.96c-0.06,3.22-2.56,5.55-5.81,5.41c-3.4-0.15-6.58-4.32-6.61-8.69
			C784.86,690.63,787.44,688.04,790.55,688.1z"/>
		<path d="M877.05,693.57c0.12,4.44-3.23,8.85-6.77,8.91c-3.1,0.05-5.49-2.16-5.65-5.21c-0.22-4.31,3.11-8.96,6.55-9.16
			C874.27,687.92,876.97,690.43,877.05,693.57z"/>
		<path class="st0" d="M799.43,792.77c-0.02-3.09-2.74-5.71-5.83-5.6c-2.98,0.11-5.39,2.62-5.38,5.62c0,3.15,2.61,5.65,5.79,5.55
			C797.01,798.24,799.44,795.74,799.43,792.77z"/>
		<path d="M799.43,792.77c0.01,2.97-2.42,5.47-5.42,5.57c-3.18,0.1-5.79-2.4-5.79-5.55c0-3,2.4-5.52,5.38-5.62
			C796.69,787.06,799.41,789.68,799.43,792.77z"/>
		<path d="M868.23,787.16c3.13,0.05,5.64,2.73,5.51,5.88c-0.12,3.02-2.6,5.35-5.64,5.3c-3.15-0.05-5.72-2.73-5.56-5.82
			C862.7,789.56,865.29,787.12,868.23,787.16z"/>
	</g>
</g>
</svg>
