<?xml version="1.0" encoding="utf-8"?>
<!-- Generator: Adobe Illustrator 24.0.2, SVG Export Plug-In . SVG Version: 6.00 Build 0)  -->
<svg version="1.1" id="Layer_1" xmlns="http://www.w3.org/2000/svg" xmlns:xlink="http://www.w3.org/1999/xlink" x="0px" y="0px"
	 viewBox="0 0 1920 1080" style="enable-background:new 0 0 1920 1080;" xml:space="preserve">
<style type="text/css">
	.st0{fill:#FFFFFF;}
</style>
<g>
	<g>
		<path d="M725.04,1633.22c2.27-1.62,4.54-3.25,6.82-4.87c0.39,0.28,0.78,0.57,1.16,0.85c0-1.32,0-2.64,0-3.96
			c0-11.75,0-23.5,0-35.24c0-12.11,4.38-17.01,16.76-18.4c0-4.42,0-8.9,0-13.37c0-8.25,0-16.5,0-24.75c0-13,3.55-17.25,16.54-19.4
			c0.06-1.23,0.19-2.55,0.19-3.87c0.02-11.75,0-23.5,0.01-35.24c0.01-12.29,5.02-17.5,17.32-18c0.48-0.02,0.95-0.14,1.83-0.27
			c0-3.39,0-6.73,0-10.07c0-10.25-0.02-20.5,0.01-30.74c0.03-10.48,6-16.4,16.56-16.46c5.11-0.03,10.23-0.01,15.92-0.01
			c0-1.54,0-2.85,0-4.17c0-8.37-0.06-16.75,0.02-25.12c0.1-9.51,6.34-15.7,15.79-15.8c2.59-0.03,5.19,0,7.99,0
			c0-21.06,0-41.76,0-62.46c-8.41-3.32-9.58-5.09-9.58-14.46c0-3-0.1-6,0.04-9c0.27-5.89,4.12-9.73,9.99-10.08c1-0.06,2-0.03,3-0.03
			c47.74,0,95.48,0,143.22,0c9.63,0,13.02,3.42,13.03,13.11c0,2.5,0.01,5,0,7.5c-0.02,7.75-2.11,10.56-9.62,12.73
			c0,20.66,0,41.37,0,62.69c2.31,0,4.63-0.01,6.95,0c9.74,0.06,15.98,6.13,16.1,15.87c0.11,8.75,0.02,17.5,0.03,26.24
			c0,0.85,0.1,1.69,0.19,2.98c4.77,0,9.35-0.01,13.93,0c10.99,0.04,16.86,5.92,16.88,16.91c0.01,3.12,0.08,6.25-0.04,9.37
			c-0.14,3.28-2.4,5.55-5.36,5.64c-2.9,0.08-5.48-2.14-5.69-5.35c-0.24-3.61-0.13-7.24-0.09-10.87c0.03-2.72-1.23-4.44-3.93-4.45
			c-14.37-0.05-28.74,0.02-43.11,0.07c-0.21,0-0.42,0.23-0.9,0.51c0.77,15.03,1.54,30.2,2.33,45.54c15.26,0,30.2,0,45.62,0
			c0-2.16-0.06-4.24,0.01-6.31c0.14-4.12,2.29-6.45,5.78-6.37c3.36,0.08,5.29,2.3,5.39,6.3c0.05,1.99,0.01,3.98,0.01,6.58
			c1.61,0,3.04-0.01,4.47,0c9.83,0.05,15.98,5.95,16.09,15.78c0.13,12.25,0.03,24.5,0.04,36.74c0,1.48,0,2.96,0,4.57
			c1.18,0.19,2.01,0.38,2.85,0.46c8.34,0.83,13.88,6.77,13.93,15.24c0.08,12.62,0.02,25.25,0.02,37.87c0,1.24,0,2.47,0,4.01
			c1.14,0.1,2.09,0.15,3.03,0.27c8.22,1.03,13.57,6.83,13.64,15.15c0.11,12.62,0.03,25.24,0.04,37.87c0,1.35,0,2.7,0,4.06
			c0.3-0.27,0.6-0.55,0.9-0.82c2.64,1.68,5.28,3.36,7.91,5.04c0,1.25,0,2.5,0,3.75c-1.87,2.92-4.54,3.75-7.96,3.74
			c-122.7-0.06-245.39-0.06-368.09,0c-3.41,0-6.1-0.81-7.95-3.74C725.04,1635.72,725.04,1634.47,725.04,1633.22z M843.6,1456.78
			c0-2.89-0.07-5.6,0.01-8.32c0.17-5.76,2.06-8.33,5.93-8.23c3.9,0.11,5.54,2.61,5.24,8.57c-1.46,29.33-2.98,58.66-4.48,87.99
			c-1.41,27.58-2.85,55.16-4.23,82.74c-0.16,3.19-0.02,6.39-0.02,9.59c4.58,0,8.99,0,13.65,0c4.49-87.93,8.96-175.59,13.45-263.4
			c-4.98,0-9.4,0-13.99,0c-0.19,2.71-0.41,5.19-0.54,7.68c-0.8,15.85-1.57,31.7-2.37,47.55c-0.21,4.08-2.45,6.57-5.76,6.5
			c-3.35-0.07-5.5-2.66-5.42-6.71c0.06-3.22,0.27-6.44,0.41-9.75c-0.7-0.16-1.17-0.36-1.63-0.36c-14.12-0.02-28.25-0.02-42.37-0.03
			c-3.31,0-4.66,1.69-4.64,4.93c0.06,9.87,0.02,19.75,0.02,29.62c0,3.83,0,7.66,0,11.62C812.5,1456.78,827.69,1456.78,843.6,1456.78
			z M937.99,1354.01c6.08,0,11.62,0,17.09,0c0-20.99,0-41.67,0-62.74c-2.57,0-4.92,0.12-7.26-0.03c-3.18-0.2-5.11-1.97-5.31-5.19
			c-0.2-3.26,1.64-5.13,4.7-5.79c1.08-0.23,2.24-0.15,3.36-0.15c11.87-0.01,23.74,0,35.61-0.01c1.33,0,2.65-0.11,3.97-0.17
			c0-3.65,0-6.94,0-10.18c-48.96,0-97.63,0-146.31,0c0,3.55,0,6.84,0,10.36c1.76,0,3.25,0,4.74,0c20.74,0,41.48,0,62.23,0
			c4.37,0,8.75-0.11,13.12,0.06c3.52,0.14,5.83,2.56,5.79,5.64c-0.03,3.07-2.4,5.29-5.92,5.48c-1,0.06-2,0.02-3,0.02
			c-12.62,0-25.24,0-37.86,0c-1.32,0-2.65,0-4.04,0c0,21.22,0,41.91,0,62.78c5.48,0,10.77,0,16.39,0c0-5.68-0.02-11.15,0-16.62
			c0.06-12.91,8.93-22.36,21.09-22.48c12.34-0.12,21.5,9.36,21.59,22.39C938.02,1342.86,937.99,1348.34,937.99,1354.01z
			 M1089.05,1629.2c0-1.44,0-2.66,0-3.87c0-12,0.01-23.99,0-35.99c-0.01-5.53-0.77-6.3-6.27-6.3c-27.74-0.01-55.48,0-83.22,0
			c-1.19,0-2.39,0-3.84,0c0.82,15.73,1.61,30.9,2.41,46.16C1028.56,1629.2,1058.6,1629.2,1089.05,1629.2z M836.76,1583.26
			c-0.99-0.11-1.47-0.21-1.96-0.21c-28.49-0.01-56.99-0.02-85.48,0c-3.99,0-5.11,1.13-5.14,5.18c-0.06,10.37-0.02,20.75-0.02,31.12
			c0,3.22,0,6.43,0,9.75c30.35,0,60.24,0,90.23,0C835.19,1613.72,835.97,1598.64,836.76,1583.26z M959.34,1365.64
			c4.5,88.07,8.98,175.75,13.46,263.57c4.81,0,9.24,0,14.1,0c-4.5-87.98-8.98-175.73-13.47-263.57
			C968.54,1365.64,964.21,1365.64,959.34,1365.64z M1072.29,1571.64c0-1.46,0-2.68,0-3.91c0-11.86,0-23.73,0-35.59
			c0-5.84-0.62-6.49-6.4-6.49c-22.98-0.01-45.95-0.01-68.93,0.01c-1.31,0-2.62,0.14-4.15,0.22c0.8,15.47,1.58,30.51,2.37,45.76
			C1020.88,1571.64,1046.31,1571.64,1072.29,1571.64z M761.01,1571.65c25.68,0,50.85,0,76.33,0c0.78-15.32,1.56-30.45,2.36-46
			c-1.66,0-2.88,0-4.1,0c-22.72,0-45.44,0-68.17,0c-0.87,0-1.75-0.02-2.62,0.04c-2.33,0.17-3.78,1.35-3.78,3.77
			C760.99,1543.42,761.01,1557.38,761.01,1571.65z M992.24,1514.11c0.86,0.15,1.46,0.34,2.05,0.34c19.49,0.02,38.98-0.02,58.47,0.06
			c2.51,0.01,2.82-1.16,2.81-3.21c-0.06-12.49-0.01-24.99-0.04-37.48c-0.01-4.65-1.06-5.64-5.79-5.65
			c-18.74-0.01-37.48-0.01-56.22,0c-1.18,0-2.37,0.1-3.65,0.16C990.68,1483.88,991.46,1498.94,992.24,1514.11z M842.6,1468.17
			c-1.59,0-2.81,0-4.03,0c-18.24,0-36.49,0-54.73,0c-5.2,0-6.13,0.91-6.14,6.06c-0.02,12.12-0.01,24.24,0,36.36
			c0,1.19,0.14,2.38,0.2,3.4c0.63,0.23,0.86,0.39,1.1,0.39c19.62,0.04,39.24,0.04,58.85,0.11c1.98,0.01,2.55-0.81,2.63-2.67
			C841.14,1497.48,841.87,1483.13,842.6,1468.17z M960.94,1615.56c-30.03,0-59.56,0-89.49,0c0,4.68,0,9.1,0,13.6
			c29.97,0,59.88,0,89.49,0C960.94,1624.43,960.94,1619.99,960.94,1615.56z M959.57,1590.14c-28.96,0-57.63,0-86.59,0
			c-0.26,4.59-0.52,9.01-0.79,13.69c29.46,0,58.62,0,88.07,0C960.03,1599.2,959.81,1594.78,959.57,1590.14z M875.34,1539.55
			c0,4.83,0,9.25,0,13.81c27.35,0,54.63,0,82.36,0c-0.25-4.75-0.48-9.26-0.72-13.81C929.59,1539.55,902.77,1539.55,875.34,1539.55z
			 M873.46,1578.48c28.83,0,57.08,0,85.64,0c-0.32-4.75-0.62-9.17-0.91-13.48c-28.2,0-55.97,0-83.93,0
			C873.98,1569.59,873.73,1573.91,873.46,1578.48z M876.15,1527.89c26.99,0,53.49,0,80.2,0c-0.22-4.76-0.42-9.19-0.62-13.66
			c-26.51,0-52.55,0-78.94,0C876.57,1518.83,876.36,1523.26,876.15,1527.89z M877.32,1502.48c26.22,0,51.96,0,77.85,0
			c-0.28-4.67-0.55-9-0.82-13.52c-25.5,0-50.77,0-76.19,0C877.88,1493.54,877.61,1497.87,877.32,1502.48z M951.87,1438.44
			c-23.96,0-47.46,0-71.36,0c0,4.68,0,9.1,0,13.61c23.93,0,47.8,0,71.98,0C952.27,1447.31,952.07,1442.87,951.87,1438.44z
			 M878.67,1477.25c25.36,0,50.12,0,75.24,0c-0.31-4.73-0.59-9.13-0.87-13.47c-24.81,0-49.1,0-73.64,0
			C879.15,1468.33,878.92,1472.65,878.67,1477.25z M950.55,1412.99c-23.12,0-45.69,0-68.57,0c-0.23,4.7-0.45,9.22-0.67,13.78
			c23.52,0,46.58,0,69.89,0C950.98,1422.11,950.77,1417.67,950.55,1412.99z M949.18,1387.74c-22.16,0-43.92,0-65.87,0
			c-0.27,4.68-0.52,9.1-0.77,13.59c22.71,0,44.96,0,67.47,0C949.72,1396.7,949.46,1392.37,949.18,1387.74z M867.19,1354.1
			c0-21.1,0-41.85,0-62.49c-4.75,0-9.17,0-13.64,0c0,20.95,0,41.61,0,62.49C858.17,1354.1,862.6,1354.1,867.19,1354.1z
			 M980.31,1354.16c0-21.19,0-41.92,0-62.54c-4.77,0-9.2,0-13.48,0c0,21.05,0,41.81,0,62.54
			C971.48,1354.16,975.82,1354.16,980.31,1354.16z M948.1,1365.74c-21.43,0-42.44,0-63.79,0c0,3.53,0,6.83,0,10.24
			c21.38,0,42.71,0,64.35,0C948.46,1372.33,948.28,1369.02,948.1,1365.74z M984.63,1365.53c0.59,11.43,1.15,22.46,1.72,33.55
			c6.02,0,11.66,0,17.53,0c0-10.06,0.14-19.79-0.16-29.5c-0.04-1.38-2.19-3.73-3.52-3.86
			C995.16,1365.26,990.04,1365.53,984.63,1365.53z M846.16,1399.2c0.57-11.23,1.13-22.26,1.7-33.69c-4.81,0-9.28,0.02-13.74-0.01
			c-3.29-0.02-4.78,1.64-4.76,4.86c0.02,4.62,0,9.24,0,13.87c0,4.96,0,9.91,0,14.97C835.16,1399.2,840.48,1399.2,846.16,1399.2z
			 M926.73,1354.18c0-6.5,0.2-12.59-0.06-18.67c-0.23-5.23-4.38-9.03-9.48-9.29c-5.13-0.26-10.03,3.15-10.4,8.18
			c-0.48,6.52-0.12,13.09-0.12,19.77C913.43,1354.18,919.86,1354.18,926.73,1354.18z"/>
		<path class="st0" d="M732.99,1640.72"/>
		<path class="st0" d="M725.04,1636.97"/>
	</g>
</g>
</svg>
