<svg width="304" height="192" viewBox="0 0 304 192" fill="none" xmlns="http://www.w3.org/2000/svg">
<path fill-rule="evenodd" clip-rule="evenodd" d="M255.56 72.352C244.52 53.064 223.776 40 200 40C193.912 40 188.04 40.912 182.448 42.504C168.64 16.544 141.816 0 112 0C67.888 0 32 35.888 32 80C32 86.128 32.752 92.16 34.12 98.064C14.4 104.032 0 122.36 0 144C0 170.472 21.528 192 48 192H106.032H122.464H208H224H264C286.056 192 304 174.056 304 152C304 129.944 286.056 112 264 112C263.888 112 263.78 112.016 263.672 112.032C263.564 112.048 263.456 112.064 263.344 112.064C263.688 109.392 264 106.72 264 104C264 98.768 263.296 93.704 262.112 88.832L255.56 72.352ZM48 112C30.352 112 16 126.352 16 144C16 161.648 30.352 176 48 176H264C277.232 176 288 165.232 288 152C288 138.768 277.232 128 264 128C250.768 128 240 138.768 240 152H224C224 136.352 233.12 122.912 246.24 116.344C247.312 112.328 248 108.208 248 104C248 77.528 226.472 56 200 56C175.808 56 155.8 74 152.52 97.296C166.016 101.056 176 113.32 176 128H160C160 119.176 152.824 112 144 112C135.176 112 128 119.176 128 128H112C112 112.984 122.432 100.448 136.4 97.008C138.648 76.44 150.696 58.816 167.752 48.808C156.52 28.72 135.4 16 112 16C76.712 16 48 44.712 48 80C48 85.472 48.688 90.872 50.048 96.104C75.56 97.184 96 118.224 96 144H80C80 126.352 65.648 112 48 112Z" fill="#F2F1EC"/>
<path d="M16 144C16 126.352 30.352 112 48 112C65.648 112 80 126.352 80 144H96C96 118.224 75.56 97.184 50.048 96.104C48.688 90.872 48 85.472 48 80C48 44.712 76.712 16 112 16C135.4 16 156.52 28.72 167.752 48.808C150.696 58.816 138.648 76.44 136.4 97.008C122.432 100.448 112 112.984 112 128H128C128 119.176 135.176 112 144 112C152.824 112 160 119.176 160 128H176C176 113.32 166.016 101.056 152.52 97.296C155.8 74 175.808 56 200 56C226.472 56 248 77.528 248 104C248 108.208 247.312 112.328 246.24 116.344C233.12 122.912 224 136.352 224 152H240C240 138.768 250.768 128 264 128C277.232 128 288 138.768 288 152C288 165.232 277.232 176 264 176H48C30.352 176 16 161.648 16 144Z" fill="#F2F1EC"/>
<path fill-rule="evenodd" clip-rule="evenodd" d="M255.56 72.352C244.52 53.064 223.776 40 200 40C193.912 40 188.04 40.912 182.448 42.504C168.64 16.544 141.816 0 112 0C67.888 0 32 35.888 32 80C32 86.128 32.752 92.16 34.12 98.064C14.4 104.032 0 122.36 0 144C0 170.472 21.528 192 48 192H106.032H122.464H208H224H264C286.056 192 304 174.056 304 152C304 129.944 286.056 112 264 112C263.888 112 263.78 112.016 263.672 112.032C263.564 112.048 263.456 112.064 263.344 112.064C263.688 109.392 264 106.72 264 104C264 98.768 263.296 93.704 262.112 88.832L255.56 72.352ZM48 112C30.352 112 16 126.352 16 144C16 161.648 30.352 176 48 176H264C277.232 176 288 165.232 288 152C288 138.768 277.232 128 264 128C250.768 128 240 138.768 240 152H224C224 136.352 233.12 122.912 246.24 116.344C247.312 112.328 248 108.208 248 104C248 77.528 226.472 56 200 56C175.808 56 155.8 74 152.52 97.296C166.016 101.056 176 113.32 176 128H160C160 119.176 152.824 112 144 112C135.176 112 128 119.176 128 128H112C112 112.984 122.432 100.448 136.4 97.008C138.648 76.44 150.696 58.816 167.752 48.808C156.52 28.72 135.4 16 112 16C76.712 16 48 44.712 48 80C48 85.472 48.688 90.872 50.048 96.104C75.56 97.184 96 118.224 96 144H80C80 126.352 65.648 112 48 112Z" fill="#2F5373"/>
</svg>
