<svg width="28" height="27" viewBox="0 0 28 27" fill="none" xmlns="http://www.w3.org/2000/svg">
<circle cx="13.7638" cy="13.5312" r="10.4375" fill="#F2F1EC"/>
<path fill-rule="evenodd" clip-rule="evenodd" d="M26.7783 10.8671C26.4349 9.19937 25.7727 7.61356 24.8283 6.19686L21.0582 2.4294C15.4968 -1.2587 8.06464 -0.262192 3.67014 4.75935C-0.724357 9.78219 -0.724357 17.2807 3.67014 22.3035C8.06464 27.325 15.4968 28.3215 21.0582 24.6334L24.8256 20.866C25.7714 19.4493 26.4349 17.8635 26.7783 16.1957V10.8671ZM5.73079 13.5314C5.73079 17.9454 9.30961 21.5243 13.7236 21.5243C18.1376 21.5243 21.7165 17.9454 21.7165 13.5314C21.7165 9.11742 18.1376 5.53859 13.7236 5.53859C9.30961 5.53859 5.73079 9.11742 5.73079 13.5314Z" fill="#2F5373"/>
<path fill-rule="evenodd" clip-rule="evenodd" d="M0.749265 16.1957C1.09271 17.8635 1.75487 19.4493 2.69934 20.866L6.4694 24.6334C12.0308 28.3215 19.463 27.325 23.8574 22.3035C28.2519 17.2807 28.2519 9.78218 23.8575 4.75934C19.463 -0.262197 12.0308 -1.2587 6.4694 2.4294L2.70194 6.19685C1.75617 7.61355 1.09271 9.19937 0.749265 10.8671L0.749265 16.1957ZM21.7968 13.5314C21.7968 9.11741 18.218 5.53859 13.804 5.53859C9.38995 5.53859 5.81113 9.11741 5.81113 13.5314C5.81113 17.9454 9.38995 21.5243 13.804 21.5243C18.218 21.5243 21.7968 17.9454 21.7968 13.5314Z" fill="#2F5373"/>
</svg>
