<svg width="44" height="45" viewBox="0 0 44 45" fill="none" xmlns="http://www.w3.org/2000/svg">
<path fill-rule="evenodd" clip-rule="evenodd" d="M3.82822 44.1969L27.3111 20.714C28.9346 21.6923 30.7923 22.214 32.6878 22.2244C38.5731 22.2244 43.3449 17.4526 43.3449 11.5673C43.3449 5.68192 38.5731 0.910156 32.6878 0.910156C26.8024 0.910156 22.0307 5.68192 22.0307 11.5673C22.0398 13.464 22.5614 15.323 23.541 16.9466L0.0581665 40.4294L3.82822 44.1969ZM38.0163 11.5673C38.0163 8.62459 35.6304 6.23871 32.6878 6.23871C29.7451 6.23871 27.3592 8.62459 27.3592 11.5673C27.3592 14.5099 29.7451 16.8958 32.6878 16.8958C35.6304 16.8958 38.0163 14.5099 38.0163 11.5673Z" fill="#2F5373"/>
</svg>
