<svg width="384" height="383" viewBox="0 0 384 383" fill="none" xmlns="http://www.w3.org/2000/svg">
<g clip-path="url(#clip0_520:67)">
<path d="M-0.455322 375.113C1.81468 373.493 4.08469 371.863 6.36469 370.243C6.75469 370.523 7.14472 370.812 7.52472 371.092C7.52472 369.772 7.52472 368.453 7.52472 367.133C7.52472 355.383 7.52472 343.633 7.52472 331.893C7.52472 319.783 11.9047 314.883 24.2847 313.493C24.2847 309.073 24.2847 304.593 24.2847 300.123C24.2847 291.873 24.2847 283.623 24.2847 275.373C24.2847 262.373 27.8347 258.123 40.8247 255.973C40.8847 254.743 41.0147 253.423 41.0147 252.103C41.0347 240.353 41.0147 228.603 41.0247 216.863C41.0347 204.573 46.0447 199.363 58.3447 198.863C58.8247 198.843 59.2947 198.723 60.1747 198.593C60.1747 195.203 60.1747 191.863 60.1747 188.523C60.1747 178.273 60.1547 168.023 60.1847 157.783C60.2147 147.303 66.1847 141.383 76.7447 141.323C81.8547 141.293 86.9747 141.313 92.6647 141.313C92.6647 139.773 92.6647 138.463 92.6647 137.143C92.6647 128.773 92.6047 120.393 92.6847 112.023C92.7847 102.513 99.0247 96.3225 108.475 96.2225C111.065 96.1925 113.665 96.2225 116.465 96.2225C116.465 75.1625 116.465 54.4626 116.465 33.7626C108.055 30.4426 106.885 28.6726 106.885 19.3026C106.885 16.3026 106.785 13.3026 106.925 10.3026C107.195 4.41259 111.045 0.572512 116.915 0.222512C117.915 0.162512 118.915 0.192605 119.915 0.192605C167.655 0.192605 215.395 0.192605 263.135 0.192605C272.765 0.192605 276.155 3.61259 276.165 13.3026C276.165 15.8026 276.175 18.3026 276.165 20.8026C276.145 28.5526 274.055 31.3626 266.545 33.5326C266.545 54.1926 266.545 74.9025 266.545 96.2225C268.855 96.2225 271.175 96.2125 273.495 96.2225C283.235 96.2825 289.475 102.353 289.595 112.093C289.705 120.843 289.615 129.593 289.625 138.333C289.625 139.183 289.725 140.023 289.815 141.313C294.585 141.313 299.165 141.303 303.745 141.313C314.735 141.353 320.605 147.233 320.625 158.223C320.635 161.343 320.705 164.473 320.585 167.593C320.445 170.873 318.185 173.143 315.225 173.233C312.325 173.313 309.745 171.093 309.535 167.883C309.295 164.273 309.405 160.643 309.445 157.013C309.475 154.293 308.215 152.573 305.515 152.563C291.145 152.513 276.775 152.583 262.405 152.633C262.195 152.633 261.985 152.863 261.505 153.143C262.275 168.173 263.045 183.343 263.835 198.683C279.095 198.683 294.035 198.683 309.455 198.683C309.455 196.523 309.395 194.443 309.465 192.373C309.605 188.253 311.755 185.923 315.245 186.003C318.605 186.083 320.535 188.303 320.635 192.303C320.685 194.293 320.645 196.283 320.645 198.883C322.255 198.883 323.685 198.873 325.115 198.883C334.945 198.933 341.095 204.833 341.205 214.663C341.335 226.913 341.235 239.163 341.245 251.403C341.245 252.883 341.245 254.363 341.245 255.973C342.425 256.163 343.255 256.353 344.095 256.433C352.435 257.263 357.975 263.203 358.025 271.673C358.105 284.293 358.045 296.923 358.045 309.543C358.045 310.783 358.045 312.013 358.045 313.553C359.185 313.653 360.135 313.703 361.075 313.823C369.295 314.853 374.645 320.653 374.715 328.973C374.825 341.593 374.745 354.212 374.755 366.842C374.755 368.192 374.755 369.543 374.755 370.903C375.055 370.633 375.355 370.352 375.655 370.082C378.295 371.762 380.935 373.443 383.565 375.123C383.565 376.373 383.565 377.623 383.565 378.873C381.695 381.793 379.025 382.623 375.605 382.613C252.905 382.553 130.215 382.553 7.51471 382.613C4.10471 382.613 1.4147 381.803 -0.435303 378.873C-0.455303 377.613 -0.455322 376.363 -0.455322 375.113ZM118.105 198.673C118.105 195.783 118.035 193.073 118.115 190.353C118.285 184.593 120.175 182.023 124.045 182.123C127.945 182.233 129.585 184.733 129.285 190.693C127.825 220.023 126.305 249.353 124.805 278.683C123.395 306.263 121.955 333.843 120.575 361.423C120.415 364.613 120.555 367.813 120.555 371.013C125.135 371.013 129.545 371.013 134.205 371.013C138.695 283.083 143.165 195.423 147.655 107.613C142.675 107.613 138.255 107.613 133.665 107.613C133.475 110.323 133.255 112.803 133.125 115.293C132.325 131.143 131.555 146.993 130.755 162.843C130.545 166.923 128.305 169.413 124.995 169.343C121.645 169.273 119.495 166.683 119.575 162.633C119.635 159.413 119.845 156.193 119.985 152.883C119.285 152.723 118.815 152.523 118.355 152.523C104.235 152.503 90.1047 152.503 75.9847 152.493C72.6747 152.493 71.3247 154.183 71.3447 157.423C71.4047 167.293 71.3647 177.173 71.3647 187.043C71.3647 190.873 71.3647 194.703 71.3647 198.663C87.0047 198.673 102.195 198.673 118.105 198.673ZM212.495 95.9026C218.575 95.9026 224.115 95.9026 229.585 95.9026C229.585 74.9126 229.585 54.2326 229.585 33.1626C227.015 33.1626 224.665 33.2825 222.325 33.1325C219.145 32.9325 217.215 31.1626 217.015 27.9426C216.815 24.6826 218.655 22.8126 221.715 22.1526C222.795 21.9226 223.955 22.0025 225.075 22.0025C236.945 21.9925 248.815 22.0025 260.685 21.9925C262.015 21.9925 263.335 21.8826 264.655 21.8226C264.655 18.1726 264.655 14.8826 264.655 11.6426C215.695 11.6426 167.025 11.6426 118.345 11.6426C118.345 15.1926 118.345 18.4825 118.345 22.0025C120.105 22.0025 121.595 22.0025 123.085 22.0025C143.825 22.0025 164.565 22.0025 185.315 22.0025C189.685 22.0025 194.065 21.8926 198.435 22.0626C201.955 22.2026 204.265 24.6226 204.225 27.7026C204.195 30.7726 201.825 32.9926 198.305 33.1826C197.305 33.2426 196.305 33.2026 195.305 33.2026C182.685 33.2026 170.065 33.2026 157.445 33.2026C156.125 33.2026 154.795 33.2026 153.405 33.2026C153.405 54.4226 153.405 75.1125 153.405 95.9825C158.885 95.9825 164.175 95.9825 169.795 95.9825C169.795 90.3025 169.775 84.8325 169.795 79.3625C169.855 66.4525 178.725 57.0025 190.885 56.8825C203.225 56.7625 212.385 66.2426 212.475 79.2726C212.525 84.7526 212.495 90.2326 212.495 95.9026ZM363.555 371.092C363.555 369.652 363.555 368.433 363.555 367.223C363.555 355.223 363.565 343.233 363.555 331.233C363.545 325.703 362.785 324.933 357.285 324.933C329.545 324.923 301.805 324.933 274.065 324.933C272.875 324.933 271.675 324.933 270.225 324.933C271.045 340.663 271.835 355.832 272.635 371.092C303.065 371.092 333.105 371.092 363.555 371.092ZM111.265 325.153C110.275 325.043 109.795 324.943 109.305 324.943C80.8147 324.933 52.3147 324.923 23.8247 324.943C19.8347 324.943 18.7147 326.073 18.6847 330.123C18.6247 340.493 18.6647 350.873 18.6647 361.243C18.6647 364.463 18.6647 367.673 18.6647 370.993C49.0147 370.993 78.9047 370.993 108.895 370.993C109.695 355.613 110.475 340.533 111.265 325.153ZM233.845 107.533C238.345 195.603 242.825 283.283 247.305 371.103C252.115 371.103 256.545 371.103 261.405 371.103C256.905 283.123 252.425 195.373 247.935 107.533C243.045 107.533 238.715 107.533 233.845 107.533ZM346.795 313.533C346.795 312.073 346.795 310.853 346.795 309.623C346.795 297.763 346.795 285.893 346.795 274.033C346.795 268.193 346.175 267.543 340.395 267.543C317.415 267.533 294.445 267.533 271.465 267.553C270.155 267.553 268.845 267.693 267.315 267.773C268.115 283.243 268.895 298.283 269.685 313.533C295.385 313.533 320.815 313.533 346.795 313.533ZM35.5147 313.543C61.1947 313.543 86.3647 313.543 111.845 313.543C112.625 298.223 113.405 283.093 114.205 267.543C112.545 267.543 111.325 267.543 110.105 267.543C87.3847 267.543 64.6647 267.543 41.9347 267.543C41.0647 267.543 40.1847 267.522 39.3147 267.582C36.9847 267.752 35.5347 268.933 35.5347 271.353C35.4947 285.313 35.5147 299.273 35.5147 313.543ZM266.745 256.003C267.605 256.153 268.205 256.342 268.795 256.342C288.285 256.362 307.775 256.323 327.265 256.403C329.775 256.413 330.085 255.243 330.075 253.193C330.015 240.703 330.065 228.203 330.035 215.713C330.025 211.063 328.975 210.073 324.245 210.063C305.505 210.053 286.765 210.053 268.025 210.063C266.845 210.063 265.655 210.163 264.375 210.223C265.185 225.773 265.965 240.833 266.745 256.003ZM117.105 210.063C115.515 210.063 114.295 210.063 113.075 210.063C94.8347 210.063 76.5847 210.063 58.3447 210.063C53.1447 210.063 52.2147 210.973 52.2047 216.123C52.1847 228.243 52.1947 240.363 52.2047 252.483C52.2047 253.673 52.3447 254.863 52.4047 255.883C53.0347 256.113 53.2647 256.273 53.5047 256.273C73.1247 256.313 92.7447 256.313 112.355 256.383C114.335 256.393 114.905 255.573 114.985 253.713C115.645 239.373 116.375 225.023 117.105 210.063ZM235.445 357.453C205.415 357.453 175.885 357.453 145.955 357.453C145.955 362.133 145.955 366.553 145.955 371.053C175.925 371.053 205.835 371.053 235.445 371.053C235.445 366.323 235.445 361.883 235.445 357.453ZM234.075 332.033C205.115 332.033 176.445 332.033 147.485 332.033C147.225 336.623 146.965 341.043 146.695 345.723C176.155 345.723 205.315 345.723 234.765 345.723C234.535 341.093 234.315 336.673 234.075 332.033ZM149.845 281.443C149.845 286.273 149.845 290.693 149.845 295.253C177.195 295.253 204.475 295.253 232.205 295.253C231.955 290.503 231.725 285.993 231.485 281.443C204.095 281.443 177.275 281.443 149.845 281.443ZM147.965 320.373C176.795 320.373 205.045 320.373 233.605 320.373C233.285 315.623 232.985 311.203 232.695 306.893C204.495 306.893 176.725 306.893 148.765 306.893C148.485 311.483 148.235 315.803 147.965 320.373ZM150.655 269.783C177.645 269.783 204.145 269.783 230.855 269.783C230.635 265.023 230.435 260.593 230.235 256.123C203.725 256.123 177.685 256.123 151.295 256.123C151.075 260.723 150.865 265.153 150.655 269.783ZM151.825 244.373C178.045 244.373 203.785 244.373 229.675 244.373C229.395 239.703 229.125 235.373 228.855 230.853C203.355 230.853 178.085 230.853 152.665 230.853C152.385 235.433 152.115 239.763 151.825 244.373ZM226.375 180.333C202.415 180.333 178.915 180.333 155.015 180.333C155.015 185.013 155.015 189.433 155.015 193.943C178.945 193.943 202.815 193.943 226.995 193.943C226.775 189.203 226.575 184.763 226.375 180.333ZM153.175 219.143C178.535 219.143 203.295 219.143 228.415 219.143C228.105 214.413 227.825 210.013 227.545 205.673C202.735 205.673 178.445 205.673 153.905 205.673C153.655 210.223 153.425 214.543 153.175 219.143ZM225.055 154.883C201.935 154.883 179.365 154.883 156.485 154.883C156.255 159.583 156.035 164.103 155.815 168.663C179.335 168.663 202.395 168.663 225.705 168.663C225.485 164.003 225.275 159.563 225.055 154.883ZM223.685 129.633C201.525 129.633 179.765 129.633 157.815 129.633C157.545 134.313 157.295 138.733 157.045 143.223C179.755 143.223 202.005 143.223 224.515 143.223C224.225 138.593 223.965 134.263 223.685 129.633ZM141.695 95.9925C141.695 74.8925 141.695 54.1425 141.695 33.5025C136.945 33.5025 132.525 33.5025 128.055 33.5025C128.055 54.4525 128.055 75.1125 128.055 95.9925C132.675 95.9925 137.105 95.9925 141.695 95.9925ZM254.815 96.0526C254.815 74.8626 254.815 54.1326 254.815 33.5126C250.045 33.5126 245.615 33.5126 241.335 33.5126C241.335 54.5625 241.335 75.3226 241.335 96.0526C245.985 96.0526 250.325 96.0526 254.815 96.0526ZM222.605 107.633C201.175 107.633 180.165 107.633 158.815 107.633C158.815 111.163 158.815 114.463 158.815 117.873C180.195 117.873 201.525 117.873 223.165 117.873C222.965 114.223 222.785 110.913 222.605 107.633ZM259.135 107.423C259.725 118.853 260.285 129.883 260.855 140.973C266.875 140.973 272.515 140.973 278.385 140.973C278.385 130.913 278.525 121.183 278.225 111.473C278.185 110.093 276.035 107.743 274.705 107.613C269.665 107.153 264.545 107.423 259.135 107.423ZM120.665 141.093C121.235 129.863 121.795 118.833 122.365 107.403C117.555 107.403 113.085 107.423 108.625 107.393C105.335 107.373 103.845 109.033 103.865 112.253C103.885 116.873 103.865 121.493 103.865 126.123C103.865 131.083 103.865 136.033 103.865 141.093C109.665 141.093 114.985 141.093 120.665 141.093ZM201.235 96.0726C201.235 89.5726 201.435 83.4826 201.175 77.4026C200.945 72.1726 196.795 68.3725 191.695 68.1125C186.565 67.8525 181.665 71.2626 181.295 76.2926C180.815 82.8126 181.175 89.3826 181.175 96.0626C187.935 96.0726 194.365 96.0726 201.235 96.0726Z" fill="#2F5373"/>
<rect x="143" y="49" width="94.75" height="322.303" fill="#F2F1EC"/>
<path fill-rule="evenodd" clip-rule="evenodd" d="M143.794 471.723L143 483.453H239.063L238.333 471.723H143.794Z" fill="#2F5373"/>
<path fill-rule="evenodd" clip-rule="evenodd" d="M143.794 446.723L143 458.453H239.063L238.333 446.723H143.794Z" fill="#2F5373"/>
<path fill-rule="evenodd" clip-rule="evenodd" d="M143.794 521.723L143 533.453H239.063L238.333 521.723H143.794Z" fill="#2F5373"/>
<path fill-rule="evenodd" clip-rule="evenodd" d="M143.794 496.723L143 508.453H239.063L238.333 496.723H143.794Z" fill="#2F5373"/>
<path fill-rule="evenodd" clip-rule="evenodd" d="M143.794 571.723L143 583.453H239.063L238.333 571.723H143.794Z" fill="#2F5373"/>
<path fill-rule="evenodd" clip-rule="evenodd" d="M143.794 546.723L143 558.453H239.063L238.333 546.723H143.794Z" fill="#2F5373"/>
<path fill-rule="evenodd" clip-rule="evenodd" d="M143.794 621.723L143 633.453H239.063L238.333 621.723H143.794Z" fill="#2F5373"/>
<path fill-rule="evenodd" clip-rule="evenodd" d="M143.794 596.723L143 608.453H239.063L238.333 596.723H143.794Z" fill="#2F5373"/>
<path fill-rule="evenodd" clip-rule="evenodd" d="M143.794 671.723L143 683.453H239.063L238.333 671.723H143.794Z" fill="#2F5373"/>
<path fill-rule="evenodd" clip-rule="evenodd" d="M143.794 646.723L143 658.453H239.063L238.333 646.723H143.794Z" fill="#2F5373"/>
<path fill-rule="evenodd" clip-rule="evenodd" d="M143.794 721.723L143 733.453H239.063L238.333 721.723H143.794Z" fill="#2F5373"/>
<path fill-rule="evenodd" clip-rule="evenodd" d="M143.794 696.723L143 708.453H239.063L238.333 696.723H143.794Z" fill="#2F5373"/>
<path fill-rule="evenodd" clip-rule="evenodd" d="M143.794 771.723L143 783.453H239.063L238.333 771.723H143.794Z" fill="#2F5373"/>
<path fill-rule="evenodd" clip-rule="evenodd" d="M143.794 746.723L143 758.453H239.063L238.333 746.723H143.794Z" fill="#2F5373"/>
<path fill-rule="evenodd" clip-rule="evenodd" d="M143.794 821.723L143 833.453H239.063L238.333 821.723H143.794Z" fill="#2F5373"/>
<path fill-rule="evenodd" clip-rule="evenodd" d="M143.794 796.723L143 808.453H239.063L238.333 796.723H143.794Z" fill="#2F5373"/>
<path fill-rule="evenodd" clip-rule="evenodd" d="M143.794 871.723L143 883.453H239.063L238.333 871.723H143.794Z" fill="#2F5373"/>
<path fill-rule="evenodd" clip-rule="evenodd" d="M143.794 846.723L143 858.453H239.063L238.333 846.723H143.794Z" fill="#2F5373"/>
<path fill-rule="evenodd" clip-rule="evenodd" d="M143.794 921.723L143 933.453H239.063L238.333 921.723H143.794Z" fill="#2F5373"/>
<path fill-rule="evenodd" clip-rule="evenodd" d="M143.794 896.723L143 908.453H239.063L238.333 896.723H143.794Z" fill="#2F5373"/>
<path fill-rule="evenodd" clip-rule="evenodd" d="M143.794 345.723L143 357.453H239.063L238.333 345.723H143.794ZM237.087 320.373L237.592 332.033H144.642L145.158 320.373H237.087ZM146.016 306.893H236.111L235.585 295.253H147.176L146.016 306.893ZM234.135 269.783L234.812 281.443H147.176L148.045 269.783H234.135ZM148.732 256.123H233.47L232.869 244.373H149.301L148.732 256.123ZM231.516 219.143L231.988 230.853H150.203L150.75 219.143H231.516ZM151.534 205.673H230.582L229.992 193.943H152.725L151.534 205.673ZM228.607 168.663L229.326 180.333H152.725L153.584 168.663H228.607ZM154.303 154.883H227.909L227.33 143.223H154.904L154.303 154.883ZM225.881 117.873L226.439 129.633H155.731L156.804 117.873H225.881Z" fill="#2F5373"/>
<path fill-rule="evenodd" clip-rule="evenodd" d="M143.794 345.723L143 357.453H239.063L238.333 345.723H143.794Z" fill="#2F5373"/>
<path fill-rule="evenodd" clip-rule="evenodd" d="M143.794 370.723L143 382.453H239.063L238.333 370.723H143.794Z" fill="#2F5373"/>
<path fill-rule="evenodd" clip-rule="evenodd" d="M143.794 396.723L143 408.453H239.063L238.333 396.723H143.794ZM237.087 371.373L237.592 383.033H144.642L145.158 371.373H237.087ZM146.016 357.893H236.111L235.585 346.253H147.176L146.016 357.893ZM234.135 320.783L234.812 332.443H147.176L148.045 320.783H234.135ZM148.732 307.123H233.47L232.869 295.373H149.301L148.732 307.123ZM231.516 270.143L231.988 281.853H150.203L150.75 270.143H231.516ZM151.534 256.673H230.582L229.992 244.943H152.725L151.534 256.673ZM228.607 219.663L229.326 231.333H152.725L153.584 219.663H228.607ZM154.303 205.883H227.909L227.33 194.223H154.904L154.303 205.883ZM225.881 168.873L226.439 180.633H155.731L156.804 168.873H225.881Z" fill="#2F5373"/>
<path fill-rule="evenodd" clip-rule="evenodd" d="M143.794 396.723L143 408.453H239.063L238.333 396.723H143.794Z" fill="#2F5373"/>
<path fill-rule="evenodd" clip-rule="evenodd" d="M143.794 421.723L143 433.453H239.063L238.333 421.723H143.794Z" fill="#2F5373"/>
<rect x="128.055" width="126.76" height="61.3851" fill="#F2F1EC"/>
<path fill-rule="evenodd" clip-rule="evenodd" d="M169.79 90.3807C169.792 92.2504 169.795 94.1358 169.795 96.0449L181.175 96.125C181.175 94.1127 181.142 92.1103 181.109 90.1163C181.034 85.4911 180.959 80.9109 181.295 76.355C181.665 71.325 186.565 67.915 191.695 68.175C196.795 68.435 200.945 72.235 201.175 77.465C201.355 81.6771 201.314 85.894 201.272 90.2486C201.253 92.1798 201.235 94.1381 201.235 96.135L212.495 95.965C212.495 94.4087 212.497 92.8667 212.499 91.3351C212.505 87.2867 212.511 83.3108 212.475 79.335C212.385 66.305 203.225 56.825 190.885 56.945C178.725 57.065 169.855 66.515 169.795 79.425C169.781 83.0564 169.786 86.6878 169.79 90.3807Z" fill="#F2F1EC"/>
<path d="M201.175 77.465C200.945 72.235 196.795 68.435 191.695 68.175C186.565 67.915 181.665 71.325 181.295 76.355C180.959 80.9109 181.034 85.4911 181.109 90.1163C181.142 92.1103 181.175 94.1127 181.175 96.125C187.935 96.135 194.365 96.135 201.235 96.135C201.235 94.1381 201.253 92.1798 201.272 90.2486C201.314 85.894 201.355 81.6771 201.175 77.465Z" fill="#F2F1EC"/>
<path fill-rule="evenodd" clip-rule="evenodd" d="M169.79 90.3807C169.792 92.2504 169.795 96.1358 169.795 98.0449L181.175 98.125C181.175 96.1127 181.142 92.1103 181.109 90.1163C181.034 85.4911 180.959 80.9109 181.295 76.355C181.665 71.325 186.565 67.915 191.695 68.175C196.795 68.435 200.945 72.235 201.175 77.465C201.355 81.6771 201.314 85.894 201.272 90.2486C201.253 92.1798 201.235 96.1381 201.235 98.135L212.495 97.965C212.495 96.4087 212.497 92.8667 212.499 91.3351C212.505 87.2867 212.511 83.3108 212.475 79.335C212.385 66.305 203.225 56.825 190.885 56.945C178.725 57.065 169.855 66.515 169.795 79.425C169.781 83.0564 169.786 86.6878 169.79 90.3807Z" fill="#2F5373"/>
<path d="M106.885 19.3026C106.885 28.6726 108.055 30.4426 116.465 33.7626L128.055 33.5025H141.695L153.405 33.2026H157.445H195.305C196.305 33.2026 197.305 33.2426 198.305 33.1826C201.825 32.9926 204.195 30.7726 204.225 27.7026C204.265 24.6226 201.955 22.2026 198.435 22.0626C194.065 21.8926 189.685 22.0025 185.315 22.0025H123.085H118.345V11.6426H264.655V21.8226C263.335 21.8826 262.015 21.9925 260.685 21.9925C248.815 22.0025 236.945 21.9925 225.075 22.0025C223.955 22.0025 222.795 21.9226 221.715 22.1526C218.655 22.8126 216.815 24.6826 217.015 27.9426C217.215 31.1626 219.145 32.9325 222.325 33.1325C224.665 33.2825 227.015 33.1626 229.585 33.1626L241.335 33.5126H254.815L266.545 33.5326C274.055 31.3626 276.145 28.5526 276.165 20.8026C276.175 18.3026 276.165 15.8026 276.165 13.3026C276.155 3.61259 272.765 0.192605 263.135 0.192605H119.915C118.915 0.192605 117.915 0.162512 116.915 0.222512C111.045 0.572512 107.195 4.41259 106.925 10.3026C106.785 13.3026 106.885 16.3026 106.885 19.3026Z" fill="#2F5373"/>
<rect x="153.438" y="33.1875" width="76.0938" height="62.9476" fill="#F2F1EC"/>
<path d="M147.78 107.863C143.29 195.673 138.82 283.333 134.33 371.263L146.08 371.303V357.703L146.82 345.973C147.09 341.293 147.35 336.873 147.61 332.283L148.09 320.623C148.36 316.053 148.61 311.733 148.89 307.143L149.97 295.503V281.693L150.78 270.033C150.99 265.403 151.2 260.973 151.42 256.373L151.95 244.623C152.24 240.013 152.51 235.683 152.79 231.103L153.3 219.393C153.55 214.793 153.78 210.473 154.03 205.923L155.14 194.193V180.583L155.94 168.913C156.16 164.353 156.38 159.833 156.61 155.133L157.17 143.473C157.42 138.983 157.67 134.563 157.94 129.883L158.94 118.123V107.883L147.78 107.863Z" fill="#2F5373"/>
<path d="M247.305 371.103C242.825 283.283 238.345 195.603 233.845 107.533L222.605 107.633C222.785 110.913 222.965 114.223 223.165 117.873L223.685 129.633C223.965 134.263 224.225 138.593 224.515 143.223L225.055 154.883C225.275 159.563 225.485 164.003 225.705 168.663L226.375 180.333L226.415 181.217C226.601 185.355 226.789 189.518 226.995 193.943L227.545 205.673C227.825 210.013 228.105 214.413 228.415 219.143L228.855 230.853C229.125 235.373 229.395 239.703 229.675 244.373L230.235 256.123C230.435 260.593 230.635 265.023 230.855 269.783L231.485 281.443C231.725 285.993 231.955 290.503 232.205 295.253L232.695 306.893C232.985 311.203 233.285 315.623 233.605 320.373L234.075 332.033C234.315 336.673 234.535 341.093 234.765 345.723L235.445 357.453V371.053L247.305 371.103Z" fill="#2F5373"/>
<path fill-rule="evenodd" clip-rule="evenodd" d="M147.655 107.613H133.665L128.055 95.9926H141.695V33.5026L153.405 33.2026V95.9825H169.795V79.3625C169.855 66.4525 178.725 57.0026 190.885 56.8826C203.225 56.7626 212.385 66.2426 212.475 79.2726L212.495 95.9026H229.585V33.1626L241.335 33.5126V96.0526H254.815L247.935 107.533H233.845L222.605 107.633H158.815L147.655 107.613ZM191.695 68.1125C196.795 68.3725 200.945 72.1726 201.175 77.4026L201.235 96.0726C194.365 96.0726 187.935 96.0726 181.175 96.0626L181.295 76.2926C181.665 71.2626 186.565 67.8525 191.695 68.1125Z" fill="#2F5373"/>
</g>
<defs>
<clipPath id="clip0_520:67">
<rect width="384" height="383" fill="white"/>
</clipPath>
</defs>
</svg>
