<?xml version="1.0" encoding="iso-8859-1"?>
<!-- Generator: Adobe Illustrator 19.0.0, SVG Export Plug-In . SVG Version: 6.00 Build 0)  -->
<svg version="1.1" id="Capa_1" xmlns="http://www.w3.org/2000/svg" xmlns:xlink="http://www.w3.org/1999/xlink" x="0px" y="0px"
	 viewBox="0 0 512 512" style="enable-background:new 0 0 512 512;" xml:space="preserve">
<g>
	<g>
		<path d="M447.067,298.057c-1.859-1.871-4.439-2.93-7.069-2.93c-2.63,0-5.21,1.06-7.07,2.93c-1.86,1.86-2.93,4.44-2.93,7.07
			c0,2.63,1.069,5.21,2.93,7.07c1.86,1.859,4.44,2.93,7.07,2.93c2.63,0,5.21-1.07,7.069-2.93c1.86-1.86,2.931-4.44,2.931-7.07
			C449.998,302.486,448.928,299.917,447.067,298.057z"/>
	</g>
</g>
<g>
	<g>
		<path d="M501.997,0H10.003c-5.522,0-10,4.477-10,10v51.999c0,5.523,4.478,10,10,10h12v171.374c0,5.523,4.478,10,10,10
			c5.522,0,10-4.477,10-10V71.999h276.482c-4.057,5.805-8.387,11.473-12.493,14.248c-5.355,3.619-13.013,5.304-21.12,7.089
			c-9.72,2.14-19.771,4.352-28.36,10.287c-9.568,6.61-23.511,32.251-22.437,44.818c0.757,8.86,7.883,17.847,17.866,29.577
			c1.332,1.564,2.615,3.074,3.719,4.42c-12.034,10.041-24.186,27.592-28.791,38.444c-6.775,15.97-4.941,33.543,4.907,47.007
			c9.851,13.467,26.065,20.545,43.354,18.918c3.108-0.291,5.975-0.998,8.504-1.622c5.985-1.476,6.93-1.372,8.097-0.333
			c0.437,0.389,0.561,0.595,0.562,0.595c0.118,0.302,0.202,1.498,0.258,2.289c0.171,2.441,0.405,5.785,2.009,9.617
			c1.493,3.564,3.511,6.435,5.291,8.968c1.426,2.028,2.657,3.78,3.259,5.362c1.205,3.165,0.588,5.137-1.051,9.687
			c-1.436,3.982-3.221,8.94-2.755,15.122c0.763,10.112,5.857,21.08,10.353,30.757c1.34,2.884,2.605,5.608,3.634,8.053
			c0.581,1.381,1.256,2.986,2.044,4.696H171.797l4.829-21.704c1.787-8.035,6.293-15.315,12.686-20.501l26.381-21.397
			c4.764-3.864,7.6-9.596,7.78-15.728c0.181-6.131-2.313-12.021-6.841-16.161l-30.034-27.449l-5.42-12.426
			c-4.352-9.976-13.308-17.273-23.957-19.521c-30.253-6.382-31.109-6.382-32.529-6.382c-0.607,0-1.201,0.057-1.778,0.161
			l-2.448-11.627l19.149-4.482c1.4-0.328,2.714-0.954,3.85-1.835l40.565-31.468l31.276-14.311c3.559-1.628,5.84-5.181,5.84-9.093
			v-19.37c0-24.097-19.604-43.701-43.7-43.701H92.631c-11.076,0-21.643,4.153-29.752,11.692l-2.783,2.586
			c-8.047,7.481-10.65,18.922-6.631,29.148c2.733,6.956,8.095,12.238,14.702,14.905v7.347l-13.049,27.231
			c-1.349,2.815-1.306,6.099,0.117,8.877c7.87,15.378,16.58,32.975,18.285,37.284c0.155,0.849,0.42,1.681,0.793,2.469
			c2.365,5.006,5.965,6.057,22.583,10.197c5.989,1.492,11.831,2.856,14.349,3.439l-4.997,15.214
			c-2.773,8.441-2.137,17.479,1.793,25.448l12.357,25.06c1.113,2.257,1.585,4.774,1.363,7.283l-1.476,16.704
			c-0.726,8.215,1.069,16.332,5.192,23.473l16.533,28.637H42.003v-41c0-5.522-4.478-10-10-10s-10,4.478-10,10v50.999
			c0,5.522,4.478,10,10,10H246v53.725c-11.639,4.128-20,15.243-20,28.28c0,16.542,13.458,30,30,30s30-13.458,30-30
			c0-13.036-8.361-24.152-20-28.28v-53.725h213.997c5.522,0,10-4.478,10-10V71.999h12c5.522,0,10-4.477,10-10V10
			C511.997,4.477,507.519,0,501.997,0z M106.387,190.017c-5.291,1.239-8.625,6.479-7.505,11.797l2.846,13.521
			c-4.208-1.05-7.948-2.028-10.513-2.767c-0.459-1.033-0.978-2.145-1.545-3.361c-1.603-3.438-3.869-8.113-6.738-13.897
			c-2.839-5.722-5.726-11.435-7.642-15.21l11.896-24.825c0.646-1.349,0.981-2.826,0.981-4.321v-17.69c0-5.523-4.478-10-10-10
			c-4.023,0-5.599-2.901-6.089-4.149s-1.313-4.445,1.634-7.184l2.783-2.587c4.398-4.089,10.129-6.341,16.136-6.341h84.815
			c13.068,0,23.7,10.632,23.7,23.701v12.948l-26.49,12.121c-0.7,0.32-1.361,0.72-1.969,1.192l-39.756,30.84L106.387,190.017z
			 M155.147,362.749l-12.346-21.388c-2.057-3.563-2.953-7.613-2.591-11.714l1.476-16.704c0.542-6.159-0.616-12.345-3.35-17.889
			l-12.357-25.059c-1.6-3.244-1.859-6.924-0.729-10.361l6.379-19.421c4.376,0.889,11.108,2.282,21.464,4.467
			c4.336,0.915,7.982,3.886,9.754,7.947l6.27,14.375c0.561,1.285,1.385,2.438,2.42,3.384l31.604,28.882
			c0.237,0.217,0.353,0.488,0.343,0.809c-0.01,0.319-0.14,0.583-0.389,0.784l-26.381,21.397
			c-9.882,8.017-16.846,19.271-19.609,31.69L155.147,362.749z M256,492c-5.514,0-10-4.486-10-10c0-5.514,4.486-10,10-10
			s10,4.486,10,10C266,487.514,261.514,492,256,492z M358.665,352.242c-1.49,3.656-2.896,7.108-4.525,9.775
			c-6.197,10.149-13.294,16.524-16.081,17.105c-1.059-0.987-3.055-3.777-6.336-11.58c-1.171-2.782-2.512-5.669-3.931-8.724
			c-3.777-8.132-8.059-17.348-8.548-23.834c-0.138-1.828,0.528-3.791,1.628-6.842c2.031-5.64,4.813-13.363,0.927-23.578
			c-1.492-3.921-3.669-7.018-5.589-9.75c-1.308-1.862-2.546-3.624-3.2-5.187c-0.317-0.757-0.392-1.648-0.507-3.289
			c-0.272-3.896-0.729-10.417-7.464-16.419c-5.071-4.52-10.385-5.842-15.257-5.842c-4.091,0-7.871,0.933-10.936,1.688
			c-2.033,0.501-3.954,0.975-5.581,1.128c-10.365,0.967-19.609-2.969-25.347-10.813c-5.734-7.841-6.696-17.824-2.638-27.39
			c4.63-10.913,19.367-29.994,27.635-33.998c3.437-1.293,14.527-2.717,21.398-2.386c-0.109,1.059-0.051,2.139,0.186,3.201
			c0.633,2.844,2.475,5.271,5.043,6.646c0.925,0.495,2.905,1.823,4.82,3.109c9.871,6.623,16.855,10.894,23.658,10.034
			c6.711-0.853,9.96-4.297,11.597-7.109c0.788,0.234,1.576,0.465,2.356,0.693c5.596,1.636,12.56,3.673,15.066,6.213
			c2.895,2.934,5.31,9.323,7.44,14.959c1.278,3.385,2.602,6.884,4.13,9.98c0.569,1.152,1.132,2.36,1.707,3.594
			c3.908,8.379,8.771,18.808,19.606,23.788c3.103,1.426,6.236,2.112,8.958,2.53c-2.562,4.179-6.037,7.265-9.683,10.501
			c-7.924,7.035-17.785,15.789-15.351,34.846c1.062,8.317-0.056,9.996-4.213,16.24c-1.662,2.497-3.731,5.604-5.925,9.605
			C361.692,344.813,360.153,348.59,358.665,352.242z M470,379.996h-0.002h-20v-40.667c0-5.522-4.478-10-10-10
			c-5.522,0-10,4.478-10,10v40.667H366.1c2.124-2.837,3.855-5.494,5.111-7.552c2.473-4.046,4.255-8.422,5.979-12.653
			c1.334-3.274,2.595-6.367,4.059-9.039c1.78-3.247,3.436-5.732,5.036-8.137c5.05-7.585,9.411-14.136,7.402-29.856
			c-1.096-8.579,2.003-11.33,8.791-17.356c5.139-4.562,11.534-10.239,15.885-19.511c1.368-2.917,5.004-10.666,1.172-17.572
			c-3.571-6.436-10.513-7.266-15.106-7.815c-2.264-0.271-4.605-0.551-6.15-1.261c-4.165-1.915-7.048-8.094-9.835-14.07
			c-0.64-1.372-1.267-2.714-1.898-3.995c-1.098-2.223-2.194-5.124-3.355-8.196c-2.832-7.493-6.042-15.986-11.911-21.936
			c-6.151-6.234-15.47-8.958-23.69-11.362c-2.625-0.768-5.104-1.493-7.105-2.231c-2.004-0.74-4.19-0.818-6.239-0.226
			c-5.418,1.565-8.376,4.401-10.054,6.926c-2.45-1.359-5.598-3.435-7.776-4.891c0.359-5.01-2.009-8.522-3.08-9.834
			c-4.558-5.58-13.123-7.796-26.932-6.963c-2.546,0.153-5.366,0.433-8.156,0.814c0.838-2.989,1.939-6.56,2.833-7.677
			c0.229-0.285,0.442-0.556,0.643-0.813c0.755-0.126,1.598-0.288,2.544-0.497c10.717-2.366,30.592-1.792,43.615,0.128
			c20.069,2.959,44.017,11.695,51.041,27.338c1.263,2.812,2.527,6.632,3.867,10.677c3.653,11.028,7.794,23.527,16.419,31.248
			c2.557,2.288,5.607,3.292,9.131,3.292c6.504,0,14.612-3.423,24.161-8.508c8.416-4.481,19.492-11.347,22.569-14.423
			c3.905-3.905,3.906-10.237,0.001-14.142c-3.85-3.851-10.061-3.905-13.978-0.162c-4.02,3.403-22.648,14.406-30.556,16.785
			c-3.646-4.935-6.445-13.384-8.762-20.379c-1.506-4.544-2.928-8.836-4.609-12.581c-13.004-28.961-54.086-37.121-66.367-38.932
			c-12.113-1.786-35.649-3.226-50.843,0.128c-1.911,0.422-2.629,0.445-2.923,0.445c-0.052,0.001-0.095,0-0.14,0
			c-6.191,0-8.774,4.075-9.626,5.418c-0.283,0.446-0.71,1.121-1.781,2.454c-1.379,1.717-2.499,3.708-3.443,5.836
			c-3.724-4.592-7.573-9.757-8.039-12.207c-0.135-5.619,9.69-23.581,13.877-26.634c5.357-3.702,13.098-5.405,21.292-7.209
			c9.585-2.11,19.496-4.292,28.018-10.049c8.371-5.656,15.079-15.493,20.998-24.171c1.604-2.353,3.148-4.614,4.624-6.648H470
			V379.996z M491.997,51.999H20.003V20h471.995V51.999z"/>
	</g>
</g>
<g>
	<g>
		<path d="M39.072,290.587c-1.859-1.86-4.439-2.92-7.069-2.92s-5.21,1.06-7.07,2.92c-1.86,1.87-2.93,4.45-2.93,7.08
			s1.069,5.21,2.93,7.07c1.86,1.86,4.44,2.93,7.07,2.93s5.21-1.07,7.069-2.93c1.86-1.87,2.931-4.44,2.931-7.07
			C42.003,295.037,40.932,292.457,39.072,290.587z"/>
	</g>
</g>
<g>
	<g>
		<path d="M455.067,96.919c-1.859-1.87-4.439-2.93-7.069-2.93c-2.63,0-5.21,1.06-7.07,2.93c-1.86,1.86-2.93,4.43-2.93,7.07
			c0,2.63,1.069,5.2,2.93,7.07c1.86,1.86,4.44,2.93,7.07,2.93c2.63,0,5.21-1.07,7.069-2.93c1.86-1.87,2.931-4.44,2.931-7.07
			C457.998,101.359,456.928,98.779,455.067,96.919z"/>
	</g>
</g>
<g>
	<g>
		<path d="M362.068,104.929c-1.859-1.86-4.439-2.93-7.069-2.93c-2.63,0-5.21,1.07-7.07,2.93s-2.93,4.44-2.93,7.07
			c0,2.63,1.069,5.21,2.93,7.07c1.86,1.86,4.44,2.93,7.07,2.93c2.63,0,5.21-1.07,7.069-2.93c1.86-1.86,2.931-4.44,2.931-7.07
			C364.999,109.369,363.929,106.789,362.068,104.929z"/>
	</g>
</g>
<g>
	<g>
		<path d="M433.217,144.928c-1.86-1.86-4.439-2.93-7.07-2.93c-2.64,0-5.21,1.07-7.069,2.93c-1.87,1.86-2.931,4.44-2.931,7.07
			c0,2.63,1.061,5.21,2.931,7.07c1.859,1.86,4.43,2.93,7.069,2.93c2.631,0,5.21-1.07,7.07-2.93c1.86-1.86,2.93-4.44,2.93-7.07
			C436.147,149.368,435.078,146.788,433.217,144.928z"/>
	</g>
</g>
<g>
	<g>
		<path d="M135.07,120.929c-1.859-1.86-4.439-2.93-7.069-2.93c-2.63,0-5.21,1.07-7.07,2.93s-2.93,4.44-2.93,7.07
			c0,2.63,1.069,5.21,2.93,7.07s4.44,2.93,7.07,2.93c2.63,0,5.21-1.07,7.069-2.93c1.86-1.86,2.931-4.44,2.931-7.07
			C138.001,125.369,136.931,122.789,135.07,120.929z"/>
	</g>
</g>
<g>
	<g>
		<path d="M282.899,229.097c-1.859-1.87-4.439-2.93-7.069-2.93c-2.63,0-5.21,1.06-7.07,2.93c-1.86,1.86-2.93,4.43-2.93,7.07
			c0,2.63,1.069,5.21,2.93,7.07c1.861,1.86,4.44,2.93,7.07,2.93c2.63,0,5.21-1.07,7.069-2.93c1.87-1.86,2.931-4.44,2.931-7.07
			C285.83,233.537,284.769,230.957,282.899,229.097z"/>
	</g>
</g>
<g>
	<g>
		<path d="M356.739,310.596c-1.86-1.87-4.44-2.93-7.07-2.93c-2.64,0-5.22,1.06-7.07,2.93c-1.87,1.86-2.93,4.431-2.93,7.07
			c0,2.63,1.06,5.21,2.93,7.07c1.86,1.86,4.43,2.93,7.07,2.93c2.63,0,5.21-1.07,7.07-2.93c1.859-1.86,2.93-4.44,2.93-7.07
			C359.669,315.026,358.599,312.456,356.739,310.596z"/>
	</g>
</g>
<g>
	<g>
		<path d="M171.09,290.597c-1.86-1.87-4.44-2.93-7.07-2.93c-2.63,0-5.21,1.06-7.069,2.93c-1.86,1.86-2.931,4.431-2.931,7.07
			c0,2.63,1.07,5.21,2.931,7.07c1.86,1.86,4.44,2.93,7.069,2.93c2.63,0,5.21-1.07,7.07-2.93c1.86-1.86,2.93-4.44,2.93-7.07
			C174.02,295.027,172.951,292.457,171.09,290.597z"/>
	</g>
</g>
<g>
</g>
<g>
</g>
<g>
</g>
<g>
</g>
<g>
</g>
<g>
</g>
<g>
</g>
<g>
</g>
<g>
</g>
<g>
</g>
<g>
</g>
<g>
</g>
<g>
</g>
<g>
</g>
<g>
</g>
</svg>
