<svg width="123" height="136" viewBox="0 0 123 136" fill="none" xmlns="http://www.w3.org/2000/svg">
<path d="M15.1655 0.5625H22.2905H29.4155H86.4155H93.5405H107.791C115.649 0.5625 122.041 6.95362 122.041 14.8125V21.9375V36.1875V43.3125V50.4375V57.5625V64.6875V71.8125V78.9375V86.0625V93.1875C121.825 94.9234 121.127 98.7786 120.06 100.312C117.587 104.552 113.042 107.438 107.791 107.438H100.666H93.5405H74.9443L69.3583 129.781C68.4534 133.408 65.2115 135.938 61.478 135.938C57.7445 135.938 54.5027 133.408 53.5978 129.781L48.0118 107.438H29.4155H22.2905H15.1655C7.30665 107.438 0.915527 101.046 0.915527 93.1875V14.8125C0.915527 6.95362 7.30665 0.5625 15.1655 0.5625Z" fill="#2F5373"/>
<path d="M8.04053 14.8125V93.1875C8.04053 97.1169 11.2361 100.312 15.1655 100.312H53.5693L60.509 128.054C60.7335 128.948 62.2297 128.948 62.4506 128.054L69.3868 100.312H107.791C111.72 100.312 114.916 97.1169 114.916 93.1875V14.8125C114.916 10.8831 111.72 7.6875 107.791 7.6875H15.1655C11.2361 7.6875 8.04053 10.8831 8.04053 14.8125Z" fill="#F2F1EC"/>
<path d="M61.478 94.1875C67.3704 94.1875 72.1655 89.3924 72.1655 83.5C72.1655 77.6076 67.3704 72.8125 61.478 72.8125C55.5857 72.8125 50.7905 77.6076 50.7905 83.5C50.7905 89.3924 55.5857 94.1875 61.478 94.1875ZM61.478 79.9375C63.4445 79.9375 65.0405 81.5371 65.0405 83.5C65.0405 85.4629 63.4445 87.0625 61.478 87.0625C59.5115 87.0625 57.9155 85.4629 57.9155 83.5C57.9155 81.5371 59.5115 79.9375 61.478 79.9375Z" fill="#2F5373"/>
<path d="M57.9155 65.6875H65.0405C68.97 65.6875 72.1655 62.4919 72.1655 58.5625V22.9375C72.1655 19.0081 68.97 15.8125 65.0405 15.8125H57.9155C53.9861 15.8125 50.7905 19.0081 50.7905 22.9375V58.5625C50.7905 62.4919 53.9861 65.6875 57.9155 65.6875ZM57.9155 22.9375H65.0405L65.0441 58.5625H57.9155V22.9375Z" fill="#2F5373"/>
</svg>
