<svg width="204" height="260" viewBox="0 0 204 260" fill="none" xmlns="http://www.w3.org/2000/svg">
<path fill-rule="evenodd" clip-rule="evenodd" d="M10.6381 226.452C17.5459 246.239 36.0476 259.781 57.3384 259.781C78.6292 259.781 97.131 246.239 104.039 226.452C114.457 223.711 122.2 214.288 122.2 203.016C122.2 192.5 114.133 188.638 114.092 188.046C114.741 185.864 122.2 184.5 122.2 170.578C122.2 164.82 120.108 159.598 116.752 155.422C121.795 141.806 129.7 130.915 138.902 120.86L156.058 103.481C164.903 94.8447 173.765 86.0217 181.41 75.8201L192.818 57.1604C198.307 45.7667 202.077 32.5566 203.026 16.5L202.863 0.28125L187.062 8.39062C187.062 50.5837 165.819 71.3113 143.329 93.2471C127.843 108.355 111.936 123.974 102.677 146.737C101.128 146.42 99.5228 146.25 97.8769 146.25H65.4461V105.703C65.4461 92.2902 54.5332 81.375 41.1231 81.375H24.9077C20.4403 81.375 16.8 77.742 16.8 73.2656C16.8 68.7892 20.4403 65.1562 24.9077 65.1562H105.985C119.395 65.1562 130.308 54.241 130.308 40.8281C130.308 27.4152 119.395 16.5 105.985 16.5H41.1231C36.6557 16.5 33.0154 12.867 33.0154 8.39062H16.8C16.8 21.8035 27.7129 32.7188 41.1231 32.7188H105.985C110.452 32.7188 114.092 36.3517 114.092 40.8281C114.092 45.3045 110.452 48.9375 105.985 48.9375H24.9077C11.4975 48.9375 0.584595 59.8527 0.584595 73.2656C0.584595 86.6785 11.4975 97.5938 24.9077 97.5938H41.1231C45.5904 97.5938 49.2307 101.227 49.2307 105.703V146.25H16.8C15.1541 146.25 13.5488 146.42 12.0002 146.737L16.8 162.469H97.8769C102.344 162.469 105.985 166.102 105.985 170.578C105.985 175.055 102.344 178.688 97.8769 178.688H16.8V194.906H97.8769C102.344 194.906 105.985 198.539 105.985 203.016C105.985 207.492 102.344 211.125 97.8769 211.125H16.8L10.6381 226.452ZM28.7669 227.344C34.6856 237.189 45.3634 243.562 57.3384 243.562C69.3135 243.562 79.9913 237.189 85.9099 227.344H28.7669Z" fill="#2F5373"/>
</svg>
