<svg width="138" height="138" viewBox="0 0 138 138" fill="none" xmlns="http://www.w3.org/2000/svg">
<path d="M68.75 0.0334473C95.0417 0.0334473 117.892 14.9141 129.403 36.6782L133.875 47.2015C136.105 53.9538 137.35 61.1443 137.35 68.6334C137.35 86.6627 130.307 103.037 118.896 115.294L110.436 122.986C98.8658 131.882 84.4374 137.233 68.75 137.233C58.7124 137.233 49.1995 135.014 40.6021 131.123L30.5868 125.599C12.2477 113.275 0.150024 92.3459 0.150024 68.6334C0.150024 43.3886 13.8918 21.3453 34.249 9.43189L44.5686 4.51634C52.1025 1.66917 60.2309 0.0334473 68.75 0.0334473Z" fill="#F2F1EC"/>
<path fill-rule="evenodd" clip-rule="evenodd" d="M129.403 36.6782C117.892 14.9141 95.0417 0.0334473 68.75 0.0334473C60.2308 0.0334473 52.1025 1.66917 44.5686 4.51634L34.249 9.43189C13.8918 21.3453 0.150024 43.3886 0.150024 68.6334C0.150024 92.3459 12.2477 113.275 30.5868 125.599L40.6021 131.123C49.1995 135.014 58.7124 137.233 68.75 137.233C84.4374 137.233 98.8658 131.882 110.436 122.986L118.896 115.294C130.307 103.037 137.35 86.6627 137.35 68.6334C137.35 61.1443 136.105 53.9538 133.875 47.2015L129.403 36.6782ZM68.75 11.4668C37.2274 11.4668 11.5834 37.1108 11.5834 68.6334C11.5834 82.886 16.859 95.9021 25.5149 105.923C29.5345 95.4164 37.875 87.0284 48.2504 82.8916C43.1897 77.7332 40.0522 70.6907 40.0522 62.9168C40.0522 47.1569 52.8757 34.3335 68.6356 34.3335C84.3955 34.3335 97.2189 47.1569 97.2189 62.9168C97.2189 70.6907 94.0814 77.7332 89.0263 82.8916C99.4604 87.0591 107.829 95.5196 111.82 106.107C120.571 96.0612 125.917 82.9698 125.917 68.6334C125.917 37.1108 100.273 11.4668 68.75 11.4668ZM34.9888 114.657C37.5652 101.471 49.2051 91.5001 62.9189 91.5001H74.3522C88.1191 91.5001 99.7981 101.543 102.313 114.808C92.8756 121.688 81.2971 125.8 68.75 125.8C56.1108 125.8 44.4598 121.627 34.9888 114.657ZM68.6356 45.7668C59.1813 45.7668 51.4856 53.4625 51.4856 62.9168C51.4856 72.3711 59.1813 80.0668 68.6356 80.0668C78.0899 80.0668 85.7856 72.3711 85.7856 62.9168C85.7856 53.4625 78.0899 45.7668 68.6356 45.7668Z" fill="#2F5373"/>
</svg>
