<svg width="312" height="382" viewBox="0 0 312 382" fill="none" xmlns="http://www.w3.org/2000/svg">
<path d="M150.435 0.0990616C72.9937 2.75061 9.0446 62.9563 1.63586 140.007C0.232102 154.825 0.855994 169.798 3.66352 184.304C3.7415 184.928 4.05345 186.643 4.67734 189.373C7.01694 199.901 10.5264 210.117 15.0496 219.944C30.8029 257.143 65.195 314.386 139.594 376.073C144.196 379.894 150.045 382 155.972 382C161.977 382 167.748 379.894 172.349 376.073C246.67 314.386 281.062 257.143 296.894 219.944C301.417 210.117 304.926 199.823 307.266 189.529C307.656 187.813 308.046 186.175 308.28 184.538C310.151 174.867 311.087 164.963 311.087 155.137C311.087 67.7135 238.326 -3.02041 150.435 0.0990616ZM281.998 179.469C281.998 179.624 281.92 179.78 281.92 179.858C281.842 180.092 281.686 181.262 281.14 183.446C279.191 192.18 276.227 200.759 272.484 208.87C272.406 209.025 272.328 209.103 272.328 209.259C257.822 243.652 225.848 296.761 155.972 354.861C86.0955 296.683 54.1209 243.574 39.6154 209.259C39.5374 209.103 39.5374 209.025 39.4594 208.87C35.7161 200.681 32.7526 192.18 30.8029 183.29C30.413 181.496 30.179 180.404 30.101 180.014C30.101 179.858 30.023 179.624 30.023 179.469C27.6834 167.381 27.1375 154.903 28.3073 142.581C34.4683 78.8656 87.3433 29.1101 151.448 26.8485C153.008 26.7705 154.49 26.7705 156.05 26.7705C226.784 26.7705 284.416 84.3247 284.416 155.137C284.338 163.247 283.558 171.436 281.998 179.469Z" fill="#2F5373"/>
<path d="M281.998 179.469C281.998 179.624 281.92 179.78 281.92 179.858C281.842 180.092 281.686 181.262 281.14 183.446C279.191 192.18 276.227 200.759 272.484 208.87C272.406 209.025 272.328 209.103 272.328 209.259C257.822 243.652 225.848 296.761 155.972 354.861C86.0955 296.683 54.1209 243.574 39.6154 209.259C39.5374 209.103 39.5374 209.025 39.4594 208.87C35.7161 200.681 32.7526 192.18 30.8029 183.29C30.413 181.496 30.179 180.404 30.101 180.014C30.101 179.858 30.023 179.624 30.023 179.469C27.6834 167.381 27.1375 154.903 28.3073 142.581C34.4683 78.8656 87.3433 29.1101 151.448 26.8485C153.008 26.7705 154.49 26.7705 156.05 26.7705C226.784 26.7705 284.416 84.3247 284.416 155.137C284.338 163.247 283.558 171.436 281.998 179.469Z" fill="#F2F1EC"/>
<path d="M150.76 7.09364C77.857 9.59248 17.6548 66.3308 10.6802 138.944C9.35869 152.908 9.94602 167.019 12.589 180.689C12.6625 181.277 12.9561 182.894 13.5435 185.467C15.746 195.389 19.0498 205.016 23.308 214.277C38.1383 249.334 70.5153 303.28 140.555 361.414C144.887 365.016 150.393 367 155.973 367C161.626 367 167.059 365.016 171.391 361.414C241.357 303.28 273.734 249.334 288.638 214.277C292.896 205.016 296.2 195.315 298.403 185.614C298.77 183.997 299.137 182.453 299.357 180.91C301.119 171.797 302 162.463 302 153.202C302 70.814 233.502 4.15383 150.76 7.09364ZM274.615 176.133C274.615 176.28 274.542 176.427 274.542 176.5C274.469 176.721 274.322 177.823 273.808 179.881C271.972 188.112 269.182 196.197 265.658 203.84C265.585 203.987 265.512 204.061 265.512 204.208C251.856 236.619 221.755 286.67 155.973 341.424C90.1911 286.596 60.09 236.546 46.4344 204.208C46.361 204.061 46.361 203.987 46.2876 203.84C42.7636 196.123 39.9737 188.112 38.1383 179.734C37.7712 178.044 37.5509 177.015 37.4775 176.647C37.4775 176.5 37.4041 176.28 37.4041 176.133C35.2016 164.741 34.6877 152.982 35.7889 141.37C41.5889 81.3239 91.3658 34.4339 151.715 32.3025C153.183 32.229 154.578 32.229 156.046 32.229C222.636 32.229 276.891 86.4685 276.891 153.202C276.818 160.846 276.084 168.563 274.615 176.133Z" fill="#2F5373"/>
<path d="M155.972 74.4984C110.661 74.4984 73.6956 111.386 73.6956 156.774C73.6956 202.163 110.661 238.972 155.972 238.972C201.282 238.972 238.248 202.085 238.248 156.696C238.248 111.308 201.282 74.4984 155.972 74.4984ZM155.972 212.223C125.401 212.223 100.445 187.345 100.445 156.696C100.445 126.126 125.323 101.17 155.972 101.17C186.542 101.17 211.498 126.048 211.498 156.696C211.498 187.345 186.542 212.223 155.972 212.223Z" fill="#2F5373"/>
</svg>
