<svg width="312" height="382" viewBox="0 0 312 382" fill="none" xmlns="http://www.w3.org/2000/svg">
<path d="M150.435 0.0991227C72.9937 2.75067 9.0446 62.9564 1.63586 140.007C0.232102 154.825 0.855994 169.798 3.66352 184.304C3.7415 184.928 4.05345 186.643 4.67734 189.373C7.01694 199.901 10.5263 210.117 15.0496 219.944C30.8029 257.143 65.195 314.386 139.594 376.073C144.196 379.894 150.045 382 155.972 382C161.977 382 167.748 379.894 172.349 376.073C246.67 314.386 281.062 257.143 296.894 219.944C301.417 210.117 304.926 199.823 307.266 189.529C307.656 187.813 308.046 186.175 308.28 184.538C310.151 174.867 311.087 164.963 311.087 155.137C311.087 67.7136 238.326 -3.02035 150.435 0.0991227ZM281.998 179.469C281.998 179.625 281.92 179.781 281.92 179.859C281.842 180.092 281.686 181.262 281.14 183.446C279.191 192.18 276.227 200.759 272.484 208.87C272.406 209.026 272.328 209.104 272.328 209.26C257.822 243.652 225.848 296.761 155.972 354.861C86.0955 296.683 54.1209 243.574 39.6154 209.26C39.5374 209.104 39.5374 209.026 39.4594 208.87C35.7161 200.681 32.7526 192.18 30.8029 183.29C30.413 181.496 30.179 180.404 30.101 180.014C30.101 179.859 30.023 179.625 30.023 179.469C27.6834 167.381 27.1375 154.903 28.3073 142.581C34.4683 78.8657 87.3433 29.1102 151.448 26.8486C153.008 26.7706 154.49 26.7706 156.05 26.7706C226.784 26.7706 284.416 84.3248 284.416 155.137C284.338 163.247 283.558 171.436 281.998 179.469Z" fill="#2F5373"/>
<path d="M281.998 179.469C281.998 179.625 281.92 179.781 281.92 179.859C281.842 180.092 281.686 181.262 281.14 183.446C279.191 192.18 276.227 200.759 272.484 208.87C272.406 209.026 272.328 209.104 272.328 209.26C257.822 243.652 225.848 296.761 155.972 354.861C86.0955 296.683 54.1209 243.574 39.6154 209.26C39.5374 209.104 39.5374 209.026 39.4594 208.87C35.7161 200.681 32.7526 192.18 30.8029 183.29C30.413 181.496 30.179 180.404 30.101 180.014C30.101 179.859 30.023 179.625 30.023 179.469C27.6834 167.381 27.1375 154.903 28.3073 142.581C34.4683 78.8657 87.3433 29.1102 151.448 26.8486C153.008 26.7706 154.49 26.7706 156.05 26.7706C226.784 26.7706 284.416 84.3248 284.416 155.137C284.338 163.247 283.558 171.436 281.998 179.469Z" fill="#F2F1EC"/>
<path d="M155.972 74.4985C110.661 74.4985 73.6956 111.386 73.6956 156.775C73.6956 202.163 110.661 238.973 155.972 238.973C201.282 238.973 238.248 202.085 238.248 156.697C238.248 111.308 201.282 74.4985 155.972 74.4985ZM155.972 212.223C125.401 212.223 100.445 187.345 100.445 156.697C100.445 126.126 125.323 101.17 155.972 101.17C186.542 101.17 211.498 126.048 211.498 156.697C211.498 187.345 186.542 212.223 155.972 212.223Z" fill="#2F5373"/>
</svg>
