<svg width="101" height="93" viewBox="0 0 101 93" fill="none" xmlns="http://www.w3.org/2000/svg">
<path d="M66.9841 45.007L88.4936 45.0083L88.5342 56.446L66.9797 56.4442C65.3604 64.3174 60.572 71.5004 53.0074 75.7078C39.2345 83.3683 21.7948 78.3949 14.1343 64.622C6.47378 50.8492 11.4472 33.4094 25.2201 25.7489C38.9929 18.0884 56.4327 23.0619 64.0932 36.8347C65.5491 39.4522 66.4101 42.212 66.9841 45.007Z" fill="#F2F1EC"/>
<path fill-rule="evenodd" clip-rule="evenodd" d="M88.4936 45.0083L66.9841 45.007C66.4101 42.212 65.549 39.4522 64.0932 36.8347C56.4327 23.0619 38.9929 18.0884 25.2201 25.7489C11.4472 33.4094 6.47375 50.8492 14.1343 64.622C21.7948 78.3949 39.2345 83.3684 53.0074 75.7078C60.5719 71.5004 65.3604 64.3174 66.9797 56.4442L88.5342 56.446L95.4375 56.446L95.4375 45.0083L88.4936 45.0083ZM30.7775 35.7407C22.5153 40.3362 19.5305 50.8023 24.126 59.0646C28.7215 67.3268 39.1877 70.3116 47.4499 65.7161C55.7122 61.1206 58.6969 50.6544 54.1014 42.3922C49.5059 34.1299 39.0398 31.1452 30.7775 35.7407Z" fill="#2F5373"/>
</svg>
