<svg width="150" height="151" viewBox="0 0 150 151" fill="none" xmlns="http://www.w3.org/2000/svg">
<path fill-rule="evenodd" clip-rule="evenodd" d="M146.289 68.1606H146.288L146.279 68.1519L129.454 65.7514C127.089 65.4146 125.445 63.2243 125.782 60.8595C125.943 59.723 126.55 58.6979 127.468 58.0091L141.067 47.8101C142.978 46.3768 143.365 43.666 141.932 41.7547L126.361 20.9934C124.928 19.0821 122.217 18.695 120.306 20.1283L106.711 30.3273C104.808 31.7714 102.095 31.3995 100.651 29.4963C99.9499 28.5724 99.6493 27.4051 99.8169 26.2572L102.222 9.4319C102.561 7.06705 100.919 4.87575 98.5544 4.53622L98.552 4.53595L98.5495 4.53568L72.8747 0.867836C70.5104 0.528302 68.318 2.16975 67.9785 4.53459V4.53568L65.5736 21.361C65.2368 23.7259 63.0466 25.37 60.6817 25.0332C59.5452 24.8715 58.5201 24.2644 57.8313 23.3463L47.6366 9.74764C46.2034 7.83641 43.4925 7.44929 41.5813 8.88258L28.5838 18.6361L19.3017 26.8412C19.2374 26.9952 19.1806 27.1526 19.133 27.3126C18.9725 28.448 19.2698 29.6012 19.9592 30.5176L30.1538 44.112C31.2287 45.5031 31.332 47.4138 30.4134 48.9131C29.5289 50.4215 27.8187 51.2444 26.0881 50.9935L9.26274 48.5887C6.89789 48.2497 4.70659 49.8917 4.36706 52.256L4.36679 52.2584L4.36652 52.2608L0.694355 77.9487C0.355361 80.313 1.99734 82.5048 4.36165 82.8444L4.36409 82.8446L4.36652 82.8449L21.1919 85.2498C23.5567 85.5866 25.2009 87.7768 24.864 90.1417C24.7024 91.2781 24.0952 92.3032 23.1772 92.992L9.5828 103.187C7.67157 104.62 7.28447 107.331 8.71776 109.242L24.2888 130.003C25.7221 131.915 28.4329 132.302 30.3442 130.869L43.9429 120.674C45.8557 119.243 48.5666 119.634 49.9972 121.548C50.6816 122.463 50.9763 123.612 50.8157 124.744L48.4152 141.569C48.0757 143.934 49.7171 146.126 52.082 146.465H52.083L77.7752 150.138C77.9774 150.164 78.1812 150.177 78.3851 150.177C80.5385 150.179 82.3654 148.597 82.6714 146.465L85.072 129.64C85.4088 127.275 87.599 125.631 89.9639 125.968C91.1003 126.13 92.1254 126.737 92.8142 127.655L103.013 141.249C104.447 143.16 107.157 143.548 109.069 142.114L129.83 126.543C131.741 125.11 132.128 122.399 130.695 120.488L120.5 106.893C119.43 105.5 119.327 103.593 120.241 102.092C121.106 100.564 122.832 99.7357 124.566 100.016L141.391 102.417C143.756 102.756 145.948 101.114 146.288 98.7501V98.749L149.956 73.0568C150.295 70.6919 148.654 68.5001 146.289 68.1606ZM125.769 91.4392L138.312 93.2299L140.773 76.1105L128.23 74.3198C124.823 73.8321 121.749 72.0117 119.685 69.2587C115.386 63.5255 116.549 55.3923 122.282 51.093L132.417 43.4892L122.036 29.6483L111.902 37.2478C109.149 39.3131 105.688 40.1998 102.281 39.7132C95.1866 38.7 90.2569 32.1277 91.2701 25.0332L93.0608 12.4899L75.937 10.0461L74.1463 22.5894C73.6586 25.9961 71.8382 29.0698 69.0852 31.134C63.352 35.4333 55.2189 34.2704 50.9195 28.5367L43.3157 18.4025L29.4748 28.7832L37.1003 38.926C39.1667 41.6807 40.0534 45.143 39.5651 48.5519C38.5498 55.6459 31.9753 60.5735 24.8813 59.5576L12.338 57.7669L9.88991 74.8907L22.4332 76.6814C25.8399 77.1691 28.9136 78.9895 30.9778 81.7425C35.2772 87.4757 34.1142 95.6088 28.3805 99.9081L18.2507 107.512L28.6314 121.353L38.7655 113.753C41.5202 111.687 44.9826 110.8 48.3914 111.289C55.4854 112.304 60.413 118.878 59.3971 125.972L57.6064 138.516L74.7302 140.964L76.482 128.403C76.9696 124.996 78.79 121.923 81.5431 119.859C87.2762 115.559 95.4094 116.722 99.7087 122.456L107.313 132.586L121.153 122.205L113.554 112.071C111.489 109.318 110.602 105.857 111.089 102.45C112.102 95.3563 118.674 90.426 125.769 91.4392Z" fill="#355877"/>
<path d="M75.325 40.5349C56.0144 40.5349 40.3599 56.1894 40.3599 75.5C40.3599 94.8106 56.0144 110.465 75.325 110.465C94.6355 110.465 110.29 94.8106 110.29 75.5C110.268 56.1982 94.6268 40.5562 75.325 40.5349ZM75.325 101.724C60.8418 101.724 49.1011 89.9832 49.1011 75.5C49.1011 61.0168 60.8418 49.2762 75.325 49.2762C89.8081 49.2762 101.549 61.0168 101.549 75.5C101.532 89.9761 89.801 101.707 75.325 101.724Z" fill="#355877"/>
</svg>
