<svg width="185" height="204" viewBox="0 0 185 204" fill="none" xmlns="http://www.w3.org/2000/svg">
<path fill-rule="evenodd" clip-rule="evenodd" d="M41.144 71.552L112.512 0.176025L120.352 14.96L59.312 76L88 104.688L146.696 45.992L158.12 57.192L99.312 116L128 144.688L183.832 88.848L184.64 110.664L132.456 162.856L29.208 202.568C26.736 203.512 24.144 204 21.496 204C9.648 204 0 194.36 0 182.504C0 179.856 0.48 177.264 1.432 174.8L41.144 71.552ZM51.048 90.36L113.64 152.952L60.648 173.336L30.664 143.352L51.048 90.36ZM16 182.504C16 186.216 20.008 188.976 23.472 187.632L44.304 179.616L24.376 159.688L16.36 180.536C16.128 181.16 16 181.824 16 182.504Z" fill="#2F5373"/>
</svg>
