<svg width="150" height="150" viewBox="0 0 150 150" fill="none" xmlns="http://www.w3.org/2000/svg">
<path fill-rule="evenodd" clip-rule="evenodd" d="M145.638 67.3372H145.639C148.004 67.6768 149.645 69.8686 149.306 72.2334L145.638 97.9256V97.9267C145.298 100.291 143.106 101.933 140.741 101.593L123.916 99.1929C122.182 98.9123 120.456 99.7406 119.591 101.269C118.677 102.769 118.78 104.677 119.85 106.07L130.045 119.664C131.478 121.576 131.091 124.287 129.18 125.72L108.419 141.291C106.507 142.724 103.797 142.337 102.363 140.426L92.1642 126.831C91.4754 125.913 90.4503 125.306 89.3138 125.145C86.949 124.808 84.7588 126.452 84.422 128.817L82.0214 145.642C81.7154 147.774 79.8885 149.356 77.7351 149.353C77.5312 149.353 77.3274 149.34 77.1252 149.314L51.433 145.642H51.4319C49.0671 145.303 47.4256 143.11 47.7652 140.746L50.1657 123.921C50.3263 122.789 50.0316 121.64 49.3471 120.724C47.9166 118.811 45.2057 118.42 43.2928 119.85L29.6942 130.045C27.7829 131.478 25.072 131.091 23.6387 129.18L8.06774 108.419C6.63444 106.508 7.02154 103.797 8.93278 102.363L22.5271 92.1687C23.4452 91.4799 24.0523 90.4548 24.214 89.3183C24.5508 86.9535 22.9067 84.7632 20.5418 84.4264L3.7165 82.0216L3.71163 82.021C1.34732 81.6815 -0.294664 79.4896 0.0443301 77.1253L3.7165 51.4375L3.71703 51.4326C4.05657 49.0683 6.24787 47.4263 8.61271 47.7653L25.4381 50.1702C27.1687 50.421 28.8788 49.5981 29.7634 48.0897C30.6819 46.5905 30.5787 44.6798 29.5038 43.2886L19.3091 29.6943C18.6198 28.7779 18.3224 27.6246 18.483 26.4893C18.5306 26.3292 18.5874 26.1719 18.6517 26.0178L27.9338 17.8127L40.9312 8.05922C42.8425 6.62593 45.5533 7.01304 46.9866 8.92428L57.1813 22.523C57.8701 23.441 58.8952 24.0482 60.0317 24.2098C62.3965 24.5467 64.5868 22.9025 64.9236 20.5377L67.3284 3.71231V3.71123C67.668 1.34638 69.8603 -0.295062 72.2246 0.0444722L97.8995 3.71231L97.9044 3.71285C100.269 4.05239 101.911 6.24368 101.572 8.60853L99.1668 25.4339C98.9992 26.5817 99.2999 27.749 100.001 28.673C101.445 30.5761 104.158 30.9481 106.061 29.504L119.656 19.305C121.567 17.8717 124.278 18.2588 125.711 20.17L141.282 40.9314C142.715 42.8426 142.328 45.5535 140.417 46.9868L126.818 57.1858C125.9 57.8746 125.293 58.8997 125.132 60.0361C124.795 62.401 126.439 64.5912 128.804 64.928L145.629 67.3286L145.638 67.3372ZM136.002 91.8898L123.824 90.1513C116.936 89.1676 110.556 93.9542 109.572 100.841C109.099 104.149 109.96 107.509 111.965 110.182L119.344 120.02L105.906 130.098L98.5235 120.264C94.3494 114.697 86.4531 113.568 80.8869 117.742C78.2141 119.746 76.4467 122.73 75.9732 126.038L74.2725 138.232L57.6475 135.856L59.386 123.678C60.3723 116.791 55.5882 110.408 48.7009 109.422C45.3913 108.948 42.0297 109.809 39.3553 111.815L29.5163 119.193L19.438 105.756L29.2728 98.3734C34.8395 94.1994 35.9686 86.3033 31.7944 80.7372C29.7903 78.0644 26.8062 76.2971 23.4987 75.8236L11.3207 74.0851L13.6975 57.4604L25.8755 59.1989C32.7629 60.1852 39.1459 55.4013 40.1316 48.514C40.6056 45.2045 39.7448 41.8431 37.7386 39.1687L30.3352 29.3215L43.773 19.2434L51.1553 29.0822C55.3295 34.6488 63.2257 35.7778 68.7919 31.6038C71.4648 29.5997 73.2321 26.6157 73.7056 23.3083L75.4441 11.1305L92.0692 13.5031L90.3306 25.6808C89.347 32.5686 94.1331 38.9493 101.021 39.9329C104.328 40.4053 107.688 39.5445 110.361 37.5394L120.2 30.1614L130.279 43.5989L120.44 50.9811C114.873 55.1551 113.744 63.0512 117.918 68.6172C119.922 71.29 122.906 73.0574 126.214 73.5308L138.392 75.2693L136.002 91.8898Z" fill="#2F5373"/>
<path fill-rule="evenodd" clip-rule="evenodd" d="M104.352 68.8672C103.567 64.9758 102.054 61.2756 99.8949 57.97L91.2776 49.1793C78.5658 40.5737 61.578 42.8989 51.5334 54.6158C41.4889 66.3358 41.4889 83.8323 51.5334 95.5521C61.578 107.269 78.5658 109.594 91.2776 100.989L99.8888 92.198C102.051 88.8923 103.567 85.1921 104.352 81.3006V68.8672ZM56.2435 75.0839C56.2435 85.3832 64.4236 93.734 74.5128 93.734C84.6019 93.734 92.7822 85.3832 92.7822 75.0839C92.7822 64.7846 84.6019 56.434 74.5128 56.434C64.4236 56.434 56.2435 64.7846 56.2435 75.0839Z" fill="#2F5373"/>
<path fill-rule="evenodd" clip-rule="evenodd" d="M44.8571 81.3006C45.6422 85.1922 47.1557 88.8924 49.3145 92.198L57.9317 100.989C70.6435 109.594 87.6314 107.269 97.6757 95.5522C107.72 83.8323 107.72 66.3357 97.676 54.6158C87.6314 42.8989 70.6435 40.5737 57.9317 49.1793L49.3204 57.97C47.1586 61.2756 45.6422 64.9759 44.8571 68.8672V81.3006ZM92.9658 75.0839C92.9658 64.7846 84.7857 56.434 74.6965 56.434C64.6073 56.434 56.4271 64.7846 56.4271 75.0839C56.4271 85.3833 64.6073 93.734 74.6965 93.734C84.7857 93.734 92.9658 85.3833 92.9658 75.0839Z" fill="#2F5373"/>
</svg>
