<svg width="150" height="151" viewBox="0 0 150 151" fill="none" xmlns="http://www.w3.org/2000/svg">
<path fill-rule="evenodd" clip-rule="evenodd" d="M146.288 68.1606H146.289C148.654 68.5001 150.295 70.6919 149.956 73.0568L146.288 98.749V98.7501C145.948 101.114 143.756 102.756 141.391 102.417L124.566 100.016C122.832 99.7357 121.106 100.564 120.241 102.092C119.327 103.593 119.43 105.5 120.5 106.893L130.695 120.488C132.128 122.399 131.741 125.11 129.83 126.543L109.069 142.114C107.157 143.548 104.447 143.16 103.013 141.249L92.8142 127.655C92.1254 126.737 91.1003 126.13 89.9639 125.968C87.599 125.631 85.4088 127.275 85.072 129.64L82.6714 146.465C82.3654 148.597 80.5385 150.179 78.3851 150.177C78.1812 150.177 77.9774 150.164 77.7752 150.138L52.083 146.465H52.082C49.7171 146.126 48.0756 143.934 48.4152 141.569L50.8157 124.744C50.9763 123.612 50.6816 122.463 49.9972 121.548C48.5666 119.634 45.8557 119.243 43.9429 120.674L30.3442 130.869C28.4329 132.302 25.722 131.915 24.2888 130.003L8.71777 109.242C7.28445 107.331 7.67156 104.62 9.58279 103.187L23.1771 92.992C24.0952 92.3032 24.7024 91.2781 24.864 90.1417C25.2009 87.7768 23.5567 85.5866 21.1919 85.2498L4.36651 82.8449L4.36407 82.8446L4.36166 82.8444C1.99734 82.5048 0.355341 80.313 0.69436 77.9487L4.36651 52.2608L4.36678 52.2584L4.36706 52.256C4.7066 49.8917 6.89788 48.2497 9.26272 48.5887L26.0881 50.9935C27.8187 51.2444 29.5289 50.4215 30.4134 48.9131C31.332 47.4138 31.2287 45.5031 30.1538 44.112L19.9592 30.5176C19.2698 29.6012 18.9724 28.448 19.133 27.3126C19.1806 27.1526 19.2374 26.9952 19.3017 26.8412L28.5838 18.6361L41.5813 8.88258C43.4925 7.4493 46.2033 7.83641 47.6366 9.74764L57.8313 23.3463C58.5201 24.2644 59.5452 24.8715 60.6817 25.0332C63.0466 25.37 65.2368 23.7259 65.5736 21.361L67.9784 4.53568V4.53459C68.318 2.16975 70.5104 0.528302 72.8747 0.867836L98.5495 4.53568L98.552 4.53595L98.5544 4.53622C100.919 4.87575 102.561 7.06705 102.222 9.43189L99.8169 26.2572C99.6493 27.4051 99.9499 28.5724 100.651 29.4963C102.095 31.3995 104.808 31.7714 106.711 30.3273L120.306 20.1283C122.217 18.695 124.928 19.0821 126.361 20.9934L141.932 41.7547C143.365 43.666 142.978 46.3768 141.067 47.8101L127.468 58.0091C126.55 58.6979 125.943 59.723 125.782 60.8595C125.445 63.2244 127.089 65.4146 129.454 65.7514L146.279 68.1519L146.288 68.1606ZM132.435 91.526L121.097 89.9075C114.684 88.9916 108.743 93.4481 107.827 99.8603C107.387 102.94 108.189 106.068 110.056 108.556L116.925 117.717L104.414 127.1L97.5408 117.943C93.6546 112.761 86.3029 111.709 81.1206 115.596C78.6321 117.461 76.9866 120.24 76.5458 123.319L74.9623 134.673L59.4839 132.46L61.1025 121.122C62.0207 114.71 57.5666 108.767 51.1543 107.849C48.0729 107.408 44.9432 108.209 42.4532 110.077L33.2928 116.946L23.9095 104.436L33.066 97.5625C38.2488 93.6763 39.3 86.3248 35.4138 81.1426C33.5479 78.6541 30.7696 77.0087 27.6902 76.5679L16.3521 74.9493L18.565 59.4711L29.9031 61.0897C36.3155 62.008 42.2582 57.554 43.176 51.1417C43.6173 48.0604 42.8159 44.9308 40.948 42.4409L34.0552 33.2728L46.5662 23.8898L53.4395 33.05C57.3257 38.2327 64.6774 39.2839 69.8597 35.3977C72.3482 33.5318 73.9937 30.7536 74.4345 27.6743L76.0532 16.3364L91.5316 18.5453L89.913 29.8832C88.9972 36.2959 93.4532 42.2366 99.8661 43.1524C102.945 43.5922 106.074 42.7908 108.562 40.9239L117.723 34.0548L127.106 46.5655L117.946 53.4386C112.763 57.3248 111.712 64.6763 115.598 69.8585C117.464 72.3469 120.242 73.9924 123.321 74.4332L134.659 76.0518L132.435 91.526ZM74.4595 106.657C65.8858 106.697 57.3958 103.048 51.3889 96.0415C41.3443 84.3216 41.3443 66.8251 51.3889 55.1051C57.3958 48.0981 65.8859 44.4499 74.4596 44.4897C83.0337 44.4496 91.5243 48.0978 97.5314 55.1051C107.576 66.8251 107.576 84.3216 97.5312 96.0415C91.5241 103.049 83.0336 106.697 74.4595 106.657ZM74.4602 56.9236C84.507 56.9742 92.6377 65.3053 92.6377 75.5733C92.6377 85.8415 84.5066 94.173 74.4595 94.2231C64.4129 94.1721 56.2826 85.841 56.2826 75.5733C56.2826 65.3053 64.4133 56.9742 74.4602 56.9236Z" fill="#2F5373"/>
</svg>
