<svg width="150" height="150" viewBox="0 0 150 150" fill="none" xmlns="http://www.w3.org/2000/svg">
<path fill-rule="evenodd" clip-rule="evenodd" d="M145.639 67.3372H145.638L145.629 67.3286L128.804 64.928C126.439 64.5912 124.795 62.401 125.132 60.0361C125.293 58.8997 125.9 57.8746 126.818 57.1858L140.417 46.9868C142.328 45.5535 142.715 42.8426 141.282 40.9314L125.711 20.17C124.278 18.2588 121.567 17.8717 119.656 19.305L106.061 29.504C104.158 30.9481 101.445 30.5761 100.001 28.673C99.2999 27.749 98.9992 26.5817 99.1668 25.4339L101.572 8.60853C101.911 6.24368 100.269 4.05239 97.9044 3.71285L97.8995 3.71231L72.2246 0.0444722C69.8603 -0.295062 67.668 1.34638 67.3284 3.71123V3.71231L64.9236 20.5377C64.5868 22.9025 62.3965 24.5467 60.0317 24.2098C58.8952 24.0482 57.8701 23.441 57.1813 22.523L46.9866 8.92428C45.5533 7.01304 42.8425 6.62593 40.9312 8.05922L27.9338 17.8127L18.6517 26.0178C18.5874 26.1719 18.5306 26.3292 18.483 26.4893C18.3224 27.6246 18.6198 28.7779 19.3091 29.6943L29.5038 43.2886C30.5787 44.6798 30.6819 46.5905 29.7634 48.0897C28.8788 49.5981 27.1687 50.421 25.4381 50.1702L8.61271 47.7653C6.24787 47.4263 4.05657 49.0683 3.71703 51.4326L3.7165 51.4375L0.0443301 77.1253C-0.294664 79.4896 1.34732 81.6815 3.71163 82.021L3.7165 82.0216L20.5418 84.4264C22.9067 84.7632 24.5508 86.9535 24.214 89.3183C24.0523 90.4548 23.4452 91.4799 22.5271 92.1687L8.93278 102.363C7.02154 103.797 6.63444 106.508 8.06774 108.419L23.6387 129.18C25.072 131.091 27.7829 131.478 29.6942 130.045L43.2928 119.85C45.2057 118.42 47.9166 118.811 49.3471 120.724C50.0316 121.64 50.3263 122.789 50.1657 123.921L47.7652 140.746C47.4256 143.11 49.0671 145.303 51.4319 145.642H51.433L77.1252 149.314C77.3274 149.34 77.5312 149.353 77.7351 149.353C79.8885 149.356 81.7154 147.774 82.0214 145.642L84.422 128.817C84.7588 126.452 86.949 124.808 89.3138 125.145C90.4503 125.306 91.4754 125.913 92.1642 126.831L102.363 140.426C103.797 142.337 106.507 142.724 108.419 141.291L129.18 125.72C131.091 124.287 131.478 121.576 130.045 119.664L119.85 106.07C118.78 104.677 118.677 102.769 119.591 101.269C120.456 99.7406 122.182 98.9123 123.916 99.1929L140.741 101.593C143.106 101.933 145.298 100.291 145.638 97.9267V97.9256L149.306 72.2334C149.645 69.8686 148.004 67.6768 145.639 67.3372ZM137.212 75.1008L134.862 91.442L122.876 89.7309C116.096 88.7627 109.816 93.4739 108.848 100.253C108.383 103.508 109.23 106.815 111.204 109.446L118.466 119.129L105.239 129.049L97.9732 119.369C93.8648 113.89 86.0928 112.779 80.6142 116.887C77.9834 118.86 76.2438 121.797 75.7778 125.052L74.1038 137.054L57.8089 134.725L59.386 123.678C59.4535 123.206 59.494 122.737 59.5086 122.271C60.2089 115.67 55.5607 109.646 48.9346 108.698C45.6771 108.231 42.3684 109.079 39.736 111.053L30.0519 118.315L20.2018 105.182L29.2728 98.3734C29.908 97.897 30.4855 97.3722 31.0039 96.8079C35.4319 92.5275 36.0851 85.52 32.2942 80.4651C30.3216 77.8344 27.3844 76.0949 24.129 75.6289L12.1426 73.9178L14.4796 57.5721L25.8755 59.1989C26.0992 59.231 26.3224 59.2569 26.5449 59.2769C33.2946 60.2015 39.5336 55.5028 40.5002 48.7496C40.9667 45.4923 40.1194 42.1838 38.1448 39.5515L30.8579 29.8595L44.0842 19.9402L51.3504 29.6239C55.4589 35.1028 63.2309 36.2141 68.7095 32.1058C71.0696 30.3363 72.7124 27.7905 73.362 24.9351C73.5114 24.4039 73.6265 23.8606 73.7056 23.3083L75.325 11.9649L91.6205 14.2903L89.9093 26.2762C88.9411 33.0554 93.6519 39.3356 100.431 40.3037C103.248 40.706 106.103 40.1261 108.526 38.6843C109.165 38.3582 109.779 37.9759 110.361 37.5394L119.378 30.7781L129.229 43.9119L119.545 51.1778C114.065 55.2861 112.954 63.0577 117.063 68.5361C119.035 71.1668 121.972 72.9063 125.228 73.3723L125.561 73.4198C125.777 73.4624 125.995 73.4995 126.214 73.5308L137.212 75.1008Z" fill="#2F5373"/>
<path fill-rule="evenodd" clip-rule="evenodd" d="M74.6047 44.0003C66.0308 43.9604 57.5405 47.6086 51.5334 54.6158C41.4889 66.3358 41.4889 83.8323 51.5334 95.5521C57.5402 102.559 66.0301 106.207 74.6036 106.168C83.1778 106.208 91.6686 102.56 97.6757 95.5522C107.72 83.8323 107.72 66.3357 97.676 54.6158C91.6689 47.6086 83.1786 43.9604 74.6047 44.0003ZM74.605 56.4343C64.5579 56.4846 56.4271 64.8158 56.4271 75.0839C56.4271 85.3515 64.5568 93.6824 74.6031 93.7338C84.6507 93.6841 92.7822 85.3525 92.7822 75.0839C92.7822 64.816 84.6517 56.485 74.605 56.4343Z" fill="#2F5373"/>
<path fill-rule="evenodd" clip-rule="evenodd" d="M74.5001 53.0002C68.4768 52.972 62.5123 55.554 58.2923 60.5135C51.2359 68.8084 51.2359 81.1917 58.2923 89.4866C62.5121 94.4458 68.4763 97.0278 74.4993 96.9998C80.5228 97.0283 86.4876 94.4462 90.7077 89.4866C97.7641 81.1917 97.7641 68.8084 90.7078 60.5134C86.4878 55.554 80.5233 52.972 74.5001 53.0002ZM74.5003 61.8005C67.4421 61.8361 61.7302 67.7326 61.7302 75C61.7302 82.267 67.4414 88.1633 74.499 88.1996C81.5575 88.1645 87.27 82.2677 87.27 75C87.27 67.7328 81.5582 61.8364 74.5003 61.8005Z" fill="#F2F1EC"/>
</svg>
