<svg width="203" height="203" viewBox="0 0 203 203" fill="none" xmlns="http://www.w3.org/2000/svg">
<path fill-rule="evenodd" clip-rule="evenodd" d="M184.08 110.232L91.5039 202.808L84.9599 186.728L127.688 144L98.9999 115.312L80.5079 133.808L62.0159 152.304L50.7199 140.968L87.6879 104L58.9999 75.312L16.3119 118L0.295898 111.4L92.7759 18.912C104.968 6.72 121.184 0 138.432 0C174.032 0 203 28.968 203 64.568C203 81.816 196.28 98.032 184.08 110.232ZM138.432 16C165.208 16 187 37.792 187 64.568C187 77.536 181.952 89.736 172.776 98.912L163 108.688L94.3119 40L104.088 30.224C113.264 21.056 125.456 16 138.432 16ZM82.9999 51.312L70.3119 64L139 132.688L151.688 120L82.9999 51.312Z" fill="#2F5373"/>
</svg>
