<svg width="512" height="512" viewBox="0 0 512 512" fill="none" xmlns="http://www.w3.org/2000/svg">
<path d="M431.893 316.313C429.081 309.263 423.399 303.677 416.292 300.981L415.933 300.845C402.658 295.811 388.013 301.643 381.863 314.41C378.401 321.598 374.536 328.524 370.3 335.172C345.496 309.05 323.584 282.114 305.102 254.993C302.737 251.525 298.009 250.628 294.54 252.992C291.071 255.357 290.175 260.085 292.539 263.554C312.02 292.143 335.189 320.501 361.453 347.927C353.272 358.788 344.014 368.758 333.785 377.705C295.57 363.921 261.145 340.291 231.405 307.415C228.589 304.302 223.782 304.06 220.668 306.877C217.554 309.694 217.313 314.5 220.13 317.614C249.318 349.881 282.863 373.746 319.999 388.71C313.519 393.431 306.729 397.789 299.641 401.744C287.267 408.653 282.33 423.624 288.151 436.561L288.317 436.93C291.431 443.851 297.351 449.185 304.557 451.567C307.329 452.483 310.208 452.936 313.08 452.936C317.692 452.936 322.284 451.768 326.38 449.481C372.142 423.914 408.361 385.442 431.124 338.223C434.432 331.365 434.712 323.38 431.893 316.313ZM417.43 331.62C396.032 376.008 361.984 412.174 318.967 436.207C315.988 437.872 312.565 438.199 309.331 437.13C306.113 436.067 303.574 433.779 302.177 430.674L302.022 430.329C299.459 424.633 301.623 418.05 307.055 415.017C345.732 393.423 376.336 360.916 395.561 321.007C397.583 316.81 401.88 314.293 406.351 314.293C407.753 314.293 409.172 314.54 410.543 315.06L410.91 315.2C414.077 316.401 416.514 318.797 417.77 321.945C419.033 325.111 418.912 328.547 417.43 331.62Z" fill="#2F5373"/>
<path d="M156.717 183.117C150.213 166.96 144.202 149.834 138.852 132.216C137.632 128.199 133.387 125.93 129.369 127.151C125.352 128.371 123.085 132.617 124.304 136.634C129.783 154.676 135.944 172.225 142.613 188.794C143.806 191.759 146.656 193.559 149.667 193.559C150.612 193.559 151.573 193.382 152.503 193.008C156.398 191.44 158.285 187.012 156.717 183.117Z" fill="#2F5373"/>
<path d="M246.076 134.843C238.735 109.776 237.94 94.918 237.933 94.786C237.778 91.318 235.292 88.395 231.893 87.686C159.983 72.67 112.363 4.00996 111.893 3.32296C109.95 0.471961 106.333 -0.714038 103.076 0.434962C99.8216 1.58496 97.7516 4.78296 98.0326 8.22296C98.1806 10.021 101.82 52.929 117.007 110.822C118.073 114.882 122.224 117.311 126.289 116.246C130.349 115.181 132.778 111.025 131.713 106.964C123.901 77.188 119.189 51.155 116.472 33.121C136.746 55.545 174.013 89.214 223.296 101.321C224.146 108.31 226.271 121.31 231.486 139.116C232.457 142.431 235.49 144.583 238.778 144.583C239.485 144.583 240.205 144.484 240.918 144.275C244.946 143.096 247.256 138.872 246.076 134.843Z" fill="#2F5373"/>
<path d="M494.39 439.069L493.238 437.983C486.556 431.692 476.666 430.909 469.164 435.427L421.071 389.892C418.023 387.004 413.212 387.137 410.324 390.186C407.437 393.235 407.569 398.045 410.618 400.933L458.19 445.974L435.594 469.976L388.053 424.964C385.004 422.076 380.194 422.209 377.306 425.258C374.419 428.307 374.551 433.117 377.6 436.005L425.717 481.562C421.637 489.329 423.009 499.174 429.701 505.475L430.852 506.558C434.716 510.196 439.655 511.999 444.584 511.999C449.919 511.999 455.245 509.887 459.182 505.705L495.245 467.399C498.914 463.501 500.846 458.408 500.685 453.057C500.523 447.707 498.287 442.738 494.39 439.069ZM484.173 456.975L448.111 495.282C446.282 497.225 443.213 497.316 441.27 495.488L440.119 494.405C438.176 492.576 438.084 489.507 439.912 487.565L441.432 485.949C441.433 485.948 441.433 485.948 441.434 485.947L474.453 450.874C474.456 450.871 474.458 450.868 474.461 450.865L475.974 449.257C476.925 448.247 478.211 447.738 479.499 447.738C480.689 447.738 481.881 448.173 482.813 449.051L483.965 450.137C484.906 451.023 485.445 452.222 485.484 453.513C485.526 454.804 485.059 456.035 484.173 456.975Z" fill="#2F5373"/>
<path d="M338.508 154.082C336.068 151.944 332.542 151.592 329.726 153.2L278.671 182.383C275.026 184.466 273.76 189.11 275.843 192.755C277.926 196.4 282.57 197.666 286.215 195.583L318.137 177.338L314.881 185.322C307.418 203.624 293.859 219.107 276.702 228.92L168.141 291.011C123.874 316.329 101.656 329.037 89.2556 366.089C84.3596 380.718 87.9776 397.126 99.7186 413.538C110.938 429.221 109.514 450.675 96.3316 464.549C85.7676 475.67 69.5347 479.734 54.9757 474.903C40.7018 470.168 30.1638 457.569 28.1278 442.807C26.7319 432.688 26.2359 422.49 26.6538 412.497C26.8288 408.303 23.5709 404.759 19.3769 404.584C15.1829 404.41 11.6389 407.667 11.4639 411.861C11.0079 422.757 11.5469 433.868 13.0669 444.884C15.8889 465.34 30.4598 482.786 50.1888 489.332C55.8157 491.199 61.6227 492.105 67.3897 492.104C82.2466 492.103 96.8346 486.092 107.354 475.019C125.548 455.869 127.537 426.292 112.084 404.691C103.172 392.231 100.342 380.866 103.673 370.912C109.778 352.67 118.378 341.535 132.934 330.583C138.688 337.79 146.544 342.981 155.613 345.45C159.443 346.493 163.332 347.009 167.197 347.009C174.73 347.009 182.17 345.048 188.885 341.206C202.345 333.509 210.8 319.094 210.951 303.588C211.069 291.471 217.687 280.219 228.223 274.227L240.348 267.331L240.302 267.251L284.249 242.116C304.34 230.625 320.218 212.493 328.958 191.062L340.536 162.672C341.762 159.669 340.947 156.219 338.508 154.082ZM195.749 303.441C195.652 313.57 190.129 322.984 181.338 328.011C174.702 331.807 166.984 332.791 159.607 330.782C154.067 329.273 149.217 326.211 145.537 321.968C149.563 319.421 153.939 316.787 158.701 313.997L166.184 323.282C167.686 325.146 169.887 326.114 172.108 326.114C173.782 326.114 175.468 325.564 176.873 324.43C180.142 321.795 180.657 317.01 178.022 313.741L172.025 306.299C173.227 305.611 174.444 304.914 175.688 304.203L197.28 291.854C196.327 295.607 195.787 299.488 195.749 303.441Z" fill="#2F5373"/>
<path d="M88.354 272.771C85.405 269.782 80.592 269.75 77.604 272.699C53.783 296.203 23.429 335.25 14.095 387.799C13.361 391.931 16.116 395.878 20.25 396.612C20.7 396.692 21.147 396.731 21.588 396.731C25.203 396.731 28.409 394.141 29.063 390.457C37.698 341.847 66.032 305.474 88.282 283.521C91.271 280.572 91.303 275.759 88.354 272.771Z" fill="#2F5373"/>
<path d="M417.993 143.664L383.407 83.1656C382.405 81.4126 380.746 80.1296 378.797 79.6006C376.849 79.0726 374.77 79.3416 373.019 80.3476L341.825 98.2826L338.463 92.3716C336.388 88.7216 331.747 87.4456 328.097 89.5216C324.447 91.5976 323.171 96.2376 325.247 99.8876L328.644 105.862L314.77 113.839L229.769 162.521C226.126 164.608 224.864 169.252 226.95 172.896C229.036 176.539 233.681 177.8 237.325 175.715L373.989 97.3276L387.097 120.257L350.161 141.668C346.529 143.773 345.291 148.425 347.396 152.057C348.806 154.49 351.357 155.848 353.98 155.848C355.273 155.848 356.586 155.517 357.785 154.821L394.642 133.456L401.031 144.632L344.054 177.452C340.416 179.548 339.166 184.195 341.262 187.834C342.669 190.277 345.226 191.643 347.856 191.643C349.143 191.643 350.448 191.316 351.644 190.627L415.187 154.024C418.817 151.933 420.071 147.3 417.993 143.664Z" fill="#2F5373"/>
<path d="M269.45 196.433C267.365 192.788 262.719 191.523 259.077 193.608L145.18 258.75C138.693 262.46 130.99 263.005 124.046 260.247C120.204 258.721 116.116 257.805 111.989 257.533C111.512 255.545 111.538 253.458 112.09 251.431C112.952 248.269 114.988 245.631 117.825 243.996C117.838 243.988 117.851 243.979 117.864 243.971L175.06 211.258C180.432 216.572 187.684 219.466 195.086 219.466C199.863 219.466 204.702 218.261 209.137 215.725C222.729 207.951 227.462 190.568 219.688 176.977C211.914 163.385 194.531 158.651 180.94 166.426C169.634 172.893 164.465 186.007 167.518 198.059L111.663 230.005L73.9227 234.355C69.7517 234.835 66.7607 238.607 67.2417 242.778C67.6917 246.652 70.9777 249.508 74.7867 249.508C75.0777 249.508 75.3717 249.492 75.6667 249.457L97.5717 246.932C97.5217 247.101 97.4677 247.266 97.4207 247.437C95.6267 254.025 96.3147 260.895 99.3457 266.952C100.212 270.534 103.588 273.047 107.367 272.732C111.107 272.418 114.935 272.987 118.432 274.377C123.18 276.262 128.143 277.197 133.087 277.197C139.88 277.197 146.635 275.432 152.727 271.948L266.624 206.806C270.27 204.722 271.534 200.077 269.45 196.433ZM182.312 187.609C183.238 184.208 185.433 181.372 188.492 179.623C190.514 178.467 192.753 177.877 195.021 177.877C196.184 177.877 197.355 178.032 198.508 178.346C201.909 179.272 204.744 181.467 206.494 184.526C210.105 190.841 207.906 198.917 201.591 202.529C198.532 204.278 194.975 204.733 191.575 203.806C188.174 202.88 185.338 200.685 183.589 197.626C181.84 194.567 181.386 191.008 182.312 187.609Z" fill="#2F5373"/>
<path d="M89.4908 422.833C86.0308 416.748 80.4068 412.375 73.6568 410.519C66.9078 408.661 59.8378 409.547 53.7528 413.006C47.6688 416.467 43.2948 422.091 41.4388 428.841C39.5828 435.591 40.4668 442.66 43.9278 448.744C47.3878 454.829 53.0118 459.203 59.7618 461.058C62.0718 461.693 64.4178 462.008 66.7508 462.008C71.2338 462.008 75.6628 460.846 79.6668 458.57C85.7508 455.109 90.1248 449.486 91.9808 442.736C93.8368 435.986 92.9528 428.918 89.4908 422.833ZM77.3188 438.706C76.5398 441.54 74.7028 443.902 72.1478 445.355C69.5928 446.808 66.6238 447.179 63.7908 446.4C60.9568 445.621 58.5958 443.785 57.1428 441.229C55.6898 438.674 55.3188 435.706 56.0978 432.872C56.8768 430.038 58.7138 427.676 61.2678 426.223C62.9478 425.267 64.8078 424.78 66.6908 424.78C67.6698 424.78 68.6548 424.912 69.6258 425.179C72.4598 425.957 74.8218 427.794 76.2738 430.349C77.7278 432.904 78.0988 435.872 77.3188 438.706Z" fill="#2F5373"/>
</svg>
