<?xml version="1.0" encoding="utf-8"?>
<!-- Generator: Adobe Illustrator 24.0.2, SVG Export Plug-In . SVG Version: 6.00 Build 0)  -->
<svg version="1.1" id="Layer_1" xmlns="http://www.w3.org/2000/svg" xmlns:xlink="http://www.w3.org/1999/xlink" x="0px" y="0px"
	 viewBox="0 0 397 388.54" style="enable-background:new 0 0 397 388.54;" xml:space="preserve">
<style type="text/css">
	.st0{fill:#FFFFFF;}
</style>
<g>
	<g>
		<path d="M391.65,60.04c-1.74,3.07-4.38,3.91-7.84,3.87c-13.23-0.15-26.45-0.06-39.95-0.06c0,6.43,0,12.6,0,18.79
			c7.45-1.64,14.86-3.28,22.27-4.88c2.19-0.47,4.4-0.91,6.61-1.24c4.77-0.71,8.1,2.89,6.9,7.55c-6.67,25.8-17.81,49.46-33.73,70.88
			c-1.35,1.82-2.2,4.47-2.22,6.74c-0.17,19.49-0.03,38.99-0.12,58.49c-0.12,26.55-18.23,48.33-44.32,53.26
			c-3.66,0.69-7.45,0.89-11.19,0.93c-12.62,0.11-25.25,0.06-37.87,0.02c-1.48,0-3.04-0.09-4.42-0.56c-2.72-0.93-3.83-3.08-3.49-5.9
			c0.32-2.68,1.93-4.32,4.59-4.67c1.72-0.23,3.49-0.12,5.24-0.14c14.24-0.15,28.55,0.52,42.7-0.64
			c20.6-1.68,36.65-19.06,37.34-39.84c0.56-16.85,0.11-33.73,0.11-50.72c-0.44,0.05-0.91-0.04-1.09,0.14
			c-11.84,12.73-26.35,22.17-39.99,32.69c-18.64,14.38-36.39,29.74-51.34,48.06c-8.14,9.98-14.32,20.95-16.66,34.35
			c3.58,0,7.01-0.01,10.45,0c6.07,0.03,7.71,1.68,7.74,7.86c0.03,5.12,0.01,10.24,0.01,15.57c0.68,0.29,1.52,0.38,1.91,0.86
			c1.42,1.7,3.62,3.47,3.74,5.34c0.11,1.65-2.08,3.5-3.38,5.17c-0.6,0.78-2.23,1.57-2.11,1.94c0.36,1.14,1.14,2.42,2.13,3.04
			c7.54,4.66,15.1,9.29,22.8,13.68c3.56,2.03,5.11,4.64,5.03,8.77c-0.19,10.37-0.15,20.75-0.01,31.12c0.05,3.39-0.88,6.06-3.63,8.05
			c-37.5,0-75,0-112.5,0c-2.75-2.01-3.62-4.71-3.57-8.08c0.14-10.37,0.17-20.75-0.01-31.12c-0.07-4.12,1.47-6.73,5.05-8.75
			c7.6-4.3,15.05-8.89,22.49-13.46c1.05-0.64,2.24-1.81,2.39-2.87c0.1-0.68-1.74-1.51-2.45-2.46c-1.2-1.61-3.12-3.43-3.01-5.04
			c0.12-1.82,1.8-4.23,3.46-5.05c1.89-0.93,2.25-1.85,2.23-3.6c-0.05-4.5-0.05-9-0.01-13.5c0.05-5.68,1.78-7.42,7.37-7.45
			c6.12-0.03,12.25-0.1,18.37,0.04c2.18,0.05,2.91-0.78,3.57-2.77c2.09-6.26,2.28-12.25,0.92-18.92
			c-4.9-23.99-0.66-47.17,8.13-69.68c5.29-13.55,12.3-26.19,20.52-38.17c0.56-0.82,1.12-1.65,1.64-2.5c0.1-0.17-0.01-0.46-0.05-1.11
			c-6.93,0-13.88,0.01-20.83,0c-1.5,0-3.01,0.04-4.49-0.12c-3.05-0.33-4.75-2.15-4.92-5.17c-0.17-3.03,1.37-5.02,4.32-5.71
			c1.32-0.31,2.73-0.3,4.09-0.3c9.5-0.02,19,0.1,28.49-0.11c1.72-0.04,3.92-0.93,5.04-2.19c20.62-23.22,45.38-40.49,74.26-51.81
			c3.03-1.19,4.21-2.57,4.02-5.9c-0.33-5.85-0.12-11.74-0.15-17.61c0-0.23-0.13-0.47-0.37-1.26c-1.27,0-2.72,0-4.16,0
			c-39.74,0-79.48,0-119.22,0c-6.97,0-8.12-1.09-8.65-8.18c-1.6-21.53-18.23-38.34-39.33-39.76c-21.09-1.42-40.04,12.51-44.28,33.52
			c-1.51,7.49-0.89,15.41-1.21,23.13c-0.07,1.62,0.04,3.25-0.06,4.87c-0.2,3.22-1.98,5.06-5.17,5.35c-3.03,0.28-5.88-1.8-5.89-5.01
			c-0.04-11.21-1.45-22.56,1.85-33.54c6.49-21.6,20.99-34.53,43.08-38.99c0.7-0.14,1.36-0.47,2.04-0.71c64.5,0,129,0,193.5,0
			c0.68,0.24,1.35,0.56,2.05,0.7c22.41,4.39,36.79,17.64,43.43,39.39c0.72,2.35,1.18,4.77,1.77,7.16
			C391.65,54.54,391.65,57.29,391.65,60.04z M379.91,52.43c-0.32-1.7-0.49-2.93-0.79-4.13c-4.81-19.33-21.27-32.42-41.53-32.47
			c-47.97-0.13-95.95-0.05-143.92-0.03c-0.75,0-1.49,0.21-2.66,0.38c11.62,9.71,18.11,21.72,20.06,36.25
			C267.35,52.43,323.4,52.43,379.91,52.43z M260.02,352.51c-1.76,0-3.13,0-4.5,0c-12.87,0-25.74,0.03-38.62-0.02
			c-4.24-0.02-6.85-2.4-6.71-5.87c0.13-3.31,2.63-5.36,6.78-5.37c8.12-0.04,16.25,0,24.37-0.02c0.89,0,1.79-0.17,3.47-0.34
			c-1.97-1.22-3.17-2.12-4.5-2.75c-6.36-3.04-11.73-6.73-10.47-15.05c0.01-0.09-0.13-0.2-0.22-0.33c-12.02,0-24.05,0-36.21,0
			c-0.06,1.02-0.24,1.78-0.14,2.49c0.7,5.05-1.5,8.27-6,10.43c-2.82,1.35-5.38,3.23-8.06,4.87c3.14,0.73,6,0.58,8.83,0.77
			c3.01,0.21,4.81,2.03,5.06,5.05c0.26,3.22-1.47,5.23-4.51,5.95c-1.31,0.31-2.73,0.18-4.11,0.18c-6.97,0.01-13.93,0.01-21.08,0.01
			c0,8.42,0,16.47,0,24.55c32.31,0,64.37,0,96.61,0C260.02,368.89,260.02,360.95,260.02,352.51z M349.77,93.77
			c-0.18-0.34-0.36-0.68-0.54-1.02c-8.56,3.36-17.27,6.38-25.65,10.14c-24.28,10.91-45.11,26.53-62.38,46.81
			c-0.84,0.99-1.89,2.84-1.51,3.68c3.09,6.72,6.51,13.3,10.04,20.34C293.66,143.77,320.65,117.7,349.77,93.77z M297.61,159.68
			c10.52-0.81,19.97-1.45,29.4-2.37c1.51-0.15,3.28-1.2,4.28-2.38c13.29-15.78,23.45-33.42,30.83-52.68c0.38-0.98,0.6-2.02,1.14-3.9
			C339.6,117.36,317.96,137.16,297.61,159.68z M250.99,161.91c-4.93,8.54-9.58,16.21-13.77,24.11c-1.18,2.23-1.56,5.23-1.33,7.79
			c0.58,6.57,1.71,13.09,2.62,19.63c0.17,1.22,0.33,2.44,0.53,3.93c7.65-11.23,14.95-21.91,22.19-32.63
			c0.41-0.61,0.74-1.72,0.46-2.27C258.39,175.95,254.96,169.48,250.99,161.91z M229.82,311.09c0-4.17,0-8.21,0-12.44
			c-12.15,0-24.18,0-36.22,0c0,4.29,0,8.32,0,12.44C205.69,311.09,217.42,311.09,229.82,311.09z M317.08,170.48
			c-0.14-0.32-0.28-0.64-0.42-0.97c-9.56,0.77-19.13,1.52-28.69,2.33c-0.56,0.05-1.25,0.35-1.6,0.77c-4.07,4.98-8.09,10-12.67,15.69
			c6.73-1.17,12.49-2.12,18.23-3.2c3.29-0.62,7.06-0.65,9.69-2.37C307.1,179.14,311.97,174.61,317.08,170.48z M222.28,251.71
			c1.47-3.21,2.95-6.42,4.4-9.64c1.07-2.37,3.07-4.82,2.94-7.15c-0.38-7.11-1.59-14.17-2.48-21.26
			C222.64,226.03,220.9,238.6,222.28,251.71z M249.19,224.74c0.19,0.11,0.37,0.22,0.56,0.33c9.91-8.64,19.81-17.28,30.19-26.32
			c-5.26,0.9-9.98,1.67-14.68,2.55c-0.64,0.12-1.34,0.72-1.72,1.29C258.73,209.96,253.97,217.35,249.19,224.74z"/>
		<path d="M7.65,218.29c2.2-2.78,5.11-3.39,8.55-3.38c27.62,0.1,55.23,0.05,82.85,0.05c1.47,0,2.93,0,4.73,0c0-1.95,0-3.43,0-4.91
			c0-34.37,0-68.73,0-103.1c0-1-0.02-2,0-3c0.1-4.34,2.23-6.99,5.63-7.02c3.42-0.04,5.61,2.58,5.62,6.93
			c0.02,24.37,0.01,48.74,0.01,73.1c0,13.75-0.16,27.49,0.04,41.24c0.25,17.28-5.82,31.68-18.79,43.15
			c-0.36,0.32-0.65,0.71-1.6,1.75c1.99,0,3.27,0,4.55,0c30.24,0,60.48,0,90.72,0c1.25,0,2.5-0.03,3.75,0.05
			c3.21,0.19,5.09,1.91,5.41,5.11c0.31,3.05-1.69,5.47-4.94,5.99c-1.34,0.22-2.74,0.15-4.11,0.15c-41.74,0.01-83.48,0.01-125.21,0
			c-30.21-0.01-50.46-16.52-56.63-46.14c-0.12-0.59-0.39-1.15-0.59-1.72C7.65,223.79,7.65,221.04,7.65,218.29z M19.7,226.49
			c0.9,19.59,21.59,37.23,42.4,36.57c21.08-0.66,40.96-18.4,40.79-36.57C75.24,226.49,47.6,226.49,19.7,226.49z"/>
		<path d="M202.77,123.97c-16.12,0-32.24,0-48.35,0c-1.25,0-2.51,0.04-3.74-0.14c-2.88-0.42-4.85-2.39-4.53-5.03
			c0.24-1.98,1.95-4.04,3.53-5.48c0.89-0.81,2.85-0.61,4.32-0.62c32.49-0.03,64.97-0.02,97.46-0.02c0.37,0,0.75-0.01,1.12,0
			c4.25,0.15,6.9,2.44,6.79,5.86c-0.11,3.34-2.55,5.4-6.74,5.41C236.01,123.99,219.39,123.97,202.77,123.97z"/>
		<path d="M265.75,93.92c-9.48,0-18.97,0.02-28.45-0.01c-4.71-0.02-7.18-2.05-7.11-5.73c0.07-3.5,2.55-5.54,7-5.54
			c19.09-0.03,38.18-0.03,57.27,0c4.33,0.01,6.98,2.21,7.02,5.62c0.04,3.43-2.55,5.62-6.91,5.64
			C284.97,93.95,275.36,93.92,265.75,93.92z"/>
		<path d="M181.41,93.92c-9.36,0-18.72,0.02-28.08-0.01c-4.76-0.01-7.34-1.97-7.39-5.51c-0.05-3.54,2.65-5.75,7.23-5.76
			c18.97-0.02,37.93-0.02,56.9,0c4.6,0.01,7.23,2.19,7.16,5.78c-0.07,3.5-2.5,5.47-7,5.48C200.63,93.95,191.02,93.92,181.41,93.92z"
			/>
		<path d="M172.52,154.03c-6.5,0-13,0.04-19.5-0.01c-4.48-0.03-7-2.03-7.08-5.47c-0.08-3.42,2.54-5.78,6.83-5.8
			c13.25-0.06,26.5-0.07,39.74,0c4.18,0.02,6.58,2.18,6.65,5.55c0.07,3.57-2.33,5.67-6.78,5.71
			C185.77,154.08,179.15,154.03,172.52,154.03z"/>
		<path d="M169.65,172.87c5.5,0,10.99-0.04,16.49,0.01c4.52,0.04,6.95,2,7.01,5.5c0.07,3.58-2.31,5.69-6.78,5.71
			c-11.24,0.06-22.49,0.06-33.73,0c-4.15-0.02-6.63-2.16-6.7-5.47c-0.08-3.45,2.51-5.68,6.84-5.73
			C158.41,172.82,164.03,172.87,169.65,172.87z"/>
		<path class="st0" d="M229.82,298.66c0,4.22,0,8.27,0,12.44"/>
		<path class="st0" d="M193.6,311.09c0-4.12,0-8.14,0-12.44"/>
	</g>
</g>
</svg>
