<svg id="ej3MYhaE5S21" xmlns="http://www.w3.org/2000/svg" xmlns:xlink="http://www.w3.org/1999/xlink" viewBox="0 0 511 511" shape-rendering="geometricPrecision" text-rendering="geometricPrecision"><circle id="ej3MYhaE5S22" r="188.488" transform="matrix(0.999635 -0.027012 0.027012 0.999635 255.468052 255.57595)" fill="rgb(242,241,236)" stroke="none" stroke-width="1"/><path id="ej3MYhaE5S23" d="M260.64,0.269989C271.36,4.33999,277.89,13.45,285.61,21.1C289.02,24.48,292.14,28.19,295.12,31.96C297.07,34.42,298.77,34.36,301.46,33.08C311.49,28.31,321.55,23.57,331.79,19.3C345.59,13.55,358.41,18.71,364.21,32.36C368.55,42.57,372.63,52.92,376.23,63.42C377.69,67.67,379.53,69.04,383.97,68.78C395.05,68.14,406.17,67.83,417.27,67.78C432.24,67.71,442.25,77.77,442.17,92.8C442.11,103.57,441.7,114.35,441.18,125.11C441.01,128.71,442.22,130.34,445.66,131.53C455.83,135.06,465.95,138.79,475.92,142.87C489.91,148.6,495.32,161.4,489.61,175.41C485.23,186.15,480.44,196.73,475.5,207.22C474.06,210.27,474.69,211.81,477,213.91C485.35,221.48,493.69,229.1,501.67,237.06C513.14,248.53,513.14,261.97,501.7,273.48C494.33,280.88,486.65,287.99,478.85,294.93C476.03,297.44,475.43,299.26,477.2,302.83C482.05,312.63,486.61,322.59,490.78,332.7C496.36,346.21,491.15,359.04,477.76,364.75C467.4,369.17,456.88,373.27,446.23,376.93C442.08,378.35,440.97,380.27,441.19,384.41C441.77,395.66,442.14,406.94,442.18,418.21C442.23,432.64,432.2,442.79,417.84,442.78C406.9,442.78,395.96,442.33,385.03,441.85C381.57,441.7,379.71,442.5,378.48,446.1C375,456.29,371.22,466.39,367.17,476.37C361.52,490.27,348.47,495.89,334.68,490.27C323.94,485.89,313.36,481.1,302.86,476.18C299.91,474.8,298.3,475.1,296.14,477.5C288.71,485.76,281.19,493.96,273.36,501.83C261.3,513.96,248.04,513.91,235.88,501.7C228.51,494.3,221.45,486.58,214.46,478.81C212.3,476.41,210.66,476.12,207.72,477.54C197.72,482.36,187.64,487.06,177.39,491.32C163.85,496.95,150.7,491.52,145.03,477.98C140.62,467.44,136.61,456.72,132.71,445.97C131.56,442.8,130.09,441.58,126.63,441.74C115.04,442.28,103.44,442.74,91.84,442.77C77.14,442.81,67.11,432.72,67.17,418.02C67.21,407.25,67.62,396.47,68.16,385.71C68.35,381.91,67.09,380.22,63.46,378.96C53.13,375.38,42.87,371.56,32.78,367.35C19.54,361.82,14.17,349.16,19.48,335.86C23.78,325.09,28.51,314.48,33.52,304.02C35.25,300.41,34.61,298.66,31.81,296.15C23.4,288.64,15.22,280.86,7.19,272.95C4.63,270.43,2.81997,267.16,0.659973,264.24C0.659973,258.26,0.659973,252.29,0.659973,246.31C3.97997,242.2,6.98999,237.79,10.68,234.06C16.86,227.82,23.29,221.8,29.97,216.11C33.32,213.26,33.91,211.17,31.81,207.03C26.88,197.29,22.42,187.27,18.34,177.13C13.17,164.29,18.25,151.69,30.91,146.14C41.37,141.56,52.05,137.42,62.84,133.68C67.1,132.21,68.42,130.34,68.17,125.93C67.54,114.69,67.2,103.41,67.18,92.15C67.14,77.8,77.28,67.71,91.68,67.76C102.61,67.79,113.55,68.23,124.47,68.74C128.03,68.9,129.72,67.78,130.91,64.31C134.42,54.14,138.16,44.03,142.24,34.07C147.97,20.06,160.75,14.61,174.73,20.3C185.47,24.67,196.04,29.46,206.53,34.38C209.5,35.77,211.22,35.54,213.23,33.01C216.42,28.99,219.7,24.98,223.38,21.41C231.28,13.74,237.8,4.35001,248.71,0.26001C252.67,0.27001,256.66,0.269989,260.64,0.269989ZM441.67,255.1C441.07,151.52,357.92,68.35,254.6,68.38C151.27,68.42,67.8,151.66,67.76,255.23C67.72,358.91,151.35,442.37,254.98,442.2C358.38,442.02,441.29,358.61,441.67,255.1ZM139.79,87.24C123.29,84.06,106.88,82.42,90.31,83.93C84.91,84.42,82.91,86.98,82.93,93.84C82.96,104.77,83.52,115.7,84.14,126.61C84.41,131.25,85.4,135.84,86.27,141.97C101.73,119.97,119.38,102.44,139.79,87.24ZM422.71,140.42C425.94,124.05,427.4,107.78,426.11,91.38C425.65,85.6,423.11,83.53,416.07,83.56C404.98,83.6,393.88,84.22,382.8,84.86C378.34,85.12,373.92,86.06,367.99,86.9C390.01,102.38,407.54,120.04,422.71,140.42ZM86.9,369.53C86.26,370.66,85.84,371.07,85.81,371.5C84.77,386.19,83.41,400.87,82.9,415.59C82.59,424.59,85.42,427.1,94.59,427.11C104.53,427.12,114.48,426.69,124.4,426.07C129.57,425.75,134.68,424.63,141.24,423.66C119.46,408.23,101.83,390.68,86.9,369.53ZM369.07,422.97C369.94,423.58,370.32,424.06,370.72,424.09C385.91,425.13,401.08,426.48,416.29,426.96C423.87,427.2,426.37,424.33,426.42,416.52C426.48,406.09,426,395.64,425.4,385.22C425.11,380.18,424.01,375.18,423.06,368.74C407.58,390.5,389.95,408.23,369.07,422.97ZM293.25,56.15C291.65,53.67,290.93,52.18,289.88,50.99C280.68,40.58,271.59,30.06,262.09,19.92C256.68,14.14,252.77,14.2,247.29,19.83C239.21,28.13,231.39,36.69,223.65,45.31C221.01,48.26,218.94,51.72,216.61,54.95C242.31,51.09,267.24,51.19,293.25,56.15ZM453.8,293.81C456.16,292.31,457.64,291.63,458.81,290.59C469.34,281.28,479.98,272.08,490.25,262.48C495.74,257.35,495.64,253.29,490.23,248.03C481.8,239.84,473.12,231.91,464.38,224.06C461.51,221.49,458.12,219.5,453.72,216.35C458.82,242.83,458.8,267.78,453.8,293.81ZM216.14,454.43C217.64,456.79,218.32,458.27,219.36,459.44C228.67,469.97,237.87,480.61,247.47,490.88C252.6,496.37,256.66,496.28,261.92,490.86C270.11,482.43,278.04,473.75,285.89,465.01C288.46,462.14,290.45,458.75,293.6,454.35C267.13,459.45,242.18,459.43,216.14,454.43ZM54.57,217.1C40.42,226.81,28.23,237.91,17.19,250.27C13.87,253.98,14.74,258.04,18.06,261.39C23.88,267.28,29.67,273.21,35.84,278.72C41.69,283.94,48.02,288.63,54.63,293.96C53.54,280.29,51.76,267.81,51.76,255.34C51.75,242.85,53.52,230.37,54.57,217.1ZM70.74,147.16C58.83,152.01,47.41,156.37,36.27,161.35C31.65,163.42,31.81,168.01,33.4,172.2C35.34,177.31,37.45,182.37,39.73,187.33C42.05,192.38,44.67,197.28,47.31,202.55C49.95,201.03,51.82,199.49,53.96,198.81C59.71,196.99,61.92,192.64,63.74,187.37C66.11,180.5,68.53,173.46,72.22,167.27C76.52,160.06,72.75,154.47,70.74,147.16ZM362.6,71.01C358,59.61,353.67,48.36,348.89,37.31C347.04,33.04,342.94,32.07,337.75,34.03C332.79,35.9,327.89,37.94,323.07,40.16C317.87,42.55,312.81,45.22,307.39,47.92C308.93,50.59,310.41,52.47,311.16,54.6C313.05,59.96,316.88,62.49,322.15,64.18C328.6,66.23,335.19,68.5,340.9,72.01C348.22,76.5,354.6,74.72,362.6,71.01ZM462.5,307.76C459.31,309.59,457.3,311.18,455.02,311.97C449.76,313.79,447.48,317.63,445.83,322.68C443.73,329.11,441.41,335.65,438,341.44C434.3,347.73,434.76,353.44,437.19,359.73C438.14,362.19,439.2,362.76,441.61,361.81C451.62,357.85,461.73,354.14,471.68,350.03C476.42,348.07,478.21,344.26,476.27,339.42C472.07,329.01,467.33,318.8,462.5,307.76ZM47.85,309.23C43.17,320.78,38.26,332.41,33.8,344.22C32.58,347.45,34.39,350.69,37.59,352.03C48.36,356.52,59.26,360.69,70.48,365.14C71.55,361.41,72.02,358.6,73.15,356.08C75.09,351.79,74.49,348.08,72.4,343.93C69.28,337.75,66.1,331.41,64.39,324.76C62.23,316.33,56.86,312.12,47.85,309.23ZM202.21,463.14C200.37,459.94,198.88,458.06,198.13,455.92C196.24,450.54,192.36,448.06,187.1,446.39C180.81,444.38,174.5,442.02,168.78,438.78C162.58,435.27,156.89,435.09,150.51,437.73C147.88,438.82,147.14,439.78,148.19,442.42C152.1,452.27,155.74,462.23,159.77,472.03C161.78,476.93,165.39,478.86,170.21,476.95C180.8,472.76,191.14,467.96,202.21,463.14ZM308.54,461.99C319.93,466.72,331.21,471.73,342.78,475.91C344.9,476.68,349.83,474.87,350.71,472.97C355.74,462.14,359.95,450.92,364.57,439.48C360.81,438.39,358.13,437.99,355.79,436.87C351.14,434.65,347.13,435.58,342.71,437.8C336.52,440.91,330.16,444.03,323.51,445.74C315.18,447.9,311.55,453.59,308.54,461.99ZM200.67,48.61C189.44,43.87,178.44,39.02,167.26,34.63C163.59,33.19,159.62,34.27,157.96,38.2C153.42,48.95,149.28,59.87,144.82,71.12C148.52,72.18,151.32,72.67,153.84,73.79C158.12,75.68,161.83,75.19,165.99,73.07C172.16,69.93,178.5,66.74,185.15,65.03C193.56,62.84,197.85,57.54,200.67,48.61ZM461.44,201.38C466.14,189.89,471.05,178.38,475.5,166.69C476.8,163.26,474.99,159.86,471.57,158.44C460.9,154.01,450.09,149.89,438.89,145.48C437.93,148.75,437.55,151.24,436.5,153.4C434.03,158.52,434.92,163.01,437.49,167.92C440.55,173.77,443.51,179.89,445.1,186.25C447.2,194.63,452.8,198.43,461.44,201.38Z" fill="rgb(47,83,115)" stroke="none" stroke-width="1"/><g id="ej3MYhaE5S24" transform="matrix(1 0 0 1 0 0.000001)"><path id="ej3MYhaE5S25" d="M272.67,295.7C274.3,304.59,276.54,312.82,277.19,321.17C279.21,347.24,272.34,370.35,251.6,387.56C235.28,401.1,216.01,406.72,194.95,404.37C149.47,399.29,121.97,371.82,106.24,330.9C97.81,308.96,94.88,285.99,97.06,262.46C98.23,249.81,104.27,245.66,116.14,249.52C121.67,251.32,123.75,255.4,124.46,260.74C126.54,276.26,130.17,291.39,136.51,305.74C142.37,319,149.95,331.14,163.15,338.25C176.54,345.47,191.04,346.85,205.66,343.15C221.11,339.24,231.16,325.59,231.18,309.67C231.19,301.77,226.97,296.12,219.8,293.78C212.8,291.5,205.25,289.21,198.07,289.57C184.38,290.26,175.42,285.53,170.86,272.45C169.56,268.72,167.22,265.37,165.54,261.77C160.7,251.35,166.64,242.15,178.14,240.99C188.47,239.94,198.81,238.35,208.91,236.01C214.85,234.63,220.31,231.28,222.63,224.8C224.87,218.55,222.97,214.35,216.58,212.54C205.4,209.37,194.45,211.57,183.95,215.41C177.32,217.83,170.97,221.28,164.93,224.98C155.25,230.92,147.86,229.89,141.34,220.75C135.55,212.65,129.78,204.53,124.16,196.31C117.54,186.62,120.3,176.92,131.1,172.43C137.67,169.69,144.42,167.35,151.19,165.11C155.99,163.52,160.18,165.61,161.73,169.86C163.17,173.82,161.25,177.93,156.63,179.81C151.88,181.75,146.95,183.25,142.12,185.02C140.62,185.57,139.22,186.36,137.24,187.3C143.25,195.85,148.94,203.94,153.85,210.92C165.67,206.32,176.54,201.49,187.8,197.89C196.81,195.01,206.28,194.47,215.84,196.07C226.84,197.92,235.41,202.61,238.56,213.99C241.49,224.59,236.68,237.16,227.54,244.06C215.92,252.84,202.28,255.25,188.28,256.51C186.21,256.7,184.1,256.54,180.73,256.54C183.72,262.34,185.9,267.1,188.64,271.51C189.31,272.59,191.82,272.65,193.53,272.94C203.43,274.66,213.83,274.94,223.16,278.25C243.68,285.52,251.3,302.31,245.27,323.28C237.94,348.75,215.08,362.62,187.75,360.88C169.32,359.71,152.57,354.25,139.74,340.02C129.12,328.24,122.07,314.42,116.99,299.52C115.93,296.42,114.97,293.28,113.62,290.26C115.05,308.07,119.38,325.12,127.98,340.82C140.55,363.77,158.49,380.47,184.6,386.69C200.72,390.53,216.6,389.62,231.58,381.91C255.22,369.74,264.46,345.73,260.84,318.63C259.72,310.21,256.65,301.96,253.71,293.91C250.44,284.94,253.33,280.37,263.01,279.9C268.61,279.63,274.26,278.97,279.71,277.71C291.44,275,300.05,268.44,304.12,256.6C309.24,241.67,318.6,230.68,333.9,225.37C352.29,218.98,367.98,225.07,377.18,242.25C388.99,264.31,386.02,292.6,369.89,311.79C365.88,316.56,361.76,317.49,357.86,314.53C353.91,311.52,353.62,306.72,357.63,301.85C370.29,286.44,370.75,269.49,364,251.75C359.63,240.27,351.4,236.53,339.74,240.24C331.42,242.88,325.28,248.07,321.59,256.12C318.76,262.29,316.35,268.79,312.61,274.38C304.54,286.45,292,291.59,278.31,294.42C277.18,294.65,276.03,294.83,274.9,295.08C274.1,295.24,273.32,295.51,272.67,295.7Z" fill="rgb(47,83,115)" stroke="none" stroke-width="1"/><path id="ej3MYhaE5S26" d="M241.9,258.48C248.89,262.07,253.62,261.81,257.44,256.2C264.22,246.23,269.86,235.5,276.5,225.43C281.2,218.3,285.62,210.28,292.14,205.17C317.94,184.98,356.52,185.29,382.43,211.14C401.62,230.29,412.62,253.26,412.7,280.44C412.8,315.02,400.78,344.98,372.29,365.62C338.24,390.3,293.9,373.96,282.17,333.56C280.47,327.7,279.49,321.6,278.53,315.56C277.76,310.71,279.58,306.66,283.96,304.19C288.14,301.84,292.52,302.09,296.01,305.33C305.77,314.36,317.11,317.95,330.29,316.73C335.37,316.26,338.62,319.25,339.02,323.57C339.43,327.98,336.35,331.39,331.24,332.23C320.39,334.02,310.14,332.02,300.31,327.35C299.43,326.93,298.55,326.52,296.7,325.64C298.93,335.83,303.03,344.07,310.19,350.42C326.42,364.81,350.26,364.9,367.03,350.02C404.06,317.15,410.52,253.14,364.68,216.86C344.89,201.2,311.68,203.95,296.91,222.66C292.75,227.93,290.29,234.5,286.7,240.25C281.1,249.23,275.72,258.41,269.29,266.78C261.85,276.47,250.25,279.11,238.8,274.88C234.61,273.33,230.52,271.47,226.48,269.53C219.49,266.18,218.62,260.76,223.61,254.67C229.38,247.63,235.6,240.82,240.39,233.14C255.76,208.52,245.33,189.5,222.64,178.87C213.28,174.49,203.24,173.51,193,173.77C184.95,173.98,180.95,171.31,180.77,166.02C180.6,160.86,184.83,157.71,192.63,157.64C214.29,157.45,234,162.54,249.77,178.62C263.44,192.56,267.67,211.18,259.8,229C256.09,237.41,250.71,245.1,245.99,253.05C244.9,254.87,243.44,256.46,241.9,258.48Z" fill="rgb(47,83,115)" stroke="none" stroke-width="1"/><path id="ej3MYhaE5S27" d="M292.7,185.14C259.79,185.29,235.14,165.63,227.65,133.27C226,126.16,228.15,120.65,233.59,118C239.02,115.35,244.21,116.67,248.9,122.43C255.8,130.92,264.26,136.71,274.82,139.92C289.07,144.25,300.86,140.14,311.52,130.78C313.39,129.14,315.12,127.33,317.08,125.8C323.64,120.7,332.63,120.96,338.37,126.99C342.81,131.65,346.86,136.78,350.5,142.09C355.01,148.67,353.76,156.89,348.04,162.49C334.19,176.08,312.28,185.05,292.7,185.14ZM249.94,145.98C258.13,161.38,272.09,167.84,288.51,169.12C307.35,170.58,323.29,163.35,337.35,150.63C333.76,146.14,330.6,142.18,327.4,138.18C299.91,164.4,275.97,161.49,249.94,145.98Z" fill="rgb(47,83,115)" stroke="none" stroke-width="1"/><path id="ej3MYhaE5S28" d="M258.42,113.21C258.36,103.94,274.42,87.76,283.75,87.71C292.93,87.66,309.3,103.74,309.43,112.93C309.57,122.78,292.44,139.33,282.7,138.75C274.15,138.24,258.48,121.76,258.42,113.21ZM292.55,113.31C289.69,110.2,286.97,107.23,284.19,104.2C280.79,107.37,277.85,110.11,274.88,112.88C278.13,116.31,280.91,119.25,283.9,122.41C286.97,119.18,289.66,116.34,292.55,113.31Z" fill="rgb(47,83,115)" stroke="none" stroke-width="1"/></g><script><![CDATA[!function(t,n){"object"==typeof exports&&"undefined"!=typeof module?module.exports=n(require("vue")):"function"==typeof define&&define.amd?define(["vue"],n):((t="undefined"!=typeof globalThis?globalThis:t||self).__SVGATOR_PLAYER__=t.__SVGATOR_PLAYER__||{},t.__SVGATOR_PLAYER__["91c80d77"]=n())}(this,(function(){"use strict";function t(t,n){var e=Object.keys(t);if(Object.getOwnPropertySymbols){var r=Object.getOwnPropertySymbols(t);n&&(r=r.filter((function(n){return Object.getOwnPropertyDescriptor(t,n).enumerable}))),e.push.apply(e,r)}return e}function n(n){for(var e=1;e<arguments.length;e++){var r=null!=arguments[e]?arguments[e]:{};e%2?t(Object(r),!0).forEach((function(t){o(n,t,r[t])})):Object.getOwnPropertyDescriptors?Object.defineProperties(n,Object.getOwnPropertyDescriptors(r)):t(Object(r)).forEach((function(t){Object.defineProperty(n,t,Object.getOwnPropertyDescriptor(r,t))}))}return n}function e(t){return(e="function"==typeof Symbol&&"symbol"==typeof Symbol.iterator?function(t){return typeof t}:function(t){return t&&"function"==typeof Symbol&&t.constructor===Symbol&&t!==Symbol.prototype?"symbol":typeof t})(t)}function r(t,n){if(!(t instanceof n))throw new TypeError("Cannot call a class as a function")}function i(t,n){for(var e=0;e<n.length;e++){var r=n[e];r.enumerable=r.enumerable||!1,r.configurable=!0,"value"in r&&(r.writable=!0),Object.defineProperty(t,r.key,r)}}function u(t,n,e){return n&&i(t.prototype,n),e&&i(t,e),t}function o(t,n,e){return n in t?Object.defineProperty(t,n,{value:e,enumerable:!0,configurable:!0,writable:!0}):t[n]=e,t}function a(t){return(a=Object.setPrototypeOf?Object.getPrototypeOf:function(t){return t.__proto__||Object.getPrototypeOf(t)})(t)}function l(t,n){return(l=Object.setPrototypeOf||function(t,n){return t.__proto__=n,t})(t,n)}function s(t,n){if(n&&("object"==typeof n||"function"==typeof n))return n;if(void 0!==n)throw new TypeError("Derived constructors may only return object or undefined");return function(t){if(void 0===t)throw new ReferenceError("this hasn't been initialised - super() hasn't been called");return t}(t)}function f(t){var n=function(){if("undefined"==typeof Reflect||!Reflect.construct)return!1;if(Reflect.construct.sham)return!1;if("function"==typeof Proxy)return!0;try{return Boolean.prototype.valueOf.call(Reflect.construct(Boolean,[],(function(){}))),!0}catch(t){return!1}}();return function(){var e,r=a(t);if(n){var i=a(this).constructor;e=Reflect.construct(r,arguments,i)}else e=r.apply(this,arguments);return s(this,e)}}function c(t,n,e){return(c="undefined"!=typeof Reflect&&Reflect.get?Reflect.get:function(t,n,e){var r=function(t,n){for(;!Object.prototype.hasOwnProperty.call(t,n)&&null!==(t=a(t)););return t}(t,n);if(r){var i=Object.getOwnPropertyDescriptor(r,n);return i.get?i.get.call(e):i.value}})(t,n,e||t)}var h=v(Math.pow(10,-6));function v(t){var n=arguments.length>1&&void 0!==arguments[1]?arguments[1]:6;if(Number.isInteger(t))return t;var e=Math.pow(10,n);return Math.round((+t+Number.EPSILON)*e)/e}function d(t,n){var e=arguments.length>2&&void 0!==arguments[2]?arguments[2]:h;return Math.abs(t-n)<e}var y=Math.PI/180;function g(t){return t}function p(t,n,e){var r=1-e;return 3*e*r*(t*r+n*e)+e*e*e}function m(){var t=arguments.length>0&&void 0!==arguments[0]?arguments[0]:0,n=arguments.length>1&&void 0!==arguments[1]?arguments[1]:0,e=arguments.length>2&&void 0!==arguments[2]?arguments[2]:1,r=arguments.length>3&&void 0!==arguments[3]?arguments[3]:1;return t<0||t>1||e<0||e>1?null:d(t,n)&&d(e,r)?g:function(i){if(i<=0)return t>0?i*n/t:0===n&&e>0?i*r/e:0;if(i>=1)return e<1?1+(i-1)*(r-1)/(e-1):1===e&&t<1?1+(i-1)*(n-1)/(t-1):1;for(var u,o=0,a=1;o<a;){var l=p(t,e,u=(o+a)/2);if(d(i,l))break;l<i?o=u:a=u}return p(n,r,u)}}function b(){return 1}function w(t){return 1===t?1:0}function x(){var t=arguments.length>0&&void 0!==arguments[0]?arguments[0]:1,n=arguments.length>1&&void 0!==arguments[1]?arguments[1]:0;if(1===t){if(0===n)return w;if(1===n)return b}var e=1/t;return function(t){return t>=1?1:(t+=n*e)-t%e}}var A="undefined"!=typeof window&&/(Mac|iPhone|iPod|iPad)/i.test(window.navigator.platform);Object.freeze({Meta:A?"Control":"Meta",Ctrl:"Control",Down:"ArrowDown",Up:"ArrowUp",Left:"ArrowLeft",Right:"ArrowRight",Esc:"Escape",Delete:"Backspace",Space:"Space"});var k=Math.sin,_=Math.cos,S=Math.acos,O=Math.asin,M=Math.tan,E=Math.atan2,P=Math.PI/180,j=180/Math.PI,B=Math.sqrt,I=function(){function t(){var n=arguments.length>0&&void 0!==arguments[0]?arguments[0]:1,e=arguments.length>1&&void 0!==arguments[1]?arguments[1]:0,i=arguments.length>2&&void 0!==arguments[2]?arguments[2]:0,u=arguments.length>3&&void 0!==arguments[3]?arguments[3]:1,o=arguments.length>4&&void 0!==arguments[4]?arguments[4]:0,a=arguments.length>5&&void 0!==arguments[5]?arguments[5]:0;r(this,t),this.m=[n,e,i,u,o,a],this.i=null,this.w=null,this.s=null}return u(t,[{key:"determinant",get:function(){var t=this.m;return t[0]*t[3]-t[1]*t[2]}},{key:"isIdentity",get:function(){if(null===this.i){var t=this.m;this.i=1===t[0]&&0===t[1]&&0===t[2]&&1===t[3]&&0===t[4]&&0===t[5]}return this.i}},{key:"point",value:function(t,n){var e=this.m;return{x:e[0]*t+e[2]*n+e[4],y:e[1]*t+e[3]*n+e[5]}}},{key:"translateSelf",value:function(){var t=arguments.length>0&&void 0!==arguments[0]?arguments[0]:0,n=arguments.length>1&&void 0!==arguments[1]?arguments[1]:0;if(!t&&!n)return this;var e=this.m;return e[4]+=e[0]*t+e[2]*n,e[5]+=e[1]*t+e[3]*n,this.w=this.s=this.i=null,this}},{key:"rotateSelf",value:function(){var t=arguments.length>0&&void 0!==arguments[0]?arguments[0]:0;if(t%=360){var n=k(t*=P),e=_(t),r=this.m,i=r[0],u=r[1];r[0]=i*e+r[2]*n,r[1]=u*e+r[3]*n,r[2]=r[2]*e-i*n,r[3]=r[3]*e-u*n,this.w=this.s=this.i=null}return this}},{key:"scaleSelf",value:function(){var t=arguments.length>0&&void 0!==arguments[0]?arguments[0]:1,n=arguments.length>1&&void 0!==arguments[1]?arguments[1]:1;if(1!==t||1!==n){var e=this.m;e[0]*=t,e[1]*=t,e[2]*=n,e[3]*=n,this.w=this.s=this.i=null}return this}},{key:"skewSelf",value:function(t,n){if(n%=360,(t%=360)||n){var e=this.m,r=e[0],i=e[1],u=e[2],o=e[3];t&&(t=M(t*P),e[2]+=r*t,e[3]+=i*t),n&&(n=M(n*P),e[0]+=u*n,e[1]+=o*n),this.w=this.s=this.i=null}return this}},{key:"resetSelf",value:function(){var t=arguments.length>0&&void 0!==arguments[0]?arguments[0]:1,n=arguments.length>1&&void 0!==arguments[1]?arguments[1]:0,e=arguments.length>2&&void 0!==arguments[2]?arguments[2]:0,r=arguments.length>3&&void 0!==arguments[3]?arguments[3]:1,i=arguments.length>4&&void 0!==arguments[4]?arguments[4]:0,u=arguments.length>5&&void 0!==arguments[5]?arguments[5]:0,o=this.m;return o[0]=t,o[1]=n,o[2]=e,o[3]=r,o[4]=i,o[5]=u,this.w=this.s=this.i=null,this}},{key:"recomposeSelf",value:function(){var t=arguments.length>0&&void 0!==arguments[0]?arguments[0]:null,n=arguments.length>1&&void 0!==arguments[1]?arguments[1]:null,e=arguments.length>2&&void 0!==arguments[2]?arguments[2]:null,r=arguments.length>3&&void 0!==arguments[3]?arguments[3]:null,i=arguments.length>4&&void 0!==arguments[4]?arguments[4]:null;return this.isIdentity||this.resetSelf(),t&&(t.x||t.y)&&this.translateSelf(t.x,t.y),n&&this.rotateSelf(n),e&&(e.x&&this.skewSelf(e.x,0),e.y&&this.skewSelf(0,e.y)),!r||1===r.x&&1===r.y||this.scaleSelf(r.x,r.y),i&&(i.x||i.y)&&this.translateSelf(i.x,i.y),this}},{key:"decompose",value:function(){var t=arguments.length>0&&void 0!==arguments[0]?arguments[0]:0,n=arguments.length>1&&void 0!==arguments[1]?arguments[1]:0,e=this.m,r=e[0]*e[0]+e[1]*e[1],i=[[e[0],e[1]],[e[2],e[3]]],u=B(r);if(0===u)return{origin:{x:v(e[4]),y:v(e[5])},translate:{x:v(t),y:v(n)},scale:{x:0,y:0},skew:{x:0,y:0},rotate:0};i[0][0]/=u,i[0][1]/=u;var o=e[0]*e[3]-e[1]*e[2]<0;o&&(u=-u);var a=i[0][0]*i[1][0]+i[0][1]*i[1][1];i[1][0]-=i[0][0]*a,i[1][1]-=i[0][1]*a;var l=B(i[1][0]*i[1][0]+i[1][1]*i[1][1]);if(0===l)return{origin:{x:v(e[4]),y:v(e[5])},translate:{x:v(t),y:v(n)},scale:{x:v(u),y:0},skew:{x:0,y:0},rotate:0};i[1][0]/=l,i[1][1]/=l,a/=l;var s=0;return i[1][1]<0?(s=S(i[1][1])*j,i[0][1]<0&&(s=360-s)):s=O(i[0][1])*j,o&&(s=-s),a=E(a,B(i[0][0]*i[0][0]+i[0][1]*i[0][1]))*j,o&&(a=-a),{origin:{x:v(e[4]),y:v(e[5])},translate:{x:v(t),y:v(n)},scale:{x:v(u),y:v(l)},skew:{x:v(a),y:0},rotate:v(s)}}},{key:"toString",value:function(){var t=arguments.length>0&&void 0!==arguments[0]?arguments[0]:" ";return null===this.s&&(this.s="matrix("+this.m.map((function(t){return v(t)})).join(t)+")"),this.s}}]),t}();function R(t,n,e){return t>=.5?e:n}function T(t,n,e){return 0===t||n===e?n:t*(e-n)+n}function N(t,n,e){var r=T(t,n,e);return r<=0?0:r}function C(t,n,e){var r=T(t,n,e);return r<=0?0:r>=1?1:r}function L(t,n,e){return 0===t?n:1===t?e:{x:T(t,n.x,e.x),y:T(t,n.y,e.y)}}function F(t,n,e){return 0===t?n:1===t?e:{x:N(t,n.x,e.x),y:N(t,n.y,e.y)}}function q(t,n,e){var r=function(t,n,e){return Math.round(T(t,n,e))}(t,n,e);return r<=0?0:r>=255?255:r}function V(t,n,e){return 0===t?n:1===t?e:{r:q(t,n.r,e.r),g:q(t,n.g,e.g),b:q(t,n.b,e.b),a:T(t,null==n.a?1:n.a,null==e.a?1:e.a)}}function D(t,n,e){var r=n.length;if(r!==e.length)return R(t,n,e);for(var i=new Array(r),u=0;u<r;u++)i[u]=T(t,n[u],e[u]);return i}function z(t,n){for(var e=[],r=0;r<t;r++)e.push(n);return e}function Y(t,n){if(--n<=0)return t;var e=(t=Object.assign([],t)).length;do{for(var r=0;r<e;r++)t.push(t[r])}while(--n>0);return t}var G,U=function(){function t(n){r(this,t),this.list=n,this.length=n.length}return u(t,[{key:"setAttribute",value:function(t,n){for(var e=this.list,r=0;r<this.length;r++)e[r].setAttribute(t,n)}},{key:"removeAttribute",value:function(t){for(var n=this.list,e=0;e<this.length;e++)n[e].removeAttribute(t)}},{key:"style",value:function(t,n){for(var e=this.list,r=0;r<this.length;r++)e[r].style[t]=n}}]),t}(),W=/-./g,$=function(t,n){return n.toUpperCase()};function H(t){return"function"==typeof t?t:R}function Q(t){return t?"function"==typeof t?t:Array.isArray(t)?function(t){var n=arguments.length>1&&void 0!==arguments[1]?arguments[1]:g;if(!Array.isArray(t))return n;switch(t.length){case 1:return x(t[0])||n;case 2:return x(t[0],t[1])||n;case 4:return m(t[0],t[1],t[2],t[3])||n}return n}(t,null):function(t,n){var e=arguments.length>2&&void 0!==arguments[2]?arguments[2]:g;switch(t){case"linear":return g;case"steps":return x(n.steps||1,n.jump||0)||e;case"bezier":case"cubic-bezier":return m(n.x1||0,n.y1||0,n.x2||0,n.y2||0)||e}return e}(t.type,t.value,null):null}function X(t,n,e){var r=arguments.length>3&&void 0!==arguments[3]&&arguments[3],i=n.length-1;if(t<=n[0].t)return r?[0,0,n[0].v]:n[0].v;if(t>=n[i].t)return r?[i,1,n[i].v]:n[i].v;var u,o=n[0],a=null;for(u=1;u<=i;u++){if(!(t>n[u].t)){a=n[u];break}o=n[u]}return null==a?r?[i,1,n[i].v]:n[i].v:o.t===a.t?r?[u,1,a.v]:a.v:(t=(t-o.t)/(a.t-o.t),o.e&&(t=o.e(t)),r?[u,t,e(t,o.v,a.v)]:e(t,o.v,a.v))}function J(t,n){var e=arguments.length>2&&void 0!==arguments[2]?arguments[2]:null;return t&&t.length?"function"!=typeof n?null:("function"!=typeof e&&(e=null),function(r){var i=X(r,t,n);return null!=i&&e&&(i=e(i)),i}):null}function Z(t,n){return t.t-n.t}function K(t,n,r,i,u){var o,a="@"===r[0],l="#"===r[0],s=G[r],f=R;switch(a?(o=r.substr(1),r=o.replace(W,$)):l&&(r=r.substr(1)),e(s)){case"function":if(f=s(i,u,X,Q,r,a,n,t),l)return f;break;case"string":f=J(i,H(s));break;case"object":if((f=J(i,H(s.i),s.f))&&"function"==typeof s.u)return s.u(n,f,r,a,t)}return f?function(t,n,e){if(arguments.length>3&&void 0!==arguments[3]&&arguments[3])return t instanceof U?function(r){return t.style(n,e(r))}:function(r){return t.style[n]=e(r)};if(Array.isArray(n)){var r=n.length;return function(i){var u=e(i);if(null==u)for(var o=0;o<r;o++)t[o].removeAttribute(n);else for(var a=0;a<r;a++)t[a].setAttribute(n,u)}}return function(r){var i=e(r);null==i?t.removeAttribute(n):t.setAttribute(n,i)}}(n,r,f,a):null}function tt(t,n,r,i){if(!i||"object"!==e(i))return null;var u=null,o=null;return Array.isArray(i)?o=function(t){if(!t||!t.length)return null;for(var n=0;n<t.length;n++)t[n].e&&(t[n].e=Q(t[n].e));return t.sort(Z)}(i):(o=i.keys,u=i.data||null),o?K(t,n,r,o,u):null}function nt(t,n,e){if(!e)return null;var r=[];for(var i in e)if(e.hasOwnProperty(i)){var u=tt(t,n,i,e[i]);u&&r.push(u)}return r.length?r:null}function et(t,n){if(!n.duration||n.duration<0)return null;var e=function(t,n){if(!n)return null;var e=[];if(Array.isArray(n))for(var r=n.length,i=0;i<r;i++){var u=n[i];if(2===u.length){var o=null;if("string"==typeof u[0])o=t.getElementById(u[0]);else if(Array.isArray(u[0])){o=[];for(var a=0;a<u[0].length;a++)if("string"==typeof u[0][a]){var l=t.getElementById(u[0][a]);l&&o.push(l)}o=o.length?1===o.length?o[0]:new U(o):null}if(o){var s=nt(t,o,u[1]);s&&(e=e.concat(s))}}}else for(var f in n)if(n.hasOwnProperty(f)){var c=t.getElementById(f);if(c){var h=nt(t,c,n[f]);h&&(e=e.concat(h))}}return e.length?e:null}(t,n.elements);return e?function(t,n){var e=arguments.length>2&&void 0!==arguments[2]?arguments[2]:1/0,r=arguments.length>3&&void 0!==arguments[3]?arguments[3]:1,i=arguments.length>4&&void 0!==arguments[4]&&arguments[4],u=arguments.length>5&&void 0!==arguments[5]?arguments[5]:1,o=t.length,a=r>0?n:0;i&&e%2==0&&(a=n-a);var l=null;return function(s,f){var c=s%n,h=1+(s-c)/n;f*=r,i&&h%2==0&&(f=-f);var v=!1;if(h>e)c=a,v=!0,-1===u&&(c=r>0?0:n);else if(f<0&&(c=n-c),c===l)return!1;l=c;for(var d=0;d<o;d++)t[d](c);return v}}(e,n.duration,n.iterations||1/0,n.direction||1,!!n.alternate,n.fill||1):null}function rt(t){return+("0x"+(t.replace(/[^0-9a-fA-F]+/g,"")||27))}function it(t,n,e){return!t||!e||n>t.length?t:t.substring(0,n)+it(t.substring(n+1),e,e)}function ut(t){var n=arguments.length>1&&void 0!==arguments[1]?arguments[1]:27;return!t||t%n?t%n:ut(t/n,n)}function ot(t,n,e){if(t&&t.length){var r=rt(e),i=rt(n),u=ut(r)+5,o=it(t,ut(r,5),u);return o=o.replace(/\x7c$/g,"==").replace(/\x2f$/g,"="),o=function(t,n,e){var r=+("0x"+t.substring(0,4));t=t.substring(4);for(var i=n%r+e%27,u=[],o=0;o<t.length;o+=2)if("|"!==t[o]){var a=+("0x"+t[o]+t[o+1])-i;u.push(a)}else{var l=+("0x"+t.substring(o+1,o+1+4))-i;o+=3,u.push(l)}return String.fromCharCode.apply(String,u)}(o=(o=atob(o)).replace(/[\x41-\x5A]/g,""),i,r),o=JSON.parse(o)}}Number.isInteger||(Number.isInteger=function(t){return"number"==typeof t&&isFinite(t)&&Math.floor(t)===t}),Number.EPSILON||(Number.EPSILON=2220446049250313e-31);var at=function(){function t(n,e){var i=arguments.length>2&&void 0!==arguments[2]?arguments[2]:{};r(this,t),this._id=0,this._running=!1,this._rollingBack=!1,this._animations=n,this.duration=e.duration,this.alternate=e.alternate,this.fill=e.fill,this.iterations=e.iterations,this.direction=i.direction||1,this.speed=i.speed||1,this.fps=i.fps||100,this.offset=i.offset||0,this.rollbackStartOffset=0}return u(t,[{key:"_rollback",value:function(){var t=this,n=1/0,e=null;this.rollbackStartOffset=this.offset,this._rollingBack||(this._rollingBack=!0,this._running=!0);this._id=window.requestAnimationFrame((function r(i){if(t._rollingBack){null==e&&(e=i);var u=i-e,o=t.rollbackStartOffset-u,a=Math.round(o*t.speed);if(a>t.duration&&n!=1/0){var l=!!t.alternate&&a/t.duration%2>1,s=a%t.duration;a=(s+=l?t.duration:0)||t.duration}var f=t.fps?1e3/t.fps:0,c=Math.max(0,a);if(c<n-f){t.offset=c,n=c;for(var h=t._animations,v=h.length,d=0;d<v;d++)h[d](c,t.direction)}var y=!1;if(t.iterations>0&&-1===t.fill){var g=t.iterations*t.duration,p=g==a;a=p?0:a,t.offset=p?0:t.offset,y=a>g}a>0&&t.offset>=a&&!y?t._id=window.requestAnimationFrame(r):t.stop()}}))}},{key:"_start",value:function(){var t=this,n=arguments.length>0&&void 0!==arguments[0]?arguments[0]:0,e=-1/0,r=null,i={},u=function u(o){t._running=!0,null==r&&(r=o);var a=Math.round((o-r+n)*t.speed),l=t.fps?1e3/t.fps:0;if(a>e+l&&!t._rollingBack){t.offset=a,e=a;for(var s=t._animations,f=s.length,c=0,h=0;h<f;h++)i[h]?c++:(i[h]=s[h](a,t.direction),i[h]&&c++);if(c===f)return void t._stop()}t._id=window.requestAnimationFrame(u)};this._id=window.requestAnimationFrame(u)}},{key:"_stop",value:function(){this._id&&window.cancelAnimationFrame(this._id),this._running=!1,this._rollingBack=!1}},{key:"play",value:function(){!this._rollingBack&&this._running||(this._rollingBack=!1,this.rollbackStartOffset>this.duration&&(this.offset=this.rollbackStartOffset-(this.rollbackStartOffset-this.offset)%this.duration,this.rollbackStartOffset=0),this._start(this.offset))}},{key:"stop",value:function(){this._stop(),this.offset=0,this.rollbackStartOffset=0;var t=this.direction,n=this._animations;window.requestAnimationFrame((function(){for(var e=0;e<n.length;e++)n[e](0,t)}))}},{key:"reachedToEnd",value:function(){return this.iterations>0&&this.offset>=this.iterations*this.duration}},{key:"restart",value:function(){this._stop(),this.offset=0,this._start()}},{key:"pause",value:function(){this._stop()}},{key:"reverse",value:function(){this.direction=-this.direction}}],[{key:"build",value:function(e,r){return delete e.animationSettings,e.options=ot(e.options,e.root,"91c80d77"),e.animations.map((function(t){var r=ot(t.s,e.root,"91c80d77");for(var i in delete t.s,e.animationSettings||(e.animationSettings=n({},r)),r)r.hasOwnProperty(i)&&(t[i]=r[i])})),(e=function(t,n){if(G=n,!t||!t.root||!Array.isArray(t.animations))return null;for(var e=document.getElementsByTagName("svg"),r=!1,i=0;i<e.length;i++)if(e[i].id===t.root&&!e[i].svgatorAnimation){(r=e[i]).svgatorAnimation=!0;break}if(!r)return null;var u=t.animations.map((function(t){return et(r,t)})).filter((function(t){return!!t}));return u.length?{element:r,animations:u,animationSettings:t.animationSettings,options:t.options||void 0}:null}(e,r))?{el:e.element,options:e.options||{},player:new t(e.animations,e.animationSettings,e.options)}:null}},{key:"push",value:function(t){return this.build(t)}},{key:"init",value:function(){var t=this,n=window.__SVGATOR_PLAYER__&&window.__SVGATOR_PLAYER__["91c80d77"];Array.isArray(n)&&n.splice(0).forEach((function(n){return t.build(n)}))}}]),t}();!function(){for(var t=0,n=["ms","moz","webkit","o"],e=0;e<n.length&&!window.requestAnimationFrame;++e)window.requestAnimationFrame=window[n[e]+"RequestAnimationFrame"],window.cancelAnimationFrame=window[n[e]+"CancelAnimationFrame"]||window[n[e]+"CancelRequestAnimationFrame"];window.requestAnimationFrame||(window.requestAnimationFrame=function(n){var e=Date.now(),r=Math.max(0,16-(e-t)),i=window.setTimeout((function(){n(e+r)}),r);return t=e+r,i},window.cancelAnimationFrame=window.clearTimeout)}();var lt=function(t,n){var e=!1,r=null;return function(i){e&&clearTimeout(e),e=setTimeout((function(){return function(){for(var i=0,u=window.innerHeight,o=0,a=window.innerWidth,l=t.parentNode;l instanceof Element;){var s=window.getComputedStyle(l);if("visible"!==s.overflowY||"visible"!==s.overflowX){var f=l.getBoundingClientRect();"visible"!==s.overflowY&&(i=Math.max(i,f.top),u=Math.min(u,f.bottom)),"visible"!==s.overflowX&&(o=Math.max(o,f.left),a=Math.min(a,f.right))}if(l===l.parentNode)break;l=l.parentNode}e=!1;var c=t.getBoundingClientRect(),h=Math.min(c.height,Math.max(0,i-c.top)),v=Math.min(c.height,Math.max(0,c.bottom-u)),d=Math.min(c.width,Math.max(0,o-c.left)),y=Math.min(c.width,Math.max(0,c.right-a)),g=(c.height-h-v)/c.height,p=(c.width-d-y)/c.width,m=Math.round(g*p*100);null!==r&&r===m||(r=m,n(m))}()}),100)}},st=function(){function t(n,e,i){r(this,t),e=Math.max(1,e||1),e=Math.min(e,100),this.el=n,this.onTresholdChange=i&&i.call?i:function(){},this.tresholdPercent=e||1,this.currentVisibility=null,this.visibilityCalculator=lt(n,this.onVisibilityUpdate.bind(this)),this.bindScrollWatchers(),this.visibilityCalculator()}return u(t,[{key:"bindScrollWatchers",value:function(){for(var t=this.el.parentNode;t&&(t.addEventListener("scroll",this.visibilityCalculator),t!==t.parentNode&&t!==document);)t=t.parentNode}},{key:"onVisibilityUpdate",value:function(t){var n=this.currentVisibility>=this.tresholdPercent,e=t>=this.tresholdPercent;if(null===this.currentVisibility||n!==e)return this.currentVisibility=t,void this.onTresholdChange(e);this.currentVisibility=t}}]),t}();function ft(t){return v(t)+""}function ct(t){var n=arguments.length>1&&void 0!==arguments[1]?arguments[1]:" ";return t&&t.length?t.map(ft).join(n):""}function ht(t){return ft(t.x)+","+ft(t.y)}function vt(t){return t?null==t.a||t.a>=1?"rgb("+t.r+","+t.g+","+t.b+")":"rgba("+t.r+","+t.g+","+t.b+","+t.a+")":"transparent"}function dt(t){return t?"url(#"+t+")":"none"}var yt={f:null,i:F,u:function(t,n){return function(e){var r=n(e);t.setAttribute("rx",ft(r.x)),t.setAttribute("ry",ft(r.y))}}},gt={f:null,i:function(t,n,e){return 0===t?n:1===t?e:{width:N(t,n.width,e.width),height:N(t,n.height,e.height)}},u:function(t,n){return function(e){var r=n(e);t.setAttribute("width",ft(r.width)),t.setAttribute("height",ft(r.height))}}};Object.freeze({M:2,L:2,Z:0,H:1,V:1,C:6,Q:4,T:2,S:4,A:7});var pt={},mt=null;function bt(t){var n=function(){if(mt)return mt;if("object"!==("undefined"==typeof document?"undefined":e(document))||!document.createElementNS)return{};var t=document.createElementNS("http://www.w3.org/2000/svg","svg");return t&&t.style?(t.style.position="absolute",t.style.opacity="0.01",t.style.zIndex="-9999",t.style.left="-9999px",t.style.width="1px",t.style.height="1px",mt={svg:t}):{}}().svg;if(!n)return function(t){return null};var r=document.createElementNS(n.namespaceURI,"path");r.setAttributeNS(null,"d",t),r.setAttributeNS(null,"fill","none"),r.setAttributeNS(null,"stroke","none"),n.appendChild(r);var i=r.getTotalLength();return function(t){var n=r.getPointAtLength(i*t);return{x:n.x,y:n.y}}}function wt(t){return pt[t]?pt[t]:pt[t]=bt(t)}function xt(t,n,e,r){if(!t||!r)return!1;var i=["M",t.x,t.y];if(n&&e&&(i.push("C"),i.push(n.x),i.push(n.y),i.push(e.x),i.push(e.y)),n?!e:e){var u=n||e;i.push("Q"),i.push(u.x),i.push(u.y)}return n||e||i.push("L"),i.push(r.x),i.push(r.y),i.join(" ")}function At(t,n,e,r){var i=arguments.length>4&&void 0!==arguments[4]?arguments[4]:1,u=xt(t,n,e,r),o=wt(u);try{return o(i)}catch(t){return null}}function kt(t,n,e,r){var i=1-r;return i*i*t+2*i*r*n+r*r*e}function _t(t,n,e,r){return 2*(1-r)*(n-t)+2*r*(e-n)}function St(t,n,e,r){var i=arguments.length>4&&void 0!==arguments[4]&&arguments[4],u=At(t,n,null,e,r);return u||(u={x:kt(t.x,n.x,e.x,r),y:kt(t.y,n.y,e.y,r)}),i&&(u.a=Ot(t,n,e,r)),u}function Ot(t,n,e,r){return Math.atan2(_t(t.y,n.y,e.y,r),_t(t.x,n.x,e.x,r))}function Mt(t,n,e,r,i){var u=i*i;return i*u*(r-t+3*(n-e))+3*u*(t+e-2*n)+3*i*(n-t)+t}function Et(t,n,e,r,i){var u=1-i;return 3*(u*u*(n-t)+2*u*i*(e-n)+i*i*(r-e))}function Pt(t,n,e,r,i){var u=arguments.length>5&&void 0!==arguments[5]&&arguments[5],o=At(t,n,e,r,i);return o||(o={x:Mt(t.x,n.x,e.x,r.x,i),y:Mt(t.y,n.y,e.y,r.y,i)}),u&&(o.a=jt(t,n,e,r,i)),o}function jt(t,n,e,r,i){return Math.atan2(Et(t.y,n.y,e.y,r.y,i),Et(t.x,n.x,e.x,r.x,i))}function Bt(t,n,e){return t+(n-t)*e}function It(t,n,e){var r=arguments.length>3&&void 0!==arguments[3]&&arguments[3],i={x:Bt(t.x,n.x,e),y:Bt(t.y,n.y,e)};return r&&(i.a=Rt(t,n)),i}function Rt(t,n){return Math.atan2(n.y-t.y,n.x-t.x)}function Tt(t,n,e){var r=arguments.length>3&&void 0!==arguments[3]&&arguments[3];if(Ct(n)){if(Lt(e))return St(n,e.start,e,t,r)}else if(Ct(e)){if(n.end)return St(n,n.end,e,t,r)}else{if(n.end)return e.start?Pt(n,n.end,e.start,e,t,r):St(n,n.end,e,t,r);if(e.start)return St(n,e.start,e,t,r)}return It(n,e,t,r)}function Nt(t,n,e){var r=Tt(t,n,e,!0);return r.a=function(t){return arguments.length>1&&void 0!==arguments[1]&&arguments[1]?t+Math.PI:t}(r.a)/y,r}function Ct(t){return!t.type||"corner"===t.type}function Lt(t){return null!=t.start&&!Ct(t)}var Ft=new I;var qt={f:function(t){return t?t.join(" "):""},i:function(t,n,r){if(0===t)return n;if(1===t)return r;var i=n.length;if(i!==r.length)return R(t,n,r);for(var u,o=new Array(i),a=0;a<i;a++){if((u=e(n[a]))!==e(r[a]))return R(t,n,r);if("number"===u)o[a]=T(t,n[a],r[a]);else{if(n[a]!==r[a])return R(t,n,r);o[a]=n[a]}}return o}},Vt={f:null,i:D,u:function(t,n){return function(e){var r=n(e);t.setAttribute("x1",ft(r[0])),t.setAttribute("y1",ft(r[1])),t.setAttribute("x2",ft(r[2])),t.setAttribute("y2",ft(r[3]))}}},Dt={f:ft,i:T},zt={f:ft,i:C},Yt={f:function(t){var n=arguments.length>1&&void 0!==arguments[1]?arguments[1]:" ";return t&&t.length>0&&(t=t.map((function(t){return v(t,4)}))),ct(t,n)},i:function(t,n,e){var r,i,u,o=n.length,a=e.length;if(o!==a)if(0===o)n=z(o=a,0);else if(0===a)a=o,e=z(o,0);else{var l=(u=(r=o)*(i=a)/function(t,n){for(var e;n;)e=n,n=t%n,t=e;return t||1}(r,i))<0?-u:u;n=Y(n,Math.floor(l/o)),e=Y(e,Math.floor(l/a)),o=a=l}for(var s=[],f=0;f<o;f++)s.push(v(N(t,n[f],e[f])));return s}};function Gt(t,n,e){return t.map((function(t){return function(t,n,e){var r=t.v;if(!r||"g"!==r.t||r.s||!r.v||!r.r)return t;var i=e.getElementById(r.r),u=i&&i.querySelectorAll("stop")||[];return r.s=r.v.map((function(t,n){var e=u[n]&&u[n].getAttribute("offset");return{c:t,o:e=v(parseInt(e)/100)}})),delete r.v,t}(t,0,e)}))}var Ut={gt:"gradientTransform",c:{x:"cx",y:"cy"},rd:"r",f:{x:"x1",y:"y1"},to:{x:"x2",y:"y2"}};function Wt(t,n,r,i,u,o,a,l){return Gt(t,0,l),n=function(t,n,e){for(var r,i,u,o=t.length-1,a={},l=0;l<=o;l++)(r=t[l]).e&&(r.e=n(r.e)),r.v&&"g"===(i=r.v).t&&i.r&&(u=e.getElementById(i.r))&&(a[i.r]={e:u,s:u.querySelectorAll("stop")});return a}(t,i,l),function(i){var u=r(i,t,$t);if(!u)return"none";if("c"===u.t)return vt(u.v);if("g"===u.t){if(!n[u.r])return dt(u.r);var o=n[u.r];return function(t,n){for(var e=t.s,r=e.length;r<n.length;r++){var i=e[e.length-1].cloneNode();i.id=Xt(i.id),t.e.appendChild(i),e=t.s=t.e.querySelectorAll("stop")}for(var u=0,o=e.length,a=n.length-1;u<o;u++)e[u].setAttribute("stop-color",vt(n[Math.min(u,a)].c)),e[u].setAttribute("offset",n[Math.min(u,a)].o)}(o,u.s),Object.keys(Ut).forEach((function(t){if(void 0!==u[t])if("object"!==e(Ut[t])){var n,r="gt"===t?(n=u[t],Array.isArray(n)?"matrix("+n.join(" ")+")":""):u[t],i=Ut[t];o.e.setAttribute(i,r)}else Object.keys(Ut[t]).forEach((function(n){if(void 0!==u[t][n]){var e=u[t][n],r=Ut[t][n];o.e.setAttribute(r,e)}}))})),dt(u.r)}return"none"}}function $t(t,e,r){if(0===t)return e;if(1===t)return r;if(e&&r){var i=e.t;if(i===r.t)switch(e.t){case"c":return{t:i,v:V(t,e.v,r.v)};case"g":if(e.r===r.r){var u={t:i,s:Ht(t,e.s,r.s),r:e.r};return e.gt&&r.gt&&(u.gt=D(t,e.gt,r.gt)),e.c?(u.c=L(t,e.c,r.c),u.rd=N(t,e.rd,r.rd)):e.f&&(u.f=L(t,e.f,r.f),u.to=L(t,e.to,r.to)),u}}if("c"===e.t&&"g"===r.t||"c"===r.t&&"g"===e.t){var o="c"===e.t?e:r,a="g"===e.t?n({},e):n({},r),l=a.s.map((function(t){return{c:o.v,o:t.o}}));return a.s="c"===e.t?Ht(t,l,a.s):Ht(t,a.s,l),a}}return R(t,e,r)}function Ht(t,n,e){if(n.length===e.length)return n.map((function(n,r){return Qt(t,n,e[r])}));for(var r=Math.max(n.length,e.length),i=[],u=0;u<r;u++){var o=Qt(t,n[Math.min(u,n.length-1)],e[Math.min(u,e.length-1)]);i.push(o)}return i}function Qt(t,n,e){return{o:C(t,n.o,e.o||0),c:V(t,n.c,e.c||{})}}function Xt(t){return t.replace(/-fill-([0-9]+)$/,(function(t,n){return"-fill-"+(+n+1)}))}var Jt={blur:F,brightness:N,contrast:N,"drop-shadow":function(t,n,e){return 0===t?n:1===t?e:{blur:F(t,n.blur,e.blur),offset:L(t,n.offset,e.offset),color:V(t,n.color,e.color)}},grayscale:N,"hue-rotate":T,invert:N,opacity:N,saturate:N,sepia:N};function Zt(t,n,e){if(0===t)return n;if(1===t)return e;var r=n.length;if(r!==e.length)return R(t,n,e);for(var i,u=[],o=0;o<r;o++){if(n[o].type!==e[o].type)return n;if(!(i=Jt[n[o].type]))return R(t,n,e);u.push({type:n.type,value:i(t,n[o].value,e[o].value)})}return u}var Kt={blur:function(t){return t?function(n){t.setAttribute("stdDeviation",ht(n))}:null},brightness:function(t,n,e){return(t=nn(e,n))?function(n){n=ft(n),t.map((function(t){return t.setAttribute("slope",n)}))}:null},contrast:function(t,n,e){return(t=nn(e,n))?function(n){var e=ft((1-n)/2);n=ft(n),t.map((function(t){t.setAttribute("slope",n),t.setAttribute("intercept",e)}))}:null},"drop-shadow":function(t,n,e){var r=e.getElementById(n+"-blur");if(!r)return null;var i=e.getElementById(n+"-offset");if(!i)return null;var u=e.getElementById(n+"-flood");return u?function(t){r.setAttribute("stdDeviation",ht(t.blur)),i.setAttribute("dx",ft(t.offset.x)),i.setAttribute("dy",ft(t.offset.y)),u.setAttribute("flood-color",vt(t.color))}:null},grayscale:function(t){return t?function(n){t.setAttribute("values",ct(function(t){return[.2126+.7874*(t=1-t),.7152-.7152*t,.0722-.0722*t,0,0,.2126-.2126*t,.7152+.2848*t,.0722-.0722*t,0,0,.2126-.2126*t,.7152-.7152*t,.0722+.9278*t,0,0,0,0,0,1,0]}(n)))}:null},"hue-rotate":function(t){return t?function(n){return t.setAttribute("values",ft(n))}:null},invert:function(t,n,e){return(t=nn(e,n))?function(n){n=ft(n)+" "+ft(1-n),t.map((function(t){return t.setAttribute("tableValues",n)}))}:null},opacity:function(t,n,e){return(t=e.getElementById(n+"-A"))?function(n){return t.setAttribute("tableValues","0 "+ft(n))}:null},saturate:function(t){return t?function(n){return t.setAttribute("values",ft(n))}:null},sepia:function(t){return t?function(n){return t.setAttribute("values",ct(function(t){return[.393+.607*(t=1-t),.769-.769*t,.189-.189*t,0,0,.349-.349*t,.686+.314*t,.168-.168*t,0,0,.272-.272*t,.534-.534*t,.131+.869*t,0,0,0,0,0,1,0]}(n)))}:null}};var tn=["R","G","B"];function nn(t,n){var e=tn.map((function(e){return t.getElementById(n+"-"+e)||null}));return-1!==e.indexOf(null)?null:e}var en={fill:Wt,"fill-opacity":zt,stroke:Wt,"stroke-opacity":zt,"stroke-width":Dt,"stroke-dashoffset":{f:ft,i:T},"stroke-dasharray":Yt,opacity:zt,transform:function(t,n,r,i){if(!(t=function(t,n){if(!t||"object"!==e(t))return null;var r=!1;for(var i in t)t.hasOwnProperty(i)&&(t[i]&&t[i].length?(t[i].forEach((function(t){t.e&&(t.e=n(t.e))})),r=!0):delete t[i]);return r?t:null}(t,i)))return null;var u=function(e,i,u){var o=arguments.length>3&&void 0!==arguments[3]?arguments[3]:null;return t[e]?r(i,t[e],u):n&&n[e]?n[e]:o};return n&&n.a&&t.o?function(n){var e=r(n,t.o,Nt);return Ft.recomposeSelf(e,u("r",n,T,0)+e.a,u("k",n,L),u("s",n,L),u("t",n,L)).toString()}:function(t){return Ft.recomposeSelf(u("o",t,Tt,null),u("r",t,T,0),u("k",t,L),u("s",t,L),u("t",t,L)).toString()}},"#filter":function(t,n,e,r,i,u,o,a){if(!n.items||!t||!t.length)return null;var l=function(t,n){var e=(t=t.map((function(t){return t&&Kt[t[0]]?(n.getElementById(t[1]),Kt[t[0]](n.getElementById(t[1]),t[1],n)):null}))).length;return function(n){for(var r=0;r<e;r++)t[r]&&t[r](n[r].value)}}(n.items,a);return l?(t=function(t,n){return t.map((function(t){return t.e=n(t.e),t}))}(t,r),function(n){l(e(n,t,Zt))}):null},"#line":Vt,points:{f:ct,i:D},d:qt,r:Dt,"#size":gt,"#radius":yt,_:function(t,n){if(Array.isArray(t))for(var e=0;e<t.length;e++)this[t[e]]=n;else this[t]=n}},rn=function(t){!function(t,n){if("function"!=typeof n&&null!==n)throw new TypeError("Super expression must either be null or a function");t.prototype=Object.create(n&&n.prototype,{constructor:{value:t,writable:!0,configurable:!0}}),n&&l(t,n)}(e,t);var n=f(e);function e(){return r(this,e),n.apply(this,arguments)}return u(e,null,[{key:"build",value:function(t){var n=c(a(e),"build",this).call(this,t,en);if(!n)return null;var r=n.el,i=n.options,u=n.player;return function(t,n,e){if("click"===e.start){var r=function(){switch(e.click){case"freeze":return!t._running&&t.reachedToEnd()&&(t.offset=0),t._running?t.pause():t.play();case"restart":return t.offset>0?t.restart():t.play();case"reverse":var n=!t._rollingBack&&t._running,r=t.reachedToEnd();return n||r&&1===t.fill?(t.pause(),r&&(t.offset=t.duration-1),t._rollback()):r?t.restart():t.play();case"none":default:return!t._running&&t.offset?t.restart():t.play()}};return void n.addEventListener("click",r)}if("hover"===e.start)return n.addEventListener("mouseenter",(function(){return t.reachedToEnd()?t.restart():t.play()})),void n.addEventListener("mouseleave",(function(){switch(e.hover){case"freeze":return t.pause();case"reset":return t.stop();case"reverse":return t.pause(),t._rollback();case"none":default:return}}));if("scroll"===e.start)return void new st(n,e.scroll||25,(function(n){n?t.reachedToEnd()?t.restart():t.play():t.pause()}));t.play()}(u,r,i),u}}]),e}(at);return rn.init(),rn}));
(function(s,i,o,w){w[o]=w[o]||{};w[o][s]=w[o][s]||[];w[o][s].push(i);})('91c80d77',{"root":"ej3MYhaE5S21","animations":[{"elements":{"ej3MYhaE5S23":{"transform":{"data":{"o":{"x":255.468124,"y":255.576309,"type":"corner"},"t":{"x":-255.468124,"y":-255.576309}},"keys":{"r":[{"t":0,"v":0,"e":[0.86,0,0.07,1]},{"t":100,"v":180,"e":[0.86,0,0.07,1]},{"t":400,"v":180,"e":[0.86,0,0.07,1]},{"t":500,"v":360,"e":[0.86,0,0.07,1]},{"t":800,"v":360,"e":[0.77,0,0.175,1]}]}}}},"s":"MDXA1M2M0NmJhZAGJlYmJhYWJkJYjJiOGI3NmIT4MzdhNzk3OUTQ3OTc1NmJhZDGIyYmJhZWFjEYmRiMmI4YjdXRNmI4MzdhNzVU2YmIyYmRhZUWJiYWFiZGIyIYjhiN2JjNmIN4MzdhNzU2YmJFmYjJiNWI1NWmJRODM3YTc1HQzZiYWFQYjVKiZGFlYmJUYjTdhYWJkYWU2YQks4M2FmYWFiDNWJjR2FlNzUA2YlFiY2I5YWOVhZWFkNmI4MAzdhYzZM"}],"options":"MDTAyMDgyMjlINT2FJN2I2ODc5BWTdiMjlMNDEAyOTZmNzY3ZDLZjNzkyOTMzQAjI5NmY3NjdkKNmM3OTI5RTQYxMjlFNzU3NjJc1NmMyOTg0"},'__SVGATOR_PLAYER__',window)]]></script></svg>