<svg id="e82Bnqrcm3a1" xmlns="http://www.w3.org/2000/svg" xmlns:xlink="http://www.w3.org/1999/xlink" viewBox="0 0 65 64" shape-rendering="geometricPrecision" text-rendering="geometricPrecision"><g transform="translate(0-2)"><path d="M59.16,40.778c-.303-.726-.142-1.551.409-2.103l1.455-1.456-4.244-4.244-1.457,1.456c-.551.552-1.377.712-2.141.392-.718-.296-1.182-.99-1.182-1.768L52,31h-2.051c-.091-1.613-.39-3.172-.886-4.649L60.635,14.779C62.16,13.254,63,11.227,63,9.071C63,4.621,59.379,1,54.929,1c-2.156,0-4.183.84-5.707,2.364L37.662,14.925c-1.495-.502-3.08-.794-4.717-.881C31.565,11.633,28.972,10,26,10c-.761,0-1.495.114-2.194.313C22.08,7.068,18.727,5,15,5C9.486,5,5,9.486,5,15c0,.766.094,1.52.265,2.258C2.8,18.004,1,20.295,1,23c0,3.309,2.691,6,6,6h7.254c-.166.989-.254,1.993-.254,3c0,2.201.407,3.992,1.064,5.522L6.143,46.444L1.179,59.35c-.119.308-.179.632-.179.963C1,61.795,2.206,63,3.687,63c.331,0,.655-.061.964-.179l12.906-4.964l6.523-6.524c-.049.215-.08.437-.08.667c0,.771.301,1.468.78,2-.48.532-.78,1.229-.78,2c0,1.39.955,2.552,2.24,2.89C27.092,61.33,29.374,63,32,63s4.908-1.67,5.76-4.11C39.045,58.552,40,57.39,40,56c0-.075-.995-1.773-1-1.846l2.22,2.87l1.457-1.456c.551-.552,1.374-.713,2.14-.394.718.299,1.183.993,1.183,1.771L46,59h6v-2.055c0-.778.465-1.473,1.222-1.786.726-.302,1.551-.143,2.102.409l1.456,1.456l4.244-4.244-1.455-1.456c-.551-.552-.712-1.377-.393-2.141.297-.718.991-1.183,1.769-1.183L63,48v-6h-2.055c-.778,0-1.472-.465-1.785-1.222ZM44.176,43.726c1.091-1.065,2.184-2.153,3.127-3.411C47.847,40.117,48.413,40,49,40c2.757,0,5,2.243,5,5s-2.243,5-5,5-5-2.243-5-5c0-.433.067-.859.176-1.274Zm1.201-23.688L50,15.414L53.586,19l-5.341,5.341c-.749-1.572-1.717-3.018-2.868-4.303ZM46.414,9L48,7.414L56.586,16L55,17.586Zm8.515-6C58.276,3,61,5.724,61,9.071c0,1.621-.631,3.146-1.778,4.293L58,14.586L49.414,6l1.222-1.222C51.783,3.632,53.307,3,54.929,3ZM45,10.414L48.586,14l-4.621,4.621c-1.284-1.152-2.729-2.121-4.301-2.871ZM48,32c0,5.203-2.62,7.759-5.394,10.464-1.91,1.863-3.872,3.789-5.014,6.596-.191-.039-.389-.06-.592-.06h-4v-5c0-1.654-1.346-3-3-3h-2c-.551,0-1-.448-1-1s.449-1,1-1h10c1.654,0,3-1.346,3-3s-1.346-3-3-3h-8c-.551,0-1-.448-1-1v-3h5c2.757,0,5-2.243,5-5s-2.243-5-5-5c-.028,0-.054.008-.082.008.043-.334.082-.668.082-1.008c0-.654-.088-1.287-.236-1.896C41.736,16.992,48,23.834,48,32ZM26,52c0-.552.449-1,1-1h10c.551,0,1,.448,1,1s-.449,1-1,1h-10c-.551,0-1-.448-1-1ZM13.414,52l7.351-7.351c1.23,1.22,2.372,2.454,3.214,3.957L17,55.586ZM3,23c0-2.206,1.794-4,4-4s4,1.794,4,4h2c0-3.222-2.555-5.852-5.744-5.987C7.086,16.359,7,15.684,7,15c0-4.411,3.589-8,8-8c2.925,0,5.565,1.59,6.969,4.101-2.132,1.251-3.638,3.454-3.919,6.025C16.304,17.556,15,19.123,15,21h2c0-1.103.897-2,2-2s2,.897,2,2h2c0-1.835-1.248-3.368-2.935-3.838C20.475,14.25,22.976,12,26,12c3.309,0,6,2.691,6,6c0,.526-.086,1.041-.22,1.543C30.14,20.364,29,22.044,29,24h2c0-1.654,1.346-3,3-3s3,1.346,3,3-1.346,3-3,3h-27c-2.206,0-4-1.794-4-4Zm24,6v3c0,1.654,1.346,3,3,3h8c.551,0,1,.448,1,1s-.449,1-1,1h-10c-1.654,0-3,1.346-3,3s1.346,3,3,3h2c.551,0,1,.448,1,1v5h-4c-.203,0-.401.021-.592.06-1.142-2.807-3.104-4.733-5.014-6.596C18.62,39.759,16,37.203,16,32c0-1.011.121-2.013.308-3ZM19.337,43.249L12,50.586L8.414,47l7.63-7.63c.939,1.474,2.103,2.704,3.293,3.879ZM7.381,48.795l7.824,7.824-6.624,2.548-3.748-3.748ZM3.934,60.954c-.433.168-.934-.177-.934-.641c0-.085.016-.168.045-.246l1.002-2.606l2.491,2.491ZM32,61c-1.477,0-2.794-.786-3.524-2h7.048c-.73,1.214-2.047,2-3.524,2Zm5-4h-10c-.551,0-1-.448-1-1s.449-1,1-1h10c.551,0,1,.448,1,1s-.449,1-1,1ZM61,46h-.055c-1.591,0-3.011.95-3.631,2.452-.616,1.477-.286,3.159.84,4.286l.042.042-1.416,1.416-.042-.042c-1.128-1.128-2.812-1.459-4.319-.827C50.95,53.935,50,55.354,50,56.945v.055h-2v-.055c0-1.591-.95-3.011-2.452-3.632-1.479-.617-3.161-.286-4.287.841l-.042.042L39,54.154c.08-.269,1-1.86,1-2.154c0-.71-.258-1.354-.672-1.869.622-1.679,1.597-3.022,2.732-4.262C42.49,49.319,45.435,52,49,52c3.86,0,7-3.141,7-7s-3.14-7-7-7c-.098,0-.193.01-.29.014.677-1.405,1.142-3.034,1.259-5.014h.031v.055c0,1.591.95,3.012,2.451,3.631c1.476.618,3.16.288,4.287-.84l.042-.042l1.416,1.416-.042.042c-1.126,1.127-1.456,2.81-.827,4.318.607,1.47,2.027,2.42,3.618,2.42h.055Z" transform="translate(1 1)" fill="#2f5373"/><path d="M59.16,40.778c-.303-.726-.142-1.551.409-2.103l1.455-1.456-4.244-4.244-1.457,1.456c-.551.552-1.377.712-2.141.392-.718-.296-1.182-.99-1.182-1.768L52,31h-2.051c-.091-1.613-.39-3.172-.886-4.649L60.635,14.779C62.16,13.254,63,11.227,63,9.071C63,4.621,59.379,1,54.929,1c-2.156,0-4.183.84-5.707,2.364L37.662,14.925c-1.495-.502-3.08-.794-4.717-.881C31.565,11.633,28.972,10,26,10c-.761,0-1.495.114-2.194.313C22.08,7.068,18.727,5,15,5C9.486,5,5,9.486,5,15c0,.766.094,1.52.265,2.258C2.8,18.004,1,20.295,1,23c0,3.309,2.691,6,6,6h7.254c-.166.989-.254,1.993-.254,3c0,2.201.407,3.992,1.064,5.522L6.143,46.444L1.179,59.35c-.119.308-.179.632-.179.963C1,61.795,2.206,63,3.687,63c.331,0,.655-.061.964-.179l12.906-4.964l6.523-6.524c-.049.215-.08.437-.08.667c0,.771.301,1.468.78,2-.48.532-.78,1.229-.78,2c0,1.39.955,2.552,2.24,2.89C27.092,61.33,29.374,63,32,63s4.908-1.67,5.76-4.11C39.045,58.552,40,57.39,40,56c0-.075-.995-1.773-1-1.846l2.22,2.87l1.457-1.456c.551-.552,1.374-.713,2.14-.394.718.299,1.183.993,1.183,1.771L46,59h6v-2.055c0-.778.465-1.473,1.222-1.786.726-.302,1.551-.143,2.102.409l1.456,1.456l4.244-4.244-1.455-1.456c-.551-.552-.712-1.377-.393-2.141.297-.718.991-1.183,1.769-1.183L63,48v-6h-2.055c-.778,0-1.472-.465-1.785-1.222ZM44.176,43.726c1.091-1.065,2.184-2.153,3.127-3.411C47.847,40.117,48.413,40,49,40c2.757,0,5,2.243,5,5s-2.243,5-5,5-5-2.243-5-5c0-.433.067-.859.176-1.274Zm1.201-23.688L50,15.414L53.586,19l-5.341,5.341c-.749-1.572-1.717-3.018-2.868-4.303ZM46.414,9L48,7.414L56.586,16L55,17.586Zm8.515-6C58.276,3,61,5.724,61,9.071c0,1.621-.631,3.146-1.778,4.293L58,14.586L49.414,6l1.222-1.222C51.783,3.632,53.307,3,54.929,3ZM45,10.414L48.586,14l-4.621,4.621c-1.284-1.152-2.729-2.121-4.301-2.871ZM48,32c0,5.203-2.62,7.759-5.394,10.464-1.91,1.863-3.872,3.789-5.014,6.596-.191-.039-.389-.06-.592-.06h-4v-5c0-1.654-1.346-3-3-3h-2c-.551,0-1-.448-1-1s.449-1,1-1h10c1.654,0,3.2-1.346,3.2-3s-1.546-3-3.2-3h-8c-.551,0-1-.448-1-1v-3h5c2.757,0,5-2.243,5-5s-2.243-5-5-5c-.028,0-.054.008-.082.008.043-.334.082-.668.082-1.008c0-.654-.088-1.287-.236-1.896C41.736,16.992,48,23.834,48,32ZM26,52c0-.552.449-1,1-1h10c.551,0,1,.448,1,1s-.449,1-1,1h-10c-.551,0-1-.448-1-1ZM13.414,52l7.351-7.351c1.23,1.22,2.372,2.454,3.214,3.957L17,55.586ZM3,23c0-2.206,1.794-4,4-4s4,1.794,4,4h2c0-3.222-2.555-5.852-5.744-5.987C7.086,16.359,7,15.684,7,15c0-4.411,3.589-8,8-8c2.925,0,5.565,1.59,6.969,4.101-2.132,1.251-3.638,3.454-3.919,6.025C16.304,17.556,15,19.123,15,21h2c0-1.103.897-2,2-2s2,.897,2,2h2c0-1.835-1.248-3.368-2.935-3.838C20.475,14.25,22.976,12,26,12c3.309,0,6,2.691,6,6c0,.526-.086,1.041-.22,1.543C30.14,20.364,29,22.044,29,24h2c0-1.654,1.346-3,3-3s3,1.346,3,3-1.346,3-3,3h-27c-2.206,0-4-1.794-4-4Zm24,6v3c0,1.654,1.346,3,3,3h8c.551,0,1,.448,1,1s-.449,1-1,1h-10c-1.654,0-3,1.346-3,3s1.346,3,3,3h2c.551,0,1,.448,1,1v5h-4c-.203,0-.401.021-.592.06-1.142-2.807-3.104-4.733-5.014-6.596C18.62,39.759,16,37.203,16,32c0-1.011.121-2.013.308-3ZM19.337,43.249L12,50.586L8.414,47l7.63-7.63c.939,1.474,2.103,2.704,3.293,3.879ZM7.381,48.795l7.824,7.824-6.624,2.548-3.748-3.748ZM3.934,60.954c-.433.168-.934-.177-.934-.641c0-.085.016-.168.045-.246l1.002-2.606l2.491,2.491ZM32,61c-1.477,0-2.794-.786-3.524-2h7.048c-.73,1.214-2.047,2-3.524,2Zm5-4h-10c-.551,0-1-.448-1-1s.449-1,1-1h10c.551,0,1,.448,1,1s-.449,1-1,1ZM61,46h-.055c-1.591,0-3.011.95-3.631,2.452-.616,1.477-.286,3.159.84,4.286l.042.042-1.416,1.416-.042-.042c-1.128-1.128-2.812-1.459-4.319-.827C50.95,53.935,50,55.354,50,56.945v.055h-2v-.055c0-1.591-.95-3.011-2.452-3.632-1.479-.617-3.161-.286-4.287.841l-.042.042L39,54.154c.08-.269,1-1.86,1-2.154c0-.71-.258-1.354-.672-1.869.622-1.679,1.597-3.022,2.732-4.262C42.49,49.319,45.435,52,49,52c3.86,0,7-3.141,7-7s-3.14-7-7-7c-.098,0-.193.01-.29.014.677-1.405,1.142-3.034,1.259-5.014h.031v.055c0,1.591.95,3.012,2.451,3.631c1.476.618,3.16.288,4.287-.84l.042-.042l1.416,1.416-.042.042c-1.126,1.127-1.456,2.81-.827,4.318.607,1.47,2.027,2.42,3.618,2.42h.055Z" transform="translate(1 1)" fill="#2f5373"/><rect width="14" height="31.954" rx="0" ry="0" transform="translate(50.97 30)" fill="#f2f1ec" stroke-width="0"/><rect width="9.774" height="14.083" rx="0" ry="0" transform="matrix(1.301356 0 0 1.12904 42.204273 48.09973)" fill="#f2f1ec" stroke-width="0"/><rect width="7.586" height="10" rx="0" ry="0" transform="matrix(.780226 0.625498-.625498 0.780226 52.081208 36.726357)" fill="#f2f1ec" stroke-width="0"/><rect width="7.586" height="10" rx="0" ry="0" transform="matrix(.748836 0.662755-.730954 0.825894 49.768152 39.356701)" fill="#f2f1ec" stroke-width="0"/><line x1="0.707" y1="-1.3965" x2="-0.707" y2="1.3965" transform="translate(49.492622 40.074886)" fill="#f2f1ec" stroke="#f2f1ec" stroke-width="0.64"/><line x1="-0.273" y1="0.0655" x2="0.273" y2="-0.0655" transform="matrix(1.156476 0 0 3.601796 43.373 46.901129)" fill="#f2f1ec" stroke-width="0.64"/><path d="M39.978,52Q40,53.313,39,54.154L39,52q.956-1.313.978,0Z" transform="translate(1 1)" fill="#2f5373" stroke="#2f5373" stroke-width="0.128"/><path d="" transform="translate(1 1)" fill="none" stroke="#3f5787" stroke-width="0.128"/><ellipse rx="1.803" ry="0.5025" transform="matrix(1.140067 0 0 0.594793 42.055541 55.240224)" fill="#f2f1ec" stroke-width="0"/><ellipse rx="1.803" ry="0.5025" transform="matrix(.458459 0.447631-.624858 0.639973 41.008881 55.954223)" fill="#f2f1ec" stroke-width="0"/><ellipse rx="1.196641" ry="1.352388" transform="translate(42.204273 56.891495)" fill="#f2f1ec" stroke-width="0"/><ellipse rx="1.196641" ry="1.352388" transform="translate(41.860641 55.7305)" fill="#f2f1ec" stroke-width="0"/><path d="" transform="translate(1 1)" fill="none" stroke="#3f5787" stroke-width="0.128"/><path d="M39,55.568c.380992.63101.978458.514888.978458.514888Q40,54.566442,39,54.196c0,0-.212745,1.019645,0,1.372Z" transform="translate(1 1)" fill="#2f5373" stroke="#2f5373" stroke-width="0.128"/></g><g transform="matrix(.17 0 0 0.17 37.30522 33.30527)"><path d="M145.639,67.3372h-.001l-.009-.0086-16.825-2.4006c-2.365-.3368-4.009-2.527-3.672-4.8919.161-1.1364.768-2.1615,1.686-2.8503l13.599-10.199c1.911-1.4333,2.298-4.1442.865-6.0554L125.711,20.17c-1.433-1.9112-4.144-2.2983-6.055-.865L106.061,29.504c-1.903,1.4441-4.616,1.0721-6.06-.831-.7011-.924-1.0018-2.0913-.8342-3.2391L101.572,8.60853c.339-2.36485-1.303-4.55614-3.6676-4.89568l-.0049-.00054L72.2246,0.044472c-2.3643-.339534-4.5566,1.301908-4.8962,3.666758v.00108L64.9236,20.5377c-.3368,2.3648-2.5271,4.009-4.8919,3.6721-1.1365-.1616-2.1616-.7688-2.8504-1.6868L46.9866,8.92428c-1.4333-1.91124-4.1441-2.29835-6.0554-.86506L28.712926,18.552511L22.308139,23.40785c-.0643.1541-3.649054,2.433395-3.696654,2.593495-.1606,1.1353.008315,2.776555.697615,3.692955L29.5038,43.2886c1.0749,1.3912,1.1781,3.3019.2596,4.8011-.8846,1.5084-2.5947,2.3313-4.3253,2.0805L8.61271,47.7653c-2.36484-.339-4.55614,1.303-4.89568,3.6673l-.00053.0049L0.04433,77.1253c-.338994,2.3643,1.30299,4.5562,3.6673,4.8957l.00487.0006l16.8253,2.4048c2.3649.3368,4.009,2.5271,3.6722,4.8919-.1617,1.1365-.7688,2.1616-1.6869,2.8504L8.93278,102.363c-1.91124,1.434-2.29834,4.145-.86504,6.056L23.6387,129.18c1.4333,1.911,4.1442,2.298,6.0555.865L43.2928,119.85c1.9129-1.43,4.6238-1.039,6.0543.874.6845.916.9792,2.065.8186,3.197l-2.4005,16.825c-.3396,2.364,1.3019,4.557,3.6667,4.896h.0011l25.6922,3.672c.2022.026.406.039.6099.039c2.1534.003,3.9803-1.579,4.2863-3.711l2.4006-16.825c.3368-2.365,2.527-4.009,4.8918-3.672c1.1365.161,2.1616.768,2.8504,1.686l10.1988,13.595c1.434,1.911,4.144,2.298,6.056.865L129.18,125.72c1.911-1.433,2.298-4.144.865-6.056L119.85,106.07c-1.07-1.393-1.173-3.301-.259-4.801.865-1.5284,2.591-2.3567,4.325-2.0761l16.825,2.4001c2.365.34,4.557-1.302,4.897-3.6663v-.0011l3.668-25.6922c.339-2.3648-1.302-4.5566-3.667-4.8962Zm-8.427,7.7636l-2.35,16.3412-11.986-1.7111c-6.78-.9682-13.06,3.743-14.028,10.5221-.465,3.255.382,6.562,2.356,9.193l7.262,9.683-13.227,9.92-7.2658-9.68c-4.1084-5.479-11.8804-6.59-17.359-2.482-2.6308,1.973-4.3704,4.91-4.8364,8.165l-1.674,12.002-16.2949-2.329l1.5771-11.047c.0675-.472.108-.941.1226-1.407.7003-6.601-3.9479-12.625-10.574-13.573-3.2575-.467-6.5662.381-9.1986,2.355l-9.6841,7.262-9.8501-13.133l9.071-6.8086c.6352-.4764,1.2127-1.0012,1.7311-1.5655c4.428-4.2804,5.0812-11.2879,1.2903-16.3428-1.9726-2.6307-4.9098-4.3702-8.1652-4.8362L12.1426,73.9178l2.337-16.3457l11.3959,1.6268c.2237.0321.4469.058.6694.078c6.7497.9246,12.9887-3.7741,13.9553-10.5273.4665-3.2573-.3808-6.5658-2.3554-9.1981l-7.2869-9.692l13.2263-9.9193l7.2662,9.6837c4.1085,5.4789,11.8805,6.5902,17.3591,2.4819c2.3601-1.7695,4.0029-4.3153,4.6525-7.1707.1494-.5312.2645-1.0745.3436-1.6268L75.325,11.9649l16.2955,2.3254-1.7112,11.9859c-.9682,6.7792,3.7426,13.0594,10.5217,14.0275c2.817.4023,5.672-.1776,8.095-1.6194.639-.3261,1.253-.7084,1.835-1.1449l9.017-6.7613l9.851,13.1338-9.684,7.2659c-5.48,4.1083-6.591,11.8799-2.482,17.3583c1.972,2.6307,4.909,4.3702,8.165,4.8362l.333.0475c.216.0426.434.0797.653.111l10.998,1.57Z" clip-rule="evenodd" fill="#2f5373" fill-rule="evenodd"/><path d="M145.639,67.3372h-.001l-.009-.0086-16.825-2.4006c-2.365-.3368-4.009-2.527-3.672-4.8919.161-1.1364.768-2.1615,1.686-2.8503l13.599-10.199c1.911-1.4333,2.298-4.1442.865-6.0554L125.711,20.17c-1.433-1.9112-4.144-2.2983-6.055-.865L106.061,29.504c-1.903,1.4441-4.616,1.0721-6.06-.831-.7011-.924-1.0018-2.0913-.8342-3.2391L101.572,8.60853c.339-2.36485-1.303-4.55614-3.6676-4.89568l-.0049-.00054L72.2246,0.044472c-2.3643-.339534-4.5566,1.301908-4.8962,3.666758v.00108L64.9236,20.5377c-.3368,2.3648-2.5271,4.009-4.8919,3.6721-1.1365-.1616-2.1616-.7688-2.8504-1.6868L46.9866,8.92428c-1.4333-1.91124-4.1441-2.29835-6.0554-.86506L27.9338,17.8127l-9.2821,8.2051c-.0643.1541-.1211.3114-.1687.4715-.1606,1.1353.1368,2.2886.8261,3.205L29.5038,43.2886c1.0749,1.3912,1.1781,3.3019.2596,4.8011-.8846,1.5084-2.5947,2.3313-4.3253,2.0805L8.61271,47.7653c-2.36484-.339-4.55614,1.303-4.89568,3.6673l-.00053.0049L0.04433,77.1253c-.338994,2.3643,1.30299,4.5562,3.6673,4.8957l.00487.0006l16.8253,2.4048c2.3649.3368,4.009,2.5271,3.6722,4.8919-.1617,1.1365-.7688,2.1616-1.6869,2.8504L8.93278,102.363c-1.91124,1.434-2.29834,4.145-.86504,6.056L23.6387,129.18c1.4333,1.911,4.1442,2.298,6.0555.865L43.2928,119.85c1.9129-1.43,4.6238-1.039,6.0543.874.6845.916.9792,2.065.8186,3.197l-2.4005,16.825c-.3396,2.364,1.3019,4.557,3.6667,4.896h.0011l25.6922,3.672c.2022.026.406.039.6099.039c2.1534.003,3.9803-1.579,4.2863-3.711l2.4006-16.825c.3368-2.365,2.527-4.009,4.8918-3.672c1.1365.161,2.1616.768,2.8504,1.686l10.1988,13.595c1.434,1.911,4.144,2.298,6.056.865L129.18,125.72c1.911-1.433,2.298-4.144.865-6.056L119.85,106.07c-1.07-1.393-1.173-3.301-.259-4.801.865-1.5284,2.591-2.3567,4.325-2.0761l16.825,2.4001c2.365.34,4.557-1.302,4.897-3.6663v-.0011l3.668-25.6922c.339-2.3648-1.302-4.5566-3.667-4.8962Zm-8.427,7.7636l-2.35,16.3412-11.986-1.7111c-6.78-.9682-13.06,3.743-14.028,10.5221-.465,3.255.382,6.562,2.356,9.193l7.262,9.683-13.227,9.92-7.2658-9.68c-4.1084-5.479-11.8804-6.59-17.359-2.482-2.6308,1.973-4.3704,4.91-4.8364,8.165l-1.674,12.002-16.2949-2.329l1.5771-11.047c.0675-.472.108-.941.1226-1.407.7003-6.601-3.9479-12.625-10.574-13.573-3.2575-.467-6.5662.381-9.1986,2.355l-9.6841,7.262-9.8501-13.133l9.071-6.8086c.6352-.4764,1.2127-1.0012,1.7311-1.5655c4.428-4.2804,5.0812-11.2879,1.2903-16.3428-1.9726-2.6307-4.9098-4.3702-8.1652-4.8362L12.1426,73.9178l2.337-16.3457l11.3959,1.6268c.2237.0321.4469.058.6694.078c6.7497.9246,12.9887-3.7741,13.9553-10.5273.4665-3.2573-.3808-6.5658-2.3554-9.1981l-7.2869-9.692l13.2263-9.9193l7.2662,9.6837c4.1085,5.4789,11.8805,6.5902,17.3591,2.4819c2.3601-1.7695,4.0029-4.3153,4.6525-7.1707.1494-.5312.2645-1.0745.3436-1.6268L75.325,11.9649l16.2955,2.3254-1.7112,11.9859c-.9682,6.7792,3.7426,13.0594,10.5217,14.0275c2.817.4023,5.672-.1776,8.095-1.6194.639-.3261,1.253-.7084,1.835-1.1449l9.017-6.7613l9.851,13.1338-9.684,7.2659c-5.48,4.1083-6.591,11.8799-2.482,17.3583c1.972,2.6307,4.909,4.3702,8.165,4.8362l.333.0475c.216.0426.434.0797.653.111l10.998,1.57Z" transform="matrix(.99 0 0 0.99 0.746752 0.746765)" clip-rule="evenodd" fill="#2f5373" fill-rule="evenodd"/><path d="M74.625231,44.0003c-8.579652-.039924-17.075648,3.610484-23.086777,10.621925-10.051238,11.727093-10.051238,29.234183,0,40.961076c6.01083,7.011141,14.506425,10.661349,23.085677,10.622325c8.579952.040024,17.076448-3.610184,23.087578-10.622225c10.051038-11.726993,10.051038-29.234183.0003-40.961176-6.01113-7.011441-14.507126-10.661849-23.086777-10.621925Zm.0003,12.441526c-10.05384.05033-18.190095,8.386573-18.190095,18.660887c0,10.273814,8.135154,18.609757,18.188193,18.661188c10.05434-.04973,18.191295-8.386373,18.191295-18.661188c0-10.274115-8.135954-18.610157-18.189394-18.660887Z" transform="matrix(.83 0 0 0.83 12.682764 12.764306)" clip-rule="evenodd" fill="#2f5373" fill-rule="evenodd"/><path d="M74.5001,53.0002c-6.0233-.0282-11.9878,2.5538-16.2078,7.5133-7.0564,8.2949-7.0564,20.6782,0,28.9731c4.2198,4.9592,10.184,7.5412,16.207,7.5132c6.0235.0285,11.9883-2.5536,16.2084-7.5132c7.0564-8.2949,7.0564-20.6782.0001-28.9732-4.22-4.9594-10.1845-7.5414-16.2077-7.5132Zm.0002,8.8003C67.4421,61.8361,61.7302,67.7326,61.7302,75c0,7.267,5.7112,13.1633,12.7688,13.1996C81.5575,88.1645,87.27,82.2677,87.27,75c0-7.2672-5.7118-13.1636-12.7697-13.1995Z" transform="matrix(.7 0 0 0.7 22.350002 22.500001)" clip-rule="evenodd" fill="#f2f1ec" fill-rule="evenodd"/></g><ellipse rx="2.930389" ry="2.930389" transform="translate(40.073138 35.837955)" fill="#f2f1ec" stroke-width="0"/><rect width="9.774" height="14.083" rx="0" ry="0" transform="matrix(1.046483 0 0 0.538499 29.066948 48.844611)" fill="#f2f1ec" stroke-width="0"/><ellipse rx="0.303881" ry="0.466171" transform="matrix(.777793-.62852 0.62852 0.777793 24.672596 47.697307)" fill="#f2f1ec" stroke-width="0"/><rect width="0.337" height="0.714745" rx="0" ry="0" transform="matrix(.680502 0.696905-1.723828 1.683253 20.155459 42.057382)" fill="#f2f1ec" stroke-width="0"/><rect width="0.337" height="0.714745" rx="0" ry="0" transform="matrix(.692412 0.685074-1.172817 1.18538 16.929444 38.271624)" fill="#f2f1ec" stroke-width="0"/><rect width="1.031" height="0.959829" rx="0" ry="0" transform="matrix(1.178976-.983709 0.603623 0.723443 23.40705 48.348926)" fill="#f2f1ec" stroke-width="0"/><rect width="1.205" height="1.984596" rx="0" ry="0" transform="matrix(.891919-.452196 0.301366 0.59442 15.368574 37.58866)" fill="#f2f1ec" stroke-width="0"/><rect width="0.845377" height="1.571206" rx="0" ry="0" transform="matrix(.720945-.692992 0.692992 0.720945 20.290488 43.317847)" fill="#f2f1ec" stroke-width="0"/><rect width="0.384045" height="0.643299" rx="0" ry="0" transform="translate(24.615956 50.000001)" fill="#f2f1ec" stroke-width="0"/><rect width="2.182479" height="2.279013" rx="0" ry="0" transform="translate(22.969 48.029104)" fill="#f2f1ec" stroke-width="0"/><ellipse rx="0.239442" ry="0.268796" transform="translate(24.855397 50.321651)" fill="#f2f1ec" stroke-width="0"/><rect width="0.845377" height="1.571206" rx="0" ry="0" transform="matrix(.658706-.752401 0.752401 0.658706 19.654075 42.755792)" fill="#f2f1ec" stroke-width="0"/><rect width="1.205" height="1.984596" rx="0" ry="0" transform="matrix(.850646-.525738 0.525738 0.850646 14.861036 36.85138)" fill="#f2f1ec" stroke-width="0"/><g transform="translate(.000001 0.000001)"><rect width="1.5879" height="0.566446" rx="0" ry="0" transform="matrix(3.260597 1.140041-.330049 0.943964 36.799998 12.729144)" fill="#f2f1ec" stroke-width="0"/><rect width="1.5879" height="0.566446" rx="0" ry="0" transform="matrix(2.494974 2.388785-.691569 0.722311 44.240726 16.170718)" fill="#f2f1ec" stroke-width="0"/><rect width="1.5879" height="0.566446" rx="0" ry="0" transform="matrix(1.358003 3.176006-.919474 0.39315 48.950382 21.47628)" fill="#f2f1ec" stroke-width="0"/></g><g transform="translate(0-2)"><ellipse rx="0.828846" ry="3.003307" transform="matrix(.707746 0.706467-1.077077 1.079025 44.031222 42.150803)" fill="#f2f1ec" stroke-width="0"/><ellipse rx="0.828846" ry="3.003307" transform="matrix(.926454 0.376408-.220342 0.542328 47.255868 37.55495)" fill="#f2f1ec" stroke-width="0"/><ellipse rx="0.828846" ry="3.003307" transform="matrix(.961276 0.275587-.161323 0.562712 47.769233 36.238158)" fill="#f2f1ec" stroke-width="0"/><ellipse rx="0.828846" ry="3.003307" transform="matrix(.961276 0.275587-.161323 0.562712 46.921241 38.15647)" fill="#f2f1ec" stroke-width="0"/><ellipse rx="0.828846" ry="3.003307" transform="matrix(.869381 0.494142-.753366 1.325454 40.209818 45.955565)" fill="#f2f1ec" stroke-width="0"/><ellipse rx="0.828846" ry="3.003307" transform="matrix(.767704 0.640804-.976967 1.170438 40.209818 45.955565)" fill="#f2f1ec" stroke-width="0"/><ellipse rx="0.828846" ry="3.003307" transform="matrix(.762297 0.647228-.98676 1.162194 41.008881 45.22733)" fill="#f2f1ec" stroke-width="0"/><ellipse rx="0.828846" ry="3.003307" transform="matrix(.694921 0.719086-1.096315 1.059473 41.507365 44.690878)" fill="#f2f1ec" stroke-width="0"/><ellipse rx="0.828846" ry="3.003307" transform="matrix(.797395 0.603457-.920028 1.215705 40.69489 45.545998)" fill="#f2f1ec" stroke-width="0"/><ellipse rx="0.828846" ry="3.003307" transform="matrix(.797395 0.603457-.920028 1.215705 39.633238 44.690878)" fill="#f2f1ec" stroke-width="0"/><path d="M10.6381,226.452c6.9078,19.787,25.4095,33.329,46.7003,33.329s39.7926-13.542,46.7006-33.329c10.418-2.741,18.161-12.164,18.161-23.436c0-10.516-8.067-14.378-8.108-14.97.649-2.182,8.108-3.546,8.108-17.468c0-5.758-2.092-10.98-5.448-15.156c5.043-13.616,12.948-24.507,22.15-34.562l17.156-17.379c8.845-8.6363,17.707-17.4593,25.352-27.6609l11.408-18.6597c5.489-11.3937,9.259-24.6038,10.208-40.6604l-.163-16.21875-2.076297,7.704627c0,42.19308-24.867049,65.04843-47.357049,86.98423-15.486,15.1079-34.643812,32.916338-43.902812,55.679338-1.549-.317-10.004042-4.399445-11.649942-4.399445h-32.4308v-40.547c0-13.4128-10.9129-24.328-24.323-24.328h-16.2154c-4.4674,0-8.1077-3.633-8.1077-8.1094s3.6403-8.1094,8.1077-8.1094h89.634109c13.41,0,24.323-10.9152,24.323-24.3281s-10.913-24.3281-24.323-24.3281h-73.418709c-4.4674,0-8.1077-3.633-8.1077-8.10938h-16.2154C16.8,21.8035,27.7129,32.7188,41.1231,32.7188h73.418709c4.467,0,8.107,3.6329,8.107,8.1093s-3.64,7.83464-8.107,7.83464h-89.634109c-13.4102,0-24.323105,11.18996-24.323105,24.60286s10.912905,24.3282,24.323105,24.3282h16.2154c4.4673,0,8.1076,3.6332,8.1076,8.1092v40.547h-32.4307c-1.6459,0-3.2512.17-4.7998.487L16.8,162.469h81.0769c4.4671,0,8.1081,3.633,8.1081,8.109c0,4.477-3.641,8.11-8.1081,8.11h-81.0769v16.218h81.0769c4.4671,0,8.1081,3.633,8.1081,8.11c0,4.476-3.641,8.109-8.1081,8.109h-81.0769l-6.1619,15.327Zm18.1288.892c5.9187,9.845,16.5965,16.218,28.5715,16.218c11.9751,0,22.6529-6.373,28.5715-16.218h-57.143Z" transform="matrix(.116866 0 0 0.12292 26.027483 32.018376)" clip-rule="evenodd" fill="#2f5373" fill-rule="evenodd"/><ellipse rx="0.828846" ry="3.003307" transform="matrix(.797395 0.603457-.920028 1.215705 38.97232 44.121749)" fill="#f2f1ec" stroke-width="0"/><ellipse rx="0.828846" ry="3.003307" transform="matrix(.888258 0.886653-1.077077 1.079025 43.373 40.979698)" fill="#f2f1ec" stroke-width="0"/><ellipse rx="0.828846" ry="3.003307" transform="matrix(.860956 1.279225-1.264814 0.851256 43.340598 40.309202)" fill="#f2f1ec" stroke-width="0"/><ellipse rx="0.828846" ry="3.003307" transform="matrix(.860956 1.279225-1.264814 0.851256 40.775706 41.974819)" fill="#f2f1ec" stroke-width="0"/><ellipse rx="0.828846" ry="3.003307" transform="matrix(.860956 1.279225-1.264814 0.851256 38.124549 44.528614)" fill="#f2f1ec" stroke-width="0"/><line x1="-0.40499" y1="0.624138" x2="0.40499" y2="-0.624138" transform="translate(38.790777 49.254207)" fill="#f2f1ec" stroke="#f2f1ec" stroke-width="0.4"/><ellipse rx="0.927443" ry="1.6755" transform="matrix(.752141-.659003 1.042789 1.190168 46.337555 19.660681)" fill="#f2f1ec" stroke-width="0"/><ellipse rx="0.927443" ry="1.6755" transform="translate(50.695595 26.109219)" fill="#f2f1ec" stroke-width="0"/><ellipse rx="0.927443" ry="1.6755" transform="translate(50.199622 24.916492)" fill="#f2f1ec" stroke-width="0"/><ellipse rx="6.32271" ry="4.019" transform="translate(50.353932 17.019)" fill="#f2f1ec" stroke-width="0"/><rect width="14.778" height="12.987" rx="0" ry="0" transform="translate(50.222 14.364)" fill="#f2f1ec" stroke-width="0"/><rect width="26.338" height="14.925" rx="0" ry="0" transform="translate(38.662 1)" fill="#f2f1ec" stroke-width="0"/><ellipse rx="2.78" ry="2.52665" transform="translate(18.985 46.746993)" fill="#f2f1ec" stroke-width="0"/><rect width="15.392" height="12.04482" rx="0" ry="0" transform="translate(9.414 49.606)" fill="#f2f1ec" stroke-width="0"/><rect width="6.05" height="19.905134" rx="0" ry="0" transform="translate(13 44.094866)" fill="#f2f1ec" stroke-width="0"/><ellipse rx="0.927443" ry="1.6755" transform="matrix(.466013-.884778 1.40005 0.737408 40.377055 15.610446)" fill="#f2f1ec" stroke-width="0"/><rect width="14.254" height="27.260947" rx="0" ry="0" transform="translate(1 37.739054)" fill="#f2f1ec" stroke-width="0"/><ellipse rx="2" ry="3.108463" transform="translate(15 41.582415)" fill="#f2f1ec" stroke-width="0"/><line x1="-0.301638" y1="0" x2="0.301638" y2="0" transform="matrix(.708161-.706051 0.706051 0.708161 45.287929 17.447709)" fill="none" stroke="#f2f1ec" stroke-width="0.64"/><ellipse rx="0.531254" ry="0.305594" transform="translate(45.340309 17.355087)" fill="#f2f1ec" stroke-width="0"/><line x1="-0.301638" y1="0" x2="0.301638" y2="0" transform="matrix(.708161-.706051 0.706051 0.708161 45.287929 17.447709)" fill="none" stroke="#f2f1ec" stroke-width="0.64"/></g><g transform="translate(0-2)"><path d="M41.144,71.552L112.512,0.176025L120.352,14.96L59.312,76L88,104.688l58.696-58.696l11.424,11.2L99.312,116L128,144.688l55.832-55.84.808,21.816-52.184,52.192L29.208,202.568c-2.472.944-5.064,1.432-7.712,1.432C9.648,204,0,194.36,0,182.504c0-2.648.48-5.24,1.432-7.704L41.144,71.552ZM51.048,90.36l62.592,62.592-52.992,20.384-29.984-29.984L51.048,90.36ZM16,182.504c0,3.712,4.008,6.472,7.472,5.128l20.832-8.016-19.928-19.928-8.016,20.848c-.232.624-.36,1.288-.36,1.968Z" transform="matrix(.130486 0 0 0.130486 1.752383 37.905186)" clip-rule="evenodd" fill="#2f5373" fill-rule="evenodd"/><path d="M184.08,110.232L91.5039,202.808l-6.544-16.08L127.688,144L98.9999,115.312l-18.492,18.496-18.492,18.496-11.296-11.336L87.6879,104L58.9999,75.312L16.3119,118L0.295898,111.4L92.7759,18.912C104.968,6.72,121.184,0,138.432,0C174.032,0,203,28.968,203,64.568c0,17.248-6.72,33.464-18.92,45.664ZM138.432,16C165.208,16,187,37.792,187,64.568c0,12.968-5.048,25.168-14.224,34.344L163,108.688L94.3119,40l9.7761-9.776C113.264,21.056,125.456,16,138.432,16ZM82.9999,51.312L70.3119,64L139,132.688L151.688,120L82.9999,51.312Z" transform="matrix(.127385 0 0 0.127385 38.348101 2.715282)" clip-rule="evenodd" fill="#2f5373" fill-rule="evenodd"/></g><rect width="1.824093" height="2.320671" rx="0" ry="0" transform="translate(36.687024 45.681207)" fill="#f2f1ec" stroke-width="0"/><rect width="1.824093" height="2.320671" rx="0" ry="0" transform="translate(35.687024 45.681207)" fill="#f2f1ec" stroke-width="0"/><rect width="1.824093" height="2.320671" rx="0" ry="0" transform="matrix(.217809-.20066 0.290495 0.315321 43.003527 44.942313)" fill="#f2f1ec" stroke-width="0"/><rect width="1.824093" height="2.320671" rx="0" ry="0" transform="matrix(2.123647 0 0 1 36.922701 38.040118)" fill="#f2f1ec" stroke-width="0"/><rect width="1.824093" height="2.320671" rx="0" ry="0" transform="matrix(2.123647 0 0 1.562375 42.263136 33.926174)" fill="#f2f1ec" stroke-width="0"/><rect width="1.824093" height="2.320671" rx="0" ry="0" transform="matrix(2.123647 0 0 1.562375 34.718952 38.812003)" fill="#f2f1ec" stroke-width="0"/><rect width="1.824093" height="2.320671" rx="0" ry="0" transform="matrix(2.607267 0 0 1.732032 43.003527 32.000001)" fill="#f2f1ec" stroke-width="0"/><rect width="1.824093" height="2.320671" rx="0" ry="0" transform="matrix(3.464961 0 0 1.874776 43.3 30.15)" fill="#f2f1ec" stroke-width="0"/><rect width="1.824093" height="2.320671" rx="0" ry="0" transform="translate(35.958066 44.021343)" fill="#f2f1ec" stroke-width="0"/><rect width="15" height="24.875613" rx="0" ry="0" transform="matrix(1 0 0 1.02502 0 2.813194)" fill="#f2f1ec" stroke-width="0"/><rect width="9.255574" height="10" rx="0" ry="0" transform="translate(31 18)" fill="#f2f1ec" stroke-width="0"/><rect width="5.764" height="9.446262" rx="0" ry="0" transform="matrix(1 0 0 0.97043 29.618 15.195029)" fill="#f2f1ec" stroke-width="0"/><rect width="28.955" height="14.586" rx="0" ry="0" transform="matrix(.941603 0 0 1.735775 4.890443 2.69608)" fill="#f2f1ec" stroke-width="0"/><rect width="3.764" height="0.458195" rx="0" ry="0" transform="matrix(1.032349 0 0 1 30.939119 15.104)" fill="#f2f1ec" stroke-width="0"/><rect width="14.95" height="3.375865" rx="0" ry="0" transform="matrix(1 0 0 1.15578 21.259194 9.151053)" fill="#f2f1ec" stroke-width="0"/><g transform="matrix(.127169 0 0 0.127169 1.717679 3.583552)"><path d="M255.56,72.352C244.52,53.064,223.776,40,200,40c-6.088,0-11.96.912-17.552,2.504C168.64,16.544,141.816,0,112,0C67.888,0,32,35.888,32,80c0,6.128.752,12.16,2.12,18.064C14.4,104.032,0,122.36,0,144c0,26.472,21.528,48,48,48h58.032h16.432h85.536h16h40c22.056,0,40-17.944,40-40s-17.944-40-40-40c-.112,0-.22.016-.328.032s-.216.032-.328.032c.344-2.672.656-5.344.656-8.064c0-5.232-.704-10.296-1.888-15.168l-6.552-16.48ZM48,112c-17.648,0-32,14.352-32,32s14.352,32,32,32h216c13.232,0,24-10.768,24-24s-10.768-24-24-24-24,10.768-24,24h-16c0-15.648,9.12-29.088,22.24-35.656c1.072-4.016,1.76-8.136,1.76-12.344c0-26.472-21.528-48-48-48-24.192,0-44.2,18-47.48,41.296C166.016,101.056,176,113.32,176,128h-16c0-8.824-7.176-16-16-16s-16,7.176-16,16h-16c0-15.016,10.432-27.552,24.4-30.992c2.248-20.568,14.296-38.192,31.352-48.2C156.52,28.72,135.4,16,112,16C76.712,16,48,44.712,48,80c0,5.472.688,10.872,2.048,16.104C75.56,97.184,96,118.224,96,144h-16c0-17.648-14.352-32-32-32Z" clip-rule="evenodd" fill="#f2f1ec" fill-rule="evenodd"/><path d="M16,144c0-17.648,14.352-32,32-32s32,14.352,32,32h16c0-25.776-20.44-46.816-45.952-47.896C48.688,90.872,48,85.472,48,80c0-35.288,28.712-64,64-64c23.4,0,44.52,12.72,55.752,32.808-17.056,10.008-29.104,27.632-31.352,48.2C122.432,100.448,112,112.984,112,128h16c0-8.824,7.176-16,16-16s16,7.176,16,16h16c0-14.68-9.984-26.944-23.48-30.704C155.8,74,175.808,56,200,56c26.472,0,48,21.528,48,48c0,4.208-.688,8.328-1.76,12.344C233.12,122.912,224,136.352,224,152h16c0-13.232,10.768-24,24-24s24,10.768,24,24-10.768,24-24,24h-216c-17.648,0-32-14.352-32-32Z" fill="#f2f1ec"/><path d="M255.56,72.352C244.52,53.064,223.776,40,200,40c-6.088,0-11.96.912-17.552,2.504C168.64,16.544,141.816,0,112,0C67.888,0,32,35.888,32,80c0,6.128.752,12.16,2.12,18.064C14.4,104.032,0,122.36,0,144c0,26.472,21.528,48,48,48h58.032h16.432h85.536h16h40c22.056,0,40-17.944,40-40s-17.944-40-40-40c-.112,0-.22.016-.328.032s-.216.032-.328.032c.344-2.672.656-5.344.656-8.064c0-5.232-.704-10.296-1.888-15.168l-6.552-16.48ZM48,112c-17.648,0-32,14.352-32,32s14.352,32,32,32h216c13.232,0,24-10.768,24-24s-10.768-24-24-24-24,10.768-24,24h-16c0-15.648,9.12-29.088,22.24-35.656c1.072-4.016,1.76-8.136,1.76-12.344c0-26.472-21.528-48-48-48-24.192,0-44.2,18-47.48,41.296C166.016,101.056,176,113.32,176,128h-16c0-8.824-7.176-16-16-16s-16,7.176-16,16h-16c0-15.016,10.432-27.552,24.4-30.992c2.248-20.568,14.296-38.192,31.352-48.2C156.52,28.72,135.4,16,112,16C76.712,16,48,44.712,48,80c0,5.472.688,10.872,2.048,16.104C75.56,97.184,96,118.224,96,144h-16c0-17.648-14.352-32-32-32Z" clip-rule="evenodd" fill="#2f5373" fill-rule="evenodd"/></g><ellipse rx="0.943106" ry="0.943106" transform="matrix(1.063645 0 0 0.898174 37.980213 55.158799)" fill="#f2f1ec" stroke-width="0"/><ellipse rx="0.943106" ry="0.943106" transform="matrix(1.063645 0 0 0.93985 37.947228 54.9)" fill="#f2f1ec" stroke-width="0"/><ellipse rx="0.943106" ry="0.943106" transform="matrix(1.063645 0 0 0.93985 37.95 50.89)" fill="#f2f1ec" stroke-width="0"/><ellipse rx="0.943106" ry="0.943106" transform="matrix(1.063645 0 0 0.898174 37.980213 51.158799)" fill="#f2f1ec" stroke-width="0"/><ellipse rx="1.11" ry="1.721409" transform="matrix(.706468 0 0 1 25.78418 50.56602)" fill="#2f5373" stroke-width="0"/><rect width="2.217023" height="0.918818" rx="0" ry="0" transform="translate(35.627787 49.997286)" fill="#f2f1ec" stroke-width="0"/><rect width="2.270542" height="1.134343" rx="0" ry="0" transform="translate(35.627787 54)" fill="#f2f1ec" stroke-width="0"/><path d="M12.616793,12.949508c-1.225162,1.748846-2.645232,3.26136-4.06269,4.74192L5.804951,20.670513c-1.474618,1.723886-2.74138,3.590915-3.549485,5.924915L0,25.106571c1.483716-3.902229,4.032805-6.5796,6.514313-9.16956c3.604066-3.76044,7.008048-7.313726,7.008048-14.546832l2.436726-.872772.121461,2.262959c-.152026,2.752542-.75617,5.017148-1.635746,6.970354l-1.828009,3.198788Z" transform="matrix(.771118 0 0 0.765559 38.54 29.054118)" fill="#2f5373"/></svg>