<svg width="65" height="65" viewBox="0 0 65 65" fill="none" xmlns="http://www.w3.org/2000/svg">
<g clip-path="url(#clip0_45_968)">
<path d="M37.95 51.4099C38.504 51.4099 38.9532 51.0131 38.9532 50.5235C38.9532 50.034 38.504 49.6371 37.95 49.6371C37.396 49.6371 36.9469 50.034 36.9469 50.5235C36.9469 51.0131 37.396 51.4099 37.95 51.4099Z" fill="#F2F1EC"/>
<path d="M37.9802 51.6394C38.5342 51.6394 38.9833 51.2602 38.9833 50.7923C38.9833 50.3245 38.5342 49.9453 37.9802 49.9453C37.4262 49.9453 36.9771 50.3245 36.9771 50.7923C36.9771 51.2602 37.4262 51.6394 37.9802 51.6394Z" fill="#F2F1EC"/>
<path d="M37.9802 55.6394C38.5342 55.6394 38.9833 55.2602 38.9833 54.7923C38.9833 54.3245 38.5342 53.9453 37.9802 53.9453C37.4262 53.9453 36.9771 54.3245 36.9771 54.7923C36.9771 55.2602 37.4262 55.6394 37.9802 55.6394Z" fill="#F2F1EC"/>
<path d="M37.8983 53.6335H35.6278V54.7679H37.8983V53.6335Z" fill="#F2F1EC"/>
<path d="M37.8448 49.6309H35.6278V50.5497H37.8448V49.6309Z" fill="#F2F1EC"/>
<path d="M40.7965 37.6736H36.9227V39.9943H40.7965V37.6736Z" fill="#F2F1EC"/>
<path d="M39 38H35V47H39V38Z" fill="#F2F1EC"/>
<path d="M60.16 41.4115C59.857 40.6855 60.018 39.8605 60.569 39.3085L62.024 37.8525L57.78 33.6085L56.323 35.0645C55.772 35.6165 54.946 35.7765 54.182 35.4565C53.464 35.1605 53 34.4665 53 33.6885V31.6335H50.949C50.858 30.0205 50.559 28.4615 50.063 26.9845L61.635 15.4125C63.16 13.8875 64 11.8605 64 9.70455C64 5.25455 60.379 1.63354 55.929 1.63354C53.773 1.63354 51.746 2.47354 50.222 3.99755L38.662 15.5585C37.167 15.0565 35.582 14.7645 33.945 14.6775C32.565 12.2665 29.972 10.6335 27 10.6335C26.239 10.6335 25.505 10.7475 24.806 10.9465C23.08 7.70154 19.727 5.63354 16 5.63354C10.486 5.63354 6 10.1195 6 15.6335C6 16.3995 6.094 17.1535 6.265 17.8915C3.8 18.6375 2 20.9285 2 23.6335C2 26.9425 4.691 29.6335 8 29.6335H15.254C15.088 30.6225 15 31.6265 15 32.6335C15 34.8345 15.407 36.6255 16.064 38.1555L7.143 47.0775L2.179 59.9835C2.06 60.2915 2 60.6155 2 60.9465C2 62.4285 3.206 63.6335 4.687 63.6335C5.018 63.6335 5.342 63.5725 5.651 63.4545L18.557 58.4905L25.08 51.9665C25.031 52.1815 25 52.4035 25 52.6335C25 53.4045 25.301 54.1015 25.78 54.6335C25.3 55.1655 25 55.8625 25 56.6335C25 58.0235 25.955 59.1855 27.24 59.5235C28.092 61.9635 30.374 63.6335 33 63.6335C35.626 63.6335 37.908 61.9635 38.76 59.5235C40.045 59.1855 41 58.0235 41 56.6335C41 56.5585 40.005 54.8605 40 54.7875L42.22 57.6575L43.677 56.2015C44.228 55.6495 45.051 55.4885 45.817 55.8075C46.535 56.1065 47 56.8005 47 57.5785V59.6335H53V57.5785C53 56.8005 53.465 56.1055 54.222 55.7925C54.948 55.4905 55.773 55.6495 56.324 56.2015L57.78 57.6575L62.024 53.4135L60.569 51.9575C60.018 51.4055 59.857 50.5805 60.176 49.8165C60.473 49.0985 61.167 48.6335 61.945 48.6335H64V42.6335H61.945C61.167 42.6335 60.473 42.1685 60.16 41.4115V41.4115ZM45.176 44.3595C46.267 43.2945 47.36 42.2065 48.303 40.9485C48.847 40.7505 49.413 40.6335 50 40.6335C52.757 40.6335 55 42.8765 55 45.6335C55 48.3905 52.757 50.6335 50 50.6335C47.243 50.6335 45 48.3905 45 45.6335C45 45.2005 45.067 44.7745 45.176 44.3595ZM46.377 20.6715L51 16.0475L54.586 19.6335L49.245 24.9745C48.496 23.4025 47.528 21.9565 46.377 20.6715V20.6715ZM47.414 9.63354L49 8.04754L57.586 16.6335L56 18.2195L47.414 9.63354ZM55.929 3.63354C59.276 3.63354 62 6.35755 62 9.70455C62 11.3255 61.369 12.8505 60.222 13.9975L59 15.2195L50.414 6.63354L51.636 5.41154C52.783 4.26554 54.307 3.63354 55.929 3.63354ZM46 11.0475L49.586 14.6335L44.965 19.2545C43.681 18.1025 42.236 17.1335 40.664 16.3835L46 11.0475ZM49 32.6335C49 37.8365 46.38 40.3925 43.606 43.0975C41.696 44.9605 39.734 46.8865 38.592 49.6935C38.401 49.6545 38.203 49.6335 38 49.6335H34V44.6335C34 42.9795 32.654 41.6335 31 41.6335H29C28.449 41.6335 28 41.1855 28 40.6335C28 40.0815 28.449 39.6335 29 39.6335H39C40.654 39.6335 42 38.2875 42 36.6335C42 34.9795 40.654 33.6335 39 33.6335H31C30.449 33.6335 30 33.1855 30 32.6335V29.6335H35C37.757 29.6335 40 27.3905 40 24.6335C40 21.8765 37.757 19.6335 35 19.6335C34.972 19.6335 34.946 19.6415 34.918 19.6415C34.961 19.3075 35 18.9735 35 18.6335C35 17.9795 34.912 17.3465 34.764 16.7375C42.736 17.6255 49 24.4675 49 32.6335ZM27 52.6335C27 52.0815 27.449 51.6335 28 51.6335H38C38.551 51.6335 39 52.0815 39 52.6335C39 53.1855 38.551 53.6335 38 53.6335H28C27.449 53.6335 27 53.1855 27 52.6335ZM14.414 52.6335L21.765 45.2825C22.995 46.5025 24.137 47.7365 24.979 49.2395L18 56.2195L14.414 52.6335ZM4 23.6335C4 21.4275 5.794 19.6335 8 19.6335C10.206 19.6335 12 21.4275 12 23.6335H14C14 20.4115 11.445 17.7815 8.256 17.6465C8.086 16.9925 8 16.3175 8 15.6335C8 11.2225 11.589 7.63354 16 7.63354C18.925 7.63354 21.565 9.22354 22.969 11.7345C20.837 12.9855 19.331 15.1885 19.05 17.7595C17.304 18.1895 16 19.7565 16 21.6335H18C18 20.5305 18.897 19.6335 20 19.6335C21.103 19.6335 22 20.5305 22 21.6335H24C24 19.7985 22.752 18.2655 21.065 17.7955C21.475 14.8835 23.976 12.6335 27 12.6335C30.309 12.6335 33 15.3245 33 18.6335C33 19.1595 32.914 19.6745 32.78 20.1765C31.14 20.9975 30 22.6775 30 24.6335H32C32 22.9795 33.346 21.6335 35 21.6335C36.654 21.6335 38 22.9795 38 24.6335C38 26.2875 36.654 27.6335 35 27.6335H8C5.794 27.6335 4 25.8395 4 23.6335ZM28 29.6335V32.6335C28 34.2875 29.346 35.6335 31 35.6335H39C39.551 35.6335 40 36.0815 40 36.6335C40 37.1855 39.551 37.6335 39 37.6335H29C27.346 37.6335 26 38.9795 26 40.6335C26 42.2875 27.346 43.6335 29 43.6335H31C31.551 43.6335 32 44.0815 32 44.6335V49.6335H28C27.797 49.6335 27.599 49.6545 27.408 49.6935C26.266 46.8865 24.304 44.9605 22.394 43.0975C19.62 40.3925 17 37.8365 17 32.6335C17 31.6225 17.121 30.6205 17.308 29.6335H28ZM20.337 43.8825L13 51.2195L9.414 47.6335L17.044 40.0035C17.983 41.4775 19.147 42.7075 20.337 43.8825V43.8825ZM8.381 49.4285L16.205 57.2525L9.581 59.8005L5.833 56.0525L8.381 49.4285ZM4.934 61.5875C4.501 61.7555 4 61.4105 4 60.9465C4 60.8615 4.016 60.7785 4.045 60.7005L5.047 58.0945L7.538 60.5855L4.934 61.5875ZM33 61.6335C31.523 61.6335 30.206 60.8475 29.476 59.6335H36.524C35.794 60.8475 34.477 61.6335 33 61.6335ZM38 57.6335H28C27.449 57.6335 27 57.1855 27 56.6335C27 56.0815 27.449 55.6335 28 55.6335H38C38.551 55.6335 39 56.0815 39 56.6335C39 57.1855 38.551 57.6335 38 57.6335ZM62 46.6335H61.945C60.354 46.6335 58.934 47.5835 58.314 49.0855C57.698 50.5625 58.028 52.2445 59.154 53.3715L59.196 53.4135L57.78 54.8295L57.738 54.7875C56.61 53.6595 54.926 53.3285 53.419 53.9605C51.95 54.5685 51 55.9875 51 57.5785V57.6335H49V57.5785C49 55.9875 48.05 54.5675 46.548 53.9465C45.069 53.3295 43.387 53.6605 42.261 54.7875L42.219 54.8295L40 54.7875C40.08 54.5185 41 52.9275 41 52.6335C41 51.9235 40.742 51.2795 40.328 50.7645C40.95 49.0855 41.925 47.7425 43.06 46.5025C43.49 49.9525 46.435 52.6335 50 52.6335C53.86 52.6335 57 49.4925 57 45.6335C57 41.7745 53.86 38.6335 50 38.6335C49.902 38.6335 49.807 38.6435 49.71 38.6475C50.387 37.2425 50.852 35.6135 50.969 33.6335H51V33.6885C51 35.2795 51.95 36.7005 53.451 37.3195C54.927 37.9375 56.611 37.6075 57.738 36.4795L57.78 36.4375L59.196 37.8535L59.154 37.8955C58.028 39.0225 57.698 40.7055 58.327 42.2135C58.934 43.6835 60.354 44.6335 61.945 44.6335H62V46.6335Z" fill="#2F5373"/>
<path d="M60.16 41.4115C59.857 40.6855 60.018 39.8605 60.569 39.3085L62.024 37.8525L57.78 33.6085L56.323 35.0645C55.772 35.6165 54.946 35.7765 54.182 35.4565C53.464 35.1605 53 34.4665 53 33.6885V31.6335H50.949C50.858 30.0205 50.559 28.4615 50.063 26.9845L61.635 15.4125C63.16 13.8875 64 11.8605 64 9.70455C64 5.25455 60.379 1.63354 55.929 1.63354C53.773 1.63354 51.746 2.47354 50.222 3.99755L38.662 15.5585C37.167 15.0565 35.582 14.7645 33.945 14.6775C32.565 12.2665 29.972 10.6335 27 10.6335C26.239 10.6335 25.505 10.7475 24.806 10.9465C23.08 7.70154 19.727 5.63354 16 5.63354C10.486 5.63354 6 10.1195 6 15.6335C6 16.3995 6.094 17.1535 6.265 17.8915C3.8 18.6375 2 20.9285 2 23.6335C2 26.9425 4.691 29.6335 8 29.6335H15.254C15.088 30.6225 15 31.6265 15 32.6335C15 34.8345 15.407 36.6255 16.064 38.1555L7.143 47.0775L2.179 59.9835C2.06 60.2915 2 60.6155 2 60.9465C2 62.4285 3.206 63.6335 4.687 63.6335C5.018 63.6335 5.342 63.5725 5.651 63.4545L18.557 58.4905L25.08 51.9665C25.031 52.1815 25 52.4035 25 52.6335C25 53.4045 25.301 54.1015 25.78 54.6335C25.3 55.1655 25 55.8625 25 56.6335C25 58.0235 25.955 59.1855 27.24 59.5235C28.092 61.9635 30.374 63.6335 33 63.6335C35.626 63.6335 37.908 61.9635 38.76 59.5235C40.045 59.1855 41 58.0235 41 56.6335C41 56.5585 40.005 54.8605 40 54.7875L42.22 57.6575L43.677 56.2015C44.228 55.6495 45.051 55.4885 45.817 55.8075C46.535 56.1065 47 56.8005 47 57.5785V59.6335H53V57.5785C53 56.8005 53.465 56.1055 54.222 55.7925C54.948 55.4905 55.773 55.6495 56.324 56.2015L57.78 57.6575L62.024 53.4135L60.569 51.9575C60.018 51.4055 59.857 50.5805 60.176 49.8165C60.473 49.0985 61.167 48.6335 61.945 48.6335H64V42.6335H61.945C61.167 42.6335 60.473 42.1685 60.16 41.4115ZM45.176 44.3595C46.267 43.2945 47.36 42.2065 48.303 40.9485C48.847 40.7505 49.413 40.6335 50 40.6335C52.757 40.6335 55 42.8765 55 45.6335C55 48.3905 52.757 50.6335 50 50.6335C47.243 50.6335 45 48.3905 45 45.6335C45 45.2005 45.067 44.7745 45.176 44.3595ZM46.377 20.6715L51 16.0475L54.586 19.6335L49.245 24.9745C48.496 23.4025 47.528 21.9565 46.377 20.6715ZM47.414 9.63354L49 8.04754L57.586 16.6335L56 18.2195L47.414 9.63354ZM55.929 3.63354C59.276 3.63354 62 6.35755 62 9.70455C62 11.3255 61.369 12.8505 60.222 13.9975L59 15.2195L50.414 6.63354L51.636 5.41154C52.783 4.26554 54.307 3.63354 55.929 3.63354ZM46 11.0475L49.586 14.6335L44.965 19.2545C43.681 18.1025 42.236 17.1335 40.664 16.3835L46 11.0475ZM49 32.6335C49 37.8365 46.38 40.3925 43.606 43.0975C41.696 44.9605 39.734 46.8865 38.592 49.6935C38.401 49.6545 38.203 49.6335 38 49.6335H34V44.6335C34 42.9795 32.654 41.6335 31 41.6335H29C28.449 41.6335 28 41.1855 28 40.6335C28 40.0815 28.449 39.6335 29 39.6335H39C40.654 39.6335 42.2 38.2875 42.2 36.6335C42.2 34.9795 40.654 33.6335 39 33.6335H31C30.449 33.6335 30 33.1855 30 32.6335V29.6335H35C37.757 29.6335 40 27.3905 40 24.6335C40 21.8765 37.757 19.6335 35 19.6335C34.972 19.6335 34.946 19.6415 34.918 19.6415C34.961 19.3075 35 18.9735 35 18.6335C35 17.9795 34.912 17.3465 34.764 16.7375C42.736 17.6255 49 24.4675 49 32.6335ZM27 52.6335C27 52.0815 27.449 51.6335 28 51.6335H38C38.551 51.6335 39 52.0815 39 52.6335C39 53.1855 38.551 53.6335 38 53.6335H28C27.449 53.6335 27 53.1855 27 52.6335ZM14.414 52.6335L21.765 45.2825C22.995 46.5025 24.137 47.7365 24.979 49.2395L18 56.2195L14.414 52.6335ZM4 23.6335C4 21.4275 5.794 19.6335 8 19.6335C10.206 19.6335 12 21.4275 12 23.6335H14C14 20.4115 11.445 17.7815 8.256 17.6465C8.086 16.9925 8 16.3175 8 15.6335C8 11.2225 11.589 7.63354 16 7.63354C18.925 7.63354 21.565 9.22354 22.969 11.7345C20.837 12.9855 19.331 15.1885 19.05 17.7595C17.304 18.1895 16 19.7565 16 21.6335H18C18 20.5305 18.897 19.6335 20 19.6335C21.103 19.6335 22 20.5305 22 21.6335H24C24 19.7985 22.752 18.2655 21.065 17.7955C21.475 14.8835 23.976 12.6335 27 12.6335C30.309 12.6335 33 15.3245 33 18.6335C33 19.1595 32.914 19.6745 32.78 20.1765C31.14 20.9975 30 22.6775 30 24.6335H32C32 22.9795 33.346 21.6335 35 21.6335C36.654 21.6335 38 22.9795 38 24.6335C38 26.2875 36.654 27.6335 35 27.6335H8C5.794 27.6335 4 25.8395 4 23.6335ZM28 29.6335V32.6335C28 34.2875 29.346 35.6335 31 35.6335H39C39.551 35.6335 40 36.0815 40 36.6335C40 37.1855 39.551 37.6335 39 37.6335H29C27.346 37.6335 26 38.9795 26 40.6335C26 42.2875 27.346 43.6335 29 43.6335H31C31.551 43.6335 32 44.0815 32 44.6335V49.6335H28C27.797 49.6335 27.599 49.6545 27.408 49.6935C26.266 46.8865 24.304 44.9605 22.394 43.0975C19.62 40.3925 17 37.8365 17 32.6335C17 31.6225 17.121 30.6205 17.308 29.6335H28ZM20.337 43.8825L13 51.2195L9.414 47.6335L17.044 40.0035C17.983 41.4775 19.147 42.7075 20.337 43.8825ZM8.381 49.4285L16.205 57.2525L9.581 59.8005L5.833 56.0525L8.381 49.4285ZM4.934 61.5875C4.501 61.7555 4 61.4105 4 60.9465C4 60.8615 4.016 60.7785 4.045 60.7005L5.047 58.0945L7.538 60.5855L4.934 61.5875ZM33 61.6335C31.523 61.6335 30.206 60.8475 29.476 59.6335H36.524C35.794 60.8475 34.477 61.6335 33 61.6335ZM38 57.6335H28C27.449 57.6335 27 57.1855 27 56.6335C27 56.0815 27.449 55.6335 28 55.6335H38C38.551 55.6335 39 56.0815 39 56.6335C39 57.1855 38.551 57.6335 38 57.6335ZM62 46.6335H61.945C60.354 46.6335 58.934 47.5835 58.314 49.0855C57.698 50.5625 58.028 52.2445 59.154 53.3715L59.196 53.4135L57.78 54.8295L57.738 54.7875C56.61 53.6595 54.926 53.3285 53.419 53.9605C51.95 54.5685 51 55.9875 51 57.5785V57.6335H49V57.5785C49 55.9875 48.05 54.5675 46.548 53.9465C45.069 53.3295 43.387 53.6605 42.261 54.7875L42.219 54.8295L40 54.7875C40.08 54.5185 41 52.9275 41 52.6335C41 51.9235 40.742 51.2795 40.328 50.7645C40.95 49.0855 41.925 47.7425 43.06 46.5025C43.49 49.9525 46.435 52.6335 50 52.6335C53.86 52.6335 57 49.4925 57 45.6335C57 41.7745 53.86 38.6335 50 38.6335C49.902 38.6335 49.807 38.6435 49.71 38.6475C50.387 37.2425 50.852 35.6135 50.969 33.6335H51V33.6885C51 35.2795 51.95 36.7005 53.451 37.3195C54.927 37.9375 56.611 37.6075 57.738 36.4795L57.78 36.4375L59.196 37.8535L59.154 37.8955C58.028 39.0225 57.698 40.7055 58.327 42.2135C58.934 43.6835 60.354 44.6335 61.945 44.6335H62V46.6335Z" fill="#2F5373"/>
<path d="M64.97 29.6335H50.97V61.5875H64.97V29.6335Z" fill="#F2F1EC"/>
<path d="M55 30H42V60H55V30Z" fill="#F2F1EC"/>
<path d="M7.586 -0.366455H0V9.63354H7.586V-0.366455Z" fill="#F2F1EC"/>
<path d="M7.586 -0.366455H0V9.63354H7.586V-0.366455Z" fill="#F2F1EC"/>
<path d="M50.1996 38.312L48.7856 41.105" stroke="#F2F1EC" stroke-width="0.64"/>
<path d="M40.978 52.6336C40.9927 53.5089 40.6667 54.2269 40 54.7875V52.6336C40.6373 51.7582 40.9633 51.7582 40.978 52.6336Z" fill="#2F5373" stroke="#2F5373" stroke-width="0.128"/>
<path d="M42.0555 55.1727C43.1908 55.1727 44.1111 55.0388 44.1111 54.8738C44.1111 54.7087 43.1908 54.5749 42.0555 54.5749C40.9203 54.5749 40 54.7087 40 54.8738C40 55.0388 40.9203 55.1727 42.0555 55.1727Z" fill="#F2F1EC"/>
<path d="M42.2043 57.8774C42.8652 57.8774 43.401 57.272 43.401 56.5251C43.401 55.7782 42.8652 55.1727 42.2043 55.1727C41.5434 55.1727 41.0077 55.7782 41.0077 56.5251C41.0077 57.272 41.5434 57.8774 42.2043 57.8774Z" fill="#F2F1EC"/>
<path d="M41.8607 56.7164C42.5216 56.7164 43.0573 56.1109 43.0573 55.364C43.0573 54.6171 42.5216 54.0117 41.8607 54.0117C41.1998 54.0117 40.6641 54.6171 40.6641 55.364C40.6641 56.1109 41.1998 56.7164 41.8607 56.7164Z" fill="#F2F1EC"/>
<path d="M40.0001 56.2015C40.3811 56.8325 40.9785 56.7164 40.9785 56.7164C40.9929 55.7055 40.6667 55.0765 40.0001 54.8295C40.0001 54.8295 39.7873 55.8492 40.0001 56.2015Z" fill="#2F5373" stroke="#2F5373" stroke-width="0.128"/>
<path fill-rule="evenodd" clip-rule="evenodd" d="M62.0638 44.3862H62.0636L62.0621 44.3847L59.2019 43.9766C58.7998 43.9193 58.5203 43.547 58.5776 43.145C58.605 42.9518 58.7082 42.7775 58.8642 42.6604L61.1761 40.9266C61.5009 40.6829 61.5667 40.2221 61.3231 39.8972L58.676 36.3677C58.4324 36.0428 57.9716 35.977 57.6467 36.2207L55.3355 37.9545C55.012 38.2 54.5508 38.1368 54.3053 37.8133C54.1862 37.6562 54.135 37.4577 54.1635 37.2626L54.5724 34.4023C54.63 34.0003 54.3509 33.6277 53.9489 33.57L53.9481 33.5699L49.5834 32.9464C49.1814 32.8887 48.8087 33.1677 48.751 33.5698V33.5699L48.3422 36.4303C48.2849 36.8323 47.9126 37.1118 47.5106 37.0545C47.3174 37.027 47.1431 36.9238 47.026 36.7678L45.2929 34.456C45.0492 34.1311 44.5884 34.0653 44.2635 34.3089L42.1864 36.0928L41.0976 36.9182C41.0866 36.9444 40.4772 37.3319 40.4691 37.3591C40.4418 37.5521 40.4705 37.8311 40.5877 37.9869L42.3208 40.2979C42.5036 40.5344 42.5211 40.8592 42.365 41.1141C42.2146 41.3705 41.9239 41.5104 41.6297 41.4678L38.7693 41.0589C38.3673 41.0013 37.9948 41.2805 37.9371 41.6824L37.937 41.6832L37.3127 46.0501C37.2551 46.4521 37.5342 46.8247 37.9362 46.8824L37.937 46.8825L40.7973 47.2913C41.1993 47.3486 41.4788 47.7209 41.4216 48.123C41.3941 48.3162 41.2909 48.4904 41.1348 48.6075L38.8237 50.3406C38.4988 50.5843 38.433 51.0452 38.6767 51.3701L41.3238 54.8994C41.5674 55.2243 42.0283 55.2901 42.3532 55.0465L44.665 53.3133C44.9901 53.0702 45.451 53.1367 45.6942 53.4619C45.8105 53.6176 45.8606 53.813 45.8333 54.0054L45.4253 56.8657C45.3675 57.2675 45.6466 57.6404 46.0486 57.698H46.0488L50.4165 58.3222C50.4508 58.3266 50.4855 58.3289 50.5201 58.3289C50.8862 58.3294 51.1968 58.0604 51.2488 57.698L51.6569 54.8377C51.7142 54.4357 52.0865 54.1562 52.4885 54.2135C52.6817 54.2409 52.856 54.3441 52.9731 54.5001L54.7069 56.8113C54.9507 57.1361 55.4114 57.2019 55.7364 56.9583L59.2658 54.3112C59.5906 54.0676 59.6564 53.6068 59.4128 53.2817L57.6797 50.9707C57.4978 50.7339 57.4803 50.4096 57.6356 50.1546C57.7827 49.8947 58.0761 49.7539 58.3709 49.8016L61.2311 50.2097C61.6332 50.2675 62.0058 49.9883 62.0636 49.5864V49.5862L62.6872 45.2185C62.7448 44.8165 62.4659 44.4439 62.0638 44.3862V44.3862ZM60.6312 45.706L60.2317 48.484L58.1941 48.1931C57.0415 48.0285 55.9739 48.8294 55.8093 49.9819C55.7303 50.5352 55.8743 51.0974 56.2099 51.5447L57.4444 53.1908L55.1958 54.8772L53.9606 53.2316C53.2622 52.3001 51.941 52.1113 51.0096 52.8096C50.5624 53.145 50.2666 53.6443 50.1874 54.1977L49.9028 56.238L47.1327 55.8421L47.4008 53.9641C47.4123 53.8839 47.4192 53.8041 47.4216 53.7249C47.5407 52.6027 46.7505 51.5787 45.6241 51.4175C45.0703 51.3381 44.5078 51.4823 44.0603 51.8179L42.414 53.0524L40.7395 50.8198L42.2816 49.6623C42.3895 49.5813 42.4877 49.4921 42.5758 49.3962C43.3286 48.6685 43.4396 47.4772 42.7952 46.6179C42.4598 46.1707 41.9605 45.875 41.4071 45.7958L39.3694 45.5049L39.7667 42.7261L41.704 43.0027C41.742 43.0081 41.78 43.0125 41.8178 43.0159C42.9653 43.1731 44.0259 42.3743 44.1902 41.2263C44.2695 40.6725 44.1255 40.1101 43.7898 39.6626L42.551 38.015L44.7995 36.3287L46.0347 37.9749C46.7332 38.9063 48.0544 39.0952 48.9858 38.3968C49.387 38.096 49.6663 37.6632 49.7767 37.1778C49.8021 37.0875 49.8217 36.9951 49.8351 36.9013L50.1104 34.9729L52.8807 35.3682L52.5898 37.4058C52.4252 38.5583 53.226 39.6259 54.3784 39.7905C54.8573 39.8589 55.3427 39.7603 55.7546 39.5152C55.8632 39.4597 55.9676 39.3947 56.0665 39.3205L57.5994 38.1711L59.2741 40.4039L57.6278 41.6391C56.6962 42.3375 56.5074 43.6587 57.2059 44.59C57.5411 45.0372 58.0404 45.3329 58.5939 45.4121L58.6505 45.4202C58.6873 45.4275 58.7243 45.4338 58.7616 45.4391L60.6312 45.706V45.706Z" fill="#2F5373"/>
<path fill-rule="evenodd" clip-rule="evenodd" d="M61.9432 44.3986H61.943L61.9415 44.3972L59.1098 43.9932C58.7118 43.9365 58.4351 43.5679 58.4918 43.1699C58.5189 42.9786 58.6211 42.8061 58.7756 42.6902L61.0643 40.9737C61.3859 40.7324 61.4511 40.2762 61.2099 39.9546L58.5893 36.4604C58.3481 36.1388 57.8919 36.0736 57.5702 36.3148L55.2822 38.0313C54.9619 38.2744 54.5053 38.2118 54.2623 37.8915C54.1443 37.736 54.0937 37.5395 54.1219 37.3463L54.5267 34.5146C54.5838 34.1166 54.3074 33.7478 53.9094 33.6907L53.9086 33.6906L49.5875 33.0733C49.1896 33.0161 48.8207 33.2924 48.7635 33.6904V33.6906L48.3588 36.5223C48.3021 36.9203 47.9335 37.197 47.5355 37.1403C47.3442 37.1131 47.1717 37.0109 47.0557 36.8564L45.34 34.5678C45.0987 34.2461 44.6425 34.1809 44.3208 34.4222L42.1334 36.0637L40.5712 37.4446C40.5604 37.4705 40.5508 37.497 40.5428 37.5239C40.5158 37.715 40.5658 37.9091 40.6819 38.0633L42.3976 40.3513C42.5785 40.5854 42.5959 40.907 42.4413 41.1593C42.2924 41.4132 42.0046 41.5516 41.7134 41.5094L38.8816 41.1047C38.4836 41.0476 38.1148 41.324 38.0577 41.7219L38.0576 41.7227L37.4396 46.046C37.3825 46.4439 37.6589 46.8128 38.0568 46.8699L38.0576 46.87L40.8893 47.2748C41.2873 47.3314 41.564 47.7001 41.5073 48.0981C41.4801 48.2893 41.378 48.4619 41.2234 48.5778L38.9355 50.2935C38.6139 50.5348 38.5487 50.9911 38.7899 51.3127L41.4105 54.8068C41.6517 55.1284 42.108 55.1935 42.4297 54.9524L44.7183 53.2365C45.0402 52.9959 45.4965 53.0617 45.7372 53.3836C45.8524 53.5378 45.902 53.7312 45.875 53.9217L45.471 56.7533C45.4139 57.1512 45.6901 57.5203 46.0881 57.5773H46.0883L50.4123 58.1953C50.4463 58.1997 50.4806 58.2019 50.5149 58.2019C50.8774 58.2024 51.1848 57.9362 51.2363 57.5773L51.6404 54.7457C51.697 54.3477 52.0656 54.071 52.4636 54.1277C52.6549 54.1548 52.8274 54.257 52.9434 54.4115L54.6598 56.6995C54.9012 57.0211 55.3573 57.0862 55.679 56.8451L59.1731 54.2245C59.4947 53.9833 59.5599 53.527 59.3187 53.2052L57.6029 50.9174C57.4228 50.6829 57.4055 50.3618 57.5593 50.1094C57.7049 49.8521 57.9954 49.7127 58.2872 49.76L61.1188 50.1639C61.5169 50.2211 61.8858 49.9448 61.943 49.5469V49.5467L62.5603 45.2227C62.6174 44.8247 62.3412 44.4558 61.9432 44.3986V44.3986ZM60.5249 45.7053L60.1294 48.4555L58.1122 48.1675C56.9711 48.0046 55.9142 48.7975 55.7512 49.9384C55.673 50.4862 55.8155 51.0428 56.1478 51.4856L57.37 53.1152L55.1439 54.7847L53.921 53.1556C53.2296 52.2335 51.9215 52.0465 50.9995 52.7379C50.5567 53.0699 50.264 53.5642 50.1855 54.112L49.9038 56.132L47.1614 55.74L47.4268 53.8808C47.4382 53.8014 47.445 53.7224 47.4474 53.644C47.5653 52.5331 46.783 51.5192 45.6678 51.3597C45.1196 51.2811 44.5627 51.4238 44.1197 51.756L42.4899 52.9782L40.8321 50.7679L42.3587 49.622C42.4656 49.5419 42.5628 49.4535 42.6501 49.3586C43.3953 48.6382 43.5053 47.4588 42.8672 46.6081C42.5353 46.1653 42.0409 45.8726 41.493 45.7941L39.4757 45.5062L39.869 42.7552L41.787 43.029C41.8246 43.0344 41.8622 43.0387 41.8996 43.0421C43.0356 43.1977 44.0856 42.4069 44.2483 41.2704C44.3268 40.7221 44.1842 40.1653 43.8519 39.7223L42.6255 38.0911L44.8515 36.4217L46.0744 38.0515C46.7659 38.9736 48.0739 39.1606 48.9959 38.4692C49.3931 38.1714 49.6696 37.7429 49.779 37.2624C49.8041 37.173 49.8235 37.0815 49.8368 36.9886L50.1093 35.0795L52.8519 35.4709L52.5639 37.4881C52.4009 38.629 53.1937 39.686 54.3347 39.8489C54.8088 39.9166 55.2893 39.819 55.6971 39.5764C55.8046 39.5215 55.9079 39.4571 56.0059 39.3837L57.5234 38.2457L59.1814 40.4562L57.5516 41.679C56.6293 42.3704 56.4423 43.6784 57.1338 44.6004C57.4657 45.0432 57.96 45.3359 58.508 45.4144L58.564 45.4223C58.6004 45.4295 58.6371 45.4358 58.6739 45.441L60.5249 45.7053V45.7053Z" fill="#2F5373"/>
<path fill-rule="evenodd" clip-rule="evenodd" d="M49.9909 41.3172C48.7803 41.3116 47.5815 41.8267 46.7334 42.816C45.3151 44.4707 45.3151 46.9409 46.7334 48.5956C47.5815 49.5849 48.7802 50.0999 49.9907 50.0944C51.2014 50.1001 52.4002 49.585 53.2484 48.5956C54.6666 46.9409 54.6666 44.4707 53.2484 42.816C52.4003 41.8267 51.2015 41.3116 49.9909 41.3172V41.3172ZM49.9909 43.0727C48.5723 43.0798 47.4243 44.2561 47.4243 45.7058C47.4243 47.1554 48.5722 48.3316 49.9907 48.3389C51.4093 48.3319 52.5575 47.1556 52.5575 45.7058C52.5575 44.2561 51.4095 43.0799 49.9909 43.0727H49.9909Z" fill="#2F5373"/>
<path fill-rule="evenodd" clip-rule="evenodd" d="M49.9701 43.0709C49.2534 43.0675 48.5436 43.3748 48.0414 43.965C47.2017 44.9521 47.2017 46.4257 48.0414 47.4128C48.5436 48.0029 49.2533 48.3102 49.97 48.3068C50.6868 48.3102 51.3966 48.003 51.8988 47.4128C52.7385 46.4257 52.7385 44.9521 51.8988 43.965C51.3967 43.3748 50.6869 43.0675 49.9701 43.0709ZM49.9702 44.1181C49.1302 44.1224 48.4505 44.824 48.4505 45.6889C48.4505 46.5536 49.1301 47.2553 49.97 47.2596C50.81 47.2554 51.4898 46.5537 51.4898 45.6889C51.4898 44.8241 50.81 44.1224 49.9702 44.1181V44.1181Z" fill="#F2F1EC"/>
<path d="M40.9304 39.8608C42.5488 39.8608 43.8608 38.5488 43.8608 36.9304C43.8608 35.312 42.5488 34 40.9304 34C39.312 34 38 35.312 38 36.9304C38 38.5488 39.312 39.8608 40.9304 39.8608Z" fill="#F2F1EC"/>
<path d="M38 50H29V56H38V50Z" fill="#F2F1EC"/>
<path d="M1.205 -0.366455H0V1.61814H1.205V-0.366455Z" fill="#F2F1EC"/>
<path d="M0.845377 -0.366455H0V1.20475H0.845377V-0.366455Z" fill="#F2F1EC"/>
<path d="M25 49.6335H24.616V50.2768H25V49.6335Z" fill="#F2F1EC"/>
<path d="M24 48L22.969 47.6627V49.9417L25.5 50L24 48Z" fill="#F2F1EC"/>
<path d="M24.8554 50.224C24.9876 50.224 25.0949 50.1036 25.0949 49.9552C25.0949 49.8067 24.9876 49.6864 24.8554 49.6864C24.7232 49.6864 24.616 49.8067 24.616 49.9552C24.616 50.1036 24.7232 50.224 24.8554 50.224Z" fill="#F2F1EC"/>
<path d="M0.845377 -0.366455H0V1.20475H0.845377V-0.366455Z" fill="#F2F1EC"/>
<path d="M1.205 -0.366455H0V1.61814H1.205V-0.366455Z" fill="#F2F1EC"/>
<path d="M-1.14441e-05 2.63686C0.457748 2.63686 0.828835 1.29224 0.828835 -0.366444C0.828835 -2.02512 0.457748 -3.36975 -1.14441e-05 -3.36975C-0.45777 -3.36975 -0.828857 -2.02512 -0.828857 -0.366444C-0.828857 1.29224 -0.45777 2.63686 -1.14441e-05 2.63686Z" fill="#F2F1EC"/>
<path d="M-1.14441e-05 2.63686C0.457748 2.63686 0.828835 1.29224 0.828835 -0.366444C0.828835 -2.02512 0.457748 -3.36975 -1.14441e-05 -3.36975C-0.45777 -3.36975 -0.828857 -2.02512 -0.828857 -0.366444C-0.828857 1.29224 -0.45777 2.63686 -1.14441e-05 2.63686Z" fill="#F2F1EC"/>
<path d="M-1.14441e-05 2.63686C0.457748 2.63686 0.828835 1.29224 0.828835 -0.366444C0.828835 -2.02512 0.457748 -3.36975 -1.14441e-05 -3.36975C-0.45777 -3.36975 -0.828857 -2.02512 -0.828857 -0.366444C-0.828857 1.29224 -0.45777 2.63686 -1.14441e-05 2.63686Z" fill="#F2F1EC"/>
<path d="M-1.14441e-05 2.63686C0.457748 2.63686 0.828835 1.29224 0.828835 -0.366444C0.828835 -2.02512 0.457748 -3.36975 -1.14441e-05 -3.36975C-0.45777 -3.36975 -0.828857 -2.02512 -0.828857 -0.366444C-0.828857 1.29224 -0.45777 2.63686 -1.14441e-05 2.63686Z" fill="#F2F1EC"/>
<path d="M-1.14441e-05 2.63686C0.457748 2.63686 0.828835 1.29224 0.828835 -0.366444C0.828835 -2.02512 0.457748 -3.36975 -1.14441e-05 -3.36975C-0.45777 -3.36975 -0.828857 -2.02512 -0.828857 -0.366444C-0.828857 1.29224 -0.45777 2.63686 -1.14441e-05 2.63686Z" fill="#F2F1EC"/>
<path d="M-1.14441e-05 2.63686C0.457748 2.63686 0.828835 1.29224 0.828835 -0.366444C0.828835 -2.02512 0.457748 -3.36975 -1.14441e-05 -3.36975C-0.45777 -3.36975 -0.828857 -2.02512 -0.828857 -0.366444C-0.828857 1.29224 -0.45777 2.63686 -1.14441e-05 2.63686Z" fill="#F2F1EC"/>
<path d="M-1.14441e-05 2.63686C0.457748 2.63686 0.828835 1.29224 0.828835 -0.366444C0.828835 -2.02512 0.457748 -3.36975 -1.14441e-05 -3.36975C-0.45777 -3.36975 -0.828857 -2.02512 -0.828857 -0.366444C-0.828857 1.29224 -0.45777 2.63686 -1.14441e-05 2.63686Z" fill="#F2F1EC"/>
<path d="M-1.14441e-05 2.63686C0.457748 2.63686 0.828835 1.29224 0.828835 -0.366444C0.828835 -2.02512 0.457748 -3.36975 -1.14441e-05 -3.36975C-0.45777 -3.36975 -0.828857 -2.02512 -0.828857 -0.366444C-0.828857 1.29224 -0.45777 2.63686 -1.14441e-05 2.63686Z" fill="#F2F1EC"/>
<path d="M-1.14441e-05 2.63686C0.457748 2.63686 0.828835 1.29224 0.828835 -0.366444C0.828835 -2.02512 0.457748 -3.36975 -1.14441e-05 -3.36975C-0.45777 -3.36975 -0.828857 -2.02512 -0.828857 -0.366444C-0.828857 1.29224 -0.45777 2.63686 -1.14441e-05 2.63686Z" fill="#F2F1EC"/>
<path d="M-1.14441e-05 2.63686C0.457748 2.63686 0.828835 1.29224 0.828835 -0.366444C0.828835 -2.02512 0.457748 -3.36975 -1.14441e-05 -3.36975C-0.45777 -3.36975 -0.828857 -2.02512 -0.828857 -0.366444C-0.828857 1.29224 -0.45777 2.63686 -1.14441e-05 2.63686Z" fill="#F2F1EC"/>
<path d="M-1.14441e-05 2.63686C0.457748 2.63686 0.828835 1.29224 0.828835 -0.366444C0.828835 -2.02512 0.457748 -3.36975 -1.14441e-05 -3.36975C-0.45777 -3.36975 -0.828857 -2.02512 -0.828857 -0.366444C-0.828857 1.29224 -0.45777 2.63686 -1.14441e-05 2.63686Z" fill="#F2F1EC"/>
<path d="M-1.14441e-05 2.63686C0.457748 2.63686 0.828835 1.29224 0.828835 -0.366444C0.828835 -2.02512 0.457748 -3.36975 -1.14441e-05 -3.36975C-0.45777 -3.36975 -0.828857 -2.02512 -0.828857 -0.366444C-0.828857 1.29224 -0.45777 2.63686 -1.14441e-05 2.63686Z" fill="#F2F1EC"/>
<path d="M-1.14441e-05 2.63686C0.457748 2.63686 0.828835 1.29224 0.828835 -0.366444C0.828835 -2.02512 0.457748 -3.36975 -1.14441e-05 -3.36975C-0.45777 -3.36975 -0.828857 -2.02512 -0.828857 -0.366444C-0.828857 1.29224 -0.45777 2.63686 -1.14441e-05 2.63686Z" fill="#F2F1EC"/>
<path d="M-1.14441e-05 2.63686C0.457748 2.63686 0.828835 1.29224 0.828835 -0.366444C0.828835 -2.02512 0.457748 -3.36975 -1.14441e-05 -3.36975C-0.45777 -3.36975 -0.828857 -2.02512 -0.828857 -0.366444C-0.828857 1.29224 -0.45777 2.63686 -1.14441e-05 2.63686Z" fill="#F2F1EC"/>
<path d="M-1.14441e-05 2.63686C0.457748 2.63686 0.828835 1.29224 0.828835 -0.366444C0.828835 -2.02512 0.457748 -3.36975 -1.14441e-05 -3.36975C-0.45777 -3.36975 -0.828857 -2.02512 -0.828857 -0.366444C-0.828857 1.29224 -0.45777 2.63686 -1.14441e-05 2.63686Z" fill="#F2F1EC"/>
<path d="M38.3857 49.5119L39.1957 48.2636" stroke="#F2F1EC" stroke-width="0.4"/>
<path d="M-4.72069e-05 1.30907C0.512165 1.30907 0.927396 0.558922 0.927396 -0.366431C0.927396 -1.29178 0.512165 -2.04193 -4.72069e-05 -2.04193C-0.51226 -2.04193 -0.92749 -1.29178 -0.92749 -0.366431C-0.92749 0.558922 -0.51226 1.30907 -4.72069e-05 1.30907Z" fill="#F2F1EC"/>
<path d="M50.6955 27.4183C51.2077 27.4183 51.623 26.6681 51.623 25.7428C51.623 24.8174 51.2077 24.0673 50.6955 24.0673C50.1833 24.0673 49.7681 24.8174 49.7681 25.7428C49.7681 26.6681 50.1833 27.4183 50.6955 27.4183Z" fill="#F2F1EC"/>
<path d="M50.1995 26.2256C50.7118 26.2256 51.127 25.4754 51.127 24.5501C51.127 23.6247 50.7118 22.8746 50.1995 22.8746C49.6873 22.8746 49.2721 23.6247 49.2721 24.5501C49.2721 25.4754 49.6873 26.2256 50.1995 26.2256Z" fill="#F2F1EC"/>
<path d="M49.5 21C52.9919 21 56.6765 18.8722 56.6765 16.6525C56.6765 14.4329 53.8458 12.6335 50.3538 12.6335C46.8619 12.6335 44 14.7804 44 17C44 19.2196 46.0081 21 49.5 21Z" fill="#F2F1EC"/>
<path d="M64.9999 13.9976H50.2219V26.9846H64.9999V13.9976Z" fill="#F2F1EC"/>
<path d="M65 0.633545H38.662V15.5585H65V0.633545Z" fill="#F2F1EC"/>
<path d="M18.985 48.9072C20.5203 48.9072 21.765 47.776 21.765 46.3805C21.765 44.9851 20.5203 43.8539 18.985 43.8539C17.4496 43.8539 16.205 44.9851 16.205 46.3805C16.205 47.776 17.4496 48.9072 18.985 48.9072Z" fill="#F2F1EC"/>
<path d="M24.8059 49.2396H9.41394V61.2844H24.8059V49.2396Z" fill="#F2F1EC"/>
<path d="M19.05 43.7284H13V63.6335H19.05V43.7284Z" fill="#F2F1EC"/>
<path d="M-4.72069e-05 1.30907C0.512165 1.30907 0.927396 0.558922 0.927396 -0.366431C0.927396 -1.29178 0.512165 -2.04193 -4.72069e-05 -2.04193C-0.51226 -2.04193 -0.92749 -1.29178 -0.92749 -0.366431C-0.92749 0.558922 -0.51226 1.30907 -4.72069e-05 1.30907Z" fill="#F2F1EC"/>
<path d="M15.254 37.3726H1V64.6336H15.254V37.3726Z" fill="#F2F1EC"/>
<path d="M15 44.3244C16.1046 44.3244 17 42.9327 17 41.2159C17 39.4992 16.1046 38.1075 15 38.1075C13.8954 38.1075 13 39.4992 13 41.2159C13 42.9327 13.8954 44.3244 15 44.3244Z" fill="#F2F1EC"/>
<path d="M45.3402 17.2942C45.6336 17.2942 45.8715 17.1574 45.8715 16.9886C45.8715 16.8199 45.6336 16.683 45.3402 16.683C45.0468 16.683 44.809 16.8199 44.809 16.9886C44.809 17.1574 45.0468 17.2942 45.3402 17.2942Z" fill="#F2F1EC"/>
<path fill-rule="evenodd" clip-rule="evenodd" d="M27.2706 59.4874C28.0779 61.9197 30.2401 63.5842 32.7283 63.5842C35.2165 63.5842 37.3787 61.9197 38.186 59.4874C39.4035 59.1505 40.3084 57.9922 40.3084 56.6067C40.3084 55.3141 39.3657 54.8393 39.3609 54.7666C39.4367 54.4984 40.3084 54.3307 40.3084 52.6194C40.3084 51.9116 40.0639 51.2697 39.6717 50.7564C40.2611 49.0827 41.1849 47.744 42.2603 46.5081L44.2653 44.3718C45.2989 43.3103 46.3346 42.2257 47.228 40.9718L48.5613 38.6781C49.2027 37.2776 49.6433 35.6538 49.7542 33.6801L49.7352 31.6865L49.4925 32.6336C49.4925 37.8199 46.5864 40.6293 43.9581 43.3257C42.1483 45.1827 40.0821 46.831 39 49.629C38.819 49.59 37.6582 49.629 37.4659 49.629H33.6758V44.645C33.6758 42.9963 32.4005 41.6546 30.8333 41.6546H28.9382C28.4162 41.6546 27.9907 41.208 27.9907 40.6578C27.9907 40.1075 28.4162 39.661 28.9382 39.661H39.4134C40.9806 39.661 42.256 38.3193 42.256 36.6705C42.256 35.0218 40.9806 33.6801 39.4134 33.6801H30.8333C30.3112 33.6801 29.8858 33.2336 29.8858 32.6833H27.9907C27.9907 34.332 29.2661 35.6737 30.8333 35.6737H39.4134C39.9355 35.6737 40.3609 36.1203 40.3609 36.6705C40.3609 37.2208 39.9355 37.6336 39.4134 37.6336H28.9382C27.3711 37.6336 26.0957 39.009 26.0957 40.6578C26.0957 42.3065 27.3711 43.6482 28.9382 43.6482H30.8333C31.3554 43.6482 31.7808 44.0948 31.7808 44.645V49.629H27.9907C27.7984 49.629 27.6108 49.6499 27.4298 49.6889L27.9907 51.6226H37.4659C37.9879 51.6226 38.4134 52.0692 38.4134 52.6194C38.4134 53.1697 37.9879 53.6163 37.4659 53.6163H27.9907V55.6098H37.4659C37.9879 55.6098 38.4134 56.0564 38.4134 56.6067C38.4134 57.1569 37.9879 57.6034 37.4659 57.6034H27.9907L27.2706 59.4874ZM29.3893 59.5971C30.081 60.8072 31.3288 61.5906 32.7283 61.5906C34.1278 61.5906 35.3756 60.8072 36.0673 59.5971H29.3893Z" fill="#2F5373"/>
<path fill-rule="evenodd" clip-rule="evenodd" d="M7.12116 46.8753L16.4337 37.5617L17.4567 39.4908L9.49183 47.4557L13.2352 51.1991L20.8942 43.54L22.3849 45.0015L14.7113 52.6751L18.4546 56.4185L25.7399 49.1322L25.8454 51.9788L19.0361 58.7892L5.56368 63.971C5.24112 64.0942 4.9029 64.1579 4.55737 64.1579C3.01137 64.1579 1.75244 62.9 1.75244 61.353C1.75244 61.0074 1.81507 60.6692 1.9393 60.3477L7.12116 46.8753ZM8.41349 49.3295L16.5809 57.4968L9.66616 60.1567L5.75366 56.2442L8.41349 49.3295ZM3.84022 61.353C3.84022 61.8373 4.36321 62.1975 4.81521 62.0221L7.53349 60.9761L4.93317 58.3758L3.88719 61.0962C3.85692 61.1776 3.84022 61.2642 3.84022 61.353Z" fill="#2F5373"/>
<path fill-rule="evenodd" clip-rule="evenodd" d="M61.7972 16.3907L50.0044 28.1835L49.1708 26.1352L54.6137 20.6923L50.9593 17.0378L48.6037 19.3939L46.2481 21.7501L44.8091 20.306L49.5183 15.5969L45.8639 11.9424L40.4261 17.3802L38.3859 16.5395L50.1664 4.75792C51.7195 3.20484 53.7852 2.34882 55.9823 2.34882C60.5172 2.34882 64.2073 6.03891 64.2073 10.5738C64.2073 12.7709 63.3513 14.8366 61.7972 16.3907V16.3907ZM55.9823 4.38698C59.3932 4.38698 62.1692 7.16295 62.1692 10.5738C62.1692 12.2257 61.5261 13.7798 60.3572 14.9487L59.1119 16.194L50.3621 7.44422L51.6074 6.1989C52.7763 5.03103 54.3294 4.38698 55.9823 4.38698ZM48.9211 8.8852L47.3049 10.5015L56.0547 19.2513L57.6709 17.635L48.9211 8.8852Z" fill="#2F5373"/>
<path d="M38.5111 45.3148H36.687V47.6354H38.5111V45.3148Z" fill="#F2F1EC"/>
<path d="M37.5111 45.3148H35.687V47.6354H37.5111V45.3148Z" fill="#F2F1EC"/>
<path d="M1.82409 -0.366455H0V1.95422H1.82409V-0.366455Z" fill="#F2F1EC"/>
<path d="M47 34H43L42.5 36.5L42 38.5L40.5 39.5L36.5 41L38 47L40 47.5L47 40V34Z" fill="#F2F1EC"/>
<path d="M47.7594 31.6335H43.0035V35.653H47.7594V31.6335Z" fill="#F2F1EC"/>
<path d="M49.6205 29.7836H43.3V34.1343H49.6205V29.7836Z" fill="#F2F1EC"/>
<path d="M37.7821 43.6549H35.958V45.9756H37.7821V43.6549Z" fill="#F2F1EC"/>
<path d="M15 2.44672H0V27.9447H15V2.44672Z" fill="#F2F1EC"/>
<path d="M39 18L31 17.6335V27.6335H40.2556L39 18Z" fill="#F2F1EC"/>
<path d="M33.6562 14.8286H29.618V23.9955H35.382L33.6562 14.8286Z" fill="#F2F1EC"/>
<path d="M32.1546 2.32965H4.8905V27.6477H32.1546V2.32965Z" fill="#F2F1EC"/>
<path d="M33.8248 14.7375H30.9391V15.1957H33.8248V14.7375Z" fill="#F2F1EC"/>
<path d="M36.2092 8.78461H21.2592V12.6864H36.2092V8.78461Z" fill="#F2F1EC"/>
<path fill-rule="evenodd" clip-rule="evenodd" d="M34.217 14.418C32.813 11.9652 30.175 10.3039 27.1515 10.3039C26.3772 10.3039 25.6305 10.4198 24.9194 10.6223C23.1634 7.32099 19.7523 5.2171 15.9606 5.2171C10.3509 5.2171 5.78706 9.78094 5.78706 15.3906C5.78706 16.1699 5.88269 16.937 6.05666 17.6878C3.54888 18.4467 1.71765 20.7775 1.71765 23.5294C1.71765 26.8959 4.45535 29.6335 7.82176 29.6335H15.2016H17.2913H28.1688H30.2035H35.2903C38.0951 29.6335 40.377 27.3516 40.377 24.5468C40.377 21.742 38.0951 19.46 35.2903 19.46C35.276 19.46 35.2623 19.4621 35.2486 19.4641C35.2348 19.4661 35.2211 19.4682 35.2068 19.4682C35.2506 19.1284 35.2903 18.7886 35.2903 18.4427C35.2903 17.7773 35.2007 17.1333 35.0502 16.5138L34.217 14.418V14.418ZM7.82176 19.46C5.57748 19.46 3.75236 21.2852 3.75236 23.5294C3.75236 25.7737 5.57748 27.5988 7.82176 27.5988H35.2903C36.973 27.5988 38.3423 26.2295 38.3423 24.5468C38.3423 22.8641 36.973 21.4947 35.2903 21.4947C33.6076 21.4947 32.2382 22.8641 32.2382 24.5468H30.2035C30.2035 22.5568 31.3633 20.8477 33.0317 20.0125C33.1681 19.5017 33.2556 18.9778 33.2556 18.4427C33.2556 15.0763 30.5179 12.3386 27.1515 12.3386C24.075 12.3386 21.5306 14.6276 21.1135 17.5901C22.8297 18.0683 24.0994 19.6279 24.0994 21.4947H22.0647C22.0647 20.3726 21.1521 19.46 20.03 19.46C18.9078 19.46 17.9953 20.3726 17.9953 21.4947H15.9606C15.9606 19.5852 17.2872 17.991 19.0635 17.5535C19.3494 14.9379 20.8815 12.6967 23.0505 11.424C21.6221 8.8694 18.9363 7.25181 15.9606 7.25181C11.473 7.25181 7.82176 10.9031 7.82176 15.3906C7.82176 16.0865 7.90926 16.7732 8.08221 17.4386C11.3265 17.5759 13.9259 20.2515 13.9259 23.5294H11.8912C11.8912 21.2852 10.066 19.46 7.82176 19.46Z" fill="#F2F1EC"/>
<path d="M3.75232 23.5295C3.75232 21.2852 5.57745 19.4601 7.82173 19.4601C10.066 19.4601 11.8911 21.2852 11.8911 23.5295H13.9258C13.9258 20.2516 11.3265 17.5759 8.08217 17.4386C7.90922 16.7732 7.82173 16.0865 7.82173 15.3906C7.82173 10.9031 11.473 7.25183 15.9605 7.25183C18.9363 7.25183 21.6221 8.86942 23.0505 11.424C20.8815 12.6967 19.3493 14.9379 19.0635 17.5535C17.2872 17.991 15.9605 19.5852 15.9605 21.4948H17.9952C17.9952 20.3726 18.9078 19.4601 20.03 19.4601C21.1521 19.4601 22.0647 20.3726 22.0647 21.4948H24.0994C24.0994 19.6279 22.8297 18.0683 21.1134 17.5902C21.5305 14.6276 24.0749 12.3386 27.1514 12.3386C30.5178 12.3386 33.2555 15.0763 33.2555 18.4427C33.2555 18.9778 33.168 19.5018 33.0317 20.0125C31.3633 20.8477 30.2035 22.5569 30.2035 24.5468H32.2382C32.2382 22.8641 33.6075 21.4948 35.2902 21.4948C36.9729 21.4948 38.3423 22.8641 38.3423 24.5468C38.3423 26.2295 36.9729 27.5989 35.2902 27.5989H7.82173C5.57745 27.5989 3.75232 25.7737 3.75232 23.5295Z" fill="#F2F1EC"/>
<path fill-rule="evenodd" clip-rule="evenodd" d="M34.217 14.418C32.813 11.9652 30.175 10.3039 27.1515 10.3039C26.3772 10.3039 25.6305 10.4198 24.9194 10.6223C23.1634 7.32099 19.7523 5.2171 15.9606 5.2171C10.3509 5.2171 5.78706 9.78094 5.78706 15.3906C5.78706 16.1699 5.88269 16.937 6.05666 17.6878C3.54888 18.4467 1.71765 20.7775 1.71765 23.5294C1.71765 26.8959 4.45535 29.6335 7.82176 29.6335H15.2016H17.2913H28.1688H30.2035H35.2903C38.0951 29.6335 40.377 27.3516 40.377 24.5468C40.377 21.742 38.0951 19.46 35.2903 19.46C35.276 19.46 35.2623 19.4621 35.2486 19.4641C35.2348 19.4661 35.2211 19.4682 35.2068 19.4682C35.2506 19.1284 35.2903 18.7886 35.2903 18.4427C35.2903 17.7773 35.2007 17.1333 35.0502 16.5138L34.217 14.418V14.418ZM7.82176 19.46C5.57748 19.46 3.75236 21.2852 3.75236 23.5294C3.75236 25.7737 5.57748 27.5988 7.82176 27.5988H35.2903C36.973 27.5988 38.3423 26.2295 38.3423 24.5468C38.3423 22.8641 36.973 21.4947 35.2903 21.4947C33.6076 21.4947 32.2382 22.8641 32.2382 24.5468H30.2035C30.2035 22.5568 31.3633 20.8477 33.0317 20.0125C33.1681 19.5017 33.2556 18.9778 33.2556 18.4427C33.2556 15.0763 30.5179 12.3386 27.1515 12.3386C24.075 12.3386 21.5306 14.6276 21.1135 17.5901C22.8297 18.0683 24.0994 19.6279 24.0994 21.4947H22.0647C22.0647 20.3726 21.1521 19.46 20.03 19.46C18.9078 19.46 17.9953 20.3726 17.9953 21.4947H15.9606C15.9606 19.5852 17.2872 17.991 19.0635 17.5535C19.3494 14.9379 20.8815 12.6967 23.0505 11.424C21.6221 8.8694 18.9363 7.25181 15.9606 7.25181C11.473 7.25181 7.82176 10.9031 7.82176 15.3906C7.82176 16.0865 7.90926 16.7732 8.08221 17.4386C11.3265 17.5759 13.9259 20.2515 13.9259 23.5294H11.8912C11.8912 21.2852 10.066 19.46 7.82176 19.46Z" fill="#2F5373"/>
<path d="M25.7842 51.921C26.2173 51.921 26.5684 51.1503 26.5684 50.1996C26.5684 49.2489 26.2173 48.4781 25.7842 48.4781C25.3511 48.4781 25 49.2489 25 50.1996C25 51.1503 25.3511 51.921 25.7842 51.921Z" fill="#2F5373"/>
<path d="M48.2691 38.6012C47.3243 39.9401 46.2293 41.098 45.1363 42.2315L43.0163 44.5121C41.8792 45.8319 40.9024 47.2612 40.2793 49.048L38 50C39.1441 47.0126 41.6498 42.8711 43.5633 40.8884C46.3425 38.0095 48.75 35.2874 48.75 29.75L50.5 28.5L50.75 29.75L51 31C50.8828 33.1072 50.3569 34.6571 49.6787 36.1524L48.2691 38.6012Z" fill="#2F5373"/>
</g>
<defs>
<clipPath id="clip0_45_968">
<rect width="65" height="64" fill="white" transform="translate(0 0.633545)"/>
</clipPath>
</defs>
</svg>
