<svg id="eCeN14chuxd1" xmlns="http://www.w3.org/2000/svg" xmlns:xlink="http://www.w3.org/1999/xlink" viewBox="0 0 490 490" shape-rendering="geometricPrecision" text-rendering="geometricPrecision"><path id="eCeN14chuxd2" d="M384,192C436.9375,192,480,148.9375,480,96C480,43.0625,436.9375,0,384,0C345.558594,0,312.414062,22.761719,297.097656,55.472656L271.390625,45.984375C271.695312,44.015625,272,42.046875,272,40C272,17.945312,254.054688,0,232,0C209.945312,0,192,17.945312,192,40C192,62.054688,209.945312,80,232,80C246.328125,80,258.824219,72.359375,265.886719,61.007812L291.550781,70.480469C289.296875,78.625,288,87.152344,288,96C288,106.480469,289.742188,116.542969,292.863281,125.992188L204.878906,163.28125C188.769531,132.824219,156.792969,112,120,112C108.078125,112,96.703125,114.289062,86.160156,118.273438L64.03125,71.769531C73.671875,64.457031,80,53,80,40C80,17.945312,62.054688,0,40,0C17.945312,0,0,17.945312,0,40C0,62.054688,17.945312,80,40,80C43.328125,80,46.519531,79.472656,49.617188,78.695312L71.71875,125.152344C43.230469,141.824219,24,172.671875,24,208C24,241.183594,40.929688,270.472656,66.59375,287.71875L51.960938,314.023438C48.152344,312.824219,44.191406,312,40,312C17.945312,312,0,329.945312,0,352C0,374.054688,17.945312,392,40,392C62.054688,392,80,374.054688,80,352C80,339.886719,74.472656,329.144531,65.945312,321.808594L80.609375,295.449219C92.640625,300.894531,105.953125,304,120,304C141.953125,304,162.144531,296.511719,178.335938,284.0625L209.824219,318.703125C193.855469,335.855469,184,358.769531,184,384C184,388.894531,184.488281,393.664062,185.191406,398.359375L148.144531,407.152344C141.769531,393.519531,128.015625,384,112,384C89.945312,384,72,401.945312,72,424C72,446.054688,89.945312,464,112,464C134.054688,464,152,446.054688,152,424C152,423.558594,151.878906,423.144531,151.871094,422.703125L188.847656,413.9375C201.457031,452.246094,237.519531,480,280,480C332.9375,480,376,436.9375,376,384C376,367.585938,371.847656,352.128906,364.550781,338.609375L411.542969,308.054688C418.808594,315.414062,428.871094,320,440,320C462.054688,320,480,302.054688,480,280C480,257.945312,462.054688,240,440,240C417.945312,240,400,257.945312,400,280C400,285.167969,401.0625,290.078125,402.855469,294.617188L355.753906,325.238281C346.328125,313.121094,334.089844,303.335938,320,296.839844L359.046875,188.59375C367.015625,190.742188,375.359375,192,384,192ZM232,64C218.769531,64,208,53.230469,208,40C208,26.769531,218.769531,16,232,16C245.230469,16,256,26.769531,256,40C256,53.230469,245.230469,64,232,64ZM16,40C16,26.769531,26.769531,16,40,16C53.230469,16,64,26.769531,64,40C64,53.230469,53.230469,64,40,64C26.769531,64,16,53.230469,16,40ZM40,376C26.769531,376,16,365.230469,16,352C16,338.769531,26.769531,328,40,328C53.230469,328,64,338.769531,64,352C64,365.230469,53.230469,376,40,376ZM112,448C98.769531,448,88,437.230469,88,424C88,410.769531,98.769531,400,112,400C125.230469,400,136,410.769531,136,424C136,437.230469,125.230469,448,112,448ZM440,256C453.230469,256,464,266.769531,464,280C464,293.230469,453.230469,304,440,304C426.769531,304,416,293.230469,416,280C416,266.769531,426.769531,256,440,256ZM336.886719,160.511719C340.457031,142.007812,356.769531,128,376,128L392,128C411.230469,128,427.542969,142.007812,431.113281,160.511719C417.878906,170.199219,401.625,176,384,176C366.375,176,350.121094,170.199219,336.886719,160.511719ZM384,112C370.769531,112,360,101.230469,360,88C360,74.769531,370.769531,64,384,64C397.230469,64,408,74.769531,408,88C408,101.230469,397.230469,112,384,112ZM384,16C428.113281,16,464,51.886719,464,96C464,116,456.566406,134.273438,444.382812,148.3125C438.777344,133.550781,427.089844,121.769531,412.527344,115.953125C419.609375,108.734375,424,98.878906,424,88C424,65.945312,406.054688,48,384,48C361.945312,48,344,65.945312,344,88C344,98.878906,348.390625,108.734375,355.472656,115.953125C340.910156,121.769531,329.222656,133.550781,323.617188,148.3125C311.433594,134.273438,304,116,304,96C304,51.886719,339.886719,16,384,16ZM40,208C40,163.886719,75.886719,128,120,128C164.113281,128,200,163.886719,200,208C200,228.0625,192.519531,246.382812,180.273438,260.441406C174.6875,245.625,162.976562,233.785156,148.375,227.953125C155.449219,220.734375,159.839844,210.878906,159.839844,200C159.839844,177.945312,141.894531,160,119.839844,160C97.785156,160,79.839844,177.945312,79.839844,200C79.839844,210.878906,84.230469,220.734375,91.3125,227.953125C76.792969,233.742188,65.121094,245.480469,59.496094,260.183594C47.382812,246.160156,40,227.945312,40,208ZM95.839844,200C95.839844,186.769531,106.609375,176,119.839844,176C133.070312,176,143.839844,186.769531,143.839844,200C143.839844,213.230469,133.070312,224,119.839844,224C106.609375,224,95.839844,213.230469,95.839844,200ZM72.753906,272.40625C76.359375,253.953125,92.648438,240,111.839844,240L127.839844,240C147.105469,240,163.449219,254.054688,166.96875,272.617188C153.761719,282.246094,137.558594,288,120,288C102.3125,288,86.007812,282.160156,72.753906,272.40625ZM232.753906,448.40625C236.359375,429.953125,252.648438,416,271.839844,416L287.839844,416C307.105469,416,323.449219,430.054688,326.96875,448.617188C313.761719,458.246094,297.558594,464,280,464C262.3125,464,246.007812,458.160156,232.753906,448.40625ZM279.839844,400C266.609375,400,255.839844,389.230469,255.839844,376C255.839844,362.769531,266.609375,352,279.839844,352C293.070312,352,303.839844,362.769531,303.839844,376C303.839844,389.230469,293.070312,400,279.839844,400ZM360,384C360,404.0625,352.519531,422.382812,340.273438,436.441406C334.6875,421.625,322.976562,409.785156,308.375,403.953125C315.449219,396.734375,319.839844,386.878906,319.839844,376C319.839844,353.945312,301.894531,336,279.839844,336C257.785156,336,239.839844,353.945312,239.839844,376C239.839844,386.878906,244.230469,396.734375,251.3125,403.953125C236.792969,409.742188,225.121094,421.480469,219.496094,436.183594C207.382812,422.160156,200,403.945312,200,384C200,339.886719,235.886719,304,280,304C324.113281,304,360,339.886719,360,384ZM304.953125,291.40625C296.984375,289.257812,288.640625,288,280,288C258.046875,288,237.855469,295.488281,221.664062,307.9375L190.175781,273.296875C206.144531,256.144531,216,233.230469,216,208C216,197.519531,214.257812,187.457031,211.136719,178.007812L299.121094,140.71875C308.976562,159.351562,324.792969,174.304688,344.007812,183.160156ZM304.953125,291.40625" transform="matrix(1 0 0 1 5 5)" fill="rgb(47,83,115)" stroke="none" stroke-width="1"/><g id="eCeN14chuxd3" transform="matrix(1 0 0 1 0.000001 0)"><rect id="eCeN14chuxd4" width="129.527344" height="125.749661" rx="0" ry="0" transform="matrix(1 0 0 1.12472 360.472656 225.535903)" fill="rgb(242,241,236)" stroke="none" stroke-width="0"/><rect id="eCeN14chuxd5" width="134.054688" height="80" rx="32" ry="32" transform="matrix(0.989837 0 0 1.475909 69.559404 366.969062)" fill="rgb(242,241,236)" stroke="none" stroke-width="0"/><ellipse id="eCeN14chuxd6" display="none" rx="94.846294" ry="88.53125" transform="matrix(1.110239 0 0 1.165625 289.706263 399.474282)" fill="rgb(242,241,236)" stroke="none" stroke-width="0"/><ellipse id="eCeN14chuxd7" display="none" rx="87.635073" ry="106.537627" transform="matrix(1.21268 0 0 1 397.199355 89.773717)" fill="rgb(242,241,236)" stroke="none" stroke-width="0"/><ellipse id="eCeN14chuxd8" rx="87.635073" ry="106.537627" transform="matrix(1.21268 0 0 1 258.341133 5)" fill="rgb(242,241,236)" stroke="none" stroke-width="0"/></g><g id="eCeN14chuxd9" transform="matrix(1.395982 0 0 1.395982 293.261864 4.953309)"><path id="eCeN14chuxd10" d="M68.75,0.033447C95.0417,0.033447,117.892,14.9141,129.403,36.6782L133.875,47.2015C136.105,53.9538,137.35,61.1443,137.35,68.6334C137.35,86.6627,130.307,103.037,118.896,115.294L110.436,122.986C98.8658,131.882,84.4374,137.233,68.75,137.233C58.7124,137.233,49.1995,135.014,40.6021,131.123L30.5868,125.599C12.2477,113.275,0.150024,92.3459,0.150024,68.6334C0.150024,43.3886,13.8918,21.3453,34.249,9.43189L44.5686,4.51634C52.1025,1.66917,60.2309,0.033447,68.75,0.033447Z" fill="rgb(242,241,236)" stroke="none" stroke-width="1"/><path id="eCeN14chuxd11" d="M129.403,36.6782C117.892,14.9141,95.0417,0.033447,68.75,0.033447C60.2308,0.033447,52.1025,1.66917,44.5686,4.51634L34.249,9.43189C13.8918,21.3453,0.150024,43.3886,0.150024,68.6334C0.150024,92.3459,12.2477,113.275,30.5868,125.599L40.6021,131.123C49.1995,135.014,58.7124,137.233,68.75,137.233C84.4374,137.233,98.8658,131.882,110.436,122.986L118.896,115.294C130.307,103.037,137.35,86.6627,137.35,68.6334C137.35,61.1443,136.105,53.9538,133.875,47.2015L129.403,36.6782ZM68.75,11.4668C37.2274,11.4668,11.5834,37.1108,11.5834,68.6334C11.5834,82.886,16.859,95.9021,25.5149,105.923C29.5345,95.4164,37.875,87.0284,48.2504,82.8916C43.1897,77.7332,40.0522,70.6907,40.0522,62.9168C40.0522,47.1569,52.8757,34.3335,68.6356,34.3335C84.3955,34.3335,97.2189,47.1569,97.2189,62.9168C97.2189,70.6907,94.0814,77.7332,89.0263,82.8916C99.4604,87.0591,107.829,95.5196,111.82,106.107C120.571,96.0612,125.917,82.9698,125.917,68.6334C125.917,37.1108,100.273,11.4668,68.75,11.4668ZM34.9888,114.657C37.5652,101.471,49.2051,91.5001,62.9189,91.5001L74.3522,91.5001C88.1191,91.5001,99.7981,101.543,102.313,114.808C92.8756,121.688,81.2971,125.8,68.75,125.8C56.1108,125.8,44.4598,121.627,34.9888,114.657ZM68.6356,45.7668C59.1813,45.7668,51.4856,53.4625,51.4856,62.9168C51.4856,72.3711,59.1813,80.0668,68.6356,80.0668C78.0899,80.0668,85.7856,72.3711,85.7856,62.9168C85.7856,53.4625,78.0899,45.7668,68.6356,45.7668Z" clip-rule="evenodd" fill="rgb(47,83,115)" fill-rule="evenodd" stroke="none" stroke-width="1"/></g><g id="eCeN14chuxd12" transform="matrix(1.395982 0 0 1.395982 28.934056 117.306021)"><path id="eCeN14chuxd13" d="M68.75,0.033447C95.0417,0.033447,117.892,14.9141,129.403,36.6782L133.875,47.2015C136.105,53.9538,137.35,61.1443,137.35,68.6334C137.35,86.6627,130.307,103.037,118.896,115.294L110.436,122.986C98.8658,131.882,84.4374,137.233,68.75,137.233C58.7124,137.233,49.1995,135.014,40.6021,131.123L30.5868,125.599C12.2477,113.275,0.150024,92.3459,0.150024,68.6334C0.150024,43.3886,13.8918,21.3453,34.249,9.43189L44.5686,4.51634C52.1025,1.66917,60.2309,0.033447,68.75,0.033447Z" fill="rgb(242,241,236)" stroke="none" stroke-width="1"/><path id="eCeN14chuxd14" d="M129.403,36.6782C117.892,14.9141,95.0417,0.033447,68.75,0.033447C60.2308,0.033447,52.1025,1.66917,44.5686,4.51634L34.249,9.43189C13.8918,21.3453,0.150024,43.3886,0.150024,68.6334C0.150024,92.3459,12.2477,113.275,30.5868,125.599L40.6021,131.123C49.1995,135.014,58.7124,137.233,68.75,137.233C84.4374,137.233,98.8658,131.882,110.436,122.986L118.896,115.294C130.307,103.037,137.35,86.6627,137.35,68.6334C137.35,61.1443,136.105,53.9538,133.875,47.2015L129.403,36.6782ZM68.75,11.4668C37.2274,11.4668,11.5834,37.1108,11.5834,68.6334C11.5834,82.886,16.859,95.9021,25.5149,105.923C29.5345,95.4164,37.875,87.0284,48.2504,82.8916C43.1897,77.7332,40.0522,70.6907,40.0522,62.9168C40.0522,47.1569,52.8757,34.3335,68.6356,34.3335C84.3955,34.3335,97.2189,47.1569,97.2189,62.9168C97.2189,70.6907,94.0814,77.7332,89.0263,82.8916C99.4604,87.0591,107.829,95.5196,111.82,106.107C120.571,96.0612,125.917,82.9698,125.917,68.6334C125.917,37.1108,100.273,11.4668,68.75,11.4668ZM34.9888,114.657C37.5652,101.471,49.2051,91.5001,62.9189,91.5001L74.3522,91.5001C88.1191,91.5001,99.7981,101.543,102.313,114.808C92.8756,121.688,81.2971,125.8,68.75,125.8C56.1108,125.8,44.4598,121.627,34.9888,114.657ZM68.6356,45.7668C59.1813,45.7668,51.4856,53.4625,51.4856,62.9168C51.4856,72.3711,59.1813,80.0668,68.6356,80.0668C78.0899,80.0668,85.7856,72.3711,85.7856,62.9168C85.7856,53.4625,78.0899,45.7668,68.6356,45.7668Z" clip-rule="evenodd" fill="rgb(47,83,115)" fill-rule="evenodd" stroke="none" stroke-width="1"/></g><g id="eCeN14chuxd15" transform="matrix(1.395982 0 0 1.395982 188.926257 293.425201)"><path id="eCeN14chuxd16" d="M68.75,0.033447C95.0417,0.033447,117.892,14.9141,129.403,36.6782L133.875,47.2015C136.105,53.9538,137.35,61.1443,137.35,68.6334C137.35,86.6627,130.307,103.037,118.896,115.294L110.436,122.986C98.8658,131.882,84.4374,137.233,68.75,137.233C58.7124,137.233,49.1995,135.014,40.6021,131.123L30.5868,125.599C12.2477,113.275,0.150024,92.3459,0.150024,68.6334C0.150024,43.3886,13.8918,21.3453,34.249,9.43189L44.5686,4.51634C52.1025,1.66917,60.2309,0.033447,68.75,0.033447Z" fill="rgb(242,241,236)" stroke="none" stroke-width="1"/><path id="eCeN14chuxd17" d="M129.403,36.6782C117.892,14.9141,95.0417,0.033447,68.75,0.033447C60.2308,0.033447,52.1025,1.66917,44.5686,4.51634L34.249,9.43189C13.8918,21.3453,0.150024,43.3886,0.150024,68.6334C0.150024,92.3459,12.2477,113.275,30.5868,125.599L40.6021,131.123C49.1995,135.014,58.7124,137.233,68.75,137.233C84.4374,137.233,98.8658,131.882,110.436,122.986L118.896,115.294C130.307,103.037,137.35,86.6627,137.35,68.6334C137.35,61.1443,136.105,53.9538,133.875,47.2015L129.403,36.6782ZM68.75,11.4668C37.2274,11.4668,11.5834,37.1108,11.5834,68.6334C11.5834,82.886,16.859,95.9021,25.5149,105.923C29.5345,95.4164,37.875,87.0284,48.2504,82.8916C43.1897,77.7332,40.0522,70.6907,40.0522,62.9168C40.0522,47.1569,52.8757,34.3335,68.6356,34.3335C84.3955,34.3335,97.2189,47.1569,97.2189,62.9168C97.2189,70.6907,94.0814,77.7332,89.0263,82.8916C99.4604,87.0591,107.829,95.5196,111.82,106.107C120.571,96.0612,125.917,82.9698,125.917,68.6334C125.917,37.1108,100.273,11.4668,68.75,11.4668ZM34.9888,114.657C37.5652,101.471,49.2051,91.5001,62.9189,91.5001L74.3522,91.5001C88.1191,91.5001,99.7981,101.543,102.313,114.808C92.8756,121.688,81.2971,125.8,68.75,125.8C56.1108,125.8,44.4598,121.627,34.9888,114.657ZM68.6356,45.7668C59.1813,45.7668,51.4856,53.4625,51.4856,62.9168C51.4856,72.3711,59.1813,80.0668,68.6356,80.0668C78.0899,80.0668,85.7856,72.3711,85.7856,62.9168C85.7856,53.4625,78.0899,45.7668,68.6356,45.7668Z" clip-rule="evenodd" fill="rgb(47,83,115)" fill-rule="evenodd" stroke="none" stroke-width="1"/></g><g id="eCeN14chuxd18" transform="matrix(1.364338 -0.319454 0.319454 1.364338 47.408291 372.619015)"><path id="eCeN14chuxd19" d="M66.9841,45.007L88.4936,45.0083L88.5342,56.446L66.9797,56.4442C65.3604,64.3174,60.572,71.5004,53.0074,75.7078C39.2345,83.3683,21.7948,78.3949,14.1343,64.622C6.47378,50.8492,11.4472,33.4094,25.2201,25.7489C38.9929,18.0884,56.4327,23.0619,64.0932,36.8347C65.5491,39.4522,66.4101,42.212,66.9841,45.007Z" fill="rgb(242,241,236)" stroke="none" stroke-width="1"/><path id="eCeN14chuxd20" d="M88.4936,45.0083L66.9841,45.007C66.4101,42.212,65.549,39.4522,64.0932,36.8347C56.4327,23.0619,38.9929,18.0884,25.2201,25.7489C11.4472,33.4094,6.47375,50.8492,14.1343,64.622C21.7948,78.3949,39.2345,83.3684,53.0074,75.7078C60.5719,71.5004,65.3604,64.3174,66.9797,56.4442L88.5342,56.446L95.4375,56.446L95.4375,45.0083L88.4936,45.0083ZM30.7775,35.7407C22.5153,40.3362,19.5305,50.8023,24.126,59.0646C28.7215,67.3268,39.1877,70.3116,47.4499,65.7161C55.7122,61.1206,58.6969,50.6544,54.1014,42.3922C49.5059,34.1299,39.0398,31.1452,30.7775,35.7407Z" clip-rule="evenodd" fill="rgb(47,83,115)" fill-rule="evenodd" stroke="none" stroke-width="1"/></g><g id="eCeN14chuxd21" transform="matrix(1.317746 0.476461 -0.476461 1.317746 209.596555 -39.977585)"><path id="eCeN14chuxd22" d="M66.9841,45.007L88.4936,45.0083L88.5342,56.446L66.9797,56.4442C65.3604,64.3174,60.572,71.5004,53.0074,75.7078C39.2345,83.3683,21.7948,78.3949,14.1343,64.622C6.47378,50.8492,11.4472,33.4094,25.2201,25.7489C38.9929,18.0884,56.4327,23.0619,64.0932,36.8347C65.5491,39.4522,66.4101,42.212,66.9841,45.007Z" fill="rgb(242,241,236)" stroke="none" stroke-width="1"/><path id="eCeN14chuxd23" d="M88.4936,45.0083L66.9841,45.007C66.4101,42.212,65.549,39.4522,64.0932,36.8347C56.4327,23.0619,38.9929,18.0884,25.2201,25.7489C11.4472,33.4094,6.47375,50.8492,14.1343,64.622C21.7948,78.3949,39.2345,83.3684,53.0074,75.7078C60.5719,71.5004,65.3604,64.3174,66.9797,56.4442L88.5342,56.446L95.4375,56.446L95.4375,45.0083L88.4936,45.0083ZM30.7775,35.7407C22.5153,40.3362,19.5305,50.8023,24.126,59.0646C28.7215,67.3268,39.1877,70.3116,47.4499,65.7161C55.7122,61.1206,58.6969,50.6544,54.1014,42.3922C49.5059,34.1299,39.0398,31.1452,30.7775,35.7407Z" clip-rule="evenodd" fill="rgb(47,83,115)" fill-rule="evenodd" stroke="none" stroke-width="1"/></g><g id="eCeN14chuxd24" transform="matrix(-1.174641 0.763994 -0.763994 -1.174641 529.199636 315.578076)"><path id="eCeN14chuxd25" d="M66.9841,45.007L88.4936,45.0083L88.5342,56.446L66.9797,56.4442C65.3604,64.3174,60.572,71.5004,53.0074,75.7078C39.2345,83.3683,21.7948,78.3949,14.1343,64.622C6.47378,50.8492,11.4472,33.4094,25.2201,25.7489C38.9929,18.0884,56.4327,23.0619,64.0932,36.8347C65.5491,39.4522,66.4101,42.212,66.9841,45.007Z" fill="rgb(242,241,236)" stroke="none" stroke-width="1"/><path id="eCeN14chuxd26" d="M88.4936,45.0083L66.9841,45.007C66.4101,42.212,65.549,39.4522,64.0932,36.8347C56.4327,23.0619,38.9929,18.0884,25.2201,25.7489C11.4472,33.4094,6.47375,50.8492,14.1343,64.622C21.7948,78.3949,39.2345,83.3684,53.0074,75.7078C60.5719,71.5004,65.3604,64.3174,66.9797,56.4442L88.5342,56.446L111.05159,57.397014L110.883695,45.686557L88.4936,45.0083ZM30.7775,35.7407C22.5153,40.3362,19.5305,50.8023,24.126,59.0646C28.7215,67.3268,39.1877,70.3116,47.4499,65.7161C55.7122,61.1206,58.6969,50.6544,54.1014,42.3922C49.5059,34.1299,39.0398,31.1452,30.7775,35.7407Z" clip-rule="evenodd" fill="rgb(47,83,115)" fill-rule="evenodd" stroke="none" stroke-width="1"/></g></svg>